<?xml version="1.0" standalone="no"?>
<!DOCTYPE svg PUBLIC "-//W3C//DTD SVG 20010904//EN"
 "http://www.w3.org/TR/2001/REC-SVG-20010904/DTD/svg10.dtd">
<svg version="1.0" xmlns="http://www.w3.org/2000/svg"
 width="1468.000000pt" height="1535.000000pt" viewBox="0 0 1468.000000 1535.000000"
 preserveAspectRatio="xMidYMid meet">
<metadata>
Created by potrace 1.16, written by Peter Selinger 2001-2019
</metadata>
<g transform="translate(0.000000,1535.000000) scale(0.100000,-0.100000)"
fill="#000000" stroke="none">
<path d="M13487 14924 c-4 -4 -562 -16 -582 -13 -59 10 -2062 -5 -2180 -16
-56 -5 -504 -7 -1170 -6 -307 1 -1074 -6 -1700 -14 -1150 -16 -1580 -19 -2185
-16 -173 1 -421 2 -550 2 -129 0 -424 2 -655 4 -2122 23 -4229 25 -4251 2 -2
-2 2 -41 8 -88 7 -46 12 -118 11 -159 -5 -348 4 -3926 11 -4035 16 -253 26
-3749 12 -4250 -10 -393 -11 -1125 0 -1355 8 -193 12 -1440 7 -2035 -2 -126
-2 -237 -2 -245 1 -8 -2 -35 -5 -60 -20 -158 -21 -1494 -2 -2088 6 -168 11
-191 44 -173 12 6 108 13 239 16 120 3 324 7 453 11 307 7 667 7 965 0 132 -3
359 -9 505 -12 277 -7 934 -6 1200 2 85 2 297 6 470 9 456 7 725 15 805 25 39
5 432 11 875 15 443 3 895 8 1005 12 209 7 858 6 2265 -2 1067 -7 1094 -7
1975 0 407 4 747 9 755 12 8 3 542 7 1185 9 1131 2 1506 7 1539 20 9 4 15 11
14 18 -1 6 4 22 11 35 10 19 12 114 7 480 -3 251 -8 494 -11 541 -3 47 -7 256
-11 465 -3 209 -7 409 -10 445 -3 36 -5 180 -6 320 0 140 -4 263 -9 272 -5 10
-5 19 0 22 5 3 7 174 4 393 -6 549 -13 2226 -18 4198 -2 930 -6 1809 -9 1955
-3 146 -8 461 -11 700 -3 239 -7 473 -10 520 -2 47 -7 242 -11 435 -3 192 -9
354 -12 360 -4 5 -8 397 -8 870 -1 473 -2 983 -3 1133 -1 161 3 280 8 291 7
12 7 21 0 28 -15 15 -28 744 -16 865 4 38 2 59 -6 66 -7 5 -84 10 -172 12
-206 3 -765 7 -768 4z m839 -97 c15 -9 23 -178 26 -533 l2 -291 -24 -47 c-70
-133 -201 -232 -353 -269 -144 -34 -232 -14 -432 95 -110 61 -195 145 -245
244 -33 65 -37 69 -72 72 -56 5 -72 -10 -97 -85 -18 -55 -33 -77 -79 -123
-101 -98 -185 -149 -247 -150 -60 0 -116 93 -146 241 -17 86 -20 125 -15 223
3 65 11 125 17 132 5 7 9 30 7 51 -3 34 -7 39 -41 50 -35 12 -42 11 -100 -18
-34 -18 -81 -45 -105 -61 -24 -17 -81 -50 -128 -74 -77 -40 -114 -47 -114 -22
0 5 -9 23 -21 39 -16 23 -28 29 -57 29 -40 0 -79 -23 -186 -113 -39 -32 -103
-74 -144 -94 -69 -34 -77 -35 -100 -22 -36 20 -55 81 -48 156 5 62 5 63 -24
78 -16 8 -40 15 -54 15 -24 0 -159 -84 -221 -138 -17 -15 -46 -38 -65 -52 -18
-14 -74 -59 -124 -100 -87 -72 -232 -180 -241 -180 -2 0 -26 -12 -52 -28 -67
-38 -149 -65 -177 -58 -61 15 -123 98 -157 208 -43 143 -52 191 -46 267 3 42
11 88 18 104 11 24 10 30 -11 52 -31 33 -91 34 -151 2 -256 -133 -550 -161
-604 -58 -8 17 -12 36 -10 43 9 22 -33 52 -76 55 -42 3 -68 -9 -204 -96 -212
-135 -475 -231 -569 -207 -14 3 -38 20 -54 37 -34 36 -92 45 -132 21 -27 -17
-172 -130 -180 -141 -15 -21 -147 -122 -223 -172 -133 -87 -236 -119 -281 -86
-20 14 -24 80 -11 165 8 52 7 54 -24 83 -41 37 -91 38 -189 4 -89 -31 -97 -31
-140 2 -20 15 -48 26 -66 27 -49 0 -139 -15 -166 -29 -14 -6 -59 -17 -100 -24
-41 -7 -80 -15 -86 -16 -28 -8 -52 26 -63 90 -7 36 -9 70 -6 75 3 4 -9 23 -27
40 -30 30 -35 32 -87 28 -33 -3 -83 -17 -121 -35 -137 -65 -267 -102 -310 -88
-28 9 -51 57 -55 118 -4 72 -10 81 -60 99 -51 19 -83 13 -144 -29 -68 -46
-299 -155 -332 -156 l-34 -2 1 86 c1 81 4 92 49 190 27 57 58 117 69 132 19
26 19 30 6 54 -22 38 -62 49 -135 34 -57 -12 -60 -12 -74 8 -7 12 -22 21 -32
21 -10 0 -21 5 -25 11 -5 8 -30 9 -79 5 l-73 -7 -4 34 -4 35 736 0 c685 1
1334 9 1389 17 13 2 726 7 1585 11 858 3 1564 8 1567 10 3 2 318 6 700 10 382
3 695 7 696 8 6 5 1981 -1 1989 -7z m-13306 -38 c4 -6 8 -91 8 -188 0 -414 77
-666 236 -776 56 -39 61 -40 139 -40 152 0 293 84 468 280 130 146 210 249
409 531 19 27 42 56 50 64 9 8 36 41 59 73 l43 57 57 1 c180 2 654 -1 657 -4
2 -2 -20 -33 -49 -70 -46 -58 -72 -98 -168 -263 -21 -35 -65 -104 -99 -154 -6
-8 -29 -44 -52 -80 -23 -36 -69 -105 -101 -155 -74 -111 -135 -214 -167 -280
-13 -27 -46 -88 -73 -135 -27 -47 -64 -114 -81 -150 -18 -36 -60 -119 -93
-185 -66 -128 -79 -156 -180 -390 -83 -192 -136 -338 -180 -495 -19 -69 -50
-174 -69 -235 -18 -60 -36 -126 -39 -145 -3 -19 -10 -48 -15 -65 -30 -98 -68
-398 -76 -605 -10 -232 -11 -995 -2 -1290 6 -214 39 -753 52 -860 2 -14 7 -59
10 -100 11 -118 35 -310 62 -490 14 -91 29 -203 35 -250 14 -126 78 -567 89
-614 5 -23 18 -97 29 -166 27 -172 29 -180 36 -220 10 -56 43 -232 75 -400 98
-509 95 -482 63 -670 -12 -69 -24 -150 -28 -180 l-7 -54 -20 24 c-93 118 -139
135 -271 102 l-37 -10 -21 48 c-43 99 -123 142 -217 114 -26 -8 -52 -21 -59
-30 -12 -16 -38 -10 -28 6 5 8 -11 59 -36 115 -4 11 -20 54 -34 95 -14 41 -36
90 -48 110 -12 19 -29 47 -36 62 -23 46 -76 96 -107 103 -16 4 -38 11 -49 15
-57 26 -137 8 -175 -38 -80 -97 -113 -235 -109 -459 1 -84 0 -155 -3 -158 -3
-4 -24 -1 -47 5 -33 9 -52 7 -98 -6 -58 -17 -76 -30 -93 -71 -13 -31 -31 -29
-71 7 -42 38 -121 76 -175 85 -39 6 -42 9 -48 46 -4 22 -4 43 -2 47 8 14 19
687 19 1247 0 564 -9 1774 -19 2615 -11 882 -18 2063 -17 2695 0 358 0 803 0
990 -1 537 0 630 8 790 4 83 8 151 9 152 1 1 46 3 99 5 53 1 97 5 97 8 0 3
109 4 242 3 170 -1 243 -5 248 -14z m1227 5 l62 -5 -29 -47 c-16 -26 -47 -67
-69 -92 -23 -25 -73 -92 -112 -149 -39 -57 -75 -109 -80 -115 -5 -6 -41 -54
-81 -106 -39 -52 -99 -126 -133 -165 -34 -38 -77 -87 -95 -107 -38 -43 -61
-47 -108 -18 -102 62 -149 155 -183 360 -12 71 -21 378 -13 422 l5 27 137 3
c195 4 626 -1 699 -8z m2891 -16 l383 -1 19 -37 c32 -63 115 -109 205 -114 28
-1 74 -14 107 -29 l56 -27 -34 -77 c-31 -72 -34 -86 -34 -179 0 -110 9 -141
58 -189 15 -15 38 -32 52 -37 33 -12 148 -2 196 18 83 34 223 105 234 119 19
23 36 18 50 -15 17 -41 76 -97 130 -123 60 -28 196 -36 249 -14 20 9 68 25
106 37 39 12 75 23 81 26 6 2 18 -12 28 -33 22 -49 53 -84 105 -119 35 -22 56
-28 121 -32 56 -3 90 0 117 11 21 8 75 22 119 31 81 17 82 17 125 -6 33 -17
65 -24 126 -26 l81 -4 7 -36 c14 -75 61 -138 130 -175 34 -19 55 -22 146 -20
114 1 146 12 254 86 22 15 44 27 50 27 6 0 22 11 37 25 14 13 53 46 85 72 62
51 121 102 135 118 69 80 75 82 146 48 74 -35 159 -39 262 -11 41 11 89 24
105 28 84 21 260 114 345 183 55 44 74 57 82 57 5 0 27 -20 51 -44 111 -112
356 -127 572 -35 69 29 98 38 106 33 5 -3 9 -22 9 -43 0 -40 37 -194 64 -269
26 -73 76 -159 115 -198 58 -59 112 -79 211 -79 150 0 241 54 606 355 125 104
147 120 159 120 7 0 20 -18 29 -39 37 -94 135 -158 224 -145 26 3 74 19 108
34 57 27 192 125 223 164 13 16 15 15 35 -2 31 -29 92 -45 148 -40 45 5 111
34 215 94 17 10 34 16 36 14 3 -3 7 -60 10 -128 3 -73 10 -128 17 -137 6 -8 9
-19 6 -24 -10 -16 34 -132 71 -189 47 -70 101 -114 160 -131 57 -17 65 -17
123 -6 73 13 149 62 252 165 l97 96 63 -64 c73 -75 160 -134 273 -185 144 -65
209 -82 315 -81 105 2 177 11 186 25 3 5 12 9 21 9 17 0 104 39 113 50 3 4 20
15 38 25 17 11 32 23 32 27 0 4 6 8 14 8 7 0 19 7 26 15 7 8 16 15 21 15 4 0
7 -413 5 -917 -2 -505 1 -974 5 -1043 4 -69 10 -237 13 -375 3 -137 8 -342 11
-455 8 -337 14 -703 21 -1303 l6 -568 -39 6 c-48 7 -419 10 -1008 8 -253 -1
-548 0 -655 3 -177 3 -1294 5 -1450 2 -36 -1 -340 0 -675 1 -336 1 -623 -1
-638 -4 -24 -6 -29 -3 -42 26 -9 19 -20 41 -25 49 -5 8 -22 42 -38 75 -44 93
-103 198 -122 220 -9 11 -21 27 -26 36 -5 10 -31 43 -59 75 -34 39 -54 73 -62
107 -23 87 -111 254 -174 329 -21 26 -39 49 -39 52 0 11 162 159 214 196 12 8
30 22 40 32 11 10 23 18 27 18 4 0 15 7 24 16 14 15 25 12 133 -26 108 -39
127 -43 256 -49 209 -11 269 7 444 134 71 51 323 324 382 415 8 12 30 42 48
66 60 80 152 283 152 334 0 15 5 31 11 37 6 6 12 36 14 67 1 31 8 63 16 72 11
14 14 81 16 338 1 177 2 324 2 327 1 4 12 10 25 13 14 3 45 25 69 49 25 23 60
53 79 66 39 29 136 163 156 218 9 23 16 94 19 178 5 139 5 141 -30 247 -54
163 -98 240 -192 333 -118 117 -262 195 -514 282 -105 36 -291 82 -357 88 -31
3 -73 9 -93 15 -51 13 -216 32 -278 31 -29 0 -90 -9 -135 -20 -188 -45 -194
-45 -323 -25 -157 24 -231 21 -377 -16 -248 -62 -571 -233 -648 -343 -66 -94
-84 -117 -93 -117 -5 0 -47 -34 -94 -75 -46 -41 -88 -75 -94 -75 -16 0 -127
-109 -168 -165 -56 -75 -123 -191 -159 -275 -18 -41 -37 -83 -43 -92 -5 -10
-13 -34 -18 -55 -6 -21 -20 -69 -31 -108 -27 -89 -38 -283 -20 -352 19 -74 42
-136 57 -154 7 -8 13 -20 13 -25 1 -5 23 -38 50 -74 35 -45 46 -67 37 -72 -19
-12 -76 -9 -194 8 -177 26 -286 102 -388 269 -162 267 -277 402 -422 497 -127
84 -316 177 -389 192 -66 14 -243 32 -274 28 -114 -14 -203 -24 -285 -32 -55
-5 -119 -12 -142 -15 l-41 -6 31 -33 c35 -37 69 -48 219 -71 103 -16 163 -39
374 -142 64 -32 171 -122 226 -191 36 -45 103 -161 96 -167 -2 -2 -50 42 -108
97 -58 55 -119 110 -136 122 -298 203 -410 244 -679 250 -82 2 -169 2 -192 -1
-37 -4 -43 -8 -49 -36 -5 -25 -2 -35 19 -53 14 -12 47 -25 73 -29 87 -13 312
-110 414 -179 135 -92 256 -204 237 -222 -2 -2 -24 3 -48 12 -24 8 -64 19 -89
24 -25 5 -81 15 -125 23 -44 9 -134 30 -200 47 -105 28 -130 31 -202 26 l-81
-6 -84 62 c-67 50 -173 123 -288 198 -8 5 -37 25 -65 44 -27 19 -95 65 -150
102 -129 87 -179 126 -241 191 -27 28 -71 61 -96 72 -53 23 -87 63 -121 146
-38 94 -48 165 -51 390 -4 219 -11 286 -42 395 -17 62 -90 186 -120 203 -8 4
-14 15 -14 22 0 8 -4 15 -9 15 -5 0 -17 15 -28 34 -34 64 -307 349 -345 362
-10 3 -18 10 -18 15 0 5 -10 9 -23 9 -13 0 -27 4 -32 9 -6 4 -24 13 -42 19
-44 15 -90 -9 -109 -54 -8 -19 -16 -34 -19 -34 -2 0 -19 9 -37 20 -62 38 -104
44 -153 20 -64 -31 -79 -59 -71 -137 l7 -63 -32 0 c-19 0 -47 -11 -68 -27 -20
-14 -37 -27 -38 -28 -2 -1 -7 -25 -13 -55 -12 -66 -2 -106 44 -180 63 -100 63
-95 28 -130 -57 -56 -56 -157 2 -274 20 -41 51 -91 70 -112 84 -95 105 -123
145 -184 23 -36 46 -83 52 -105 6 -22 33 -105 59 -185 26 -80 60 -185 76 -234
31 -99 87 -185 151 -232 21 -15 70 -52 110 -81 l71 -54 -15 -29 c-8 -16 -19
-32 -24 -36 -10 -6 -17 -20 -50 -109 -32 -85 -20 -205 27 -256 9 -10 60 -48
113 -84 53 -36 117 -80 143 -99 145 -104 238 -166 270 -179 20 -9 67 -35 105
-60 120 -77 183 -117 188 -117 2 0 82 -47 177 -104 95 -58 210 -119 256 -137
59 -23 86 -39 95 -57 12 -25 117 -72 160 -72 24 0 57 -27 57 -47 0 -23 33 -61
195 -226 158 -160 313 -298 405 -360 75 -50 120 -91 120 -108 0 -8 -34 -70
-76 -139 -42 -69 -90 -150 -107 -180 -32 -58 -164 -255 -205 -305 -76 -92 -81
-97 -110 -87 -38 12 -127 -9 -245 -58 -55 -23 -101 -39 -104 -37 -2 3 5 23 17
46 11 23 18 41 15 41 -3 0 5 15 18 33 71 98 72 143 6 174 -35 16 -51 18 -117
11 -42 -5 -96 -16 -120 -25 -23 -9 -45 -13 -49 -9 -6 6 35 89 69 138 10 14 18
34 18 43 0 21 -65 85 -86 85 -40 0 -206 -82 -285 -141 -47 -35 -105 -77 -128
-94 -23 -16 -48 -35 -54 -40 -69 -61 -87 -58 -87 14 0 44 -5 65 -21 85 -44 56
-123 72 -208 42 -24 -9 -46 -14 -49 -11 -3 2 10 35 28 72 l33 67 -29 23 c-38
30 -55 29 -171 -11 -54 -19 -105 -34 -113 -35 -8 0 -28 -3 -45 -7 -25 -5 -28
-4 -17 7 6 7 12 19 12 27 0 7 20 54 45 103 25 49 45 96 45 104 0 26 -52 57
-88 51 -34 -5 -154 -75 -182 -106 -8 -9 -53 -52 -100 -95 -47 -43 -103 -95
-126 -116 -35 -33 -101 -69 -125 -69 -4 0 -8 19 -7 43 1 54 -17 84 -59 98 -40
13 -83 5 -118 -23 -14 -11 -28 -19 -30 -17 -2 2 -7 29 -11 59 -7 49 -7 99 -1
219 2 28 -3 37 -28 52 -16 10 -35 18 -41 18 -31 2 -196 -181 -262 -291 -13
-20 -28 -38 -35 -41 -12 -5 -39 -52 -56 -99 -6 -16 -14 -28 -19 -28 -5 0 -19
25 -31 55 -26 63 -52 85 -97 85 -24 0 -38 -8 -58 -34 -14 -19 -26 -38 -26 -42
0 -19 -66 -134 -77 -134 -7 0 -13 -7 -13 -15 0 -40 -41 12 -54 70 -4 16 -11
32 -15 35 -4 3 -23 30 -43 60 -20 30 -49 67 -65 82 -49 46 -123 54 -123 13 0
-30 -23 -85 -35 -85 -8 0 -22 12 -32 26 -32 49 -118 136 -159 160 -70 41 -94
31 -108 -48 -4 -21 -10 -39 -14 -42 -6 -3 -77 36 -149 81 -14 9 -24 193 -23
428 0 83 0 224 -1 315 -3 347 0 686 5 715 3 17 6 82 6 145 1 186 52 500 120
735 21 71 48 168 60 215 26 98 70 219 82 226 4 3 8 17 8 31 0 13 6 37 14 51 7
15 30 68 51 117 20 50 41 94 46 99 5 6 9 17 9 25 0 31 230 494 338 682 34 59
66 118 71 132 15 40 88 154 367 577 45 69 92 145 104 170 25 51 87 137 139
193 l36 38 740 -6 c407 -3 912 -6 1123 -7z m-1243 -650 c113 -94 234 -234 418
-487 106 -144 128 -240 128 -541 0 -160 3 -192 24 -275 28 -108 63 -190 101
-240 24 -31 25 -37 12 -53 -7 -9 -29 -63 -47 -120 -18 -57 -53 -138 -78 -180
-48 -82 -119 -172 -134 -172 -5 0 -14 11 -19 24 -13 36 -148 164 -207 198
-103 58 -190 181 -268 378 -33 83 -85 263 -85 294 0 51 -108 206 -213 303 -56
52 -110 161 -108 216 1 50 6 57 40 57 38 0 72 -42 201 -252 40 -65 76 -118 79
-118 4 0 17 10 30 21 38 35 20 86 -76 224 -23 33 -53 73 -67 89 -14 16 -26 34
-26 40 0 7 -18 32 -40 56 -22 24 -40 48 -40 53 0 7 -39 66 -51 77 -32 28 -89
117 -89 138 0 58 29 67 100 35 38 -17 53 -32 90 -94 25 -41 85 -129 135 -197
75 -102 117 -172 175 -293 15 -30 39 -136 45 -199 20 -208 59 -330 139 -439
49 -67 70 -78 90 -50 13 19 13 26 1 56 -8 18 -21 40 -29 49 -9 8 -21 34 -27
57 -9 35 -39 89 -59 107 -15 14 -29 85 -35 175 -11 191 -29 267 -94 404 -62
130 -80 189 -81 254 0 33 3 37 24 37 31 0 87 -74 122 -160 34 -84 64 -129 116
-176 24 -21 57 -57 73 -79 79 -109 138 -148 173 -113 21 21 14 46 -30 109 -40
56 -62 81 -142 157 -15 15 -42 56 -58 92 -66 143 -83 172 -119 204 -20 18 -40
35 -46 37 -19 8 -74 100 -89 151 -9 29 -20 61 -25 71 -5 9 -12 38 -16 62 -5
43 -4 45 18 45 14 0 42 -15 64 -32z m-272 -29 c12 -7 48 -36 79 -65 31 -30 60
-54 65 -54 9 0 93 -113 93 -125 0 -3 -9 -5 -19 -5 -28 0 -80 -53 -87 -89 -4
-17 -12 -31 -18 -31 -19 0 -105 143 -151 252 -66 152 -60 168 38 117z m6620
-603 c89 -17 141 -48 185 -111 18 -25 32 -48 32 -50 0 -9 -53 8 -100 31 -25
12 -63 27 -85 34 -22 7 -49 16 -60 20 -81 32 -109 40 -157 46 -72 9 -91 20
-58 33 37 15 158 13 243 -3z m-706 -21 c43 -8 94 -15 114 -15 20 0 54 -6 75
-13 22 -8 55 -14 74 -15 19 -1 58 -6 85 -12 28 -6 86 -15 130 -20 81 -11 196
-46 340 -105 172 -71 245 -89 245 -59 0 19 -37 86 -85 153 -21 29 -35 54 -32
57 14 14 381 -102 493 -156 146 -70 258 -168 309 -270 35 -71 51 -130 34 -130
-5 0 -27 9 -48 19 -87 45 -278 92 -436 108 -158 15 -503 4 -628 -21 -43 -9
-100 -16 -125 -16 -26 -1 -101 -12 -167 -26 -66 -14 -140 -29 -165 -34 -25 -5
-72 -16 -105 -25 -33 -9 -78 -20 -100 -25 -93 -23 -246 -68 -280 -84 -16 -8
-48 -22 -70 -31 -22 -8 -53 -22 -68 -30 -16 -8 -33 -15 -38 -15 -20 0 -365
-168 -464 -226 -33 -19 -68 -38 -77 -41 -10 -3 -18 -9 -18 -14 0 -5 -5 -9 -11
-9 -10 0 -109 -61 -199 -123 -128 -88 -265 -222 -334 -326 -26 -39 -52 -71
-58 -71 -16 0 -2 228 18 298 44 157 103 291 179 408 118 180 178 230 350 294
263 97 482 161 635 185 58 9 128 21 155 26 54 11 450 13 527 3 39 -5 49 -4 54
11 10 25 -15 44 -77 60 -30 7 -121 34 -204 59 -175 54 -322 71 -544 64 -132
-5 -134 -4 -110 14 13 10 29 22 35 27 6 5 21 12 35 16 13 4 33 13 44 19 36 23
134 56 213 72 42 9 84 20 92 25 23 13 120 11 207 -6z m-222 -245 c55 -5 112
-12 128 -16 50 -11 28 -24 -41 -24 -103 0 -542 -74 -593 -100 -8 -4 -41 -13
-73 -20 -31 -6 -77 -21 -102 -31 -63 -28 -79 -23 -57 17 47 82 59 94 103 108
204 67 409 88 635 66z m1610 -299 c85 -10 119 -16 206 -39 49 -13 177 -76 213
-105 29 -24 30 -26 28 -108 -5 -181 -48 -305 -129 -369 -24 -19 -53 -50 -65
-68 -22 -36 -41 -38 -46 -4 -4 29 -83 115 -150 164 -65 48 -217 111 -322 133
-77 17 -373 5 -540 -21 -52 -8 -122 -19 -155 -24 -33 -5 -80 -16 -104 -25 -24
-8 -69 -18 -100 -21 -31 -4 -65 -11 -76 -17 -11 -6 -40 -15 -65 -19 -96 -19
-106 -21 -127 -36 -13 -8 -23 -11 -23 -7 0 4 -11 0 -25 -9 -13 -9 -29 -16 -35
-16 -6 0 -35 -10 -63 -23 -29 -13 -92 -41 -142 -63 -94 -42 -314 -182 -411
-260 -31 -26 -94 -84 -141 -130 -46 -46 -89 -84 -97 -84 -24 0 -74 -30 -79
-48 -2 -9 -42 -36 -88 -59 -181 -91 -250 -115 -263 -94 -4 6 -24 15 -46 21
-32 9 -45 21 -74 67 -20 32 -36 64 -36 73 0 15 33 68 127 204 49 71 233 252
280 277 15 8 37 22 49 32 91 78 523 307 749 399 187 75 209 83 280 102 33 9
74 21 90 26 36 10 215 52 300 70 33 7 74 16 90 21 17 4 125 20 240 35 322 40
557 48 750 25z m-6220 -441 c17 -17 41 -42 55 -56 27 -27 79 -63 420 -292 118
-79 238 -163 265 -186 28 -24 82 -64 120 -91 39 -26 75 -54 82 -63 7 -8 23
-22 37 -31 50 -33 231 -175 238 -187 4 -6 30 -29 58 -50 27 -21 50 -43 50 -50
0 -72 -142 -309 -231 -387 -67 -59 -246 -147 -297 -147 -39 0 -161 42 -202 70
-14 9 -32 20 -40 24 -17 8 -26 13 -120 71 -81 50 -84 52 -166 98 -37 21 -107
64 -155 95 -47 31 -118 74 -155 95 -69 37 -185 116 -282 192 -28 22 -89 65
-136 95 -58 37 -89 65 -100 88 -22 46 -21 49 29 71 91 40 138 79 245 201 36
41 68 77 72 80 3 3 33 51 66 106 61 104 86 166 98 242 4 23 9 42 13 42 3 0 20
-14 36 -30z m1625 -20 c37 -9 56 -12 222 -34 97 -12 115 -18 180 -57 40 -24
94 -53 119 -65 58 -29 184 -129 243 -195 25 -28 76 -101 113 -163 132 -219
204 -305 318 -381 189 -125 446 -154 705 -78 116 33 118 33 139 4 10 -14 29
-44 41 -66 12 -22 31 -54 41 -71 21 -35 15 -46 -31 -58 -14 -4 -34 -11 -45
-15 -175 -71 -499 -63 -744 19 -191 63 -321 117 -321 132 0 4 -4 8 -10 8 -9 0
-107 65 -120 80 -3 3 -36 30 -75 59 -137 106 -161 135 -240 291 -80 157 -163
271 -259 354 -91 79 -181 125 -359 181 -65 21 -114 42 -110 46 16 16 143 22
193 9z m4429 -51 c107 -30 155 -53 204 -98 43 -40 44 -43 53 -123 20 -189 6
-754 -20 -833 -9 -27 -26 -79 -38 -115 -35 -106 -109 -251 -184 -358 -47 -68
-227 -279 -257 -300 -9 -7 -29 -26 -45 -41 -15 -15 -52 -47 -82 -72 -30 -24
-57 -46 -60 -49 -3 -3 -37 -20 -76 -38 -79 -36 -134 -40 -284 -21 -212 26
-351 98 -524 270 -26 27 -57 51 -68 55 -11 3 -18 13 -16 23 4 23 -112 161
-134 161 -11 0 -18 8 -18 20 0 12 -7 34 -15 50 -46 89 -156 522 -171 671 l-6
67 30 16 c65 34 126 108 185 226 31 63 57 127 57 141 0 15 7 49 16 77 16 48
20 52 83 80 79 37 201 78 256 87 21 4 52 13 67 21 15 8 38 12 51 9 12 -4 34
-2 48 4 14 5 91 21 170 36 79 14 153 30 165 36 31 16 181 24 369 21 133 -2
186 -8 244 -23z m-4776 -139 c94 -14 181 -44 293 -100 167 -86 248 -147 444
-342 256 -253 528 -469 671 -532 63 -27 314 -110 379 -125 142 -32 269 -43
416 -37 121 4 160 10 200 26 48 21 60 26 118 49 21 9 32 9 42 0 29 -24 26 -48
-16 -111 -48 -71 -139 -148 -218 -185 l-53 -25 -22 20 c-29 26 -166 94 -242
120 -59 21 -152 40 -230 48 -22 2 -71 9 -110 14 -38 6 -82 8 -96 5 -27 -6
-154 49 -217 93 -15 11 -49 30 -77 44 -202 98 -447 243 -485 287 -3 3 -43 38
-90 78 -47 39 -98 86 -114 104 -16 19 -65 75 -108 124 -132 151 -196 210 -317
292 -64 43 -127 83 -141 89 -14 6 -42 19 -63 28 -21 9 -43 16 -50 16 -7 0 -22
7 -33 15 -18 13 -17 14 16 14 19 1 66 -4 103 -9z m3247 -154 c0 -31 -102 -217
-146 -265 -67 -75 -78 -70 -70 29 7 86 29 155 51 164 7 2 32 17 56 33 86 57
109 66 109 39z m-366 -327 c-2 -56 -5 -103 -7 -106 -3 -2 -17 7 -33 19 -16 13
-46 31 -67 41 -44 20 -45 18 33 99 70 74 78 68 74 -53z m-2999 71 c141 -33
247 -74 306 -117 66 -50 193 -172 241 -233 34 -43 56 -90 43 -90 -4 0 -40 15
-80 34 -39 19 -85 38 -101 42 -16 4 -50 24 -76 44 -25 21 -79 54 -120 75 -40
20 -84 47 -98 59 -14 12 -34 29 -46 37 -50 34 -194 154 -194 161 0 13 33 10
125 -12z m544 -154 c19 -11 46 -19 60 -18 20 1 43 -16 106 -79 82 -84 310
-261 403 -314 29 -16 48 -31 42 -33 -10 -4 -133 33 -305 90 -33 10 -82 24
-110 29 -44 9 -52 15 -67 48 -10 21 -18 44 -18 52 -1 26 -56 103 -134 186 -71
76 -75 82 -44 71 18 -6 48 -21 67 -32z m2368 -72 c37 -41 46 -46 73 -41 20 5
30 3 30 -6 1 -39 32 -229 54 -332 18 -84 35 -135 56 -169 17 -27 28 -51 26
-54 -8 -7 -71 37 -131 91 l-50 45 23 40 c26 47 27 65 6 97 -22 33 -34 32 -74
-10 -37 -38 -94 -59 -133 -50 -22 6 -47 41 -47 66 0 5 -9 28 -19 52 -22 47
-41 139 -37 177 12 119 30 140 120 140 59 0 61 -1 103 -46z m-2461 -253 c11
-11 140 -53 214 -71 54 -12 152 -41 280 -81 36 -11 79 -24 95 -29 17 -5 71
-18 120 -28 168 -36 371 -109 440 -158 40 -29 111 -64 129 -64 19 0 26 -22 26
-78 0 -110 -43 -324 -97 -482 -41 -123 -149 -340 -183 -370 -3 -3 -23 -28 -43
-57 -21 -28 -70 -80 -110 -115 -39 -35 -76 -68 -82 -74 -21 -23 -102 -82 -135
-100 -40 -20 -144 -22 -270 -3 -127 19 -185 54 -222 136 -17 39 -18 62 -2 111
5 17 26 5 82 -46 41 -38 45 -39 82 -30 65 17 63 50 -5 101 -23 18 -80 64 -126
103 -46 39 -122 99 -169 134 -110 83 -234 184 -287 235 -22 22 -70 67 -105
101 -82 79 -166 171 -200 219 -30 43 -26 58 19 70 15 3 52 21 82 38 31 18 69
39 86 47 40 20 174 154 214 214 46 70 88 157 96 199 4 21 11 40 16 43 5 3 9
14 9 25 0 20 28 26 46 10z m2472 -411 c128 -114 168 -141 266 -178 39 -15 58
-31 100 -88 38 -51 60 -72 85 -79 22 -6 60 -36 105 -83 39 -41 102 -94 140
-120 l69 -45 -41 -36 c-22 -20 -67 -58 -99 -86 -32 -27 -92 -82 -133 -121 -83
-79 -122 -96 -220 -96 -111 0 -196 27 -289 89 -205 138 -327 304 -404 548 -35
111 -37 105 49 160 96 60 154 118 183 181 26 56 41 76 51 72 5 -2 67 -55 138
-118z m-1008 1 c19 -5 82 -17 140 -27 92 -16 199 -52 265 -91 27 -16 24 -69
-9 -204 -55 -225 -60 -257 -60 -434 0 -213 23 -333 91 -474 37 -77 59 -108
122 -170 42 -42 94 -85 116 -95 22 -9 63 -29 90 -44 48 -25 89 -35 206 -48
108 -12 265 41 364 124 37 31 97 111 127 169 26 50 78 224 78 260 0 6 5 24 10
38 l10 27 30 -37 c38 -48 106 -171 116 -209 6 -24 4 -28 -12 -23 -66 18 -73
17 -99 -10 -14 -15 -25 -35 -25 -45 0 -9 -4 -20 -10 -23 -16 -10 -12 -29 10
-53 27 -28 79 -29 114 -1 l27 21 -6 -23 c-35 -154 -56 -218 -142 -442 -50
-132 -173 -379 -253 -512 -62 -103 -288 -433 -317 -463 -7 -8 -18 -23 -24 -34
-6 -12 -73 -104 -148 -206 -75 -101 -145 -196 -156 -211 -115 -156 -234 -357
-303 -508 -22 -48 -60 -133 -85 -188 l-45 -100 -59 -13 c-117 -26 -332 -92
-383 -118 -44 -22 -163 -63 -220 -75 -110 -23 -536 6 -680 47 -165 47 -410
157 -601 271 -161 95 -408 312 -512 450 -63 83 -199 337 -233 438 -25 73 -28
97 -34 275 -4 107 -15 249 -25 314 -14 87 -16 121 -7 124 6 2 26 14 44 27 18
13 60 37 93 53 65 31 201 117 207 130 1 4 37 35 78 69 41 33 131 120 200 193
114 121 156 173 252 313 18 26 39 54 45 62 7 7 17 24 23 37 27 62 173 297 186
298 5 0 20 -21 33 -47 13 -26 37 -65 54 -87 39 -49 138 -114 186 -121 88 -14
152 -29 157 -36 13 -21 167 1 225 31 28 15 89 65 137 112 19 18 42 38 52 43
26 14 88 74 131 126 37 45 149 206 149 215 0 2 18 41 40 87 21 45 51 114 65
152 14 39 35 93 45 120 11 28 20 60 20 72 0 12 9 61 20 109 22 92 29 245 15
327 -7 45 -6 47 16 47 13 0 40 -4 59 -9z m566 -461 c112 -233 224 -365 419
-498 140 -96 174 -107 313 -106 l112 1 0 -25 c0 -32 -85 -193 -123 -232 -173
-177 -388 -208 -597 -85 -141 83 -207 178 -245 357 -19 88 -29 370 -15 418 6
19 14 60 19 90 5 30 19 91 32 134 l22 80 16 -35 c8 -18 29 -63 47 -99z m-5062
-647 c3 -27 8 -93 12 -148 6 -112 14 -145 47 -192 16 -24 30 -33 50 -33 15 0
27 5 27 11 0 22 63 140 80 149 15 8 19 2 30 -52 9 -46 19 -69 42 -90 17 -15
35 -28 40 -28 13 0 49 30 183 155 214 200 265 242 265 221 0 -3 -14 -42 -31
-88 -40 -104 -46 -222 -15 -257 11 -12 25 -21 32 -21 7 0 37 26 68 58 39 41
80 70 140 100 47 23 88 42 92 42 3 0 3 -15 -1 -32 -22 -101 -23 -113 -8 -150
10 -26 22 -38 37 -40 34 -2 60 2 66 11 8 14 146 71 170 71 18 0 21 -4 16 -22
-4 -13 -11 -45 -17 -73 -6 -27 -15 -54 -20 -59 -5 -6 -9 -20 -9 -32 0 -12 -6
-27 -14 -33 -20 -17 -38 -98 -30 -135 8 -37 30 -72 50 -80 27 -10 59 16 104
86 25 38 61 85 80 104 42 40 165 132 209 156 17 10 35 27 39 38 11 31 182 130
182 106 0 -2 -25 -56 -56 -120 -45 -94 -55 -123 -50 -149 6 -30 41 -77 57 -77
5 0 35 24 67 53 62 54 89 70 185 108 35 14 61 19 66 13 6 -5 -4 -37 -25 -79
-85 -175 -100 -250 -58 -296 24 -27 35 -24 101 24 59 45 202 111 264 124 l34
6 -42 -49 c-74 -88 -215 -207 -343 -288 -53 -34 -105 -67 -115 -74 -11 -7 -38
-21 -60 -31 -32 -15 -43 -16 -55 -6 -63 52 -210 104 -293 105 -61 0 -321 66
-380 97 -34 17 -61 10 -75 -21 -6 -13 -40 -43 -76 -67 -115 -75 -154 -165
-135 -302 14 -93 9 -135 -21 -202 -12 -27 -28 -64 -36 -81 -8 -17 -19 -65 -25
-107 -9 -63 -8 -89 6 -159 26 -128 66 -187 240 -348 72 -67 98 -130 116 -285
12 -108 47 -231 85 -307 71 -141 209 -300 295 -341 27 -12 48 -26 49 -31 0 -5
-13 -36 -29 -70 -25 -53 -48 -103 -81 -181 -49 -113 -88 -234 -173 -540 -36
-130 -42 -142 -71 -147 -15 -3 -28 -2 -31 2 -2 4 -2 47 2 96 10 162 7 276 -10
334 -23 77 -79 143 -153 181 -54 27 -68 30 -110 23 -114 -17 -184 -72 -250
-196 -28 -54 -40 -68 -52 -63 -47 18 -109 16 -161 -4 -29 -12 -55 -20 -57 -18
-6 6 -6 61 0 125 12 118 -36 286 -97 339 -41 35 -63 43 -120 43 -67 0 -130
-21 -180 -61 -26 -21 -38 -26 -41 -17 -18 60 -44 120 -70 158 -55 81 -74 96
-140 114 -57 16 -68 16 -121 2 -59 -15 -95 -41 -123 -88 l-16 -27 -58 64 c-74
80 -123 105 -209 105 -94 0 -161 -41 -258 -157 -24 -29 -47 -53 -51 -53 -8 0
-15 32 -30 140 -6 36 -24 137 -40 225 -66 342 -79 413 -90 485 -6 41 -17 113
-26 160 -8 47 -19 108 -24 135 -12 64 -37 236 -50 340 -5 44 -16 130 -24 190
-9 61 -17 137 -20 170 -2 33 -9 94 -15 135 -6 41 -15 113 -20 160 -5 47 -16
141 -25 210 -18 157 -24 219 -31 350 -4 58 -11 155 -16 215 -11 141 -11 195 0
195 23 0 103 -65 153 -123 63 -74 66 -77 96 -77 31 0 37 23 19 69 -11 27 -14
55 -10 95 l6 57 44 -43 c38 -38 86 -121 122 -214 13 -33 56 -70 87 -76 15 -2
18 2 16 22 -3 24 18 106 39 159 9 22 11 23 28 7 27 -25 80 -157 101 -253 18
-84 30 -109 69 -150 37 -39 61 -28 66 30 1 18 12 64 24 102 12 39 27 91 35
116 12 46 49 103 74 113 8 4 20 -11 33 -42 52 -123 113 -202 155 -202 19 0 22
7 27 83 6 82 25 164 53 224 8 17 14 34 14 37 0 22 158 198 171 190 4 -2 9 -25
13 -51z m6364 -430 c33 -54 73 -125 90 -159 61 -121 165 -300 220 -379 73
-104 208 -282 244 -321 l29 -31 -32 -89 c-34 -94 -38 -101 -106 -204 -42 -64
-85 -109 -194 -201 -64 -54 -212 -132 -249 -131 -29 1 -227 77 -250 96 -8 7
-31 20 -52 29 -20 10 -79 55 -130 101 -52 46 -126 105 -164 131 -38 26 -71 49
-72 50 -2 2 20 39 50 82 30 43 61 94 71 114 9 20 23 42 32 49 8 7 15 19 15 26
0 8 4 14 9 14 4 0 21 28 35 63 15 34 37 70 47 81 11 10 18 25 15 33 -3 8 5 24
18 36 14 12 38 49 54 82 51 103 82 171 82 184 0 6 9 30 21 52 11 22 40 102 65
177 25 75 52 147 60 159 8 12 14 32 14 43 0 33 13 18 78 -87z m1352 -413
c1065 -4 2724 -5 3075 -3 132 1 254 0 270 -2 17 -2 37 -4 46 -4 25 -1 31 -287
27 -1206 -2 -434 -2 -950 0 -1145 12 -1277 15 -2061 7 -2068 -3 -3 -15 4 -28
15 -57 53 -168 79 -286 68 -221 -21 -394 -153 -518 -396 -34 -67 -40 -82 -90
-239 -5 -17 -33 14 -59 66 -8 18 -28 47 -45 65 -25 28 -37 33 -87 37 -41 3
-72 -2 -111 -17 -59 -22 -70 -20 -113 27 -61 66 -142 63 -208 -9 -19 -21 -38
-39 -42 -39 -3 0 -9 17 -13 38 -4 20 -15 51 -26 68 -10 17 -19 38 -19 45 0 8
-16 40 -35 72 -19 32 -35 63 -35 70 -1 7 -14 30 -30 52 -16 22 -41 61 -54 86
-32 59 -115 133 -186 167 -48 23 -68 26 -150 26 -178 -1 -297 -60 -358 -179
-42 -82 -47 -105 -63 -280 -7 -66 -15 -124 -19 -128 -4 -4 -33 6 -66 23 -88
45 -190 41 -241 -11 -35 -36 -47 -36 -90 1 -58 51 -163 39 -234 -26 l-25 -24
-24 42 c-13 23 -39 60 -59 81 -41 46 -149 127 -168 127 -19 0 -16 13 10 48
121 168 147 209 147 234 0 43 -53 72 -154 83 -12 1 -22 3 -23 4 -1 0 7 33 18
71 15 54 17 74 8 88 -18 28 -66 45 -109 38 -45 -7 -45 -14 4 89 60 127 74 168
103 300 22 99 20 129 -13 144 -48 21 -70 15 -190 -55 -125 -73 -133 -70 -84
34 16 34 32 85 36 112 6 47 5 49 -27 70 -25 15 -47 20 -84 18 l-50 -3 3 45 c5
77 45 199 78 238 49 60 74 97 74 108 0 22 -51 49 -90 48 -50 -2 -186 -63 -285
-129 -90 -60 -101 -64 -90 -37 4 9 9 36 11 58 4 36 1 45 -22 63 -15 11 -35 21
-45 21 -11 0 -19 5 -19 10 0 14 31 62 49 76 23 18 5 60 -35 85 -32 19 -44 21
-107 16 -40 -4 -96 -16 -125 -27 -29 -11 -56 -20 -62 -20 -13 0 14 73 52 140
49 88 106 160 188 240 119 116 124 138 38 185 -45 25 -63 28 -157 31 -113 2
-270 -14 -363 -39 -58 -15 -86 -8 -48 13 11 6 27 24 35 40 8 16 24 31 35 35
11 3 20 11 20 17 0 5 18 30 40 55 22 25 40 50 40 56 0 6 7 18 16 28 15 17 14
20 -9 43 -42 42 -89 48 -313 41 -119 -4 -204 -3 -204 2 0 13 38 62 83 108 20
21 37 42 37 47 0 6 -9 23 -20 38 -36 50 -101 65 -291 65 l-165 0 10 28 c6 16
23 43 39 60 15 17 27 35 27 39 0 5 15 24 33 43 47 48 97 107 97 115 0 3 14 19
30 35 35 34 36 38 13 66 -31 36 -78 50 -131 38 -73 -16 -331 -89 -391 -110
-29 -11 -56 -18 -59 -15 -4 4 34 60 115 171 36 49 87 126 123 185 18 30 38 60
44 65 6 6 33 43 60 83 27 39 50 72 52 72 8 0 145 -109 199 -158 33 -30 99 -80
147 -112 63 -41 99 -73 131 -116 24 -33 74 -87 111 -120 77 -68 217 -174 229
-174 5 0 41 -16 81 -35 40 -19 82 -35 93 -35 11 0 47 -26 80 -57 83 -79 259
-224 308 -253 22 -13 60 -40 85 -61 49 -40 344 -239 354 -239 4 0 33 -16 64
-36 83 -53 125 -55 204 -11 35 20 88 52 118 73 30 20 65 37 79 37 53 1 197
-13 230 -23 19 -5 37 -7 42 -4 14 9 102 -18 184 -56 144 -68 205 -82 356 -86
75 -2 152 1 170 7 19 5 90 12 159 15 114 5 134 3 225 -21 55 -15 111 -29 125
-33 14 -3 61 -6 105 -6 71 0 87 4 142 32 52 27 67 40 87 80 17 33 39 57 71 78
42 26 85 85 85 118 0 6 16 21 35 33 37 25 75 88 75 125 0 13 -9 41 -20 62 -15
31 -18 51 -13 97 5 56 5 58 -31 93 -20 20 -36 40 -36 44 0 5 -17 23 -37 41
-53 46 -238 121 -421 171 -71 20 -96 22 -185 16 -56 -4 -145 -18 -197 -31 -52
-14 -106 -28 -119 -30 -13 -3 -36 -12 -52 -20 -15 -8 -33 -15 -39 -15 -5 0
-34 -12 -63 -26 -133 -65 -244 -87 -464 -88 -114 -1 -133 1 -136 15 -3 9 -1
23 4 30 20 33 6 50 -98 124 -60 42 -115 81 -123 88 -9 7 -49 34 -90 62 -41 27
-95 65 -120 85 -25 19 -70 52 -102 73 -66 45 -106 78 -200 167 l-68 65 -16 85
c-20 106 -37 147 -93 230 -80 117 -119 154 -274 259 -85 57 -132 80 -252 121
-62 21 -81 32 -83 48 -4 26 14 28 323 25 127 -1 435 -3 685 -3z m-810 -202
c110 -58 146 -83 206 -142 77 -75 134 -163 159 -244 20 -66 16 -85 -12 -59
-10 8 -53 32 -96 53 -62 29 -76 40 -72 54 8 27 -12 63 -51 89 -55 38 -234 257
-234 286 0 10 40 -5 100 -37z m-5575 0 c44 -10 85 -23 91 -29 6 -5 40 -14 75
-19 138 -23 166 -28 224 -43 33 -9 72 -18 87 -22 15 -3 35 -17 44 -31 25 -37
53 -240 54 -378 l0 -118 -27 5 c-16 3 -48 13 -73 22 -57 22 -282 27 -301 8
-18 -18 -8 -23 32 -14 44 10 231 -13 279 -35 72 -32 100 -49 100 -60 0 -10
-77 -27 -185 -39 -76 -9 -95 -14 -95 -27 0 -17 208 -5 247 15 34 18 43 14 43
-18 0 -19 22 -112 46 -195 4 -14 25 -59 47 -100 22 -41 51 -97 65 -125 15 -27
29 -52 33 -55 9 -7 39 -67 39 -78 0 -5 -19 -14 -42 -21 -74 -22 -242 -108
-272 -140 -39 -41 -22 -39 55 4 102 58 268 122 292 112 7 -3 20 -18 29 -34
l17 -30 -84 -62 c-47 -33 -85 -66 -85 -72 0 -14 39 -2 70 22 14 10 49 32 78
48 l54 30 107 -107 c59 -59 117 -114 128 -122 33 -24 93 -79 93 -85 0 -3 -13
-5 -29 -5 -40 0 -91 -49 -91 -88 0 -59 37 -119 84 -136 24 -8 103 29 120 58 8
11 17 38 20 59 8 40 16 46 37 21 7 -9 33 -26 58 -38 24 -11 46 -25 48 -31 1
-5 -27 -41 -63 -80 -72 -77 -117 -153 -112 -191 4 -29 22 -33 26 -7 6 35 32
80 70 124 21 24 47 54 58 67 10 13 33 32 51 43 26 16 36 18 54 9 27 -15 23
-37 -30 -161 -23 -52 -41 -100 -41 -106 0 -18 13 -16 26 5 36 58 69 123 85
167 21 60 40 76 66 54 46 -41 296 -139 351 -139 18 0 41 -4 51 -9 9 -5 65 -15
124 -22 59 -6 114 -17 122 -23 24 -17 46 -131 46 -233 0 -73 3 -93 14 -93 9 0
15 20 18 73 8 107 7 126 -8 190 l-13 58 25 10 c57 21 75 -1 123 -146 34 -100
61 -151 59 -110 0 23 -32 145 -41 160 -3 6 -9 29 -13 53 l-7 43 59 -6 c50 -6
141 1 274 21 l36 6 -7 -53 c-6 -50 -5 -56 21 -81 35 -35 68 -36 109 -2 70 59
71 112 5 157 l-37 25 26 17 c14 9 44 19 66 22 45 6 39 11 135 -101 38 -45 132
-112 142 -102 3 2 -41 51 -96 107 -56 57 -101 107 -101 111 0 17 52 19 107 3
77 -22 190 -84 196 -107 7 -26 27 -22 27 6 0 34 -52 76 -138 109 -39 16 -70
32 -67 37 3 4 29 11 58 15 28 4 74 16 101 26 30 11 60 16 75 12 25 -6 109 -57
225 -136 73 -50 331 -301 323 -314 -4 -6 -31 -17 -59 -23 -29 -7 -95 -34 -145
-60 -51 -26 -105 -51 -120 -55 -27 -6 -72 -34 -107 -67 -11 -10 -29 -21 -40
-24 -12 -4 -28 -12 -36 -19 -8 -7 -28 -15 -45 -18 -68 -13 -182 -39 -211 -48
-51 -15 -183 -10 -299 12 -82 16 -135 20 -207 17 -85 -4 -105 -9 -173 -42 -43
-20 -100 -52 -126 -72 -118 -87 -274 -97 -499 -33 -36 10 -77 21 -93 25 -15 3
-30 10 -33 15 -3 5 -13 9 -23 9 -9 0 -35 13 -57 29 -50 36 -118 76 -169 100
-40 18 -93 28 -281 56 -169 25 -264 64 -404 166 -82 59 -123 104 -194 210 -31
46 -64 94 -73 105 -36 43 -202 134 -355 194 -127 50 -162 75 -235 172 -101
133 -139 238 -159 438 -5 58 -36 165 -60 211 -7 15 -72 85 -143 156 -114 114
-131 135 -145 183 -9 29 -16 72 -16 94 0 42 24 120 46 146 38 46 59 245 35
328 -18 59 29 133 113 177 22 12 46 35 57 57 22 43 19 42 164 6z m5793 -455
c50 -31 249 -182 263 -199 25 -31 280 -228 417 -322 107 -74 279 -194 300
-210 20 -15 24 -28 29 -98 6 -93 -9 -152 -62 -244 -40 -67 -213 -254 -275
-297 -129 -88 -150 -96 -191 -65 -13 9 -40 26 -59 36 -55 30 -209 134 -275
186 -33 26 -96 71 -140 100 -44 30 -84 59 -90 65 -5 6 -46 41 -90 77 -80 66
-216 203 -258 260 -12 17 -43 45 -69 62 l-48 33 30 21 c16 12 34 22 41 22 26
0 219 164 219 186 0 8 5 14 10 14 6 0 15 10 21 23 8 19 31 54 66 103 38 51 89
157 105 219 14 50 17 52 56 28z m2296 -694 c16 -5 40 -9 53 -9 13 0 31 -4 41
-9 9 -5 42 -17 72 -26 63 -18 157 -52 182 -66 10 -5 23 -9 30 -9 7 0 44 -34
81 -77 57 -63 66 -78 53 -85 -24 -14 -181 10 -276 42 -91 31 -314 64 -358 54
-15 -4 -32 -13 -39 -21 -9 -12 -16 -12 -35 -2 -13 6 -25 15 -28 19 -3 3 -27
18 -54 33 -40 22 -61 27 -120 27 -87 0 -108 -6 -125 -31 -10 -16 -10 -24 0
-35 10 -12 27 -14 85 -9 67 7 76 5 126 -21 29 -16 65 -37 79 -47 14 -10 45
-23 69 -28 24 -5 75 -25 114 -43 71 -34 117 -50 170 -61 28 -6 28 -6 10 -26
-51 -56 -131 -72 -264 -53 -52 8 -110 11 -130 8 -42 -7 -117 -33 -145 -50 -58
-36 -225 -53 -257 -26 -7 5 -33 13 -58 17 -38 6 -48 3 -64 -14 -27 -29 -11
-44 78 -70 104 -31 186 -23 324 31 l104 41 81 -12 c109 -15 169 -14 245 4 57
14 70 13 130 -1 37 -8 109 -22 160 -29 52 -7 96 -16 100 -20 9 -9 -12 -38 -39
-53 -27 -14 -138 -11 -224 7 -27 5 -86 17 -130 26 -44 8 -100 19 -125 25 -122
27 -182 24 -200 -9 -18 -35 -3 -49 63 -55 34 -4 80 -11 102 -16 22 -4 74 -14
115 -20 41 -7 84 -15 95 -17 11 -3 62 -12 113 -21 107 -18 117 -32 45 -64 -61
-27 -158 -29 -233 -6 -30 9 -80 24 -110 33 -70 22 -229 27 -289 10 -62 -18
-207 -24 -316 -15 -109 9 -133 15 -220 55 -106 50 -188 79 -240 85 -33 4 -87
12 -120 18 -33 5 -75 8 -92 7 -19 -2 -33 2 -33 8 0 6 20 38 45 71 71 95 115
164 115 179 0 8 3 17 7 21 4 4 14 30 23 59 l16 52 160 11 c201 14 276 30 399
84 195 86 319 121 476 136 41 3 76 8 78 10 5 4 42 -3 85 -17z m-3801 -17 c-4
-9 -23 -37 -43 -62 -20 -25 -51 -76 -69 -115 -18 -38 -37 -78 -42 -87 -17 -33
-10 -78 16 -103 29 -30 40 -31 106 -5 81 30 184 44 272 36 42 -4 77 -11 77
-14 0 -4 -13 -20 -28 -37 -15 -16 -46 -54 -69 -84 -37 -50 -40 -56 -30 -87 17
-56 45 -67 130 -54 95 15 422 25 430 14 3 -5 -26 -43 -64 -84 -106 -115 -112
-123 -136 -158 -28 -40 -29 -72 -4 -103 24 -30 78 -31 182 -2 41 12 88 23 105
26 16 3 67 12 114 21 94 17 211 17 217 0 2 -6 -11 -21 -29 -34 -55 -37 -218
-262 -218 -300 0 -5 -13 -38 -29 -72 -53 -117 -65 -165 -50 -201 26 -64 59
-68 134 -17 57 39 148 80 179 80 l26 0 -40 -59 c-46 -68 -50 -102 -15 -136 23
-24 65 -34 65 -17 0 10 50 35 56 29 3 -2 -1 -28 -7 -56 -15 -69 3 -138 36
-147 20 -5 121 38 135 57 16 22 178 119 199 119 6 0 -3 -29 -20 -63 -16 -35
-36 -95 -43 -133 -8 -38 -21 -91 -29 -117 -19 -60 -8 -109 28 -125 28 -13 59
-4 105 28 50 35 51 26 11 -62 -51 -112 -65 -165 -51 -198 15 -36 28 -41 76
-29 68 15 226 87 239 109 3 5 11 10 16 10 42 0 -86 -321 -183 -459 -39 -56
-47 -94 -25 -122 24 -30 45 -28 123 12 42 22 78 38 80 36 3 -2 -3 -33 -13 -68
-19 -75 -13 -114 19 -122 22 -5 87 4 118 17 8 3 21 2 29 -3 20 -13 -20 -78
-104 -169 -37 -39 -70 -84 -74 -99 -6 -21 -17 -30 -49 -40 -56 -16 -159 -72
-180 -97 -47 -57 -92 -69 -92 -25 0 10 -4 19 -10 19 -5 0 -10 9 -10 19 0 12
-34 49 -90 96 -112 95 -179 124 -299 132 -78 5 -95 2 -181 -27 -142 -48 -206
-85 -288 -168 -41 -40 -75 -72 -77 -70 -7 7 16 173 27 185 7 8 8 33 4 69 -6
50 -4 59 19 86 14 16 25 33 25 37 0 4 11 13 24 19 14 6 29 26 36 46 6 20 16
36 21 36 5 0 9 9 9 20 0 10 7 39 15 64 48 141 -15 504 -118 686 -89 157 -259
306 -389 340 -53 14 -129 70 -229 170 -86 85 -80 80 -171 139 -67 43 -86 64
-49 54 16 -4 23 3 35 32 34 80 11 138 -111 281 -154 180 -375 352 -502 390
-28 8 -51 19 -51 24 0 14 38 109 70 176 17 34 30 66 30 72 0 6 10 28 22 49 12
21 38 68 59 105 75 136 120 188 161 188 16 0 102 24 191 54 243 81 252 82 240
48z m3937 -271 c30 -5 82 -18 115 -29 33 -11 87 -23 120 -26 109 -12 131 -22
154 -69 25 -52 26 -61 5 -81 -26 -27 -180 -19 -304 14 -37 10 -41 14 -35 33 8
22 9 97 1 104 -2 2 -19 4 -37 5 -38 0 -149 45 -149 60 0 5 17 7 38 3 20 -3 62
-10 92 -14z m-10226 -610 c47 -45 73 -102 87 -194 6 -40 15 -81 19 -92 5 -11
12 -51 15 -90 8 -94 12 -103 47 -121 24 -13 35 -13 59 -4 35 15 42 34 45 135
4 125 27 232 64 303 18 34 37 62 41 62 37 0 79 -44 119 -125 8 -16 18 -32 21
-35 4 -3 17 -36 29 -75 19 -58 23 -97 26 -228 1 -88 -1 -169 -6 -181 -12 -31
5 -54 45 -62 36 -6 95 12 96 31 0 5 2 28 5 50 3 22 6 62 8 89 1 28 8 52 14 54
7 2 12 16 12 31 0 66 71 232 105 245 61 23 110 -105 142 -364 13 -114 17 -255
7 -271 -6 -10 17 -26 42 -31 37 -6 69 20 82 65 6 24 31 64 56 92 l44 50 21
-45 c11 -25 26 -77 33 -117 11 -69 13 -73 47 -86 30 -12 38 -12 62 2 22 13 30
26 35 61 9 61 53 201 69 220 7 8 19 34 25 57 15 48 93 143 120 143 38 0 114
-108 141 -200 21 -74 22 -78 23 -249 l1 -165 33 -19 c29 -17 38 -18 74 -8 22
7 42 10 45 7 3 -3 0 -29 -6 -58 -11 -44 -49 -266 -50 -290 -1 -5 -8 -8 -16 -8
-9 0 -47 -31 -84 -69 -67 -67 -70 -68 -132 -75 -145 -16 -342 -55 -492 -97
-123 -35 -141 -42 -268 -104 l-93 -45 -20 24 c-83 97 -277 93 -466 -12 -36
-19 -87 -52 -115 -73 -27 -21 -61 -46 -75 -57 -75 -56 -192 -133 -239 -156
-81 -42 -248 -93 -341 -106 -80 -11 -300 -63 -405 -96 -81 -26 -141 -72 -161
-122 -14 -37 -24 -48 -63 -64 -25 -11 -73 -40 -106 -63 l-60 -43 -45 24 c-83
43 -157 27 -227 -49 -114 -123 -118 -243 -13 -348 26 -26 62 -54 79 -64 44
-22 123 -21 191 4 53 19 55 19 62 1 4 -10 2 -32 -4 -48 -11 -30 -11 -30 -47
-14 -20 8 -63 14 -95 14 -66 -1 -90 -14 -138 -73 -39 -48 -65 -173 -50 -238 6
-25 9 -48 7 -50 -2 -2 -100 -5 -217 -7 -117 -2 -282 -7 -365 -11 l-153 -6 0
99 c-2 667 -10 1418 -15 1454 -5 34 -10 1056 -6 1222 1 34 11 31 104 -30 69
-45 93 -70 189 -196 57 -75 98 -97 138 -76 26 14 25 32 -3 78 -36 58 -49 97
-50 149 0 52 16 93 37 93 24 0 76 -63 122 -146 24 -45 51 -87 59 -94 19 -16
86 -8 99 12 7 12 7 23 -2 40 -11 21 -21 73 -42 203 -8 56 -6 330 3 385 4 19 9
52 12 73 3 21 14 55 24 75 11 20 27 54 36 75 14 32 19 36 35 27 57 -30 140
-178 199 -356 34 -101 52 -162 96 -334 4 -14 9 -32 12 -40 4 -8 5 -19 4 -23
-3 -17 30 -111 46 -129 19 -22 70 -23 97 -3 18 13 19 19 8 48 -27 78 -27 313
2 352 16 22 41 11 65 -28 21 -36 65 -162 76 -220 12 -61 67 -93 116 -66 17 9
20 19 17 67 -3 59 16 122 36 122 17 0 62 -33 86 -62 27 -35 91 -173 124 -267
14 -40 30 -79 36 -86 17 -21 60 -27 92 -13 29 13 29 13 21 68 -12 81 -8 242 8
355 5 39 12 93 15 120 3 28 9 66 14 85 5 19 11 47 14 62 2 15 12 40 20 55 9
16 25 53 36 84 28 77 87 165 145 217 55 50 70 49 129 -7z m2521 -138 c125 -64
173 -101 192 -151 12 -31 48 -76 122 -151 58 -59 122 -119 141 -133 39 -30
209 -118 226 -118 6 0 24 -7 40 -15 16 -8 63 -19 104 -26 41 -6 80 -14 87 -18
8 -4 4 -22 -14 -61 -29 -64 -41 -93 -40 -100 1 -3 -11 -27 -26 -55 -33 -63
-84 -175 -89 -195 -2 -8 -5 -17 -8 -20 -3 -3 -11 -23 -19 -45 -15 -43 -34 -84
-73 -156 -14 -25 -28 -55 -32 -65 -3 -11 -17 -36 -29 -57 l-24 -37 -39 28
c-144 104 -287 124 -489 68 -117 -32 -110 -30 -156 -59 -19 -12 -67 -41 -105
-64 -39 -23 -81 -50 -94 -61 l-25 -20 -97 97 c-97 97 -98 98 -88 132 6 18 10
56 10 83 0 50 34 215 51 251 10 21 26 75 65 225 14 52 28 99 32 105 7 10 22
59 46 150 15 59 98 270 131 335 27 54 48 102 66 152 14 42 16 42 134 -19z
m3599 -498 c45 -29 112 -85 150 -124 38 -39 74 -71 80 -71 19 0 70 -46 63 -57
-4 -6 -28 -14 -54 -18 -70 -12 -74 -13 -118 -27 -35 -12 -121 -87 -175 -155
-52 -65 -118 -274 -121 -384 l-2 -65 -46 -11 c-43 -10 -49 -9 -86 18 -22 15
-107 51 -190 78 -177 60 -357 147 -510 247 -114 73 -122 81 -265 218 -47 44
-100 92 -117 105 -18 13 -33 27 -33 31 0 9 68 37 107 44 15 3 40 8 55 11 15 4
35 2 46 -4 10 -5 42 -12 71 -16 29 -3 60 -10 69 -14 95 -50 297 -52 427 -4 22
8 67 24 100 35 51 18 179 95 195 118 3 4 34 22 70 39 36 18 81 41 100 51 50
28 89 18 184 -45z m-2489 -139 c52 -14 71 -23 144 -70 24 -15 64 -39 89 -52
25 -13 50 -28 56 -32 6 -5 54 -21 106 -37 83 -24 114 -28 252 -31 l157 -2 91
46 c108 56 92 62 248 -89 146 -142 260 -222 477 -333 125 -64 240 -116 256
-116 22 0 186 -62 227 -86 l46 -27 -22 -18 c-12 -9 -22 -28 -22 -42 0 -44 48
-136 80 -156 l31 -18 5 -184 c2 -101 6 -197 9 -214 2 -16 7 -57 11 -91 6 -58
5 -61 -17 -67 -13 -4 -38 -7 -55 -7 -43 0 -141 -35 -187 -67 -42 -29 -58 -22
-50 22 3 12 0 32 -7 44 -6 12 -13 47 -15 78 -3 31 -9 70 -15 87 -34 107 -64
192 -71 201 -4 6 -22 37 -39 70 -17 33 -37 66 -45 75 -7 8 -25 28 -39 43 -14
15 -26 31 -26 35 0 31 -124 122 -182 133 -129 24 -240 -36 -298 -158 l-20 -43
-32 16 c-51 27 -95 24 -209 -12 -11 -4 -25 13 -48 58 -37 71 -109 148 -138
148 -11 0 -23 3 -27 7 -16 17 -114 40 -173 42 -113 4 -200 -41 -275 -139 -24
-32 -27 -33 -33 -15 -4 11 -11 29 -15 40 -5 11 -19 52 -31 90 -13 39 -44 108
-68 155 -24 47 -52 101 -62 121 -43 87 -177 173 -290 186 l-46 5 19 50 c10 27
25 59 33 71 8 12 13 24 12 27 -1 3 17 41 40 85 22 44 49 106 59 138 16 51 21
57 39 52 11 -3 43 -12 70 -19z m2935 -228 c19 -1 51 -10 70 -20 19 -10 39 -18
45 -18 17 0 99 -82 140 -138 42 -59 107 -217 123 -302 36 -180 40 -249 22
-375 -15 -102 -39 -164 -71 -181 -15 -7 -29 -17 -31 -21 -9 -21 -141 -125
-181 -143 -83 -37 -185 -36 -292 3 -50 18 -212 157 -198 170 2 2 -12 32 -32
67 -19 34 -35 66 -35 72 0 5 -13 38 -29 73 -46 99 -64 266 -42 380 35 179 98
311 186 388 61 53 173 81 245 61 25 -8 61 -14 80 -16z m-3127 -296 c16 -9 51
-50 77 -90 45 -66 64 -102 135 -257 29 -64 68 -201 95 -335 11 -58 23 -113 26
-122 7 -25 70 -40 115 -28 35 10 36 12 47 73 18 111 96 278 158 340 31 31 51
33 120 12 87 -27 135 -85 203 -247 42 -98 52 -115 82 -129 55 -27 112 3 115
62 2 44 32 99 54 99 21 0 51 -34 70 -80 7 -16 16 -30 21 -30 5 0 9 -6 9 -13 0
-6 14 -18 30 -26 47 -20 86 -1 95 47 3 20 17 60 30 87 12 28 33 73 45 100 29
66 47 85 82 85 36 0 94 -58 171 -168 89 -129 110 -181 203 -497 8 -27 17 -84
20 -125 4 -64 8 -78 30 -97 35 -32 69 -38 99 -19 14 9 25 23 25 31 0 7 34 43
75 79 78 68 108 80 180 74 l40 -3 17 -80 c10 -44 38 -181 63 -303 l45 -224
-26 -20 c-51 -40 -73 -72 -85 -121 -17 -73 -6 -187 30 -298 17 -53 31 -102 31
-109 0 -10 -72 -11 -362 -6 -200 4 -406 11 -458 16 -301 30 -544 42 -1028 50
-292 5 -628 11 -745 14 -238 7 -952 18 -1067 17 -237 -1 -1247 1 -1310 4 -41
1 -201 6 -355 9 -154 4 -325 11 -380 16 -55 6 -125 7 -155 4 -30 -3 -79 -2
-108 1 l-54 7 7 35 c3 19 17 58 29 87 13 28 31 74 40 103 18 55 81 135 125
157 15 8 49 19 76 25 28 5 70 15 95 20 25 6 80 10 123 11 43 0 140 7 215 15
75 8 157 16 182 19 66 6 147 31 169 51 28 25 64 104 65 145 1 38 2 39 141 60
63 10 290 51 390 70 22 5 80 16 130 25 49 9 94 19 99 23 6 3 17 7 26 7 8 1 47
9 87 19 66 16 76 17 120 3 26 -9 62 -18 78 -21 17 -4 41 -9 55 -12 14 -3 79
-8 145 -9 98 -3 128 0 165 15 25 10 56 21 70 24 64 14 324 211 427 324 139
152 224 364 203 507 -3 28 -19 79 -34 115 -26 63 -26 66 -10 100 24 49 33 68
69 130 17 30 39 75 49 100 32 83 39 89 87 79 23 -6 55 -18 72 -27z m-468 -250
c80 -42 88 -50 120 -106 22 -40 27 -61 28 -129 2 -106 -8 -177 -33 -232 -11
-24 -20 -48 -20 -53 0 -5 -23 -41 -50 -80 -34 -48 -57 -72 -70 -72 -11 0 -20
-4 -20 -9 0 -14 -112 -131 -125 -131 -7 0 -20 -10 -31 -21 -10 -12 -36 -32
-57 -46 -21 -13 -47 -33 -57 -43 -11 -11 -29 -20 -40 -20 -12 0 -40 -10 -63
-22 -23 -12 -46 -23 -52 -25 -104 -28 -189 -30 -311 -8 -132 23 -166 34 -224
73 -64 43 -69 60 -50 182 31 200 85 320 193 425 29 28 70 71 92 96 43 48 80
79 94 79 4 0 19 9 32 19 56 44 158 96 219 113 149 40 190 47 275 44 79 -2 97
-6 150 -34z m-1076 -172 c39 -39 71 -77 71 -85 0 -8 7 -18 16 -23 15 -8 13
-14 -14 -48 -41 -51 -73 -118 -112 -234 -27 -79 -33 -110 -34 -185 0 -95 9
-131 52 -198 14 -20 23 -40 20 -42 -3 -3 -41 -12 -84 -21 -195 -38 -411 -77
-549 -99 -82 -13 -190 -34 -240 -45 -151 -35 -159 -35 -197 -9 -18 13 -34 27
-36 31 -2 4 -9 8 -16 8 -24 0 -118 114 -148 180 -59 131 -61 136 -56 232 6
108 29 183 68 225 34 36 398 219 510 256 133 44 268 74 475 106 201 32 190 34
274 -49z m-1171 -102 c7 -7 12 -15 12 -19 0 -3 -36 -24 -80 -45 -43 -22 -79
-44 -80 -51 0 -6 -11 -20 -23 -30 -37 -29 -68 -125 -74 -228 -4 -76 -2 -100
17 -155 12 -36 26 -71 32 -77 6 -7 8 -13 4 -13 -11 0 55 -122 99 -185 43 -60
141 -159 179 -182 49 -28 64 -32 101 -22 20 6 39 8 42 5 11 -11 -42 -76 -74
-91 -78 -37 -388 -70 -418 -45 -23 19 -66 95 -75 133 -16 65 -57 167 -75 187
-10 11 -32 24 -49 28 -38 11 -177 -8 -198 -26 -24 -19 -41 -95 -36 -160 3 -43
15 -81 46 -142 23 -46 40 -84 39 -85 -1 0 -24 -15 -50 -34 l-49 -33 -51 53
c-29 30 -70 81 -93 114 -93 138 -103 150 -146 171 -106 53 -108 53 -155 39
-68 -21 -111 -54 -129 -103 -23 -59 -5 -137 55 -243 59 -105 108 -160 179
-201 31 -18 66 -38 77 -45 11 -7 27 -15 35 -19 38 -15 56 -23 73 -28 9 -3 17
-15 17 -26 0 -21 -4 -21 -88 -17 -61 4 -118 15 -184 37 -63 20 -113 30 -143
29 -55 -3 -60 -14 -60 -129 0 -120 18 -144 152 -207 63 -30 130 -55 160 -59
29 -3 59 -12 68 -18 16 -12 46 -264 38 -333 -6 -60 -53 -145 -92 -167 -49 -28
-168 -33 -246 -11 -49 14 -70 28 -117 75 -69 70 -99 130 -134 264 -53 207 -71
322 -99 641 -14 162 -26 217 -66 292 -55 102 -68 249 -38 408 29 154 53 179
196 210 43 9 92 21 108 27 37 12 136 37 195 48 214 40 257 51 322 80 24 11 54
20 67 20 13 0 51 17 85 38 76 46 80 48 159 94 35 21 70 44 77 53 33 40 245
163 320 186 41 12 155 10 168 -3z m5282 -35 c0 -31 90 -198 128 -238 151 -158
263 -211 477 -221 89 -5 119 -3 155 11 94 35 89 41 73 -77 -7 -56 -15 -182
-17 -278 -3 -96 -10 -236 -16 -310 -6 -74 -10 -162 -9 -196 1 -33 -1 -66 -5
-72 -20 -33 -179 -74 -296 -77 -85 -2 -217 23 -274 51 -41 21 -55 35 -73 72
-24 54 -43 106 -49 142 -2 14 -7 36 -11 50 -3 14 -5 33 -4 43 1 10 -4 39 -13
65 -8 26 -17 65 -20 87 -2 22 -9 60 -15 85 -33 148 -55 299 -53 360 0 8 -4 40
-9 70 -5 31 -11 133 -14 229 -4 142 -2 178 11 202 15 30 34 31 34 2z m3738
-205 c120 -60 239 -261 368 -618 41 -113 95 -154 151 -115 19 13 20 18 10 45
-10 25 -8 36 8 68 33 61 68 102 89 102 7 0 31 -28 52 -61 55 -86 78 -109 112
-109 34 0 52 16 52 48 0 31 36 82 59 82 9 0 29 -12 42 -27 30 -33 107 -199
140 -302 18 -57 31 -79 57 -99 l33 -25 27 20 c25 19 27 26 27 94 1 90 13 181
31 234 8 22 14 48 14 57 0 33 74 183 136 278 75 115 129 161 237 204 131 51
256 24 316 -69 39 -61 60 -98 72 -125 6 -14 18 -41 27 -60 14 -31 16 -129 17
-898 0 -474 -2 -868 -6 -873 -4 -8 -13 -8 -28 0 -29 16 -105 29 -236 41 -243
21 -431 41 -443 45 -22 8 -384 47 -747 80 -93 9 -242 22 -330 31 -155 14 -241
22 -485 43 -63 6 -151 12 -195 15 -191 13 -503 37 -540 42 -22 3 -85 9 -140
14 -55 5 -136 14 -180 19 -44 6 -183 20 -310 31 -126 11 -277 24 -335 30 -58
5 -262 19 -455 30 -192 12 -356 23 -363 26 -11 3 -12 21 -7 82 4 42 9 91 12
107 12 72 14 244 3 284 -14 52 -80 127 -120 136 -34 8 -42 26 -35 79 12 83 14
114 21 241 l7 130 58 58 c41 41 60 68 65 93 10 53 129 170 217 213 62 30 75
33 140 29 52 -3 86 -11 124 -30 73 -38 175 -120 209 -170 16 -24 32 -45 35
-48 3 -3 16 -25 28 -50 30 -60 40 -72 81 -96 29 -17 40 -19 60 -10 25 11 45
33 45 51 1 6 7 33 15 60 16 57 90 138 150 163 123 51 257 -52 340 -263 27 -68
53 -100 91 -109 34 -7 79 26 79 58 0 56 47 146 76 146 15 0 67 -72 104 -145
33 -62 84 -95 127 -79 24 8 28 15 26 44 -1 19 -2 61 -3 93 -2 95 42 143 96
102 10 -8 27 -15 36 -15 22 0 63 -52 113 -142 31 -57 49 -77 78 -92 77 -37
108 12 72 113 -14 41 -16 212 -2 251 3 8 10 67 17 131 12 126 23 168 58 216
60 84 204 118 300 71z m-10813 -671 c0 -162 0 -162 29 -206 56 -87 71 -145 81
-325 4 -56 10 -123 15 -151 5 -27 12 -84 15 -125 7 -85 63 -342 96 -440 30
-93 61 -148 120 -219 58 -70 58 -73 -24 -91 -98 -21 -141 -5 -153 55 -6 32 12
108 37 160 8 15 5 32 -9 65 -20 45 -50 80 -135 156 -43 40 -45 44 -40 85 3 27
13 49 24 58 11 8 19 26 19 42 0 16 5 29 10 29 13 0 13 34 -2 81 -14 49 -62
106 -139 165 -54 41 -59 48 -58 82 2 62 14 87 82 165 10 12 17 36 17 62 0 83
-10 103 -86 179 -68 67 -74 77 -74 113 0 23 6 54 13 69 16 37 127 153 147 153
13 1 15 -24 15 -162z m-241 133 l25 -9 -26 -50 c-36 -71 -34 -137 7 -197 16
-25 30 -51 30 -57 0 -7 -15 -18 -33 -25 -108 -39 -217 25 -217 127 0 52 65
148 134 197 36 26 45 27 80 14z m1563 -92 c5 -7 24 -56 43 -108 18 -52 41
-110 52 -127 23 -38 17 -53 -20 -53 -15 0 -44 -5 -64 -11 -34 -9 -41 -7 -74
18 -60 48 -91 129 -79 208 6 42 8 44 63 64 70 24 67 24 79 9z m-561 -122 c0 0
15 -20 32 -42 18 -23 32 -45 32 -49 0 -17 117 -160 168 -205 l57 -51 -29 -52
c-39 -71 -41 -72 -66 -47 -16 16 -36 23 -69 24 -53 3 -154 58 -196 108 -41 48
-93 150 -100 196 -7 42 -6 45 40 88 44 43 49 45 88 39 23 -4 42 -8 43 -9z
m-967 -388 c-21 -63 -15 -107 23 -167 33 -52 34 -58 11 -83 -21 -23 -52 -22
-133 5 -61 21 -66 24 -74 60 -7 25 -6 61 2 105 9 57 16 72 46 100 31 28 43 32
89 32 l54 0 -18 -52z m7321 1 c0 -18 111 -122 150 -141 147 -70 238 -85 385
-65 134 20 210 42 254 75 20 15 45 32 56 38 11 6 21 21 23 33 4 25 17 28 26 5
9 -22 7 -197 -2 -210 -12 -17 -91 -54 -171 -79 -76 -24 -184 -38 -274 -37 -42
1 -49 -2 -57 -24 -13 -34 -12 -85 3 -109 31 -52 65 -89 100 -107 49 -24 169
-38 273 -31 l81 6 7 -48 c4 -26 10 -53 12 -60 6 -15 -48 -46 -161 -95 -90 -38
-208 -103 -242 -134 -56 -49 -7 -175 83 -212 34 -14 43 -14 108 2 89 23 312
135 347 175 31 35 36 35 73 3 l29 -26 -57 -55 c-107 -105 -156 -177 -156 -232
0 -23 10 -38 43 -65 45 -36 89 -48 185 -50 52 -1 54 0 105 55 29 30 61 66 72
80 34 42 129 100 166 101 45 2 195 -19 217 -30 9 -5 46 -15 82 -22 69 -14 139
-45 207 -91 32 -22 46 -42 63 -86 19 -50 20 -63 10 -93 -7 -18 -22 -42 -34
-52 -38 -34 -180 -96 -245 -108 -92 -17 -317 -14 -511 6 -76 8 -94 11 -125 17
-16 4 -115 18 -220 31 -161 20 -228 23 -434 22 -134 -1 -273 2 -310 6 -76 10
-178 43 -203 65 -55 49 -56 259 -3 443 32 114 66 246 70 280 10 72 11 197 4
260 -5 36 -10 83 -12 105 -3 38 -30 126 -45 149 -4 6 -14 45 -22 86 -13 61
-14 87 -5 137 11 59 28 93 46 93 5 0 9 -5 9 -11z m-6418 -251 c74 -27 128 -42
156 -41 48 2 49 -2 31 -88 l-11 -51 -78 4 c-63 4 -92 11 -155 41 l-77 37 3 62
c3 60 6 78 14 78 2 0 54 -19 117 -42z m-1682 -72 c80 1 257 4 394 7 140 2 265
0 285 -5 20 -5 63 -16 96 -23 33 -7 52 -13 42 -14 -52 -3 -140 -89 -162 -157
-30 -96 -7 -149 105 -233 116 -87 201 -105 273 -55 21 14 41 23 44 20 11 -10
4 -75 -10 -102 -12 -23 -20 -25 -78 -28 -77 -2 -117 -27 -157 -96 -22 -37 -27
-57 -27 -115 0 -86 19 -129 77 -170 124 -89 275 -131 354 -100 44 18 134 110
134 136 0 10 5 21 10 24 6 3 10 15 10 26 0 11 8 22 18 25 9 4 41 18 71 32 48
22 58 24 87 13 47 -17 168 -22 223 -10 47 11 68 29 138 128 42 58 48 116 29
255 -20 139 -20 210 1 316 9 47 17 86 19 88 1 2 17 -4 36 -14 27 -14 62 -18
183 -20 83 -1 193 -4 245 -8 272 -18 850 -28 1685 -31 889 -3 1145 -6 1660
-20 127 -3 349 -6 495 -5 260 1 618 -16 915 -45 146 -14 434 -26 779 -34 l58
-1 -4 -127 c-4 -113 -10 -145 -46 -269 -50 -171 -68 -324 -51 -454 12 -97 25
-134 67 -181 26 -29 32 -49 42 -119 10 -74 10 -86 -4 -96 -9 -6 -16 -16 -16
-22 0 -5 -16 -34 -36 -63 -31 -46 -35 -59 -30 -92 4 -21 16 -56 26 -78 l20
-39 -27 -2 c-16 0 -35 -1 -43 0 -8 1 -184 3 -391 6 -207 3 -450 9 -540 15 -90
6 -218 13 -284 15 -66 3 -187 9 -270 15 -82 6 -271 13 -420 16 -148 2 -342 7
-430 11 -407 15 -583 20 -745 18 -328 -4 -1115 -25 -1230 -33 -118 -9 -439 -6
-775 6 -371 13 -473 1 -367 -44 28 -12 86 -16 242 -20 113 -2 304 -6 425 -9
121 -3 315 -5 430 -3 116 1 284 2 375 1 211 -1 847 -1 1055 0 151 0 444 -10
455 -17 3 -1 192 -6 420 -10 228 -4 417 -9 420 -10 3 -2 102 -9 220 -15 118
-6 235 -13 260 -15 25 -2 106 -6 180 -9 74 -4 155 -9 180 -11 39 -5 704 -8
890 -5 36 1 86 -4 112 -9 25 -6 147 -13 270 -17 122 -3 264 -8 313 -10 50 -3
146 -7 215 -9 70 -3 142 -11 165 -19 25 -9 57 -12 90 -8 72 9 209 5 290 -10
96 -17 354 -13 493 8 41 6 43 33 5 69 -25 22 -28 32 -29 93 0 43 -7 81 -19
106 -17 36 -17 40 -2 51 9 7 17 21 17 31 0 10 15 48 33 83 26 53 41 69 77 88
52 27 142 120 161 165 21 52 -18 169 -80 241 -29 33 -138 102 -196 125 -56 22
-269 72 -284 67 -7 -3 -19 -1 -25 3 -6 5 -42 17 -81 26 -76 19 -90 24 -240 96
-156 75 -242 173 -261 297 -9 63 -2 74 38 62 41 -12 81 -16 233 -24 66 -3 152
-10 190 -15 39 -5 129 -12 200 -15 72 -3 150 -8 175 -11 25 -2 101 -8 170 -14
164 -13 426 -38 520 -49 41 -6 113 -13 160 -16 116 -9 179 -14 220 -20 19 -3
74 -7 122 -10 48 -2 91 -6 95 -8 5 -3 69 -8 143 -11 144 -7 362 -23 420 -31
19 -3 68 -7 108 -10 41 -3 78 -7 83 -11 5 -3 71 -9 146 -14 144 -10 397 -33
543 -49 47 -5 121 -12 165 -15 44 -3 114 -10 155 -16 41 -6 116 -15 165 -20
50 -5 135 -16 190 -24 55 -8 141 -17 190 -20 50 -4 119 -11 155 -16 36 -5 85
-11 110 -14 25 -2 64 -10 87 -17 l41 -13 6 -161 c9 -257 15 -562 23 -1162 l6
-563 -39 -1 c-21 -1 -52 -3 -69 -5 -16 -1 -568 -5 -1225 -8 -657 -2 -1251 -7
-1320 -11 -135 -7 -2201 -10 -4415 -6 -753 1 -1436 0 -1518 -3 -81 -3 -310 -6
-510 -7 -199 -1 -414 -5 -477 -9 -63 -5 -164 -12 -225 -16 -60 -4 -243 -8
-405 -9 -162 -1 -414 -5 -560 -9 -415 -11 -1034 -12 -1520 -1 -245 5 -614 10
-820 10 -338 0 -498 -4 -901 -21 l-126 -5 -6 63 c-11 115 -14 1173 -4 1628 4
195 10 488 13 650 3 162 7 311 9 330 2 19 3 54 4 78 1 41 2 42 29 35 15 -5 92
-7 172 -7z m8966 -148 c-6 -49 -13 -57 -73 -80 -55 -21 -119 -23 -212 -7 -80
14 -101 24 -101 49 0 27 10 31 108 36 105 5 161 12 176 22 16 11 90 29 99 24
4 -2 6 -22 3 -44z m-8056 -41 c0 -74 6 -88 75 -184 15 -21 -29 -53 -73 -53
-42 0 -103 28 -152 71 -32 27 -35 34 -35 83 0 55 9 70 67 115 19 14 85 40 106
41 8 0 12 -21 12 -73z m8139 -375 l20 -29 -32 -31 c-47 -45 -287 -144 -372
-154 -24 -2 -31 1 -33 19 -5 35 44 66 318 196 69 33 74 33 99 -1z m-7985 -145
c14 -30 41 -70 60 -89 38 -39 110 -78 144 -78 52 0 5 -79 -65 -110 -25 -11
-57 -20 -72 -20 -70 0 -222 68 -240 107 -33 73 3 188 71 225 57 30 73 24 102
-35z m8300 -91 c19 -8 37 -19 40 -25 4 -6 -37 -53 -96 -111 -102 -99 -103 -99
-153 -99 -69 -1 -83 9 -65 45 20 37 163 175 197 190 37 16 38 16 77 0z m-1174
-556 c93 -29 137 -32 328 -25 235 9 390 7 435 -6 17 -5 55 -9 83 -9 28 0 115
-11 195 -24 79 -13 164 -27 189 -31 35 -5 331 -15 441 -15 16 0 19 -4 14 -17
-4 -10 -8 -24 -8 -31 -1 -38 -117 -122 -169 -122 -38 0 -120 51 -149 91 -31
45 -73 62 -136 57 -42 -4 -60 -11 -86 -35 -47 -44 -100 -73 -133 -73 -23 0
-34 9 -53 39 -28 47 -95 91 -136 91 -76 0 -107 -13 -164 -66 -37 -34 -69 -55
-92 -59 -32 -6 -36 -3 -64 36 -107 149 -216 169 -330 58 -59 -57 -82 -69 -118
-58 -33 9 -67 36 -67 53 0 6 -6 22 -13 37 -8 14 -17 49 -20 78 -6 47 -4 52 11
46 9 -4 28 -11 42 -15z m-53 -213 c4 -8 27 -27 51 -42 58 -38 142 -41 189 -6
38 29 59 23 68 -19 15 -67 -49 -114 -182 -131 -122 -17 -175 -3 -203 52 -22
42 -20 54 19 116 27 44 44 53 58 30z m541 -82 c15 -14 34 -25 42 -25 9 0 21
-5 27 -11 8 -8 25 -8 63 0 29 6 55 9 58 7 8 -8 -39 -76 -61 -88 -27 -15 -199
-13 -228 3 -44 23 4 139 57 139 8 0 27 -11 42 -25z m486 -20 c53 -27 105 -32
135 -13 24 15 51 4 51 -22 0 -11 -20 -41 -45 -66 l-44 -47 -98 7 c-148 10
-153 11 -153 55 0 20 6 43 13 51 12 15 77 60 87 60 3 0 27 -11 54 -25z m447
-16 c17 -12 60 -26 98 -32 57 -8 73 -8 101 6 46 23 50 22 50 -17 0 -39 -27
-73 -75 -95 -18 -9 -79 -16 -150 -19 -112 -4 -122 -3 -147 18 -22 17 -28 30
-28 60 0 32 6 43 37 69 44 36 74 39 114 10z"/>
<path d="M673 14653 c-9 -3 -11 -24 -7 -76 5 -67 -2 -222 -25 -522 -26 -330
-19 -579 18 -725 21 -79 70 -169 93 -170 6 0 -15 70 -43 145 -23 62 -38 250
-35 426 2 103 5 190 8 195 3 5 9 38 12 74 4 36 11 84 17 107 5 24 11 103 14
175 3 73 8 163 11 200 8 100 -24 185 -63 171z"/>
<path d="M2687 14523 c-7 -15 -22 -39 -34 -53 -133 -150 -219 -280 -319 -482
-105 -212 -121 -250 -149 -358 -13 -47 -40 -141 -60 -210 -49 -166 -50 -171
-28 -130 11 19 23 47 26 62 4 15 14 34 23 42 23 23 144 337 144 374 0 16 108
245 119 252 5 3 23 30 41 60 36 59 136 189 205 264 34 37 73 95 82 121 21 64
-24 117 -50 58z"/>
<path d="M904 13599 c4 -35 9 -75 10 -89 2 -14 9 -77 15 -140 15 -147 22 -189
32 -196 17 -10 27 34 28 128 4 172 -33 348 -74 357 -16 3 -17 -3 -11 -60z"/>
<path d="M1988 13593 c-38 -43 -119 -193 -189 -348 -19 -43 -82 -265 -110
-390 -13 -58 -40 -157 -49 -180 -4 -11 -22 -63 -40 -115 -17 -52 -46 -129 -65
-170 -103 -230 -164 -412 -179 -541 -5 -50 -8 -60 -24 -109 -37 -114 -78 -378
-86 -560 -2 -41 -9 -118 -14 -170 -6 -52 -16 -210 -22 -350 -22 -553 -50 -958
-77 -1135 -11 -77 -17 -178 -17 -335 l-1 -225 51 -250 c49 -239 66 -351 79
-515 4 -41 10 -81 15 -90 10 -16 10 -15 14 33 1 6 5 15 11 19 14 10 10 341 -4
418 -7 36 -19 103 -26 150 -8 47 -21 123 -29 170 -16 86 -24 398 -11 450 4 14
10 57 15 95 5 39 13 99 19 135 6 36 12 128 15 205 3 77 10 201 15 275 6 74 16
331 21 570 13 540 25 788 44 908 8 51 17 96 20 100 3 5 10 35 16 68 5 32 17
86 25 119 14 58 42 184 49 215 2 8 8 28 14 43 7 16 12 34 12 42 0 8 5 17 10
20 6 3 10 16 10 28 0 13 9 41 21 62 19 37 47 107 105 264 13 35 28 69 32 75 9
11 33 89 37 116 7 42 90 361 115 437 36 114 49 143 126 295 36 73 61 134 58
143 -4 8 -1 22 6 30 17 21 6 19 -12 -2z"/>
<path d="M1450 13073 c-11 -26 -26 -68 -31 -93 -19 -77 -58 -188 -86 -238 -67
-120 -102 -191 -118 -237 -9 -27 -30 -81 -46 -120 -149 -363 -211 -568 -243
-805 -18 -131 -20 -180 -7 -180 18 0 21 9 37 120 4 25 11 54 17 65 12 22 77
311 77 340 0 11 12 52 26 90 14 39 30 81 34 95 50 149 121 313 139 324 6 4 9
12 6 17 -4 5 3 22 14 38 12 16 21 33 21 39 0 5 25 47 56 93 72 107 85 140 113
274 12 61 27 126 33 146 22 78 -10 104 -42 32z"/>
<path d="M846 10349 c-8 -36 -33 -242 -51 -429 -18 -183 -23 -221 -59 -430
-58 -332 -78 -480 -64 -480 16 0 37 47 48 110 13 73 28 135 41 165 11 27 27
124 35 210 3 38 8 73 11 79 7 10 8 17 17 131 13 139 25 265 41 420 15 144 14
204 -5 235 -7 11 -10 9 -14 -11z"/>
<path d="M1456 9173 c-3 -21 -4 -51 -2 -68 3 -16 0 -73 -4 -126 -6 -57 -5
-139 0 -205 6 -60 14 -172 20 -249 11 -157 31 -275 60 -359 16 -49 24 -81 45
-191 2 -11 9 -83 15 -160 6 -77 13 -156 15 -175 3 -19 13 -111 24 -205 12 -93
21 -215 22 -270 1 -85 4 -159 8 -212 3 -42 41 19 41 65 0 16 6 34 13 41 19 19
14 420 -8 601 -9 80 -18 173 -20 206 -4 83 -30 206 -61 290 -32 87 -54 211
-60 339 -3 55 -14 147 -25 204 -12 58 -23 157 -25 220 -7 195 -11 242 -24 267
-18 34 -27 30 -34 -13z"/>
<path d="M946 8204 c-5 -10 -10 -57 -13 -104 -4 -69 1 -114 26 -238 17 -85 31
-173 31 -195 0 -55 -23 -181 -50 -282 -26 -95 -28 -109 -15 -114 17 -7 44 42
81 149 57 167 60 241 19 430 -25 116 -36 199 -36 267 0 45 -6 69 -18 84 -17
21 -18 21 -25 3z"/>
<path d="M10045 12310 c-70 -34 -195 -130 -195 -148 0 -4 9 -13 20 -20 25 -15
48 -5 97 43 41 40 151 95 204 102 42 6 42 6 33 41 -10 35 -65 29 -159 -18z"/>
<path d="M10720 12313 c0 -11 53 -63 64 -63 6 0 39 -25 73 -55 56 -50 103 -71
103 -45 0 37 -76 122 -139 154 -30 16 -101 22 -101 9z"/>
<path d="M10047 12093 c-18 -3 -32 -14 -39 -29 -6 -13 -14 -24 -18 -24 -9 0
-44 -80 -58 -132 -16 -59 1 -162 33 -204 29 -38 85 -68 123 -66 94 7 206 154
207 271 0 35 -5 56 -12 59 -7 2 -13 10 -13 18 0 22 -63 81 -105 98 -37 16 -61
17 -118 9z m123 -70 c54 -38 63 -52 68 -107 3 -44 -1 -64 -21 -108 -42 -86
-67 -110 -123 -115 -43 -4 -53 -1 -81 25 -27 25 -32 38 -38 97 -7 66 -6 71 30
141 26 49 45 74 59 77 47 9 83 6 106 -10z"/>
<path d="M10076 11940 c-9 -22 -16 -55 -16 -74 0 -35 25 -96 40 -96 43 0 82
47 96 117 8 40 -36 93 -76 93 -23 0 -30 -7 -44 -40z"/>
<path d="M10738 12085 c-14 -8 -37 -36 -50 -62 -20 -42 -23 -62 -23 -166 l0
-117 -35 0 c-40 0 -109 -17 -127 -32 -9 -8 -10 -15 -2 -30 10 -18 18 -20 78
-15 58 5 72 2 118 -21 29 -14 56 -34 59 -44 10 -34 -7 -78 -44 -108 -30 -25
-45 -30 -89 -30 -47 0 -53 -2 -59 -24 -9 -39 10 -63 54 -68 66 -6 125 18 176
70 42 43 46 51 46 97 -1 28 -7 61 -14 75 -13 23 -12 27 24 58 22 18 42 43 46
55 3 12 12 29 18 37 17 21 36 90 36 131 0 75 -13 110 -54 155 -34 37 -49 45
-86 49 -30 4 -54 0 -72 -10z m102 -45 c0 -5 9 -11 19 -15 10 -3 24 -19 31 -36
17 -40 8 -164 -14 -208 -34 -65 -99 -101 -129 -71 -5 4 -13 38 -18 76 -4 38
-11 79 -13 91 -6 30 32 144 55 164 18 16 69 15 69 -1z"/>
<path d="M10779 11949 c-28 -40 -22 -114 11 -141 12 -10 26 -18 31 -18 15 0
47 61 55 104 6 35 3 43 -20 63 -36 31 -50 29 -77 -8z"/>
<path d="M10001 11240 c-7 -3 -9 -14 -5 -23 3 -10 1 -24 -6 -32 -9 -11 -11
-42 -7 -111 7 -117 31 -172 114 -261 48 -51 67 -64 115 -78 64 -18 180 -21
219 -6 13 5 38 23 54 39 17 16 42 35 55 42 14 7 32 23 40 34 8 12 33 41 56 66
42 46 52 72 75 200 5 30 15 60 20 66 7 9 7 20 -2 36 -25 47 -56 50 -137 9 -72
-36 -113 -43 -234 -42 -92 1 -116 6 -314 60 -18 5 -37 5 -43 1z m199 -132 c34
-8 114 -13 207 -13 170 0 174 -3 70 -61 -47 -26 -61 -29 -142 -29 -117 0 -173
21 -204 75 -26 46 -26 53 -3 47 9 -3 42 -11 72 -19z"/>
<path d="M8656 11562 c-9 -15 -10 -75 -1 -112 14 -61 56 -107 87 -95 22 9 16
169 -7 195 -18 20 -69 27 -79 12z"/>
<path d="M7943 10744 c-12 -12 -25 -39 -29 -60 -6 -34 -4 -40 25 -66 41 -37
73 -36 117 5 42 38 57 102 30 130 -25 25 -114 20 -143 -9z"/>
<path d="M7641 10036 c-7 -8 -22 -16 -34 -18 -22 -3 -56 -56 -56 -88 -1 -8 10
-28 22 -44 21 -25 28 -28 59 -22 46 8 118 70 118 101 0 51 -81 104 -109 71z"/>
<path d="M6513 9450 c-37 -22 -49 -54 -34 -94 16 -41 36 -56 74 -56 55 0 117
63 117 119 0 46 -100 66 -157 31z"/>
<path d="M8331 9367 c-38 -13 -69 -57 -70 -99 -1 -39 36 -61 86 -52 41 8 99
46 101 66 0 7 3 23 7 34 5 17 0 26 -28 43 -39 24 -48 25 -96 8z"/>
<path d="M7692 9325 c-27 -20 -52 -66 -52 -97 0 -39 27 -68 58 -64 46 6 62 17
94 63 26 39 29 49 21 76 -8 29 -13 32 -53 35 -29 2 -53 -3 -68 -13z"/>
<path d="M9138 9236 c-67 -24 -110 -103 -85 -155 11 -23 18 -26 65 -26 49 1
56 4 92 43 39 41 48 70 34 106 -3 9 -10 16 -16 16 -5 0 -16 7 -24 15 -18 18
-19 18 -66 1z"/>
<path d="M7065 9150 c-11 -4 -35 -24 -53 -43 -28 -29 -33 -41 -30 -72 4 -45
41 -78 87 -78 33 0 105 44 127 79 23 35 8 78 -36 103 -40 22 -62 25 -95 11z"/>
<path d="M6059 9093 c-42 -19 -79 -68 -79 -105 0 -35 42 -68 87 -68 26 0 42 9
73 40 46 47 51 77 18 114 -31 33 -56 38 -99 19z"/>
<path d="M8208 8852 c-59 -36 -90 -149 -51 -187 25 -26 97 -15 134 21 29 28
53 89 42 106 -18 30 -70 78 -83 77 -8 0 -27 -8 -42 -17z"/>
<path d="M8726 8758 c-41 -37 -46 -46 -46 -85 0 -84 61 -104 137 -46 56 43 58
130 3 158 -40 21 -43 20 -94 -27z"/>
<path d="M7490 8577 c-39 -20 -54 -60 -40 -103 10 -28 22 -40 55 -55 41 -18
46 -18 85 -3 22 9 49 28 60 42 41 51 12 122 -49 122 -16 0 -41 2 -57 5 -16 3
-40 0 -54 -8z"/>
<path d="M5504 8505 c-69 -41 -84 -107 -36 -155 26 -25 32 -27 71 -20 68 12
121 78 121 152 0 42 -100 57 -156 23z"/>
<path d="M6269 8330 c-76 -76 5 -175 102 -125 32 17 69 69 69 97 0 26 -46 51
-97 54 -39 2 -50 -2 -74 -26z"/>
<path d="M8405 8260 c-10 -11 -24 -20 -30 -20 -37 0 -53 -96 -22 -128 53 -52
200 39 181 113 -12 49 -96 72 -129 35z"/>
<path d="M6794 7952 c-32 -27 -44 -56 -44 -106 0 -64 37 -106 92 -106 51 0 68
10 102 59 22 31 26 46 21 70 -7 33 -51 71 -83 71 -11 0 -22 7 -26 15 -7 20
-36 18 -62 -3z m127 -74 c19 -29 5 -59 -41 -91 -37 -26 -63 -21 -84 14 -13 21
-16 40 -12 64 l7 34 61 -4 c36 -2 65 -9 69 -17z"/>
<path d="M7704 7819 c-32 -11 -84 -94 -84 -134 0 -86 111 -97 180 -18 41 46
47 78 23 111 -23 31 -88 53 -119 41z"/>
<path d="M5871 7769 c-19 -20 -31 -46 -35 -77 -5 -41 -3 -49 21 -74 38 -39 78
-37 129 6 89 76 64 175 -44 176 -36 0 -48 -5 -71 -31z"/>
<path d="M7912 7305 c-12 -9 -31 -37 -43 -61 -53 -118 46 -172 133 -72 40 46
51 104 25 126 -24 21 -90 24 -115 7z"/>
<path d="M6426 7275 c-60 -45 -75 -137 -31 -180 35 -36 71 -32 126 13 78 63
90 115 36 156 -39 30 -100 34 -131 11z"/>
<path d="M7279 7113 c-45 -47 -59 -73 -59 -110 0 -43 26 -73 62 -73 32 0 88
28 88 45 0 5 9 21 20 35 23 29 26 87 6 113 -8 10 -29 20 -47 23 -29 4 -39 0
-70 -33z"/>
<path d="M4868 8608 c-15 -5 -33 -22 -40 -39 -7 -16 -16 -29 -20 -29 -15 0 -7
-75 10 -96 44 -54 90 -56 142 -6 55 53 66 86 39 120 -28 37 -96 62 -131 50z"/>
<path d="M4373 8298 c-52 -55 -52 -120 -1 -163 25 -21 37 -25 62 -19 42 9 52
18 81 76 38 76 18 109 -75 123 -39 6 -48 3 -67 -17z"/>
<path d="M4643 7934 c-95 -40 -100 -172 -7 -187 46 -8 89 14 121 62 55 81 -21
164 -114 125z"/>
<path d="M5109 7777 c-101 -54 -80 -165 34 -184 30 -4 39 0 71 31 41 41 47 80
19 126 -15 25 -50 50 -72 50 -4 0 -28 -10 -52 -23z"/>
<path d="M4795 7273 c-11 -3 -32 -17 -47 -31 -71 -66 5 -187 104 -168 18 4 48
20 66 36 84 77 -2 192 -123 163z"/>
<path d="M5255 7030 c-32 -50 -32 -84 0 -115 49 -50 138 -18 172 62 17 42 12
50 -44 74 -71 30 -98 26 -128 -21z"/>
<path d="M8318 6583 c-26 -31 -50 -121 -38 -143 6 -11 16 -21 23 -21 7 -1 22
-3 35 -4 27 -3 92 28 110 52 17 23 15 79 -4 108 -14 21 -24 25 -64 25 -32 0
-52 -5 -62 -17z"/>
<path d="M6638 6551 c-88 -20 -92 -122 -8 -166 47 -24 84 -19 124 18 44 42 55
80 30 108 -39 44 -82 55 -146 40z"/>
<path d="M6063 6439 c-33 -10 -85 -67 -98 -107 -19 -62 42 -109 125 -96 52 8
130 78 130 116 0 31 -24 65 -60 83 -32 17 -50 17 -97 4z m71 -44 c3 -8 12 -15
21 -15 26 0 17 -40 -16 -71 -50 -47 -128 -50 -137 -6 -11 54 113 141 132 92z"/>
<path d="M7816 6310 c-62 -40 -76 -93 -37 -147 48 -67 164 -29 202 65 16 40
10 51 -41 77 -58 29 -84 30 -124 5z"/>
<path d="M7000 6225 c-7 -8 -18 -15 -24 -15 -25 0 -76 -65 -76 -97 0 -36 34
-80 65 -85 36 -5 103 32 125 69 26 45 25 52 -10 101 -31 44 -59 53 -80 27z"/>
<path d="M9155 5565 c-27 -7 -63 -14 -79 -14 -17 -1 -39 -10 -50 -20 -12 -11
-57 -38 -101 -61 -124 -65 -145 -90 -105 -130 28 -28 52 -25 117 17 148 95
255 135 371 137 71 1 73 2 70 25 -7 54 -110 75 -223 46z"/>
<path d="M9215 5284 c-68 -17 -182 -77 -261 -137 -41 -32 -54 -48 -54 -68 0
-28 15 -39 56 -39 29 0 84 26 84 40 0 5 12 13 28 16 15 4 56 24 91 45 96 58
152 74 254 73 48 0 87 1 87 4 0 2 -7 16 -16 32 -30 50 -144 64 -269 34z"/>
<path d="M9276 4979 c-100 -43 -196 -114 -196 -144 0 -56 64 -50 188 17 53 29
117 61 141 70 61 24 73 44 45 72 -25 26 -100 19 -178 -15z"/>
<path d="M5210 4997 c0 -20 96 -142 138 -175 21 -17 51 -36 68 -43 16 -6 43
-18 61 -26 17 -7 55 -18 84 -23 56 -11 79 -2 79 30 0 21 -45 60 -69 60 -21 0
-149 42 -181 59 -14 7 -50 40 -80 72 -53 56 -100 78 -100 46z"/>
<path d="M4930 4802 c0 -29 72 -142 125 -197 56 -58 214 -164 242 -163 10 1
28 -2 41 -6 15 -5 24 -3 28 8 10 27 -14 53 -108 114 -51 34 -97 65 -103 69
-57 46 -83 71 -120 117 -47 58 -105 90 -105 58z"/>
<path d="M4745 4631 c-9 -15 5 -61 33 -111 14 -25 28 -47 31 -50 3 -3 23 -26
43 -52 56 -69 152 -138 193 -138 57 0 59 57 3 81 -36 15 -160 136 -204 199
-33 48 -88 87 -99 71z"/>
<path d="M5050 1843 c0 -14 115 -24 345 -29 110 -2 272 -6 360 -9 88 -3 270
-7 405 -10 135 -3 290 -8 345 -10 55 -3 106 -2 113 3 11 7 -134 17 -578 37
-47 3 -170 7 -275 10 -622 16 -715 17 -715 8z"/>
<path d="M2623 1792 c-45 -5 -41 -19 10 -34 48 -14 671 -18 791 -4 191 22 -98
47 -502 44 -147 -1 -282 -4 -299 -6z"/>
<path d="M1446 1642 c-12 -12 -5 -22 15 -22 11 0 28 -4 38 -10 26 -13 86 -18
336 -25 223 -6 325 1 332 21 5 14 -74 21 -302 30 -258 10 -414 12 -419 6z"/>
<path d="M4197 1304 c-1 -2 -115 -4 -253 -5 -137 -1 -258 -5 -269 -9 -19 -7
-19 -7 3 -14 13 -5 344 -10 735 -12 392 -2 759 -5 817 -8 58 -2 184 -7 280
-11 96 -3 193 -8 215 -10 22 -2 128 -7 235 -10 107 -4 227 -9 265 -11 39 -2
129 -7 200 -9 72 -3 148 -7 170 -10 l40 -4 -43 14 c-23 8 -84 16 -135 20 -50
3 -137 10 -192 15 -55 5 -183 14 -285 20 -102 5 -214 12 -250 15 -62 4 -132 8
-430 21 -149 6 -1097 13 -1103 8z"/>
</g>
</svg>
