<?xml version="1.0" standalone="no"?>
<!DOCTYPE svg PUBLIC "-//W3C//DTD SVG 20010904//EN"
 "http://www.w3.org/TR/2001/REC-SVG-20010904/DTD/svg10.dtd">
<svg version="1.0" xmlns="http://www.w3.org/2000/svg"
 width="1508.000000pt" height="1526.000000pt" viewBox="0 0 1508.000000 1526.000000"
 preserveAspectRatio="xMidYMid meet">
<metadata>
Created by potrace 1.16, written by Peter Selinger 2001-2019
</metadata>
<g transform="translate(0.000000,1526.000000) scale(0.100000,-0.100000)"
fill="#000000" stroke="none">
<path d="M2219 14906 c-11 -10 -451 -20 -1009 -22 -542 -3 -801 -6 -992 -12
-46 -2 -48 -3 -58 -40 -5 -22 -10 -93 -10 -158 0 -65 -7 -182 -15 -259 -20
-177 -30 -509 -29 -875 1 -157 4 -1117 7 -2135 3 -1017 8 -1976 11 -2130 7
-336 7 -806 1 -965 -3 -63 -7 -268 -10 -455 -3 -187 -7 -407 -10 -490 -28
-981 -28 -1628 1 -1870 6 -50 14 -616 12 -865 -1 -170 1 -367 5 -545 1 -38 0
-88 -1 -110 -2 -22 -3 -231 -3 -464 0 -233 -1 -426 -3 -430 -11 -19 -21 -594
-19 -1131 3 -984 11 -1406 28 -1456 4 -15 123 -12 240 5 102 15 444 5 475 -14
4 -3 135 -5 291 -5 156 -1 379 -7 496 -15 117 -8 292 -14 390 -14 98 0 234 -3
303 -6 194 -10 1405 -12 1695 -3 625 19 628 19 1475 18 1222 -3 1172 -3 1940
-15 300 -5 824 -9 1165 -8 341 1 1131 1 1755 0 2172 -3 4068 7 4083 22 7 7 7
18 -1 36 -7 15 -9 31 -6 37 6 10 6 695 -1 793 -5 85 -5 1659 1 3300 3 864 6
1606 6 1650 0 44 -1 438 -2 875 -2 437 0 827 4 865 13 137 17 332 17 900 1
248 2 538 4 645 4 258 4 312 3 533 0 103 3 208 8 235 4 26 6 52 5 57 -7 22
-16 770 -15 1233 0 428 -1 492 -14 492 -13 0 -13 2 0 18 16 17 33 134 28 187
-5 45 -2 316 4 520 3 99 6 299 5 445 -1 211 0 581 2 705 0 25 -11 814 -12 837
-1 29 -80 31 -949 28 -1202 -5 -1547 -4 -1965 4 -247 6 -486 10 -530 9 -3040
-25 -5925 -24 -6395 1 -25 2 -308 6 -630 10 -322 4 -616 9 -655 12 -38 2 -304
7 -589 10 -286 3 -523 7 -526 9 -4 3 -9 3 -11 1z m1381 -110 c129 -3 395 -8
590 -11 195 -4 418 -8 495 -11 452 -16 840 -19 2205 -18 833 0 1931 3 2439 7
l924 7 -7 -127 c-4 -71 -9 -159 -12 -198 -12 -178 -21 -476 -23 -753 -2 -348
-8 -648 -17 -807 -7 -127 -12 -261 -20 -575 -4 -124 -12 -335 -19 -470 -14
-279 -22 -1403 -10 -1495 2 -17 8 -118 14 -225 10 -171 29 -416 36 -475 1 -11
6 -72 10 -135 7 -117 28 -350 45 -495 14 -120 44 -285 79 -430 152 -626 299
-866 712 -1161 148 -106 202 -138 414 -249 55 -29 145 -76 199 -105 55 -29
124 -61 155 -72 31 -11 76 -29 101 -40 64 -29 188 -86 235 -108 57 -27 202
-85 255 -104 43 -14 103 -39 263 -107 39 -17 97 -39 127 -49 30 -11 107 -38
170 -61 118 -42 208 -72 390 -130 58 -18 110 -36 115 -40 6 -4 51 -21 100 -38
50 -16 136 -49 190 -72 55 -22 133 -54 173 -69 40 -16 83 -35 95 -43 12 -7 31
-16 42 -20 11 -3 65 -21 119 -41 55 -20 109 -36 121 -36 21 0 22 -5 27 -122
12 -317 -4 -4123 -18 -4137 -10 -11 -336 279 -509 455 -88 89 -168 166 -179
171 -17 9 -18 25 -16 244 9 903 7 975 -34 1064 -46 102 -129 178 -259 239 -44
20 -84 36 -91 36 -6 0 -99 22 -206 49 -107 27 -233 55 -280 61 -47 7 -114 18
-150 25 -36 8 -99 17 -140 20 -42 4 -82 10 -90 15 -10 6 -12 25 -7 78 4 39 12
83 17 97 6 14 10 50 10 78 0 29 9 111 20 182 11 72 21 171 22 220 2 78 -1 97
-24 146 -34 73 -146 182 -237 229 -60 31 -158 48 -286 49 -71 0 -154 3 -183 7
-46 6 -53 9 -58 33 -3 14 -10 42 -15 61 -5 19 -9 52 -9 73 0 45 -25 137 -51
189 -27 53 -106 125 -158 145 -111 40 -108 37 -121 91 -6 27 -13 65 -15 83 -5
48 -51 210 -61 218 -5 3 -14 15 -20 26 -6 11 -30 31 -54 44 -40 22 -48 24 -97
13 -76 -16 -118 -39 -175 -94 l-50 -49 6 -52 c4 -29 9 -72 12 -97 10 -86 34
-192 45 -207 10 -11 7 -17 -12 -30 -42 -29 -119 -113 -139 -153 -22 -42 -24
-95 -10 -175 17 -87 43 -249 44 -269 1 -14 -8 -22 -31 -28 -44 -11 -68 -47
-100 -142 -24 -75 -26 -94 -27 -266 -1 -204 7 -381 30 -688 9 -112 14 -205 12
-207 -1 -1 -52 -5 -113 -8 -136 -7 -235 -27 -825 -167 -237 -56 -379 -88 -510
-115 -154 -31 -563 -150 -880 -255 -253 -85 -426 -149 -583 -219 -76 -33 -140
-61 -143 -61 -6 0 -184 -85 -384 -183 -36 -18 -112 -59 -170 -91 -58 -32 -118
-66 -135 -74 -146 -76 -439 -316 -537 -442 -122 -157 -231 -365 -283 -540 -16
-54 -39 -221 -37 -269 2 -56 -11 -70 -60 -64 -76 9 -117 23 -129 44 -26 50
-121 117 -188 135 -37 9 -45 15 -42 30 2 11 5 199 5 419 2 310 6 432 19 540
10 77 19 150 22 161 3 12 12 75 20 140 9 66 18 130 20 144 2 14 11 68 19 120
15 95 25 149 51 270 12 54 28 137 51 265 47 259 124 538 162 586 16 19 22 21
53 11 19 -6 126 -13 239 -15 113 -3 243 -8 290 -11 47 -3 195 -8 330 -11 135
-3 337 -8 450 -12 440 -17 1149 0 1380 32 52 7 135 14 183 15 48 0 93 3 100 5
7 3 66 11 132 20 66 8 149 24 185 34 36 10 124 30 196 44 131 25 232 61 290
104 17 13 53 51 80 84 27 34 58 65 70 69 23 9 84 117 84 149 0 11 9 41 21 68
14 32 24 83 29 153 4 58 11 119 14 135 14 63 24 213 19 293 -13 250 -75 571
-153 797 -29 83 -75 222 -102 310 -120 385 -332 998 -357 1030 -5 5 -18 36
-30 68 -11 31 -34 84 -51 117 -28 56 -30 67 -34 202 -5 207 -34 284 -149 403
-27 28 -71 61 -99 75 -41 20 -53 32 -63 62 -11 33 -10 42 16 95 59 124 91 211
103 283 11 69 16 431 7 468 -6 20 -15 74 -20 119 -12 93 -39 182 -83 268 -65
128 -173 202 -308 212 -58 4 -83 2 -106 -10 -18 -9 -36 -12 -44 -7 -27 17
-130 22 -198 10 -61 -11 -72 -11 -94 4 -19 12 -51 18 -114 19 -88 2 -90 1
-154 -38 -35 -22 -89 -65 -120 -96 -47 -47 -59 -54 -80 -48 -57 16 -114 9
-174 -21 -32 -17 -60 -30 -61 -30 -1 0 -5 78 -8 173 -3 101 -12 195 -20 227
-8 30 -18 75 -22 100 -15 103 -85 308 -157 460 -56 120 -127 327 -128 373 0
15 5 17 23 11 12 -4 79 -8 148 -7 130 1 200 14 286 54 24 10 47 19 51 19 14 0
74 31 127 67 34 23 61 33 87 33 21 0 38 4 38 9 0 5 2 15 5 23 6 15 -43 39
-145 70 -170 53 -274 134 -354 277 -15 28 -16 35 -5 42 8 5 19 9 25 9 26 0
166 102 232 169 86 86 93 114 35 130 -21 6 -54 11 -74 11 -97 0 -172 26 -279
95 l-45 29 35 9 c39 9 84 29 243 107 101 50 164 100 152 120 -3 5 -1 11 5 15
12 7 13 55 2 72 -5 7 -36 14 -73 16 -89 5 -171 52 -270 154 -85 88 -120 136
-173 238 -20 39 -52 97 -71 130 -20 33 -40 70 -45 82 -5 11 -13 24 -19 27 -6
4 -27 33 -48 64 -91 138 -321 362 -446 433 -191 110 -376 178 -572 209 -66 11
-147 25 -180 31 -139 26 -299 37 -485 35 -177 -2 -204 -5 -295 -30 -165 -45
-380 -116 -446 -147 -34 -16 -64 -28 -66 -26 -8 9 40 184 63 230 27 52 117
147 140 147 21 0 17 38 -5 50 -11 5 -34 7 -52 3 -38 -7 -154 -71 -219 -120
-101 -76 -324 -310 -355 -373 -26 -53 -69 -119 -77 -120 -4 0 -33 16 -66 34
-117 69 -241 99 -372 91 -259 -17 -320 -30 -457 -96 -72 -35 -133 -85 -133
-109 0 -16 64 -30 139 -30 48 0 112 -9 174 -25 54 -14 107 -25 118 -25 46 0
219 -103 219 -131 0 -3 -32 -10 -72 -14 -260 -25 -599 -109 -747 -185 -53 -27
-61 -25 -61 10 0 17 -6 43 -14 58 -7 15 -16 48 -19 74 -6 41 -81 285 -106 343
-5 11 -19 45 -31 75 -30 74 -117 244 -146 287 -13 20 -21 39 -18 44 5 9 608 4
894 -7 254 -10 511 -3 591 15 155 35 249 140 304 339 22 77 16 190 -13 254
-19 42 -65 98 -80 98 -5 0 -22 20 -40 45 -17 25 -37 45 -43 45 -7 0 -17 7 -23
15 -14 18 -270 73 -346 74 -19 0 -147 3 -285 5 -207 4 -387 6 -465 5 -8 0
-177 2 -375 5 -309 4 -479 11 -730 30 -27 3 -56 0 -62 -6 -9 -7 -13 -7 -13 0
0 13 -79 21 -215 23 -60 1 -166 5 -234 11 -183 14 -317 13 -334 -1 -10 -7 -23
-8 -38 -3 -36 14 -139 14 -155 1 -8 -6 -14 -7 -14 -2 0 4 -37 8 -82 8 -46 -1
-126 2 -178 6 -52 4 -171 9 -265 10 -93 0 -178 6 -188 11 -12 6 -17 18 -15 36
3 22 9 28 43 33 53 9 789 21 1280 21 215 0 426 4 470 8 86 8 1189 5 1575 -4z
m8190 -30 c685 -8 1125 -10 1840 -9 322 1 619 1 660 0 l75 -2 6 -65 c9 -86 11
-183 10 -429 l-1 -203 -37 5 c-21 3 -112 11 -204 18 -148 11 -178 11 -290 -5
-68 -10 -151 -25 -184 -33 -120 -30 -336 -108 -430 -155 -80 -41 -390 -255
-446 -308 -8 -8 -31 -26 -50 -40 -47 -33 -42 -30 -154 -122 -231 -192 -304
-243 -435 -305 -83 -39 -222 -83 -263 -83 -48 -1 -109 -17 -118 -32 -15 -22
-10 -54 12 -82 28 -36 149 -106 195 -113 22 -3 44 -10 50 -14 24 -19 219 -68
318 -80 58 -7 106 -16 106 -20 0 -7 -119 -56 -220 -89 -107 -36 -229 -59 -340
-66 -72 -5 -110 -11 -122 -22 -26 -22 -23 -74 5 -99 22 -20 127 -73 145 -73 5
0 15 -6 22 -14 6 -8 42 -25 78 -36 37 -12 81 -28 97 -35 17 -7 49 -18 73 -24
23 -7 42 -16 42 -20 0 -25 -35 -83 -80 -131 -28 -30 -62 -71 -76 -91 -22 -32
-179 -149 -200 -149 -4 0 -40 -16 -80 -35 l-73 -36 21 -50 c24 -58 44 -73 164
-130 81 -38 95 -42 164 -41 89 2 106 -5 86 -34 -19 -26 -161 -124 -181 -124
-8 0 -15 -4 -15 -9 0 -5 -19 -16 -42 -26 -113 -44 -138 -58 -133 -76 3 -10 8
-26 10 -38 5 -25 66 -84 108 -104 18 -8 59 -29 92 -45 77 -38 181 -65 270 -68
70 -3 70 -3 69 -31 -3 -49 -16 -157 -24 -198 -10 -46 -6 -191 15 -535 7 -118
29 -256 65 -415 11 -49 26 -123 34 -162 8 -40 24 -93 35 -118 l20 -44 -32 -5
c-29 -5 -107 -10 -294 -22 l-73 -5 2 83 c1 75 -2 89 -30 148 -37 75 -53 96
-102 130 -19 13 -37 27 -40 30 -3 4 -27 19 -53 35 -40 23 -62 28 -115 29 -37
1 -78 -3 -92 -7 -21 -7 -35 0 -82 36 -31 24 -77 50 -102 57 -86 24 -209 -8
-254 -65 -24 -31 -26 -31 -96 0 -75 33 -183 35 -240 4 -21 -11 -39 -19 -41
-17 -2 2 -6 73 -9 158 -4 85 -10 196 -14 245 -10 134 -3 1105 14 1825 8 320 1
1368 -11 1685 -15 408 -16 629 -6 755 7 74 14 137 17 140 6 6 289 16 379 13
33 -1 296 -4 585 -7z m-1085 -15 c3 -11 1 -86 -5 -168 -14 -193 -15 -301 -5
-448 5 -66 10 -176 10 -245 1 -69 5 -314 9 -545 11 -552 11 -995 2 -1815 -10
-797 -10 -1197 -2 -1300 3 -41 8 -122 11 -180 5 -112 11 -217 19 -345 3 -44 8
-172 11 -285 6 -240 17 -349 43 -445 11 -38 27 -108 38 -155 27 -124 177 -416
278 -541 12 -14 32 -41 46 -60 41 -56 298 -309 315 -309 9 0 69 -43 77 -56 4
-6 26 -24 50 -40 24 -16 66 -46 94 -66 28 -21 54 -38 59 -38 4 0 23 -11 41
-25 18 -14 95 -57 170 -95 75 -38 142 -74 148 -79 6 -5 34 -18 61 -29 28 -11
95 -41 150 -67 55 -25 145 -65 200 -87 55 -22 105 -44 110 -48 9 -7 67 -30
185 -74 19 -8 74 -30 122 -50 48 -20 91 -36 97 -36 5 0 44 -16 87 -35 42 -19
86 -35 98 -35 12 0 27 -5 32 -10 11 -11 211 -86 324 -122 83 -26 156 -52 246
-89 39 -15 83 -30 96 -33 14 -2 58 -17 99 -33 41 -17 127 -47 192 -67 l117
-38 1 -126 c0 -70 2 -180 4 -245 5 -146 3 -148 -100 -89 -30 17 -131 62 -139
62 -4 0 -31 11 -59 25 -29 13 -99 43 -157 66 -58 22 -139 55 -180 71 -41 17
-90 30 -108 29 -19 0 -63 13 -98 29 -35 17 -66 30 -69 30 -4 0 -12 6 -19 13
-7 6 -41 18 -77 25 -35 7 -77 20 -94 27 -74 35 -128 55 -150 55 -13 0 -26 4
-29 9 -6 9 -96 45 -251 101 -49 18 -110 41 -135 52 -25 11 -54 24 -65 29 -11
4 -85 36 -165 69 -80 33 -163 69 -185 80 -22 11 -70 30 -108 42 -37 12 -76 30
-87 40 -10 10 -25 18 -32 18 -7 0 -35 11 -63 25 -27 13 -57 25 -65 25 -9 0
-20 4 -26 10 -5 5 -18 11 -29 13 -11 2 -31 9 -45 17 -14 8 -65 34 -115 58 -49
24 -103 53 -120 65 -28 20 -45 29 -130 68 -16 7 -46 25 -65 39 -19 14 -61 38
-93 53 -31 16 -81 51 -111 78 -30 27 -57 49 -61 49 -13 0 -125 92 -204 166
-43 41 -90 83 -105 95 -14 11 -26 25 -26 31 0 5 -19 33 -43 61 -45 53 -81 113
-124 202 -13 28 -28 58 -33 68 -14 23 -44 108 -65 182 -9 33 -23 76 -30 96 -7
20 -21 70 -29 111 -9 42 -23 104 -32 139 -35 141 -70 374 -85 564 -5 72 -12
153 -14 180 -3 28 -10 115 -15 195 -5 80 -16 231 -24 335 -7 105 -14 197 -14
205 0 8 -3 83 -8 165 -15 261 -6 1667 12 1696 3 5 6 80 19 524 3 99 10 236 15
305 11 141 17 352 25 805 3 171 7 373 10 450 3 77 8 199 10 270 7 197 16 339
21 347 3 4 79 8 169 8 153 0 164 -1 170 -19z m-10095 -187 c107 -5 224 -8 260
-7 273 2 477 1 545 -5 44 -3 175 -7 290 -7 120 -1 225 -6 245 -12 19 -6 60
-12 90 -13 30 -1 66 -3 80 -5 14 -1 72 -6 130 -9 58 -4 132 -10 165 -13 33 -3
398 -7 810 -7 670 -1 755 -3 800 -18 28 -9 75 -24 105 -33 66 -20 85 -37 157
-133 64 -86 75 -112 74 -173 0 -88 -79 -237 -134 -253 -65 -20 -138 -38 -182
-47 -76 -16 -1487 -12 -1497 4 -4 7 -23 62 -43 122 -22 71 -51 135 -79 180
-25 39 -54 88 -64 110 -30 61 -95 102 -175 109 -36 3 -79 1 -96 -4 -39 -11
-89 -52 -83 -68 2 -7 -3 -12 -10 -12 -22 0 -42 -45 -35 -79 4 -17 2 -42 -3
-56 -5 -14 -12 -49 -15 -78 -2 -29 -9 -90 -15 -137 -5 -47 -10 -88 -10 -92 0
-4 -118 -4 -262 0 -145 4 -293 7 -331 7 -37 0 -67 0 -67 0 -1 0 -7 34 -14 75
-8 41 -20 89 -27 105 -7 17 -13 35 -13 40 0 26 -42 125 -70 165 -44 64 -58 80
-76 80 -8 0 -26 14 -40 30 -14 17 -28 30 -33 30 -4 0 -20 9 -35 20 -32 23
-182 41 -182 22 0 -6 -7 -9 -15 -6 -24 10 -83 -37 -92 -71 -4 -16 -8 -34 -8
-40 0 -5 -6 -16 -14 -24 -10 -11 -12 -31 -8 -72 6 -52 3 -63 -31 -130 -21 -41
-44 -92 -52 -113 -8 -22 -24 -58 -35 -80 l-20 -41 -143 -3 c-110 -2 -142 0
-143 10 -2 30 3 492 6 516 1 15 6 71 10 124 8 112 3 107 115 102 41 -1 163 -6
270 -10z m276 -290 c32 -12 45 -25 62 -59 53 -110 38 -145 -62 -145 -49 0 -74
6 -109 25 -51 29 -57 39 -67 115 -10 78 5 94 80 85 30 -3 73 -13 96 -21z
m1331 -44 c40 -24 62 -57 70 -105 5 -30 2 -41 -12 -51 -26 -19 -45 -18 -141
12 -78 23 -84 27 -93 58 -12 46 -3 86 23 96 39 16 119 11 153 -10z m-1119
-142 c72 -161 90 -299 66 -510 -7 -69 -15 -71 -85 -25 -40 26 -49 36 -44 52
15 45 25 302 15 379 -7 57 -7 90 2 118 6 21 14 38 17 38 3 0 16 -23 29 -52z
m1301 -30 c28 -71 61 -172 61 -188 0 -12 -8 -15 -40 -12 -36 4 -41 8 -61 51
-12 25 -29 54 -37 63 -13 15 -12 21 12 48 14 18 26 40 26 51 0 30 24 22 39
-13z m-1684 -58 c6 0 16 -9 23 -21 11 -17 10 -30 -8 -82 -12 -34 -25 -66 -30
-72 -4 -5 -17 -40 -29 -76 l-22 -66 -46 -7 c-25 -3 -48 -4 -51 -1 -11 11 22
161 48 213 15 31 35 81 45 111 l18 55 21 -27 c12 -15 26 -27 31 -27z m1336
-11 c28 -19 29 -24 29 -97 0 -42 4 -94 9 -115 8 -34 6 -41 -25 -78 -19 -23
-38 -48 -43 -57 -20 -35 -26 6 -26 166 0 155 5 202 21 202 3 0 19 -9 35 -21z
m12324 -11 c6 -6 15 -593 13 -818 -2 -238 -14 -526 -23 -565 -3 -11 -30 -38
-60 -60 -31 -22 -62 -46 -70 -52 -7 -7 -20 -13 -29 -13 -8 0 -30 -8 -48 -19
-18 -10 -55 -24 -83 -31 -27 -7 -95 -26 -150 -42 -90 -27 -109 -30 -190 -25
-49 4 -133 3 -186 -1 -108 -8 -115 -2 -48 42 21 15 50 44 64 65 13 22 41 57
62 79 21 21 49 56 63 76 51 76 83 106 185 171 58 37 105 70 105 74 0 4 11 14
25 21 19 10 25 21 23 39 -5 41 -47 39 -121 -4 -110 -64 -162 -96 -182 -115
-11 -11 -41 -28 -67 -40 -25 -11 -76 -38 -112 -60 -36 -22 -70 -40 -76 -40 -5
0 -10 -4 -10 -8 0 -5 -18 -17 -40 -27 -22 -10 -40 -22 -40 -27 0 -4 -4 -8 -10
-8 -5 0 -33 -14 -61 -31 -29 -17 -71 -38 -93 -47 -23 -9 -60 -28 -83 -43 -36
-22 -153 -63 -353 -124 -137 -42 -473 -44 -625 -4 -68 17 -160 47 -227 74 -28
11 -11 25 30 25 41 1 201 32 247 49 17 6 80 27 140 47 114 38 145 53 282 141
46 29 87 53 91 53 5 0 27 13 49 29 22 16 59 39 82 50 48 25 51 41 15 70 -31
25 -40 25 -76 7 -42 -22 -122 -42 -262 -67 -139 -24 -166 -22 -371 17 -93 18
-234 62 -253 79 -13 12 2 17 188 65 51 13 103 33 130 51 14 9 48 28 75 42 44
22 139 90 244 175 18 15 56 50 85 78 28 29 66 61 84 71 17 11 64 48 103 83 39
35 92 77 118 93 25 16 55 37 66 47 11 10 34 26 51 37 17 10 62 42 100 71 38
29 80 55 94 59 14 3 59 22 100 41 41 19 85 35 97 36 12 1 30 9 40 19 11 9 35
19 54 23 19 3 43 9 54 14 57 25 299 62 465 73 63 4 318 -8 325 -15z m-13411
-35 c20 -112 17 -169 -10 -159 -7 3 -51 8 -96 12 -46 3 -85 7 -86 9 -4 4 39
127 47 137 3 3 30 8 59 11 29 3 56 8 59 11 13 12 22 5 27 -21z m1472 -181 c21
-16 48 -41 59 -57 11 -16 29 -38 40 -49 17 -17 50 -79 85 -156 4 -8 12 -24 18
-35 11 -20 35 -74 85 -187 14 -31 23 -59 20 -61 -2 -3 2 -20 10 -39 28 -65 69
-191 103 -318 9 -30 25 -63 36 -73 17 -14 18 -20 8 -32 -7 -8 -17 -15 -22 -15
-5 0 -26 -13 -46 -28 -20 -16 -68 -52 -107 -81 -149 -112 -227 -197 -385 -416
-161 -224 -249 -426 -365 -835 -56 -198 -145 -412 -192 -460 -16 -16 -14 32 8
255 36 352 153 778 243 882 24 28 16 49 -22 58 -62 13 -206 139 -269 234 -40
60 -117 203 -127 237 -5 16 1 24 31 40 31 16 46 37 81 104 24 47 52 110 63
140 12 30 34 80 49 111 16 30 54 128 84 217 37 111 71 189 105 247 28 46 51
86 51 88 0 13 90 138 128 179 79 84 157 101 228 50z m-916 -25 c8 -4 103 -8
210 -9 l195 -3 8 -65 c4 -36 12 -77 18 -92 9 -23 6 -35 -28 -95 -59 -103 -82
-161 -134 -333 -47 -155 -185 -459 -210 -460 -6 0 -59 111 -59 124 0 5 -59
142 -91 211 -5 11 -25 65 -44 120 -37 105 -80 193 -125 260 -27 40 -27 40 -18
150 5 61 11 129 14 152 l5 42 52 3 c80 5 190 2 207 -5z m3180 -57 c-25 -70
-42 -163 -44 -235 -1 -49 -1 -50 32 -53 18 -2 32 1 32 7 0 6 8 11 18 11 9 0
27 6 38 13 100 58 153 80 294 119 41 11 98 27 125 35 196 55 336 64 590 38
297 -29 483 -67 660 -133 209 -78 294 -133 446 -286 148 -149 147 -148 219
-256 35 -52 71 -107 80 -121 10 -14 27 -45 39 -70 12 -24 29 -56 39 -70 9 -15
35 -55 56 -90 22 -35 43 -66 46 -69 4 -3 11 -13 16 -23 14 -25 165 -177 177
-177 5 0 28 -13 51 -28 22 -15 64 -36 91 -46 28 -10 54 -22 59 -26 7 -7 -138
-100 -156 -100 -4 0 -47 -18 -94 -41 -123 -57 -134 -58 -196 -17 -29 19 -71
46 -93 60 -102 64 -149 31 -54 -37 37 -27 51 -38 119 -90 43 -33 174 -119 242
-158 46 -27 116 -49 177 -56 30 -3 56 -11 58 -17 6 -19 -148 -134 -244 -181
-102 -49 -100 -44 -49 -112 14 -19 26 -41 26 -49 0 -18 149 -172 167 -172 7 0
13 -4 13 -9 0 -11 119 -72 173 -90 21 -7 36 -18 34 -24 -6 -20 -141 -79 -222
-98 -109 -26 -334 -33 -357 -11 -4 4 -26 67 -48 139 -40 130 -127 334 -149
347 -6 4 -11 14 -11 23 0 9 -6 24 -14 32 -29 32 -65 112 -53 115 41 11 160 53
205 73 80 35 70 73 -23 87 -41 7 -126 47 -188 89 -60 40 -286 278 -335 351
-25 39 -54 80 -64 90 -10 11 -18 23 -18 27 0 12 -80 109 -90 109 -5 0 -23 13
-40 30 -59 58 -277 190 -313 190 -37 0 -16 -38 41 -76 129 -87 209 -171 309
-324 80 -122 116 -166 227 -274 72 -71 149 -140 171 -155 22 -14 42 -28 45
-31 3 -3 26 -18 53 -33 26 -15 47 -32 47 -36 0 -5 -26 -16 -57 -25 -32 -10
-71 -22 -87 -27 -16 -5 -75 -12 -131 -15 -94 -6 -110 -4 -215 25 -156 44 -334
130 -379 185 -7 9 -19 16 -25 16 -6 0 -51 37 -101 81 -49 44 -137 119 -195
166 -58 48 -121 101 -140 120 -53 50 -149 106 -252 145 -145 56 -173 63 -278
74 -38 4 -51 11 -80 46 -59 71 -83 93 -137 126 -95 57 -202 95 -343 122 -62
12 -227 12 -235 0 -6 -10 34 -40 62 -45 10 -1 52 -6 93 -10 138 -14 257 -50
345 -107 75 -47 144 -135 195 -249 42 -93 74 -242 59 -270 -4 -9 -6 -19 -3
-22 12 -12 -31 -166 -63 -227 -61 -114 -114 -178 -298 -364 -100 -99 -193
-197 -209 -216 -18 -23 -26 -28 -22 -15 64 251 96 392 96 423 0 13 5 33 11 45
17 30 16 186 -1 228 -48 122 -104 224 -144 262 -72 71 -128 116 -165 134 -47
22 -124 34 -133 20 -7 -11 14 -37 32 -37 16 0 116 -76 159 -120 89 -93 161
-265 161 -387 0 -73 -30 -191 -56 -223 -6 -8 -22 -40 -35 -70 -38 -91 -96
-165 -246 -317 -79 -79 -143 -142 -143 -139 0 4 8 48 17 98 25 132 23 187 -12
344 -30 137 -44 180 -70 218 -14 20 -25 41 -25 45 0 14 -114 185 -135 203 -21
19 -63 34 -71 26 -2 -3 12 -29 32 -59 66 -98 125 -229 139 -309 3 -16 12 -60
21 -97 27 -116 19 -308 -19 -458 -16 -64 -32 -162 -42 -260 -3 -33 -8 -70 -11
-82 -9 -45 -6 -240 6 -303 12 -64 34 -130 71 -203 24 -49 24 -47 -7 -47 -95 0
-224 142 -253 278 -5 24 -7 134 -4 244 4 206 -3 296 -34 393 -16 50 -52 115
-64 115 -15 0 -17 -30 -4 -66 13 -40 19 -77 30 -194 6 -67 1 -99 -49 -315 -60
-260 -70 -338 -68 -517 2 -234 28 -410 74 -502 l20 -39 -38 6 c-49 8 -162 86
-228 158 -72 77 -130 181 -149 264 -55 236 -58 378 -12 499 39 103 15 146 -32
55 -42 -81 -57 -148 -56 -249 1 -91 27 -312 39 -331 3 -5 8 -21 10 -36 5 -28
25 -71 69 -148 16 -27 34 -59 39 -70 6 -11 20 -33 31 -50 32 -47 24 -181 -19
-359 -56 -229 -138 -397 -221 -453 -27 -19 -60 -43 -72 -53 -62 -53 -150 -71
-409 -86 -113 -6 -174 0 -174 17 0 5 23 31 50 58 28 27 50 52 50 56 0 3 18 33
40 65 22 32 40 62 40 65 0 4 8 19 18 33 35 50 91 227 111 349 26 149 26 144 1
176 -28 35 -44 26 -82 -44 -49 -92 -145 -198 -227 -249 -40 -25 -93 -59 -120
-76 -26 -16 -66 -38 -89 -47 -50 -20 -177 -40 -203 -32 -16 5 -13 11 19 43 57
58 186 233 239 327 63 111 127 274 148 375 4 19 13 54 21 78 18 56 18 116 -1
152 -17 33 -42 39 -52 13 -4 -10 -35 -58 -70 -108 -107 -154 -246 -285 -348
-327 -101 -43 -205 -71 -225 -62 -19 8 -17 11 22 43 41 33 118 121 118 136 0
4 15 25 33 48 32 39 47 65 103 177 33 65 64 137 64 150 0 5 4 18 9 28 25 50
41 95 41 118 0 14 7 38 15 53 8 16 19 46 24 67 5 22 16 57 25 80 8 22 19 69
25 105 21 133 40 234 49 254 17 38 41 120 48 162 5 36 3 43 -16 53 -27 14 -27
14 -79 -84 -54 -102 -95 -148 -206 -236 -85 -67 -235 -151 -299 -166 l-29 -7
30 44 c17 24 43 55 57 68 14 14 26 28 26 33 0 10 13 27 58 74 17 19 32 41 32
48 0 8 7 16 15 20 8 3 15 16 15 29 0 14 7 30 15 37 8 7 24 44 36 84 12 39 29
87 39 106 9 19 15 40 13 47 -2 6 9 40 25 75 16 35 33 78 37 96 9 44 49 168 69
214 9 21 16 47 16 59 0 12 20 63 44 113 24 50 52 117 61 148 9 31 26 70 38 87
58 81 167 242 167 247 0 7 119 141 180 203 55 57 157 145 173 150 7 2 27 17
45 33 18 15 59 42 90 59 31 17 73 39 92 49 80 44 256 102 420 139 96 21 207
48 245 59 39 11 102 22 140 25 81 7 145 24 145 38 0 14 -45 54 -123 110 -80
56 -190 100 -308 124 -46 9 -102 21 -123 27 l-39 10 40 24 c69 41 154 57 308
58 109 0 153 -4 200 -18 61 -18 163 -73 200 -106 11 -10 39 -28 62 -40 70 -36
114 -15 118 55 4 87 111 250 256 388 62 59 114 105 117 103 2 -3 -6 -32 -18
-66z m-4244 45 c13 -4 8 -109 -8 -138 -6 -12 -18 -29 -27 -38 -75 -75 -132
-151 -176 -238 -15 -30 -30 -49 -33 -43 -4 5 -7 111 -7 234 l0 223 55 3 c30 1
60 4 65 6 11 3 113 -3 131 -9z m287 -146 c153 -46 366 -170 399 -233 6 -11 22
-34 35 -50 26 -31 123 -223 123 -244 0 -7 16 -48 36 -90 33 -71 49 -113 59
-152 2 -8 18 -46 35 -85 18 -38 45 -98 61 -133 16 -34 29 -66 29 -71 0 -5 7
-14 15 -21 8 -7 15 -19 15 -26 0 -8 16 -38 35 -68 19 -30 35 -58 35 -62 0 -13
75 -107 131 -165 61 -62 108 -99 157 -120 17 -8 32 -17 32 -20 0 -4 -15 -32
-34 -63 -35 -59 -103 -237 -136 -361 -25 -90 -53 -252 -51 -289 1 -15 -3 -54
-8 -85 -16 -93 -20 -135 -35 -447 -2 -40 -39 -95 -111 -163 -52 -48 -20 -101
66 -109 l52 -5 -7 -71 c-3 -39 -9 -213 -12 -386 l-6 -315 -44 -47 c-24 -26
-44 -54 -44 -63 0 -22 59 -75 92 -82 36 -7 40 -30 53 -363 3 -80 10 -241 16
-358 5 -118 7 -217 5 -221 -3 -4 0 -79 5 -166 6 -88 12 -198 14 -245 11 -219
42 -592 76 -910 10 -102 22 -210 25 -240 3 -30 8 -77 10 -105 2 -27 6 -68 8
-90 3 -22 14 -123 25 -225 11 -102 25 -216 31 -255 6 -38 16 -101 21 -140 6
-38 17 -101 24 -140 13 -68 13 -71 -11 -112 -43 -74 -230 -445 -284 -563 -29
-63 -67 -148 -86 -188 -19 -40 -34 -74 -34 -77 0 -2 -43 -93 -96 -202 -52
-109 -99 -207 -104 -218 -65 -150 -193 -548 -280 -875 -10 -36 -33 -112 -53
-170 -20 -58 -54 -175 -77 -260 -23 -85 -45 -158 -49 -162 -11 -12 -153 -9
-231 6 -78 14 -230 75 -265 106 -11 10 -26 19 -33 21 -7 3 -44 27 -82 54 l-69
50 -1 135 c0 74 0 207 1 295 6 582 -3 1640 -15 1676 -15 47 -24 824 -11 1069
3 58 7 242 10 410 22 1443 22 1343 14 4343 l-4 1617 20 0 c38 0 65 28 65 67 0
43 34 143 67 195 13 21 23 42 23 46 0 16 71 105 139 175 76 78 94 82 214 46z
m4547 -1134 c149 -45 219 -81 317 -162 45 -38 109 -90 143 -118 34 -27 94 -80
133 -118 40 -37 99 -87 132 -109 33 -23 69 -50 80 -61 26 -24 135 -88 205
-120 201 -91 347 -122 538 -112 70 3 122 2 122 -3 0 -5 25 -53 55 -107 30 -53
55 -100 55 -104 0 -4 11 -29 24 -57 13 -27 28 -65 34 -84 50 -159 62 -201 72
-245 30 -143 81 -293 141 -422 22 -46 39 -87 39 -93 0 -6 4 -18 10 -28 36 -64
87 -206 120 -332 12 -47 26 -103 32 -125 6 -22 12 -56 15 -75 2 -19 8 -55 13
-80 12 -62 11 -293 -1 -351 -6 -27 -21 -65 -35 -84 -13 -20 -24 -41 -24 -47 0
-6 -17 -45 -37 -87 l-38 -76 -1 -145 c-1 -80 -6 -156 -11 -169 -9 -22 -25 -29
-124 -53 -63 -15 -132 -28 -154 -28 -22 0 -72 -7 -110 -15 -39 -8 -80 -15 -91
-15 -25 0 -40 31 -47 98 -4 30 -20 66 -51 113 -25 38 -46 72 -46 75 0 13 -64
66 -115 95 -83 48 -139 54 -253 29 -102 -22 -131 -35 -173 -80 -14 -15 -29
-29 -35 -31 -24 -10 -98 -114 -120 -170 -48 -119 -50 -300 -3 -394 40 -81 136
-146 234 -159 55 -8 206 16 360 57 160 43 143 45 141 -17 -1 -45 4 -61 33
-103 18 -27 49 -60 68 -73 31 -21 40 -22 118 -16 46 3 96 11 111 16 15 6 29 8
32 6 9 -9 -103 -124 -183 -189 -44 -35 -107 -80 -140 -100 -90 -55 -278 -110
-415 -122 -25 -2 -65 -6 -90 -9 -25 -3 -169 -7 -320 -10 -331 -5 -522 11 -745
64 -44 10 -114 25 -155 33 -101 20 -379 119 -460 164 -98 55 -209 136 -261
190 -25 26 -82 98 -127 158 -45 61 -96 122 -114 136 -36 28 -94 44 -103 29 -4
-6 16 -36 43 -68 27 -31 73 -91 102 -132 93 -131 183 -222 288 -293 54 -37
102 -67 107 -67 5 0 16 -6 24 -14 32 -28 129 -73 226 -106 55 -18 118 -41 140
-50 54 -23 149 -51 210 -60 28 -4 85 -15 128 -24 43 -9 97 -18 120 -21 100
-12 177 -29 177 -40 0 -6 -13 -29 -30 -51 -16 -21 -30 -45 -30 -51 0 -7 -4
-13 -9 -13 -15 0 -91 -108 -91 -130 0 -11 -5 -20 -10 -20 -6 0 -14 -8 -17 -17
-4 -10 -24 -43 -45 -75 -43 -65 -78 -140 -78 -168 0 -11 -12 -27 -27 -37 -14
-10 -42 -33 -61 -50 -18 -18 -37 -33 -40 -33 -4 0 -29 -9 -57 -19 -107 -41
-289 -80 -418 -90 -112 -8 -300 2 -352 20 -16 5 -64 17 -105 25 -57 12 -117
37 -247 105 -95 49 -202 109 -237 132 -35 23 -90 58 -122 77 -73 44 -151 119
-169 164 -32 76 -4 238 65 376 15 30 33 80 40 110 20 82 65 252 100 370 23 79
29 116 24 148 -4 28 -2 47 6 57 8 10 11 31 7 58 -7 47 -5 48 104 104 48 24 59
40 78 110 14 50 2 83 -29 83 -11 0 -20 -3 -20 -8 0 -4 -13 -22 -29 -40 -17
-17 -36 -41 -43 -51 -7 -10 -43 -34 -78 -53 -84 -43 -167 -46 -221 -9 -42 28
-96 104 -132 184 -17 38 -36 63 -56 75 -17 9 -31 19 -31 23 0 3 13 25 28 50
57 90 112 279 127 437 4 39 12 72 18 72 5 0 25 -11 44 -26 47 -36 95 -54 150
-55 26 -1 53 -4 58 -8 6 -3 16 -6 24 -7 7 -2 23 -11 35 -21 47 -42 76 -55 93
-42 10 9 13 22 8 43 -4 17 -7 47 -7 67 0 35 -2 37 -41 42 -117 16 -179 153
-196 432 -13 212 5 462 33 458 5 -1 18 -26 30 -55 47 -114 159 -220 281 -264
141 -51 234 -14 154 62 -35 33 -63 83 -90 162 -24 69 -26 244 -5 397 9 61 16
113 16 117 0 4 12 8 27 10 23 2 35 17 74 88 34 62 71 109 137 175 49 50 96 99
103 111 25 37 80 96 85 91 3 -3 -4 -40 -15 -81 -15 -55 -21 -106 -21 -181 0
-93 2 -105 19 -115 27 -14 60 -13 75 3 7 6 17 43 24 81 6 41 21 84 37 107 14
21 25 44 25 51 0 6 93 104 208 217 114 113 229 235 255 271 49 65 117 175 117
188 0 4 9 25 21 46 12 23 24 74 31 130 13 116 4 197 -33 310 -23 73 -24 70 4
61 12 -4 42 -13 67 -20z m8104 4 c-10 -12 -45 -39 -76 -60 -31 -21 -59 -48
-63 -59 -9 -28 2 -58 24 -65 10 -3 160 -7 332 -8 302 -2 316 -1 379 20 36 13
97 33 136 46 48 16 97 43 148 82 42 32 79 55 83 52 6 -7 14 -506 8 -527 -3
-10 -19 -16 -45 -17 -27 -1 -52 -10 -75 -28 -40 -30 -42 -37 -18 -60 16 -17
27 -17 105 1 l27 6 3 -98 c2 -55 1 -117 -2 -139 -5 -36 -8 -40 -44 -47 -43 -9
-81 -34 -144 -93 -50 -47 -132 -166 -132 -192 0 -10 -6 -28 -14 -39 -17 -24
-23 -112 -11 -164 24 -109 205 -260 312 -260 l45 0 -6 -707 c-8 -941 -16
-1376 -27 -1389 -5 -6 -28 -17 -51 -24 -24 -7 -68 -21 -98 -31 -108 -34 -243
-70 -323 -85 -102 -19 -402 -28 -480 -13 -32 5 -71 12 -86 14 -50 6 -175 47
-236 77 -67 33 -119 79 -173 153 -20 28 -53 68 -74 90 -30 32 -35 41 -23 48 8
4 15 15 15 23 0 9 11 30 25 48 18 24 25 46 26 84 2 47 -1 56 -31 87 -19 19
-31 37 -28 40 3 3 95 8 204 12 134 3 210 10 233 19 18 8 45 14 60 15 14 0 38
8 52 17 112 73 109 69 171 186 29 56 41 140 35 249 -10 172 -74 292 -177 334
-41 16 -61 25 -115 48 -64 29 -192 19 -255 -18 -90 -54 -161 -147 -190 -247
-7 -25 -19 -66 -26 -91 -8 -25 -15 -78 -15 -117 -1 -67 -2 -72 -22 -73 -12 0
-40 -3 -62 -6 -22 -3 -64 -6 -94 -7 l-54 -1 -18 65 c-57 198 -100 420 -110
560 -5 80 -12 168 -14 195 -20 264 -10 464 29 585 8 25 33 106 56 180 22 74
47 149 55 165 8 17 21 53 29 80 8 28 27 82 41 120 15 39 38 108 51 155 14 47
29 94 34 105 5 11 21 58 36 105 15 47 53 139 85 205 32 66 66 140 76 164 16
38 26 47 83 73 92 42 100 45 145 58 46 14 112 42 205 87 78 38 89 40 64 12z
m-609 -236 c-4 -10 -13 -31 -19 -48 -6 -16 -19 -41 -28 -55 -27 -42 -58 -104
-58 -118 0 -7 -7 -23 -16 -36 -16 -26 -29 -62 -186 -528 l-103 -307 -55 -7
c-103 -13 -211 10 -342 74 -65 31 -118 60 -118 64 0 10 107 63 145 72 15 4 45
19 68 34 23 14 66 39 96 54 66 34 145 113 171 170 17 39 18 44 3 60 -9 10 -22
18 -30 18 -7 0 -13 4 -13 9 0 5 -32 0 -71 -11 -76 -21 -173 -21 -271 1 -59 13
-133 50 -122 61 5 4 56 31 114 61 91 46 117 65 196 145 92 93 156 179 175 233
12 33 28 38 149 41 41 1 120 7 175 14 145 19 149 19 140 -1z m1577 -825 c1
-46 2 -170 3 -276 2 -185 1 -193 -19 -207 -26 -19 -64 -19 -108 -1 -33 14 -65
42 -57 50 2 2 19 11 37 20 17 9 32 21 32 26 0 6 6 10 13 10 16 0 33 34 42 84
10 50 -30 134 -81 172 -22 15 -43 31 -48 36 -24 20 121 166 167 167 15 1 17
-10 19 -81z m-12226 -678 c-10 -77 -142 -465 -192 -563 -80 -159 -155 -277
-176 -277 -11 0 -4 560 8 647 6 41 8 43 58 57 57 17 197 98 260 152 23 18 43
34 45 34 2 0 1 -22 -3 -50z m11174 -689 c56 -23 130 -88 130 -114 0 -19 -5
-20 -123 -13 -117 6 -183 19 -254 47 -40 16 -41 23 -6 46 79 53 175 65 253 34z
m-1804 -90 c32 -19 38 -35 91 -211 20 -69 25 -108 27 -210 1 -117 -5 -162 -40
-283 -8 -25 -99 -144 -149 -194 -55 -55 -84 -62 -132 -32 -53 32 -54 37 -27
80 13 21 24 46 24 55 0 9 8 22 17 29 9 7 25 46 35 86 22 92 33 361 17 433 -11
47 -53 128 -88 169 -14 17 -13 20 14 46 46 42 66 50 125 51 36 0 65 -6 86 -19z
m-374 -62 c50 -26 60 -35 83 -79 46 -88 55 -138 55 -294 0 -136 -3 -159 -25
-226 -15 -41 -30 -89 -36 -106 -5 -18 -26 -50 -47 -73 -29 -31 -49 -44 -92
-54 -44 -10 -56 -18 -58 -35 -4 -23 12 -44 39 -54 19 -8 114 18 146 40 25 16
53 10 53 -10 0 -20 101 -78 136 -78 26 0 76 27 118 65 45 39 53 41 122 20 84
-25 165 11 274 120 45 46 59 54 80 50 14 -3 88 3 165 14 189 27 206 29 358 37
l133 7 57 -33 c66 -37 78 -64 53 -116 -22 -48 -53 -57 -161 -48 -49 5 -106 7
-125 6 -83 -6 -207 -26 -232 -39 -15 -7 -35 -13 -44 -13 -26 0 -173 -73 -233
-116 -67 -48 -95 -76 -146 -143 -111 -148 -159 -204 -212 -242 -32 -24 -64
-49 -71 -56 -7 -7 -20 -13 -29 -13 -8 0 -36 -7 -62 -15 -25 -8 -58 -17 -73
-20 -46 -9 -36 -39 22 -64 52 -22 55 -27 50 -96 -1 -16 -5 -33 -9 -37 -5 -6
-122 114 -198 205 -13 15 -27 27 -33 27 -5 0 -10 7 -10 16 0 8 -11 30 -24 47
-61 80 -180 311 -211 407 -40 127 -40 130 -5 130 12 0 26 13 36 33 9 17 24 41
34 52 24 27 31 74 37 227 9 268 -27 390 -148 502 -65 61 -67 56 21 71 139 24
133 24 212 -16z m706 -28 c48 -24 65 -44 102 -116 27 -54 30 -69 30 -155 0
-173 -46 -291 -160 -408 -75 -77 -133 -111 -187 -112 -37 0 -42 12 -15 32 89
66 135 237 122 454 -4 61 -9 115 -13 120 -8 14 -47 160 -47 178 0 29 115 34
168 7z m-9601 -147 c-72 -147 -212 -353 -287 -422 -24 -23 -125 -92 -133 -92
-2 0 -4 28 -4 63 0 34 -3 119 -7 190 -7 125 -7 127 14 127 30 0 196 57 250 87
100 54 128 75 169 123 24 28 46 49 49 46 3 -3 -20 -58 -51 -122z m6083 57 c0
-4 -15 -22 -34 -40 -40 -39 -115 -183 -121 -232 -2 -19 -8 -68 -13 -109 -5
-41 -8 -106 -7 -145 2 -69 29 -185 44 -185 10 0 46 -92 43 -110 -7 -28 -54
-81 -68 -76 -7 3 -35 -1 -60 -9 -40 -12 -52 -12 -80 0 -56 23 -95 128 -113
303 -21 202 43 380 186 515 31 28 67 62 79 74 13 12 34 23 46 25 33 4 98 -3
98 -11z m307 -22 c-60 -82 -78 -115 -101 -187 -37 -119 -34 -250 10 -366 22
-57 4 -131 -47 -196 -38 -48 -42 -50 -88 -50 -43 0 -52 4 -80 35 -48 55 -62
90 -71 185 -12 111 1 247 30 325 12 33 28 76 35 95 39 104 153 174 287 175 34
1 36 -1 25 -16z m2253 -15 c0 -8 3 -14 8 -14 44 -1 78 -342 51 -509 -11 -63
-32 -111 -44 -99 -6 6 -25 107 -30 158 -1 19 -6 141 -10 270 -7 217 -7 234 9
221 9 -7 16 -20 16 -27z m-2080 7 c19 -5 62 -14 95 -21 90 -20 127 -61 183
-205 16 -41 42 -228 49 -353 6 -103 -9 -293 -29 -367 -6 -22 -12 -53 -14 -68
-2 -16 -11 -49 -19 -73 -8 -25 -15 -51 -15 -59 0 -8 -3 -15 -8 -15 -4 0 -18
-27 -31 -60 l-24 -60 21 -85 c11 -47 28 -92 36 -101 9 -8 16 -23 16 -33 0 -89
-489 -291 -707 -291 -77 0 -123 14 -123 38 0 8 -12 41 -26 73 -15 33 -25 62
-22 64 2 3 25 9 49 14 132 28 201 58 238 103 20 25 22 33 12 54 -17 38 -37 39
-105 6 -121 -59 -256 -78 -371 -52 -61 14 -98 33 -163 86 -126 103 -246 151
-346 141 -88 -10 -229 -37 -266 -51 -67 -26 -226 -66 -264 -66 -38 0 -53 37
-32 78 9 17 16 46 16 65 0 30 4 35 28 40 15 3 59 13 97 22 39 9 106 25 150 35
113 25 185 46 220 64 17 9 52 16 79 16 48 0 48 0 42 28 -13 53 -37 57 -166 27
-30 -7 -75 -20 -100 -28 -25 -9 -72 -20 -105 -26 -72 -11 -185 -34 -275 -55
-77 -19 -199 -45 -255 -56 -22 -4 -74 -17 -115 -28 -136 -35 -234 -47 -281
-33 -47 14 -89 54 -89 85 0 19 5 21 44 18 25 -2 56 2 72 11 16 8 54 17 84 21
30 4 78 13 105 21 28 8 113 24 190 35 77 11 154 25 171 30 17 6 40 12 50 15
10 2 34 9 53 14 19 6 37 8 41 6 4 -2 22 0 41 5 19 6 63 13 99 16 107 10 240
31 325 53 l79 19 41 -36 c58 -54 133 -99 187 -113 60 -16 108 -2 156 47 18 19
37 34 42 34 4 0 31 -11 58 -25 67 -34 92 -32 138 10 21 19 45 35 53 35 9 0 32
19 52 42 l36 42 27 -21 c14 -12 44 -24 65 -28 61 -10 100 12 149 86 37 54 43
70 39 102 -6 43 7 48 35 12 11 -14 33 -32 49 -41 40 -20 101 -4 129 36 15 21
30 30 58 32 35 3 38 6 63 68 23 55 32 66 58 73 40 10 41 39 1 68 -22 17 -31
33 -36 66 -3 24 -10 46 -15 49 -5 3 -9 16 -9 29 0 26 -49 88 -82 106 -32 17
-43 -3 -23 -41 20 -38 35 -185 26 -252 -5 -41 -13 -52 -65 -98 -92 -81 -122
-65 -153 80 -20 92 -19 265 1 314 9 21 16 45 16 53 0 8 14 34 30 58 17 24 30
48 30 54 0 10 57 51 70 51 3 0 21 -4 40 -9z m-920 -143 c0 -7 -7 -22 -16 -33
-19 -26 -51 -136 -59 -205 -12 -114 21 -297 75 -416 16 -37 30 -73 30 -80 0
-7 -20 -25 -43 -39 -80 -46 -164 -26 -257 61 -68 64 -85 120 -77 259 6 104 13
135 52 221 24 52 112 166 150 194 57 42 145 65 145 38z m5554 -77 c11 -18 -72
-107 -124 -134 -79 -40 -187 -53 -522 -62 -279 -7 -452 -16 -658 -34 -52 -5
-96 -8 -97 -7 -7 6 32 113 46 124 10 8 39 12 76 11 33 -1 83 3 111 9 27 6 117
16 200 22 82 6 169 13 194 15 25 2 128 11 230 20 102 8 192 18 200 22 8 3 74
9 145 12 72 3 145 7 163 8 17 0 34 -2 36 -6z m-10819 -168 c-17 -47 -92 -204
-120 -252 -37 -65 -140 -173 -189 -198 -59 -30 -75 -48 -76 -85 0 -27 17 -50
49 -67 16 -9 113 -29 176 -37 17 -2 37 -7 45 -10 20 -8 235 -5 256 3 15 5 16
2 11 -28 -13 -64 -69 -161 -143 -247 -80 -93 -88 -118 -52 -154 65 -65 391 3
556 116 l52 36 0 -27 c0 -16 -9 -60 -19 -100 -19 -71 -19 -72 2 -101 19 -26
29 -30 83 -35 47 -5 80 -1 131 14 83 25 172 49 179 49 4 0 -1 -51 -6 -57 -4
-5 -7 -22 -9 -41 -2 -39 -23 -51 -70 -42 -39 7 -56 3 -142 -31 -60 -24 -112
-52 -136 -74 -21 -19 -41 -35 -45 -35 -4 0 -9 -8 -12 -17 -3 -10 -23 -36 -44
-58 -22 -22 -58 -76 -81 -120 -24 -44 -56 -95 -72 -113 -19 -21 -29 -44 -29
-64 0 -23 -28 -76 -103 -192 -56 -89 -109 -172 -117 -186 -7 -14 -37 -63 -65
-110 -29 -47 -85 -141 -126 -210 -78 -132 -79 -134 -120 -202 -39 -64 -155
-252 -197 -318 -20 -32 -49 -81 -64 -109 -16 -28 -32 -51 -36 -51 -11 0 -57
260 -68 380 -2 25 -8 81 -14 125 -5 44 -14 123 -20 175 -5 52 -14 133 -19 180
-5 47 -12 112 -15 145 -14 150 -37 393 -51 525 -8 80 -17 179 -20 220 -3 41
-8 93 -10 115 -1 22 -6 94 -10 160 -5 66 -9 134 -10 150 -1 17 -6 165 -10 330
-4 165 -10 323 -14 352 -5 30 -4 50 1 47 14 -9 174 -5 268 6 180 21 356 108
474 236 33 35 61 62 64 59 3 -2 -3 -26 -13 -52z m4005 -179 c22 -9 40 -19 40
-23 0 -37 -209 -136 -349 -166 -40 -8 -77 -17 -81 -20 -5 -3 -11 -1 -15 4 -9
16 31 86 67 116 46 39 146 85 188 86 19 1 46 5 60 9 37 12 46 11 90 -6z
m-3356 -230 c25 -54 102 -159 138 -189 49 -41 150 -85 196 -85 l41 0 11 -53
c9 -46 8 -63 -10 -122 -39 -128 -60 -154 -163 -193 -73 -28 -197 -65 -202 -61
-2 2 4 27 14 54 24 70 27 190 6 242 -13 32 -23 43 -46 48 -32 7 -95 -10 -106
-29 -13 -19 -126 -103 -179 -131 -55 -29 -242 -90 -251 -81 -3 3 9 17 26 31
17 15 31 31 31 36 0 6 18 37 41 70 37 55 74 139 85 196 10 50 24 73 44 73 12
0 38 11 58 25 20 14 42 25 48 25 6 0 28 14 49 30 21 17 43 30 49 30 17 0 86
82 86 103 0 28 15 20 34 -19z m9394 0 c27 -5 45 -22 90 -82 31 -42 80 -100
107 -130 53 -59 160 -142 182 -142 7 0 13 -4 13 -10 0 -5 5 -10 11 -10 5 0 29
-8 52 -18 90 -39 124 -51 187 -65 36 -9 72 -15 80 -16 8 0 48 -5 88 -10 40 -6
105 -10 144 -10 68 1 74 -1 95 -28 13 -15 23 -35 23 -44 0 -9 7 -33 15 -52 19
-45 19 -58 1 -51 -8 3 -18 -7 -26 -25 -7 -17 -19 -31 -27 -31 -14 0 -57 -19
-209 -91 -44 -22 -83 -39 -87 -39 -6 0 -148 -63 -180 -81 -41 -22 -216 -109
-219 -109 -4 0 -207 -116 -305 -174 -28 -17 -89 -57 -135 -88 -123 -83 -123
-83 -192 -58 -32 12 -72 35 -91 51 -18 16 -48 32 -66 35 -19 4 -60 24 -93 45
-32 22 -63 39 -69 39 -16 0 -219 101 -235 117 -18 17 -99 73 -106 73 -4 0 -19
11 -34 24 -96 84 -131 112 -147 121 -16 10 -17 17 -7 75 6 36 15 89 19 119 8
51 10 55 44 67 90 31 215 140 299 263 64 94 172 196 243 232 18 8 41 20 52 27
43 24 207 72 252 73 27 1 59 5 73 9 25 9 98 6 158 -6z m1694 -601 c-1 -266
-11 -485 -23 -505 -6 -9 -33 -13 -91 -12 -67 0 -93 5 -138 26 -30 14 -65 36
-77 49 -28 31 -61 106 -84 189 -24 92 -95 287 -118 326 -11 18 -17 35 -13 38
4 2 32 7 62 11 30 4 75 13 100 20 25 7 72 21 105 30 33 9 89 26 125 37 62 20
141 37 148 32 2 -2 4 -110 4 -241z m-6688 21 c26 -9 86 -45 134 -81 105 -79
131 -93 201 -113 30 -8 58 -22 62 -30 4 -8 14 -30 23 -47 14 -32 14 -33 -7
-33 -14 0 -31 -14 -47 -38 -24 -35 -25 -44 -24 -162 1 -106 6 -144 33 -249 18
-68 45 -153 61 -188 l29 -64 1 -307 c1 -193 -3 -335 -11 -382 -7 -46 -11 -189
-11 -372 0 -164 -1 -298 -4 -298 -3 0 -26 11 -52 24 -99 50 -325 125 -452 151
-67 14 -323 96 -369 119 -25 13 -71 31 -101 42 -30 10 -57 22 -60 25 -3 3 -50
22 -105 42 -55 19 -129 49 -165 66 -36 17 -71 31 -78 31 -7 0 -25 8 -40 19
-15 10 -76 49 -137 86 -183 113 -209 131 -271 187 -111 102 -295 219 -397 252
-18 6 -23 16 -52 106 -22 69 -88 169 -165 251 -55 59 -58 65 -45 84 8 11 24
37 35 57 11 20 25 40 31 44 6 3 16 18 23 33 6 14 27 50 46 78 34 51 36 53 85
54 28 1 55 0 60 -1 27 -6 174 2 200 10 17 5 125 12 240 15 262 6 317 10 342
23 11 6 39 13 62 16 24 3 57 13 74 24 18 10 53 24 78 31 33 9 68 33 132 92 48
43 92 79 97 79 6 0 10 6 10 13 0 8 18 30 40 50 22 19 40 42 40 49 0 8 17 31
39 52 21 20 48 57 61 82 24 49 39 57 135 79 84 18 163 18 219 -1z m1547 -171
c87 -79 119 -168 119 -340 l0 -101 -52 -61 c-28 -34 -54 -61 -57 -61 -3 0 -22
-14 -41 -32 -45 -40 -124 -91 -180 -116 -54 -24 -243 -85 -320 -103 -68 -16
-313 -15 -410 1 l-71 12 -25 50 c-14 27 -34 82 -44 121 -10 40 -21 79 -24 87
-9 26 -16 72 -23 155 -5 67 -3 83 11 94 13 11 21 11 48 -2 112 -52 256 -67
384 -42 92 18 226 65 279 97 17 10 37 18 45 18 8 0 23 9 35 20 11 11 55 43 98
72 43 28 101 77 130 109 29 32 53 58 54 58 2 1 22 -16 44 -36z m4612 -90 c66
-219 216 -353 417 -371 l85 -7 3 -129 3 -129 -113 5 c-119 6 -141 12 -226 65
-29 18 -56 33 -61 33 -20 0 -159 142 -181 186 -33 67 -33 159 0 279 38 134 50
145 73 68z m-187 -35 c-28 -98 -31 -217 -6 -242 5 -5 10 -17 10 -26 0 -46 175
-240 275 -305 124 -81 331 -149 376 -125 11 6 24 8 29 5 5 -3 9 -116 9 -266 0
-223 -2 -261 -15 -266 -20 -7 -132 22 -219 58 -60 25 -79 29 -85 20 -6 -11
-38 -3 -105 25 -16 7 -43 16 -60 20 -16 4 -55 20 -85 34 -30 15 -72 33 -92 39
-21 7 -38 16 -38 20 0 4 -33 20 -72 35 -40 14 -94 38 -121 51 -26 14 -55 25
-65 25 -10 0 -22 4 -28 8 -5 5 -29 15 -54 22 -25 7 -71 26 -103 42 -49 23
-131 53 -160 57 -4 0 -31 15 -60 33 -28 19 -74 39 -100 46 -27 7 -65 20 -85
29 -20 9 -70 30 -111 47 -41 17 -76 36 -78 43 -4 12 91 89 143 116 16 8 52 35
80 60 27 24 85 63 129 87 44 23 92 51 106 61 40 28 151 79 172 79 11 0 33 6
50 14 94 43 268 128 307 151 55 31 64 31 56 3z m-10166 -109 c0 -11 -11 -35
-24 -52 -14 -18 -34 -53 -45 -79 -18 -42 -19 -58 -11 -150 9 -110 27 -166 80
-243 16 -24 30 -48 30 -53 0 -14 56 -72 70 -72 7 0 37 -20 66 -45 28 -25 57
-45 63 -45 6 0 18 -11 27 -25 9 -14 25 -25 35 -25 10 0 46 -18 80 -40 34 -22
66 -40 70 -40 13 0 52 -19 94 -45 22 -14 51 -30 65 -36 14 -5 61 -28 105 -49
49 -23 109 -42 152 -49 39 -6 83 -15 97 -21 14 -5 67 -12 118 -15 51 -4 100
-8 108 -11 29 -8 300 33 318 48 25 21 91 38 151 38 61 0 153 44 201 96 19 21
40 34 55 34 19 0 26 7 31 28 4 15 10 32 14 37 4 6 11 25 15 43 4 19 20 48 36
66 15 18 37 53 48 78 11 25 24 49 29 52 10 6 72 -48 72 -63 0 -4 11 -13 25
-19 14 -6 25 -17 25 -23 0 -7 12 -28 28 -48 87 -114 84 -237 -8 -326 -17 -16
-30 -33 -30 -37 0 -20 -68 -92 -108 -115 -23 -14 -45 -30 -50 -37 -13 -21
-272 -126 -312 -126 -7 0 -26 -6 -43 -14 -18 -8 -61 -16 -97 -19 -36 -3 -92
-9 -125 -15 -218 -40 -430 -47 -560 -19 -100 21 -243 67 -365 117 -58 23 -118
47 -135 54 -89 33 -325 160 -425 227 -126 84 -249 192 -304 268 -35 47 -141
250 -148 282 -7 36 181 330 251 390 49 42 180 114 214 117 11 1 17 -5 17 -19z
m5923 -392 c13 -38 29 -73 36 -80 6 -6 11 -17 11 -25 0 -7 12 -39 26 -70 37
-81 66 -160 109 -297 21 -66 53 -158 71 -205 18 -47 57 -164 87 -260 93 -295
154 -481 187 -575 40 -112 69 -229 95 -380 33 -192 39 -410 17 -620 -12 -114
-63 -349 -84 -388 -20 -39 -136 -148 -192 -182 -90 -53 -263 -116 -361 -131
-16 -3 -75 -16 -130 -30 -95 -24 -335 -57 -495 -68 -41 -3 -106 -9 -145 -15
-38 -5 -151 -13 -250 -16 -99 -4 -245 -11 -325 -15 -149 -8 -634 -5 -910 5
-85 3 -243 7 -350 10 -107 3 -274 10 -370 15 -96 5 -219 10 -273 10 -72 0 -99
3 -103 13 -6 16 52 152 138 322 48 96 61 132 65 182 6 61 -9 123 -28 123 -12
0 -54 -59 -69 -97 -7 -18 -16 -33 -19 -33 -6 0 -42 -72 -97 -195 -7 -16 -33
-79 -58 -140 -24 -60 -56 -137 -71 -170 -55 -121 -109 -328 -165 -630 -17 -93
-35 -183 -40 -200 -5 -16 -12 -55 -15 -85 -4 -30 -13 -82 -20 -115 -25 -106
-54 -288 -59 -360 -2 -38 -9 -101 -15 -140 -45 -286 -52 -384 -50 -730 2 -297
-4 -492 -16 -503 -10 -10 -259 -22 -335 -16 -107 8 -437 118 -640 212 -47 22
-139 57 -205 80 -103 34 -185 65 -270 102 -11 4 -105 36 -210 69 -173 56 -388
140 -408 160 -7 7 14 118 31 161 14 38 45 151 56 210 7 36 23 101 34 145 22
84 49 208 77 360 10 50 28 126 41 169 13 44 24 92 24 107 0 14 7 45 14 68 8
22 17 58 20 78 3 21 12 65 20 98 28 110 58 309 67 435 4 69 15 152 23 185 8
33 22 94 31 135 9 41 20 89 26 106 14 45 11 97 -7 122 -18 26 -43 29 -43 5 0
-10 -5 -36 -11 -58 -32 -115 -91 -419 -115 -595 -26 -191 -43 -280 -109 -553
-19 -78 -44 -187 -56 -242 -45 -215 -54 -254 -82 -368 -15 -65 -30 -126 -32
-135 -1 -9 -6 -35 -10 -57 -5 -22 -23 -91 -42 -154 -19 -62 -34 -119 -34 -127
0 -7 -4 -24 -9 -37 l-10 -25 -77 24 c-84 26 -273 55 -304 47 -24 -6 -25 -12
-5 -40 30 -42 82 -65 186 -79 55 -8 120 -23 144 -34 24 -11 51 -20 60 -20 20
0 118 -41 208 -86 37 -19 74 -34 83 -34 15 0 69 -22 126 -51 10 -5 26 -9 35
-9 20 0 98 -24 151 -46 18 -8 40 -14 48 -14 21 0 134 -44 209 -80 33 -17 116
-48 184 -70 68 -23 133 -47 145 -54 11 -8 35 -17 51 -21 17 -3 37 -13 46 -21
20 -18 184 -84 308 -124 53 -17 102 -35 110 -39 15 -10 11 -25 -42 -141 -21
-47 -38 -92 -42 -110 -9 -42 -19 -77 -26 -90 -21 -36 -50 -185 -60 -300 -5
-69 -12 -130 -14 -136 -2 -7 -114 -13 -347 -17 -188 -4 -356 -10 -373 -12 -16
-3 -280 -8 -586 -11 -540 -6 -558 -5 -600 14 -24 11 -71 28 -104 37 -103 30
-340 145 -500 243 -49 30 -108 66 -130 79 -75 45 -190 121 -242 160 -28 21
-86 63 -129 93 -81 58 -194 157 -194 171 0 5 -11 32 -24 61 -34 73 -96 260
-96 288 0 13 -5 49 -10 79 -21 118 -40 251 -46 322 -3 41 -12 115 -20 164 -11
72 -27 260 -25 310 1 40 11 178 15 215 3 25 8 104 11 175 3 72 11 166 16 210
5 44 14 116 19 160 7 66 97 438 155 640 47 167 64 291 46 338 -6 16 -16 27
-23 25 -6 -2 -29 -56 -50 -119 -21 -63 -55 -156 -74 -208 -19 -52 -41 -119
-49 -150 -14 -58 -48 -181 -84 -308 -27 -94 -69 -304 -84 -423 -8 -66 -11
-225 -8 -525 4 -451 1 -422 56 -725 20 -112 40 -198 65 -270 24 -72 93 -209
124 -249 12 -14 30 -42 40 -61 26 -46 116 -149 137 -155 9 -3 28 -16 41 -28
13 -12 51 -40 84 -62 32 -21 61 -41 64 -45 12 -13 88 -70 95 -70 5 0 23 -11
42 -26 18 -14 33 -22 33 -18 0 4 12 -4 28 -18 15 -14 53 -40 85 -59 31 -18 57
-37 57 -41 0 -5 5 -8 11 -8 5 0 48 -25 94 -55 45 -30 88 -55 94 -55 11 0 44
-16 71 -36 8 -6 48 -23 88 -38 40 -16 71 -31 67 -34 -5 -6 -493 -4 -725 3
-254 7 -465 17 -473 22 -4 2 -207 6 -450 9 -243 2 -455 7 -472 12 -30 9 -30 9
-28 78 1 38 7 89 13 114 6 25 13 81 15 125 6 100 22 244 35 310 5 28 12 91 15
140 7 109 24 284 30 305 3 9 7 42 10 75 6 85 14 144 24 185 5 19 12 58 15 85
4 28 11 70 16 95 4 25 13 72 19 105 6 33 18 94 26 135 8 42 17 91 19 110 6 38
17 89 47 223 11 49 18 91 16 94 -3 2 1 20 9 38 8 19 14 47 14 61 0 15 4 41 9
58 20 64 51 182 56 215 3 19 8 37 10 41 2 3 25 87 51 185 46 176 65 245 76
275 14 36 68 200 82 250 8 30 29 100 45 155 16 55 39 134 50 175 27 102 129
394 179 510 22 52 74 164 116 247 42 84 85 176 97 205 11 29 29 69 39 88 10
19 81 163 159 320 144 293 171 343 184 348 4 2 7 10 7 18 0 8 8 22 18 32 9 9
28 40 42 67 14 28 37 65 53 83 15 18 27 39 27 46 0 7 9 21 20 31 10 9 31 40
45 67 15 28 44 76 66 108 21 31 39 61 39 64 0 4 18 34 40 66 22 32 40 63 40
68 0 5 8 16 18 25 9 9 26 33 37 54 11 21 22 40 26 43 3 3 29 46 58 95 29 50
81 138 116 196 34 59 66 117 70 130 5 13 19 41 31 61 13 21 24 40 24 44 0 8
60 93 87 123 l21 24 47 -94 c58 -115 138 -239 196 -301 44 -46 153 -137 260
-216 70 -51 300 -172 327 -172 11 0 28 -7 36 -16 9 -8 21 -12 26 -9 6 4 30 -5
55 -19 24 -14 53 -26 65 -26 11 0 37 -8 58 -18 90 -45 305 -110 417 -127 108
-16 350 -20 403 -6 20 5 76 13 125 16 48 3 97 9 110 14 12 4 56 11 96 15 41 4
92 16 113 27 20 10 46 19 56 19 11 0 34 11 53 25 19 13 48 31 64 39 32 16 177
104 242 148 46 31 132 137 148 185 6 18 14 35 17 39 3 3 36 -3 72 -14 88 -27
181 -89 325 -218 40 -36 114 -90 200 -146 14 -10 40 -24 56 -31 17 -8 36 -21
44 -30 7 -10 19 -17 27 -17 7 0 17 -6 21 -13 10 -16 248 -137 271 -137 9 0 35
-11 57 -25 22 -13 46 -25 53 -25 8 0 28 -6 45 -14 18 -8 41 -16 52 -19 11 -3
58 -22 105 -42 222 -96 337 -134 520 -175 52 -11 103 -25 113 -31 9 -5 43 -16
75 -24 31 -8 84 -23 116 -34 33 -12 65 -21 72 -21 27 0 52 -50 64 -132 26
-188 56 -268 99 -268 21 0 23 16 11 95 -47 301 -51 340 -55 570 -3 183 -1 268
11 360 12 88 16 208 16 448 l1 327 57 -5 c31 -3 70 -9 86 -14 44 -12 345 -8
374 6 14 6 86 30 160 54 74 23 153 54 175 69 22 14 60 35 85 45 39 17 160 128
160 147 0 14 33 39 41 31 5 -5 19 -39 32 -76z m1593 -1444 c3 -16 21 -90 40
-166 19 -76 34 -142 34 -146 0 -5 -13 -14 -29 -19 -29 -10 -29 -10 -24 23 3
21 -1 46 -11 67 -9 18 -19 49 -22 68 -3 19 -10 42 -14 50 -18 35 -30 122 -19
136 18 22 38 16 45 -13z m426 -453 c15 -16 30 -42 34 -57 3 -16 10 -37 15 -48
13 -29 48 -168 64 -255 8 -41 23 -109 35 -150 12 -41 26 -93 31 -115 17 -74
79 -394 79 -404 0 -7 -37 -11 -105 -11 l-104 0 -11 38 c-11 41 -31 140 -55
282 -10 52 -25 131 -35 175 -10 44 -28 130 -40 190 -34 173 -59 215 -126 215
-87 0 -262 -60 -349 -120 -26 -18 -49 -29 -52 -26 -4 3 -8 30 -11 59 -3 46 0
57 30 102 42 63 129 130 192 149 27 8 53 13 58 10 4 -3 17 0 28 6 11 6 55 14
98 18 98 10 183 -12 224 -58z m-202 -272 c33 -111 56 -207 65 -263 27 -174 56
-339 61 -347 6 -10 9 -26 19 -96 7 -51 6 -52 -17 -48 -12 3 -28 5 -35 5 -11 1
-45 95 -58 161 -3 19 -19 96 -35 170 -41 193 -51 251 -51 282 0 14 -11 38 -24
52 -21 23 -30 26 -67 20 -41 -6 -100 -29 -143 -56 -11 -7 -37 -23 -58 -35
l-37 -23 -10 25 c-12 33 -13 55 -1 55 5 0 28 16 52 36 23 19 61 45 83 57 45
24 191 75 218 76 12 1 22 -18 38 -71z m-109 -135 c12 -31 37 -140 45 -193 3
-19 16 -80 29 -135 54 -226 63 -270 50 -273 -20 -5 -201 39 -264 64 -32 12
-40 21 -44 47 -2 18 -14 66 -26 107 -12 41 -31 117 -42 167 l-21 93 31 26 c17
14 31 31 31 37 0 19 131 86 168 87 26 0 34 -5 43 -27z m749 -81 c25 -6 81 -13
125 -17 89 -7 210 -41 235 -65 9 -8 28 -25 43 -37 14 -12 37 -39 51 -60 22
-34 25 -50 27 -143 1 -58 -3 -136 -10 -175 -7 -38 -14 -95 -16 -125 -2 -30 -9
-89 -15 -130 -7 -41 -13 -94 -14 -117 -1 -23 -5 -46 -9 -49 -4 -4 -7 -23 -7
-43 l0 -36 -138 -1 c-143 -2 -257 -20 -321 -52 -42 -20 -79 -83 -88 -147 -5
-39 -2 -51 23 -86 15 -23 43 -52 60 -65 35 -27 147 -74 176 -74 10 0 26 -4 36
-9 9 -5 42 -14 72 -21 86 -18 90 -20 90 -41 0 -10 -16 -85 -36 -166 -25 -102
-34 -158 -30 -185 8 -46 21 -43 -224 -57 -221 -14 -546 -52 -685 -81 -47 -10
-51 -9 -70 14 -11 14 -36 31 -55 37 -69 24 -161 82 -199 125 -92 104 -130 281
-161 744 -6 85 -15 211 -21 280 -15 191 -11 389 11 466 19 66 55 134 70 134 5
0 14 -17 19 -37 9 -31 8 -40 -4 -49 -36 -27 -10 -149 41 -196 27 -24 181 -94
234 -106 25 -6 87 -22 138 -36 203 -56 641 -55 730 1 13 8 26 13 28 10 9 -9
148 33 198 59 57 30 59 32 109 102 41 58 42 75 3 111 l-24 23 -16 -29 c-43
-84 -235 -180 -398 -199 l-54 -6 -12 40 c-7 21 -12 47 -12 56 0 9 -4 24 -10
34 -5 9 -19 73 -30 142 -11 69 -27 147 -35 174 -8 27 -15 62 -15 76 l0 27 73
-3 c39 -1 92 -7 117 -12z m365 -1097 c39 -3 104 -7 145 -10 41 -3 91 -7 110
-10 19 -2 72 -7 117 -10 45 -3 94 -12 110 -20 15 -7 62 -18 103 -24 41 -6 120
-22 175 -37 55 -14 132 -34 170 -44 112 -28 187 -51 225 -70 72 -36 121 -127
134 -246 6 -57 5 -65 -25 -112 -26 -43 -39 -53 -87 -71 -131 -47 -209 -52
-402 -25 -145 20 -208 38 -258 73 -33 25 -40 36 -46 78 -4 26 -14 57 -24 68
-21 25 -106 85 -121 85 -6 0 -34 11 -63 24 -63 29 -159 53 -283 71 -83 12
-290 62 -347 84 -55 21 -62 80 -16 147 20 29 31 34 88 43 74 12 163 19 200 15
14 -2 57 -5 95 -9z m-1544 -462 c24 -98 55 -167 105 -239 60 -86 125 -140 222
-184 74 -35 103 -60 69 -60 -17 0 -121 -88 -125 -106 -2 -8 -7 -14 -11 -14 -7
0 -29 -28 -109 -139 -18 -25 -44 -70 -58 -99 l-26 -52 -31 22 c-17 12 -42 23
-56 24 -14 2 -53 8 -86 15 -68 13 -468 6 -598 -11 -43 -5 -145 -14 -225 -20
-186 -13 -353 -41 -727 -124 -115 -26 -241 -53 -280 -61 -38 -8 -92 -21 -120
-28 -27 -8 -84 -24 -125 -35 -71 -20 -459 -165 -620 -232 -107 -44 -340 -161
-340 -171 0 -4 -9 -11 -21 -14 -30 -10 -205 -144 -268 -206 -72 -72 -192 -234
-206 -280 -4 -13 -11 -28 -15 -34 -4 -5 -17 -39 -29 -75 -23 -72 -34 -155 -36
-272 0 -42 -4 -80 -8 -84 -3 -4 -32 0 -64 9 -134 37 -327 71 -583 103 -69 9
-129 19 -133 23 -17 17 15 216 55 339 116 362 311 622 621 827 37 25 70 45 74
45 3 0 14 6 22 14 26 23 256 147 421 228 180 88 349 168 356 168 5 0 64 26
150 66 28 13 58 24 67 24 10 0 17 5 17 10 0 6 9 10 19 10 11 0 22 4 25 9 3 5
18 12 33 16 16 3 42 12 58 20 17 7 68 25 115 39 76 24 124 41 185 67 44 19
140 49 155 49 15 0 123 31 190 55 19 7 51 17 70 23 74 21 179 52 279 83 58 17
123 33 145 36 23 3 52 9 66 14 14 5 66 16 115 25 50 9 108 20 130 24 22 4 76
17 120 30 44 12 93 24 109 26 15 2 51 11 80 19 28 9 103 27 166 41 63 14 131
29 150 34 272 61 372 78 439 77 l55 -2 17 -72z m1719 51 c139 -37 179 -53 191
-76 10 -19 6 -147 -7 -215 -6 -29 -10 -33 -38 -33 -27 0 -50 16 -132 91 -54
50 -111 97 -126 105 -16 8 -28 16 -28 19 0 7 21 109 25 123 6 16 5 16 115 -14z
m-74 -256 c41 -39 74 -74 74 -78 0 -7 -138 -30 -179 -30 -20 0 -23 4 -17 28 3
15 11 55 18 90 7 34 17 62 21 62 5 0 42 -32 83 -72z m-11991 -68 c112 -98 352
-172 506 -158 l49 5 -6 -36 c-4 -20 -17 -72 -29 -116 -60 -209 -223 -1098
-245 -1335 -6 -63 -15 -131 -20 -150 -5 -19 -11 -78 -15 -130 -8 -126 -15
-202 -20 -209 -3 -6 -26 -299 -40 -513 l-7 -98 -36 -2 c-61 -3 -94 -5 -168
-13 -85 -9 -80 -19 -88 165 -13 282 -21 1794 -11 1970 3 41 7 152 10 245 3 94
8 234 11 312 l6 142 37 -26 c20 -15 50 -39 66 -53z m12432 36 c76 -37 153 -55
248 -56 33 -1 81 -7 107 -13 73 -17 274 5 341 37 28 13 55 22 59 20 5 -3 8
-38 8 -79 l0 -74 -42 -24 c-69 -40 -139 -51 -303 -51 -213 1 -390 27 -476 70
l-46 23 5 53 c2 29 8 61 13 70 5 9 9 26 9 37 0 12 2 21 3 21 2 0 35 -15 74
-34z m-187 -155 c18 -45 48 -68 149 -111 100 -44 162 -56 343 -70 165 -13 373
-1 442 26 14 5 16 -9 17 -142 1 -82 1 -153 0 -158 -1 -5 -6 -137 -12 -295 -14
-392 -13 -390 -69 -436 -25 -21 -79 -54 -120 -74 -75 -35 -76 -35 -205 -34
-161 2 -287 27 -434 89 -143 60 -166 72 -206 111 -32 31 -33 34 -20 60 8 16
15 38 15 50 0 12 4 24 9 28 29 17 31 254 3 310 -42 83 -106 135 -194 154 -57
13 -270 17 -398 7 -187 -14 -284 -32 -375 -70 -163 -66 -205 -101 -338 -274
-44 -58 -89 -102 -121 -119 -48 -25 -155 -13 -251 28 -104 44 -113 62 -91 161
19 84 122 299 168 350 18 20 49 58 68 84 52 70 101 124 113 124 5 0 24 10 41
23 71 53 157 81 334 106 40 6 98 11 130 11 31 1 77 5 102 10 25 5 115 14 200
20 181 12 260 18 315 25 22 3 69 8 105 11 36 3 90 9 120 13 30 5 76 9 101 10
43 1 48 -2 59 -28z m-1907 -558 c45 -7 48 -26 14 -81 -71 -114 -60 -237 27
-305 43 -34 153 -87 181 -87 11 -1 31 -7 45 -15 39 -22 155 -19 206 5 44 22
124 102 156 157 l19 32 41 -40 c22 -21 44 -39 48 -39 5 0 15 -6 22 -13 7 -7
31 -24 53 -37 76 -46 420 -345 580 -505 44 -44 107 -118 139 -164 32 -45 75
-102 95 -125 171 -201 263 -334 359 -516 33 -63 76 -143 95 -177 19 -34 39
-72 42 -85 4 -13 15 -34 25 -48 9 -14 20 -30 23 -36 5 -9 -81 -12 -326 -11
-182 0 -393 -3 -467 -6 -183 -8 -345 -9 -885 -2 -576 8 -1546 7 -1895 -1 -229
-6 -469 -7 -1232 -4 l-148 0 0 24 c0 42 -196 206 -335 281 -27 14 -70 39 -95
53 -47 29 -74 41 -255 117 -60 26 -114 51 -119 56 -12 11 -16 173 -5 234 16
93 27 130 58 203 40 95 182 266 283 341 40 30 90 67 110 83 20 15 40 28 44 28
4 0 38 20 75 45 60 40 118 68 269 131 19 8 43 19 53 25 75 41 149 72 257 108
69 23 134 46 145 51 11 5 81 30 155 55 144 48 297 83 475 110 61 9 148 27 195
40 127 34 166 43 275 61 55 9 112 20 126 24 15 5 41 5 60 1 18 -4 117 1 219
10 375 35 662 43 793 22z m1582 -35 c22 1 59 -1 83 -4 37 -5 45 -10 62 -45 31
-59 29 -165 -4 -260 -34 -96 -54 -168 -68 -249 -18 -105 -16 -146 10 -173 12
-13 22 -28 22 -34 0 -14 76 -88 103 -100 12 -6 51 -24 87 -41 77 -36 189 -74
284 -97 56 -14 98 -16 240 -11 94 3 197 9 230 12 95 10 216 79 241 139 17 42
38 198 49 365 7 101 17 200 22 200 1 0 51 -50 111 -111 59 -62 173 -168 253
-237 80 -69 193 -168 252 -221 l107 -96 2 -205 c0 -113 2 -216 4 -230 1 -14 6
-165 10 -337 l8 -312 -379 -1 c-209 0 -392 -3 -409 -5 -28 -4 -360 -8 -543 -6
l-82 1 -28 58 c-16 31 -58 111 -94 177 -36 66 -86 158 -110 205 -63 118 -173
274 -293 415 -28 33 -78 96 -110 140 -131 176 -185 234 -390 415 -71 63 -146
129 -165 146 -62 56 -123 102 -230 173 -124 82 -160 110 -160 121 0 4 17 25
38 46 41 42 139 94 177 94 14 0 25 4 25 9 0 5 12 11 28 14 15 2 59 11 97 20
39 9 135 19 215 23 80 3 147 9 150 11 3 3 30 1 60 -3 30 -4 73 -7 95 -6z m229
-587 c50 -38 87 -57 196 -100 30 -12 64 -26 75 -30 11 -5 33 -14 48 -20 15 -6
45 -11 66 -11 21 0 73 -9 116 -20 117 -30 256 -28 337 5 34 14 66 25 71 25 5
0 24 7 43 16 47 22 65 14 54 -25 -4 -16 -6 -31 -4 -34 3 -2 -13 -20 -34 -39
-35 -32 -123 -66 -237 -93 -35 -8 -284 -7 -365 1 -114 12 -371 116 -423 171
l-28 31 12 81 c7 44 15 81 17 81 3 0 28 -18 56 -39z m-6780 -681 c13 0 38 -13
57 -29 l33 -29 -11 -60 c-11 -57 -59 -199 -105 -307 -24 -55 -30 -86 -55 -254
l-17 -113 -136 6 c-74 3 -218 6 -319 6 l-184 0 8 103 c4 56 11 120 15 142 18
83 41 161 60 198 11 22 20 47 20 58 0 16 56 145 82 189 30 51 45 70 58 77 8 3
109 7 223 9 115 1 211 5 215 8 3 4 12 4 20 1 7 -3 24 -5 36 -5z m271 -176 c87
-8 346 -47 425 -63 25 -6 73 -10 107 -11 34 0 92 -7 130 -16 37 -9 109 -22
160 -30 51 -7 100 -17 110 -22 10 -5 59 -22 108 -37 77 -24 233 -88 315 -130
14 -7 39 -16 57 -20 17 -3 49 -19 70 -34 21 -15 58 -38 83 -51 25 -14 60 -37
77 -52 18 -15 57 -43 85 -61 29 -19 66 -46 83 -60 26 -24 27 -27 11 -33 -15
-6 -353 -1 -761 10 -33 1 -352 3 -709 4 -597 2 -648 3 -642 18 4 9 11 49 16
87 6 39 15 76 20 82 5 7 8 14 5 17 -6 6 10 59 35 113 37 79 50 113 50 128 0 9
6 22 13 29 12 13 36 64 57 122 8 21 15 26 28 21 9 -3 39 -8 67 -11z"/>
<path d="M3425 14373 c-95 -11 -128 -42 -156 -144 -11 -41 -18 -87 -16 -104 3
-16 7 -39 9 -49 6 -34 73 -98 124 -117 61 -23 150 -24 195 -3 50 25 98 73 126
129 22 42 25 58 20 113 -4 57 -9 68 -43 103 -20 21 -51 45 -68 53 -32 14 -140
25 -191 19z m92 -118 c59 -19 104 -43 121 -63 14 -19 16 -66 2 -92 -11 -21
-83 -41 -156 -42 -80 -2 -174 56 -174 106 0 32 29 82 55 95 30 15 99 13 152
-4z"/>
<path d="M2210 13576 c0 -51 -4 -115 -9 -142 -5 -27 -12 -89 -15 -139 -19
-274 -78 -727 -111 -858 -21 -83 -20 -97 10 -97 40 0 59 45 96 235 11 57 37
462 38 604 1 52 10 137 21 189 32 152 25 302 -15 302 -12 0 -15 -16 -15 -94z"/>
<path d="M2470 13294 c0 -14 4 -55 10 -92 5 -37 17 -123 26 -192 9 -69 20
-129 24 -134 30 -31 10 264 -26 392 -15 55 -34 70 -34 26z"/>
<path d="M1163 12788 c-11 -13 -28 -57 -38 -98 -17 -68 -19 -124 -19 -575 -1
-436 7 -959 19 -1320 2 -60 6 -249 9 -420 10 -513 29 -986 46 -1155 4 -47 8
-92 8 -100 -1 -19 22 -285 28 -325 2 -16 7 -50 10 -75 3 -25 14 -63 24 -85
l18 -40 1 42 c1 23 6 45 11 48 7 4 9 45 5 113 -3 59 -7 168 -10 242 -4 130
-10 258 -20 480 -13 273 -21 579 -30 1080 -3 179 -8 357 -10 395 -2 39 -7 212
-10 385 -3 173 -8 376 -10 450 -7 203 -6 637 1 819 4 100 3 161 -3 161 -5 0
-19 -10 -30 -22z"/>
<path d="M1320 7663 c-15 -50 -17 -225 -4 -521 9 -206 7 -174 44 -697 37 -521
40 -561 50 -646 6 -48 10 -100 10 -116 0 -37 30 -133 46 -150 7 -7 18 -13 25
-13 11 0 9 173 -7 495 -1 39 -6 126 -9 195 -3 69 -10 186 -16 260 -5 74 -12
171 -15 215 -3 44 -10 127 -15 185 -5 58 -12 148 -15 200 -11 190 -44 576 -52
604 -12 45 -26 41 -42 -11z"/>
<path d="M6330 11346 c-78 -14 -160 -47 -160 -62 0 -24 67 -32 116 -14 33 13
94 14 199 5 76 -7 208 -39 230 -56 6 -4 24 -9 40 -11 25 -2 31 1 33 20 6 42
-45 75 -158 101 -113 26 -221 32 -300 17z"/>
<path d="M5030 10983 c-41 -19 -61 -26 -115 -43 -114 -35 -230 -133 -347 -295
-4 -5 -20 -25 -35 -44 -26 -32 -26 -34 -8 -47 25 -19 42 -18 59 4 84 104 172
205 207 236 46 42 139 88 222 110 116 31 157 49 157 66 0 33 -79 41 -140 13z"/>
<path d="M6555 10928 c-144 -36 -245 -157 -245 -294 0 -74 17 -169 37 -208 35
-68 162 -143 261 -155 152 -18 345 71 370 172 32 126 38 227 15 275 -25 55
-129 153 -198 187 -66 33 -164 43 -240 23z m201 -69 c55 -21 56 -22 37 -38
-41 -32 -76 -138 -74 -222 2 -79 50 -140 124 -156 38 -8 34 -20 -15 -42 -24
-11 -61 -28 -83 -38 -61 -28 -195 -25 -257 5 -92 45 -110 82 -109 216 1 111
43 211 106 252 67 44 188 54 271 23z"/>
<path d="M4935 10416 c-132 -52 -190 -117 -234 -261 -30 -97 -26 -158 16 -245
26 -55 47 -80 95 -119 78 -63 173 -96 247 -86 105 14 232 96 303 195 31 43 51
117 52 190 1 69 -8 100 -35 131 -12 13 -38 47 -59 74 -51 68 -77 90 -135 116
-75 34 -174 36 -250 5z m160 -41 c85 -13 116 -37 77 -61 -28 -18 -72 -109 -79
-162 -8 -67 25 -140 88 -195 47 -41 48 -43 36 -78 -9 -30 -22 -41 -73 -68 -90
-47 -157 -52 -229 -17 -50 25 -58 34 -85 92 -44 94 -53 151 -35 236 17 81 54
164 87 195 36 33 120 72 148 67 14 -2 43 -6 65 -9z"/>
<path d="M6090 10149 c-36 -10 -77 -21 -92 -24 -33 -6 -35 -18 -8 -47 18 -19
25 -20 92 -12 40 5 112 9 161 8 l87 0 40 -39 c37 -36 40 -43 40 -95 0 -44 -7
-65 -30 -102 -33 -53 -110 -114 -152 -123 -16 -3 -41 -8 -58 -11 -25 -5 -30
-10 -30 -34 0 -19 8 -33 25 -44 46 -31 178 8 234 68 14 14 29 26 33 26 12 0
26 15 66 72 44 63 44 117 0 196 -40 72 -72 108 -123 135 -95 51 -173 58 -285
26z"/>
<path d="M3493 9302 c-20 -12 -30 -82 -21 -142 13 -80 87 -180 134 -180 36 0
40 24 11 72 -27 47 -41 109 -38 175 2 60 -45 101 -86 75z"/>
<path d="M13203 12099 c-50 -8 -144 -40 -172 -58 -19 -12 -6 -41 17 -41 10 0
45 9 77 20 83 29 233 31 298 6 41 -16 50 -17 57 -5 15 23 -13 53 -66 71 -53
18 -128 21 -211 7z"/>
<path d="M13031 11779 c-40 -12 -181 -135 -202 -176 -8 -16 -17 -30 -20 -33
-3 -3 -16 -33 -28 -68 -31 -83 -26 -178 11 -238 44 -69 101 -122 161 -149 79
-37 175 -33 261 9 66 32 136 90 136 113 0 8 11 29 24 46 50 68 59 97 60 197 1
76 -3 104 -20 140 -28 61 -66 103 -121 136 -40 23 -60 27 -137 30 -50 2 -106
-1 -125 -7z m229 -77 c62 -24 90 -82 90 -183 0 -77 -21 -141 -72 -216 -15 -23
-28 -46 -28 -52 0 -6 -30 -24 -67 -41 -74 -34 -191 -46 -215 -22 -9 9 -8 12 9
12 25 0 77 57 98 107 8 19 15 60 15 91 0 45 -5 62 -27 91 -42 55 -74 79 -115
86 -21 4 -38 10 -38 15 0 13 82 91 114 108 57 30 166 32 236 4z"/>
<path d="M13185 10940 c-43 -4 -77 -15 -120 -40 -62 -36 -145 -113 -145 -134
0 -7 -8 -28 -17 -47 -27 -52 -24 -153 6 -206 44 -77 123 -126 237 -148 70 -14
123 -9 131 12 11 29 -31 53 -124 72 -134 28 -161 45 -187 119 -11 32 -13 50
-5 74 15 49 40 90 68 115 106 94 157 116 254 111 54 -2 67 0 76 14 15 24 15
26 -16 41 -37 19 -85 24 -158 17z"/>
<path d="M8447 8753 c-14 -23 -18 -129 -6 -193 14 -80 28 -106 53 -97 14 6 16
23 14 142 -2 108 -6 138 -18 145 -18 12 -37 13 -43 3z"/>
<path d="M5033 5343 c-46 -9 -94 -117 -95 -214 0 -48 -3 -54 -55 -105 -101
-102 -165 -208 -213 -356 -40 -122 -52 -174 -51 -225 0 -23 -4 -45 -10 -48 -5
-4 -21 -25 -36 -48 -14 -23 -34 -50 -44 -60 -29 -28 -88 -124 -110 -181 -12
-28 -24 -55 -29 -61 -10 -12 -47 -122 -90 -265 -17 -58 -35 -118 -40 -135 -5
-16 -11 -48 -14 -70 -3 -22 -10 -71 -15 -110 -12 -84 -25 -222 -24 -250 0 -11
1 -58 3 -105 2 -99 22 -218 52 -310 27 -85 85 -208 114 -243 23 -27 23 -30 8
-65 -57 -132 -96 -301 -98 -418 -1 -99 5 -114 57 -140 26 -14 34 -14 80 3 41
15 59 29 95 78 58 79 107 177 131 263 20 71 46 131 59 133 4 1 26 2 48 3 48 2
112 28 168 68 21 16 44 28 51 28 7 0 31 14 53 30 29 21 42 26 42 16 0 -35 52
-133 80 -149 38 -23 53 -22 99 10 32 23 45 42 66 101 15 40 27 82 27 95 -1 12
-1 63 -1 113 0 51 -6 103 -12 117 -9 21 -5 38 28 118 76 182 127 386 143 574
6 72 17 150 25 175 24 77 36 214 36 403 0 155 -4 202 -26 312 -21 110 -31 138
-61 182 -20 29 -42 57 -49 63 -11 9 -11 18 2 53 14 39 34 127 49 219 14 86
-37 168 -132 213 -31 14 -34 20 -34 58 0 52 -17 78 -67 104 -37 19 -162 35
-210 26z m185 -110 c3 -37 -1 -44 -30 -65 -34 -25 -138 -68 -165 -68 -15 0
-13 22 9 102 10 33 17 39 67 57 31 11 70 19 86 18 28 -2 30 -5 33 -44z m99
-150 c25 -37 24 -184 0 -230 -10 -18 -15 -33 -13 -33 15 0 -35 -102 -59 -122
-60 -49 -175 -109 -304 -158 -46 -17 -94 -38 -106 -46 -16 -11 -107 -43 -122
-44 -16 -1 33 172 71 256 57 124 217 324 259 324 21 0 179 59 192 71 19 19 64
10 82 -18z m61 -468 c17 -19 34 -52 38 -72 4 -21 10 -45 15 -55 37 -70 56
-492 30 -658 -6 -41 -14 -93 -16 -115 -20 -171 -29 -226 -57 -345 -17 -74 -41
-164 -54 -200 -13 -36 -24 -72 -24 -81 0 -8 -4 -19 -8 -24 -5 -6 -28 -56 -52
-112 -51 -124 -133 -247 -158 -238 -12 3 -35 -12 -72 -51 -30 -31 -77 -67
-105 -82 -195 -100 -187 -97 -256 -96 -95 1 -173 42 -228 122 -52 75 -107 252
-121 392 -19 173 -20 219 -10 311 6 52 13 128 16 169 5 67 26 163 53 245 5 17
17 55 26 85 9 30 42 114 72 186 42 101 71 153 125 225 96 128 116 148 161 160
22 6 85 32 141 58 55 26 114 51 129 55 29 7 177 75 212 98 11 7 33 23 50 35
41 31 58 29 93 -12z m-104 -1911 c10 -75 -29 -184 -77 -213 -18 -12 -22 -11
-33 4 -7 10 -16 38 -20 62 -5 36 -3 50 12 68 11 13 37 46 59 73 22 28 43 51
46 51 4 1 9 -20 13 -45z m-719 -265 c27 -9 51 -22 53 -29 2 -6 -5 -30 -15 -53
-11 -23 -26 -64 -33 -92 -27 -99 -143 -255 -189 -255 -22 0 -23 2 -18 83 4 55
12 95 26 122 12 21 21 50 21 63 0 13 16 62 36 108 29 68 40 84 53 78 9 -4 38
-15 66 -25z"/>
<path d="M5041 4429 c-83 -33 -338 -297 -371 -383 -5 -14 -20 -42 -33 -63 -29
-47 -88 -217 -116 -338 -12 -49 -26 -106 -32 -125 -9 -34 -29 -152 -51 -310
-21 -154 4 -303 72 -426 36 -67 42 -73 101 -101 57 -29 108 -29 184 -2 84 29
102 41 170 103 33 30 63 55 68 56 4 0 7 5 7 10 0 6 4 16 10 23 24 29 84 125
96 154 8 18 14 44 14 58 0 14 4 33 9 43 5 9 18 49 29 87 11 39 29 97 40 130
30 89 49 162 61 235 6 36 15 88 21 115 6 28 13 66 14 85 2 19 12 94 21 165 25
188 9 360 -39 414 -11 13 -39 37 -60 52 -35 26 -47 29 -115 28 -42 0 -87 -5
-100 -10z m158 -70 c18 -6 38 -24 46 -40 17 -32 20 -99 5 -99 -5 0 -12 -11
-16 -25 -3 -13 -12 -29 -20 -36 -33 -27 -12 -35 39 -14 17 7 17 1 11 -101 -6
-99 -9 -111 -30 -127 -27 -21 -31 -45 -9 -53 17 -7 20 -58 6 -113 -5 -20 -15
-62 -21 -93 -10 -53 -14 -59 -61 -87 -27 -17 -49 -37 -49 -44 0 -19 35 -49 53
-45 22 4 21 -2 -8 -97 -23 -77 -28 -85 -51 -85 -34 0 -43 -28 -16 -51 22 -17
29 -53 13 -63 -4 -3 -14 -26 -21 -51 -12 -44 -13 -45 -46 -39 -43 8 -46 -14
-7 -50 25 -23 25 -26 11 -48 -8 -13 -36 -45 -61 -73 l-47 -50 -18 23 c-12 16
-26 23 -42 20 -20 -2 -25 -12 -35 -60 -6 -32 -13 -60 -16 -62 -10 -10 -135
-46 -160 -46 -38 0 -42 11 -18 48 21 35 26 102 8 102 -6 0 -24 -14 -39 -31
l-27 -31 -17 43 c-10 24 -19 64 -21 89 -3 41 1 48 31 73 20 17 34 38 34 51 0
27 -35 65 -42 45 -8 -25 -28 3 -28 39 0 53 19 82 63 97 21 7 56 25 77 40 34
24 39 31 38 67 -1 52 -17 57 -70 20 -24 -16 -52 -32 -64 -36 -20 -6 -21 -4
-13 41 12 71 48 233 54 243 3 4 14 6 25 3 27 -7 70 5 70 19 0 19 -32 48 -52
48 -23 0 -21 8 24 123 25 63 34 77 47 71 61 -28 110 11 52 41 -17 8 -31 21
-31 27 0 22 77 125 151 203 73 76 78 79 96 63 10 -9 29 -19 43 -23 21 -5 29
-1 39 19 8 13 11 39 9 57 -9 57 41 82 111 58z"/>
<path d="M4996 4153 c-14 -63 -28 -129 -31 -148 -2 -11 -10 -50 -19 -86 -8
-37 -17 -129 -21 -205 -6 -128 -9 -144 -38 -203 -25 -52 -28 -67 -19 -82 7
-10 12 -30 12 -43 0 -39 -48 -163 -100 -256 -60 -109 -61 -114 -44 -137 13
-17 15 -17 34 7 11 14 27 40 35 58 8 17 19 32 25 32 14 0 80 141 80 169 0 12
4 29 9 39 5 9 19 50 31 89 12 40 29 78 36 84 10 8 14 36 14 93 1 44 5 128 11
186 5 58 12 130 14 160 2 30 11 88 20 129 12 58 13 82 4 108 -13 42 -44 45
-53 6z"/>
<path d="M11917 1306 c-45 -28 -55 -41 -90 -124 -22 -53 -27 -78 -27 -151 0
-85 1 -90 39 -148 21 -33 45 -64 53 -69 7 -5 37 -8 66 -8 55 1 76 13 113 66
25 35 68 240 62 293 -7 50 -42 98 -96 129 -63 36 -78 38 -120 12z"/>
</g>
</svg>
