<?xml version="1.0" standalone="no"?>
<!DOCTYPE svg PUBLIC "-//W3C//DTD SVG 20010904//EN"
 "http://www.w3.org/TR/2001/REC-SVG-20010904/DTD/svg10.dtd">
<svg version="1.0" xmlns="http://www.w3.org/2000/svg"
 width="1996.000000pt" height="2436.000000pt" viewBox="0 0 1996.000000 2436.000000"
 preserveAspectRatio="xMidYMid meet">
<metadata>
Created by potrace 1.16, written by Peter Selinger 2001-2019
</metadata>
<g transform="translate(0.000000,2436.000000) scale(0.100000,-0.100000)"
fill="#000000" stroke="none">
<path d="M15337 21034 c-4 -4 -152 -8 -329 -10 -353 -4 -404 -7 -499 -28 -200
-47 -239 -57 -292 -76 -78 -28 -235 -111 -322 -171 -137 -94 -346 -254 -410
-315 -55 -52 -137 -120 -211 -174 -79 -58 -95 -72 -169 -145 -118 -116 -196
-232 -301 -442 -53 -106 -112 -219 -133 -250 -20 -32 -55 -92 -78 -133 -78
-144 -97 -176 -155 -263 -32 -48 -62 -95 -65 -105 -4 -9 -26 -49 -49 -87 -61
-102 -133 -259 -161 -350 -13 -44 -33 -94 -63 -160 -5 -11 -19 -45 -30 -75
-30 -79 -41 -99 -61 -105 -9 -3 -35 -22 -56 -41 -21 -20 -58 -47 -83 -61 -161
-93 -274 -163 -335 -208 -38 -29 -124 -80 -190 -114 -66 -35 -133 -73 -150
-85 -16 -12 -61 -40 -100 -61 -74 -41 -128 -77 -265 -176 -47 -34 -114 -80
-150 -101 -36 -22 -99 -64 -140 -94 -41 -30 -127 -88 -190 -130 -63 -42 -131
-88 -150 -103 -71 -55 -274 -165 -325 -177 -16 -4 -34 -10 -40 -14 -5 -4 -46
-15 -90 -25 -91 -20 -347 -23 -498 -6 -99 11 -249 8 -382 -8 -111 -14 -180
-16 -265 -7 l-65 7 -100 99 c-91 90 -179 165 -325 275 -78 59 -185 151 -206
177 -20 25 -195 183 -261 235 -21 18 -59 53 -84 79 -24 26 -75 80 -112 120
-38 40 -64 75 -59 78 6 3 25 6 44 5 18 -1 71 4 118 10 119 16 316 21 375 10
28 -5 82 -16 120 -24 96 -20 221 -46 275 -56 25 -5 65 -14 90 -19 146 -34 347
-44 491 -24 121 16 170 33 369 126 47 22 100 42 118 45 34 6 56 32 47 55 -6
16 -111 45 -195 54 -30 3 -66 8 -80 10 -14 3 -43 8 -65 11 -22 3 -44 9 -50 13
-5 4 -26 11 -45 15 -114 24 -249 80 -385 160 -265 156 -322 191 -338 204 -9 8
-39 28 -66 45 -89 56 -217 145 -243 169 -14 13 -32 27 -39 30 -8 3 -51 36 -95
74 -45 37 -93 77 -107 88 -32 26 -209 188 -260 239 -21 22 -58 69 -80 105 -54
85 -58 91 -84 138 -12 22 -29 45 -37 52 -9 8 -16 18 -16 24 0 5 -16 29 -35 53
-19 23 -35 45 -35 49 0 4 -20 34 -45 66 -25 33 -45 61 -45 64 0 10 -88 131
-116 160 -34 36 -131 108 -229 171 -90 59 -186 104 -305 144 -52 18 -116 42
-141 55 -98 48 -145 56 -325 50 -163 -5 -237 -15 -249 -35 -3 -6 -15 -10 -25
-10 -11 0 -61 -20 -113 -44 -83 -39 -103 -55 -194 -148 -233 -238 -314 -356
-383 -551 -9 -29 -36 -101 -59 -161 l-42 -108 -4 -452 c-4 -444 -8 -527 -27
-576 -6 -14 -11 -34 -13 -45 -4 -21 -18 -65 -61 -195 -34 -100 -41 -130 -70
-294 -13 -78 -31 -170 -39 -206 -18 -81 -13 -279 10 -398 15 -79 51 -161 132
-300 l25 -42 -58 -26 c-191 -84 -203 -92 -338 -222 -72 -70 -160 -167 -196
-215 -36 -48 -71 -94 -77 -102 -7 -7 -13 -17 -13 -21 0 -4 -17 -24 -37 -44
-197 -189 -314 -347 -350 -470 -9 -30 -29 -78 -44 -106 -16 -28 -29 -57 -29
-64 0 -7 -17 -50 -39 -94 -84 -175 -94 -204 -106 -306 -18 -157 -30 -214 -67
-315 -53 -143 -73 -194 -114 -283 -19 -41 -34 -76 -34 -79 0 -3 -8 -24 -19
-47 -10 -23 -26 -72 -35 -109 -9 -38 -23 -84 -32 -103 -13 -27 -15 -53 -10
-135 3 -57 2 -119 -4 -138 -13 -52 -19 -152 -25 -466 -3 -154 -8 -291 -10
-305 -2 -14 -7 -70 -10 -125 -3 -55 -19 -194 -35 -310 -16 -115 -35 -246 -40
-290 -6 -44 -18 -125 -25 -180 -43 -298 -67 -505 -74 -625 -8 -131 -6 -365 3
-405 2 -11 7 -45 11 -75 4 -30 14 -82 22 -115 8 -33 21 -94 29 -135 8 -41 22
-97 31 -125 25 -73 27 -284 3 -455 -24 -178 -28 -216 -35 -335 -7 -133 -23
-248 -42 -315 -39 -136 -149 -415 -238 -605 -62 -132 -88 -197 -134 -325 -61
-172 -72 -242 -68 -432 2 -90 0 -206 -6 -258 -11 -107 0 -187 34 -245 23 -39
26 -99 9 -180 -31 -147 -40 -215 -51 -370 -13 -193 -7 -351 18 -463 10 -50 16
-123 16 -207 0 -141 -28 -717 -37 -750 -3 -11 -15 -65 -26 -120 -38 -174 -138
-486 -212 -660 -14 -33 -36 -94 -48 -135 -12 -41 -25 -84 -30 -95 -14 -32 -27
-142 -29 -245 -2 -135 25 -234 97 -350 39 -63 60 -83 119 -109 38 -17 42 -23
47 -63 23 -186 13 -277 -49 -463 -64 -188 -61 -235 17 -355 33 -51 79 -211 88
-307 10 -104 8 -101 85 -138 83 -40 174 -54 167 -25 -2 10 10 11 55 5 32 -4
101 -9 153 -10 52 -1 124 -6 160 -10 63 -8 420 -9 470 -1 14 2 48 4 75 5 28 1
56 5 63 10 15 9 19 79 8 126 -4 17 -11 55 -16 85 -14 92 -47 178 -124 326 -49
93 -77 157 -81 190 -16 115 -22 143 -45 214 -50 148 -96 211 -303 406 -85 80
-122 204 -121 409 0 110 4 153 19 200 30 93 27 279 -7 410 -52 204 -56 287
-22 465 48 256 72 407 79 490 3 47 10 110 15 140 5 30 14 115 20 188 7 73 16
147 20 164 5 16 12 63 15 104 8 89 61 259 104 333 61 102 145 300 200 469 11
35 35 84 54 110 35 49 100 162 128 222 9 20 20 63 24 95 4 33 9 74 11 92 2 17
9 44 15 60 6 15 13 111 16 213 5 177 6 190 40 300 20 63 46 135 58 160 22 44
77 252 91 341 10 64 56 146 116 209 79 83 194 233 216 282 11 24 35 79 53 123
48 117 372 756 424 836 25 38 66 97 93 132 107 138 182 264 182 306 0 47 74
155 202 293 51 56 95 110 128 158 13 19 63 80 110 135 126 146 146 175 195
272 47 97 73 135 140 204 40 42 50 47 102 53 177 19 182 19 196 5 54 -53 164
-146 186 -158 33 -18 166 -126 207 -168 17 -18 36 -33 41 -33 9 0 88 -87 131
-144 27 -37 57 -76 95 -120 15 -19 27 -37 27 -41 0 -4 12 -22 28 -41 15 -18
35 -43 44 -56 36 -49 161 -194 181 -211 106 -89 191 -179 216 -227 56 -111 64
-149 56 -289 -4 -69 -15 -178 -26 -241 -11 -63 -24 -193 -29 -288 -12 -208
-34 -312 -86 -402 -47 -82 -114 -217 -114 -230 0 -30 -156 -303 -205 -360 -52
-60 -225 -354 -225 -383 0 -3 -18 -44 -40 -91 -141 -304 -168 -439 -119 -586
19 -53 34 -75 99 -139 83 -82 186 -174 201 -179 11 -5 107 -144 116 -170 8
-24 87 -125 142 -181 61 -63 134 -166 189 -265 126 -228 146 -269 241 -469 77
-161 171 -324 253 -434 21 -29 38 -56 38 -60 0 -4 9 -16 20 -28 11 -11 38 -42
61 -70 23 -27 69 -79 103 -115 97 -101 181 -219 208 -290 117 -304 143 -376
183 -500 38 -118 147 -338 212 -429 54 -76 129 -161 141 -161 4 0 13 -10 20
-21 12 -19 10 -26 -19 -68 -18 -25 -36 -47 -40 -49 -4 -2 -32 -33 -62 -70 -61
-75 -109 -170 -110 -216 0 -17 19 -71 43 -121 44 -94 71 -160 75 -185 1 -8 7
-40 13 -70 6 -30 10 -73 10 -95 -1 -61 22 -185 43 -232 11 -24 19 -47 19 -52
0 -5 3 -11 8 -13 4 -1 26 -29 49 -60 24 -31 76 -82 116 -112 41 -31 80 -62 86
-70 16 -19 139 -70 246 -101 50 -15 119 -36 155 -48 48 -16 90 -21 160 -21 88
-1 99 2 155 32 78 42 108 81 134 175 30 112 28 241 -8 447 -16 91 -32 226 -36
300 -4 74 -13 160 -21 190 -8 30 -17 66 -20 80 -3 14 -16 58 -30 98 -13 40
-24 76 -24 81 0 15 -68 121 -95 149 -69 69 -170 265 -186 362 -7 39 -9 127 -5
222 4 124 3 165 -9 198 -8 24 -15 71 -15 106 0 76 -16 155 -41 204 -10 19 -23
46 -29 60 -26 59 -82 139 -142 202 -10 10 -18 21 -18 24 0 3 -20 26 -45 52
-25 25 -45 50 -45 54 0 4 -60 68 -132 140 -73 73 -140 144 -148 156 -8 13 -25
38 -37 55 -13 17 -23 36 -23 41 -1 6 -17 28 -38 48 -20 21 -46 55 -57 75 -22
43 -127 215 -136 223 -7 6 -202 331 -219 365 -3 6 -16 28 -30 50 -50 78 -123
289 -141 404 -19 124 -4 229 59 416 27 81 65 208 92 305 5 19 14 76 20 125 30
260 70 352 248 572 26 32 108 134 155 193 60 75 81 106 113 166 54 102 103
181 157 254 111 147 201 299 326 550 73 146 137 276 141 290 37 109 60 165 67
163 4 0 46 -4 92 -7 47 -4 112 -11 145 -16 120 -19 143 -21 276 -30 74 -5 155
-14 180 -19 25 -6 70 -10 100 -11 30 0 71 -5 90 -10 134 -40 393 -49 490 -17
25 8 72 22 105 32 33 10 65 22 71 27 11 8 236 58 329 72 20 4 44 10 53 14 13
7 87 26 142 37 3 0 34 10 70 22 36 11 99 28 140 38 l75 17 73 -70 c40 -38 88
-77 105 -87 39 -22 86 -80 128 -160 38 -71 124 -318 144 -413 7 -37 19 -81 25
-97 12 -31 34 -108 52 -180 5 -22 25 -119 44 -215 49 -256 71 -358 90 -425 9
-33 18 -71 21 -85 6 -30 70 -236 83 -265 21 -47 37 -128 33 -162 -2 -21 -15
-92 -28 -158 -13 -66 -26 -140 -30 -165 -16 -104 -56 -314 -84 -435 -17 -71
-33 -155 -36 -185 -5 -51 -44 -269 -65 -370 -10 -48 -45 -257 -54 -325 -27
-200 -39 -282 -51 -355 -7 -47 -17 -121 -20 -165 -4 -44 -9 -89 -10 -100 -2
-11 -11 -90 -20 -175 -9 -85 -25 -216 -35 -290 -10 -74 -21 -171 -24 -215 -10
-129 -47 -355 -74 -445 -9 -30 -50 -123 -92 -205 -174 -348 -190 -394 -184
-520 4 -74 15 -119 61 -260 31 -93 67 -191 80 -217 12 -26 23 -53 23 -59 0 -6
16 -46 36 -88 82 -175 125 -294 129 -361 4 -71 -8 -148 -29 -195 -8 -16 -21
-47 -30 -69 -9 -21 -31 -55 -50 -76 -66 -73 -120 -266 -102 -363 4 -20 23 -59
43 -88 19 -29 47 -77 60 -108 14 -31 35 -78 48 -106 13 -27 34 -74 47 -104 24
-58 65 -111 84 -111 6 0 17 -7 24 -14 12 -15 76 -31 169 -41 29 -3 57 -8 61
-10 23 -14 395 -5 420 10 4 3 39 9 76 15 38 6 107 17 154 25 47 8 114 18 150
21 102 8 173 23 189 38 16 16 10 51 -14 81 -49 63 -100 136 -123 175 -14 25
-32 51 -39 58 -7 7 -16 25 -20 40 -3 15 -16 50 -29 77 -27 60 -33 84 -50 195
-46 306 -56 343 -114 465 -22 44 -56 101 -77 126 -21 26 -49 62 -63 79 -14 18
-33 40 -43 49 -10 9 -30 36 -45 60 -14 24 -35 54 -46 66 -12 13 -30 46 -40 74
-27 75 -19 184 35 526 22 138 35 357 25 420 -5 33 -10 105 -10 160 -1 96 1
106 53 250 52 147 99 270 126 330 28 62 91 308 135 523 12 57 33 129 47 160
14 31 31 71 38 87 29 66 53 132 59 166 10 55 54 157 60 139 58 -167 99 -351
112 -495 10 -105 61 -215 163 -345 27 -36 59 -77 70 -91 30 -38 53 -96 119
-297 78 -236 79 -239 101 -377 48 -292 71 -512 78 -735 4 -129 0 -189 -22
-360 -37 -290 -39 -340 -20 -406 34 -116 158 -269 275 -340 36 -21 70 -46 77
-54 8 -9 12 -49 12 -105 0 -55 8 -131 21 -195 27 -131 27 -183 0 -212 -11 -12
-20 -25 -20 -28 0 -4 -16 -27 -35 -51 -19 -24 -35 -47 -35 -51 0 -4 -12 -33
-27 -65 -33 -68 -36 -139 -14 -318 14 -115 52 -219 108 -293 40 -53 271 -159
398 -182 28 -5 61 -12 75 -15 14 -3 108 -7 210 -10 282 -6 482 -17 510 -27 14
-5 98 -12 186 -15 199 -7 186 -19 188 181 l1 141 -48 85 c-49 87 -66 111 -149
218 -27 33 -48 64 -48 68 0 4 -7 15 -15 24 -14 15 -28 40 -97 170 -16 30 -33
59 -37 65 -4 5 -19 37 -32 70 -13 33 -44 89 -69 123 -25 35 -52 74 -60 85 -12
19 -46 62 -115 145 -11 13 -50 54 -87 91 -75 74 -109 139 -134 255 -21 100
-23 150 -8 236 8 41 14 95 14 119 0 110 -46 275 -100 356 -14 22 -37 60 -49
85 -12 25 -36 62 -52 82 -16 20 -29 41 -29 47 0 5 -3 11 -7 13 -8 3 -100 184
-114 223 -32 90 -41 128 -64 260 -14 83 -32 231 -40 330 -8 99 -21 221 -30
270 -31 168 -57 340 -62 404 -7 85 22 296 59 436 47 177 67 311 63 406 -9 182
-17 257 -35 329 -22 86 -102 285 -152 380 -20 36 -48 89 -63 118 -28 54 -95
310 -120 461 -7 47 -22 111 -33 141 -11 30 -20 57 -20 60 -2 15 -20 56 -63
147 -27 56 -51 114 -53 128 -11 57 -51 172 -74 210 -17 27 -28 63 -33 115 -23
209 -28 247 -37 270 -8 20 -2 35 39 95 26 39 60 98 75 131 15 32 47 87 71 121
24 34 43 64 43 67 0 7 80 127 107 160 13 16 42 61 64 100 22 39 58 99 79 134
22 35 61 112 86 170 25 59 65 143 88 187 23 44 54 109 70 145 32 75 54 123
107 236 38 81 64 150 121 319 17 50 36 101 43 115 22 43 45 174 51 288 3 59
12 158 21 221 l16 113 44 20 c24 10 62 37 85 59 23 21 43 39 44 39 9 0 147
145 173 182 16 24 42 54 56 67 14 13 47 67 72 120 25 53 56 110 69 126 12 17
40 69 62 116 22 48 45 90 51 94 6 3 28 41 50 84 21 42 43 86 49 96 28 50 45
100 121 360 47 160 52 188 46 265 -12 152 -17 195 -26 218 -5 14 -11 86 -14
161 -5 151 -20 310 -34 357 -5 17 -12 62 -15 100 -4 38 -16 105 -26 149 -10
44 -22 98 -26 120 -4 22 -8 42 -9 45 -1 3 -5 23 -9 45 -7 35 -31 123 -92 345
-24 86 -55 173 -70 197 -7 12 -33 68 -56 125 l-43 103 -1 150 c-1 83 2 186 6
230 l6 80 27 -55 c34 -67 135 -242 145 -250 15 -10 38 -56 50 -95 6 -22 19
-65 28 -95 11 -36 18 -105 20 -200 2 -80 11 -179 20 -220 15 -72 27 -106 80
-230 15 -35 24 -75 24 -111 0 -31 3 -59 7 -63 4 -3 7 -14 8 -24 13 -156 57
-304 102 -350 7 -7 13 -17 13 -22 0 -14 85 -96 127 -124 25 -16 70 -30 133
-41 52 -9 113 -23 134 -31 91 -35 341 -1 424 56 23 17 46 30 51 30 14 0 116
105 146 150 44 66 50 78 90 157 19 39 48 85 63 101 104 113 167 240 222 448
26 102 15 189 -37 283 -98 178 -94 165 -87 256 8 94 -3 153 -43 230 -24 47
-26 63 -34 255 -4 113 -13 221 -19 240 -14 43 -16 54 -33 165 -19 122 -9 218
33 310 107 235 126 326 136 655 5 174 10 215 29 270 20 62 23 65 56 68 39 4
58 17 69 48 5 11 24 28 42 37 40 19 144 124 182 186 55 87 66 152 47 285 -7
55 -24 99 -78 205 l-68 134 -2 111 c-4 124 -15 192 -42 251 -77 165 -154 404
-196 609 -2 10 2 96 10 190 7 94 11 182 9 196 -4 20 1 30 25 48 17 12 31 29
31 36 0 8 4 16 9 18 12 4 116 223 142 298 26 74 65 233 73 296 8 66 -10 270
-30 348 -16 60 -21 130 -24 396 -2 165 -6 185 -35 204 -71 46 -174 -77 -285
-339 -26 -62 -78 -224 -85 -265 -13 -77 -64 -174 -155 -295 -82 -109 -90 -120
-122 -167 -26 -38 -62 -68 -83 -68 -3 0 -4 42 -3 93 0 50 -1 103 -5 117 -46
197 -61 257 -67 265 -4 6 -11 21 -15 35 -4 14 -13 32 -20 40 -6 8 -18 31 -25
50 -7 19 -30 55 -50 80 -20 25 -47 61 -60 80 -34 50 -121 140 -145 151 -11 5
-36 19 -55 31 -133 81 -188 97 -338 99 -98 2 -108 4 -124 25 -30 37 -134 101
-192 118 -39 12 -99 16 -218 16 -91 0 -168 -3 -171 -6z m113 -57 c14 -6 57
-37 97 -68 l72 -56 -66 -17 c-36 -9 -89 -27 -117 -40 l-51 -24 -75 77 c-41 42
-90 89 -109 104 l-35 27 50 0 c56 1 167 11 172 15 5 4 28 -3 62 -18z m315 -18
c33 -16 78 -40 99 -53 l39 -24 -44 -6 c-142 -17 -195 -17 -217 2 -11 10 -33
27 -47 38 -67 48 -94 72 -88 77 3 4 49 4 102 1 80 -4 106 -10 156 -35z m-582
-34 c57 -46 157 -153 157 -167 0 -5 -10 -12 -22 -17 -13 -5 -40 -23 -62 -40
-21 -17 -42 -31 -45 -31 -3 0 -31 25 -61 55 -29 30 -60 55 -67 55 -7 0 -13 5
-13 10 0 6 -8 13 -17 17 -10 3 -31 16 -48 28 -31 22 -171 92 -240 118 -38 15
-32 16 162 16 l201 1 55 -45z m-466 9 c144 -48 328 -153 411 -234 53 -53 62
-73 39 -87 -13 -9 -58 -60 -96 -111 -13 -18 -27 -32 -31 -32 -4 0 -19 22 -33
49 -33 60 -138 160 -198 188 -179 85 -224 104 -299 126 -47 14 -118 32 -159
38 -87 14 -84 16 74 53 186 43 193 43 292 10z m2824 -33 c4 -18 7 -89 8 -158
1 -135 -12 -205 -54 -296 -27 -57 -85 -229 -85 -251 0 -7 -15 -51 -34 -97 -71
-178 -132 -387 -139 -479 l-2 -35 -24 38 c-13 22 -27 64 -31 95 -6 55 -7 56
-18 30 -14 -34 0 -123 24 -149 9 -10 26 -37 38 -61 13 -24 40 -74 60 -113 38
-70 38 -70 32 -160 -21 -320 -21 -291 14 -451 32 -144 86 -311 137 -424 47
-102 51 -115 60 -160 5 -25 10 -94 12 -155 l2 -110 51 -100 c76 -151 75 -140
14 -140 -47 0 -58 -5 -121 -52 -110 -82 -151 -135 -192 -243 -34 -89 -30 -209
10 -288 l27 -52 -19 -43 c-34 -76 -36 -97 -46 -347 -3 -85 -8 -171 -11 -190
-16 -115 -31 -174 -66 -264 -98 -251 -100 -258 -101 -341 -1 -44 1 -98 5 -120
4 -22 11 -69 17 -105 6 -36 16 -81 21 -100 6 -19 15 -120 20 -225 8 -192 13
-224 36 -260 30 -47 46 -136 39 -211 -7 -73 4 -129 31 -164 6 -8 29 -49 51
-91 l40 -76 -42 1 c-71 2 -132 -63 -155 -164 -7 -30 -33 -101 -57 -158 -35
-80 -46 -120 -50 -177 -6 -71 -5 -75 23 -103 16 -16 36 -31 44 -34 12 -4 13
-8 2 -20 -6 -8 -28 -46 -49 -84 -92 -175 -148 -237 -233 -257 -118 -28 -192
-30 -319 -8 -69 11 -165 23 -212 25 -56 2 -94 8 -108 18 -34 24 -107 133 -132
196 -12 31 -33 68 -45 82 -23 23 -24 24 -24 4 0 -12 6 -34 14 -50 133 -278
146 -290 311 -295 39 -1 87 -6 107 -11 100 -22 245 -36 288 -28 60 12 66 12
55 1 -18 -17 -191 -48 -255 -45 -34 2 -83 10 -109 17 -25 8 -73 15 -106 15
-70 1 -145 20 -152 39 -3 7 -10 13 -16 13 -36 0 -157 184 -171 260 -3 19 -8
44 -10 55 -2 11 -9 61 -15 110 -19 142 -31 191 -63 268 -59 140 -69 191 -77
372 -7 134 -14 191 -34 268 -30 109 -35 122 -83 190 -19 26 -34 51 -34 56 0 5
-7 14 -16 21 -8 8 -21 27 -29 44 -8 17 -20 42 -28 56 -8 14 -20 36 -26 50 -7
14 -22 43 -35 65 -31 55 -36 81 -46 225 -5 69 -11 134 -14 145 -2 11 -27 111
-54 222 -27 111 -57 212 -66 224 -26 38 -29 52 70 -414 17 -84 24 -142 22
-198 l-3 -80 -115 111 c-64 62 -137 123 -165 137 -27 14 -62 32 -76 39 -31 16
-74 61 -172 176 -36 42 -54 75 -72 133 -13 42 -34 93 -47 113 -33 53 -65 135
-84 222 -13 57 -18 139 -20 345 -2 149 -9 351 -15 450 -12 193 -7 250 31 330
10 22 30 69 45 105 14 36 32 79 39 95 8 17 23 51 34 76 11 25 33 90 50 145 16
54 66 174 112 266 84 171 110 245 110 310 0 20 5 60 11 90 29 146 54 247 71
286 33 80 17 101 -19 24 -32 -70 -61 -161 -68 -216 -3 -27 -8 -53 -10 -56 -2
-4 -9 -49 -16 -101 -13 -113 -31 -163 -121 -339 -39 -74 -91 -198 -117 -275
-26 -77 -71 -192 -100 -255 -101 -221 -95 -198 -94 -365 2 -339 14 -795 23
-865 12 -100 40 -184 95 -285 25 -46 45 -94 45 -107 0 -68 150 -260 260 -333
37 -25 73 -45 79 -45 11 0 90 -67 196 -168 33 -31 75 -70 94 -86 l33 -28 -8
-182 c-14 -318 -10 -367 42 -481 7 -16 28 -64 47 -105 18 -41 43 -117 56 -168
12 -51 28 -110 36 -130 33 -87 119 -477 135 -612 5 -41 16 -111 25 -155 9 -44
18 -150 21 -235 3 -85 13 -189 21 -230 10 -45 17 -127 17 -205 1 -124 -1 -136
-38 -255 -21 -69 -43 -141 -47 -160 -21 -94 -95 -253 -176 -377 -18 -28 -33
-54 -33 -57 0 -13 -56 -124 -76 -151 -12 -16 -40 -67 -62 -112 -50 -105 -161
-235 -322 -378 -37 -34 -162 -115 -177 -115 -15 0 -102 -47 -157 -85 -35 -25
-75 -45 -89 -45 -49 0 -283 -133 -377 -213 -25 -22 -72 -52 -105 -69 -33 -16
-67 -36 -77 -44 -9 -9 -42 -22 -75 -30 -32 -9 -84 -27 -116 -41 -31 -14 -60
-23 -63 -20 -3 3 0 24 6 47 14 51 25 247 25 435 0 138 0 140 -23 143 -12 2
-24 -3 -26 -10 -3 -7 -7 -114 -10 -238 -7 -258 -6 -249 -51 -435 -32 -129 -54
-252 -90 -520 -8 -55 -26 -163 -40 -240 -47 -251 -49 -370 -10 -550 9 -44 19
-84 22 -89 3 -5 8 -23 9 -40 2 -17 8 -42 13 -56 5 -14 15 -50 21 -80 21 -99
81 -283 117 -360 64 -135 63 -130 67 -299 l4 -140 40 -73 c28 -51 44 -95 52
-143 8 -47 25 -96 53 -150 61 -115 103 -235 125 -355 19 -104 42 -198 89 -375
13 -49 44 -126 67 -170 74 -135 94 -178 116 -240 12 -33 28 -72 36 -87 8 -14
14 -35 14 -45 0 -10 4 -23 10 -29 20 -20 42 -256 37 -404 -4 -126 -10 -162
-41 -277 -37 -136 -76 -375 -76 -471 0 -61 20 -202 56 -397 25 -139 30 -179
39 -320 6 -100 33 -314 41 -327 3 -4 7 -31 9 -59 4 -53 27 -140 51 -196 8 -17
14 -34 14 -38 0 -15 83 -181 111 -223 16 -24 29 -47 29 -53 0 -5 4 -9 8 -9 5
0 36 -47 71 -104 107 -181 132 -310 101 -533 -13 -99 -13 -107 9 -200 36 -157
62 -206 156 -303 46 -47 101 -108 122 -136 21 -28 50 -66 65 -85 68 -85 103
-138 121 -184 l19 -50 -29 27 c-39 37 -131 68 -190 64 -37 -3 -53 1 -70 17
l-23 20 0 -20 c0 -17 -8 -21 -59 -26 -33 -4 -103 -23 -157 -43 -77 -29 -101
-34 -115 -26 -15 9 -18 8 -21 -9 -2 -15 -25 -29 -85 -54 -76 -31 -151 -70
-163 -85 -3 -4 -32 -25 -65 -47 -33 -23 -88 -68 -122 -101 -34 -33 -65 -57
-68 -54 -3 3 -5 42 -5 87 0 66 5 91 25 133 14 29 25 56 25 61 0 6 14 25 30 43
17 18 30 38 30 44 0 7 7 15 15 18 39 15 52 126 26 222 -34 126 -40 169 -34
247 6 97 -4 116 -90 168 l-53 31 4 72 c2 39 10 93 18 120 18 65 19 152 0 163
-9 5 -17 39 -22 98 -8 84 -7 140 11 485 10 180 -4 251 -95 500 -17 47 -39 103
-50 125 -10 22 -24 60 -31 85 -7 25 -16 50 -20 55 -3 6 -10 26 -14 45 -4 19
-15 51 -25 70 -51 100 -90 189 -90 206 -1 10 -9 37 -20 59 -11 22 -19 48 -20
57 0 16 -20 71 -73 208 -30 75 -94 194 -121 223 -73 79 -142 205 -151 274 -8
71 -25 181 -38 243 -6 30 -12 60 -13 67 -1 6 -17 58 -34 115 -18 57 -40 142
-50 190 -10 48 -21 92 -25 97 -3 6 5 16 19 22 14 7 32 26 40 43 16 34 50 165
61 236 4 25 19 88 33 140 24 87 26 109 25 265 -2 107 -8 201 -18 255 -17 88
-52 207 -66 225 -11 15 -56 154 -85 264 -14 51 -36 119 -51 150 -14 31 -38 92
-53 136 -58 167 -151 404 -217 555 -32 72 -166 282 -216 337 -29 31 -77 89
-107 129 -37 49 -86 96 -150 144 -115 88 -170 139 -170 160 0 9 -4 20 -10 26
-5 5 -11 18 -13 29 -4 23 -27 101 -69 240 -57 186 -78 245 -105 296 -33 60
-129 179 -145 179 -29 0 -168 132 -168 160 0 12 -9 29 -21 39 -17 13 -24 41
-40 153 -12 86 -32 174 -54 239 -19 57 -36 109 -38 114 -1 6 -5 15 -8 20 -4 6
-9 23 -13 39 -4 16 -22 52 -40 80 -18 28 -42 67 -53 86 -20 35 -37 57 -146
179 -68 77 -60 66 -124 161 -53 80 -69 107 -103 183 -12 26 -25 47 -30 47 -4
0 -13 27 -21 60 -7 33 -17 60 -21 60 -4 0 -8 7 -8 17 0 9 -2 14 -5 11 -21 -20
70 -260 141 -369 24 -38 44 -72 44 -75 0 -8 68 -91 105 -129 32 -33 155 -192
155 -200 0 -3 11 -23 25 -44 13 -22 33 -66 44 -98 11 -32 27 -76 37 -98 26
-62 54 -181 66 -285 6 -52 16 -112 24 -132 15 -42 17 -40 -66 -57 -25 -5 -70
-17 -100 -26 -30 -9 -82 -23 -115 -31 -33 -8 -74 -21 -92 -30 -17 -8 -53 -17
-80 -20 -26 -3 -84 -15 -128 -26 -43 -11 -91 -21 -105 -23 -14 -2 -70 -19
-125 -38 -157 -55 -182 -60 -325 -62 -110 -2 -157 2 -254 21 -65 13 -137 24
-160 24 -23 0 -56 4 -73 9 -18 5 -70 10 -115 12 -46 1 -150 10 -233 21 -82 11
-161 21 -175 23 -14 1 -55 6 -92 10 -38 4 -73 13 -79 21 -9 11 -15 11 -25 3
-17 -14 -58 -5 -122 26 -64 31 -143 53 -217 60 -33 3 -82 8 -110 10 -81 8
-125 15 -222 36 -51 10 -107 19 -125 19 -38 0 -214 41 -274 63 -22 9 -67 19
-100 22 -32 4 -63 10 -69 13 -5 3 -52 13 -105 22 -52 10 -160 34 -239 55 -185
49 -244 82 -406 230 -104 94 -215 185 -227 185 -5 0 -24 11 -41 24 -49 37
-355 196 -377 196 -20 0 -66 35 -115 89 -27 30 -61 64 -75 77 -76 66 -129 111
-150 124 -12 8 -30 22 -39 31 -9 9 -41 32 -71 51 -30 19 -66 47 -79 62 -14 14
-29 26 -36 26 -6 0 -26 14 -45 32 -19 17 -47 39 -63 48 -25 16 -26 18 -10 25
31 13 -32 25 -101 19 -63 -5 -70 -7 -147 -42 -60 -29 -165 -154 -220 -264 -23
-46 -60 -108 -82 -138 -33 -45 -146 -180 -167 -200 -3 -3 -34 -42 -68 -87 -34
-45 -84 -106 -111 -135 -53 -57 -127 -148 -150 -182 -8 -11 -22 -33 -32 -48
-10 -14 -27 -58 -37 -96 -11 -41 -35 -94 -59 -128 -77 -114 -143 -209 -151
-220 -38 -45 -102 -152 -153 -256 -34 -68 -76 -152 -95 -188 -20 -36 -49 -94
-65 -130 -17 -36 -54 -114 -84 -175 -30 -60 -66 -141 -81 -180 -34 -90 -88
-193 -116 -225 -13 -14 -39 -46 -58 -70 -58 -75 -64 -82 -96 -114 -64 -65 -95
-128 -115 -236 -34 -185 -51 -242 -119 -384 -69 -144 -78 -185 -83 -376 -4
-147 -16 -255 -47 -415 -7 -34 -40 -99 -100 -200 -64 -107 -98 -175 -116 -235
-15 -47 -30 -89 -33 -95 -4 -5 -24 -54 -45 -107 -21 -53 -58 -132 -83 -175
-62 -109 -100 -227 -123 -384 -11 -74 -24 -163 -29 -199 -6 -36 -11 -87 -11
-115 0 -47 -8 -124 -44 -400 -8 -60 -31 -195 -51 -300 -51 -269 -48 -332 37
-660 14 -54 4 -187 -22 -315 -18 -88 -21 -123 -16 -217 7 -121 39 -262 74
-328 23 -43 76 -105 91 -105 10 0 134 -129 173 -180 61 -82 99 -180 123 -323
7 -42 9 -42 -53 0 -18 12 -63 31 -100 43 -59 18 -78 20 -162 12 -83 -8 -270
-7 -323 2 -34 5 -137 -13 -170 -30 -115 -59 -189 -165 -189 -272 0 -31 -1 -32
-18 -17 -9 8 -25 33 -35 55 -15 33 -16 47 -7 87 17 76 40 153 57 188 29 62 51
235 43 343 -11 156 -48 348 -84 442 -13 35 -17 75 -16 185 0 160 10 209 77
400 25 72 53 153 61 180 9 28 30 82 49 120 46 98 131 341 160 455 54 214 84
745 51 905 -25 122 -34 150 -61 179 -30 33 -79 35 -111 5 -27 -25 -27 -24 -44
94 -16 111 -2 418 27 572 8 44 21 114 28 155 7 41 22 102 33 135 11 33 25 83
31 110 7 28 43 124 81 215 89 217 123 326 136 445 2 22 8 67 14 100 32 203 44
305 55 479 3 49 12 135 20 190 8 56 18 155 21 221 3 66 12 158 20 204 8 46 14
111 14 145 0 58 31 345 65 596 16 124 10 233 -19 300 -8 19 -19 64 -25 100 -7
36 -21 105 -32 153 -42 187 -51 351 -35 647 4 64 47 411 66 520 5 30 14 98 20
150 12 105 35 272 49 365 29 183 47 444 57 800 3 127 8 262 10 300 7 98 13
170 14 170 1 0 3 41 4 90 2 55 11 115 24 155 11 36 28 92 37 125 10 33 30 85
45 115 54 107 155 370 179 465 5 22 12 69 16 105 12 132 24 191 49 246 14 31
26 60 26 64 0 4 16 34 35 66 19 32 35 65 35 75 0 9 13 41 29 71 16 29 36 77
44 105 14 46 53 126 96 193 19 30 62 78 196 217 55 58 109 119 120 137 60 96
127 174 245 286 131 124 205 174 305 209 22 7 47 19 55 26 8 7 89 51 180 97
206 105 350 152 510 164 36 3 88 9 115 14 28 5 109 7 180 4 230 -8 303 -5 476
22 89 13 151 16 303 11 105 -3 204 -10 220 -16 16 -7 109 -13 210 -15 233 -5
317 -13 391 -38 38 -13 96 -21 160 -24 120 -5 175 -11 224 -24 20 -5 88 -12
151 -14 63 -3 147 -9 185 -15 39 -5 88 -10 110 -9 22 0 87 -3 145 -6 58 -3
148 -9 200 -12 82 -4 255 7 340 22 14 2 86 3 160 2 74 -2 261 -2 415 -2 260 2
285 3 345 24 65 22 161 70 255 129 28 17 61 35 75 41 13 6 43 26 65 44 43 35
150 108 175 119 8 4 33 21 55 37 61 46 155 114 174 125 40 24 127 81 141 92
33 27 104 79 123 90 11 6 22 15 26 20 12 16 77 60 166 112 111 64 126 73 142
87 6 6 45 28 85 49 40 21 117 67 171 104 54 36 113 74 130 85 18 10 62 38 98
61 36 24 85 53 109 65 35 18 146 103 245 189 6 5 57 60 115 122 58 63 128 139
157 169 55 58 70 77 181 230 105 145 139 203 214 360 114 238 130 269 144 281
8 6 14 16 14 22 0 5 21 35 48 66 26 31 58 69 72 86 112 133 309 304 485 421
115 77 199 135 205 144 9 12 113 66 170 88 84 32 153 41 295 36 332 -10 422
-14 446 -19 14 -3 61 -7 105 -10 296 -18 434 -32 484 -50 23 -8 44 -14 48 -13
7 1 17 -2 96 -33 27 -10 58 -19 70 -19 51 -1 52 -10 11 -147 l-39 -128 2 -172
c2 -158 0 -180 -23 -259 -28 -96 -26 -137 7 -179 21 -27 62 -33 89 -12 9 7 26
31 37 54 12 23 29 46 37 51 45 25 58 167 24 260 -95 256 -102 295 -75 385 16
54 95 192 131 231 14 15 25 30 25 34 0 4 16 31 35 59 19 29 35 57 35 63 0 5 4
10 8 10 5 0 18 17 29 38 24 40 230 250 278 282 17 11 39 20 50 20 18 0 18 -1
-3 -15 -21 -15 -94 -122 -128 -186 -38 -75 -77 -209 -77 -269 0 -14 -4 -80 -8
-146 -10 -147 -28 -200 -110 -324 -99 -152 -108 -198 -49 -255 33 -32 83 -37
109 -11 14 15 12 16 -22 16 -44 0 -87 35 -87 71 0 31 43 118 80 159 45 51 99
169 110 236 5 33 12 113 15 179 4 66 11 136 17 155 47 154 123 293 191 348 23
19 43 30 44 25 2 -5 -8 -40 -22 -76 -30 -82 -31 -135 -4 -247 43 -175 56 -247
62 -330 4 -72 1 -97 -19 -160 -13 -41 -37 -96 -53 -122 -33 -52 -102 -102
-143 -104 -31 -1 -58 -20 -58 -41 0 -12 11 -14 49 -10 77 7 151 61 199 144 42
71 72 173 72 245 l0 60 28 -6 c15 -4 39 -16 54 -26 15 -11 30 -20 33 -20 7 0
189 -76 230 -97 57 -28 155 -54 192 -50 44 5 99 48 145 115 17 26 34 49 37 52
4 3 39 49 78 102 78 104 147 238 156 303 14 93 88 284 185 473 20 40 89 105
105 99 6 -2 15 -18 18 -36z m-3240 -56 c164 -25 210 -40 394 -130 162 -79 223
-129 278 -227 32 -56 33 -81 7 -133 -28 -55 -26 -68 9 -60 32 7 38 -2 37 -55
-1 -39 -15 -44 -89 -34 -30 5 -40 12 -48 32 -23 64 -71 136 -126 189 -95 91
-369 179 -588 188 -97 4 -320 -8 -380 -21 l-30 -6 25 18 c14 10 27 21 30 24
26 34 341 223 381 229 3 1 48 -6 100 -14z m1906 -33 c77 -25 268 -153 289
-194 8 -15 19 -28 24 -28 6 0 10 -6 10 -12 0 -7 16 -31 35 -53 40 -45 135
-235 158 -315 30 -105 53 -281 42 -329 -5 -25 -12 -31 -33 -31 -15 0 -32 4
-38 8 -7 4 -17 50 -24 102 -7 52 -23 121 -36 154 -13 32 -26 74 -30 92 -3 19
-10 34 -15 34 -5 0 -9 6 -9 13 0 19 -85 157 -152 247 -61 81 -98 118 -141 140
-15 7 -39 29 -53 47 -27 35 -58 42 -96 22 -15 -8 -22 -8 -28 0 -13 21 -114 81
-147 87 -18 4 -61 4 -96 1 -111 -9 -104 -7 -282 -87 -22 -10 -51 -21 -65 -25
-14 -4 -50 -24 -80 -44 -30 -21 -80 -49 -110 -63 -65 -29 -187 -108 -236 -150
-19 -17 -37 -28 -41 -25 -8 9 31 58 137 170 86 91 100 102 205 152 100 48 126
56 241 74 71 11 170 24 219 28 104 9 305 1 352 -15z m-222 -72 c22 -12 50 -27
63 -34 l23 -13 -38 -29 c-21 -16 -57 -46 -81 -68 l-43 -39 -52 23 c-29 12 -61
27 -72 31 -41 18 -141 49 -158 49 -34 0 -12 21 48 46 128 54 244 67 310 34z
m-323 -133 c21 -7 41 -16 44 -20 4 -4 13 -7 20 -7 7 0 42 -14 79 -30 l67 -30
-48 -53 c-67 -71 -87 -76 -135 -29 -50 50 -69 60 -142 77 -46 11 -78 12 -118
6 -65 -11 -235 -88 -290 -132 -48 -38 -58 -35 -20 6 28 30 47 43 111 77 19 10
56 32 82 48 27 16 73 36 103 44 30 8 72 23 93 34 43 24 101 27 154 9z m650
-34 c45 -43 188 -240 188 -260 0 -5 11 -30 25 -56 52 -97 121 -344 102 -363
-3 -3 -25 3 -49 14 -23 11 -53 23 -65 26 -17 5 -23 15 -23 34 0 30 -28 110
-64 181 -42 83 -179 273 -203 282 -25 9 -30 40 -14 81 24 62 44 108 48 108 2
0 27 -21 55 -47z m-2029 -3 c29 -5 68 -11 87 -14 19 -4 44 -10 55 -15 11 -4
45 -16 75 -25 67 -20 154 -58 158 -68 2 -5 8 -8 14 -8 10 0 91 -60 96 -72 2
-3 12 -17 24 -30 22 -26 58 -92 58 -107 0 -12 -85 -9 -239 9 -91 11 -107 15
-124 36 -23 29 -78 59 -157 84 -116 37 -174 43 -343 36 -204 -8 -244 -12 -396
-42 -68 -13 -126 -23 -128 -20 -9 9 178 166 241 201 60 35 444 58 579 35z
m1208 -158 c112 -138 163 -232 126 -232 -8 0 -31 -25 -51 -55 l-38 -54 -41 16
c-46 19 -59 32 -114 113 -20 30 -63 87 -94 126 l-58 72 60 27 c72 32 140 53
154 48 6 -3 31 -30 56 -61z m94 42 c58 -28 125 -93 125 -122 0 -9 -12 -35 -26
-56 l-26 -38 -24 36 c-13 19 -24 38 -24 41 0 7 -44 63 -99 126 l-33 39 26 0
c14 0 50 -12 81 -26z m1994 -164 c1 -8 -17 -33 -38 -55 -43 -46 -65 -86 -126
-230 -54 -128 -98 -212 -89 -170 4 17 22 73 41 125 19 52 48 138 64 190 54
177 60 195 87 258 l26 64 17 -84 c10 -45 18 -90 18 -98z m-1281 -3 c39 -62 81
-129 91 -149 29 -59 65 -167 58 -174 -4 -4 -34 7 -67 25 -34 17 -65 29 -70 26
-15 -10 -40 26 -40 58 0 18 -16 92 -35 166 -55 211 -47 217 63 48z m-2026 49
c10 -1 21 -5 24 -9 4 -4 15 -7 24 -7 19 0 140 -58 140 -67 0 -3 -73 -3 -162 1
-189 9 -161 9 -313 2 -66 -3 -151 -12 -190 -20 -38 -8 -95 -18 -125 -21 -200
-23 -355 -61 -453 -112 -86 -45 -96 -48 -66 -17 15 14 48 43 73 63 25 20 72
58 106 84 45 37 72 50 112 57 50 9 66 12 128 25 51 11 73 14 168 25 178 21
391 26 457 12 33 -7 68 -14 77 -16z m965 -18 c22 -29 61 -83 87 -120 l47 -67
-68 20 c-37 11 -99 25 -138 31 -38 5 -75 15 -81 21 -16 17 -25 107 -10 108 6
0 31 13 56 29 25 16 50 29 56 29 6 1 29 -23 51 -51z m2355 -170 c6 -124 -31
-316 -88 -451 -54 -130 -139 -287 -154 -287 -4 0 -18 17 -31 38 -43 72 -27
202 40 329 17 32 60 126 96 208 63 144 108 225 126 225 4 0 9 -28 11 -62z
m-3797 30 c-22 -11 -65 -40 -95 -63 -104 -80 -235 -162 -295 -185 -33 -13 -64
-28 -69 -32 -6 -4 -17 -8 -25 -8 -9 -1 -34 -9 -56 -20 -22 -11 -44 -19 -48
-20 -9 0 -53 -19 -122 -52 -45 -22 -60 -30 -130 -74 -102 -63 -100 -64 -58 17
21 39 43 79 48 88 42 67 69 101 80 101 7 0 24 11 38 25 61 62 241 156 333 175
27 5 72 14 99 20 28 6 106 17 174 24 68 8 126 17 129 20 3 3 12 6 21 6 9 -1
-2 -10 -24 -22z m-7572 -89 c29 -12 77 -31 107 -44 30 -13 91 -35 135 -49 79
-26 168 -72 250 -127 24 -16 47 -29 51 -29 5 0 21 -10 35 -23 15 -12 44 -33
65 -46 38 -24 98 -93 138 -156 10 -16 21 -32 25 -35 3 -3 28 -39 56 -80 27
-41 58 -83 67 -93 10 -10 18 -22 18 -27 0 -5 19 -36 42 -69 23 -33 40 -63 37
-65 -2 -2 -41 31 -87 75 -45 43 -87 79 -92 79 -6 0 -10 5 -10 10 0 6 -5 10
-11 10 -6 0 -38 21 -71 48 -33 26 -73 57 -89 68 -17 12 -44 35 -62 51 -18 16
-59 44 -92 62 -90 51 -159 93 -170 105 -38 43 -202 128 -325 169 -172 58 -320
76 -428 52 -42 -9 -108 -24 -147 -32 -80 -18 -150 -55 -285 -153 -52 -37 -97
-67 -99 -65 -5 5 76 93 174 190 79 78 94 87 240 151 71 31 132 42 246 43 62 1
115 3 116 5 10 9 123 -7 166 -25z m-213 -160 c25 -5 59 -12 75 -15 107 -19
293 -91 369 -142 22 -16 76 -54 120 -85 43 -31 82 -57 87 -57 19 0 146 -85
189 -127 25 -23 51 -43 57 -43 6 0 13 -4 15 -9 2 -4 41 -35 88 -69 94 -67 180
-143 180 -161 0 -6 4 -11 9 -11 5 0 37 -32 71 -71 34 -40 100 -104 148 -144
48 -40 105 -90 127 -110 22 -20 62 -55 89 -78 26 -23 63 -56 81 -74 18 -17 51
-44 72 -60 21 -15 45 -34 53 -41 48 -40 319 -232 330 -232 4 0 10 -4 12 -8 4
-11 139 -102 193 -131 109 -59 230 -138 345 -228 30 -23 71 -54 90 -68 19 -14
63 -47 97 -73 35 -26 74 -55 89 -66 32 -23 24 -30 -50 -50 -46 -11 -98 -14
-223 -11 l-163 4 -43 43 c-24 24 -100 89 -170 146 -69 57 -188 165 -265 240
-347 342 -453 444 -542 516 -52 43 -120 102 -151 131 -47 44 -175 140 -240
180 -8 6 -42 28 -75 50 -32 22 -68 45 -79 51 -11 6 -29 15 -40 21 -11 6 -49
26 -85 44 -36 17 -106 55 -155 83 -89 50 -221 118 -280 143 -327 139 -351 145
-561 137 -126 -5 -150 -8 -220 -35 -44 -17 -108 -40 -144 -50 -36 -11 -74 -24
-85 -30 -11 -5 -29 -11 -40 -13 -41 -8 -109 -51 -167 -105 -62 -59 -94 -107
-124 -188 -9 -26 -21 -52 -24 -58 -30 -43 -66 -312 -59 -443 1 -20 -1 -56 -5
-80 -5 -28 -4 -47 4 -57 9 -11 8 -20 -7 -42 -11 -15 -23 -37 -27 -48 -17 -46
-25 17 -21 151 3 77 7 232 10 347 l5 207 41 108 c22 59 52 137 65 174 14 36
44 102 67 145 34 63 51 84 90 108 61 38 216 140 285 188 50 35 105 56 162 63
14 2 61 12 105 23 89 22 158 25 225 10z m7305 -89 c-4 -6 -23 -21 -43 -34 -21
-13 -77 -63 -127 -111 -137 -134 -175 -166 -265 -220 -45 -27 -105 -65 -133
-84 l-50 -33 28 48 c15 27 46 82 69 123 22 40 52 81 66 90 14 8 27 18 30 21 6
7 55 37 115 70 104 59 146 80 157 80 6 0 34 11 62 24 81 37 102 43 91 26z
m2227 -276 c33 -87 38 -111 37 -175 -1 -65 -5 -76 -28 -99 -14 -15 -37 -43
-51 -63 -14 -20 -29 -37 -35 -37 -43 1 -50 61 -19 152 16 45 19 80 17 243 l-2
190 21 -55 c11 -30 38 -100 60 -156z m-9357 -102 c93 -44 98 -46 185 -82 107
-44 311 -141 335 -160 24 -19 99 -59 205 -109 54 -26 74 -38 121 -73 20 -16
42 -28 48 -28 6 0 11 -4 11 -10 0 -5 24 -22 53 -36 47 -24 236 -168 262 -199
6 -7 44 -41 85 -75 85 -70 188 -168 470 -444 203 -199 379 -357 464 -416 28
-18 45 -35 38 -38 -6 -2 -46 5 -89 16 -43 11 -85 20 -93 20 -24 -1 -171 31
-220 47 -30 10 -68 37 -112 80 -70 67 -250 215 -262 215 -3 0 -40 27 -81 60
-67 53 -183 134 -238 167 -11 6 -22 15 -26 20 -3 5 -22 20 -41 33 -19 14 -44
32 -54 42 -11 10 -23 18 -27 18 -5 0 -28 14 -52 30 -25 17 -50 30 -56 30 -6 0
-11 4 -11 9 0 5 -8 11 -17 15 -10 3 -25 10 -33 16 -37 25 -171 100 -179 100
-5 0 -11 4 -13 8 -9 23 -176 107 -283 144 -60 21 -117 43 -145 58 -9 4 -31 11
-49 15 -18 4 -53 16 -76 26 -24 11 -81 24 -127 30 -46 5 -136 21 -201 34 -129
27 -224 31 -375 14 -146 -16 -163 -26 -365 -216 -71 -66 -134 -158 -157 -229
-12 -34 -28 -68 -37 -76 -15 -11 -16 -11 -9 7 5 11 12 76 17 145 21 319 18
300 83 446 35 78 57 111 103 157 69 70 168 124 243 132 20 3 108 33 145 51 83
39 108 42 300 40 l190 -2 70 -32z m6734 -21 c-63 -86 -83 -121 -133 -231 -41
-90 -67 -134 -94 -158 -20 -19 -50 -46 -67 -61 -16 -15 -56 -46 -87 -69 -32
-24 -58 -47 -58 -52 0 -6 -5 -10 -11 -10 -7 0 -22 -10 -34 -22 -12 -13 -39
-39 -60 -58 l-39 -35 23 35 c12 19 36 62 54 94 39 71 42 77 88 146 20 30 56
91 79 134 55 101 121 166 245 243 55 34 102 62 104 63 2 0 -3 -8 -10 -19z
m-7052 -450 c400 -69 419 -74 553 -128 47 -19 119 -46 160 -60 41 -14 87 -32
102 -39 15 -8 30 -13 32 -12 2 2 15 -6 28 -18 19 -18 128 -83 178 -107 8 -4
40 -23 70 -41 30 -19 84 -51 119 -71 35 -19 98 -61 140 -93 42 -31 119 -85
171 -119 52 -34 102 -68 110 -75 38 -33 111 -89 175 -133 39 -27 84 -61 100
-76 17 -16 53 -48 80 -73 l50 -46 -91 1 c-86 1 -97 3 -170 41 -105 53 -198 83
-409 133 -60 14 -144 35 -185 46 -41 12 -128 31 -192 45 -65 13 -137 31 -160
39 -24 9 -47 17 -53 18 -5 2 -36 13 -67 25 -32 12 -84 32 -115 44 -32 12 -69
30 -82 40 -13 10 -28 18 -33 18 -4 0 -27 12 -51 27 -23 14 -67 40 -97 56 -30
17 -91 53 -135 82 -96 62 -112 70 -241 133 -90 44 -123 55 -199 69 -11 1 -67
3 -125 2 -58 0 -116 0 -130 0 -37 0 -112 -37 -139 -70 -13 -16 -30 -29 -38
-29 -8 0 -12 -4 -8 -9 5 -9 -53 -31 -82 -31 -40 0 25 103 127 200 198 189 214
199 328 206 42 3 77 6 78 7 8 7 153 6 201 -2z m6799 -25 c-14 -55 -242 -370
-350 -484 -40 -43 -90 -96 -111 -120 -43 -48 -54 -49 -32 0 9 18 27 66 40 105
28 81 59 139 108 198 49 59 167 175 224 220 27 22 65 55 85 72 42 39 44 39 36
9z m-7009 -301 c96 -18 261 -94 398 -183 39 -26 90 -57 115 -70 25 -13 90 -50
145 -82 55 -33 134 -73 175 -90 41 -17 84 -35 95 -39 48 -21 146 -51 215 -66
41 -9 165 -39 275 -67 110 -27 229 -56 265 -64 122 -27 289 -88 290 -105 0 -6
-49 -12 -190 -24 -254 -22 -472 -22 -558 -1 -31 8 -75 17 -97 21 -79 14 -134
34 -270 102 -55 28 -111 54 -125 58 -14 4 -45 23 -69 41 -24 19 -52 34 -61 34
-23 0 -194 82 -250 119 -24 17 -65 49 -90 72 -77 72 -202 158 -280 195 -41 19
-86 41 -100 49 -112 63 -144 76 -181 74 -57 -5 -48 14 13 26 86 18 192 17 285
0z m-321 -107 c3 -13 23 -59 44 -103 21 -44 63 -141 95 -215 31 -74 63 -150
71 -168 8 -18 14 -37 14 -43 0 -21 56 -127 115 -219 34 -52 71 -113 82 -135
55 -107 95 -180 113 -202 11 -14 20 -32 20 -39 0 -7 6 -17 13 -21 6 -4 35 -40
62 -80 73 -106 87 -125 119 -158 15 -16 35 -42 44 -57 9 -15 38 -46 65 -70
127 -112 142 -127 132 -137 -5 -5 -54 -15 -108 -21 l-99 -12 -77 80 c-89 92
-204 249 -251 343 -18 35 -40 75 -50 89 -51 72 -213 394 -255 505 -36 97 -56
158 -136 415 -28 91 -57 182 -65 203 -18 48 -18 46 9 57 32 13 35 12 43 -12z
m107 -5 c20 -16 47 -35 60 -45 13 -9 34 -38 48 -65 14 -26 45 -84 69 -128 23
-43 68 -129 98 -190 70 -139 199 -333 316 -475 21 -25 52 -63 69 -84 72 -88
105 -125 182 -202 44 -44 107 -113 140 -152 77 -93 320 -282 361 -282 8 0 14
-4 14 -10 0 -6 -72 -8 -197 -5 l-198 5 -69 63 c-115 104 -150 140 -192 191
-21 28 -49 61 -62 75 -12 13 -32 41 -44 60 -12 20 -31 48 -42 62 -12 14 -27
35 -34 45 -60 91 -97 155 -146 248 -31 60 -71 129 -89 155 -53 74 -86 135
-132 249 -64 160 -128 307 -174 404 -22 48 -41 92 -41 97 0 19 26 12 63 -16z
m-182 -87 c11 -39 29 -91 39 -116 10 -25 21 -61 25 -80 14 -70 86 -297 126
-397 25 -64 110 -248 142 -308 30 -57 109 -200 153 -275 27 -47 58 -103 69
-124 11 -21 30 -48 42 -60 13 -11 23 -24 23 -28 0 -12 28 -45 109 -130 l74
-77 -94 5 c-52 2 -128 6 -169 8 -41 2 -108 -1 -148 -7 l-74 -10 -48 50 c-42
44 -99 133 -86 133 3 0 -2 19 -10 43 -35 98 -57 266 -56 432 0 66 -8 201 -18
300 -11 99 -21 203 -24 231 -7 80 -63 276 -106 370 -43 92 -47 110 -27 117 25
9 38 -7 58 -77z m-110 27 c6 -16 23 -55 39 -88 27 -56 54 -137 85 -260 16 -62
24 -111 30 -195 5 -64 10 -109 21 -180 3 -19 7 -102 9 -185 5 -231 28 -411 67
-520 34 -98 45 -118 83 -154 19 -19 35 -37 35 -41 0 -4 -31 -12 -68 -18 -86
-14 -238 -57 -274 -77 -36 -20 -41 -19 -56 13 -89 186 -124 330 -127 517 -1
77 4 194 11 260 7 66 17 165 23 220 6 55 24 168 39 252 22 118 29 186 31 309
1 87 5 162 7 166 11 17 35 7 45 -19z m544 -81 c108 -74 132 -98 165 -163 24
-46 98 -151 120 -169 3 -3 26 -30 50 -60 132 -163 232 -269 424 -445 60 -55
116 -107 125 -115 9 -8 41 -33 71 -55 55 -40 97 -74 131 -107 10 -9 44 -38 76
-64 32 -26 72 -60 88 -75 114 -103 191 -169 200 -169 5 -1 37 -25 69 -55 l60
-54 -178 4 -178 3 -31 30 c-18 17 -70 53 -117 81 -91 55 -199 130 -229 160 -9
9 -42 47 -72 82 -30 35 -108 117 -172 183 -64 65 -117 121 -117 125 0 5 -15
23 -32 42 -61 64 -103 114 -133 154 -17 22 -32 42 -35 45 -3 3 -28 39 -55 80
-27 41 -52 77 -55 80 -19 16 -76 111 -133 226 -35 72 -83 160 -105 197 -22 37
-43 76 -47 87 -9 28 13 19 110 -48z m-634 -54 c-2 -133 -9 -225 -20 -262 -15
-47 -28 -127 -46 -271 -8 -71 -20 -164 -26 -205 -27 -204 -22 -476 11 -585 45
-143 85 -255 92 -255 4 0 8 -6 8 -14 0 -8 5 -16 12 -18 7 -3 -30 -26 -81 -52
-114 -58 -103 -65 -200 129 -55 110 -65 165 -66 340 0 124 5 174 28 290 15 77
32 167 38 200 6 33 26 106 45 163 19 57 34 110 34 119 0 8 14 47 31 86 25 56
33 92 40 174 6 85 13 114 38 163 37 73 54 100 59 95 2 -2 4 -46 3 -97z m879
-139 c13 -14 103 -69 137 -84 36 -16 95 -44 173 -85 19 -10 57 -28 83 -41 27
-13 75 -49 106 -79 95 -90 197 -184 225 -205 90 -69 248 -215 446 -414 184
-185 244 -236 395 -331 48 -30 113 -79 144 -107 l56 -53 -87 0 c-48 0 -98 4
-113 10 -14 5 -36 12 -48 14 -69 12 -108 30 -148 67 -48 45 -161 137 -196 161
-12 8 -51 41 -85 74 -35 32 -79 71 -98 86 -19 14 -51 41 -71 60 -65 59 -93 82
-149 123 -142 101 -447 391 -590 560 -41 48 -101 118 -133 153 -63 71 -107
141 -71 112 10 -8 21 -17 24 -21z m2960 -219 c41 -12 84 -26 95 -30 19 -8 160
-33 249 -45 22 -3 42 -7 44 -10 5 -4 -111 -59 -172 -81 -32 -12 -43 -12 -57
-2 -169 122 -270 200 -254 195 11 -3 54 -16 95 -27z m-2240 -138 c47 -17 114
-36 150 -42 55 -11 164 -59 180 -80 3 -4 37 -28 75 -53 78 -52 193 -146 322
-264 46 -42 98 -89 116 -103 17 -14 72 -65 121 -114 85 -82 164 -146 183 -146
13 0 146 -131 177 -173 16 -21 44 -55 64 -74 l36 -36 -112 7 c-155 9 -166 12
-224 67 -29 27 -53 49 -54 49 -1 0 -19 16 -40 35 -21 19 -42 35 -46 35 -8 0
-146 88 -158 100 -11 11 -140 110 -144 110 -2 0 -35 32 -72 71 -95 97 -234
231 -329 319 -44 40 -89 83 -101 94 -11 12 -68 58 -125 103 -57 45 -117 95
-133 112 l-29 31 29 -9 c16 -5 67 -23 114 -39z m682 -84 c15 -19 160 -178 203
-223 17 -17 43 -41 59 -53 58 -44 173 -150 266 -243 80 -82 191 -174 332 -276
65 -48 248 -221 248 -235 0 -5 -21 -6 -47 -3 -27 2 -95 7 -153 11 -73 4 -107
10 -113 19 -4 8 -28 36 -52 63 -25 28 -59 67 -75 89 -55 70 -104 115 -187 169
-45 30 -117 89 -160 130 -43 42 -98 92 -123 113 -25 20 -67 57 -95 82 -27 25
-70 64 -95 85 -25 21 -47 42 -50 45 -15 18 -121 99 -130 99 -5 0 -10 3 -10 8
0 4 -41 34 -90 66 -50 33 -86 62 -81 65 5 3 84 6 175 6 142 0 167 -2 178 -17z
m10306 -127 c41 -41 54 -123 32 -200 -12 -43 -62 -120 -67 -104 -3 7 3 23 11
35 23 32 20 68 -9 110 -28 41 -66 55 -108 39 -33 -13 -33 -11 -1 40 31 50 85
107 101 108 6 1 25 -12 41 -28z m-154 -23 c-5 -7 -19 -29 -32 -48 -42 -61
-101 -187 -108 -228 -10 -65 12 -147 49 -178 30 -25 30 -27 12 -40 -25 -19
-39 -18 -56 4 -48 59 -62 116 -48 202 14 88 58 173 125 243 55 55 73 70 58 45z
m78 -145 c36 -43 -9 -215 -68 -260 -64 -48 -104 -13 -104 90 1 86 40 152 105
175 43 15 50 14 67 -5z m-238 -2987 c28 -24 29 -26 23 -93 -3 -37 -16 -97 -27
-133 -29 -84 -114 -262 -137 -282 -30 -28 -67 -31 -93 -10 -23 19 -24 21 -12
93 6 41 18 88 26 104 33 69 65 154 77 210 11 46 23 69 52 97 43 44 52 45 91
14z m-10420 -3185 c39 -22 82 -46 96 -53 14 -7 37 -21 52 -31 15 -10 45 -28
66 -40 81 -44 179 -117 262 -192 127 -117 204 -178 255 -205 26 -14 61 -33 78
-42 18 -9 42 -17 53 -18 12 0 40 -7 63 -15 22 -8 41 -12 41 -8 0 3 6 1 13 -5
6 -5 32 -13 57 -17 25 -4 53 -11 62 -16 9 -5 49 -13 90 -19 40 -5 82 -14 93
-19 11 -5 56 -16 100 -24 44 -8 118 -27 163 -41 46 -14 123 -30 170 -37 48 -6
112 -17 142 -24 52 -12 108 -20 338 -45 87 -10 178 -37 247 -74 17 -9 37 -16
45 -16 41 -1 42 -15 10 -96 -18 -43 -52 -117 -75 -164 -24 -47 -88 -173 -142
-280 -92 -183 -174 -314 -284 -455 -47 -60 -149 -223 -149 -238 0 -20 -124
-190 -191 -262 -35 -37 -69 -80 -168 -210 -101 -134 -150 -256 -166 -415 -14
-148 -50 -291 -137 -542 -63 -185 -69 -318 -23 -495 43 -166 106 -307 215
-483 28 -47 66 -110 83 -140 16 -30 46 -79 66 -109 20 -29 44 -66 53 -80 10
-14 26 -42 36 -61 47 -86 103 -170 154 -230 8 -9 25 -36 40 -61 15 -25 77 -97
139 -160 132 -135 264 -285 341 -389 81 -108 122 -207 133 -321 4 -35 14 -80
22 -98 15 -34 15 -81 -1 -296 -2 -22 3 -85 11 -140 10 -80 22 -117 55 -185 42
-87 106 -185 157 -241 75 -81 161 -356 161 -511 l0 -58 -27 10 c-16 6 -37 14
-48 19 -29 13 -184 58 -230 67 -47 9 -46 9 -65 16 -33 13 -218 58 -235 58 -10
0 -24 8 -32 18 -10 11 -16 13 -19 5 -6 -13 -33 -10 -149 12 -38 8 -133 16
-210 20 -77 3 -144 10 -149 15 -23 23 39 142 121 228 24 26 56 66 71 89 15 24
34 43 43 43 9 0 22 6 28 14 17 20 -2 52 -59 102 -25 21 -52 47 -60 57 -45 56
-62 78 -105 141 -71 104 -141 261 -206 461 -17 55 -46 136 -64 180 -18 44 -47
123 -65 175 -19 52 -41 106 -50 120 -9 14 -28 43 -42 65 -35 53 -68 94 -158
190 -122 130 -320 391 -320 423 0 5 -6 15 -14 21 -8 7 -17 24 -21 39 -4 15
-10 29 -14 32 -4 3 -16 23 -28 45 -51 99 -76 151 -83 170 -16 45 -187 375
-199 385 -3 3 -22 36 -41 73 -19 38 -44 79 -55 91 -11 12 -39 47 -62 77 -23
29 -68 82 -101 117 -32 34 -76 91 -96 125 -21 34 -53 87 -72 117 -30 49 -34
63 -34 125 0 71 23 263 35 300 4 11 38 85 75 165 73 153 79 170 233 640 102
311 121 374 133 455 6 46 6 49 -9 36 -10 -7 -17 -25 -17 -40 0 -27 -83 -284
-135 -416 -15 -38 -45 -124 -68 -190 -74 -220 -128 -357 -192 -489 -68 -141
-78 -182 -98 -380 l-12 -118 -111 108 c-137 134 -160 176 -158 284 2 103 41
223 146 455 79 172 116 244 154 298 19 26 34 51 34 56 0 6 22 38 48 73 71 93
183 290 226 398 20 52 48 113 61 135 102 169 135 290 135 502 0 95 18 249 39
345 6 26 14 107 17 180 7 152 -4 206 -63 320 -26 50 -55 85 -112 135 -122 108
-281 279 -281 303 0 5 -12 21 -27 37 -16 16 -37 42 -48 58 -11 15 -32 44 -47
63 -16 19 -28 36 -28 38 0 11 30 0 94 -35z m7996 -109 c0 -9 -4 -32 -9 -50 -6
-18 -13 -70 -16 -115 -14 -194 -28 -295 -47 -347 -11 -30 -32 -89 -45 -130
-33 -102 -79 -221 -118 -305 -17 -38 -51 -113 -75 -165 -23 -52 -83 -180 -133
-285 -49 -104 -94 -203 -100 -220 -9 -27 -50 -97 -97 -165 -10 -14 -27 -44
-39 -67 -11 -23 -42 -72 -68 -108 -27 -37 -56 -81 -66 -99 -11 -17 -35 -51
-54 -76 -19 -25 -53 -83 -75 -130 -42 -87 -106 -190 -118 -190 -19 0 -88 217
-135 420 -74 323 -77 345 -72 464 6 131 14 199 27 242 14 43 16 53 45 264 14
103 28 198 30 211 3 13 10 56 16 94 9 62 31 169 45 218 3 9 13 17 21 17 21 0
81 19 114 36 14 7 46 16 70 20 24 4 62 16 84 27 97 51 200 113 238 147 23 19
54 43 69 53 55 34 98 56 98 50 0 -4 12 5 28 19 29 27 100 58 133 58 22 0 48
15 126 73 44 33 85 53 116 56 4 1 7 -7 7 -17z m-2415 -1737 c21 -16 61 -47 89
-68 27 -20 73 -67 101 -105 51 -68 91 -116 133 -158 12 -13 22 -27 22 -32 0
-5 6 -15 14 -21 8 -7 24 -31 36 -54 12 -23 37 -64 55 -92 42 -63 78 -136 99
-198 9 -27 23 -62 32 -79 9 -17 24 -54 34 -82 10 -28 43 -121 73 -206 31 -85
70 -189 87 -230 18 -41 45 -124 62 -185 16 -60 46 -155 68 -210 64 -167 82
-257 86 -445 4 -149 2 -174 -20 -265 -13 -55 -33 -145 -44 -200 -23 -116 -53
-207 -69 -212 -10 -4 -29 44 -40 99 -1 10 -12 53 -24 95 -11 43 -23 87 -25 98
-15 80 -14 77 -53 153 -12 23 -19 42 -15 42 5 0 3 5 -4 12 -7 7 -12 18 -12 25
0 7 -34 95 -76 195 -41 101 -90 228 -109 283 -18 55 -56 156 -85 225 -28 69
-62 154 -75 190 -13 36 -47 126 -75 200 -29 74 -55 151 -57 170 -3 19 -11 42
-18 50 -6 8 -22 47 -34 85 -12 39 -26 79 -31 90 -11 26 -29 86 -35 116 -3 13
-14 55 -24 94 -23 82 -68 289 -87 395 -7 41 -22 119 -33 174 -26 120 -26 125
-2 100 10 -10 35 -32 56 -49z m-9456 -307 c-10 -73 -23 -207 -29 -298 -6 -91
-15 -192 -19 -225 -5 -33 -17 -118 -26 -190 -31 -238 -74 -388 -176 -611 -24
-51 -45 -126 -54 -186 -3 -27 -11 -48 -16 -48 -6 0 -22 25 -36 57 -25 53 -25
61 -18 162 4 58 7 178 6 266 -4 221 15 327 89 510 4 11 14 36 21 55 7 19 32
78 57 130 63 135 128 290 167 397 32 87 43 113 49 113 1 0 -6 -60 -15 -132z
m9669 -928 c53 -140 75 -198 146 -377 42 -106 76 -195 76 -198 0 -9 69 -197
85 -230 40 -86 85 -198 85 -212 0 -8 -7 -36 -15 -62 -44 -137 -88 -369 -99
-521 -13 -162 -38 -337 -58 -399 -6 -19 -35 -140 -65 -270 -30 -130 -58 -249
-63 -266 -32 -116 -79 -308 -85 -345 -13 -89 -16 -103 -21 -112 -18 -29 -21
-122 -8 -223 19 -142 33 -223 43 -244 61 -126 72 -243 45 -501 -2 -25 -9 -67
-14 -95 -5 -27 -12 -81 -15 -120 -4 -38 -13 -99 -22 -134 -19 -85 -22 -287 -5
-321 36 -69 49 -90 90 -150 25 -36 50 -69 56 -75 7 -5 39 -44 73 -86 81 -99
136 -210 164 -326 14 -57 8 -73 -20 -56 -32 20 -125 26 -202 12 -41 -7 -91
-13 -111 -14 -21 -1 -44 -7 -51 -13 -8 -7 -49 -18 -92 -27 -42 -8 -82 -18 -89
-23 -12 -10 -70 -26 -72 -20 -1 2 -10 -4 -20 -13 -11 -9 -41 -25 -69 -35 -48
-17 -200 -93 -312 -155 -64 -35 -69 -26 -44 68 26 97 56 161 94 200 41 42 94
168 105 250 17 124 -22 280 -122 486 -62 127 -150 365 -188 507 -31 118 -22
213 31 326 24 49 51 109 61 134 10 25 48 103 84 174 79 155 86 175 106 291 4
28 10 59 13 70 4 19 24 185 47 385 6 52 17 145 24 205 8 61 17 144 21 185 6
71 29 261 75 615 29 222 65 448 94 590 13 66 34 188 45 270 12 83 30 182 40
220 10 39 28 129 40 200 12 72 28 164 36 205 8 41 22 125 32 187 10 62 21 109
24 105 3 -4 15 -32 27 -62z m438 -1132 c3 -13 15 -41 24 -63 32 -71 81 -242
95 -328 2 -15 6 -31 9 -36 3 -4 15 -51 26 -104 l21 -96 -26 -63 c-14 -35 -32
-76 -40 -93 -8 -16 -22 -58 -30 -93 -9 -35 -30 -94 -46 -130 -52 -113 -78
-190 -94 -280 -19 -100 -99 -416 -122 -476 -8 -23 -24 -61 -35 -86 -24 -52
-41 -99 -113 -309 l-53 -154 -11 39 c-19 73 -36 211 -35 294 1 72 32 219 99
465 30 110 59 223 64 250 6 28 28 122 50 210 55 215 88 383 95 480 11 148 34
309 61 430 15 66 30 130 32 143 3 12 9 22 13 22 5 0 12 -10 16 -22z m-10349
-548 c30 -62 50 -210 47 -365 -3 -243 -6 -333 -14 -382 -49 -302 -39 -259
-100 -433 -28 -80 -55 -160 -60 -179 -5 -19 -22 -62 -39 -95 -29 -58 -142
-388 -155 -451 -43 -222 -50 -336 -26 -435 37 -151 56 -240 52 -245 -7 -7 -54
24 -72 48 -86 112 -131 251 -124 380 8 142 51 310 122 482 48 116 163 490 182
590 6 33 16 79 21 101 5 23 11 75 15 115 3 41 12 94 20 119 8 27 16 119 20
230 3 102 8 188 10 192 2 4 4 77 5 164 0 130 3 162 17 186 24 41 52 33 79 -22z
m11215 -1949 c6 -25 17 -55 24 -66 7 -11 31 -72 54 -135 23 -63 45 -122 49
-130 5 -8 16 -47 27 -85 14 -57 17 -100 15 -225 -7 -355 -4 -506 9 -565 22
-100 23 -140 5 -219 -11 -51 -15 -93 -10 -124 l7 -47 -51 50 c-64 63 -135 168
-150 220 -13 49 -14 154 -1 255 5 41 12 98 15 125 3 28 11 77 17 110 13 71 12
359 -2 465 -5 41 -12 118 -15 170 -4 52 -8 97 -10 100 -1 3 -8 48 -14 100 -7
52 -14 104 -16 115 -3 11 4 0 15 -24 11 -24 26 -65 32 -90z m-5244 -775 c98
-6 118 -16 127 -58 4 -18 11 -46 16 -63 5 -16 20 -100 34 -185 13 -85 26 -164
29 -175 9 -44 28 -303 24 -339 l-3 -39 -44 34 c-67 51 -150 139 -173 183 -30
58 -47 123 -53 201 -10 130 -16 172 -30 218 -7 25 -11 48 -7 52 4 3 2 9 -4 13
-11 8 -74 149 -74 167 0 10 10 11 38 5 20 -5 74 -11 120 -14z m272 -40 c41 -9
56 -17 58 -32 2 -10 7 -28 12 -39 81 -190 134 -476 143 -774 l2 -83 -41 5
c-23 2 -68 17 -100 33 -33 16 -60 29 -61 29 -1 0 -4 50 -8 110 -3 61 -7 126
-10 145 -2 19 -7 64 -11 100 -3 36 -10 88 -15 115 -5 28 -16 95 -25 150 -9 55
-20 109 -24 120 -5 11 -11 34 -14 50 -3 17 -8 42 -12 58 -6 25 -4 27 22 27 16
-1 54 -7 84 -14z m160 -32 c29 -9 61 -17 71 -19 9 -2 38 -10 63 -19 26 -9 53
-16 61 -16 8 0 48 -11 89 -25 41 -14 85 -25 98 -25 13 0 38 -9 56 -20 18 -11
41 -20 52 -20 34 0 57 -44 64 -122 4 -40 15 -107 24 -148 11 -49 16 -123 17
-215 0 -181 -16 -239 -79 -288 -69 -52 -113 -63 -205 -50 -105 16 -200 45
-206 63 -2 8 -7 56 -10 105 -20 349 -47 499 -130 710 -19 49 -35 93 -35 97 0
11 9 10 70 -8z m-6199 -406 l97 -11 20 -46 c58 -133 159 -458 191 -613 8 -39
27 -68 42 -68 13 0 11 48 -3 95 -6 22 -12 45 -13 50 -1 6 -4 17 -7 25 -3 8
-14 47 -24 85 -24 96 -86 283 -127 385 -19 47 -32 88 -29 92 4 4 37 9 74 11
l68 5 36 -67 c78 -143 176 -367 189 -434 3 -17 12 -48 19 -67 8 -19 19 -55 26
-80 19 -70 28 -90 44 -90 28 0 25 32 -15 157 -52 165 -139 377 -195 475 -24
42 -44 80 -44 83 0 17 54 -5 126 -51 39 -26 136 -162 181 -254 61 -126 82
-188 88 -259 3 -35 10 -72 15 -82 12 -21 13 -69 3 -70 -5 0 -30 -3 -58 -6 -55
-7 -483 -8 -924 -3 -58 1 -140 36 -146 64 -2 11 -6 50 -9 86 -2 36 -18 106
-34 155 -52 160 -28 288 70 368 40 33 94 59 143 70 32 8 93 6 196 -5z m10060
-493 c50 -24 69 -62 79 -158 12 -100 20 -132 58 -223 43 -102 56 -125 139
-247 56 -83 71 -112 61 -118 -7 -5 -49 -9 -93 -9 -45 0 -85 -4 -90 -9 -6 -6
-39 -12 -75 -16 -36 -3 -96 -12 -135 -20 -38 -8 -73 -15 -76 -15 -4 0 -24 26
-45 58 -39 59 -48 74 -129 207 -27 44 -87 143 -133 220 -47 77 -95 162 -108
189 -22 48 -22 50 -5 62 24 17 214 64 222 56 3 -4 23 -47 44 -97 35 -83 221
-465 248 -509 64 -105 80 -126 92 -126 24 0 17 32 -19 90 -35 56 -246 469
-246 482 0 3 -16 41 -35 82 -19 42 -35 80 -35 86 0 10 18 16 95 30 67 12 142
6 186 -15z m-583 -150 c9 -22 27 -58 41 -80 29 -47 46 -75 83 -142 14 -26 47
-79 73 -118 26 -38 55 -86 66 -107 10 -20 44 -79 74 -129 58 -97 59 -108 5
-109 -286 -7 -481 14 -552 61 -37 24 -42 34 -141 264 -22 51 -75 144 -97 170
-9 11 -7 21 10 45 12 16 26 30 31 30 12 0 182 72 189 81 15 17 166 78 189 75
7 0 20 -19 29 -41z m2879 -444 c36 -28 70 -51 76 -51 15 0 34 -28 76 -110 44
-87 93 -162 157 -240 70 -86 108 -149 138 -228 29 -74 30 -96 11 -222 l-7 -45
-117 3 c-64 1 -134 7 -156 12 -22 5 -87 12 -145 15 -115 8 -139 17 -164 67
-19 39 -39 71 -47 78 -5 5 -77 123 -112 185 -23 42 -200 399 -227 458 -21 47
-21 49 -3 63 10 7 23 14 28 14 6 0 37 11 70 25 60 24 176 35 201 17 6 -4 48
-52 94 -107 83 -100 154 -203 178 -260 8 -16 24 -46 36 -65 13 -19 48 -74 80
-123 31 -48 66 -106 77 -130 11 -23 26 -53 34 -67 8 -14 24 -46 36 -73 13 -26
31 -54 40 -63 20 -18 39 -11 39 13 0 31 -156 319 -186 344 -8 6 -14 16 -14 22
0 6 -7 18 -16 28 -8 9 -27 40 -42 67 -91 170 -103 186 -296 411 l-21 24 58 -6
c51 -5 67 -12 124 -56z m-546 -108 c109 -239 232 -497 246 -514 7 -8 13 -19
13 -24 0 -4 18 -34 40 -66 22 -32 40 -63 40 -68 0 -5 12 -24 26 -41 15 -17 25
-32 23 -33 -11 -7 -422 12 -467 22 -100 20 -274 88 -343 133 -37 24 -52 43
-80 101 -18 40 -34 74 -34 77 -24 103 -17 134 43 197 71 75 191 165 280 211
57 30 156 72 170 72 6 0 26 -30 43 -67z"/>
<path d="M14045 17878 c-40 -243 -46 -404 -32 -1013 3 -121 1 -265 -3 -320 -5
-55 -16 -179 -25 -275 -24 -266 -33 -402 -40 -555 -7 -177 -11 -219 -31 -330
-8 -49 -22 -126 -29 -170 -13 -72 -36 -259 -49 -389 -12 -122 -37 -542 -52
-861 -3 -66 -9 -141 -14 -167 -13 -66 1 -98 29 -64 22 27 31 80 37 240 3 89 7
171 9 184 2 13 7 94 10 180 4 86 13 234 21 327 8 94 17 197 20 230 9 106 35
297 54 400 10 55 22 127 25 160 3 33 8 78 10 100 3 22 7 131 10 242 3 111 7
208 10 215 2 7 6 60 10 118 5 100 10 168 20 272 22 216 27 570 10 599 -6 9 -6
550 -1 614 18 204 19 366 1 263z"/>
<path d="M15360 17873 c-44 -8 -90 -66 -90 -113 0 -11 -4 -20 -8 -20 -17 0
-42 -72 -42 -120 0 -84 93 -324 149 -383 45 -47 160 -87 277 -94 l81 -6 40 40
c27 27 44 55 51 86 16 62 15 158 -2 204 -7 21 -21 65 -31 98 -29 102 -68 159
-175 258 -44 41 -166 65 -250 50z m132 -47 c26 -8 57 -20 70 -27 31 -16 117
-101 118 -115 0 -6 6 -17 14 -24 13 -10 41 -77 76 -185 18 -55 14 -188 -6
-232 -29 -60 -46 -65 -160 -48 -124 18 -180 35 -211 65 -24 23 -25 41 -1 23
49 -37 252 -46 300 -12 54 39 61 171 14 270 -34 72 -126 164 -194 196 -53 24
-158 47 -173 38 -17 -11 -17 13 0 29 38 35 87 42 153 22z m-7 -132 c39 -16
175 -148 175 -169 0 -7 7 -26 15 -41 30 -58 12 -164 -28 -172 -18 -4 -18 -2
-2 29 25 47 14 117 -25 174 -37 54 -56 65 -112 67 -93 3 -104 -1 -147 -43 -22
-23 -41 -45 -41 -50 0 -5 -4 -9 -9 -9 -12 0 -41 108 -41 152 0 21 9 46 22 63
21 27 24 27 88 21 37 -3 84 -13 105 -22z m74 -166 c50 -31 73 -157 36 -198
-18 -20 -27 -22 -90 -18 -80 5 -149 40 -165 84 -18 47 42 136 100 147 36 7 96
0 119 -15z"/>
<path d="M15576 16490 c3 -36 7 -78 8 -95 5 -53 17 -109 36 -160 10 -28 21
-73 25 -100 4 -28 10 -54 13 -60 10 -16 11 -54 2 -180 -12 -185 21 -374 89
-516 12 -23 21 -48 21 -55 0 -21 26 -36 38 -21 13 15 5 53 -21 103 -25 49 -55
150 -73 246 -13 70 -15 126 -12 242 5 135 3 160 -18 241 -12 50 -30 106 -38
126 -8 20 -22 76 -30 125 -20 117 -23 130 -36 151 -8 14 -9 2 -4 -47z"/>
<path d="M5261 14842 c-41 -166 -49 -259 -46 -512 3 -204 18 -381 40 -480 3
-14 10 -45 15 -70 5 -25 19 -83 31 -130 11 -47 23 -101 26 -120 7 -45 21 -64
38 -50 10 8 10 25 -1 83 -7 39 -20 90 -28 112 -13 35 -45 207 -61 330 -37 283
-33 651 11 837 10 40 12 73 7 82 -6 11 -16 -13 -32 -82z"/>
<path d="M16115 14708 c-43 -66 -102 -177 -121 -233 -26 -73 -26 -267 1 -355
23 -78 55 -142 74 -148 17 -6 10 43 -21 138 -39 120 -26 361 24 427 20 26 88
176 88 194 0 30 -14 23 -45 -23z"/>
<path d="M16380 14617 c-38 -16 -73 -42 -120 -90 -86 -88 -117 -151 -132 -262
-12 -96 -5 -159 32 -279 19 -62 23 -66 58 -74 20 -5 47 -10 60 -10 12 0 47
-12 77 -26 88 -42 124 -34 163 37 13 25 17 58 17 152 0 115 -2 124 -34 199
-19 44 -54 109 -79 145 -85 127 -86 134 -16 182 24 16 44 34 44 39 0 14 -7 12
-70 -13z m-47 -135 c20 -43 38 -74 54 -93 45 -56 116 -233 111 -277 l-3 -27
-22 37 c-26 44 -76 78 -116 78 -31 0 -91 -36 -114 -70 -9 -12 -24 -43 -33 -68
l-17 -45 -18 79 c-15 68 -16 90 -6 154 16 107 31 142 87 210 27 33 51 60 54
60 3 0 13 -17 23 -38z m63 -340 c46 -38 64 -78 69 -155 l5 -75 -31 -6 c-23 -4
-41 0 -65 15 -21 12 -53 21 -84 22 -69 3 -75 12 -55 85 31 109 104 161 161
114z"/>
</g>
</svg>
