<?xml version="1.0" standalone="no"?>
<!DOCTYPE svg PUBLIC "-//W3C//DTD SVG 20010904//EN"
 "http://www.w3.org/TR/2001/REC-SVG-20010904/DTD/svg10.dtd">
<svg version="1.0" xmlns="http://www.w3.org/2000/svg"
 width="2033.000000pt" height="2181.000000pt" viewBox="0 0 2033.000000 2181.000000"
 preserveAspectRatio="xMidYMid meet">
<metadata>
Created by potrace 1.16, written by Peter Selinger 2001-2019
</metadata>
<g transform="translate(0.000000,2181.000000) scale(0.100000,-0.100000)"
fill="#000000" stroke="none">
<path d="M12082 15031 c-93 -48 -349 -303 -570 -569 -127 -152 -340 -458 -433
-620 -164 -287 -230 -475 -329 -934 -69 -321 -72 -350 -77 -718 -7 -456 7
-706 46 -860 51 -201 202 -576 289 -712 22 -35 62 -106 90 -158 52 -100 110
-192 307 -488 176 -264 226 -344 220 -350 -6 -6 -128 42 -235 91 -35 17 -112
67 -170 111 -58 44 -235 176 -395 294 -322 239 -376 283 -650 532 -347 317
-353 323 -792 840 -234 276 -447 588 -598 878 -59 114 -112 145 -165 97 -12
-11 -25 -12 -55 -5 -85 20 -378 33 -481 21 -141 -15 -270 -64 -346 -130 -18
-15 -54 -37 -80 -49 -50 -22 -68 -45 -68 -87 0 -41 16 -61 72 -93 29 -16 79
-44 110 -61 81 -45 170 -68 290 -75 199 -12 227 -16 232 -34 12 -39 48 -319
61 -472 18 -210 71 -536 125 -765 65 -280 118 -405 295 -695 45 -74 102 -171
126 -214 24 -44 86 -143 138 -220 223 -335 203 -309 313 -392 57 -43 119 -90
138 -105 75 -59 514 -322 625 -374 65 -30 193 -98 284 -150 102 -57 189 -100
226 -109 81 -21 351 -72 448 -86 143 -19 273 -90 408 -222 61 -59 150 -201
135 -215 -3 -3 -36 -16 -74 -29 -233 -78 -793 -514 -1026 -798 -136 -166 -250
-346 -411 -649 -45 -87 -60 -107 -73 -102 -10 4 -33 12 -52 17 -19 6 -60 23
-90 38 -150 76 -262 108 -470 135 -177 23 -289 49 -357 84 -33 16 -120 74
-194 128 -454 335 -523 379 -789 503 -354 165 -380 172 -733 201 -346 28 -669
24 -792 -10 -117 -32 -279 -99 -502 -207 -244 -118 -372 -169 -578 -229 -258
-75 -535 -203 -878 -407 -210 -124 -328 -169 -361 -135 -9 8 -39 23 -68 32
-55 18 -158 74 -158 86 0 13 302 248 419 326 138 92 203 145 303 249 136 140
205 234 371 506 112 183 152 260 202 389 74 193 107 312 149 544 3 17 13 150
21 296 25 444 53 515 329 829 214 243 360 419 554 668 115 148 178 279 191
392 11 110 1 181 -44 310 l-37 105 6 145 c7 167 0 193 -50 198 -37 4 -32 8
-159 -153 -55 -70 -139 -177 -188 -239 -127 -161 -337 -336 -573 -478 -268
-160 -440 -221 -729 -258 -276 -35 -508 -139 -760 -339 -166 -132 -376 -314
-445 -387 -122 -128 -229 -303 -340 -554 -125 -282 -160 -474 -134 -715 15
-138 26 -182 62 -247 15 -26 24 -50 20 -53 -13 -13 -81 33 -116 80 -33 43 -43
50 -74 51 -26 0 -47 10 -73 32 -34 31 -39 32 -121 32 -74 0 -85 2 -80 16 3 9
6 51 6 95 0 96 14 109 64 60 37 -36 46 -38 46 -11 0 27 -44 96 -71 110 -18 10
-20 17 -14 58 4 26 9 49 11 51 2 3 18 -5 34 -17 56 -42 100 -21 54 26 -14 15
-32 45 -40 67 -12 36 -11 46 11 109 13 38 29 72 35 76 6 4 8 13 5 21 -3 8 2
32 10 53 15 35 15 39 -1 58 -12 13 -26 17 -41 13 -39 -9 -47 23 -39 159 4 67
11 141 16 166 12 63 -2 71 -45 26 l-35 -37 -11 28 c-6 15 -22 43 -35 61 -24
31 -25 38 -22 150 l3 117 -25 0 c-27 0 -30 -7 -100 -235 -13 -41 -25 -77 -27
-79 -2 -3 -30 21 -62 53 -45 45 -62 70 -71 105 -37 146 -41 152 -62 106 -13
-28 1 -103 29 -157 17 -35 -1 -37 -22 -4 -10 14 -19 57 -22 100 -5 63 -9 76
-23 76 -25 0 -47 -29 -61 -81 -32 -118 53 -213 134 -149 l25 20 51 -40 c71
-56 76 -68 57 -144 -9 -34 -16 -77 -16 -94 0 -47 -16 -39 -30 16 -29 116 -79
177 -116 140 -13 -13 -14 -31 -5 -133 6 -66 9 -120 8 -122 -9 -9 -79 21 -92
39 l-15 22 -32 -24 c-28 -20 -36 -22 -69 -13 -35 9 -41 7 -72 -18 l-35 -28 -6
38 c-3 22 -15 60 -26 86 -29 68 -26 82 10 52 16 -14 51 -33 77 -43 26 -9 58
-26 70 -37 19 -17 27 -18 48 -9 25 12 33 40 16 57 -5 6 -12 43 -16 84 -6 65
-5 73 8 68 21 -8 31 23 22 64 -4 19 -15 33 -26 36 -17 5 -19 16 -19 125 0 109
1 118 16 104 19 -19 48 -21 62 -3 23 28 57 460 45 572 -5 49 -28 89 -43 80 -5
-3 -14 -38 -20 -78 -7 -39 -22 -97 -35 -127 -13 -30 -26 -71 -30 -90 -13 -65
-20 -66 -53 -8 -17 30 -41 63 -52 73 -16 14 -20 30 -20 80 0 60 1 63 27 70 41
10 56 25 42 41 -6 8 -18 14 -25 14 -24 0 -52 37 -64 82 -7 25 -27 59 -50 83
-21 22 -58 72 -82 110 -55 86 -108 135 -147 135 -26 0 -43 -14 -71 -59 -6 -10
-23 -14 -55 -12 l-47 2 7 -30 c4 -21 1 -38 -9 -53 -9 -12 -16 -30 -16 -39 0
-20 -17 -35 -50 -44 -24 -6 -29 0 -65 65 -29 51 -45 69 -57 66 -11 -2 -26 10
-44 36 -53 77 -128 103 -158 56 -17 -27 -31 -108 -19 -108 4 0 20 14 35 32
l28 33 19 -25 c11 -14 46 -72 78 -130 32 -57 72 -120 89 -140 36 -40 49 -95
39 -163 -11 -75 -16 -76 -94 -18 -38 29 -73 61 -76 72 -8 24 -26 24 -55 1 -33
-27 -21 -61 32 -90 24 -13 71 -43 105 -65 56 -37 63 -45 63 -75 0 -18 7 -48
14 -67 26 -62 50 -205 37 -218 -18 -18 -13 -57 14 -89 14 -16 25 -37 25 -46 0
-9 12 -51 25 -92 32 -97 32 -99 -7 -91 -28 6 -34 12 -38 41 -6 39 -25 50 -35
21 -3 -12 -11 -21 -16 -21 -12 0 -12 37 1 45 15 9 12 47 -2 43 -7 -3 -23 -19
-35 -38 -31 -44 -30 -97 2 -140 22 -29 34 -80 20 -80 -2 0 -24 14 -48 31 -58
41 -115 49 -141 20 -16 -17 -18 -27 -10 -49 7 -22 22 -31 73 -48 36 -13 102
-49 154 -85 51 -35 109 -74 129 -87 46 -28 53 -50 44 -157 -3 -50 -2 -94 5
-113 23 -66 4 -68 -35 -4 -40 66 -77 95 -98 74 -6 -6 -8 -22 -4 -36 8 -31 85
-120 138 -159 32 -24 41 -40 59 -100 35 -122 34 -114 15 -98 -22 19 -46 65
-46 89 0 16 -27 39 -35 30 -13 -16 -35 -72 -35 -90 0 -59 116 -177 190 -193
27 -6 28 -9 32 -71 2 -35 3 -64 3 -64 0 0 -29 9 -63 20 -84 26 -127 25 -274
-6 -92 -19 -137 -24 -180 -20 -69 8 -105 -5 -190 -69 -33 -25 -64 -43 -69 -40
-4 3 -10 20 -13 38 -32 209 -43 242 -96 292 -28 27 -38 30 -93 30 -34 0 -72
-3 -83 -8 -19 -7 -22 -3 -28 30 -9 60 -41 102 -93 125 -139 61 -360 -49 -471
-235 -18 -30 -59 -113 -90 -183 l-57 -129 -3 -210 c-2 -115 -1 -207 1 -205 3
3 48 113 101 245 134 330 177 417 240 480 56 56 147 105 195 105 33 0 34 -2
45 -85 7 -48 34 -87 69 -99 20 -7 42 -4 89 12 35 12 71 22 81 22 25 0 42 -47
56 -155 15 -112 39 -168 83 -195 72 -44 122 -35 220 38 51 39 56 40 128 40 49
-1 115 9 189 27 126 30 186 30 230 -2 50 -38 110 -190 152 -392 26 -122 46
-152 84 -127 23 15 24 15 39 -37 8 -28 28 -73 45 -99 l29 -46 -36 0 c-43 0
-62 9 -120 56 -67 54 -96 103 -88 152 3 22 3 40 -2 40 -13 0 -42 -56 -42 -80
0 -56 80 -159 173 -222 22 -15 25 -23 20 -53 -5 -31 -1 -39 36 -76 22 -23 41
-43 41 -45 0 -2 -26 -4 -58 -4 -47 0 -63 4 -78 21 -60 67 -172 121 -276 133
-73 9 -73 9 -64 219 8 181 4 192 -64 203 -29 5 -41 14 -65 52 -117 187 -205
265 -245 217 -10 -12 -10 -15 4 -15 20 0 60 -55 133 -180 63 -107 95 -146 128
-154 23 -6 23 -7 21 -176 l-1 -171 -25 -5 c-53 -11 -58 -11 -67 -5 -6 3 -18
31 -28 61 -49 152 -157 193 -348 132 l-87 -28 6 106 c9 147 -11 182 -136 239
-93 42 -114 62 -146 138 -31 76 -66 136 -98 172 -18 20 -161 121 -171 121 -3
0 -9 -9 -15 -20 -15 -28 0 -53 76 -128 50 -49 74 -83 113 -165 27 -56 62 -114
78 -130 16 -15 67 -46 114 -70 108 -54 114 -65 99 -193 -6 -53 -13 -101 -16
-106 -3 -4 -36 -24 -72 -43 -37 -19 -81 -43 -97 -54 l-31 -20 -29 20 c-58 39
-121 67 -177 79 -32 6 -60 15 -63 21 -8 12 80 1 127 -17 49 -18 59 -2 22 37
-44 46 -112 64 -244 64 -124 -1 -209 -17 -252 -47 -26 -18 -28 -24 -28 -93 l0
-74 47 50 c47 49 50 50 138 64 50 8 103 15 119 15 l29 0 -27 -25 c-42 -39 -28
-80 32 -90 89 -15 222 -47 222 -54 0 -5 -46 -44 -103 -89 -56 -44 -147 -116
-201 -161 -71 -59 -104 -80 -120 -77 -11 3 -47 7 -78 10 l-58 6 0 -45 c0 -25
2 -45 5 -45 2 0 27 9 55 20 27 11 50 17 50 14 0 -4 -25 -33 -55 -66 l-55 -59
0 -112 1 -112 112 118 c70 73 119 117 132 117 22 0 78 -31 112 -62 34 -32 38
-87 12 -149 -33 -76 -177 -303 -197 -310 -9 -3 -52 -12 -94 -19 l-78 -14 0
-77 0 -76 83 14 c56 10 170 16 362 17 253 3 285 5 335 23 129 47 189 85 484
306 109 82 223 160 252 175 l54 26 37 -23 c75 -44 109 -54 228 -63 66 -5 137
-14 158 -19 37 -10 160 -104 161 -124 1 -5 -21 -13 -49 -18 -98 -15 -290 -59
-364 -83 -107 -35 -316 -139 -453 -227 -186 -119 -291 -204 -508 -406 -69 -65
-195 -180 -280 -256 -85 -77 -233 -216 -328 -310 l-173 -170 3 -106 3 -107
200 197 c110 108 268 257 350 331 83 74 209 189 280 255 280 260 372 333 565
451 211 128 350 185 574 234 277 61 564 73 931 40 88 -8 312 -10 690 -7 l560
4 109 26 c60 15 111 25 113 24 4 -5 -231 -134 -259 -143 -21 -6 -21 -6 1 25
17 24 19 31 8 31 -18 0 -67 -55 -67 -75 0 -21 -96 -38 -136 -25 -54 18 -84 82
-44 93 39 10 20 27 -30 26 -66 -2 -87 -23 -70 -73 6 -19 22 -51 36 -71 13 -20
24 -38 24 -41 0 -3 -42 -3 -92 0 -51 3 -266 10 -478 15 -212 5 -452 15 -535
21 -214 15 -320 14 -399 -4 -90 -21 -277 -112 -451 -219 -168 -103 -268 -176
-442 -325 -72 -62 -139 -112 -149 -112 -23 0 -137 -32 -179 -51 -16 -7 -42
-24 -58 -38 -24 -22 -27 -31 -27 -91 0 -65 -1 -67 -44 -109 -54 -53 -83 -53
-110 2 -10 21 -19 59 -20 86 -1 56 15 83 129 211 76 85 85 100 62 100 -28 0
-239 -186 -263 -232 -19 -36 -18 -102 2 -144 9 -18 33 -49 53 -67 l38 -34 -29
-19 c-15 -10 -40 -36 -55 -56 -26 -35 -31 -38 -84 -38 -74 0 -140 -34 -232
-120 -80 -75 -186 -203 -229 -278 -18 -30 -28 -62 -28 -86 l0 -40 36 35 c20
18 91 97 159 175 158 181 233 244 287 244 18 0 -4 -27 -117 -138 -78 -75 -183
-184 -235 -242 -51 -58 -151 -166 -222 -242 l-128 -136 0 -97 0 -96 133 133
c74 73 199 205 279 293 189 207 753 768 887 882 58 48 172 146 255 217 172
146 251 203 420 306 150 90 271 151 361 180 66 22 78 23 275 16 113 -3 248
-11 300 -16 52 -5 178 -10 280 -10 102 0 300 -5 440 -11 409 -19 594 3 823 95
116 47 222 101 333 169 106 65 175 100 379 195 231 107 292 126 628 197 89 19
236 52 327 75 354 87 440 102 640 107 102 3 239 0 305 -6 511 -45 583 -56 851
-130 504 -139 629 -205 1324 -698 41 -29 127 -98 190 -152 63 -55 145 -119
182 -143 37 -24 67 -47 67 -52 1 -15 -182 -365 -249 -476 -35 -58 -91 -148
-125 -200 -34 -52 -91 -141 -128 -196 -101 -158 -244 -351 -301 -408 -29 -28
-97 -85 -152 -126 -54 -40 -138 -104 -186 -142 -120 -95 -187 -133 -268 -153
-74 -18 -97 -38 -85 -74 9 -30 27 -40 106 -56 41 -8 101 -29 134 -45 117 -59
269 -64 440 -15 120 34 252 62 350 75 99 13 201 28 279 41 32 6 107 33 165 61
58 28 144 63 191 78 173 57 397 151 480 202 99 61 374 258 510 366 107 85 300
276 404 400 38 45 75 82 82 82 7 0 31 -18 54 -40 23 -22 54 -43 68 -47 52 -12
117 -45 167 -82 82 -62 177 -108 321 -156 75 -25 155 -55 178 -66 133 -66 164
-73 301 -72 83 1 172 8 245 22 153 27 267 39 490 52 102 5 205 14 230 18 104
20 299 53 355 62 33 5 155 14 270 19 222 10 401 28 600 60 218 35 221 35 228
11 5 -20 12 -21 119 -21 176 0 419 51 518 108 56 32 126 98 179 166 45 58 168
151 246 186 28 12 91 37 140 55 228 84 283 121 505 346 212 214 384 375 485
454 111 87 345 241 574 380 107 64 217 133 245 153 28 19 101 70 161 112 170
120 222 141 490 200 235 51 372 112 640 284 99 63 182 111 183 105 2 -5 -3
-42 -12 -82 -8 -40 -18 -112 -22 -161 l-7 -90 -60 -55 c-158 -147 -248 -193
-517 -260 -107 -27 -239 -63 -292 -80 -53 -16 -154 -41 -224 -56 -320 -64
-382 -90 -624 -258 -205 -143 -288 -207 -424 -327 -137 -120 -238 -238 -342
-395 -180 -273 -226 -435 -254 -890 -10 -162 -25 -276 -61 -464 -26 -134 -49
-203 -111 -326 -103 -205 -132 -248 -280 -415 -87 -99 -194 -246 -222 -305
-50 -103 -76 -221 -87 -380 -19 -267 -22 -397 -10 -450 6 -27 14 -72 18 -100
9 -55 28 -67 66 -42 13 8 72 88 132 178 116 174 194 260 266 295 196 95 247
124 344 193 90 64 126 84 195 105 131 39 271 65 425 76 77 6 147 13 155 16 8
3 117 12 243 19 125 8 267 21 315 29 48 8 130 20 182 26 159 19 245 39 483
112 359 110 459 154 672 293 211 137 369 286 571 537 253 313 378 565 404 810
26 241 -42 578 -173 859 -63 136 -123 239 -267 459 -70 107 -182 282 -249 387
l-122 193 17 119 c15 105 16 146 6 328 l-11 208 71 68 c39 38 180 150 312 249
133 100 301 230 374 290 l132 109 0 91 0 90 -27 -17 c-16 -10 -116 -85 -224
-166 -108 -81 -261 -194 -340 -250 -187 -132 -307 -230 -395 -321 -50 -51
-127 -110 -260 -199 -305 -203 -392 -242 -674 -299 -258 -52 -301 -71 -579
-254 -102 -68 -265 -170 -361 -226 -197 -116 -482 -305 -580 -385 -90 -72
-311 -284 -466 -444 -201 -208 -249 -241 -445 -311 -233 -84 -360 -167 -476
-312 -76 -96 -116 -118 -264 -152 -68 -15 -161 -39 -206 -52 -73 -22 -88 -23
-129 -13 -33 9 -117 10 -293 5 -823 -22 -825 -22 -1141 -85 -172 -33 -208 -37
-460 -51 -96 -5 -238 -21 -316 -34 -191 -33 -307 -41 -364 -26 -25 7 -88 32
-140 57 -52 25 -144 63 -204 84 -116 41 -206 88 -271 139 -49 39 -118 75 -165
85 -19 4 -54 16 -78 26 -40 18 -43 21 -31 38 90 120 176 231 232 298 l69 83
33 -25 c17 -14 77 -41 131 -60 111 -39 146 -41 339 -24 205 18 335 53 536 147
228 107 398 169 629 227 166 43 181 45 315 45 112 -1 151 -4 195 -20 30 -11
69 -19 86 -20 30 0 32 2 32 39 1 57 -32 100 -100 134 -77 37 -242 54 -367 38
-220 -28 -475 -104 -741 -221 -383 -167 -401 -172 -650 -174 -151 -1 -170 1
-230 23 -36 13 -73 27 -84 30 -15 6 -3 28 90 156 59 83 188 266 287 408 l179
257 121 59 c167 81 301 131 372 142 33 5 125 18 205 29 80 11 242 40 360 66
335 71 344 71 354 1 4 -24 35 -100 70 -168 35 -69 68 -148 74 -176 7 -28 11
-130 11 -225 0 -194 7 -228 66 -335 54 -98 96 -145 178 -199 39 -26 109 -85
153 -131 53 -54 90 -83 104 -83 137 0 24 203 -177 319 -84 48 -132 100 -179
197 -40 80 -45 131 -30 304 11 127 -7 208 -79 359 -45 93 -56 125 -53 157 l3
39 93 0 c61 0 95 4 100 12 4 6 41 19 81 27 41 9 84 22 97 31 30 20 30 20 44
-15 17 -42 7 -115 -46 -311 -24 -91 -44 -185 -44 -210 0 -118 44 -187 307
-478 40 -45 75 -93 79 -108 4 -16 23 -44 43 -64 20 -19 48 -57 63 -82 30 -52
51 -65 73 -47 19 16 19 58 0 103 -8 20 -15 40 -15 45 0 17 246 87 393 111 102
17 183 46 251 87 33 21 163 120 288 220 298 240 320 250 780 373 313 84 514
172 624 273 38 35 91 76 117 91 70 42 244 101 446 153 198 51 233 64 321 123
34 23 82 46 106 51 47 11 259 113 374 180 180 105 419 295 650 516 85 82 202
191 260 243 58 52 134 123 170 157 211 201 417 360 628 484 l72 42 0 94 c0 52
-2 94 -5 94 -34 0 -360 -205 -470 -294 -161 -131 -483 -426 -750 -687 -277
-270 -437 -403 -652 -542 -103 -67 -169 -99 -373 -180 -176 -69 -241 -91 -355
-122 -170 -45 -266 -76 -374 -122 -122 -52 -185 -91 -261 -163 -88 -84 -287
-171 -541 -239 -291 -77 -424 -120 -544 -177 -61 -29 -203 -133 -440 -322
-145 -115 -235 -164 -345 -187 -114 -24 -329 -84 -385 -107 l-50 -21 -20 28
c-46 64 -105 138 -183 231 -97 115 -142 187 -142 229 0 17 22 107 49 202 27
94 53 192 56 217 4 25 10 46 13 46 4 0 52 -16 107 -35 115 -39 266 -60 359
-50 165 19 304 90 681 346 129 88 334 195 467 243 52 19 112 43 134 54 21 11
102 41 179 67 l140 48 190 8 c105 5 307 8 450 8 143 0 294 5 335 11 126 17
194 30 215 40 11 5 63 29 115 53 159 73 295 162 520 342 234 187 350 291 472
419 96 103 139 156 303 382 71 99 159 208 195 244 81 80 170 130 232 130 58 0
88 22 88 64 0 55 -32 68 -131 54 -252 -37 -569 -213 -824 -458 -243 -233 -283
-260 -622 -426 -351 -171 -368 -177 -471 -171 -45 3 -88 9 -95 15 -20 15 -224
70 -331 88 -84 14 -113 15 -194 5 -52 -6 -127 -22 -166 -35 -39 -13 -87 -27
-106 -31 -65 -14 -149 -64 -316 -191 -100 -75 -135 -96 -200 -117 -96 -31
-316 -80 -338 -75 -10 2 39 52 135 138 180 161 289 278 392 420 41 58 98 132
127 164 63 71 89 129 101 216 10 83 -1 127 -46 173 l-35 36 26 48 c37 69 30
137 -24 230 -53 91 -82 165 -82 211 0 22 16 74 39 127 22 50 47 116 56 147 10
37 23 61 36 69 38 20 314 275 390 360 41 45 146 158 235 249 159 164 322 369
419 525 138 221 247 553 296 899 23 168 43 599 34 746 -9 160 -69 496 -125
700 -36 134 -130 414 -172 515 -17 39 -41 108 -55 154 -13 46 -37 103 -53 125
-61 90 -190 186 -247 186 -28 0 -37 -6 -51 -32 -20 -37 -85 -106 -124 -131
-47 -29 -115 -4 -246 92 -108 80 -112 84 -152 166 -35 72 -49 89 -94 119 -64
42 -93 50 -129 37 -52 -20 -55 -44 -53 -416 1 -187 -2 -355 -7 -374 -12 -47
-78 -114 -255 -258 -144 -118 -344 -315 -435 -430 -44 -54 -67 -66 -67 -34 0
33 -66 216 -104 287 -85 161 -519 637 -726 798 -130 100 -480 406 -615 536
-300 290 -358 329 -458 313 -85 -13 -454 -299 -617 -478 -105 -116 -275 -285
-286 -285 -23 0 -38 59 -43 181 -7 147 -18 169 -81 169 -39 0 -67 -17 -141
-87 -66 -62 -132 -113 -148 -113 -15 0 -14 8 13 130 10 44 14 91 11 112 -16
94 -176 267 -284 308 -57 21 -59 23 -76 76 -29 92 -53 102 -143 55z m99 -198
c8 -9 50 -39 94 -68 79 -51 158 -124 196 -181 18 -26 19 -45 17 -187 -2 -181
1 -190 74 -190 53 0 109 28 175 87 28 25 53 46 56 46 2 0 7 -25 11 -55 9 -76
33 -131 68 -156 l30 -22 -99 -101 c-99 -100 -223 -240 -378 -426 -43 -52 -124
-142 -180 -200 -56 -58 -114 -124 -129 -148 -32 -51 -49 -55 -41 -9 12 64 10
341 -2 382 -7 22 -33 74 -57 115 -61 102 -71 147 -57 264 11 93 19 125 100
386 47 152 81 326 81 410 0 72 13 88 41 53z m-141 4 c0 -1 -5 -41 -11 -87 -13
-106 -47 -234 -111 -415 -67 -190 -88 -286 -88 -399 0 -106 20 -178 70 -251
64 -93 75 -129 71 -245 -3 -93 -4 -230 -2 -442 1 -46 -6 -82 -19 -113 -62
-145 -80 -216 -90 -353 -33 -474 71 -1045 270 -1483 42 -92 59 -143 64 -190 4
-35 21 -122 37 -194 63 -270 64 -284 51 -660 -11 -337 -28 -502 -66 -666 -25
-104 -36 -275 -36 -546 0 -257 9 -369 37 -458 23 -76 88 -179 159 -255 78 -82
312 -254 432 -318 48 -25 146 -85 219 -133 72 -48 170 -107 218 -130 47 -23
82 -46 77 -51 -4 -4 -47 -11 -95 -14 -82 -7 -90 -5 -137 20 -27 15 -94 46
-149 70 -55 24 -152 78 -215 120 -64 43 -151 93 -193 113 -66 30 -94 51 -183
142 -79 79 -109 116 -117 146 -7 22 -28 86 -47 142 -51 149 -70 316 -67 613 3
267 -8 373 -50 498 -45 133 -93 204 -256 375 -156 162 -175 189 -280 382 -36
66 -90 155 -119 198 -30 43 -54 82 -54 87 0 4 -25 47 -55 95 -71 113 -147 264
-228 450 -69 160 -96 238 -121 350 -99 443 -116 547 -126 783 -10 233 2 565
24 662 7 36 19 101 26 145 18 121 85 388 135 540 47 144 195 429 303 584 246
354 349 488 546 708 61 69 122 137 136 154 21 24 40 37 40 26z m1918 -74 c22
-16 128 -111 234 -213 217 -208 547 -494 659 -572 137 -95 632 -611 695 -725
112 -199 164 -461 164 -817 0 -89 -5 -201 -10 -251 -10 -83 -63 -311 -125
-530 -61 -215 -102 -599 -89 -835 6 -115 42 -353 70 -464 18 -71 36 -107 120
-246 50 -83 67 -121 79 -180 8 -41 29 -124 45 -185 45 -163 59 -389 36 -563
-48 -350 -131 -605 -258 -792 -205 -303 -392 -537 -510 -640 -246 -214 -378
-334 -378 -341 0 -14 -145 -173 -198 -218 l-50 -41 -103 19 c-57 11 -133 32
-169 49 -72 32 -202 71 -321 97 -133 28 -249 94 -479 271 -136 105 -145 111
-278 189 -332 195 -407 259 -530 457 -98 156 -117 220 -132 434 -12 168 -10
252 10 397 13 94 6 1150 -9 1232 -5 33 -15 122 -21 197 -10 130 -35 246 -64
293 -7 11 -25 56 -40 100 -16 44 -45 114 -66 155 -60 119 -106 255 -161 467
-75 290 -99 475 -99 752 l0 223 35 130 c102 375 190 519 609 998 236 268 273
307 421 439 71 64 170 154 219 199 49 46 146 129 215 185 156 125 321 267 353
305 25 30 55 51 74 52 6 0 29 -12 52 -27z m2832 -554 c53 -52 232 -169 258
-169 7 0 33 -9 57 -20 42 -19 44 -22 34 -48 -6 -15 -11 -62 -12 -104 l-2 -77
40 -41 40 -41 0 -87 c0 -87 -1 -89 -43 -154 -33 -51 -43 -74 -40 -100 2 -27 7
-32 23 -30 28 5 79 46 112 89 27 36 28 40 28 162 0 131 -5 151 -56 221 -18 24
-18 28 0 115 25 116 25 115 71 148 l40 28 33 -20 c43 -26 130 -118 151 -159
25 -49 83 -194 136 -342 106 -299 130 -383 197 -700 36 -174 37 -177 41 -465
5 -403 -22 -670 -98 -930 -99 -343 -280 -637 -575 -930 -77 -77 -158 -162
-179 -190 -21 -27 -145 -156 -275 -285 -312 -310 -365 -388 -383 -561 -12
-107 1 -177 42 -243 17 -26 30 -57 30 -70 0 -12 -27 -59 -60 -103 -68 -91 -79
-126 -56 -171 16 -30 61 -62 87 -62 23 0 49 -33 49 -61 0 -31 -35 -95 -118
-214 -126 -181 -254 -322 -432 -474 -172 -147 -251 -226 -273 -273 l-17 -36
-123 -22 c-67 -12 -155 -33 -196 -46 -41 -13 -76 -22 -78 -21 -1 2 29 25 68
52 99 67 166 131 247 233 157 197 278 439 388 769 94 283 106 343 111 580 6
266 0 309 -88 563 -33 94 -30 193 9 343 35 131 82 239 143 331 22 33 123 142
223 241 247 245 341 376 543 763 162 309 246 557 289 852 13 94 15 156 10 340
-8 255 -18 356 -41 401 -9 16 -19 53 -22 80 -10 83 -73 94 -94 16 -9 -35 -7
-54 10 -122 19 -72 21 -107 21 -368 0 -376 -18 -500 -109 -756 -71 -198 -144
-354 -274 -581 -118 -207 -185 -291 -426 -530 -242 -241 -285 -297 -351 -459
-35 -86 -76 -235 -86 -308 -4 -29 -10 -51 -14 -48 -10 6 -86 155 -109 214 -11
27 -35 126 -53 218 -31 160 -33 178 -32 388 2 275 29 470 104 750 28 105 65
255 82 335 30 143 30 149 32 476 l2 331 111 119 c60 66 142 155 181 199 83 95
138 147 292 282 143 124 196 181 223 241 20 43 22 64 22 227 1 99 2 224 3 277
l2 98 38 -4 c29 -3 49 -15 92 -57z m-8120 -1950 c134 -267 380 -618 645 -920
70 -79 178 -202 240 -274 115 -132 274 -292 445 -446 226 -205 392 -346 481
-413 302 -225 677 -491 858 -611 101 -66 149 -106 223 -185 l95 -101 6 -82
c14 -198 83 -617 115 -707 3 -8 -17 5 -44 29 -51 47 -58 62 -138 297 -20 57
-66 226 -66 240 0 2 -11 4 -25 4 -45 0 -42 -55 14 -279 12 -46 20 -85 18 -87
-2 -2 -19 8 -38 22 -83 62 -354 205 -462 244 -28 11 -81 30 -117 43 -36 14
-105 39 -155 57 -239 86 -458 174 -545 220 -41 22 -149 78 -240 124 -91 46
-194 105 -229 132 -233 175 -573 629 -792 1057 -13 26 -32 57 -41 70 l-18 22
0 -23 c0 -38 115 -298 191 -432 88 -155 212 -349 287 -449 130 -175 334 -348
492 -417 36 -16 187 -90 337 -166 150 -75 292 -142 315 -148 341 -87 499 -161
818 -385 69 -48 198 -155 225 -186 12 -13 54 -60 94 -104 40 -44 109 -134 153
-200 78 -117 164 -273 155 -282 -3 -2 -28 -1 -56 3 -45 6 -53 10 -67 39 -8 18
-30 50 -48 71 -18 22 -54 72 -79 112 -26 39 -51 72 -56 72 -5 0 -31 30 -57 66
-109 149 -220 209 -624 339 -201 65 -248 83 -460 175 -85 37 -207 89 -270 114
-493 203 -812 461 -1186 961 -33 44 -76 105 -96 135 -221 342 -281 484 -357
842 -49 233 -51 253 -50 498 1 129 -4 271 -10 315 -7 44 -16 115 -21 157 -14
121 -62 198 -150 243 -98 50 -169 67 -316 74 -128 7 -147 10 -198 36 -31 15
-56 31 -56 35 0 9 62 50 118 79 90 46 215 60 624 69 l67 2 51 -101z m-2330
-1053 c0 -8 23 -76 51 -153 59 -161 67 -212 45 -306 -18 -76 -41 -126 -99
-212 -48 -71 -243 -309 -282 -345 l-27 -25 7 33 c3 17 3 32 0 32 -4 0 -55 -46
-114 -102 -125 -119 -230 -192 -302 -207 -27 -6 -82 -11 -122 -11 -71 0 -279
-30 -347 -50 -42 -12 -40 -12 -40 -1 0 5 53 32 118 61 281 125 342 159 502
281 213 162 390 418 509 736 24 62 48 146 55 186 7 41 16 80 20 86 10 16 26
14 26 -3z m-220 -213 c0 -3 -30 -63 -66 -132 -77 -148 -190 -321 -264 -406
-120 -137 -286 -257 -488 -351 -149 -70 -178 -85 -264 -133 -32 -18 -58 -28
-58 -23 0 4 11 35 24 68 21 53 44 147 60 245 8 47 59 115 94 124 55 13 220 89
322 147 209 120 478 316 585 427 37 38 55 50 55 34z m-4376 -291 c34 -65 107
-148 155 -177 44 -26 51 -34 51 -62 0 -18 -2 -33 -4 -33 -2 0 -20 23 -40 50
-20 28 -48 56 -62 62 -23 11 -29 9 -44 -10 -14 -17 -16 -29 -10 -50 23 -76 71
-160 125 -218 14 -15 25 -39 25 -54 0 -29 18 -49 64 -71 33 -16 49 -53 71
-168 9 -47 23 -83 36 -97 21 -22 21 -23 4 -121 -27 -160 -37 -262 -33 -365 2
-54 1 -98 -2 -98 -3 0 -27 15 -55 33 -48 31 -103 104 -104 139 -1 26 -23 33
-38 13 -7 -11 -13 -14 -13 -8 0 6 -20 44 -44 84 -25 41 -43 75 -42 77 2 1 33
-5 70 -13 73 -17 122 -10 157 21 29 26 26 130 -5 192 -23 45 -66 95 -66 76 0
-5 7 -39 16 -76 9 -37 14 -74 10 -83 -6 -18 -36 -16 -139 7 -44 9 -52 8 -77
-10 l-28 -21 -40 52 c-57 74 -90 107 -109 107 -13 0 -14 2 -2 17 8 9 14 26 14
37 0 18 5 21 38 19 20 -1 37 1 37 4 0 12 -43 53 -56 53 -7 0 -36 28 -65 63
l-52 62 57 3 c37 2 74 -3 101 -14 25 -9 51 -14 59 -11 21 8 32 -16 40 -91 12
-106 50 -172 100 -172 9 0 30 13 47 28 38 34 36 52 -14 128 -41 62 -51 112
-31 159 8 19 14 52 14 73 0 42 -22 83 -34 63 -10 -16 -26 -4 -26 20 0 11 -16
78 -36 147 -39 142 -68 187 -104 165 -11 -8 -21 -9 -25 -3 -3 5 3 13 13 19 10
5 27 26 37 45 23 43 40 45 59 8z m3286 -358 c0 -3 -8 -18 -19 -32 -10 -15 -30
-79 -46 -142 -18 -76 -45 -152 -80 -225 -48 -101 -61 -118 -146 -200 -216
-209 -375 -407 -475 -594 l-29 -55 -7 105 c-5 57 -15 170 -23 250 -9 80 -13
165 -9 190 6 39 71 189 106 244 54 83 155 220 202 271 39 43 52 64 42 67 -7 3
-19 0 -25 -6 -9 -9 -11 -8 -5 6 9 25 51 33 73 13 25 -23 34 -20 29 9 -6 31 14
38 167 60 61 9 137 22 170 30 75 16 75 16 75 9z m-595 -165 c-4 -12 -26 -43
-49 -68 -49 -54 -131 -159 -167 -216 -113 -175 -127 -249 -92 -492 12 -83 17
-186 17 -348 l0 -230 -46 -155 c-90 -297 -118 -395 -118 -412 0 -42 -20 -22
-39 40 -27 89 -73 183 -167 339 -199 328 -269 513 -276 725 -1 55 29 105 134
223 100 112 430 391 584 496 82 55 216 130 222 124 2 -2 1 -14 -3 -26z m1325
-320 c0 -12 -45 -72 -109 -144 -134 -154 -176 -215 -222 -330 -35 -89 -37 -90
-100 -127 -103 -61 -184 -87 -349 -114 -280 -45 -370 -72 -513 -154 -40 -23
-102 -67 -137 -98 l-63 -56 7 37 c18 95 108 269 208 404 127 170 341 393 377
393 9 0 25 6 36 13 24 16 130 51 250 82 102 27 195 40 373 54 96 8 134 15 175
35 65 30 67 31 67 5z m-4087 -236 c80 -75 80 -75 123 -163 75 -155 190 -471
178 -491 -3 -5 -20 -9 -38 -9 -37 0 -42 8 -82 123 -22 64 -22 70 -7 93 15 23
15 28 1 57 -9 18 -41 65 -72 104 -60 76 -93 96 -128 74 -11 -7 -21 -11 -23 -9
-4 4 -35 235 -35 259 0 31 18 23 83 -38z m10027 -109 c30 -8 62 -14 72 -14 23
0 90 -86 128 -164 62 -132 79 -248 80 -551 1 -151 5 -256 15 -305 7 -41 16
-91 20 -110 l6 -35 -25 30 c-36 42 -83 133 -110 213 -22 65 -41 169 -100 546
-27 174 -34 190 -142 335 -30 39 -54 74 -54 77 0 5 16 1 110 -22z m-9085 -204
c14 -27 29 -51 35 -55 5 -3 10 -20 10 -36 0 -17 4 -28 8 -25 11 6 42 -91 42
-128 l0 -28 -37 32 c-50 44 -57 57 -87 179 -33 135 -21 160 29 61z m845 -132
c20 -126 49 -217 106 -330 35 -70 131 -234 180 -308 77 -118 138 -267 154
-377 19 -138 -10 -313 -92 -558 -32 -96 -100 -249 -114 -258 -5 -3 -9 66 -10
156 0 91 -5 179 -12 201 -8 29 -8 51 -1 82 19 72 -16 134 -76 134 -7 0 -32 35
-55 78 -71 130 -130 210 -205 280 -40 37 -75 78 -79 90 -4 13 -18 27 -31 32
-30 12 -40 70 -32 190 9 117 28 205 75 336 40 111 162 378 169 370 2 -2 12
-55 23 -118z m1915 15 c-4 -10 -10 -144 -15 -298 -6 -214 -13 -306 -29 -390
-20 -104 -46 -213 -53 -220 -2 -2 -38 -22 -80 -45 -99 -53 -247 -85 -468 -100
-374 -25 -539 -54 -648 -115 -25 -14 -47 -24 -49 -21 -6 5 71 310 108 429 18
55 36 97 43 97 14 0 36 42 36 69 0 25 65 129 108 174 54 56 157 130 237 169
101 51 210 83 375 113 195 35 331 82 405 139 27 21 39 20 30 -1z m-3607 -55
c7 -7 12 -28 12 -47 0 -52 16 -100 50 -154 16 -26 30 -56 30 -66 0 -24 -31
-37 -42 -17 -5 8 -25 36 -44 62 -26 34 -34 52 -30 70 7 26 -11 33 -31 13 -8
-8 -14 4 -21 43 -6 29 -13 63 -17 75 -6 19 -3 22 32 26 21 2 40 4 44 5 3 1 10
-3 17 -10z m352 -3 c16 -8 38 -28 50 -45 23 -32 63 -141 74 -205 16 -83 68
-145 121 -145 23 0 85 30 85 41 0 4 -18 14 -41 21 -45 13 -43 10 -103 161
l-35 89 27 -8 c15 -4 45 -8 66 -8 34 -1 43 4 62 32 24 36 26 34 38 -39 9 -50
63 -111 100 -111 15 0 34 6 42 14 13 13 12 17 -10 31 -26 17 -46 70 -46 121
l0 29 25 -27 c13 -14 28 -26 33 -26 5 0 21 -11 36 -25 23 -22 26 -31 26 -97 1
-40 7 -90 15 -112 10 -29 11 -53 4 -95 -5 -31 -9 -72 -9 -92 0 -31 -4 -38 -30
-49 -67 -28 -160 -126 -160 -169 0 -9 -7 -29 -15 -45 -8 -15 -15 -37 -15 -47
0 -23 46 -46 111 -54 36 -5 48 -11 52 -27 5 -19 11 -20 56 -15 28 3 53 2 56
-4 4 -5 13 -9 21 -9 11 0 13 6 9 20 -5 15 0 21 22 27 80 20 136 -3 147 -62 5
-22 21 -49 46 -73 21 -20 44 -50 50 -67 22 -56 30 -152 21 -242 -12 -113 -51
-257 -65 -243 -7 7 -6 14 2 22 18 18 15 53 -12 127 -25 70 -141 299 -185 366
-28 42 -61 55 -87 35 -21 -18 -17 -51 15 -121 29 -63 81 -244 81 -283 0 -17
-5 -15 -36 15 -44 41 -72 98 -54 109 7 4 9 16 5 29 -5 16 -14 21 -41 21 -22 0
-37 -6 -40 -15 -13 -33 -23 -18 -75 120 -13 33 -30 68 -38 78 -21 25 -59 22
-72 -7 -22 -48 52 -226 171 -410 66 -102 89 -128 149 -170 22 -17 41 -38 41
-48 0 -15 -9 -18 -53 -18 -82 0 -138 42 -226 170 -37 54 -99 192 -113 250 -11
50 -11 53 12 70 28 21 27 22 -17 39 -31 13 -74 6 -123 -19 -21 -11 -17 -89 10
-163 l22 -59 -43 -44 c-34 -34 -46 -41 -55 -32 -22 26 -54 119 -61 178 -6 58
0 71 23 51 5 -4 24 -13 42 -19 56 -19 34 7 -61 71 -48 32 -87 65 -87 72 0 7
-7 15 -15 19 -8 3 -15 15 -15 26 0 23 -25 27 -34 5 -3 -8 -9 -15 -14 -15 -13
0 -47 97 -78 225 -27 113 -39 145 -58 157 -8 5 -7 11 2 20 19 19 14 54 -14 87
l-26 31 28 -10 c15 -6 51 -8 78 -5 31 4 78 0 121 -10 39 -8 103 -22 144 -30
41 -8 82 -22 92 -30 12 -12 19 -13 24 -5 9 15 -29 55 -68 71 -18 7 -33 13 -35
15 -2 1 8 13 22 27 23 23 26 34 26 102 0 69 -2 75 -20 75 -13 0 -29 -13 -42
-36 -20 -35 -21 -35 -73 -29 -67 9 -108 0 -146 -32 -26 -22 -34 -24 -55 -15
-13 7 -24 20 -24 29 0 10 -7 27 -15 37 -18 24 -19 56 -3 90 10 23 15 25 48 20
29 -5 40 -2 51 12 8 11 28 20 47 21 40 1 61 18 79 62 16 37 10 118 -13 185
-22 62 -20 65 26 41z m17014 -307 c-185 -253 -260 -342 -404 -481 -228 -220
-576 -484 -807 -614 -71 -39 -228 -83 -301 -83 -24 0 -57 -7 -74 -16 -27 -14
-60 -15 -257 -10 -285 9 -791 -21 -1012 -59 -143 -25 -408 -129 -614 -240 -90
-48 -303 -144 -440 -198 -178 -70 -179 -70 -447 -75 -137 -2 -248 -1 -248 2 0
44 273 312 405 398 140 90 320 174 429 198 83 19 184 35 456 71 174 23 302 53
468 109 141 48 203 84 313 186 57 53 100 85 125 92 22 6 79 25 129 42 154 52
278 59 448 24 38 -8 114 -17 170 -20 80 -5 107 -11 123 -26 42 -38 156 -50
252 -27 26 7 142 56 257 111 447 211 484 235 738 476 135 128 371 310 404 312
7 0 -44 -78 -113 -172z m-13894 -667 c0 -19 -52 -146 -96 -234 -52 -102 -199
-351 -274 -463 -66 -96 -101 -111 -222 -95 -46 7 -220 13 -388 14 -291 2 -308
1 -380 -20 -41 -13 -76 -23 -77 -23 -2 0 14 35 36 78 46 93 78 179 121 332 37
128 60 159 149 204 100 50 177 62 556 86 94 6 202 16 240 21 88 13 216 52 275
84 49 27 60 29 60 16z m-1756 -233 l56 -105 -16 -39 c-17 -41 -87 -136 -124
-169 l-23 -20 6 20 c28 95 34 317 11 435 l-7 35 21 -26 c11 -14 46 -73 76
-131z m-295 107 c19 -18 71 -144 71 -172 0 -35 -38 -137 -91 -245 -50 -102
-54 -138 -16 -138 20 0 20 -1 5 -16 -14 -15 -18 -15 -42 1 -15 10 -37 15 -51
13 -36 -7 -38 3 -9 46 57 84 102 322 84 446 -14 92 -13 92 13 85 12 -4 28 -13
36 -20z m8685 -244 c3 -4 56 -12 117 -16 141 -9 209 -26 279 -71 51 -33 125
-70 245 -123 28 -13 86 -56 130 -97 99 -92 202 -162 266 -181 27 -8 49 -18 49
-23 0 -4 -16 -15 -35 -24 -19 -9 -37 -21 -40 -26 -3 -6 -52 -47 -108 -92 -99
-79 -200 -172 -339 -311 -73 -73 -288 -388 -354 -519 -92 -183 -204 -351 -316
-474 -40 -45 -88 -110 -106 -145 -18 -35 -49 -87 -70 -116 -60 -83 -238 -307
-256 -322 -9 -7 -16 -18 -16 -23 0 -24 -369 -447 -462 -529 -174 -153 -537
-417 -658 -479 -45 -23 -233 -94 -411 -155 -52 -18 -131 -51 -175 -73 -90 -45
-118 -51 -394 -87 -130 -16 -235 -36 -317 -59 -198 -57 -293 -67 -398 -40 -36
9 -31 19 21 48 76 42 324 219 406 290 92 78 248 282 427 556 258 395 351 567
538 985 118 264 174 377 367 745 148 281 236 425 335 550 171 216 448 459 754
661 153 101 226 136 312 149 71 11 203 12 209 1z m-9455 -207 c25 -28 70 -79
100 -113 80 -93 187 -136 252 -101 28 16 26 -16 -3 -41 -33 -27 -113 -25 -175
4 -78 36 -190 116 -272 194 l-76 72 44 45 44 45 20 -27 c12 -15 41 -50 66 -78z
m1194 -56 c16 -265 9 -334 -40 -390 -14 -15 -17 -14 -41 12 -25 26 -140 110
-204 149 -35 20 -36 37 -3 45 40 10 150 121 210 212 30 46 59 84 64 84 4 0 11
-51 14 -112z m-2432 -168 c10 -6 19 -18 19 -28 0 -33 47 -118 83 -149 43 -38
87 -48 170 -39 162 17 186 18 223 6 63 -20 107 -55 193 -156 89 -103 89 -105
67 -209 l-13 -60 -74 0 c-67 1 -83 5 -158 43 -56 28 -97 42 -124 42 l-39 0 8
43 c25 128 -28 245 -98 218 -34 -13 -41 -36 -23 -71 20 -39 19 -140 -2 -208
-17 -52 -22 -57 -161 -164 -79 -60 -146 -108 -148 -105 -2 2 5 25 17 52 16 35
20 63 18 109 -2 43 3 82 19 130 12 37 22 88 22 112 0 52 -31 138 -60 169 -12
12 -20 28 -18 36 4 19 -77 36 -97 19 -23 -19 -19 -35 24 -84 60 -69 67 -160
21 -264 -23 -51 -25 -84 -8 -112 16 -25 2 -79 -50 -198 -29 -67 -45 -92 -77
-115 -42 -30 -135 -81 -135 -73 0 3 14 25 31 50 56 84 82 162 83 251 1 122
-33 165 -130 165 l-45 0 6 113 c3 61 8 129 10 149 4 32 1 40 -19 54 -31 19
-64 11 -71 -19 -7 -36 -25 -237 -25 -289 0 -72 29 -98 109 -98 58 0 60 -1 66
-30 10 -45 -21 -145 -75 -247 -28 -50 -50 -99 -50 -107 0 -14 -17 -16 -107
-16 -91 0 -259 16 -272 26 -2 2 15 31 36 66 99 157 127 242 112 340 -9 57 -48
107 -101 129 -16 6 -27 15 -26 20 4 9 338 264 420 321 101 68 294 155 403 181
11 3 21 5 23 6 2 0 12 -4 23 -9z m1690 -10 c12 0 15 -6 11 -26 -3 -16 1 -29 8
-34 18 -11 -4 -40 -30 -40 -46 0 -66 -30 -38 -58 15 -15 11 -18 -34 -26 -34
-6 -38 -4 -54 26 -19 36 -18 37 65 87 30 19 38 28 30 37 -14 18 -1 60 14 45 6
-6 18 -11 28 -11z m10531 -45 c78 -37 228 -92 294 -109 33 -9 120 -25 194 -36
172 -26 450 -92 450 -106 0 -41 -113 -79 -212 -70 -187 16 -288 18 -373 7
-117 -16 -183 -17 -395 -7 -145 7 -188 5 -250 -8 -78 -17 -436 -132 -516 -166
-26 -11 -49 -19 -51 -17 -16 17 412 364 567 460 72 44 92 52 144 55 34 2 65 8
71 13 13 13 19 12 77 -16z m-6097 -10 c224 -19 316 -32 380 -52 43 -14 197
-83 430 -193 142 -68 332 -195 675 -452 128 -96 257 -161 365 -183 44 -9 161
-24 260 -35 174 -19 234 -31 414 -85 46 -14 103 -25 128 -25 25 0 43 -3 41 -7
-2 -5 -40 -82 -84 -173 -45 -91 -103 -216 -130 -277 -27 -62 -53 -113 -59
-113 -5 0 -80 64 -166 143 -85 78 -180 160 -210 183 -420 315 -685 492 -853
568 -178 80 -314 127 -550 191 -239 64 -336 82 -556 101 -91 8 -223 19 -295
25 -179 16 -480 6 -620 -20 -112 -20 -140 -27 -555 -126 -129 -30 -284 -67
-344 -81 -131 -31 -265 -74 -343 -110 -242 -112 -418 -202 -535 -273 -145 -88
-288 -154 -420 -196 -119 -38 -136 -32 -54 18 95 58 233 165 279 216 39 44 87
75 282 186 290 164 558 285 734 330 170 44 355 117 592 236 264 132 451 202
583 219 92 12 383 4 611 -15z m-2797 -1 c122 -3 222 -8 222 -11 0 -11 -99
-108 -170 -167 -41 -34 -118 -91 -170 -127 -52 -35 -175 -128 -273 -206 -97
-79 -182 -143 -188 -143 -19 0 -104 48 -125 72 -22 24 -155 217 -192 279 -22
36 -22 37 -3 60 10 13 29 24 42 24 21 0 25 6 30 49 4 38 12 55 35 74 16 14 28
29 27 33 -4 13 26 25 122 47 130 31 127 31 280 26 77 -2 240 -7 363 -10z
m-1313 -99 c30 -37 40 -43 51 -34 11 9 28 0 84 -45 83 -68 151 -161 244 -338
20 -37 49 -82 64 -100 16 -18 59 -73 96 -123 36 -49 81 -100 99 -112 l31 -23
-115 0 c-103 0 -118 2 -134 20 -19 21 -37 18 -28 -5 4 -12 -5 -15 -42 -15 -44
0 -51 4 -83 41 -19 22 -72 68 -117 102 -46 34 -131 106 -190 160 -59 54 -133
115 -164 136 -55 38 -151 133 -151 151 0 5 9 11 19 15 36 11 73 48 91 91 10
23 29 48 42 55 13 6 31 19 42 28 16 14 77 36 112 40 7 0 28 -19 49 -44z
m-1086 -101 c40 -13 79 -24 87 -24 7 0 14 -10 16 -22 2 -13 13 -27 26 -33 23
-10 28 -43 13 -93 l-6 -23 -45 31 c-55 39 -130 111 -173 165 -25 31 -28 37
-12 31 11 -4 53 -18 94 -32z m356 -78 l70 -12 7 -75 c7 -64 11 -77 35 -96 16
-13 36 -23 46 -23 10 0 17 -8 17 -18 0 -10 5 -23 12 -30 24 -24 -1 -22 -68 6
-38 16 -104 42 -146 57 -60 21 -78 32 -78 46 0 11 -7 19 -15 19 -8 0 -15 9
-15 21 0 30 41 119 54 118 6 0 43 -6 81 -13z m258 -98 c36 -46 120 -141 186
-213 65 -71 118 -131 117 -132 -1 -1 -80 33 -175 76 -94 44 -167 82 -161 86 8
5 8 11 -1 21 -9 11 -9 24 0 53 6 21 11 45 11 54 0 25 -31 29 -55 7 -38 -36
-54 2 -39 93 11 62 40 51 117 -45z m-625 -137 c81 -55 105 -66 255 -116 158
-52 288 -102 302 -117 7 -6 -41 -7 -145 -3 -101 5 -168 4 -194 -3 -39 -11 -39
-11 -100 47 -69 66 -128 106 -177 119 -28 7 -34 13 -32 33 2 28 20 79 28 79 3
0 31 -17 63 -39z m17179 -161 c-6 -125 -27 -211 -60 -249 -37 -40 -148 -107
-217 -129 -36 -12 -126 -31 -200 -42 -74 -12 -178 -30 -230 -41 -230 -48 -243
-49 -592 -49 -186 0 -338 3 -338 8 0 9 162 114 225 145 65 31 156 58 330 97
77 17 201 50 275 75 74 24 203 62 285 85 196 53 324 115 430 207 l80 69 9 -30
c4 -17 6 -83 3 -146z m214 -235 c71 -120 170 -270 274 -418 153 -216 259 -446
322 -697 23 -91 26 -127 27 -270 1 -146 -2 -174 -23 -244 -26 -90 -105 -268
-108 -246 -37 270 -64 371 -141 545 -52 118 -81 170 -177 320 -74 115 -189
319 -223 396 -54 119 -122 388 -122 479 0 39 38 158 62 192 10 14 19 38 20 52
3 34 5 31 89 -109z m-331 -184 c0 -5 -32 -57 -71 -116 -39 -60 -98 -156 -131
-214 -33 -58 -91 -154 -130 -213 l-71 -108 -66 0 c-36 0 -115 -9 -176 -20
-219 -39 -476 -67 -740 -80 -241 -12 -521 -44 -629 -70 -94 -23 -154 -60 -228
-138 -54 -57 -154 -179 -177 -217 -10 -17 -11 -12 -6 29 16 121 100 288 244
486 110 152 355 380 428 399 79 21 218 30 525 35 345 6 394 11 603 61 77 19
183 41 235 50 161 27 262 55 325 89 33 19 61 34 63 35 1 0 2 -3 2 -8z m69
-227 c39 -205 128 -391 352 -731 109 -166 218 -385 253 -507 41 -143 61 -299
46 -366 -14 -64 -31 -92 -164 -260 -117 -146 -243 -280 -341 -360 -101 -82
-340 -238 -350 -228 -2 2 19 39 46 83 137 219 151 274 152 580 0 250 -8 313
-64 520 -86 315 -167 486 -302 631 -31 34 -57 67 -57 73 0 6 44 78 99 159 54
81 122 190 151 242 69 124 151 243 160 233 4 -4 13 -36 19 -69z m-543 -530
c-22 -59 -230 -328 -366 -475 -74 -80 -96 -98 -127 -103 -44 -8 -215 -56 -428
-121 -84 -26 -235 -61 -345 -80 -206 -37 -232 -42 -400 -82 -156 -36 -229 -60
-288 -94 -30 -17 -56 -28 -58 -26 -3 2 0 58 6 123 5 65 14 177 20 249 7 71 13
132 16 134 2 2 4 -3 4 -12 0 -47 80 4 250 158 52 48 108 93 124 102 59 31 324
67 681 93 377 27 587 60 850 135 65 18 68 18 61 -1z m122 -212 c113 -165 157
-268 232 -542 18 -63 38 -137 46 -164 21 -74 37 -313 31 -466 -5 -150 -19
-201 -84 -306 -96 -156 -136 -232 -141 -267 l-5 -37 -161 -51 c-248 -78 -274
-86 -376 -113 -100 -26 -327 -62 -337 -53 -3 3 4 21 15 39 26 42 124 257 168
371 100 254 134 422 134 653 0 186 -22 364 -51 411 l-21 33 80 85 c135 142
276 315 362 442 19 29 38 53 41 53 4 0 34 -40 67 -88z m-753 -530 c-22 -21
-119 -112 -215 -202 -96 -90 -177 -167 -180 -170 -10 -12 -318 -287 -375 -336
-94 -79 -103 -84 -134 -72 -14 6 -112 13 -218 16 l-191 5 -64 -30 c-34 -16
-81 -42 -103 -57 -46 -32 -54 -23 -27 31 26 51 57 166 78 288 17 97 18 101 64
146 26 26 76 61 111 78 74 36 350 107 590 150 198 36 294 62 504 134 197 68
214 70 160 19z m119 -114 c23 -191 23 -515 0 -633 -31 -163 -195 -566 -279
-690 l-41 -60 -62 -7 c-35 -4 -149 -12 -255 -17 -191 -11 -357 -24 -452 -37
-56 -7 -58 -14 28 92 26 33 65 95 86 139 56 114 73 195 69 337 -1 64 0 119 2
121 69 50 352 305 652 588 128 120 236 219 239 219 4 0 10 -24 13 -52z m-1044
-716 c0 -14 -211 -169 -640 -471 -93 -65 -287 -229 -346 -292 -63 -68 -147
-192 -186 -276 -17 -35 -33 -62 -36 -59 -8 8 18 152 38 210 38 112 100 205
247 371 116 131 140 162 196 254 28 46 67 96 85 111 57 46 252 140 312 149 71
11 330 13 330 3z m34 -204 c-13 -149 -70 -284 -180 -428 -31 -41 -61 -85 -67
-98 -10 -21 -30 -29 -112 -47 -169 -38 -428 -147 -645 -273 -57 -33 -107 -59
-109 -56 -11 11 123 188 204 269 126 127 227 208 485 395 124 89 258 188 298
219 67 51 123 91 130 91 1 0 -1 -33 -4 -72z"/>
<path d="M2376 8679 c-49 -39 -26 -98 48 -119 52 -14 116 -6 116 15 0 8 -18
29 -40 46 -26 21 -40 40 -40 56 0 19 -5 23 -29 23 -15 0 -40 -9 -55 -21z"/>
<path d="M2019 8415 c-80 -43 -89 -183 -14 -217 20 -9 22 -14 13 -33 -7 -17
-6 -30 6 -53 16 -31 93 -125 107 -130 15 -6 -5 44 -38 93 -18 27 -33 55 -33
60 0 24 27 47 66 55 62 14 134 58 134 82 0 17 -5 20 -27 15 -16 -3 -56 -9 -91
-13 -52 -6 -66 -4 -82 11 -35 31 -18 88 31 108 11 5 10 9 -5 21 -24 19 -33 19
-67 1z"/>
<path d="M2356 8271 c-16 -17 -17 -26 -8 -45 8 -18 22 -25 58 -31 l48 -7 -44
-20 c-24 -11 -69 -23 -101 -25 -55 -5 -59 -4 -86 26 -33 35 -53 28 -53 -20 0
-63 69 -101 146 -80 53 14 135 67 141 91 7 25 18 25 43 0 39 -39 59 -11 30 41
-11 19 -22 41 -25 50 -4 10 -21 20 -38 23 -87 18 -92 18 -111 -3z"/>
<path d="M7021 7248 c-36 -20 -48 -44 -33 -68 15 -25 14 -25 -178 -39 -80 -5
-167 -16 -194 -23 -39 -10 -50 -10 -53 0 -8 22 -32 13 -48 -17 -19 -38 -6 -81
26 -81 12 0 76 17 141 37 110 34 121 36 129 20 12 -21 45 -22 95 -1 24 10 81
19 146 22 98 4 109 3 143 -18 44 -27 55 -21 26 16 -12 15 -20 28 -19 30 5 5
283 -36 343 -50 52 -13 63 -13 82 -1 50 33 33 92 -35 121 -107 45 -515 83
-571 52z"/>
<path d="M3019 7092 c5 -10 17 -25 26 -32 14 -12 13 -16 -10 -40 -31 -32 -18
-49 18 -26 20 14 26 14 52 0 17 -8 39 -24 51 -35 11 -10 27 -19 36 -19 8 0 29
-22 46 -50 32 -52 72 -69 72 -32 0 18 -129 152 -147 152 -4 0 -32 23 -62 50
-55 51 -102 69 -82 32z"/>
<path d="M20257 8686 c-80 -49 -163 -125 -178 -163 -14 -38 3 -76 34 -71 14 2
21 9 21 21 -2 19 100 107 124 107 6 0 12 -11 12 -24 0 -26 44 -86 54 -75 4 4
5 60 4 126 l-3 120 -68 -41z"/>
<path d="M2949 8677 c-9 -17 -20 -32 -25 -32 -23 -1 -34 -20 -34 -60 0 -25 -5
-65 -12 -89 -10 -38 -9 -50 4 -78 9 -18 24 -52 33 -75 16 -39 40 -61 53 -48 3
3 7 31 10 63 2 31 12 75 23 98 32 68 23 222 -14 246 -18 12 -21 10 -38 -25z"/>
<path d="M16470 6266 c-148 -53 -169 -63 -176 -90 -3 -14 -3 -29 0 -34 3 -6
-15 -24 -42 -41 -68 -45 -92 -67 -92 -85 0 -23 43 -30 96 -17 77 20 248 112
332 178 34 28 42 40 42 68 0 24 -6 38 -19 45 -28 14 -35 13 -141 -24z"/>
<path d="M1663 6091 c-93 -49 -175 -113 -213 -165 -43 -58 -47 -82 -19 -112
32 -34 55 -31 75 11 22 48 65 81 176 139 111 58 138 81 138 116 0 62 -55 66
-157 11z"/>
<path d="M15364 5679 c-23 -24 -29 -39 -29 -74 0 -58 11 -65 41 -30 l24 30 -6
-30 c-11 -47 -38 -111 -98 -229 -32 -62 -53 -113 -48 -118 5 -5 27 -2 51 8 90
36 209 224 218 347 5 57 3 65 -22 95 -37 44 -89 45 -131 1z"/>
<path d="M15105 5495 c-44 -30 -122 -75 -175 -100 -196 -94 -185 -87 -188
-123 -3 -27 1 -34 24 -42 15 -6 34 -8 43 -5 9 2 49 9 89 15 127 18 337 141
368 217 21 50 2 87 -46 90 -28 2 -51 -9 -115 -52z"/>
<path d="M13935 5533 c-55 -8 -199 -44 -280 -70 -191 -62 -252 -107 -210 -153
36 -40 221 -19 330 37 27 15 30 14 43 -6 8 -11 17 -21 21 -21 4 0 7 33 7 73
l0 72 59 18 c90 28 115 39 115 48 0 9 -29 10 -85 2z"/>
<path d="M13006 5345 c-54 -54 25 -163 168 -231 135 -64 234 -67 386 -13 98
35 261 118 268 137 7 21 7 21 -258 -59 -99 -30 -176 -35 -245 -14 -118 34
-203 90 -233 154 -19 41 -59 53 -86 26z"/>
</g>
</svg>
