<?xml version="1.0" standalone="no"?>
<!DOCTYPE svg PUBLIC "-//W3C//DTD SVG 20010904//EN"
 "http://www.w3.org/TR/2001/REC-SVG-20010904/DTD/svg10.dtd">
<svg version="1.0" xmlns="http://www.w3.org/2000/svg"
 width="2223.000000pt" height="2206.000000pt" viewBox="0 0 2223.000000 2206.000000"
 preserveAspectRatio="xMidYMid meet">
<metadata>
Created by potrace 1.16, written by Peter Selinger 2001-2019
</metadata>
<g transform="translate(0.000000,2206.000000) scale(0.100000,-0.100000)"
fill="#000000" stroke="none">
<path d="M12935 21160 c-22 -4 -101 -13 -175 -19 -255 -22 -402 -51 -535 -106
-106 -44 -215 -100 -291 -150 -115 -75 -123 -78 -266 -119 -137 -40 -169 -40
-238 -6 -19 10 -53 23 -75 30 -22 7 -74 32 -115 56 -104 60 -179 78 -305 72
-110 -5 -128 -11 -327 -121 l-87 -48 -136 45 c-75 26 -151 57 -168 70 -49 36
-89 54 -195 87 -122 39 -184 36 -337 -15 -142 -47 -243 -107 -359 -215 -45
-41 -216 -299 -250 -375 -30 -67 -100 -130 -192 -172 -86 -39 -160 -44 -274
-19 -134 30 -247 14 -355 -49 -68 -40 -198 -168 -249 -245 -45 -68 -60 -102
-141 -326 -74 -203 -153 -355 -241 -464 -67 -83 -78 -103 -95 -169 -10 -41
-37 -109 -59 -149 -22 -41 -49 -106 -61 -146 -58 -198 -71 -230 -118 -300
-144 -212 -169 -364 -73 -444 25 -21 26 -24 13 -55 -42 -102 -50 -137 -51
-213 0 -44 -7 -102 -15 -129 -22 -73 -20 -213 5 -284 27 -78 59 -120 127 -168
94 -66 97 -87 44 -329 -16 -71 -32 -161 -36 -200 -4 -38 -22 -131 -40 -205
-82 -329 -46 -628 102 -852 51 -78 100 -121 238 -211 187 -120 337 -186 514
-224 110 -23 130 -24 376 -20 l260 3 144 38 143 37 282 -4 c241 -4 297 -7 393
-27 155 -31 178 -47 282 -198 91 -134 136 -174 220 -198 44 -13 66 -14 127 -5
83 12 123 6 219 -32 33 -13 92 -32 132 -42 70 -16 129 -48 210 -113 60 -47
116 -69 217 -82 50 -6 93 -13 96 -15 4 -2 76 -11 161 -19 143 -15 360 -62 379
-83 4 -4 33 -98 63 -208 30 -110 64 -229 75 -265 11 -36 48 -155 82 -265 67
-219 91 -306 144 -525 20 -80 45 -176 56 -215 11 -38 36 -162 55 -275 20 -113
42 -230 50 -260 15 -63 58 -289 75 -400 18 -119 88 -456 115 -555 13 -49 31
-148 40 -220 9 -71 27 -184 40 -250 13 -66 26 -149 30 -185 3 -36 18 -147 32
-248 13 -101 23 -185 20 -188 -2 -2 -31 40 -63 93 -144 238 -240 330 -420 399
-57 23 -86 27 -169 28 -93 1 -105 -1 -170 -32 -105 -50 -165 -101 -246 -209
-40 -54 -139 -181 -219 -283 -81 -102 -203 -264 -272 -360 -68 -96 -177 -245
-240 -331 -148 -199 -224 -310 -330 -484 -274 -451 -377 -669 -562 -1185 -128
-357 -142 -394 -152 -397 -5 -2 -14 7 -19 18 -17 36 -79 54 -141 41 -113 -23
-194 -77 -450 -300 -162 -141 -218 -205 -314 -357 -24 -38 -69 -103 -98 -144
-73 -99 -102 -164 -102 -226 0 -56 5 -67 37 -84 l23 -11 -34 -48 c-73 -105
-102 -215 -115 -442 -11 -195 0 -333 31 -400 17 -35 21 -60 19 -118 -3 -63 1
-80 28 -136 37 -78 51 -179 51 -388 0 -229 8 -251 151 -412 75 -83 86 -103
135 -241 51 -146 191 -164 379 -50 82 49 98 55 180 65 50 6 121 22 159 37 69
26 196 104 230 142 11 12 29 21 42 21 62 0 225 192 300 354 18 40 60 117 92
173 87 145 100 172 158 333 29 80 66 179 84 220 43 101 60 199 60 339 0 102
-3 127 -26 187 -14 38 -39 114 -56 169 -31 104 -60 164 -107 218 -30 35 -35
44 -109 193 -67 134 -83 192 -91 342 -8 146 -11 153 -103 261 -73 86 -147 141
-190 141 -102 0 -98 -100 6 -181 29 -22 67 -63 86 -90 32 -48 35 -57 46 -188
14 -156 30 -210 122 -401 41 -86 78 -148 121 -198 33 -40 61 -82 61 -93 0 -28
29 -127 47 -163 13 -25 13 -41 -1 -135 -8 -58 -18 -135 -21 -171 -9 -92 -43
-309 -55 -349 -5 -19 -27 -64 -49 -100 -44 -72 -75 -141 -97 -211 -8 -25 -22
-56 -32 -69 l-19 -23 5 31 c2 17 0 31 -4 31 -5 0 -85 -76 -177 -168 -92 -92
-182 -175 -200 -184 -37 -18 -130 -48 -135 -43 -2 1 24 45 57 97 34 52 61 101
61 108 0 8 8 23 19 34 24 27 36 66 21 66 -12 0 -7 70 7 106 3 9 -2 14 -15 14
-19 0 -59 -49 -83 -102 -7 -17 -22 -29 -39 -33 -34 -7 -45 -20 -100 -115 -49
-85 -160 -250 -167 -250 -3 0 -2 35 2 78 5 52 18 103 40 158 55 133 65 186 65
347 0 84 7 197 17 269 24 163 23 380 -1 518 l-18 105 45 120 c83 216 91 249
92 365 0 75 -5 122 -19 166 l-18 61 35 104 c20 57 61 161 90 231 51 119 54
128 38 143 -46 41 -86 9 -150 -120 -56 -113 -88 -208 -96 -288 -6 -58 -4 -72
20 -126 35 -77 31 -142 -12 -222 -153 -282 -169 -322 -159 -394 6 -35 19 -59
56 -101 30 -34 53 -71 57 -93 15 -69 7 -203 -16 -286 -36 -125 -48 -184 -56
-262 -5 -51 -11 -73 -20 -73 -23 0 -53 -49 -64 -103 -6 -29 -17 -99 -25 -157
-10 -77 -21 -120 -41 -158 -17 -33 -30 -77 -34 -117 -8 -70 -16 -88 -26 -56
-13 41 -57 61 -137 61 -64 0 -77 3 -95 22 -29 32 -41 85 -53 234 -28 349 -62
456 -152 470 -24 4 -38 12 -38 21 0 27 -32 83 -47 83 -8 0 -17 -9 -20 -20 -3
-11 -11 -20 -18 -20 -10 0 -12 44 -9 203 8 411 19 485 95 625 21 41 39 78 39
84 0 6 -13 8 -35 4 -19 -4 -35 -4 -35 -1 0 17 112 193 184 290 103 137 153
188 389 395 220 193 286 241 362 265 75 23 86 18 72 -35 -19 -70 12 -95 78
-63 31 15 46 34 87 113 46 87 204 368 300 533 22 37 90 140 153 227 62 88 135
195 161 237 129 209 303 461 400 578 99 119 158 197 389 510 241 326 295 398
366 485 134 167 243 250 330 250 54 0 138 -28 195 -66 77 -51 144 -128 240
-275 162 -248 209 -338 254 -489 12 -41 28 -82 35 -90 47 -60 110 -420 150
-865 29 -324 36 -392 51 -480 16 -106 18 -178 4 -260 -6 -33 -15 -170 -20
-305 -5 -135 -15 -263 -22 -285 -8 -26 -12 -144 -14 -340 -3 -399 -23 -702
-80 -1175 -18 -157 -38 -359 -44 -450 -5 -91 -15 -194 -20 -229 -6 -35 -15
-197 -20 -360 -9 -317 -28 -529 -60 -681 -10 -52 -29 -194 -40 -315 -11 -121
-29 -290 -41 -375 -11 -85 -26 -204 -34 -265 -37 -283 -71 -620 -95 -940 -11
-148 -42 -385 -66 -497 -7 -37 -18 -140 -24 -230 -18 -274 -42 -412 -140 -788
-22 -85 -49 -193 -59 -240 -11 -47 -22 -93 -26 -103 -6 -15 0 -17 53 -17 71 0
59 -23 122 225 22 88 52 196 65 240 45 151 87 339 96 429 4 50 16 172 24 271
9 99 23 213 30 255 22 116 44 314 60 545 8 116 19 251 25 300 6 50 17 153 25
230 8 77 24 208 34 290 52 409 71 572 81 705 6 80 17 173 25 207 40 173 55
348 65 763 10 383 32 772 55 940 19 145 44 438 55 640 4 85 15 187 24 225 11
46 19 152 24 312 8 227 12 266 28 250 12 -12 17 -589 6 -692 -6 -55 -16 -194
-22 -310 -22 -447 -46 -813 -71 -1065 -5 -52 -12 -354 -15 -670 -3 -388 -9
-627 -19 -735 -8 -88 -19 -257 -25 -375 -5 -118 -16 -271 -24 -340 -8 -69 -19
-179 -25 -245 -6 -66 -18 -191 -26 -277 -8 -87 -28 -238 -44 -335 -17 -98 -35
-236 -40 -308 -10 -120 -30 -266 -81 -585 -11 -69 -25 -165 -30 -215 -6 -49
-28 -198 -49 -330 -22 -132 -42 -264 -45 -293 l-5 -53 42 3 c36 3 42 6 45 28
4 33 27 159 62 345 16 83 36 204 45 270 9 66 32 208 50 315 40 228 60 377 75
550 7 69 22 188 35 265 44 261 104 900 125 1340 6 121 15 279 20 350 6 72 10
299 10 505 0 407 12 742 34 995 15 162 29 417 28 490 -1 38 0 38 8 11 5 -16
14 -110 20 -210 6 -99 17 -251 25 -336 8 -85 19 -265 25 -400 6 -135 13 -254
16 -265 3 -11 9 -220 14 -465 5 -245 16 -526 25 -625 9 -99 22 -344 30 -545
13 -327 41 -717 61 -840 4 -25 8 -319 9 -655 1 -426 5 -634 14 -690 7 -44 20
-155 31 -247 10 -92 21 -172 25 -178 6 -10 117 -15 126 -5 6 5 -2 74 -45 442
-26 215 -26 237 -25 745 2 525 -2 617 -41 943 -17 140 -29 312 -45 615 -8 162
-20 345 -26 405 -5 61 -14 361 -19 667 -4 307 -11 561 -13 566 -3 4 -11 109
-17 232 -6 124 -15 270 -20 325 -19 196 -30 374 -40 645 -10 278 -31 584 -49
740 -6 47 -15 177 -21 290 -6 113 -13 212 -15 220 -3 8 -12 101 -20 205 -9
105 -20 233 -25 285 -5 52 -10 187 -10 300 0 123 -6 243 -15 300 -41 280 -58
400 -75 545 -11 88 -28 228 -39 310 -12 83 -25 188 -31 235 -17 135 -114 724
-171 1040 -32 171 -67 390 -74 460 -4 36 -21 130 -37 210 -43 202 -47 227 -47
294 -1 73 -31 253 -76 456 -19 85 -46 227 -61 315 -14 88 -37 207 -51 265 -13
58 -39 182 -58 275 -52 256 -63 308 -105 460 -21 77 -55 209 -75 293 -20 84
-50 201 -66 260 -46 166 -95 343 -139 502 -22 80 -49 178 -61 219 -11 40 -19
74 -17 76 2 1 71 5 154 8 l151 6 6 -89 c4 -49 16 -129 26 -177 11 -48 32 -191
46 -318 30 -274 49 -378 115 -630 27 -104 56 -230 64 -280 26 -161 86 -428
121 -540 18 -60 36 -123 39 -140 9 -44 25 -210 35 -365 6 -74 23 -209 40 -300
17 -91 35 -208 41 -260 15 -134 45 -300 75 -405 50 -175 74 -310 90 -489 28
-335 37 -410 66 -591 29 -180 50 -286 89 -445 11 -47 34 -161 51 -255 28 -157
31 -196 39 -520 5 -192 16 -413 25 -490 20 -185 53 -451 66 -545 6 -41 10
-172 9 -290 -1 -118 -1 -235 -1 -260 -1 -167 22 -819 31 -880 5 -41 15 -160
20 -265 6 -104 15 -215 20 -245 5 -30 21 -158 35 -285 14 -126 34 -291 45
-365 20 -139 32 -322 50 -730 12 -271 23 -473 45 -790 25 -381 34 -452 89
-770 14 -80 32 -203 40 -275 9 -71 22 -188 31 -260 24 -206 65 -567 81 -725 8
-80 19 -172 24 -205 5 -33 14 -125 20 -205 17 -231 39 -474 57 -627 l16 -143
69 0 70 0 -7 73 c-3 39 -13 128 -21 197 -8 69 -23 211 -34 315 -25 254 -49
465 -54 490 -3 11 -12 79 -21 150 -8 72 -20 153 -25 180 -16 80 -48 329 -59
465 -6 69 -16 163 -21 210 -5 47 -14 130 -20 185 -6 55 -26 177 -45 270 -49
246 -63 370 -75 640 -6 132 -15 278 -20 325 -6 47 -17 247 -25 445 -21 500
-33 677 -55 845 -10 80 -26 206 -35 280 -8 74 -24 210 -35 302 -11 92 -20 200
-20 240 0 40 -7 143 -16 228 -8 85 -19 279 -24 430 -5 151 -15 329 -24 395 -8
66 -17 244 -21 395 -3 151 -12 336 -20 410 -49 435 -74 810 -75 1095 0 138
-24 312 -61 445 -42 151 -69 268 -89 385 -34 204 -69 465 -75 570 -11 174 -45
406 -76 513 -16 56 -29 124 -29 150 0 26 -7 79 -16 117 -22 102 -40 213 -59
360 -19 145 -27 198 -49 300 -17 76 -41 297 -51 465 -6 100 -12 127 -76 340
-19 64 -71 311 -84 400 -14 100 -47 261 -76 370 -67 258 -98 433 -119 666 -6
65 -25 184 -41 264 -17 79 -32 171 -32 204 l-2 60 65 12 c36 8 126 18 199 24
74 6 151 14 170 20 20 5 92 14 161 20 336 29 430 71 581 258 89 110 150 207
281 452 110 204 328 631 328 643 0 6 53 120 157 337 80 168 187 363 206 377
24 18 95 33 159 33 124 0 215 28 265 81 29 30 65 47 158 74 72 21 171 69 203
99 78 70 69 143 -36 288 -34 47 -62 94 -62 106 0 29 49 82 146 158 149 117
171 158 141 270 -20 72 -22 131 -6 171 20 52 91 111 170 139 77 28 173 76 319
161 79 46 86 52 109 106 l24 56 -29 37 c-16 20 -42 57 -59 83 -16 26 -41 58
-54 72 -26 26 -71 115 -71 140 0 8 7 37 16 62 17 49 74 107 105 107 10 0 41
19 71 43 29 23 66 51 82 61 l29 18 -7 107 c-10 136 -32 255 -58 306 -24 48
-91 123 -132 149 -42 25 -93 42 -184 61 -102 21 -161 45 -383 158 -102 52
-200 99 -217 105 -17 6 -36 23 -44 39 -25 52 -53 43 -174 -53 -60 -48 -140
-108 -179 -133 -80 -52 -204 -121 -216 -121 -5 0 -9 22 -9 49 0 65 -94 352
-151 462 -78 149 -200 256 -434 380 -127 67 -186 107 -309 209 -55 45 -124
100 -153 121 -39 29 -53 46 -53 64 0 29 -25 57 -72 81 -68 34 -68 34 -68 184
0 126 -2 140 -23 171 -37 57 -96 79 -202 78 -49 -1 -108 -5 -130 -9z m224
-139 c15 -15 20 -41 26 -129 6 -101 9 -113 36 -145 18 -22 49 -42 88 -57 54
-20 72 -40 37 -40 -8 0 -46 -33 -85 -72 -83 -84 -130 -171 -161 -293 -11 -44
-35 -111 -54 -150 -50 -104 -63 -146 -95 -295 -16 -74 -39 -169 -50 -210 -11
-41 -35 -133 -53 -205 l-33 -130 -7 65 c-11 100 -14 378 -4 445 11 75 -7 65
-30 -16 -9 -30 -20 -70 -27 -89 -7 -23 -11 -161 -12 -395 0 -231 -5 -374 -12
-400 -6 -22 -16 -85 -22 -140 -7 -55 -16 -120 -21 -145 -10 -45 -32 -259 -51
-485 -5 -66 -12 -247 -15 -402 -2 -156 -8 -292 -13 -304 -7 -20 -10 -17 -36
27 -15 27 -62 99 -104 159 -81 119 -211 333 -211 348 0 6 -20 60 -44 121 -73
183 -80 219 -81 411 0 169 0 170 28 218 42 71 80 110 212 220 205 169 222 185
239 220 20 43 21 106 2 151 -8 18 -36 58 -63 88 -44 48 -50 62 -62 127 -10 54
-20 81 -42 105 -26 30 -35 34 -101 39 -40 3 -118 18 -173 33 -55 15 -138 30
-185 33 l-85 6 -7 45 c-4 25 -16 101 -27 170 -32 188 -40 296 -41 507 0 176 1
192 18 197 10 3 54 29 97 57 110 70 324 175 416 204 93 29 196 49 394 75 83
11 188 26 235 34 121 20 157 19 179 -3z m-3058 -271 c66 -19 117 -66 185 -171
74 -114 112 -190 150 -304 14 -44 32 -93 39 -110 35 -78 66 -167 62 -172 -11
-10 -28 10 -57 66 -65 129 -192 198 -348 189 -98 -6 -141 -25 -300 -135 -141
-98 -265 -211 -353 -320 -56 -70 -139 -220 -139 -250 0 -22 -27 1 -36 30 -4
12 -58 125 -120 251 -101 204 -113 234 -108 265 11 55 30 91 85 156 28 33 89
117 135 188 126 190 177 239 304 287 110 41 402 59 501 30z m976 -70 c26 -22
69 -58 95 -79 86 -71 201 -98 303 -70 22 6 81 31 132 57 73 36 95 43 106 34
10 -9 16 -52 21 -165 4 -83 11 -192 16 -242 6 -49 17 -162 26 -250 8 -88 19
-177 24 -197 12 -58 -1 -67 -120 -83 -124 -17 -219 -19 -254 -5 -34 13 -93 95
-100 141 -3 20 -13 42 -21 49 -12 10 -15 37 -15 125 0 129 -12 158 -67 158
-25 0 -45 -15 -111 -82 -113 -116 -114 -115 -116 79 -1 85 -6 241 -11 346 -4
106 -5 199 -2 208 10 27 42 18 94 -24z m-173 -52 c3 -35 7 -195 9 -357 l3
-294 -75 7 c-41 3 -103 6 -138 6 -56 0 -64 2 -72 23 -5 12 -29 76 -52 142 -23
66 -66 172 -94 235 -75 167 -75 160 -5 160 64 0 124 19 300 95 58 24 108 45
112 45 3 0 9 -28 12 -62z m2586 -228 c157 -141 212 -184 325 -250 304 -179
349 -218 418 -360 53 -110 129 -311 158 -420 18 -69 18 -76 3 -85 -456 -278
-684 -500 -1064 -1035 -181 -254 -225 -328 -338 -560 -243 -503 -316 -650
-324 -650 -12 0 -10 148 3 156 6 3 21 27 33 53 20 44 21 60 21 416 1 285 5
401 18 505 21 172 37 380 37 489 0 82 13 136 23 101 9 -30 71 -218 99 -300 27
-81 44 -206 65 -500 3 -36 8 -69 12 -73 10 -10 25 213 26 383 0 135 0 135 -43
255 -60 164 -80 232 -107 353 l-23 104 39 126 c22 70 55 170 74 222 38 106 50
166 61 296 4 49 13 101 20 115 14 28 59 167 92 284 11 39 30 104 42 145 32
116 114 297 152 337 15 16 25 20 37 13 9 -4 72 -59 141 -120z m-3232 -334 c35
-18 65 -52 90 -101 11 -22 35 -54 54 -71 54 -50 85 -58 201 -49 133 11 315 6
338 -8 15 -9 25 -8 46 4 16 9 43 19 61 23 19 3 46 15 62 26 15 11 30 20 33 20
3 0 8 -18 12 -40 4 -23 18 -54 31 -70 14 -16 40 -60 60 -98 41 -82 96 -136
156 -153 71 -19 331 -5 458 25 128 31 137 31 247 5 48 -12 121 -27 162 -33
l75 -11 17 -69 c10 -39 32 -89 50 -115 17 -25 34 -61 36 -81 6 -44 -11 -90
-33 -90 -10 0 -33 -18 -52 -41 -19 -22 -87 -83 -151 -136 -189 -156 -371 -355
-449 -491 -124 -213 -153 -270 -243 -470 -67 -149 -57 -310 27 -437 74 -110
104 -147 199 -247 98 -101 180 -200 204 -246 10 -18 9 -23 -3 -28 -27 -10 -81
0 -82 16 -1 8 -2 25 -2 37 -1 12 -14 35 -28 52 -33 39 -84 43 -108 9 -20 -28
-20 -56 -1 -101 9 -22 15 -66 15 -109 l-1 -73 -18 55 c-28 79 -71 104 -71 41
0 -16 -3 -49 -6 -75 -6 -43 -9 -46 -36 -46 -21 0 -33 -8 -48 -32 -37 -61 -19
-98 48 -98 l29 0 6 -78 c3 -43 9 -87 13 -97 5 -15 -2 -11 -27 13 -21 19 -45
32 -61 32 -20 0 -28 7 -37 32 -6 17 -36 76 -66 130 -44 79 -53 103 -49 128 4
19 2 30 -4 30 -6 0 -17 18 -23 41 -13 42 -41 69 -71 69 -18 0 -22 12 -31 81
-3 19 -12 52 -21 72 -13 31 -20 37 -46 37 -44 0 -56 -30 -41 -111 6 -34 18
-70 27 -81 16 -17 19 -17 35 -2 21 19 37 1 18 -22 -7 -8 -13 -37 -13 -64 -1
-53 7 -47 -90 -67 -22 -5 -43 -16 -50 -28 -11 -20 -26 -35 -37 -35 -3 0 -9
116 -12 258 -5 239 -8 263 -31 338 -27 83 -107 228 -181 324 -55 71 -149 160
-250 236 -97 74 -123 88 -202 108 -34 9 -92 30 -130 47 -75 34 -146 55 -298
89 -131 30 -243 74 -276 109 -20 22 -34 57 -54 142 -33 140 -63 199 -117 229
-35 20 -48 21 -126 16 -96 -7 -86 -12 -135 65 -16 24 -16 27 12 65 73 98 156
294 167 391 4 32 14 90 24 128 9 39 15 86 13 105 -6 52 52 142 171 267 82 86
129 124 262 213 89 60 175 111 191 113 44 8 132 -2 161 -17z m-1172 -301 c72
-138 194 -391 194 -402 0 -1 -25 -10 -55 -19 -54 -17 -56 -17 -129 6 -61 19
-88 22 -148 17 -96 -7 -179 -39 -217 -83 l-30 -34 3 -168 c5 -175 4 -172 75
-414 39 -131 73 -288 96 -433 27 -171 11 -418 -45 -715 -40 -210 -50 -302 -50
-447 0 -206 25 -331 123 -619 30 -87 58 -168 62 -178 5 -12 5 -17 -2 -13 -13
8 -209 303 -261 392 -41 71 -69 103 -109 124 -28 14 -29 14 -47 -5 -20 -19
-21 -53 -2 -68 18 -14 86 -147 86 -167 0 -18 42 -124 75 -189 31 -61 89 -137
167 -218 35 -37 92 -101 126 -143 33 -42 84 -97 113 -123 28 -26 50 -48 48
-50 -8 -7 -191 73 -346 152 l-158 79 -21 74 c-23 85 -32 99 -134 230 -41 52
-116 151 -166 220 -110 149 -279 371 -346 454 -28 36 -48 70 -48 85 -1 63 -37
64 -40 0 -4 -78 1 -88 156 -327 40 -62 69 -113 64 -113 -22 0 -7 -30 53 -102
34 -41 69 -85 77 -97 8 -13 59 -81 113 -153 54 -72 103 -140 109 -151 l11 -20
-34 19 c-48 28 -67 35 -74 24 -3 -5 36 -41 87 -79 52 -38 100 -76 107 -85 7
-9 18 -16 23 -16 5 0 42 -29 81 -65 128 -116 251 -189 392 -235 112 -36 234
-70 249 -70 14 0 126 -89 126 -100 0 -3 -37 -11 -82 -17 -46 -6 -117 -23 -158
-38 -41 -15 -97 -36 -125 -46 -77 -27 -205 -41 -373 -40 -164 1 -172 -2 -153
-50 7 -20 5 -29 -15 -48 -46 -44 -22 -89 64 -121 31 -11 64 -23 72 -27 30 -12
-67 -22 -230 -22 -135 -1 -186 3 -281 23 -196 40 -361 117 -488 231 -117 103
-187 207 -228 341 -16 52 -18 97 -18 384 0 314 1 327 23 392 14 41 27 110 32
175 5 59 14 143 20 186 16 115 5 146 -86 235 -40 41 -76 83 -80 94 -20 64 -21
137 -4 228 10 52 21 112 24 133 13 72 61 44 170 -101 60 -79 85 -96 133 -90
34 4 43 0 83 -40 36 -36 46 -42 48 -28 2 10 -3 25 -11 34 -7 9 -44 71 -82 137
-112 197 -166 259 -249 288 -35 12 -38 16 -41 55 -2 23 -13 59 -25 81 -16 28
-21 47 -16 68 4 15 16 78 26 138 27 156 32 173 75 239 38 59 105 198 120 246
7 25 63 90 77 90 4 0 19 -20 33 -43 21 -37 25 -56 25 -123 0 -187 31 -309 99
-387 48 -54 86 -73 180 -91 47 -8 87 -19 91 -23 4 -5 19 -46 34 -93 16 -47 34
-98 41 -115 34 -78 76 -163 96 -194 l23 -34 -25 13 c-24 13 -140 91 -220 149
-40 30 -79 41 -79 23 0 -14 164 -141 290 -225 63 -42 151 -110 195 -152 44
-41 83 -75 88 -75 14 0 7 22 -17 51 -14 16 -32 55 -41 86 -18 60 -37 94 -91
154 -58 66 -195 331 -179 347 10 11 58 -45 103 -122 26 -44 70 -102 97 -130
44 -46 70 -61 164 -98 l24 -9 -8 -262 c-11 -313 -9 -385 11 -414 18 -28 45
-29 68 -4 23 25 48 302 50 553 1 223 0 226 -112 273 -86 36 -117 65 -187 172
-70 106 -124 157 -212 199 -72 35 -72 35 -113 119 -33 68 -63 108 -151 201
-106 113 -109 117 -109 162 0 37 -10 64 -56 145 -31 54 -66 124 -79 155 l-23
57 52 50 c99 93 180 227 254 420 143 368 151 384 255 482 71 68 137 109 196
123 41 10 67 8 167 -10 163 -30 236 -25 301 22 l48 34 26 -60 c15 -34 66 -137
115 -231z m6012 -318 c23 -15 42 -29 42 -32 0 -3 -22 -16 -50 -30 -61 -31
-120 -78 -335 -271 -198 -177 -291 -271 -535 -544 -47 -52 -150 -167 -230
-255 -190 -209 -264 -298 -446 -540 -251 -334 -364 -506 -470 -717 -35 -70
-64 -129 -64 -132 0 -3 6 -6 13 -6 8 0 45 48 83 108 76 119 207 295 448 602
210 269 311 389 496 595 84 94 190 211 234 260 221 246 327 352 582 581 221
198 271 236 352 271 72 30 59 32 238 -30 55 -19 159 -44 230 -56 171 -29 181
-33 242 -94 62 -63 82 -113 88 -227 8 -127 -17 -164 -141 -214 -60 -25 -95
-50 -164 -117 -81 -80 -291 -239 -461 -350 -418 -273 -576 -381 -1110 -759
-282 -200 -646 -483 -835 -649 -282 -248 -285 -251 -259 -251 11 0 32 9 45 21
23 19 261 204 411 320 375 286 1172 839 1563 1084 210 132 430 284 565 394
l55 44 7 -38 c12 -56 76 -171 114 -205 38 -33 42 -45 18 -54 -11 -4 -15 -17
-12 -48 3 -42 2 -44 -47 -71 -28 -16 -120 -62 -205 -104 -168 -82 -217 -115
-249 -167 -17 -26 -80 -67 -299 -192 -276 -157 -560 -325 -702 -414 -387 -243
-505 -319 -750 -488 -118 -80 -407 -293 -551 -404 -34 -27 -65 -48 -70 -48 -5
0 -9 -7 -9 -15 0 -8 4 -15 9 -15 10 0 28 13 279 187 104 73 480 321 586 388
53 33 129 81 169 106 272 173 1268 759 1290 759 2 0 7 -22 10 -48 3 -27 18
-79 33 -116 l27 -68 -32 -31 c-17 -18 -75 -61 -129 -98 -114 -77 -153 -125
-160 -198 -5 -57 11 -91 98 -207 28 -36 50 -69 50 -73 0 -20 -43 -42 -126 -64
-107 -29 -143 -46 -206 -98 -69 -58 -111 -69 -252 -69 -137 -1 -233 -11 -356
-40 -47 -10 -143 -27 -214 -36 -153 -19 -199 -32 -331 -91 -286 -128 -278
-122 -414 -263 -174 -178 -353 -319 -508 -400 l-60 -32 -89 31 c-102 36 -218
42 -281 16 -20 -9 -89 -67 -153 -130 -64 -63 -124 -115 -133 -115 -25 0 -23
75 4 125 49 92 110 172 156 204 169 118 282 293 387 598 24 71 58 158 75 196
17 37 36 91 42 120 7 28 45 115 86 192 41 77 164 320 273 540 181 363 210 415
316 565 460 651 684 865 1229 1175 196 111 301 184 369 254 39 40 40 40 60 23
12 -10 40 -30 64 -45z m-5880 -278 c30 6 57 9 59 8 9 -10 -94 -247 -108 -247
-12 0 -79 124 -79 146 0 10 -7 28 -15 38 -8 11 -15 32 -15 47 l0 27 51 -15
c42 -12 62 -13 107 -4z m-299 -78 l65 -29 21 -75 c27 -91 50 -134 143 -259 96
-130 100 -132 218 -125 l94 5 14 -26 c8 -15 26 -78 42 -141 37 -153 65 -194
162 -243 73 -36 137 -55 327 -97 55 -13 134 -39 175 -58 41 -19 113 -48 159
-64 165 -56 341 -220 465 -432 93 -159 94 -166 100 -517 4 -284 6 -311 28
-391 15 -52 41 -114 67 -155 23 -38 69 -112 102 -164 89 -143 188 -238 344
-330 133 -79 225 -177 285 -305 26 -55 55 -130 65 -168 l17 -67 -33 -38 c-19
-22 -42 -49 -52 -61 -16 -19 -25 -22 -65 -18 -26 3 -72 14 -102 26 -36 13 -79
20 -124 21 -58 0 -76 4 -115 29 -25 15 -120 68 -211 116 -245 129 -315 179
-488 349 -316 310 -451 515 -570 861 -67 197 -155 564 -192 800 -14 88 -38
155 -58 155 -10 0 -12 -6 -7 -22 8 -27 11 -65 25 -264 15 -209 73 -496 149
-732 74 -228 188 -429 358 -634 110 -133 324 -342 429 -421 86 -65 282 -172
434 -237 71 -30 117 -60 94 -60 -6 0 -28 -13 -49 -30 -36 -28 -43 -30 -130
-30 -305 0 -586 129 -951 438 -285 240 -432 412 -544 637 -104 211 -147 341
-181 555 -15 98 -18 110 -31 110 -13 0 -7 -79 16 -240 47 -322 206 -642 439
-886 166 -175 406 -379 566 -482 36 -23 60 -42 53 -42 -6 0 -60 20 -121 45
-60 25 -118 45 -129 45 -10 0 -38 20 -61 45 -23 25 -54 51 -69 59 -15 7 -77
16 -140 19 -186 11 -273 31 -356 84 -102 66 -213 181 -275 286 -166 283 -293
584 -361 858 -41 162 -38 414 7 656 l17 92 21 -67 c11 -37 25 -66 30 -64 12 3
12 45 2 317 -9 249 -22 411 -36 450 -5 17 -15 71 -21 120 -15 122 -51 289
-101 475 -29 111 -43 183 -46 253 -7 113 -9 110 86 68z m-1001 -712 c62 -69
109 -145 127 -206 6 -20 3 -23 -25 -23 -76 0 -140 55 -164 143 -21 74 -31 171
-18 166 6 -2 42 -38 80 -80z m4009 -164 c19 -57 61 -130 115 -200 50 -66 74
-103 180 -272 23 -38 85 -126 138 -198 117 -158 131 -182 160 -265 28 -82 37
-239 21 -404 -10 -115 -12 -123 -71 -247 -33 -70 -84 -199 -113 -286 -39 -118
-64 -176 -99 -228 -45 -69 -233 -263 -244 -253 -3 3 12 45 32 94 107 259 140
454 132 764 -5 183 -24 290 -70 410 -53 137 -186 302 -344 426 -69 54 -85 73
-110 126 -25 55 -29 75 -29 153 0 84 3 95 37 166 21 42 63 111 94 155 32 43
78 108 103 144 l46 65 6 -60 c3 -33 11 -74 16 -90z m82 -1319 c1 -34 -1 -38
-20 -33 -15 4 -25 -2 -37 -22 -11 -17 -24 -25 -35 -23 -30 6 -47 -17 -47 -62
0 -55 18 -79 55 -74 23 2 35 13 54 47 14 25 26 40 29 33 6 -20 -28 -213 -54
-307 -54 -186 -99 -305 -116 -305 -11 0 -11 -2 18 71 61 152 94 260 94 311 0
31 -28 52 -55 41 -18 -6 -75 -117 -75 -145 0 -24 -18 -32 -24 -11 -3 10 -8 45
-11 78 -3 33 -8 75 -11 93 -5 30 -4 32 14 21 11 -7 27 -9 37 -6 16 7 16 22 10
200 l-7 192 29 -27 c17 -16 40 -28 56 -28 30 0 66 31 68 58 2 30 27 -61 28
-102z m-663 -116 c29 -61 30 -65 13 -72 -30 -11 -43 -51 -31 -87 6 -17 9 -31
7 -31 -2 0 -27 30 -56 68 -45 56 -53 73 -52 106 0 30 7 46 28 63 15 13 35 23
43 21 9 -2 31 -32 48 -68z m101 -250 c15 0 28 -11 39 -32 9 -18 32 -54 50 -81
19 -26 34 -51 34 -56 0 -4 20 -39 45 -76 76 -112 72 -114 -31 -15 -75 72 -97
98 -90 109 8 10 3 18 -16 33 -24 17 -112 121 -132 155 -4 7 13 1 36 -12 24
-14 53 -25 65 -25z m2599 -353 c-83 -144 -117 -219 -173 -382 -24 -71 -70
-179 -100 -240 -95 -186 -119 -234 -201 -407 -44 -92 -107 -207 -141 -255
-162 -235 -265 -318 -458 -368 -59 -16 -148 -40 -198 -53 -86 -24 -102 -25
-385 -26 -317 -1 -805 17 -960 34 -76 9 -107 18 -155 44 -33 19 -76 42 -95 52
-19 11 -37 20 -39 22 -10 6 37 31 88 47 31 10 72 25 91 35 71 37 249 248 303
358 l30 63 37 -6 c52 -9 164 20 224 56 28 17 89 60 136 94 47 35 113 82 147
106 34 24 86 63 116 86 108 83 124 88 278 85 130 -3 140 -2 210 26 41 16 121
44 179 61 116 36 192 66 228 89 13 8 57 57 98 108 83 103 134 149 243 218 138
89 544 284 560 270 2 -2 -26 -55 -63 -117z m-4431 -847 c32 -11 78 -31 101
-45 52 -30 131 -128 109 -133 -8 -2 -86 11 -172 28 -98 20 -213 35 -303 40
-222 14 -291 21 -285 30 3 4 17 11 32 15 15 3 68 22 117 42 50 19 111 39 136
44 67 12 199 2 265 -21z m545 -114 c358 -225 442 -253 720 -243 303 12 515 62
535 128 5 15 16 19 47 19 l41 0 -6 -37 c-9 -56 -84 -126 -168 -158 -48 -19
-86 -43 -132 -85 -36 -33 -76 -64 -90 -69 -14 -6 -95 -13 -179 -17 -126 -5
-165 -4 -219 10 -36 9 -99 19 -140 21 -41 1 -89 9 -107 15 -20 7 -52 10 -78 6
l-44 -6 -103 96 c-56 52 -128 114 -159 137 -42 31 -62 54 -75 87 -10 24 -32
72 -49 107 -17 35 -29 65 -27 66 2 2 36 -2 76 -10 56 -10 91 -25 157 -67z
m1943 -4700 c88 -31 156 -76 213 -140 100 -111 320 -467 349 -566 11 -37 4
-26 -70 105 -80 142 -132 212 -212 286 -98 91 -234 148 -350 149 -85 0 -196
-55 -295 -148 -47 -44 -241 -296 -367 -479 -157 -226 -380 -527 -498 -672
-148 -180 -194 -246 -368 -526 -65 -104 -159 -248 -210 -320 -51 -71 -106
-152 -123 -180 -39 -62 -40 -50 -3 40 176 430 452 902 784 1343 73 97 182 245
242 327 59 83 176 236 259 340 83 105 178 225 210 268 65 86 116 132 190 171
65 35 154 35 249 2z"/>
<path d="M11485 17220 c-22 -24 -31 -113 -16 -152 15 -40 56 -64 86 -50 29 14
50 79 41 134 -5 29 -3 38 8 38 24 0 30 22 11 37 -30 21 -108 17 -130 -7z"/>
<path d="M17827 17792 c-9 -10 -27 -47 -41 -82 -51 -135 -116 -259 -149 -284
-73 -55 -232 -113 -402 -147 -188 -38 -292 -89 -446 -221 -50 -43 -95 -78 -99
-78 -5 0 -62 -48 -127 -107 -65 -60 -181 -155 -258 -213 -244 -184 -301 -247
-505 -555 -124 -187 -241 -399 -270 -490 -28 -86 -5 -266 59 -460 82 -246 189
-553 223 -635 20 -47 43 -108 52 -137 21 -62 46 -248 53 -389 5 -97 4 -102
-16 -109 -11 -3 -41 -31 -67 -61 -26 -30 -75 -77 -110 -104 -106 -84 -261
-238 -334 -334 -282 -371 -306 -639 -97 -1068 36 -73 80 -156 97 -185 l31 -52
-53 -34 c-29 -19 -102 -65 -163 -103 -155 -97 -289 -206 -445 -364 -74 -75
-180 -175 -234 -221 -149 -125 -496 -475 -545 -547 -80 -118 -174 -347 -213
-517 -17 -76 -23 -150 -48 -555 -6 -96 -18 -238 -27 -315 -16 -148 -16 -119 6
-1326 5 -267 14 -555 20 -640 6 -85 16 -221 21 -304 5 -82 16 -206 25 -275 25
-209 44 -370 56 -485 6 -60 14 -137 18 -170 3 -33 3 -143 -1 -245 -4 -124 -2
-239 7 -350 8 -91 17 -282 20 -425 4 -143 10 -292 15 -331 5 -39 14 -154 20
-255 6 -101 15 -218 21 -259 6 -43 14 -384 19 -805 7 -706 8 -736 33 -920 26
-188 26 -200 36 -1200 10 -933 13 -1019 31 -1130 11 -66 20 -146 20 -177 l0
-58 36 0 36 0 -5 138 c-3 75 -11 250 -17 387 -6 138 -13 369 -14 515 -13 1155
-18 1355 -37 1500 -10 80 -23 179 -28 220 -6 44 -6 305 -2 635 4 308 4 650 0
760 -11 291 -28 560 -40 629 -5 34 -11 214 -13 401 -2 187 -8 387 -14 445 -6
58 -11 192 -12 297 0 106 -7 257 -15 335 -8 79 -22 211 -31 293 -8 83 -24 218
-34 300 -52 405 -101 2128 -70 2410 15 139 39 432 51 640 6 110 14 236 16 279
7 110 55 222 177 416 l97 155 327 325 c180 179 350 351 377 382 91 105 273
243 505 382 52 31 103 62 112 69 14 9 23 6 48 -18 18 -18 30 -39 30 -55 0 -24
-3 -26 -30 -22 -50 7 -76 -5 -167 -82 -49 -40 -136 -105 -195 -144 -59 -39
-131 -90 -160 -112 -74 -58 -357 -317 -453 -415 -89 -91 -314 -384 -359 -467
-126 -236 -154 -469 -167 -1393 -4 -346 -13 -682 -18 -745 -12 -145 -13 -1074
-1 -1240 11 -152 49 -520 55 -529 2 -4 8 -113 14 -242 11 -236 16 -311 51
-804 10 -148 22 -360 25 -470 3 -110 10 -240 15 -290 5 -49 16 -225 25 -390 8
-165 19 -325 25 -355 5 -30 14 -242 20 -470 5 -228 15 -459 20 -514 13 -127
13 -534 0 -1161 -20 -1003 -26 -1495 -21 -1740 l6 -250 51 -3 52 -3 5 513 c5
525 18 811 42 908 8 30 25 100 39 155 34 132 68 285 106 475 18 85 34 158 36
162 2 3 16 105 29 225 22 186 59 373 72 360 17 -17 61 -456 73 -722 10 -232
15 -270 36 -302 16 -25 55 -31 72 -11 5 7 18 40 27 73 10 33 38 125 62 205 24
80 51 165 58 190 35 115 123 613 143 810 12 110 49 280 62 280 5 0 14 -19 20
-42 28 -109 54 -175 76 -195 47 -43 86 -23 107 54 8 31 20 49 37 58 48 25 75
120 114 410 39 281 47 337 56 359 8 20 9 19 10 -4 2 -68 21 -273 31 -333 12
-74 38 -105 79 -92 33 10 46 42 71 172 12 68 25 120 28 117 3 -3 12 -33 21
-67 13 -52 19 -63 42 -71 20 -7 35 -6 53 4 33 18 51 80 120 412 77 372 88 421
147 631 6 20 13 37 17 37 3 0 14 -47 23 -105 24 -141 72 -237 113 -221 9 3 15
18 15 35 0 21 6 32 20 36 11 3 20 11 20 16 0 5 15 30 34 56 18 27 82 129 142
228 59 99 137 223 172 275 86 127 215 300 220 296 2 -3 -1 -53 -7 -112 -9 -92
-9 -111 4 -131 26 -38 52 -28 134 52 43 41 85 75 94 75 9 0 17 4 17 9 0 5 96
106 213 223 117 117 270 275 340 350 71 76 132 138 137 138 5 0 -7 -34 -26
-76 -39 -85 -40 -96 -18 -118 26 -27 51 -18 121 42 99 83 165 131 278 199 88
53 361 193 377 193 3 0 -35 -39 -84 -87 -104 -102 -172 -188 -203 -258 -26
-58 -41 -185 -22 -186 7 0 34 -30 61 -66 38 -51 47 -70 39 -82 -17 -27 -85
-68 -161 -97 -87 -34 -104 -51 -106 -103 -1 -49 19 -72 90 -103 29 -12 54 -29
54 -35 0 -19 -72 -68 -164 -112 -226 -109 -302 -141 -331 -141 -40 0 -85 -34
-85 -63 0 -48 -10 -64 -37 -59 -30 6 -43 -10 -43 -56 0 -25 10 -44 44 -80 41
-44 169 -128 229 -151 15 -6 27 -15 27 -20 0 -15 -149 -141 -230 -196 -39 -26
-153 -88 -253 -137 -200 -99 -291 -157 -313 -199 -39 -75 6 -146 113 -179 36
-11 81 -20 100 -20 20 0 32 -4 28 -10 -21 -34 -472 -293 -558 -320 -42 -13
-60 -38 -55 -78 4 -35 50 -58 151 -74 42 -6 77 -17 77 -23 0 -17 -94 -70 -261
-146 -85 -39 -175 -81 -202 -95 -45 -23 -362 -231 -419 -275 -52 -39 -29 -111
42 -134 10 -3 60 8 111 24 51 17 96 28 99 25 5 -6 -33 -42 -96 -88 -60 -45
-214 -204 -264 -274 -89 -123 -259 -451 -299 -576 -12 -38 -32 -88 -43 -110
-11 -22 -23 -65 -25 -96 -5 -53 -3 -59 27 -94 33 -37 35 -37 84 -31 28 4 85
18 126 30 41 13 102 31 135 40 33 9 150 46 260 80 329 105 456 138 455 118 -1
-4 -26 -26 -57 -48 -102 -73 -409 -391 -652 -674 -229 -268 -302 -352 -359
-414 -35 -37 -74 -91 -87 -120 -14 -30 -72 -108 -141 -187 -137 -158 -194
-228 -194 -241 0 -5 48 -9 108 -9 l107 0 90 113 c245 306 393 484 482 579 54
58 193 206 308 330 116 123 275 295 355 382 79 87 185 194 235 238 49 45 96
94 104 110 13 26 13 31 -7 58 -12 16 -22 38 -22 49 0 70 -57 107 -144 96 -28
-4 -103 -27 -166 -52 -63 -24 -126 -48 -140 -53 -14 -5 -79 -21 -145 -35 -163
-35 -254 -66 -422 -141 -77 -35 -144 -64 -148 -64 -8 0 72 152 176 331 87 151
155 233 355 435 111 110 143 137 228 183 173 96 216 138 216 214 0 31 -7 45
-31 68 -18 16 -30 31 -28 34 3 2 72 36 153 75 269 128 410 223 421 284 9 47
-15 98 -59 125 l-37 23 85 52 c272 164 440 299 452 362 11 62 -42 115 -141
140 -25 6 -22 9 51 48 204 107 314 200 488 415 105 130 102 160 -23 226 -71
37 -208 165 -197 184 3 4 27 14 53 21 66 16 242 103 400 198 158 94 159 95
166 130 8 40 -15 84 -62 121 -22 18 -41 37 -41 42 0 4 25 20 56 35 113 54 159
119 130 187 -8 20 -32 58 -54 85 -80 101 -79 182 5 305 68 101 153 172 310
261 181 103 271 174 243 191 -21 13 -159 7 -209 -10 -48 -16 -54 -16 -85 -1
-73 34 -153 10 -406 -121 -188 -98 -269 -146 -353 -206 -38 -26 -71 -46 -73
-44 -3 2 0 16 6 31 14 38 13 112 -2 123 -66 51 -146 -14 -507 -415 -100 -111
-203 -223 -229 -250 -59 -59 -216 -182 -220 -172 -2 4 9 58 23 119 49 214 43
281 -24 281 -34 0 -56 -23 -87 -89 -27 -59 -80 -139 -179 -271 -111 -148 -218
-315 -333 -520 -88 -158 -104 -186 -112 -193 -4 -5 -11 18 -14 50 -20 169 -48
264 -81 277 -48 18 -85 -4 -118 -69 -27 -55 -111 -371 -165 -625 -12 -52 -31
-139 -43 -194 l-22 -98 -12 37 c-18 50 -43 75 -75 75 -33 0 -53 -21 -84 -90
l-24 -55 -5 35 c-34 219 -48 273 -80 295 -74 52 -123 -28 -153 -250 -8 -60
-18 -135 -23 -165 -5 -30 -12 -82 -16 -115 -10 -91 -53 -355 -66 -400 -21 -77
-53 -88 -63 -22 -14 90 -57 210 -86 239 -28 28 -80 38 -106 20 -23 -16 -44
-58 -44 -91 0 -19 -16 -91 -35 -160 -23 -87 -39 -176 -50 -286 -34 -337 -96
-711 -138 -830 l-14 -40 -7 85 c-21 245 -66 567 -98 694 -31 127 -63 176 -116
176 -39 0 -49 -28 -56 -166 -3 -72 -13 -153 -21 -180 -22 -73 -43 -204 -55
-344 -6 -69 -25 -190 -41 -270 -17 -80 -36 -181 -44 -225 -17 -100 -42 -205
-50 -214 -4 -3 -3 181 2 409 10 501 7 760 -12 1325 -15 424 -28 626 -46 715
-5 25 -16 198 -24 384 -9 186 -18 343 -21 347 -2 4 -9 158 -15 341 -5 183 -14
371 -19 418 -5 47 -14 220 -20 385 -12 330 -32 602 -60 825 -53 411 -76 1259
-44 1610 12 129 18 358 23 870 7 666 8 699 29 795 23 104 56 212 77 255 7 14
22 48 35 75 32 71 168 259 304 419 116 136 483 452 671 578 72 48 162 114 200
147 39 34 75 61 81 61 5 0 16 -22 23 -48 6 -27 27 -73 44 -103 18 -30 41 -76
51 -104 10 -27 65 -140 121 -250 l103 -200 -6 -144 c-8 -240 22 -337 189 -611
128 -211 131 -214 337 -406 88 -82 94 -107 102 -439 4 -187 10 -290 19 -310 7
-16 17 -79 22 -139 10 -118 36 -237 70 -326 59 -154 183 -361 262 -437 90 -87
300 -210 447 -263 36 -13 72 -29 80 -35 8 -7 26 -16 40 -20 14 -4 34 -13 45
-20 11 -6 38 -18 60 -25 22 -7 45 -16 50 -20 21 -16 255 -89 341 -106 65 -13
129 -18 239 -17 164 1 261 17 366 59 35 14 105 40 154 59 50 19 123 48 164 64
52 22 89 31 130 31 90 0 98 -5 105 -61 8 -60 50 -112 104 -130 20 -6 77 -29
125 -50 105 -46 158 -50 232 -16 97 45 283 94 383 100 l63 3 45 -63 c46 -64
82 -86 113 -66 8 5 52 63 97 129 66 96 88 120 110 124 23 4 43 26 96 105 37
55 91 146 120 203 45 88 53 112 56 171 5 75 -9 111 -71 193 -69 90 -70 98 -26
224 30 85 50 214 34 214 -12 0 -34 -33 -35 -50 0 -8 -31 -66 -68 -127 l-69
-112 -249 185 c-137 101 -262 195 -279 208 -119 91 -290 196 -321 196 -24 0
-16 -15 19 -35 17 -10 140 -104 272 -209 132 -105 311 -245 398 -310 120 -90
161 -127 173 -154 8 -19 39 -64 69 -99 62 -73 72 -107 51 -176 -24 -78 -174
-336 -206 -352 -31 -16 -182 -160 -199 -190 -11 -19 -12 -19 -24 -2 -7 11 -29
42 -49 70 -25 33 -38 61 -38 82 0 22 -9 40 -31 61 -17 16 -46 61 -66 99 -19
39 -60 113 -91 165 -31 52 -61 103 -67 112 -221 376 -672 895 -969 1115 -202
150 -317 203 -761 351 -115 39 -248 84 -295 100 -47 17 -115 38 -153 47 -43
11 -67 22 -67 31 0 10 -7 13 -24 8 -17 -4 -46 5 -96 31 -39 21 -68 40 -66 43
3 2 76 -1 163 -8 109 -9 214 -10 338 -5 379 17 654 8 1250 -41 213 -17 264
-27 417 -79 119 -40 198 -80 198 -100 0 -7 24 -33 53 -57 28 -23 57 -48 62
-54 6 -7 39 -33 74 -58 49 -36 72 -46 95 -44 27 3 30 7 28 28 -8 52 -129 187
-232 257 -78 52 -202 114 -280 137 -138 42 -382 79 -680 101 -102 8 -241 19
-310 25 -69 6 -285 14 -480 20 -351 9 -356 9 -470 40 -94 25 -142 32 -265 37
l-150 6 -147 58 c-81 33 -150 59 -153 59 -13 0 -187 91 -250 130 -49 32 -81
63 -134 133 -38 51 -112 137 -163 193 -146 155 -192 233 -262 445 -19 57 -52
156 -75 219 -88 251 -94 287 -99 559 -3 217 -1 256 18 365 18 101 31 139 76
231 71 147 82 212 92 580 7 241 12 297 27 333 9 23 21 42 26 42 5 0 9 7 9 16
0 30 82 182 141 260 32 44 82 103 111 132 56 56 77 62 149 41 35 -11 41 -18
64 -79 87 -228 266 -390 432 -390 18 0 58 -11 89 -25 76 -34 155 -54 296 -75
129 -20 202 -48 307 -119 110 -75 147 -126 212 -292 132 -335 258 -530 493
-764 117 -116 145 -134 311 -201 218 -88 204 -85 420 -95 140 -7 210 -15 235
-25 51 -23 106 -70 118 -101 10 -26 27 -126 53 -308 15 -109 38 -206 54 -231
13 -21 12 -21 -78 -27 -51 -3 -186 -21 -302 -40 -115 -19 -275 -45 -355 -57
-348 -51 -639 -122 -950 -229 -216 -74 -565 -192 -610 -206 -25 -7 -71 -21
-102 -31 -68 -20 -78 -40 -15 -30 119 18 289 63 672 180 243 73 427 124 550
152 110 24 314 60 505 89 193 29 351 58 450 82 80 19 340 29 395 15 286 -74
290 -75 337 -133 97 -122 265 -489 287 -631 41 -256 49 -286 88 -330 11 -13
12 -24 3 -56 -6 -23 -10 -44 -9 -49 4 -26 -10 -17 -97 61 -207 184 -403 286
-759 390 -160 48 -468 90 -815 111 -52 3 -153 12 -225 21 -145 16 -346 37
-565 59 -80 8 -174 19 -210 25 -63 9 -328 30 -389 30 -44 0 -39 -17 7 -23 20
-3 102 -15 182 -26 80 -11 206 -29 280 -40 328 -51 639 -89 1260 -156 422 -45
787 -162 1049 -335 104 -70 293 -234 303 -264 3 -11 19 -59 33 -106 15 -47 52
-129 82 -183 67 -117 67 -117 -3 -334 -45 -139 -58 -159 -82 -130 -16 18 -144
81 -227 111 -120 43 -417 88 -438 67 -13 -13 0 -18 98 -35 217 -39 350 -87
530 -193 42 -25 50 -34 51 -62 2 -35 18 -53 40 -44 27 10 132 258 173 406 33
121 29 150 -33 269 -82 158 -153 387 -140 455 4 23 0 39 -17 62 -21 29 -21 32
-6 49 9 10 17 33 17 51 0 25 8 40 36 64 51 45 74 84 134 232 98 242 110 280
132 405 19 107 22 162 22 385 0 232 -2 269 -21 345 -35 137 -69 233 -127 358
-98 209 -146 418 -146 637 0 239 35 418 141 735 132 390 153 505 153 830 0
203 -1 221 -26 312 -59 210 -114 332 -206 452 -48 63 -203 221 -257 262 -55
41 -157 94 -182 94 -14 0 -87 17 -162 37 -123 34 -147 38 -256 37 -66 -1 -133
-6 -148 -13 -31 -12 -9 -29 -254 187 -144 126 -219 167 -395 213 -57 15 -114
23 -183 23 -87 1 -110 -3 -178 -28 -43 -15 -118 -53 -167 -82 -49 -30 -92 -54
-95 -54 -14 0 0 24 49 86 97 124 106 142 106 198 0 93 -67 235 -146 312 -30
28 -54 59 -54 69 0 31 -25 9 -28 -25 -2 -22 4 -43 17 -61 57 -77 121 -212 121
-255 0 -8 -27 -43 -59 -79 -69 -76 -138 -190 -185 -305 -26 -61 -45 -92 -84
-129 -60 -58 -92 -106 -92 -141 0 -29 -172 -225 -294 -335 -145 -132 -384
-303 -496 -356 -58 -28 -131 -64 -163 -81 -33 -16 -61 -27 -63 -25 -3 3 68 88
158 189 90 101 218 248 286 325 67 78 158 175 202 216 44 42 80 79 80 82 0 29
-155 -62 -228 -133 -10 -9 -26 -24 -37 -32 -17 -14 -17 -12 2 20 72 118 121
241 188 470 73 247 79 367 40 715 -30 267 -31 332 -5 550 24 207 36 248 94
319 25 31 51 66 57 78 l12 23 10 -23 c8 -17 5 -32 -16 -70 -41 -76 -61 -259
-54 -502 6 -201 -6 -567 -23 -725 -19 -170 -74 -489 -89 -516 -5 -8 -14 -42
-21 -75 -7 -32 -16 -64 -21 -70 -5 -6 -6 -14 -2 -17 10 -11 23 -8 23 4 0 6 6
25 14 42 50 113 110 381 146 647 11 80 22 154 25 165 3 11 10 205 15 430 6
324 12 427 26 493 9 45 20 82 24 82 4 0 20 -17 35 -37 42 -57 60 -70 180 -127
l111 -53 -8 -104 c-5 -81 -16 -132 -47 -229 -23 -69 -41 -137 -41 -151 0 -32
23 -53 75 -67 22 -6 50 -14 63 -17 13 -5 22 -3 22 3 0 15 -52 62 -67 62 -16 0
-17 29 -2 67 39 101 62 206 67 305 6 130 0 160 -31 157 -15 -1 -42 16 -81 52
-125 114 -156 150 -189 216 -47 94 -87 207 -78 222 5 7 6 23 4 35 -3 13 0 27
6 30 19 12 12 38 -19 67 -35 34 -51 36 -73 11z m-228 -678 c-27 -181 -29 -407
-4 -554 21 -124 16 -299 -14 -505 -21 -144 -81 -360 -114 -415 -28 -47 -186
-283 -231 -345 -20 -27 -38 -54 -40 -60 -2 -5 -7 -7 -11 -3 -4 4 -3 13 2 20
17 21 60 157 81 258 39 182 52 269 62 421 6 85 17 179 25 209 27 108 45 269
54 505 11 253 35 425 70 509 20 46 60 76 101 76 11 0 23 7 27 15 14 39 12 -3
-8 -131z m-204 29 c-5 -10 -18 -65 -31 -123 -18 -80 -26 -161 -33 -340 -21
-466 -52 -628 -169 -869 -55 -113 -50 -106 -58 -98 -3 3 -2 39 4 81 10 74 0
166 -18 166 -4 0 -10 -21 -13 -47 -6 -61 -30 -173 -52 -243 -59 -188 -68 -208
-135 -305 -38 -55 -93 -135 -121 -177 -29 -43 -55 -78 -58 -78 -9 0 -2 171 17
375 9 105 17 255 18 335 2 144 2 146 44 260 23 63 48 135 56 160 8 25 18 54
23 65 17 36 129 378 146 445 31 124 44 185 44 200 0 29 -29 -24 -45 -80 -8
-30 -19 -64 -24 -75 -5 -11 -14 -38 -20 -60 -7 -22 -18 -54 -26 -72 -8 -17
-14 -36 -14 -41 0 -6 -5 -23 -11 -39 -10 -24 -59 -158 -106 -288 -7 -22 -20
-54 -28 -72 -8 -17 -15 -37 -15 -45 -1 -7 -9 -31 -20 -53 -11 -22 -19 -46 -20
-52 0 -17 -6 -16 -36 3 -23 16 -26 15 -45 -2 -20 -18 -20 -18 -15 6 3 14 10
53 16 86 6 34 17 75 24 90 20 41 30 94 18 94 -14 0 -47 -71 -72 -155 -12 -38
-25 -83 -30 -100 -9 -29 -18 -90 -40 -260 -6 -44 -15 -181 -20 -305 -5 -124
-14 -250 -19 -280 -5 -30 -15 -100 -21 -155 -7 -55 -15 -104 -20 -110 -4 -5
-11 -32 -15 -60 -4 -27 -14 -69 -22 -93 -8 -24 -21 -80 -28 -125 -8 -45 -24
-120 -35 -167 -11 -47 -30 -132 -42 -190 -12 -58 -26 -107 -31 -109 -5 -2 -38
-23 -73 -47 l-63 -43 2 117 2 117 -41 80 c-22 44 -63 112 -91 150 -100 138
-213 424 -248 624 -32 178 -9 414 59 622 44 136 71 182 140 238 95 77 197 188
306 336 90 121 142 175 210 217 30 18 144 58 165 58 26 0 139 51 164 73 12 12
54 63 91 112 106 140 128 157 266 208 120 45 148 53 193 56 18 1 22 -2 16 -16z
m-114 -1300 c-19 -91 -41 -184 -55 -231 -7 -26 -21 -74 -31 -107 -45 -157
-102 -254 -297 -497 -68 -84 -154 -195 -192 -245 -38 -51 -73 -93 -78 -93 -12
0 -5 12 68 105 150 193 238 363 323 622 27 84 55 144 95 208 32 50 83 143 114
207 57 117 73 127 53 31z m1705 -78 c96 -22 162 -58 285 -157 63 -50 133 -104
157 -120 37 -25 56 -58 35 -58 -5 0 -28 -19 -53 -41 -76 -68 -130 -98 -235
-130 -55 -17 -154 -48 -220 -69 -66 -21 -160 -48 -210 -60 -152 -37 -267 -73
-445 -137 -122 -45 -264 -114 -435 -213 -99 -57 -245 -141 -325 -185 -80 -45
-170 -98 -200 -117 -30 -19 -66 -40 -80 -47 -40 -19 109 119 200 184 45 33
157 116 249 184 250 186 286 210 531 341 74 40 164 88 200 108 82 44 170 103
170 114 0 14 -23 9 -165 -40 -145 -51 -310 -119 -429 -179 -37 -19 -70 -33
-72 -31 -2 2 7 15 19 28 88 97 194 224 283 341 100 133 139 173 155 164 4 -3
9 1 12 9 3 8 19 17 36 21 17 4 31 11 31 16 0 12 74 49 98 49 11 0 25 6 32 14
16 20 37 23 185 24 83 1 152 -4 191 -13z m1031 -385 c59 -18 117 -40 128 -50
11 -9 49 -29 84 -43 133 -57 209 -125 320 -290 54 -81 83 -149 137 -322 l37
-120 1 -200 c0 -297 -22 -427 -134 -770 -32 -99 -66 -206 -74 -238 -28 -99
-66 -298 -66 -346 0 -55 -5 -63 -47 -84 -17 -9 -34 -25 -38 -36 -7 -23 -94
-60 -315 -133 -248 -83 -306 -101 -542 -169 -40 -11 -102 -29 -137 -40 -35
-10 -69 -19 -75 -19 -6 -1 -29 -9 -51 -20 -32 -15 -62 -19 -152 -20 -129 0
-166 -10 -161 -42 2 -14 13 -24 33 -30 30 -8 214 2 410 22 134 14 552 14 645
0 41 -6 108 -14 148 -17 61 -5 72 -3 72 10 0 13 8 15 38 10 45 -7 66 -23 32
-24 -14 0 -83 -7 -155 -14 -71 -8 -206 -21 -300 -30 -93 -8 -183 -19 -200 -24
-16 -5 -52 -12 -80 -16 -27 -4 -58 -11 -67 -16 -25 -14 -22 -48 5 -59 12 -5
126 -18 252 -30 332 -31 450 -59 595 -141 64 -36 135 -55 145 -39 6 10 -73 83
-132 120 -62 39 -133 65 -246 90 -80 18 -260 39 -337 40 -19 1 -21 3 -10 9 8
5 94 14 190 21 96 6 225 17 285 25 61 8 137 17 170 20 l60 6 29 -95 c16 -53
49 -137 73 -188 51 -106 82 -189 113 -303 44 -157 43 -567 -1 -769 -10 -49
-43 -151 -73 -225 -30 -75 -63 -158 -72 -186 -32 -96 -35 -101 -44 -85 -8 15
-48 169 -90 350 -30 130 -70 236 -113 301 -49 74 -259 266 -322 295 -36 17
-80 25 -155 31 l-105 8 -12 50 c-7 28 -20 102 -28 165 -37 275 -56 332 -142
410 -108 99 -186 120 -447 120 -151 0 -206 12 -341 75 -89 41 -107 54 -227
172 -71 71 -154 157 -183 193 -89 109 -187 278 -269 466 -106 241 -135 285
-245 374 -117 95 -117 95 -70 105 27 6 83 28 164 65 630 283 891 370 1334 440
110 17 126 18 152 5 38 -20 39 -20 39 15 0 20 -9 40 -26 57 l-26 25 -146 -5
c-153 -5 -201 -13 -422 -74 -238 -66 -474 -164 -900 -371 -102 -49 -202 -101
-222 -116 l-38 -25 -80 49 c-79 47 -178 80 -247 80 -15 0 -48 6 -72 13 l-44
13 34 16 c19 8 70 28 114 43 44 16 85 32 90 35 6 4 28 13 50 20 22 7 45 16 50
20 6 4 21 11 35 15 68 20 298 125 450 207 36 19 106 56 155 83 50 26 114 69
144 94 164 141 285 203 536 275 202 57 366 77 790 96 322 15 335 16 348 30 9
9 6 17 -14 34 -23 20 -42 24 -140 30 -126 7 -500 -8 -594 -24 -33 -6 -87 -15
-120 -21 -152 -26 -417 -107 -551 -169 -107 -49 -190 -107 -283 -195 -42 -40
-107 -90 -146 -112 -79 -45 -366 -188 -435 -217 -25 -10 -70 -29 -100 -42 -30
-12 -147 -60 -260 -105 -252 -100 -264 -101 -372 -39 -43 25 -78 50 -78 57 0
6 75 65 168 131 161 115 211 148 497 333 72 46 180 116 240 156 182 119 734
372 936 429 393 109 513 151 639 221 110 62 151 95 145 120 -9 40 68 80 175
92 89 9 159 -1 287 -39z m-2886 -437 c-5 -10 -76 -92 -156 -183 -81 -91 -159
-180 -173 -199 -26 -33 -172 -139 -172 -124 0 5 43 55 97 113 53 58 125 139
159 180 48 57 233 226 252 229 1 1 -2 -7 -7 -16z m-1275 -1716 c-13 -119 -19
-145 -44 -190 -83 -148 -167 -378 -216 -596 -32 -141 -33 -144 -49 -120 -27
41 -65 152 -81 239 -11 56 -16 141 -16 271 0 184 1 191 30 275 57 166 142 295
281 429 l94 90 8 -130 c5 -92 3 -170 -7 -268z m4599 -735 l8 -43 -29 11 c-30
12 -180 37 -274 47 -45 4 -59 2 -79 -14 -20 -16 -33 -18 -90 -12 -240 26 -315
31 -355 26 -113 -16 -21 27 204 95 88 27 170 49 330 91 153 41 205 61 240 97
l25 25 6 -140 c4 -77 10 -159 14 -183z m-4292 -1830 c188 -160 358 -283 487
-355 36 -20 101 -66 145 -103 163 -137 242 -174 370 -174 39 0 94 -7 121 -15
78 -24 250 -138 440 -295 400 -329 467 -393 579 -560 69 -103 179 -230 199
-230 18 0 102 -91 160 -173 107 -151 177 -255 211 -313 32 -56 135 -301 135
-322 0 -5 -31 -12 -69 -15 -48 -4 -103 -20 -187 -53 l-119 -47 -215 -9 c-118
-5 -295 -10 -392 -10 -169 0 -184 2 -330 37 -122 29 -178 49 -273 95 -66 32
-151 70 -190 84 -229 81 -329 170 -425 380 -44 96 -70 192 -104 376 -14 75
-33 156 -42 180 -14 36 -19 98 -24 325 -7 271 -8 283 -36 364 -44 134 -111
233 -259 384 l-130 132 -63 146 c-49 116 -91 228 -92 247 0 9 22 -7 103 -76z
m1720 -846 c61 -24 162 -60 222 -81 253 -86 381 -144 530 -242 174 -115 359
-281 575 -518 251 -274 520 -618 520 -664 0 -6 25 -53 55 -104 31 -50 59 -108
64 -127 5 -19 13 -53 19 -75 5 -22 12 -47 16 -56 12 -28 -62 -59 -140 -59 -45
0 -79 -7 -112 -21 -58 -27 -174 -45 -225 -35 -77 14 -128 80 -196 252 -77 195
-541 906 -762 1169 -144 171 -436 427 -669 587 -39 27 -18 21 103 -26z"/>
<path d="M9317 6982 c-22 -24 -21 -55 1 -75 25 -23 54 -21 86 4 l27 22 15 -22
c23 -32 72 -29 80 5 13 51 -37 102 -71 74 -10 -8 -24 -8 -52 -1 -53 15 -67 14
-86 -7z"/>
<path d="M9882 6934 c-15 -11 -15 -14 8 -176 13 -87 7 -192 -11 -203 -15 -10
-10 -52 7 -59 20 -8 48 8 68 36 21 29 20 48 0 48 -15 0 -16 13 -12 124 3 68 9
129 12 134 3 6 21 2 43 -9 73 -37 91 -18 53 56 -11 22 -20 45 -20 51 0 16
-126 14 -148 -2z"/>
<path d="M9397 6842 c-38 -42 -49 -125 -19 -140 9 -5 31 -7 48 -5 28 4 34 11
45 51 7 26 12 55 12 65 -4 45 -55 63 -86 29z"/>
<path d="M19063 6689 c-14 -14 -17 -38 -7 -63 6 -14 135 -106 150 -106 3 0 25
-14 50 -31 97 -67 194 -91 194 -49 0 11 -6 36 -14 54 -14 35 -38 52 -203 153
-81 49 -148 65 -170 42z"/>
<path d="M9101 6615 c-22 -29 -94 -247 -89 -272 5 -25 35 -40 56 -27 19 12 20
14 65 129 24 60 37 81 54 85 17 4 20 9 13 20 -5 8 -10 26 -10 41 0 52 -54 67
-89 24z"/>
<path d="M10040 6517 c-45 -22 -54 -114 -15 -152 29 -30 64 -32 96 -6 l24 19
-38 18 c-41 20 -50 53 -21 85 18 20 13 49 -8 49 -7 0 -24 -6 -38 -13z"/>
<path d="M9186 6288 c-8 -13 -22 -48 -31 -80 -9 -31 -22 -62 -30 -68 -18 -15
-20 -91 -3 -108 20 -20 66 -14 82 11 18 28 46 153 46 204 0 61 -36 84 -64 41z"/>
<path d="M9910 6260 c0 -36 4 -42 33 -56 18 -9 42 -32 52 -52 25 -47 45 -50
81 -14 65 65 69 121 7 89 -16 -9 -35 -23 -43 -32 -11 -14 -15 -11 -31 22 -25
53 -53 83 -78 83 -18 0 -21 -6 -21 -40z"/>
<path d="M8985 6196 c-99 -46 -145 -136 -95 -186 42 -42 83 -16 100 66 8 36
21 61 46 84 61 61 37 78 -51 36z"/>
<path d="M9746 6084 c-19 -50 2 -100 44 -106 21 -3 27 -11 38 -58 7 -30 10
-69 8 -86 -8 -59 42 -96 76 -56 21 23 61 149 54 167 -8 21 -20 19 -54 -10 -17
-14 -32 -25 -35 -25 -3 0 -11 24 -18 53 -6 28 -20 71 -30 95 -16 36 -23 42
-48 42 -17 0 -31 -6 -35 -16z"/>
<path d="M10090 5984 c-23 -67 8 -134 61 -134 26 0 28 -4 34 -47 9 -71 24 -92
53 -74 19 12 27 149 10 181 -17 30 -44 37 -67 16 -25 -23 -41 -2 -41 51 0 36
-3 43 -19 43 -13 0 -23 -11 -31 -36z"/>
<path d="M8974 5829 c-16 -17 -19 -39 -20 -152 -1 -131 -1 -131 27 -159 27
-28 59 -34 107 -22 30 8 28 32 -4 44 l-26 10 8 125 c6 107 4 128 -10 150 -20
31 -56 33 -82 4z"/>
<path d="M9296 5781 c-12 -13 -18 -38 -19 -79 -2 -51 2 -64 22 -86 14 -14 28
-26 32 -26 18 0 34 48 35 100 0 30 3 62 7 71 6 11 0 19 -18 27 -34 16 -39 15
-59 -7z"/>
<path d="M17915 5573 c-238 -162 -335 -243 -576 -483 -134 -133 -417 -441
-675 -735 -96 -110 -199 -245 -437 -572 -291 -399 -326 -455 -559 -878 -240
-435 -369 -686 -499 -971 -45 -98 -104 -228 -131 -289 -42 -91 -119 -293 -228
-600 -137 -386 -261 -799 -275 -917 l-6 -58 65 0 c64 0 66 1 71 27 9 46 223
691 264 799 21 54 67 180 101 279 77 221 124 341 197 499 30 66 65 144 78 171
13 28 35 79 50 115 45 108 186 386 350 690 355 658 330 618 679 1115 251 357
334 462 546 695 58 63 159 176 224 250 155 179 499 535 713 740 95 91 173 173
173 183 0 9 -3 17 -7 16 -5 0 -57 -34 -118 -76z"/>
<path d="M10147 5573 c-4 -3 -7 -33 -7 -66 l0 -60 25 23 c14 13 25 19 25 13 0
-17 -47 -147 -69 -190 -30 -61 -93 -123 -122 -123 -31 0 -49 -17 -49 -47 0
-29 38 -48 77 -39 37 10 130 106 154 161 11 25 27 48 35 53 40 22 59 162 25
183 -11 7 -16 19 -13 31 10 40 -54 89 -81 61z"/>
<path d="M9814 5458 c-14 -27 -18 -29 -26 -15 -11 21 -51 22 -71 3 -33 -33
-28 -208 7 -262 15 -22 53 -41 62 -31 3 3 1 22 -5 44 -17 59 -14 79 14 91 13
6 27 23 31 37 3 14 12 25 19 25 14 0 29 98 19 124 -10 26 -32 18 -50 -16z"/>
<path d="M9233 5265 c-11 -8 -32 -44 -47 -80 -57 -144 -12 -241 64 -135 28 39
56 195 39 216 -15 18 -29 18 -56 -1z"/>
</g>
</svg>
