<?xml version="1.0" encoding="UTF-8" standalone="no"?>
<!DOCTYPE svg PUBLIC "-//W3C//DTD SVG 1.1//EN" "http://www.w3.org/Graphics/SVG/1.1/DTD/svg11.dtd">
<svg width="100%" height="100%" viewBox="0 0 1749 1749" version="1.1" xmlns="http://www.w3.org/2000/svg" xmlns:xlink="http://www.w3.org/1999/xlink" xml:space="preserve" xmlns:serif="http://www.serif.com/" style="fill-rule:evenodd;clip-rule:evenodd;stroke-linecap:round;stroke-linejoin:round;stroke-miterlimit:1.5;">
    <g transform="matrix(0.99946,0.0328482,-0.0342596,1.0424,39.8716,28.3707)">
        <path d="M136.718,1399.44C174.042,1514.63 208.748,1523.23 226.956,1394.99C240.334,1268.27 244.752,1143.41 233.793,1021.76L206.685,724.759C203.336,684.124 208.456,648.861 217.799,616.276C249.857,573.089 263.635,517.176 268.701,455.199L262.707,265.515C252.888,227.066 245.37,237.948 233.794,264.984C233.794,264.984 232.156,426.65 232.14,429.279C231.919,466.846 204.588,460.429 204.399,428.337L202.576,268.56C189.942,226.175 181.656,236.047 172.602,267.661L170.089,429.684C160.16,459.019 151.15,460.687 143.367,425.521" style="fill:none;stroke:black;stroke-width:12.23px;"/>
        <path d="M134.532,243.303C140.057,249.378 144.062,256.824 145.611,266.485L143.367,425.521L145.611,266.485C144.381,256.766 139.995,249.599 134.532,243.303Z" style="fill:none;stroke:black;stroke-width:12.23px;"/>
        <path d="M117.463,267.719L117.843,268.839L115.508,425.816C115.508,440.058 109.224,482.381 91.495,414.251C82.557,367.317 92.864,324.998 88.287,268.214L71.368,240.807L55.552,273.602C52.951,338.683 52.43,390.756 57.808,444.403C61.713,503.465 81.524,562.607 104.68,616.228C120.195,648.464 122.549,677.767 121.924,706.406L104.329,1038.18C102.336,1168.68 107.421,1292.78 135.134,1396.4" style="fill:none;stroke:black;stroke-width:12.23px;"/>
        <path d="M118.201,263.455C121.119,254.197 126.494,247.399 131.925,242.441" style="fill:none;stroke:black;stroke-width:12.23px;"/>
    </g>
    <g transform="matrix(0.99937,-0.0354977,0.0354977,0.99937,-41.0131,76.1908)">
        <path d="M1535.78,1450.79C1556.27,1536.74 1588.42,1581.48 1633.28,1529.35L1657.1,237.338C1609.27,258.241 1560.26,305.306 1513.88,403.975C1488.38,488.367 1489.55,543.524 1505.32,606.283C1536.02,642.496 1561.66,687.586 1576.35,701.124L1575.35,833.861L1548.95,1151.76C1531.26,1249.39 1526.57,1354.15 1535.78,1450.79Z" style="fill:none;stroke:black;stroke-width:12.5px;"/>
    </g>
    <g transform="matrix(1.06609,0,0,1.11178,-92.5911,-232.477)">
        <ellipse cx="925.07" cy="996.017" rx="546.808" ry="287.555" style="fill:none;stroke:black;stroke-width:18.66px;"/>
    </g>
    <g transform="matrix(1.09573,0,0,0.938552,4.68183,-118.558)">
        <ellipse cx="804.825" cy="1045.54" rx="405.793" ry="240.727" style="fill:none;stroke:black;stroke-width:12.45px;"/>
    </g>
    <g id="Слой4">
        <g id="Слой5">
            <path d="M889.493,1484.31C892.196,1485.19 889.883,1457.17 889.883,1441.01" style="fill:none;stroke:black;stroke-width:6.25px;"/>
            <path d="M870.562,1453.81C866.404,1452.74 878.672,1458.81 880.962,1460.64C888.159,1466.4 898.348,1472.24 907.727,1472.24" style="fill:none;stroke:black;stroke-width:6.25px;"/>
            <path d="M878.006,1480.89C877.188,1481.25 876.531,1482.88 877.393,1481.16C883.861,1468.22 899.156,1456.72 909.511,1446.36" style="fill:none;stroke:black;stroke-width:6.25px;"/>
            <path d="M874.326,1466.08C870.468,1465.38 874.943,1467.78 878.285,1467.78C887.591,1467.78 896.549,1465.99 905.942,1465.99" style="fill:none;stroke:black;stroke-width:6.25px;"/>
            <path d="M964.212,1414.46C963.138,1410.2 963.933,1430.18 963.933,1435.66C963.933,1437.3 964.825,1443.7 964.825,1442.8" style="fill:none;stroke:black;stroke-width:6.25px;"/>
            <path d="M949.742,1430.79C947.237,1431.84 988.021,1424.65 988.021,1421.38" style="fill:none;stroke:black;stroke-width:6.25px;"/>
            <path d="M951.777,1416.14C945.151,1415.57 969.554,1435.66 975.531,1435.66" style="fill:none;stroke:black;stroke-width:6.25px;"/>
            <path d="M953.896,1444.48C956.63,1434.82 968.43,1417.78 975.531,1410.68" style="fill:none;stroke:black;stroke-width:6.25px;"/>
            <path d="M1016.99,1364.48C1016.1,1362.17 1016.57,1355.42 1016.57,1358.93C1016.57,1369.76 1018.36,1381.26 1018.36,1391.05" style="fill:none;stroke:black;stroke-width:6.25px;"/>
            <path d="M1003.63,1376.3C1002.94,1375.65 1003.96,1376.78 1004.97,1376.78C1016.88,1376.78 1028.9,1368.75 1040.66,1368.75" style="fill:none;stroke:black;stroke-width:6.25px;"/>
            <path d="M1005.53,1363.77C1003.4,1362.33 1022.72,1382.13 1032.63,1382.13" style="fill:none;stroke:black;stroke-width:6.25px;"/>
            <path d="M1006.12,1392.48C1005.17,1397.19 1007.63,1388.4 1009.43,1384.81C1013.98,1375.72 1021.68,1366.31 1029.06,1358.93" style="fill:none;stroke:black;stroke-width:6.25px;"/>
            <path d="M831.474,1414.35C828.334,1413.66 832.785,1437.04 832.785,1445.47" style="fill:none;stroke:black;stroke-width:6.25px;"/>
            <path d="M819.291,1430.79C810.417,1432.95 839.878,1427.63 847.059,1427.63" style="fill:none;stroke:black;stroke-width:6.25px;"/>
            <path d="M809.226,1412.94C820.756,1416.77 836.229,1431.07 844.383,1439.23" style="fill:none;stroke:black;stroke-width:6.25px;"/>
            <path d="M820.35,1443.99C819.898,1434.3 836.927,1413.96 845.275,1409.79" style="fill:none;stroke:black;stroke-width:6.25px;"/>
            <path d="M779.868,1380.1C780.427,1378.81 780.147,1375.88 780.147,1375.88L780.147,1382.13C780.147,1392.48 784.608,1402.61 784.608,1412.46" style="fill:none;stroke:black;stroke-width:6.25px;"/>
            <path d="M769.804,1393.19C767.337,1396.85 791.319,1391.05 797.99,1391.05" style="fill:none;stroke:black;stroke-width:6.25px;"/>
            <path d="M766.123,1378.42C761.979,1378.92 771.131,1385.8 772.118,1386.59C777.029,1390.52 789.6,1401.76 795.314,1401.76" style="fill:none;stroke:black;stroke-width:6.25px;"/>
            <path d="M774.655,1404.53C775.032,1406.68 774.663,1403.04 774.794,1402.65C778.171,1392.52 784.906,1380.94 792.637,1373.21" style="fill:none;stroke:black;stroke-width:6.25px;"/>
            <path d="M891.504,1387.95C890.041,1387.03 890.93,1382.8 890.93,1382.8L890.93,1387.59C890.93,1396.68 892.527,1404.99 892.527,1413.95" style="fill:none;stroke:black;stroke-width:6.25px;"/>
            <path d="M881.018,1405.3C872.268,1402.77 902.391,1398.78 908.505,1398.78" style="fill:none;stroke:black;stroke-width:6.25px;"/>
            <path d="M878.147,1383.96C876.86,1383.38 894.186,1406.76 903.712,1406.76" style="fill:none;stroke:black;stroke-width:6.25px;"/>
            <path d="M881.443,1412.3C879.477,1412.43 880.825,1409.4 881.343,1408.36C886.664,1397.72 898.516,1393.59 906.109,1385.99" style="fill:none;stroke:black;stroke-width:6.25px;"/>
            <path d="M882.391,1401.61C879.768,1402.52 873.819,1399.11 870.957,1401.97" style="fill:none;stroke:black;stroke-width:6.25px;"/>
            <path d="M1069.09,1323.44C1069.09,1312.63 1070.68,1335.82 1070.68,1338.86C1070.68,1340.74 1071.48,1345.92 1071.48,1345.25" style="fill:none;stroke:black;stroke-width:6.25px;"/>
            <path d="M1058.28,1336.23C1052.67,1337.33 1077.93,1326.87 1083.46,1326.87" style="fill:none;stroke:black;stroke-width:6.25px;"/>
            <path d="M1058.08,1321.51C1057.46,1321.87 1076.57,1334.36 1081.07,1338.86" style="fill:none;stroke:black;stroke-width:6.25px;"/>
            <path d="M1064.12,1341.33C1060.82,1345.16 1064.48,1337.68 1065.09,1336.46C1069.16,1328.32 1076.26,1317.3 1082.67,1310.9" style="fill:none;stroke:black;stroke-width:6.25px;"/>
            <path d="M737.89,1337.6C734.335,1342.29 740.736,1361.52 740.736,1368.42" style="fill:none;stroke:black;stroke-width:6.25px;"/>
            <path d="M724.633,1353.78C722.583,1354.55 747.989,1355.63 754.317,1355.63" style="fill:none;stroke:black;stroke-width:6.25px;"/>
            <path d="M725.906,1341.96C723.28,1348.66 744.241,1360.74 749.524,1366.02" style="fill:none;stroke:black;stroke-width:6.25px;"/>
            <path d="M728.353,1367C728.581,1367.35 730.518,1363.21 732.747,1360.43C737.195,1354.87 741.667,1341.99 747.926,1338.86" style="fill:none;stroke:black;stroke-width:6.25px;"/>
            <path d="M764.179,1395.48C767.532,1396.12 770.845,1394.78 774.29,1394.78" style="fill:none;stroke:black;stroke-width:6.25px;"/>
            <path d="M1189.07,1206.31C1187.02,1211.47 1189.62,1228.22 1193.17,1231.77" style="fill:none;stroke:black;stroke-width:6.25px;"/>
            <path d="M1175.32,1224.94C1175.3,1224.94 1180.51,1223.7 1198.93,1219.1C1202.47,1218.21 1208.44,1213.34 1210.45,1213.34" style="fill:none;stroke:black;stroke-width:6.25px;"/>
            <path d="M1174.85,1207.71C1170.55,1207.28 1199.26,1226.01 1209.3,1226.01" style="fill:none;stroke:black;stroke-width:6.25px;"/>
            <path d="M1180.07,1239.88C1183.99,1229.03 1200.08,1211.43 1200.08,1200.67" style="fill:none;stroke:black;stroke-width:6.25px;"/>
            <path d="M609.329,1213.04C603.222,1214.47 617.248,1259.4 617.248,1254.81" style="fill:none;stroke:black;stroke-width:6.25px;"/>
            <path d="M595.111,1229.22C588.371,1231.08 635.678,1229.1 635.678,1231.77" style="fill:none;stroke:black;stroke-width:6.25px;"/>
            <path d="M591.26,1211.84C579.416,1214.37 618.764,1240.99 626.463,1240.99" style="fill:none;stroke:black;stroke-width:6.25px;"/>
            <path d="M603.822,1246.31C595.912,1248.52 618.586,1214.4 625.311,1211.04" style="fill:none;stroke:black;stroke-width:6.25px;"/>
            <path d="M607.1,1225.77C604.624,1226.53 600.123,1228.98 597.87,1231.23" style="fill:none;stroke:black;stroke-width:6.25px;"/>
            <path d="M596.837,1231.36L596.837,1231.23" style="fill:none;stroke:black;stroke-width:6.25px;"/>
            <path d="M595.739,1231.54C595.761,1231.43 595.782,1231.33 595.804,1231.23" style="fill:none;stroke:black;stroke-width:6.25px;"/>
            <path d="M594.771,1232.05L594.771,1232.26" style="fill:none;stroke:black;stroke-width:6.25px;"/>
            <path d="M593.125,1231.24C592.985,1231.23 592.845,1231.23 592.706,1231.23" style="fill:none;stroke:black;stroke-width:6.25px;"/>
            <path d="M592.996,1231.24C592.899,1231.23 592.802,1231.23 592.706,1231.23" style="fill:none;stroke:black;stroke-width:6.25px;"/>
            <path d="M590.672,1230.55C590.662,1230.43 590.651,1230.31 590.64,1230.2" style="fill:none;stroke:black;stroke-width:6.25px;"/>
            <path d="M602.582,1250.65C603.348,1251 602.362,1250.85 602.001,1250.85" style="fill:none;stroke:black;stroke-width:6.25px;"/>
            <path d="M602.872,1248.07C602.926,1247.96 602.98,1247.86 603.034,1247.76" style="fill:none;stroke:black;stroke-width:6.25px;"/>
            <path d="M603.55,1246.56C603.951,1243.48 606.132,1239.95 606.132,1237.43" style="fill:none;stroke:black;stroke-width:6.25px;"/>
            <g transform="matrix(0.998464,0,0,1.12027,-1.47788,-325.708)">
                <ellipse cx="900.632" cy="1069.76" rx="515.81" ry="244.012" style="fill:none;stroke:black;stroke-width:5.89px;"/>
            </g>
        </g>
        <path d="M1198.69,710.229C1200.85,710.886 1198.31,709.393 1196.75,707.834C1192.08,703.169 1186.46,698.824 1181.19,694.873C1166.8,684.08 1155.44,674.135 1137.99,674.135C1133.87,674.135 1125.89,671.543 1125.89,671.543C1125.89,671.543 1130.03,672.42 1131.94,673.271C1145.56,679.322 1160.12,683.038 1173.42,689.689C1175.85,690.904 1180.33,694.009 1180.33,694.009C1180.33,694.009 1175.79,691.008 1173.42,689.689C1157.17,680.661 1140.36,673.074 1123.3,665.495C1120.3,664.161 1113.8,662.903 1113.8,662.903L1138.85,673.271C1138.85,673.271 1132.52,670.967 1129.35,669.815C1115.63,664.826 1102.57,658.01 1088.74,653.398C1086.81,652.754 1082.69,652.534 1082.69,652.534C1082.69,652.534 1086.25,653.447 1087.87,654.262C1097.51,659.08 1107.15,664.299 1117.25,668.087C1119.14,668.794 1141.45,675.804 1141.45,676.728C1141.45,678.016 1139.1,675.662 1137.99,674.999C1133.9,672.544 1129.53,670.64 1125.03,668.951C1110.42,663.474 1089.52,649.077 1074.05,649.077C1071.97,649.077 1077.48,651.419 1079.23,652.534C1087.65,657.89 1096.85,662.48 1106.02,666.359C1114.04,669.751 1169.7,697.465 1174.28,697.465C1177.25,697.465 1169.07,694.639 1166.51,693.145C1159.97,689.335 1160.24,689.779 1153.54,686.232C1142.45,680.358 1124.9,668.087 1112.07,668.087C1110.63,668.087 1114.31,669.906 1115.53,670.679C1123.82,675.956 1133.34,679.741 1142.31,683.64C1157.53,690.259 1187.44,697.663 1199.34,709.562C1202.11,712.332 1193.09,704.823 1189.84,702.65C1180.79,696.621 1162.18,685.368 1162.18,685.368C1163.04,685.957 1163.9,686.546 1164.78,687.096C1174.34,693.074 1184.84,699.852 1195.02,704.378C1197.14,705.321 1201.07,707.834 1201.07,707.834C1201.07,707.834 1199.86,707.357 1199.34,706.97C1193.74,702.774 1181.19,693.928 1181.19,694.873C1181.19,695.881 1223.01,723.052 1221.81,724.251C1220.52,725.534 1213.47,720.114 1213.16,719.931C1207.19,716.347 1195.02,709.562 1195.02,709.562C1195.02,709.562 1199.97,714.459 1202.8,716.475C1215.64,725.652 1231.59,735.372 1239.95,749.31C1243.56,755.324 1243.75,765.721 1245.13,772.639C1245.49,774.426 1246.86,777.824 1246.86,777.824C1246.86,777.824 1246.78,774.206 1246,772.639C1242.7,766.037 1237.88,759.283 1233.04,753.63C1221.24,739.868 1207.55,724.429 1193.29,713.019C1154.6,682.065 1094.26,665.578 1045.54,653.398C1040.03,652.022 1055.96,657.882 1061.09,660.31C1072.7,665.811 1084.61,670.236 1096.52,674.999C1099.56,676.219 1106.02,677.592 1106.02,677.592C1106.02,677.592 1103,675.439 1101.7,674.135C1094.73,667.168 1083.55,663.234 1074.91,658.582C1059,650.015 1029.56,642.607 1017.02,630.068C1014.92,627.971 1022.21,632.934 1024.8,634.388C1031.53,638.177 1038.58,641.397 1045.54,644.757C1051.34,647.56 1104,672.554 1106.02,671.543C1107.28,670.914 1093.31,660.571 1075.78,652.534C1067.19,648.598 1021.98,627.587 1015.29,630.932C1014.88,631.136 1034.3,644.254 1035.17,644.757C1044.97,650.435 1054.36,656.686 1063.68,662.903C1064.54,663.479 1067.31,664.631 1066.27,664.631C1055.99,664.631 1033.96,649.336 1023.93,645.621C1017.01,643.057 1010.2,640.179 1003.2,637.844C1001.53,637.29 996.772,635.742 998.011,636.98C1012.56,651.525 1040.07,653.12 1054.18,667.223C1055.54,668.589 1050.8,665.309 1048.99,664.631C1043.19,662.454 1044.01,662.388 1037.76,659.446C1025.72,653.78 1013.02,649.486 1000.6,644.757C997.199,643.46 987.203,639.28 990.234,641.301C997.298,646.01 1006.02,649.625 1013.56,653.398C1019.33,656.278 1025.09,659.158 1030.85,662.038C1086.19,689.711 971.284,630.008 966.904,634.388C965.6,635.692 969.749,636.738 971.225,637.844C979.921,644.367 989.562,649.538 998.875,655.126C1000.76,656.254 1005.9,659.68 1004.92,657.718C999.533,646.937 945.27,625.358 974.681,642.165C979.736,645.054 991.345,655.99 997.147,655.99C998.369,655.99 995.419,654.262 994.555,653.398C991.166,650.009 986.754,647.769 982.458,645.621C972.995,640.89 957.871,631.796 947.031,631.796C945.48,631.796 947.662,635.02 948.759,636.116C952.142,639.499 955.517,642.526 959.128,645.621C961.293,647.477 965.176,654.521 965.176,651.67C965.176,644.657 944.69,637.106 939.254,634.388C936.239,632.881 929.749,627.561 929.749,630.932C929.749,635.545 954.91,654.262 959.992,654.262C969.028,654.262 916.307,628.625 916.788,630.068C919.055,636.869 932.882,643.343 938.39,647.349C939.213,647.948 952.475,658.323 953.079,657.718C954.329,656.468 951.719,654.569 951.351,654.262C946.442,650.17 915.962,630.894 913.332,633.524C912.145,634.712 914.737,636.657 915.924,637.844C923.905,645.826 935.179,651.968 944.439,658.582C945.487,659.331 946.984,661.221 947.895,660.31C948.272,659.934 911.587,628.356 907.284,632.66C906.64,633.304 907.448,634.669 908.148,635.252C916.708,642.386 926.267,649.169 935.798,655.126C937.222,656.016 938.931,658.906 940.118,657.718C941.422,656.414 938.062,654.598 936.662,653.398C927.319,645.39 904.43,632.058 902.963,633.524C901.607,634.88 926.293,654.71 926.293,652.534C926.293,645.288 908.788,638.109 903.827,634.388C903.312,634.002 901.811,632.948 902.099,633.524C904.876,639.078 916.854,643.414 921.973,646.485C923.114,647.17 933.664,652.357 933.206,651.67C928.854,645.141 895.438,628.702 893.458,632.66C891.232,637.113 901.305,644.826 903.827,647.349C905.131,648.653 908.731,652.555 908.148,650.806C906.928,647.147 887.073,623.493 883.09,627.476C880.092,630.473 890.449,642.514 891.73,644.757C893.457,647.779 898.512,656.723 896.051,654.262C894.434,652.645 882.231,629.198 878.769,632.66C875.44,635.989 878.769,646.097 878.769,649.941C878.769,650.229 878.769,651.094 878.769,650.806C878.769,646.033 880.549,632.712 877.041,629.204C874.082,626.244 869.98,635.549 869.265,636.98C867.304,640.902 870.703,635.537 870.993,636.116C874.341,642.814 861.923,665.5 858.896,659.446C857.205,656.064 859.144,647.716 860.624,644.757C873.018,619.968 909.668,639.791 929.749,646.485C989.576,666.427 1078.72,716.475 1140.58,716.475C1158.89,716.475 1177.08,719.067 1195.02,719.067C1195.55,719.067 1198.14,719.404 1198.48,719.067C1217.37,700.171 1110.34,672.778 1101.7,671.543C1096.88,670.855 1068,665.509 1068,669.815" style="fill:none;stroke:white;stroke-width:12.7px;"/>
        <path d="M1073.39,603.093C1071.18,604.099 1069.39,605.943 1068.53,608.828C1067.95,610.808 1068.48,615.031 1068.85,617.335C1068.87,618.189 1068.92,619.008 1068.99,619.75C1069.24,622.278 1069.86,624.181 1070.23,624.922C1071,626.458 1072.19,627.639 1073.6,628.39L1074.23,632.121C1074.88,636.033 1078.3,638.876 1082.26,638.805C1086.23,638.734 1089.54,635.769 1090.05,631.836L1090.1,631.417C1091.49,629.839 1092.9,626.908 1092.4,622.738C1091.92,618.747 1088.57,608.648 1088.09,607.206L1088.09,607.151C1088.09,605.191 1085.93,604.041 1083.2,603.64C1082.7,603.283 1082.18,602.969 1081.64,602.699C1078.69,601.224 1076.04,601.551 1073.65,602.931C1073.57,602.982 1073.48,603.036 1073.39,603.093Z" style="fill:white;"/>
        <path d="M1066.67,603.235C1066.55,603.393 1066.42,603.559 1066.3,603.731C1064.57,606.165 1062.94,612.282 1063.22,616.661C1063.45,620.192 1064.88,622.856 1066.32,624.298C1066.72,624.692 1067.14,625.036 1067.59,625.33C1068.41,630.001 1070.11,633.49 1071.73,635.111C1073.96,637.338 1075.97,637.61 1077.18,637.706C1079.16,637.865 1080.81,637.353 1082.22,636.455C1083.62,635.564 1084.9,634.169 1085.6,632.172C1085.93,631.205 1086.03,629.789 1086.03,628.809L1086.06,628.779C1086.06,627.39 1085.95,624.521 1085.66,621.225C1087.48,619.522 1088.48,616.998 1088.13,614.343C1087.49,609.478 1084.4,602.238 1083.12,597.101C1082.89,596.171 1082.56,594.28 1082.56,594.28C1081.85,590.193 1078.12,587.332 1073.99,587.692C1069.86,588.052 1066.68,591.512 1066.68,595.662L1066.68,601.745L1066.67,603.235ZM1070.14,628.862C1070.11,629.311 1070.11,629.675 1070.13,629.809C1071,636.611 1078.06,636.779 1078.06,636.779L1070.14,628.862Z" style="fill:white;"/>
        <path d="M982.882,599.247C979.053,599.841 976.118,603.156 976.118,607.151C976.118,611.567 979.703,615.151 984.118,615.151C985.246,615.151 987.15,614.81 989.319,613.915C990.375,613.479 992.154,612.695 993.412,612.134C994.047,612.375 994.742,612.605 995.497,612.818C1003.13,614.973 1021,618.04 1033.39,619.052C1039.71,619.568 1044.83,619.414 1047.28,618.769C1048.36,618.483 1049.27,618.091 1050.02,617.656L1054.46,618.967C1054.63,619.444 1054.82,619.882 1054.97,620.16C1055.66,621.434 1056.51,622.319 1057.24,622.898C1058.63,624 1060.1,624.502 1061.52,624.648C1063.66,624.869 1066,624.449 1068.17,622.27C1071.53,618.911 1072.93,615.386 1073.18,613.014C1073.48,610.128 1072.63,607.781 1071.22,605.989C1069.42,603.701 1065.44,600.892 1058.57,603.202C1056.92,602.614 1055.17,602.141 1053.48,601.856C1049.3,601.152 1045.49,601.858 1042.83,603.282C1039.59,602.953 1005.52,599.444 998.581,597.031L998.551,597.02C996.867,595.928 994.361,595.142 991.09,595.938C989.137,596.412 983.77,598.842 982.882,599.247Z" style="fill:white;"/>
        <path d="M581.232,1009.02C578.036,1016.01 539.856,999.536 533.141,997.298C528.2,995.651 525.74,987.117 521.908,985.201C521.503,984.998 519.695,982.608 519.316,982.608C517.765,982.608 520.184,985.638 521.044,986.929C524.467,992.063 530.03,999.256 534.869,1002.48C549.414,1012.18 569.875,1017.17 587.578,1017.17C590.515,1017.17 596.218,1015.44 596.218,1015.44C596.218,1015.44 589.353,1017.17 585.849,1017.17C568.279,1017.17 546.538,1015.88 533.141,1002.48C531.218,1000.56 516.305,980.016 517.588,980.016C519.05,980.016 522.845,986.804 523.636,987.793C530.997,996.993 541.081,1005 551.287,1011.12C571.141,1023.03 595.285,1015.28 616.092,1011.12" style="fill:none;stroke:black;stroke-width:12.7px;"/>
        <path d="M318.862,932.499L294.825,995.887L895.837,1531.62L1491.78,994.538L1474.71,915.747" style="fill:none;stroke:black;stroke-width:11.43px;"/>
    </g>
    <g transform="matrix(0.886285,0.125495,-0.122227,0.863205,206.552,-11.0042)">
        <path d="M1193.03,958.32C1187.99,965.783 1175.59,963.024 1168.49,970.121C1161.61,977.006 1150.15,976.523 1140.92,979.6C1101.69,992.675 1097.86,952.468 1076.29,941.684C1060.12,933.598 1013.72,946.933 997.011,921.864C992.895,915.691 985.054,895.798 989.255,887.395C999.131,867.643 1031.1,787.435 984.947,787.435" style="fill:none;stroke:black;stroke-width:12.94px;"/>
        <path d="M1194.83,958.679C1191.3,960.42 1201.62,953.748 1205.55,953.748C1217.56,953.748 1225.92,951.659 1235.71,945.131C1262.87,927.022 1270.88,902.512 1280.52,873.608C1287.51,852.638 1267.31,839.393 1270.18,827.936C1271.82,821.384 1278.46,815.677 1281.38,809.84C1287.32,797.951 1286.51,782.45 1289.13,769.339C1301.13,709.376 1237.78,649.559 1185.73,649.559" style="fill:none;stroke:black;stroke-width:12.94px;"/>
        <path d="M1085.63,945.208C1078.95,944.497 1082.01,918.182 1084.05,914.109C1094.59,893.028 1116.84,873.346 1140.06,866.714C1160.3,860.93 1180.98,862.833 1200.38,869.299C1216.78,874.766 1212.93,898.352 1231.4,889.119" style="fill:none;stroke:black;stroke-width:12.94px;"/>
        <path d="M1007.65,844.876C1004.43,838.72 1009.31,834.36 1011.66,829.66C1028.49,796.006 1088.97,773.367 1127.13,778.818C1166.5,784.443 1173.93,853.037 1211.58,827.936" style="fill:none;stroke:black;stroke-width:12.94px;"/>
        <path d="M1270.88,826.735C1272.47,821.593 1248.82,815.534 1244.33,813.287C1225.06,803.654 1210.31,792.252 1202.96,770.201C1189.66,730.294 1244.33,714.437 1244.33,730.562" style="fill:none;stroke:black;stroke-width:12.94px;"/>
        <path d="M986.832,785.675C949.787,786.997 966.506,749.519 934.105,749.519" style="fill:none;stroke:black;stroke-width:12.94px;"/>
        <path d="M931.708,748.675C931.646,748.669 931.583,748.664 931.52,748.658" style="fill:none;stroke:black;stroke-width:12.94px;"/>
        <path d="M930.685,748.567C930.676,748.597 930.667,748.628 930.658,748.658" style="fill:none;stroke:black;stroke-width:12.94px;"/>
        <path d="M929.554,748.352C928.42,748.912 929.165,748.658 927.211,748.658" style="fill:none;stroke:black;stroke-width:12.94px;"/>
        <path d="M925.999,747.885C924.714,747.662 923.348,747.796 922.041,747.796" style="fill:none;stroke:black;stroke-width:12.94px;"/>
        <path d="M918.352,746.412C918.432,746.299 918.513,746.186 918.594,746.073" style="fill:none;stroke:black;stroke-width:12.94px;"/>
        <path d="M917.194,745.837C915.974,745.192 915.593,745.211 914.285,745.211" style="fill:none;stroke:black;stroke-width:12.94px;"/>
        <path d="M884.078,746.551C882.325,749.493 863.67,739.078 860.59,737.024C837.946,721.928 820.942,703.003 812.97,679.086C809.874,669.8 815.468,655.362 816.938,646.546C819.926,628.618 838.197,585.641 863.765,594.163C872.899,597.208 878.23,600.513 887.575,600.513" style="fill:none;stroke:black;stroke-width:12.94px;"/>
        <path d="M1294.43,782.614C1293,783.892 1306.87,774.001 1315.36,790.994C1327.66,815.586 1333.61,812.382 1339.17,840.202C1347.09,879.765 1301.27,952.708 1274.89,979.094C1259.26,994.72 1236.01,993.375 1216.95,999.73C1157.51,1019.54 1094.78,1014.07 1050.28,969.57C1039.22,958.509 1022.81,950.039 1014.56,941.792C1014.14,941.371 1012.98,940.981 1012.98,940.204" style="fill:none;stroke:black;stroke-width:12.94px;"/>
        <path d="M835.33,668.711C825.316,667.074 844.807,618.377 859.997,610.782C874.459,603.551 924.218,601.711 929.796,596.133C933.624,592.305 939.15,582.596 941.861,577.175C951.585,557.726 986.801,542.662 1007.35,535.812C1018.79,531.999 1030.42,537.486 1040.96,540.121C1088.04,551.892 1073.81,599.2 1109.04,616.814C1130.18,627.388 1194.35,614.621 1194.35,649.559" style="fill:none;stroke:black;stroke-width:12.94px;"/>
        <path d="M956.887,747.777C955.78,750.363 953.443,746.35 953.063,745.211C948.853,732.581 948.732,723.781 951.339,710.742C956.748,683.699 977.222,675.401 1000.46,667.656C1020.6,660.942 1060.66,666.18 1073.7,685.752C1077.5,691.447 1082.32,702.557 1088.35,705.572C1094.19,708.488 1098.53,705.047 1101.28,699.539" style="fill:none;stroke:black;stroke-width:12.94px;"/>
        <path d="M905.533,735.563C900.953,736.626 884.999,725.404 881.54,721.944" style="fill:none;stroke:black;stroke-width:12.94px;"/>
        <path d="M878.443,718.895C835.725,688.026 859.537,626.029 912.562,636.634C946.015,643.324 957.191,670.762 922.041,688.337" style="fill:none;stroke:black;stroke-width:12.94px;"/>
        <path d="M968.762,621.006C964.57,621.472 970.098,616.152 972.021,614.229" style="fill:none;stroke:black;stroke-width:12.94px;"/>
        <path d="M975.629,611.307C976.655,610.538 976.123,610.988 977.191,609.92" style="fill:none;stroke:black;stroke-width:12.94px;"/>
        <path d="M978.942,608.433C1024.16,579.173 1041.43,626.099 1074.57,642.666" style="fill:none;stroke:black;stroke-width:12.94px;"/>
        <path d="M1134,663.107C1129.31,664.454 1138.13,661.624 1140.92,661.624C1151.68,661.624 1162.99,671.16 1165.05,681.443C1171.43,713.348 1153.06,735.809 1179.7,762.445" style="fill:none;stroke:black;stroke-width:12.94px;"/>
    </g>
    <g id="Слой1" transform="matrix(1,0,0,1,4.28189,48.5945)">
        <g transform="matrix(0.622943,-0.0906315,0.0773588,0.624587,243.735,432.516)">
            <circle cx="841.422" cy="949.97" r="28.191" style="fill:none;stroke:black;stroke-width:12.24px;"/>
        </g>
        <g transform="matrix(0.889179,0,0,0.733382,69.8073,247.726)">
            <ellipse cx="928.857" cy="970.11" rx="17.191" ry="19.565" style="fill:none;stroke:black;stroke-width:9.35px;"/>
        </g>
        <g transform="matrix(1.18227,0,0,1.18499,-161.981,-172.954)">
            <ellipse cx="878.404" cy="925.343" rx="10.302" ry="9.604" style="fill:none;stroke:black;stroke-width:6.44px;"/>
        </g>
        <ellipse cx="926.119" cy="1005.28" rx="12.281" ry="12.163" style="fill:none;stroke:black;stroke-width:7.62px;"/>
        <ellipse cx="941.415" cy="967.143" rx="12.576" ry="11.652" style="fill:none;stroke:black;stroke-width:7.62px;"/>
        <ellipse cx="923.293" cy="921.775" rx="14.459" ry="12.522" style="fill:none;stroke:black;stroke-width:7.62px;"/>
        <g transform="matrix(0.941601,0.0738519,-0.0857445,1.09323,128.024,-148.173)">
            <ellipse cx="890.97" cy="893.836" rx="11.703" ry="9.93" style="fill:none;stroke:black;stroke-width:7.45px;"/>
        </g>
        <g transform="matrix(1,0,0,1,22.1214,8.71512)">
            <circle cx="848.751" cy="995.295" r="16.954" style="fill:none;stroke:black;stroke-width:7.62px;"/>
        </g>
        <g transform="matrix(0.996595,-0.0824534,0.0824534,0.996595,-69.6101,80.1149)">
            <ellipse cx="935.18" cy="882.855" rx="12.91" ry="13.339" style="fill:none;stroke:black;stroke-width:7.62px;"/>
        </g>
        <ellipse cx="818.645" cy="986.529" rx="15.409" ry="14.07" style="fill:none;stroke:black;stroke-width:7.62px;"/>
        <g transform="matrix(0.967334,0.253506,-0.253506,0.967334,257.298,-183.505)">
            <ellipse cx="840.694" cy="906.626" rx="12.547" ry="11.758" style="fill:none;stroke:black;stroke-width:7.62px;"/>
        </g>
        <ellipse cx="973.164" cy="944.844" rx="14.363" ry="13.232" style="fill:none;stroke:black;stroke-width:7.62px;"/>
        <ellipse cx="962.936" cy="911.083" rx="9.681" ry="8.713" style="fill:none;stroke:black;stroke-width:7.62px;"/>
        <ellipse cx="981.587" cy="1002.5" rx="15.102" ry="14.315" style="fill:none;stroke:black;stroke-width:7.62px;"/>
        <ellipse cx="795.974" cy="944.311" rx="12.998" ry="12.931" style="fill:none;stroke:black;stroke-width:7.62px;"/>
        <ellipse cx="901.443" cy="860.303" rx="11.756" ry="11.288" style="fill:none;stroke:black;stroke-width:7.62px;"/>
        <ellipse cx="1007.98" cy="974.046" rx="11.609" ry="12.8" style="fill:none;stroke:black;stroke-width:7.62px;"/>
    </g>
    <g id="Слой2" transform="matrix(1.2287,0,0,1.2287,-166.534,-204.215)">
        <path d="M559.545,938.4C559.992,938.904 558.298,940.739 557.339,939.78C553.229,935.67 556.745,916.861 558.222,912.43C563.246,897.356 577.344,888.301 584.689,873.611C592.516,857.957 605.62,871.527 615.568,866.553C621.097,863.789 624.844,857.063 630.567,854.201C638.251,850.359 650.456,854.844 658.799,850.672" style="fill:none;stroke:black;stroke-width:10.34px;"/>
        <path d="M662.218,849.984C662.254,849.919 662.291,849.855 662.328,849.79" style="fill:none;stroke:black;stroke-width:10.34px;"/>
        <path d="M664.313,849.616C675.787,850.907 689.625,840.656 701.147,844.496C719.397,850.58 741.843,869.256 759.376,878.022C789.321,892.995 767.945,965.209 742.613,971.542C707.446,980.333 675.795,987.314 639.389,981.246C620.308,978.066 593.727,968.12 577.631,960.072C568.209,955.361 569.067,940.663 556.457,940.663" style="fill:none;stroke:black;stroke-width:10.34px;"/>
        <path d="M555.216,941.563C548.992,941.346 555.346,966.445 556.457,969.777C562.796,988.794 592.244,996.41 607.628,1001.54C613.717,1003.57 621.674,999.977 627.92,1001.54C650.992,1007.31 665.725,1008.05 687.913,1000.66C698.824,997.019 717.329,1004.92 727.615,999.774C753.935,986.614 769.963,961.978 769.963,932.722" style="fill:none;stroke:black;stroke-width:10.34px;"/>
        <path d="M582.236,913.979C580.027,914.422 581.208,909.27 582.043,908.019C587.108,900.421 615.568,897.679 615.568,908.019" style="fill:none;stroke:black;stroke-width:10.34px;"/>
        <path d="M609.641,922.769C605.228,923.738 619.325,944.903 633.213,934.487" style="fill:none;stroke:black;stroke-width:10.34px;"/>
        <path d="M648.874,911.184C647.138,912.139 639.545,905.735 657.917,896.55" style="fill:none;stroke:black;stroke-width:10.34px;"/>
        <path d="M635.75,878.377C626.383,874.069 636.174,872.729 646.447,872.729" style="fill:none;stroke:black;stroke-width:10.34px;"/>
        <path d="M670.875,937.591C673.117,933.871 677.22,937.134 684.384,937.134" style="fill:none;stroke:black;stroke-width:10.34px;"/>
        <path d="M635.86,954.436C635.86,963.997 645.878,968.375 654.388,966.248" style="fill:none;stroke:black;stroke-width:10.34px;"/>
        <path d="M685.404,908.168C675.553,906.729 702.609,901.692 709.97,905.372" style="fill:none;stroke:black;stroke-width:10.34px;"/>
        <path d="M681.517,871.573C676.218,872.511 697.349,862.754 706.441,871.846" style="fill:none;stroke:black;stroke-width:10.34px;"/>
        <path d="M714.298,939.246C711.982,940.794 730.682,945.536 737.32,938.898" style="fill:none;stroke:black;stroke-width:10.34px;"/>
        <path d="M733.267,900.445C731.074,892.808 743.994,898.62 746.142,901.843" style="fill:none;stroke:black;stroke-width:10.34px;"/>
        <path d="M725.327,919.827C719.115,922.549 727.706,920.28 730.262,917.724" style="fill:none;stroke:black;stroke-width:10.34px;"/>
        <path d="M689.733,961.424C689.53,966.186 700.887,962.849 702.912,961.837" style="fill:none;stroke:black;stroke-width:10.34px;"/>
    </g>
    <g id="Слой3" transform="matrix(1.05717,0,0,1.05717,-5.98504,-26.967)">
        <path d="M624.108,764.589C629.804,773.989 639.567,782.726 649.371,789.262C668.899,802.28 743.961,799.232 760.954,782.239C766.84,776.353 779.44,780.381 784.364,770.534C800.428,738.405 795.812,711.499 779.682,679.238C763.634,647.143 726.568,634.007 695.409,649.587C685.842,654.37 670.098,649.96 659.515,653.488C646.446,657.845 636.051,668.592 622.84,672.996C611.445,676.794 596.039,676.252 585.385,681.579C573.52,687.512 547.989,721.491 555.734,736.981C564.004,753.521 594.954,762.053 610.355,769.754C613.564,771.358 629.083,761.918 629.083,767.413" style="fill:none;stroke:black;stroke-width:12.02px;"/>
        <path d="M553.881,743.12C550.915,743.748 552.966,747.198 551.052,751.027C539.296,774.539 576.852,795.139 593.188,803.307C609.832,811.629 649.899,804.524 664.977,809.55C672.32,811.997 679.105,817.38 686.045,819.694C694.695,822.577 705.651,815.377 713.356,813.451C735.13,808.008 754.563,818.598 775.78,807.989C807.929,791.915 807.723,761.022 796.848,728.398C795.942,725.679 794.063,717.029 792.167,715.133" style="fill:none;stroke:black;stroke-width:12.02px;"/>
        <path d="M582.996,721.716C574.004,727.11 593.388,739.322 599.431,739.322" style="fill:none;stroke:black;stroke-width:12.02px;"/>
        <path d="M612.282,700.638C608.127,699.437 625.707,697.707 629.863,698.746" style="fill:none;stroke:black;stroke-width:12.02px;"/>
        <path d="M624.523,724.286C620.088,725.318 631.636,730.029 633.764,730.739" style="fill:none;stroke:black;stroke-width:12.02px;"/>
        <path d="M649.785,758.409C655.987,765.545 660.43,765.798 671.999,761.171" style="fill:none;stroke:black;stroke-width:12.02px;"/>
        <path d="M659.71,730.499C654.33,727.516 677.222,725.276 679.022,725.276" style="fill:none;stroke:black;stroke-width:12.02px;"/>
        <path d="M659.002,699.402C662.694,697.529 665.589,696.642 669.659,695.625" style="fill:none;stroke:black;stroke-width:12.02px;"/>
        <path d="M673.17,672.956C676.935,673.084 680.717,672.996 684.484,672.996" style="fill:none;stroke:black;stroke-width:12.02px;"/>
        <path d="M700.822,696.702C700.039,696.384 702.431,703.817 702.431,705.769" style="fill:none;stroke:black;stroke-width:12.02px;"/>
        <path d="M695.969,742.372C691.954,742.881 708.982,750.092 716.477,746.345" style="fill:none;stroke:black;stroke-width:12.02px;"/>
        <path d="M733.766,709.844C733.527,709.798 738.712,716.687 739.886,719.034" style="fill:none;stroke:black;stroke-width:12.02px;"/>
        <path d="M715.526,775.779C721.33,777.105 726.876,772.617 732.083,770.534" style="fill:none;stroke:black;stroke-width:12.02px;"/>
        <path d="M742.763,745.17C743.066,743.723 743.285,743.501 742.227,742.443" style="fill:none;stroke:black;stroke-width:12.02px;"/>
        <path d="M771.757,741.982C772.503,735.255 771.879,728.124 771.879,721.375" style="fill:none;stroke:black;stroke-width:12.02px;"/>
        <path d="M720.817,672.826C724.213,673.341 731.385,673.859 733.644,676.117" style="fill:none;stroke:black;stroke-width:12.02px;"/>
        <path d="M753.956,682.747C753.868,684.158 758.389,688.933 759.394,690.943" style="fill:none;stroke:black;stroke-width:12.02px;"/>
    </g>
</svg>
