<?xml version="1.0" encoding="UTF-8" standalone="no"?>
<!DOCTYPE svg PUBLIC "-//W3C//DTD SVG 1.1//EN" "http://www.w3.org/Graphics/SVG/1.1/DTD/svg11.dtd">
<svg width="100%" height="100%" viewBox="0 0 1749 1749" version="1.1" xmlns="http://www.w3.org/2000/svg" xmlns:xlink="http://www.w3.org/1999/xlink" xml:space="preserve" xmlns:serif="http://www.serif.com/" style="fill-rule:evenodd;clip-rule:evenodd;stroke-linecap:round;stroke-linejoin:round;stroke-miterlimit:1.5;">
    <g id="Слой1">
        <g transform="matrix(1.02937,0,0,0.992571,-9.54197,-89.9212)">
            <ellipse cx="694.032" cy="811.632" rx="343.414" ry="95.17" style="fill:none;stroke:black;stroke-width:12.36px;"/>
        </g>
        <g transform="matrix(0.568656,0,0,0.678543,315.512,1062.42)">
            <ellipse cx="694.032" cy="811.632" rx="343.414" ry="95.17" style="fill:none;stroke:black;stroke-width:19.97px;"/>
        </g>
        <path d="M514.894,1613.15C514.894,1613.15 362.64,723.574 356.403,729.076" style="fill:none;stroke:black;stroke-width:12.5px;"/>
        <path d="M905.513,1614.3L1053.54,733.975" style="fill:none;stroke:black;stroke-width:12.5px;"/>
        <path d="M267.96,265.648C283.128,237.019 313.717,227.135 338.743,233.82C329.897,264.87 299.072,275.657 267.96,265.648Z" style="fill:none;stroke:black;stroke-width:12.5px;"/>
        <path d="M484.387,783.07L267.96,265.648L495.892,809.811L525.403,819.292L515.109,843.567L546.118,852.75L830.299,1541.94L885.242,1541.81L593.349,808.621L339.858,238.812" style="fill:none;stroke:black;stroke-width:12.5px;"/>
        <g transform="matrix(1.02508,0,0,1.39105,-16.5993,-427.81)">
            <ellipse cx="708.353" cy="1011.77" rx="294.22" ry="49.718" style="fill:none;stroke:black;stroke-width:10.23px;"/>
        </g>
        <path d="M388.701,351.177C387.926,357.419 353.852,344.817 351.924,343.532C331.888,330.174 274.13,302.482 274.13,275.411" style="fill:none;stroke:black;stroke-width:12.5px;"/>
        <path d="M433.669,451.124C419.487,477.439 343.667,415.841 329.488,401.662C322.694,394.868 321.534,384.529 315.21,378.206" style="fill:none;stroke:black;stroke-width:12.5px;"/>
        <path d="M481.442,577.072C481.112,580.484 493.251,586.88 490.334,585.421C474.486,577.497 444.98,569.385 429.144,558.827C416.284,550.254 400.042,539.431 387.618,533.219C381.457,530.139 367.636,508.468 367.636,500.721" style="fill:none;stroke:black;stroke-width:12.5px;"/>
        <path d="M613.633,1151.34C607.051,1153.45 591.173,1141.84 580.618,1147.12C545.891,1164.48 515.416,1198.8 498.475,1232.68C493.762,1242.11 499.223,1265.73 501.897,1273.76C506.053,1286.22 500.602,1301.97 506.461,1313.69C524.685,1350.13 582.854,1432.36 637.663,1404.96C646.039,1400.77 656.512,1402.08 661.621,1396.97C664.485,1394.11 662.228,1386.78 660.48,1383.28C651.61,1365.54 614.953,1387.95 606.859,1379.86C575.175,1348.17 558.817,1362.5 529.279,1303.42C505.873,1256.61 539.075,1214.9 565.787,1188.19C577.121,1176.85 601.735,1176.2 610.281,1167.65C613.213,1164.72 613.704,1159.98 613.704,1153.96" style="fill:none;stroke:black;stroke-width:12.5px;"/>
        <path d="M613.811,1175.16C612.865,1189.44 614.845,1202.52 614.845,1216.71C614.845,1222.74 618.886,1252.6 614.845,1256.64C613.494,1257.99 610.086,1254.83 609.141,1254.36C594.788,1247.18 562.828,1211.01 546.392,1211.01" style="fill:none;stroke:black;stroke-width:12.5px;"/>
        <path d="M619.408,1264.48C619.408,1269.1 631.799,1271.63 628.536,1274.89C624.207,1279.22 543.034,1258.86 526.997,1274.89" style="fill:none;stroke:black;stroke-width:12.5px;"/>
        <path d="M613.348,1282.75C613.771,1284.26 599.016,1291.87 596.591,1294.29C582.996,1307.88 571.447,1326.28 561.223,1336.5" style="fill:none;stroke:black;stroke-width:12.5px;"/>
        <path d="M625.897,1280.03C616.318,1286.94 606.859,1325.99 606.859,1338.79C606.859,1346.98 605.445,1357.58 602.295,1363.88C602.002,1364.47 602.295,1366.05 602.295,1365.03" style="fill:none;stroke:black;stroke-width:12.5px;"/>
        <path d="M627.288,1287.74C621.958,1286.22 626.957,1294.82 627.395,1296.57C633.278,1320.11 634.515,1351.61 651.353,1368.45C652.566,1369.66 653.635,1370.54 653.635,1373.01" style="fill:none;stroke:black;stroke-width:12.5px;"/>
        <path d="M765.192,1118.66C767.614,1106.92 838.931,1096.25 849.867,1107.19C863.108,1120.43 884.357,1129.39 893.221,1147.12C906.844,1174.36 915.85,1222.79 902.348,1249.8C897.827,1258.84 887.564,1273.16 877.248,1278.32C874.795,1279.55 870.403,1282.88 870.403,1282.88C870.403,1282.88 873.445,1285.92 874.967,1287.44C884.719,1297.2 917.232,1268 924.025,1261.2C932.632,1252.6 934.292,1232.01 934.292,1216.71C934.292,1155.91 917.165,1111.17 865.839,1085.51C855.987,1080.58 795.106,1079.23 787.118,1083.23C776.75,1088.41 754.033,1101.63 754.033,1114.03C754.033,1122.97 766.583,1121.51 766.583,1116.31" style="fill:none;stroke:black;stroke-width:12.5px;"/>
        <path d="M766.868,1121.71C764.395,1122.24 764.469,1122.1 766.583,1123.16C781.511,1130.62 793.392,1147.88 807.654,1157.38C812.573,1160.66 830.034,1186.34 830.472,1185.91C835.14,1181.24 825.908,1115.14 825.908,1107.19" style="fill:none;stroke:black;stroke-width:12.5px;"/>
        <path d="M831.042,1190C805.828,1210.64 842.093,1203.74 847.585,1192.75C855.512,1176.9 852.644,1156.07 862.417,1141.41C865.389,1136.95 871.544,1120.51 871.544,1120.88" style="fill:none;stroke:black;stroke-width:12.5px;"/>
        <path d="M841.489,1199.37C838.456,1200.28 852.142,1193.13 856.712,1191.61C874.22,1185.78 882.217,1177.92 898.925,1177.92" style="fill:none;stroke:black;stroke-width:12.5px;"/>
        <path d="M844.662,1197.57C839.22,1200.52 850.302,1199.6 852.149,1199.6C861.061,1199.6 870.101,1208.52 877.248,1213.29C882.898,1217.05 903.697,1232.68 906.911,1232.68" style="fill:none;stroke:black;stroke-width:12.5px;"/>
        <path d="M839.064,1209.31C835.542,1212.52 851.386,1235.85 856.712,1242.95C860.013,1247.35 869.841,1278.32 872.685,1278.32" style="fill:none;stroke:black;stroke-width:12.5px;"/>
        <path d="M537.373,702.298C534.511,712.11 513.08,700.471 502.858,700.471C470.275,700.471 445.243,648.897 427.742,636.928C420.08,631.689 426.137,633.948 420.252,628.063" style="fill:none;stroke:black;stroke-width:12.5px;"/>
        <path d="M575.457,778.523C552.202,787.635 478.469,738.291 462.065,721.887" style="fill:none;stroke:black;stroke-width:12.5px;"/>
        <path d="M617.971,879.408C618.645,882.331 615.651,880.572 615.039,879.96C608.23,873.151 593.726,868.846 585.464,860.584C568.182,843.301 547.333,827.949 524.275,827.949" style="fill:none;stroke:black;stroke-width:12.5px;"/>
        <path d="M647.737,954.359C636.694,954.856 564.048,908.456 564.048,903.416" style="fill:none;stroke:black;stroke-width:12.5px;"/>
        <path d="M675.209,1023.36C663.143,1028.06 613.644,994.825 604.841,986.022" style="fill:none;stroke:black;stroke-width:12.5px;"/>
        <path d="M722.695,1142.48C711.816,1134.41 648.694,1112.74 648.694,1092.08" style="fill:none;stroke:black;stroke-width:12.5px;"/>
        <path d="M759.663,1231.89C759.923,1233.15 760.018,1232.39 758.835,1231.8C750.023,1227.39 738.403,1224.64 728.24,1219.56C715.406,1213.15 679.288,1190.33 679.288,1178.77" style="fill:none;stroke:black;stroke-width:12.5px;"/>
        <path d="M782.673,1282.14C783.575,1283.06 783.885,1283.81 782.291,1283.81C774.424,1283.81 761.153,1285.26 753.736,1282.79C746.752,1280.46 730.578,1274.93 726.2,1270.55C725.032,1269.39 718.006,1261.38 717.022,1261.38" style="fill:none;stroke:black;stroke-width:12.5px;"/>
        <path d="M808.36,1343.7C809.331,1346.53 783.263,1339.64 780.251,1338.88C771.445,1336.68 733.339,1311.05 733.339,1309.31" style="fill:none;stroke:black;stroke-width:12.5px;"/>
        <path d="M827.737,1397.99C820.697,1411.05 768.082,1374.64 761.894,1368.46" style="fill:none;stroke:black;stroke-width:12.5px;"/>
        <path d="M846.667,1456.49C845.717,1461.68 832.431,1459.31 828.183,1457.18C809.573,1447.88 796.677,1438.93 784.331,1426.59C783.203,1425.46 782.426,1423.53 781.271,1423.53" style="fill:none;stroke:black;stroke-width:12.5px;"/>
        <path d="M875.223,1521.83C863.374,1517.72 806.767,1498.66 806.767,1484.72" style="fill:none;stroke:black;stroke-width:12.5px;"/>
    </g>
    <g id="Слой2">
        <g transform="matrix(1.06897,0,0,1.04823,-70.0781,-51.4825)">
            <ellipse cx="1180.01" cy="155.617" rx="169.564" ry="52.551" style="fill:none;stroke:black;stroke-width:11.81px;"/>
        </g>
        <g transform="matrix(1.30494,0,0,1,-366.079,-17.032)">
            <ellipse cx="1195.59" cy="125.954" rx="78.685" ry="22.888" style="fill:none;stroke:black;stroke-width:10.75px;"/>
        </g>
        <path d="M1009.84,118.955C991.009,133.063 996.121,160.043 1012.09,184.364C1126.27,222.235 1253.06,221.067 1369.04,182.984C1380.08,159.95 1381.42,138.809 1373.92,119.392" style="fill:none;stroke:black;stroke-width:12.5px;"/>
        <path d="M907.981,630.84C908.68,636.695 906.911,619.079 906.911,613.183C906.911,600.312 908.052,589.744 908.052,577.815C908.052,553.876 917.478,495.074 927.447,475.136C933.186,463.657 932.004,448.909 937.715,437.487C948.703,415.511 968.939,398.276 984.491,382.724C994.875,372.34 983.73,348.88 990.196,335.948C996.388,323.563 1018.91,285.555 1026.7,277.763C1037.45,267.018 1027.85,236.541 1027.85,224.141C1027.85,219.239 1039.6,197.901 1033.55,197.901" style="fill:none;stroke:black;stroke-width:12.5px;"/>
        <path d="M1473.57,643.355C1474.26,602.979 1472.71,462.956 1459.06,440.21C1452.16,428.7 1438.33,422.902 1430.54,415.11C1420.75,405.315 1430.06,374.213 1423.69,361.489C1416.51,347.11 1399.67,341.958 1395.17,332.967C1387.42,317.459 1392.01,292.407 1383.76,275.922C1375.63,259.658 1354.56,256.308 1347.26,241.696C1343.08,233.337 1351.82,219.04 1351.82,209.751C1351.82,209.476 1343.71,194.92 1348.4,194.92" style="fill:none;stroke:black;stroke-width:12.5px;"/>
        <path d="M1070.56,224.113C1069.2,228.201 1093.9,209.672 1114.52,230.287" style="fill:none;stroke:black;stroke-width:12.5px;"/>
        <path d="M1204.54,235.718C1214.86,237.98 1286.79,240.206 1286.79,223.442" style="fill:none;stroke:black;stroke-width:12.5px;"/>
        <path d="M1033.9,222.734C1033.01,219.149 1042.3,223.105 1043.78,224.583" style="fill:none;stroke:black;stroke-width:12.5px;"/>
        <path d="M1034.19,242.519C1033.91,242.65 1037.85,241.014 1041.5,242.837C1047.77,245.973 1055.36,246.315 1062.04,248.541C1083.37,255.653 1110.14,257.668 1132.77,257.668" style="fill:none;stroke:black;stroke-width:12.5px;"/>
        <path d="M1342.02,215.933C1343.77,214.698 1321.2,221.16 1316.45,221.16" style="fill:none;stroke:black;stroke-width:12.5px;"/>
        <path d="M1341.23,243.423C1344.73,242.02 1336.87,244.778 1335.85,245.119C1325.27,248.644 1314.35,253.731 1302.76,255.387C1271.31,259.879 1241.38,262.232 1209.21,262.232" style="fill:none;stroke:black;stroke-width:12.5px;"/>
        <path d="M1368.04,309.484C1366.24,308.868 1366.92,309.443 1365.51,310.149C1337.06,324.374 1313.92,346.61 1283.37,358.066C1204.16,387.768 1135.19,410.547 1049.49,410.547" style="fill:none;stroke:black;stroke-width:12.5px;"/>
        <path d="M1387.26,383.059C1380.49,383.653 1371.4,400.126 1365.51,404.842C1338.58,426.387 1305.2,444.144 1273.1,456.182C1178.2,491.769 1077.22,525.776 975.328,525.776" style="fill:none;stroke:black;stroke-width:12.5px;"/>
        <path d="M1430.26,451.783C1434.15,448.22 1427.92,456.519 1427.12,457.323C1417.29,467.154 1407.31,477.129 1397.45,486.986C1375.05,509.393 1336.14,530.93 1307.33,544.03C1247.25,571.336 1187.36,593.908 1124.78,614.765C1090.67,626.137 1043.31,620.885 1012.98,633.019" style="fill:none;stroke:black;stroke-width:12.5px;"/>
        <path d="M1447.08,550.423C1446.32,549.496 1422.26,575.131 1419.13,578.257C1403.33,594.06 1383.48,604.208 1365.51,617.047C1313.81,653.973 1250.94,671.824 1195.52,702.613" style="fill:none;stroke:black;stroke-width:12.5px;"/>
        <path d="M1048.59,790.363C1207.87,827.031 1350.83,823.48 1467.8,755.787" style="fill:none;stroke:black;stroke-width:12.5px;"/>
        <path d="M962.243,1268.64C955.588,1331.99 1423.75,1358.53 1459.03,1245.61" style="fill:none;stroke:black;stroke-width:12.5px;"/>
        <path d="M1251.17,1285.18C1259.2,1262.19 1269.5,1283.32 1283.37,1283.32" style="fill:none;stroke:black;stroke-width:12.5px;"/>
        <path d="M1237.52,1278.85C1238.15,1275.19 1206.79,1280.4 1203.5,1278.76C1186.33,1270.17 1156.3,1268.78 1146.46,1249.1C1109.82,1175.81 1132.62,1140.43 1198.94,1096.22C1206.67,1091.07 1222.41,1095.57 1228.6,1089.37" style="fill:none;stroke:black;stroke-width:12.5px;"/>
        <path d="M1230.42,1074.72C1211.63,1069.63 1237.04,1020.7 1252.56,1012.93C1270.73,1003.85 1287.71,992.398 1308.47,992.398" style="fill:none;stroke:black;stroke-width:12.5px;"/>
        <path d="M1292.64,1117.15C1291.56,1122.76 1308.05,1116.57 1316.45,1114.47" style="fill:none;stroke:black;stroke-width:12.5px;"/>
        <path d="M1305.97,1280.66C1306.36,1279.27 1334.95,1283.62 1342.69,1281.04C1373.1,1270.9 1391.75,1259.36 1406.58,1229.7C1417.5,1207.86 1419.01,1167.72 1411.14,1144.13C1407.15,1132.15 1391.4,1117.2 1386.05,1106.49C1384.6,1103.6 1378.06,1100.64 1378.06,1098.5" style="fill:none;stroke:black;stroke-width:12.5px;"/>
        <path d="M1338.2,1110.97C1338.2,1110.97 1343.59,1109.01 1347.26,1105.35C1353.6,1099 1363.97,1091.28 1372.36,1087.09" style="fill:none;stroke:black;stroke-width:12.5px;"/>
        <path d="M1379.99,1078.96C1379.48,1079.05 1383.82,1043.95 1382.62,1039.17C1376.64,1015.24 1357.57,991.257 1332.42,991.257" style="fill:none;stroke:black;stroke-width:12.5px;"/>
        <path d="M1342.3,984.218C1337.77,985.388 1345.12,956.593 1346.12,953.608C1353.03,932.872 1353.59,890.544 1371.21,881.732C1375.02,879.83 1383.76,879.45 1383.76,879.45L1373.5,879.45C1353.32,879.45 1341.36,890.292 1334.71,910.254C1330.98,921.447 1337.26,947.631 1329,955.889C1324.47,960.42 1311.89,982.589 1311.89,986.693C1311.89,988.559 1330.14,982.349 1330.14,987.834" style="fill:none;stroke:black;stroke-width:12.5px;"/>
        <path d="M1361.84,916.207C1359.31,918.738 1366.16,916.285 1370.07,918.24C1379,922.702 1390.09,926.257 1398.6,931.931C1418.11,944.937 1439.67,965.273 1439.67,988.975" style="fill:none;stroke:black;stroke-width:12.5px;"/>
        <path d="M1357.88,923.627C1341.56,990.428 1443.09,968.688 1443.09,996.961" style="fill:none;stroke:black;stroke-width:12.5px;"/>
        <path d="M1442.06,991.638C1441.46,983.2 1446.14,968.034 1449.93,960.453C1452.35,955.63 1449.56,942.597 1447.65,938.776C1428.86,901.196 1394.05,912.536 1360.95,912.536" style="fill:none;stroke:black;stroke-width:12.5px;"/>
        <path d="M1056.29,871.127C1055.37,870.776 1054.2,884.121 1054.2,886.145C1054.2,904.29 1049.06,922.23 1049.06,939.618C1049.06,942.514 1044.95,955.777 1044.95,950.93" style="fill:none;stroke:black;stroke-width:12.5px;"/>
        <path d="M1057.8,869.327C1054.32,871.792 1068.99,866.395 1072.71,867.635C1085.62,871.938 1094.38,887.402 1098.42,899.513C1111.63,939.143 1076.34,951.958 1048.03,951.958" style="fill:none;stroke:black;stroke-width:12.5px;"/>
        <path d="M1120.43,874.257C1118.48,873.645 1161.23,870.557 1152.92,887.173C1144.39,904.229 1133.26,923.29 1118.99,937.562C1115.38,941.165 1105.1,945.27 1108.7,948.873C1113.85,954.019 1156.01,945.271 1156.01,951.958" style="fill:none;stroke:black;stroke-width:12.5px;"/>
        <path d="M1128.5,842.234C1127.7,844.468 1127.46,844.227 1129.27,846.04C1142.18,858.948 1142.64,843.98 1153.95,832.671" style="fill:none;stroke:black;stroke-width:12.5px;"/>
        <path d="M1180.46,879.272C1180.85,876.959 1177.6,896.49 1177.6,902.598C1177.6,919.394 1170.05,948.181 1185.83,956.072C1203.68,964.998 1224.9,890.562 1224.9,877.918C1224.9,875.877 1225.02,869.691 1222.85,869.691" style="fill:none;stroke:black;stroke-width:12.5px;"/>
        <path d="M1281.34,875.757C1273.02,876.722 1267.36,870.129 1259.87,885.117C1247.65,909.544 1276.37,905.789 1283.52,920.08C1287.15,927.334 1284.73,932.91 1282.49,939.618C1273.78,965.76 1220.56,937.562 1235.19,937.562" style="fill:none;stroke:black;stroke-width:12.5px;"/>
        <path d="M1473.57,643.355L1460.17,1319.98C1418.5,1392.48 1311.2,1404.37 1196.94,1414.35C1094.33,1413.99 1013.07,1391.47 953.9,1352.2" style="fill:none;stroke:black;stroke-width:12.5px;"/>
    </g>
</svg>
