<?xml version="1.0" standalone="no"?>
<!DOCTYPE svg PUBLIC "-//W3C//DTD SVG 20010904//EN"
 "http://www.w3.org/TR/2001/REC-SVG-20010904/DTD/svg10.dtd">
<svg version="1.0" xmlns="http://www.w3.org/2000/svg"
 width="1996.000000pt" height="2436.000000pt" viewBox="0 0 1996.000000 2436.000000"
 preserveAspectRatio="xMidYMid meet">
<metadata>
Created by potrace 1.16, written by Peter Selinger 2001-2019
</metadata>
<g transform="translate(0.000000,2436.000000) scale(0.100000,-0.100000)"
fill="#000000" stroke="none">
<path d="M11095 19713 c-196 -12 -426 -57 -655 -128 -47 -15 -114 -34 -150
-44 -36 -10 -72 -20 -80 -23 -8 -3 -44 -16 -80 -28 -36 -13 -92 -34 -125 -47
-33 -14 -78 -32 -100 -40 -42 -16 -98 -40 -127 -54 -19 -10 -161 -65 -278
-109 -41 -15 -111 -42 -154 -59 -71 -29 -86 -31 -150 -26 -103 9 -135 13 -191
25 -51 11 -63 14 -200 49 -44 11 -120 30 -170 42 -49 12 -117 30 -150 40 -95
31 -117 37 -160 44 -22 3 -110 26 -195 50 -241 68 -269 73 -580 91 -58 3 -108
8 -112 10 -3 2 -82 7 -176 10 -119 4 -186 2 -228 -7 -32 -6 -68 -13 -79 -15
-106 -13 -318 -79 -560 -174 -16 -6 -82 -34 -145 -61 -63 -28 -124 -54 -135
-59 -93 -40 -228 -109 -282 -146 -15 -10 -48 -30 -73 -44 -57 -31 -146 -95
-257 -183 -47 -38 -98 -76 -112 -85 -38 -25 -49 -34 -210 -176 -308 -271 -343
-306 -581 -581 -47 -54 -102 -117 -124 -141 -40 -46 -180 -223 -254 -321 -107
-143 -131 -178 -234 -332 -60 -91 -122 -181 -137 -200 -16 -20 -43 -63 -61
-96 -18 -33 -36 -64 -40 -70 -5 -5 -59 -111 -121 -235 -61 -124 -117 -232
-124 -240 -7 -8 -27 -53 -45 -100 -50 -130 -82 -188 -122 -220 -20 -16 -39
-38 -43 -49 -5 -16 -12 -18 -44 -14 -30 4 -53 -1 -96 -22 -61 -30 -85 -63 -85
-118 0 -38 34 -150 56 -184 8 -13 10 -23 4 -23 -5 0 -10 -5 -10 -12 0 -6 -40
-94 -90 -194 -49 -101 -101 -214 -116 -251 -34 -86 -69 -150 -105 -188 -32
-35 -113 -153 -139 -205 -10 -20 -30 -74 -43 -120 -14 -47 -55 -170 -91 -275
-96 -274 -108 -323 -150 -575 -24 -148 -34 -484 -16 -570 5 -25 16 -83 25
-130 9 -47 18 -94 21 -105 2 -11 7 -36 10 -55 19 -108 147 -491 209 -625 37
-80 115 -272 115 -282 0 -5 11 -31 24 -59 13 -27 31 -70 39 -96 30 -88 86
-225 106 -259 11 -19 42 -86 70 -149 78 -180 207 -427 295 -565 49 -77 172
-258 228 -336 118 -162 204 -276 230 -305 113 -125 205 -210 316 -293 70 -52
150 -124 295 -266 127 -124 138 -134 222 -200 28 -22 52 -42 55 -45 7 -7 80
-62 106 -80 12 -8 47 -32 78 -54 32 -21 87 -66 123 -100 36 -33 82 -76 102
-94 20 -19 54 -51 76 -71 22 -21 69 -60 105 -88 66 -50 82 -61 176 -123 52
-34 240 -160 299 -200 17 -11 100 -70 185 -130 164 -116 288 -202 305 -210 42
-21 216 -132 290 -185 50 -35 94 -64 98 -64 5 -1 21 -10 37 -21 15 -11 77 -45
136 -77 150 -78 162 -84 224 -125 30 -19 91 -54 135 -77 44 -23 103 -56 130
-73 28 -17 84 -50 125 -73 41 -23 95 -54 120 -68 48 -28 273 -141 460 -230
102 -48 140 -64 175 -73 307 -79 496 -139 720 -229 127 -51 333 -126 355 -129
8 -1 56 -15 105 -30 95 -29 107 -32 250 -66 113 -26 99 -22 175 -47 36 -12
106 -33 155 -48 50 -14 125 -37 168 -51 43 -13 122 -35 175 -49 136 -34 330
-84 372 -96 19 -6 80 -18 135 -29 55 -10 134 -25 175 -34 41 -10 129 -26 196
-36 145 -23 161 -26 244 -45 94 -22 205 -44 279 -55 35 -6 109 -22 165 -36 55
-14 110 -28 121 -29 290 -52 373 -64 499 -71 44 -3 82 -7 86 -9 7 -4 141 -34
180 -40 99 -14 679 -23 735 -11 17 4 84 11 150 16 158 12 362 45 441 71 18 5
54 14 80 19 48 8 115 26 260 69 40 11 103 36 140 56 38 19 75 35 82 35 8 0 28
6 45 14 56 24 209 88 297 123 47 19 117 49 155 67 39 18 81 37 95 41 40 11
285 122 405 183 106 53 128 67 231 141 26 19 92 60 145 90 155 88 405 307 527
461 42 52 78 97 82 100 16 15 121 153 153 202 21 32 41 58 45 58 4 0 25 28 46
63 22 34 58 91 81 127 23 36 76 135 118 220 41 85 99 193 127 239 59 97 152
286 205 416 42 106 60 147 85 196 16 33 38 87 87 214 45 119 114 331 132 405
43 182 62 279 81 425 5 39 17 122 26 185 26 175 28 535 3 660 -10 52 -20 110
-21 128 -1 18 -6 36 -10 38 -4 3 -8 17 -8 32 0 31 -25 123 -70 267 -18 55 -38
123 -46 150 -15 57 -41 128 -72 198 -12 27 -22 56 -22 66 0 9 -4 21 -9 27 -5
5 -18 37 -30 71 -11 34 -65 151 -120 260 -55 109 -109 221 -120 249 -11 28
-40 85 -64 126 -25 42 -50 93 -57 114 -19 60 -66 155 -93 192 -25 33 -25 38
-25 198 l1 165 38 38 c57 59 80 155 60 244 -10 43 -73 106 -106 107 -51 1 -63
11 -70 58 -4 25 -15 69 -25 97 -28 75 -27 94 7 165 58 119 51 202 -22 252 -22
15 -54 27 -71 28 -27 0 -34 6 -57 53 -15 28 -35 77 -46 107 -19 53 -19 55 0
92 49 96 54 219 12 277 -21 27 -135 61 -189 56 -23 -2 -34 1 -34 10 0 7 -13
39 -29 71 -16 33 -32 70 -36 84 -4 14 -17 52 -30 85 l-23 60 19 75 c22 87 23
115 8 175 -14 55 -43 83 -105 98 -48 12 -49 13 -94 99 l-44 88 36 37 c63 66
89 133 99 250 8 104 4 150 -26 278 -20 88 -70 203 -109 255 -7 8 -18 27 -25
41 -40 81 -204 208 -316 245 -27 9 -54 20 -58 24 -4 4 4 30 18 59 26 51 45
165 38 224 -4 42 -57 146 -95 189 -43 48 -108 76 -196 84 -60 6 -77 4 -114
-15 -57 -27 -106 -76 -129 -126 -10 -22 -18 -33 -18 -25 -1 23 -50 112 -80
143 -14 16 -48 45 -76 65 -27 20 -52 39 -55 42 -9 10 -63 44 -110 68 -25 14
-52 30 -60 37 -57 48 -182 88 -275 87 -83 -1 -125 -17 -212 -82 -35 -27 -133
-229 -133 -278 0 -9 -4 -23 -9 -31 -8 -12 -15 -9 -42 13 -29 25 -68 45 -138
72 -21 9 -18 11 30 23 43 11 65 25 109 70 71 71 125 153 154 233 13 35 31 81
41 103 25 58 45 225 34 276 -19 82 -113 186 -194 214 -28 10 -82 18 -125 19
-68 1 -82 -3 -152 -38 -42 -22 -89 -51 -103 -64 -28 -26 -62 -95 -73 -150 l-7
-34 -37 53 c-48 71 -98 116 -180 167 -113 70 -136 76 -293 77 l-140 0 -80 -40
c-55 -28 -104 -63 -157 -114 l-78 -74 0 48 c0 26 7 72 16 102 34 116 -22 236
-137 293 -59 29 -135 50 -185 50 -43 0 -170 -34 -191 -52 -9 -7 -13 -6 -13 3
0 8 -2 113 -4 234 -3 126 -12 276 -21 350 -21 158 -48 217 -145 316 -125 127
-274 202 -510 257 -94 22 -385 42 -505 35z m335 -68 c14 -3 48 -8 75 -11 85
-8 261 -56 300 -81 11 -7 26 -13 33 -13 21 0 175 -103 220 -147 51 -50 120
-157 126 -197 3 -17 8 -62 11 -100 3 -38 8 -72 11 -77 3 -5 6 -136 8 -291 3
-273 2 -284 -18 -311 -29 -40 -30 -178 -1 -221 l19 -29 -22 14 c-12 8 -22 17
-22 21 0 11 -111 84 -140 92 -150 43 -327 51 -450 22 -23 -6 -28 0 -58 61 -33
68 -60 94 -146 142 -55 31 -267 61 -431 61 -71 0 -141 -2 -155 -4 -14 -3 -47
-7 -74 -11 -229 -29 -620 -155 -914 -296 -57 -27 -107 -49 -112 -49 -5 0 -10
-3 -12 -7 -1 -5 -52 -32 -113 -62 -60 -30 -155 -80 -210 -111 -55 -32 -253
-135 -440 -230 -187 -95 -344 -176 -350 -180 -9 -7 -58 -28 -235 -98 -36 -15
-85 -37 -109 -49 -49 -25 -123 -31 -165 -11 -37 16 -92 -3 -164 -57 -51 -39
-108 -66 -252 -120 -19 -8 -54 -23 -77 -34 -23 -12 -47 -21 -53 -21 -12 0 -84
-28 -155 -60 -22 -10 -71 -30 -110 -45 -38 -15 -74 -31 -80 -36 -5 -5 -15 -9
-22 -9 -7 0 -38 -12 -70 -26 -109 -49 -135 -57 -142 -46 -3 4 -22 17 -41 29
-66 39 -279 48 -315 12 -5 -5 -16 -9 -25 -9 -19 0 -82 -60 -120 -115 -24 -35
-38 -44 -111 -68 -80 -27 -187 -53 -256 -63 -17 -2 -44 -9 -60 -15 -15 -6 -46
-14 -69 -18 -41 -8 -41 -7 -70 38 -37 59 -42 65 -92 90 -31 16 -60 21 -119 22
-174 1 -268 -49 -366 -196 -95 -141 -92 -267 7 -373 46 -50 89 -65 168 -59
l66 6 -49 -79 c-26 -43 -58 -109 -70 -147 -12 -37 -23 -70 -25 -72 -2 -2 -12
3 -21 12 -10 8 -31 19 -46 22 -19 5 -26 12 -23 24 13 45 17 161 7 193 -18 55
-87 141 -132 164 -33 17 -49 19 -91 13 -27 -5 -61 -15 -74 -24 -32 -21 -64
-20 -62 3 9 109 -63 208 -169 233 -50 11 -88 -3 -183 -65 -119 -79 -138 -105
-146 -207 -7 -71 27 -152 87 -209 43 -41 43 -42 -12 -54 -15 -3 -60 -42 -107
-91 l-82 -85 -34 17 c-28 13 -43 14 -83 6 -26 -6 -56 -14 -65 -18 -15 -6 -16
-3 -8 27 25 87 3 179 -52 221 -42 31 -70 40 -126 39 -72 -2 -122 -35 -168
-110 -1 -2 -17 4 -35 14 -22 11 -59 17 -109 18 -87 1 -114 -12 -150 -68 -23
-38 -27 -41 -49 -27 -12 8 -11 16 5 54 11 24 35 62 55 83 67 73 280 262 428
379 132 104 343 255 356 255 3 0 39 26 81 58 42 31 85 62 95 68 10 6 27 18 36
26 25 21 139 84 263 146 58 29 112 57 120 62 104 65 462 250 482 250 6 0 286
131 318 149 69 38 174 93 275 143 66 33 140 70 165 83 25 13 86 40 135 60 50
20 119 50 155 67 84 39 147 64 300 123 174 66 290 111 394 153 50 20 95 37
100 38 23 5 242 96 251 105 5 5 15 9 21 9 7 0 115 43 241 96 125 53 251 105
278 116 28 10 59 23 70 28 11 6 52 21 90 35 39 14 79 30 90 35 11 5 45 19 75
30 82 33 83 33 243 109 81 39 150 71 153 71 3 0 33 13 67 30 34 16 125 52 202
81 77 28 154 60 171 70 17 10 55 24 85 30 29 6 81 24 114 39 33 16 128 53 210
84 83 31 164 63 180 70 32 15 373 148 390 153 6 1 37 12 70 24 90 32 381 113
560 155 101 24 307 41 460 38 94 -2 181 -6 195 -9z m-4010 -190 c3 -2 52 -6
110 -9 106 -6 281 -19 290 -21 3 -1 30 -5 60 -9 73 -11 73 -11 170 -41 47 -15
123 -35 170 -46 98 -23 129 -31 225 -58 103 -29 282 -71 303 -71 10 0 48 -9
83 -21 96 -32 191 -48 282 -49 33 0 47 -4 45 -12 -5 -15 -48 -26 -123 -32 -88
-6 -299 -35 -380 -51 -38 -8 -125 -23 -193 -35 -68 -11 -132 -24 -142 -30 -31
-17 -33 -12 -10 27 37 63 25 154 -23 169 -46 15 -138 5 -178 -20 -90 -53 -107
-160 -32 -200 32 -16 53 -9 -212 -71 -110 -25 -281 -69 -380 -97 -99 -28 -209
-59 -245 -69 -36 -9 -103 -31 -150 -47 -47 -17 -119 -40 -160 -52 -41 -13 -94
-31 -117 -41 -24 -11 -47 -19 -51 -19 -16 0 -317 -112 -330 -123 -16 -13 -28
-1 -15 15 41 52 59 179 37 258 -29 100 -107 150 -244 156 -146 6 -234 -33
-320 -141 -41 -52 -61 -124 -61 -227 0 -100 19 -151 73 -191 52 -38 94 -50
177 -50 63 0 89 5 139 28 34 15 62 31 62 35 0 5 153 83 170 86 8 1 42 15 80
32 19 8 48 19 65 23 16 4 149 48 295 98 319 109 766 241 815 241 11 0 72 14
135 30 129 35 280 68 334 75 19 3 79 14 132 26 53 11 106 22 118 25 11 2 44 8
71 14 28 5 109 19 180 31 171 27 183 29 230 34 39 4 39 4 15 -10 -14 -8 -31
-14 -38 -15 -8 0 -28 -6 -45 -14 -18 -8 -59 -26 -92 -40 -33 -13 -85 -38 -115
-55 -30 -17 -65 -31 -77 -31 -23 0 -61 -11 -283 -80 -69 -22 -161 -49 -205
-61 -44 -11 -179 -49 -300 -84 -121 -34 -281 -77 -355 -94 -74 -18 -164 -42
-200 -54 -36 -12 -69 -22 -75 -22 -5 0 -55 -15 -110 -32 -55 -18 -158 -51
-230 -73 -110 -35 -208 -71 -455 -165 -178 -68 -331 -131 -403 -164 -47 -23
-88 -41 -92 -41 -4 0 -21 -6 -38 -14 -18 -8 -54 -24 -82 -36 -27 -12 -59 -25
-70 -30 -11 -5 -51 -21 -90 -35 -38 -15 -97 -39 -130 -54 -33 -15 -80 -36
-105 -47 -44 -18 -127 -60 -335 -168 -89 -47 -246 -150 -300 -197 -11 -9 -34
-25 -51 -36 -18 -10 -67 -38 -109 -63 -75 -44 -109 -68 -352 -255 -266 -203
-484 -461 -530 -625 -13 -50 -28 -72 -80 -126 -34 -37 -63 -63 -63 -58 1 5 13
32 28 60 15 28 79 154 143 280 139 273 160 310 247 428 37 50 81 114 96 141
42 72 291 419 375 521 14 17 33 40 41 50 9 10 54 62 100 116 47 53 123 140
170 195 142 165 382 396 590 569 167 139 456 354 476 354 4 0 17 8 28 19 12
10 53 36 91 56 39 21 82 46 97 57 14 10 29 18 33 18 3 0 99 40 213 89 200 86
379 154 452 171 19 5 52 16 74 25 40 17 200 53 276 62 25 3 47 8 50 10 5 5
321 -7 330 -12z m822 -324 c48 -2 63 -69 26 -116 -30 -39 -70 -53 -125 -45
-80 12 -101 64 -49 118 24 25 90 52 115 47 9 -2 24 -4 33 -4z m-1973 -326 c61
-8 83 -26 121 -100 43 -83 20 -208 -53 -283 -103 -108 -253 -153 -365 -111
-35 13 -81 57 -94 89 -14 36 -10 156 7 217 24 83 130 172 229 192 33 7 66 6
155 -4z m1976 -83 c-6 -5 -57 -26 -115 -46 -91 -33 -222 -86 -325 -132 -16 -7
-95 -40 -175 -74 -80 -34 -149 -65 -154 -71 -6 -5 -18 -9 -28 -9 -10 0 -26 -4
-36 -10 -34 -19 -111 -50 -124 -50 -8 0 -22 -6 -33 -14 -11 -7 -57 -26 -103
-41 -45 -15 -85 -31 -88 -36 -3 -5 -16 -9 -30 -9 -13 0 -24 -4 -24 -10 0 -5
-6 -10 -12 -10 -11 0 -74 -23 -153 -55 -16 -7 -59 -23 -95 -35 -36 -12 -78
-28 -95 -36 -16 -7 -77 -32 -135 -54 -58 -23 -115 -48 -127 -56 -12 -8 -27
-14 -32 -14 -5 0 -52 -20 -103 -43 -51 -24 -118 -55 -148 -68 -70 -30 -316
-156 -396 -201 -84 -49 -231 -118 -248 -118 -8 0 -17 -4 -20 -8 -3 -5 -74 -40
-158 -78 -84 -37 -241 -118 -348 -179 -107 -61 -222 -123 -255 -138 -33 -15
-67 -32 -75 -37 -8 -5 -35 -21 -60 -34 -25 -13 -84 -53 -130 -87 -47 -35 -150
-107 -230 -162 -150 -102 -170 -117 -335 -252 -162 -133 -152 -128 -117 -59
78 152 242 331 445 487 37 29 105 83 150 121 71 60 208 156 222 156 2 0 42 24
87 54 83 55 109 72 228 157 36 25 92 58 125 75 33 16 62 31 65 34 8 9 349 175
400 195 25 10 73 31 108 47 34 15 67 28 73 28 6 0 35 11 65 25 30 14 57 25 60
25 5 0 137 57 229 100 33 15 96 42 140 60 44 17 88 36 97 41 10 5 23 9 30 9 6
0 30 8 52 18 62 29 390 148 486 178 47 14 139 43 205 65 66 21 143 45 170 53
28 8 79 24 115 35 36 10 81 22 100 26 32 6 172 45 295 82 28 8 64 18 80 22 17
5 75 22 130 39 283 88 370 111 350 94z m2866 -207 c171 -16 196 -22 255 -56
67 -39 93 -64 113 -112 l19 -44 -45 -23 c-65 -32 -153 -93 -185 -126 -15 -16
-40 -56 -57 -89 -33 -65 -37 -68 -20 -15 18 58 11 136 -16 191 -14 27 -29 49
-34 49 -6 0 -12 8 -15 18 -3 9 -32 33 -63 52 -74 44 -134 45 -248 5 -165 -58
-231 -128 -242 -253 -5 -65 -3 -76 25 -134 17 -35 40 -73 52 -85 24 -27 20
-28 -23 -9 -98 43 -206 57 -423 57 -175 1 -252 -19 -342 -88 -85 -64 -219
-257 -237 -340 -11 -52 48 -216 94 -262 18 -18 17 -19 -31 -35 -63 -20 -149
-77 -192 -128 -20 -22 -42 -65 -52 -99 l-18 -59 -22 27 c-12 16 -25 44 -29 63
-8 43 -65 149 -110 204 -18 23 -36 52 -40 66 -4 14 -11 30 -16 36 -7 8 7 8 46
-1 71 -17 103 -13 157 21 67 42 182 165 204 218 10 25 25 46 31 46 17 0 26 43
20 96 -5 52 -42 103 -104 147 -67 48 -216 55 -271 14 -7 -5 -29 -19 -50 -31
-84 -46 -122 -96 -141 -184 -19 -88 -14 -143 18 -208 48 -99 49 -98 -37 -55
-79 40 -145 70 -172 77 -79 20 -101 22 -169 14 -42 -5 -92 -14 -110 -21 -72
-25 -187 -118 -237 -191 -15 -21 -29 -38 -33 -38 -3 0 -6 15 -7 33 0 32 -41
127 -54 127 -4 0 -17 9 -30 20 -12 11 -27 17 -31 14 -5 -3 -9 1 -9 9 0 16 15
23 180 87 69 26 226 98 350 160 570 285 581 290 590 301 19 26 643 325 715
343 6 2 27 10 47 20 21 9 46 16 56 16 10 0 22 4 28 8 5 5 29 14 54 22 25 7 83
25 130 41 131 43 227 64 430 93 58 8 156 5 301 -9z m1477 -18 c35 -13 83 -40
110 -64 40 -34 51 -50 62 -96 20 -87 -9 -163 -99 -259 -68 -72 -162 -80 -290
-25 -62 27 -78 39 -97 72 -12 22 -25 56 -29 74 -4 19 -13 44 -21 55 -43 61 16
180 113 227 91 44 159 48 251 16z m-1572 -172 c42 -23 64 -41 103 -91 36 -46
43 -133 16 -199 -55 -131 -154 -207 -265 -204 -94 2 -172 53 -227 146 -21 36
-27 59 -27 107 0 109 49 170 184 226 112 46 150 49 216 15z m929 -61 c81 -21
128 -47 201 -110 67 -58 93 -104 113 -199 7 -33 18 -73 23 -88 6 -15 11 -83
11 -150 0 -147 -14 -190 -100 -318 -68 -99 -115 -134 -235 -175 -65 -22 -103
-28 -178 -30 -52 0 -108 3 -125 8 -71 22 -131 71 -140 113 -2 11 -9 44 -15 74
-6 29 -19 66 -30 81 -11 16 -20 31 -20 34 0 14 -73 85 -98 96 -54 22 -123 155
-136 260 -9 71 20 170 66 228 57 70 187 155 258 167 19 3 60 10 90 15 115 21
218 18 315 -6z m1450 -24 c60 -13 186 -93 235 -148 22 -24 40 -47 40 -52 0 -4
14 -25 31 -46 35 -43 61 -99 90 -189 51 -161 -3 -439 -116 -596 -50 -70 -77
-99 -92 -99 -7 0 -13 -4 -13 -9 0 -35 -189 -55 -283 -30 -108 29 -221 101
-313 198 -45 48 -59 71 -61 97 -3 54 -53 187 -78 210 -56 51 -70 112 -56 249
14 143 34 197 102 269 66 71 191 147 258 158 55 8 195 2 256 -12z m805 -11
c22 -6 39 -20 87 -69 78 -80 95 -138 67 -227 -15 -48 -31 -71 -94 -133 -97
-98 -119 -107 -221 -92 -43 6 -100 21 -128 32 -47 21 -50 24 -81 106 -29 74
-32 91 -27 149 6 66 31 128 63 157 11 9 46 32 79 52 59 36 61 37 150 33 50 -2
97 -5 105 -8z m-1466 -176 c-19 -101 -111 -293 -141 -293 -7 0 -13 -4 -13 -9
0 -12 -46 -29 -101 -36 -56 -8 -128 19 -133 50 -8 49 -47 242 -53 264 l-6 25
34 -21 c68 -41 153 -65 216 -61 69 6 104 23 158 77 22 22 41 40 43 40 2 1 0
-16 -4 -36z m-1560 -95 c-10 -56 -7 -122 7 -167 16 -53 49 -124 66 -143 23
-25 9 -51 -23 -45 -43 8 -90 -11 -158 -62 l-64 -49 -5 32 c-8 52 -57 144 -103
195 -24 27 -44 51 -44 54 0 2 22 7 50 11 109 15 199 76 246 169 13 26 27 47
30 47 3 0 2 -19 -2 -42z m-763 -72 c112 -7 168 -23 298 -89 84 -42 124 -78
173 -156 70 -111 80 -197 37 -299 -31 -72 -148 -182 -254 -238 -71 -37 -214
-86 -249 -86 -180 4 -392 74 -550 182 -95 64 -134 105 -164 168 -31 68 -38
123 -21 164 37 93 158 255 217 292 42 25 115 51 182 63 47 9 154 8 331 -1z
m-909 -52 c60 -20 76 -39 90 -107 18 -86 -5 -149 -89 -237 -74 -79 -145 -130
-181 -130 -52 0 -102 23 -129 59 -15 20 -32 39 -37 43 -16 10 -20 147 -6 198
18 68 114 152 210 183 31 11 98 6 142 -9z m4784 -138 c-44 -95 -118 -203 -165
-241 -27 -22 -100 -45 -144 -45 -42 0 -82 25 -106 66 -20 33 -21 45 -15 140 4
58 10 103 13 102 64 -34 154 -58 216 -58 75 1 124 23 190 88 28 27 51 48 53
46 2 -1 -17 -45 -42 -98z m-1831 -26 c69 -1 70 -1 45 -18 -27 -18 -85 -79 -85
-90 -1 -4 -8 -20 -17 -37 -14 -27 -26 -77 -34 -143 -1 -13 -13 -37 -27 -55
-13 -18 -54 -81 -90 -142 -90 -151 -148 -204 -274 -250 -113 -40 -289 -28
-379 26 -37 23 -88 95 -78 111 4 7 7 42 6 79 -2 64 -1 67 19 62 11 -3 23 -12
26 -19 3 -8 13 -14 22 -14 9 0 21 -4 27 -9 13 -13 118 -26 194 -24 73 2 196
38 277 80 51 27 153 134 153 161 0 6 4 12 10 12 21 0 82 152 88 218 4 59 6 63
26 58 12 -3 53 -6 91 -6z m258 -80 c72 -36 116 -92 137 -179 21 -90 -4 -241
-41 -241 -5 0 -23 -9 -38 -21 -33 -25 -91 -30 -176 -17 -74 11 -111 44 -150
130 -38 85 -41 123 -15 206 26 85 50 118 104 144 51 23 95 18 179 -22z m1982
-6 c44 -15 86 -34 93 -41 7 -7 18 -13 23 -13 6 0 25 -11 43 -25 18 -14 37 -25
41 -25 9 0 103 -62 144 -95 70 -56 108 -107 135 -177 15 -40 37 -93 48 -118
26 -58 21 -113 -24 -242 -28 -82 -43 -109 -102 -180 -58 -70 -79 -88 -137
-115 -100 -48 -144 -46 -254 9 -69 34 -147 100 -290 243 -129 130 -129 130
-150 208 -26 96 -16 223 26 343 54 156 87 201 179 246 48 24 125 17 225 -18z
m-3369 -44 c47 -22 99 -83 118 -137 20 -57 11 -150 -19 -194 -24 -37 -79 -80
-142 -113 -64 -33 -171 -11 -230 46 -63 61 -81 192 -39 280 19 40 121 126 164
137 38 11 100 3 148 -19z m-2440 -111 c3 -5 13 -9 22 -9 36 1 205 -95 249
-141 69 -72 151 -196 169 -258 44 -145 -1 -330 -98 -403 -37 -28 -150 -84
-188 -93 -36 -8 -234 11 -310 31 -160 41 -345 184 -389 301 -14 39 -22 82 -22
133 -1 66 3 82 28 125 79 139 180 248 270 291 77 37 251 52 269 23z m-750 -24
c47 -20 98 -45 114 -57 52 -38 65 -126 30 -201 -25 -53 -112 -145 -146 -153
-15 -4 -57 -1 -94 5 -61 11 -73 17 -116 61 -63 63 -85 105 -79 147 3 18 8 50
11 70 10 62 116 154 187 162 5 1 46 -15 93 -34z m7467 -103 c15 -9 27 -19 27
-22 0 -4 13 -19 28 -36 84 -87 94 -254 23 -359 -38 -56 -80 -78 -149 -77 -94
2 -134 13 -184 49 -56 40 -61 53 -52 131 5 46 2 68 -11 96 -17 35 -17 39 0 92
20 63 64 120 110 141 38 17 168 8 208 -15z m-7793 -33 c-14 -53 -8 -110 19
-164 10 -22 19 -40 18 -40 -1 -1 -58 2 -127 5 -208 10 -286 4 -388 -30 -89
-30 -185 -73 -209 -94 -7 -6 -24 -20 -39 -31 -15 -11 -43 -34 -63 -51 l-36
-32 1 75 c0 86 -14 73 154 139 52 20 102 40 110 45 21 10 91 38 260 103 80 30
181 70 225 89 44 18 81 33 83 31 2 -1 -2 -22 -8 -45z m4580 -4 c29 -64 77
-131 108 -153 40 -28 122 -44 196 -39 36 3 66 3 66 1 0 -3 -9 -23 -20 -44 -22
-43 -105 -114 -173 -148 -58 -29 -130 -19 -219 31 -80 45 -89 55 -95 111 -4
36 1 58 26 112 17 36 31 70 31 75 0 8 52 99 57 99 1 0 12 -20 23 -45z m1624
35 c70 -11 96 -25 119 -66 7 -12 21 -37 32 -55 16 -28 19 -52 19 -136 -1 -97
-2 -104 -34 -152 -50 -79 -78 -95 -157 -88 -110 11 -241 85 -279 159 -38 73
-4 200 74 281 69 71 90 76 226 57z m-1019 -100 c71 -79 202 -154 302 -174 118
-24 205 -16 282 25 19 10 36 17 38 15 2 -2 -8 -31 -23 -65 -25 -57 -31 -63
-88 -91 -59 -29 -66 -30 -206 -31 -265 0 -398 61 -434 201 -13 50 -13 54 10
87 12 19 26 55 30 80 l7 47 25 -30 c14 -16 39 -45 57 -64z m-2034 13 c21 -56
66 -112 114 -144 46 -31 56 -33 130 -33 67 -1 85 3 112 22 17 12 34 22 38 22
5 0 32 21 61 46 l54 46 0 -39 c0 -21 -12 -79 -26 -128 -42 -148 -98 -227 -198
-277 -52 -26 -68 -30 -117 -25 -74 7 -100 21 -149 87 -51 68 -70 132 -70 233
0 67 25 217 37 217 2 0 8 -12 14 -27z m-82 -78 c-5 -33 -9 -93 -10 -134 -1
-71 -3 -75 -38 -110 -44 -44 -168 -106 -231 -116 -245 -42 -478 -16 -529 58
-9 12 -27 33 -42 47 -31 30 -45 67 -54 138 -5 42 -3 52 9 52 8 0 17 -4 20 -9
3 -5 18 -12 32 -15 14 -4 45 -15 68 -25 52 -23 111 -40 167 -46 24 -3 69 -9
99 -13 53 -8 126 4 175 27 11 5 58 27 105 49 47 21 119 66 160 100 41 33 76
59 76 59 1 -1 -2 -29 -7 -62z m-1034 -9 c70 -67 84 -98 85 -180 0 -46 -30
-113 -68 -152 -65 -65 -217 -103 -282 -69 -62 33 -100 101 -100 183 0 92 39
159 127 219 36 25 126 61 155 62 9 1 46 -28 83 -63z m2989 -77 c7 -37 72 -129
92 -129 6 0 19 -9 29 -20 10 -11 28 -20 40 -20 11 0 25 -4 31 -9 23 -21 121
-34 266 -37 140 -3 163 -1 204 17 26 11 48 18 49 17 2 -2 -1 -34 -5 -73 -12
-107 9 -173 77 -242 29 -29 61 -53 71 -53 10 0 22 -4 27 -9 16 -15 114 -29
148 -21 140 34 232 107 280 221 l14 34 12 -60 c18 -82 61 -184 107 -247 62
-87 197 -215 235 -223 51 -11 51 -13 20 -53 -45 -57 -89 -148 -97 -199 -4 -28
-2 -67 6 -97 13 -53 63 -142 83 -149 7 -2 9 -7 6 -10 -3 -4 -21 2 -40 13 -58
34 -177 89 -204 96 -15 4 -49 17 -76 30 -27 14 -107 44 -177 69 -187 65 -200
70 -287 110 -73 34 -126 51 -300 99 -33 9 -82 23 -110 31 -50 14 -153 33 -230
41 -22 2 -62 9 -88 14 -124 26 -653 5 -922 -36 -55 -9 -125 -17 -155 -20 -65
-5 -184 -21 -255 -34 -27 -5 -89 -11 -137 -15 -100 -7 -173 -24 -249 -59 -57
-25 -110 -42 -247 -76 -45 -11 -101 -27 -125 -36 -79 -28 -221 -71 -412 -123
-104 -29 -198 -56 -207 -62 -10 -5 -26 -9 -35 -9 -10 -1 -63 -16 -118 -36 -55
-19 -104 -35 -110 -37 -5 -1 -14 -5 -20 -9 -5 -3 -26 -9 -45 -13 -19 -4 -40
-11 -45 -16 -6 -4 -33 -15 -60 -24 -28 -9 -59 -20 -70 -25 -55 -24 -185 -69
-225 -78 -25 -6 -83 -20 -130 -31 -138 -34 -280 -61 -318 -61 -20 0 -61 -5
-91 -11 -56 -11 -61 -11 -231 28 -61 14 -227 154 -303 255 -20 25 -54 84 -77
129 -39 78 -40 84 -24 96 10 7 23 13 29 13 21 0 74 65 100 121 33 74 46 149
54 328 1 7 28 -12 62 -43 67 -62 87 -74 174 -106 76 -27 173 -35 250 -21 33 6
67 13 75 14 8 2 32 11 54 20 21 9 42 17 46 17 21 0 137 162 174 243 10 21 23
68 28 103 l11 65 32 -98 c57 -176 89 -222 171 -248 108 -34 195 7 241 112 86
196 89 206 98 342 3 47 7 86 8 88 2 1 22 -17 45 -41 86 -89 275 -109 580 -62
41 6 156 67 202 106 19 16 38 30 41 30 4 0 12 -14 20 -31 25 -63 96 -146 141
-168 60 -29 152 -29 214 0 97 46 187 156 224 274 7 22 14 43 17 47 2 4 23 -12
46 -36 58 -57 117 -77 250 -83 83 -4 121 -2 168 12 63 17 170 77 217 120 24
22 50 25 37 5 -8 -12 20 -64 48 -91 32 -31 130 -86 165 -94 97 -21 167 0 267
82 46 37 68 65 95 119 19 39 36 69 37 65 1 -3 4 -22 7 -42z m-5989 -42 c28
-14 61 -36 74 -48 21 -20 23 -27 17 -83 -9 -77 -38 -123 -116 -180 -74 -55
-143 -78 -222 -77 -93 1 -141 23 -165 76 -38 84 -10 179 81 270 62 62 101 75
206 71 57 -2 87 -10 125 -29z m1050 -1 c21 -9 46 -23 55 -30 8 -7 26 -16 40
-19 34 -9 80 -92 80 -146 0 -80 -46 -229 -98 -314 -48 -81 -151 -182 -252
-246 -47 -30 -96 -61 -110 -71 -14 -9 -58 -27 -98 -39 -67 -22 -84 -23 -230
-18 -92 3 -171 10 -192 18 -58 22 -113 62 -142 104 -16 22 -36 51 -45 64 -23
32 -30 193 -13 259 50 183 238 361 450 426 91 28 137 32 330 30 148 -1 193 -5
225 -18z m393 -129 c5 -6 15 -29 21 -49 7 -20 19 -42 27 -48 7 -7 14 -21 14
-31 0 -15 -7 -19 -32 -19 -54 0 -111 -21 -148 -53 l-35 -31 -5 115 c-4 87 -9
120 -22 139 -24 33 -23 40 10 40 29 0 106 44 132 75 14 17 16 12 21 -54 4 -39
11 -77 17 -84z m5397 38 c25 -38 101 -105 120 -105 4 0 19 -8 33 -19 48 -33
193 -56 245 -38 15 5 30 7 32 5 2 -2 -10 -33 -28 -67 -38 -76 -79 -113 -167
-150 -61 -26 -70 -28 -130 -18 -58 9 -101 29 -152 70 -33 26 -57 90 -59 157
-2 95 9 140 44 178 17 17 32 32 33 32 0 0 14 -20 29 -45z m597 -43 c20 -31 61
-79 91 -107 29 -27 90 -85 135 -127 97 -92 180 -142 269 -165 l66 -16 -44 -40
c-24 -22 -79 -74 -121 -115 -74 -72 -79 -75 -116 -69 -54 7 -93 36 -188 138
-113 123 -171 250 -188 412 -4 38 1 58 21 97 14 28 29 50 32 50 3 0 23 -26 43
-58z m-8537 -15 c78 -43 102 -95 90 -193 -6 -52 -11 -62 -48 -94 -23 -19 -81
-73 -129 -119 -53 -51 -103 -90 -125 -98 -109 -37 -208 8 -255 117 -23 53 -19
97 16 174 52 112 143 194 245 221 62 16 169 12 206 -8z m9556 -23 c13 -14 34
-30 47 -35 28 -11 28 -21 -3 -58 -31 -36 -115 -194 -115 -216 0 -17 -21 -20
-36 -5 -5 5 -34 12 -64 16 -30 3 -57 8 -58 9 -2 2 25 37 60 78 70 82 78 95
108 180 12 31 25 57 29 57 4 0 18 -12 32 -26z m-8926 -62 c1 -43 7 -78 18 -99
l17 -32 -33 10 c-56 17 -119 23 -227 23 -94 0 -113 -3 -184 -32 -44 -17 -81
-30 -83 -28 -2 2 -1 26 3 53 l6 49 52 13 c28 7 60 14 71 16 11 2 38 8 60 14
22 6 76 17 120 25 59 12 180 49 180 56 0 0 0 -30 0 -68z m3030 -75 c0 -132 -2
-146 -28 -207 -34 -80 -116 -192 -160 -217 -52 -30 -112 -44 -210 -48 -97 -3
-181 16 -272 62 -49 26 -142 122 -149 154 -2 13 -8 45 -14 72 -5 26 -7 47 -5
47 2 0 26 -12 54 -26 79 -40 187 -59 329 -59 l125 0 80 43 c128 70 182 133
220 261 11 33 21 61 24 61 3 0 6 -64 6 -143z m553 23 c-5 -85 -7 -93 -86 -283
-8 -21 -33 -54 -55 -74 -38 -34 -42 -35 -94 -29 -83 10 -108 27 -142 98 -39
83 -78 201 -86 263 l-7 50 29 -26 c38 -36 59 -46 114 -54 109 -16 286 72 315
157 7 21 8 21 12 3 2 -10 2 -58 0 -105z m5748 49 c3 -5 15 -9 28 -9 30 0 138
-57 209 -110 35 -26 75 -70 104 -114 80 -120 95 -149 118 -226 73 -252 58
-426 -46 -545 -28 -31 -45 -42 -124 -76 -51 -21 -115 -30 -204 -28 -90 2 -100
5 -169 41 -40 22 -82 47 -94 58 -11 10 -24 22 -30 27 -72 64 -158 185 -158
222 0 6 11 31 25 57 41 78 32 203 -26 331 -12 26 -29 46 -49 55 -16 7 -30 20
-30 29 0 26 106 211 138 242 27 26 36 28 132 32 70 3 109 9 118 19 14 14 48
11 58 -5z m-7290 -97 c36 -29 76 -90 84 -128 6 -26 3 -50 -10 -88 -50 -147
-101 -186 -208 -163 -35 7 -59 23 -104 66 -55 54 -58 59 -58 106 0 98 66 190
150 213 59 15 123 13 146 -6z m-1550 -29 c-15 -30 -34 -125 -38 -198 -3 -32
-9 -42 -35 -58 -42 -24 -95 -25 -168 -3 -54 16 -65 24 -95 70 -54 78 -62 95
-55 116 7 22 59 29 70 10 10 -17 126 -11 175 8 65 25 124 58 140 77 20 24 23
11 6 -22z m-576 -24 c119 -14 123 -17 164 -123 29 -74 36 -106 36 -161 0 -62
-4 -77 -35 -128 -19 -32 -42 -87 -51 -123 -15 -60 -22 -69 -95 -138 -82 -77
-251 -184 -367 -231 -100 -41 -277 -36 -378 11 -43 19 -122 110 -136 156 -15
51 12 171 59 258 62 116 182 277 237 318 71 55 132 91 177 107 22 8 54 21 72
29 79 36 164 43 317 25z m-1497 -41 c71 -41 99 -88 98 -170 0 -45 -7 -74 -26
-112 -27 -52 -106 -126 -147 -138 -87 -24 -163 15 -203 103 -28 64 -31 106
-11 164 18 51 62 87 161 129 91 39 97 41 128 24z m3266 -70 c-20 -105 -59
-219 -97 -286 -23 -41 -42 -77 -42 -80 0 -4 -22 -41 -49 -82 -74 -115 -149
-191 -229 -233 -63 -33 -78 -37 -145 -37 -163 0 -256 40 -377 161 -66 67 -120
139 -120 163 0 2 24 -5 53 -15 64 -24 137 -32 287 -33 144 0 220 22 353 103
163 98 280 211 340 325 16 31 30 56 32 56 1 0 -1 -19 -6 -42z m7046 -24 c68
-8 103 -22 110 -45 4 -11 19 -26 34 -34 48 -24 76 -103 76 -215 0 -114 -11
-135 -96 -178 -93 -48 -201 -32 -293 44 -68 55 -86 94 -86 185 0 96 17 144 69
196 51 52 76 64 111 58 14 -3 48 -8 75 -11z m-9921 -127 c63 -65 80 -108 78
-195 -3 -100 -7 -106 -81 -108 -150 -4 -248 -116 -256 -294 -3 -47 0 -116 6
-154 9 -69 9 -70 -18 -93 -88 -74 -197 -88 -331 -43 -77 25 -78 26 -133 130
-13 24 -36 55 -51 67 -25 22 -26 27 -23 108 3 73 7 89 32 125 47 68 117 150
128 150 5 0 31 11 57 25 26 14 65 27 86 29 81 8 203 99 241 181 18 37 31 50
76 71 31 15 58 30 61 35 3 5 23 9 45 9 35 0 47 -6 83 -43z m3352 -81 c-12
-197 -66 -321 -151 -342 -36 -9 -111 12 -159 46 -71 48 -116 162 -116 291 0
78 7 85 44 45 41 -46 108 -76 173 -76 85 0 127 28 175 117 12 23 26 39 31 36
6 -3 7 -52 3 -117z m-462 9 c-11 -119 29 -246 102 -323 31 -32 110 -72 144
-72 25 0 29 -4 35 -40 4 -22 11 -40 16 -40 5 0 9 -4 9 -9 0 -14 39 -93 73
-147 47 -74 123 -158 197 -217 85 -68 101 -76 190 -100 116 -31 233 -27 450
14 58 12 119 23 135 26 17 2 57 13 90 23 33 10 86 24 118 31 32 7 60 16 63 21
3 4 11 8 19 8 7 0 42 13 77 29 65 30 179 71 198 71 6 0 30 9 52 20 23 11 49
20 58 20 9 0 20 4 26 9 5 5 36 16 69 25 33 9 89 25 125 36 36 10 106 31 155
45 50 15 113 34 140 42 28 9 57 16 65 17 31 4 163 44 295 89 55 19 134 43 175
52 41 9 129 37 195 61 104 38 134 44 225 49 57 3 129 12 160 20 30 7 111 18
180 25 69 6 141 15 160 20 19 4 98 14 175 20 77 6 167 15 200 19 111 16 505
13 597 -3 46 -9 99 -18 118 -21 19 -3 58 -10 85 -15 28 -6 59 -12 70 -14 37
-7 218 -58 259 -73 23 -8 49 -16 58 -18 10 -2 56 -22 103 -44 47 -23 88 -41
91 -41 11 0 239 -80 257 -90 9 -6 39 -18 65 -26 26 -9 69 -27 96 -40 28 -13
53 -24 58 -24 8 0 194 -91 233 -113 11 -7 24 -18 28 -24 4 -7 15 -13 22 -13 8
0 15 -5 15 -10 0 -6 8 -13 18 -17 21 -7 118 -77 152 -110 14 -13 50 -47 81
-76 30 -29 91 -95 134 -147 84 -100 131 -154 205 -232 25 -26 59 -63 75 -83
17 -20 57 -64 90 -98 33 -34 87 -96 120 -137 33 -41 63 -77 68 -78 7 -3 114
-165 186 -279 18 -28 35 -53 39 -55 12 -5 120 -152 156 -211 19 -32 38 -63 44
-70 15 -19 62 -108 158 -297 49 -96 91 -177 95 -180 9 -8 129 -256 129 -266 0
-5 16 -34 36 -64 20 -30 42 -66 49 -81 8 -14 30 -45 50 -69 20 -24 50 -71 67
-104 17 -34 34 -62 39 -64 5 -2 9 -9 9 -15 0 -7 14 -39 31 -72 18 -33 45 -85
61 -117 16 -31 35 -59 43 -62 16 -6 20 -56 7 -71 -5 -6 -15 -37 -22 -70 -7
-33 -21 -76 -30 -95 -10 -19 -25 -62 -35 -95 -21 -73 -38 -120 -77 -204 -16
-35 -34 -83 -40 -107 -7 -24 -16 -44 -21 -44 -4 0 -15 17 -23 38 -25 58 -47
107 -53 112 -4 3 -17 25 -30 50 -14 25 -58 96 -99 159 -72 112 -93 148 -162
281 -42 81 -85 146 -121 184 -15 16 -45 51 -66 80 -21 28 -71 82 -112 121 -41
38 -133 129 -205 201 -72 72 -158 152 -191 177 -33 24 -69 55 -81 68 -11 13
-48 49 -83 79 -34 30 -69 61 -78 69 -8 8 -29 24 -47 36 -18 12 -43 31 -57 43
-13 11 -56 47 -94 79 -39 32 -92 78 -118 102 -25 24 -57 51 -69 59 -13 9 -25
19 -28 23 -3 3 -21 14 -40 24 -19 10 -37 21 -40 24 -9 10 -44 31 -72 42 -16 6
-28 15 -28 20 0 5 -11 14 -25 19 -14 5 -52 28 -85 50 -61 42 -162 91 -290 141
-41 17 -90 37 -108 45 -19 9 -64 26 -100 39 -37 12 -103 39 -147 59 -127 58
-143 65 -282 111 -59 20 -137 47 -173 60 -144 52 -387 86 -795 110 -38 3 -108
8 -155 12 -136 12 -560 5 -735 -12 -88 -8 -178 -17 -200 -19 -48 -5 -135 -15
-190 -21 -22 -3 -114 -12 -205 -20 -96 -9 -205 -26 -260 -41 -52 -13 -138 -27
-190 -30 -145 -9 -157 -10 -280 -27 -63 -9 -173 -18 -245 -21 -71 -2 -143 -7
-160 -10 -33 -6 -133 -15 -180 -17 -38 -2 -215 9 -375 22 -291 24 -378 36
-475 64 -49 15 -126 44 -170 65 -44 20 -101 45 -127 54 -26 10 -63 28 -83 42
-20 13 -39 24 -43 24 -25 1 -238 215 -321 322 -63 81 -162 242 -206 332 -55
115 -80 214 -105 430 -24 199 -21 225 43 351 22 44 58 114 79 155 21 41 38 83
38 93 0 9 2 17 5 17 3 0 3 -34 -1 -75z m6724 -32 c-1 -90 2 -114 19 -144 32
-61 94 -118 163 -152 54 -26 77 -31 135 -31 39 0 79 4 90 9 18 8 19 7 6 -8 -7
-9 -19 -17 -25 -17 -6 0 -16 -10 -21 -22 -13 -30 -86 -78 -205 -135 -139 -67
-189 -81 -258 -72 -70 10 -124 37 -162 80 -37 43 -64 128 -56 174 13 69 80
188 132 236 16 14 62 63 103 108 41 44 76 81 77 81 2 0 3 -48 2 -107z m-7968
18 c27 -15 65 -48 86 -75 31 -41 35 -52 29 -84 -4 -20 -15 -52 -25 -72 -23
-42 -109 -119 -170 -150 -43 -22 -49 -22 -120 -11 -137 23 -174 58 -172 159 4
138 51 199 197 250 68 24 106 21 175 -17z m-2776 -127 c45 -31 59 -70 54 -151
-4 -64 -6 -68 -48 -105 -23 -21 -54 -41 -68 -45 -37 -9 -91 24 -127 77 -26 39
-30 54 -30 111 0 53 4 72 20 89 47 53 140 64 199 24z m-300 -65 c16 -13 26
-30 26 -47 0 -104 94 -227 179 -234 36 -3 36 -4 16 -51 -17 -40 -20 -150 -6
-210 28 -120 -152 -63 -223 71 -13 24 -41 60 -79 102 -46 51 -110 157 -128
211 -23 72 -19 113 12 153 19 24 26 26 98 26 64 0 83 -4 105 -21z m-305 -74
c23 -11 32 -26 41 -66 13 -54 84 -183 120 -219 11 -11 20 -23 20 -28 0 -4 10
-18 23 -32 12 -14 40 -51 61 -83 81 -120 209 -184 265 -133 16 15 20 13 47
-24 78 -107 287 -323 323 -335 12 -3 21 -11 21 -16 0 -5 10 -9 23 -9 13 0 28
-5 34 -11 6 -6 34 -12 61 -12 69 -1 97 19 112 83 15 64 1 140 -46 250 -18 41
-32 75 -31 76 1 1 34 -8 72 -22 76 -25 173 -31 236 -14 20 6 56 27 80 48 l43
39 59 -121 c49 -99 116 -201 182 -280 23 -27 75 -56 102 -56 37 0 84 47 115
115 22 47 23 64 25 265 2 211 1 216 -24 269 -19 42 -23 61 -17 90 l7 36 13
-50 c29 -118 66 -185 145 -265 46 -46 91 -73 144 -85 6 -2 39 -12 75 -22 107
-33 165 -36 253 -14 43 11 105 35 137 52 70 37 208 171 253 246 17 29 34 53
38 53 3 0 11 -10 17 -22 5 -13 30 -46 55 -73 104 -118 304 -120 399 -4 49 58
91 175 96 262 2 42 6 77 8 77 2 0 39 -35 81 -78 85 -85 151 -120 269 -141 146
-27 213 -16 316 52 l66 44 6 -41 c3 -23 10 -88 16 -146 10 -115 21 -209 45
-370 8 -58 17 -118 19 -135 3 -16 9 -61 15 -100 18 -116 21 -109 -71 -156 -46
-22 -112 -50 -148 -61 -36 -11 -92 -33 -124 -49 -33 -16 -68 -29 -78 -29 -10
0 -31 -6 -46 -14 -15 -7 -46 -17 -70 -21 -24 -4 -71 -18 -105 -32 -81 -32
-172 -60 -222 -68 -22 -4 -52 -11 -66 -16 -14 -6 -64 -16 -110 -24 -46 -7
-102 -18 -124 -24 -42 -11 -182 -26 -345 -36 -52 -4 -114 -10 -138 -15 -72
-13 -222 -12 -363 4 -73 8 -195 17 -269 20 -74 3 -166 12 -205 20 -38 9 -85
16 -102 16 -34 0 -177 35 -203 49 -9 5 -31 12 -50 15 -19 4 -44 11 -55 15 -11
5 -54 17 -95 26 -41 10 -100 27 -130 37 -30 11 -82 28 -115 38 -67 20 -258 92
-320 121 -53 23 -155 40 -177 28 -11 -6 -34 -5 -63 2 -46 12 -98 9 -190 -10
-85 -18 -191 -80 -284 -165 -47 -43 -96 -85 -108 -93 -46 -31 -223 -388 -278
-563 -80 -253 -109 -471 -108 -830 0 -230 13 -407 38 -514 3 -11 7 -37 9 -56
5 -43 52 -315 68 -390 6 -30 30 -115 54 -188 24 -74 44 -138 44 -143 0 -5 11
-32 24 -61 13 -29 33 -78 44 -108 122 -330 211 -529 316 -698 28 -46 60 -98
71 -115 20 -33 88 -122 189 -248 33 -41 114 -129 180 -196 67 -67 168 -171
226 -230 61 -63 145 -136 200 -175 122 -85 176 -137 295 -285 101 -125 208
-236 355 -366 118 -105 200 -167 219 -167 6 0 19 -8 29 -18 10 -10 37 -32 59
-48 22 -16 83 -61 134 -100 52 -39 108 -79 124 -90 17 -10 73 -50 125 -88 53
-39 103 -75 111 -81 61 -39 96 -65 108 -79 7 -9 18 -16 23 -16 12 0 111 -71
116 -82 2 -5 10 -8 18 -8 8 0 14 -4 14 -10 0 -5 5 -10 11 -10 6 0 32 -20 58
-44 48 -46 128 -110 235 -186 34 -25 87 -63 117 -86 66 -50 217 -154 223 -154
3 0 42 -23 88 -51 46 -28 110 -66 143 -84 33 -18 78 -42 100 -55 50 -28 74
-40 265 -134 143 -71 253 -127 290 -147 30 -16 282 -139 286 -139 3 0 74 -31
149 -65 51 -23 96 -42 203 -84 56 -23 110 -45 120 -51 36 -20 212 -100 220
-100 5 0 26 -8 48 -19 21 -10 54 -22 71 -26 18 -3 35 -11 38 -16 4 -5 15 -9
25 -9 10 0 54 -16 97 -37 43 -20 80 -37 83 -38 14 -5 50 -20 99 -42 104 -46
319 -114 436 -138 158 -32 311 -72 360 -94 22 -10 176 -55 240 -70 22 -6 74
-19 115 -31 72 -21 219 -58 250 -64 8 -1 40 -10 70 -18 70 -21 282 -70 314
-73 14 -2 29 -6 34 -9 5 -3 41 -11 78 -17 38 -5 80 -12 94 -14 14 -3 50 -7 80
-10 30 -2 96 -9 145 -14 159 -17 390 -24 845 -25 427 -1 592 6 710 32 45 10
142 18 355 28 206 9 246 16 370 60 88 32 189 63 235 74 19 4 70 15 112 24 43
9 97 24 120 32 24 8 65 19 92 25 41 7 210 90 366 179 19 10 67 35 105 53 78
38 157 81 195 107 14 10 36 21 50 25 68 21 177 79 246 132 42 32 97 72 123 89
25 18 76 58 111 90 36 33 92 80 125 105 67 52 161 148 190 194 11 17 45 64 75
105 130 174 191 296 270 541 10 31 23 65 28 75 18 36 54 129 69 179 8 28 19
64 25 80 5 17 19 64 30 105 10 41 25 95 32 120 10 34 13 139 11 440 -3 545
-23 746 -106 1026 -23 77 -44 148 -47 159 -2 11 -8 25 -13 30 -4 6 -24 52 -44
103 -21 51 -48 109 -61 128 -13 19 -24 38 -24 43 0 4 -26 48 -58 97 -52 79
-81 117 -168 216 -28 32 -42 27 171 68 33 6 80 17 105 25 38 11 111 14 130 5
3 -1 16 -3 29 -3 18 -2 39 -21 75 -68 28 -36 84 -101 123 -145 40 -43 73 -85
73 -91 0 -7 4 -13 8 -13 9 0 82 -132 82 -149 0 -11 32 -89 53 -126 15 -27 115
-315 137 -395 10 -36 28 -121 40 -190 24 -138 26 -151 41 -230 52 -289 60
-754 19 -1080 -6 -41 -14 -136 -20 -210 -19 -252 -26 -297 -71 -425 -76 -219
-86 -241 -165 -347 -120 -163 -320 -406 -384 -468 -104 -100 -165 -153 -197
-173 -18 -10 -33 -23 -33 -28 0 -5 -15 -19 -34 -31 -18 -13 -68 -49 -110 -81
-42 -31 -78 -57 -80 -57 -3 0 -31 -17 -63 -38 -32 -21 -101 -60 -153 -87 -52
-26 -111 -58 -132 -71 -21 -13 -42 -24 -48 -24 -6 0 -18 -5 -28 -10 -9 -6 -48
-23 -87 -39 -38 -16 -108 -45 -155 -66 -47 -20 -110 -48 -140 -60 -30 -13 -81
-36 -114 -50 -32 -15 -75 -33 -95 -40 -20 -7 -66 -27 -103 -44 -36 -17 -69
-31 -73 -31 -4 0 -21 -6 -38 -14 -18 -7 -61 -24 -97 -36 -36 -13 -69 -26 -75
-30 -9 -7 -132 -47 -250 -83 -27 -8 -97 -25 -155 -37 -58 -11 -122 -25 -142
-31 -20 -5 -54 -11 -75 -14 -21 -2 -65 -9 -98 -15 -33 -6 -118 -16 -190 -21
-71 -6 -155 -13 -185 -17 -92 -12 -635 6 -720 24 -104 21 -230 40 -394 59
-137 16 -267 39 -396 69 -117 28 -243 54 -345 71 -55 9 -111 21 -125 26 -23 9
-184 38 -326 59 -34 5 -99 18 -145 29 -46 10 -104 22 -129 26 -39 6 -140 31
-330 81 -30 8 -64 16 -75 18 -11 2 -20 4 -20 5 0 2 -11 4 -25 7 -38 7 -252 64
-278 75 -13 5 -31 9 -40 9 -9 0 -30 7 -46 15 -15 8 -33 15 -39 15 -13 0 -152
41 -257 76 -41 13 -109 31 -150 39 -125 24 -161 33 -270 70 -58 20 -143 49
-190 64 -85 28 -168 60 -225 86 -35 17 -136 54 -162 60 -10 3 -79 26 -153 51
-74 26 -151 50 -170 54 -19 5 -44 10 -55 13 -11 2 -38 8 -60 11 -55 10 -200
67 -290 113 -71 37 -105 53 -180 88 -44 20 -87 40 -95 45 -8 5 -51 28 -95 51
-44 23 -97 53 -117 66 -21 12 -40 23 -42 23 -2 0 -40 21 -83 46 -43 26 -105
61 -138 79 -51 27 -128 71 -185 105 -72 43 -149 85 -220 123 -142 74 -189 102
-282 166 -149 103 -238 160 -298 188 -12 6 -170 116 -283 198 -31 23 -214 146
-238 160 -35 21 -336 228 -394 270 -77 56 -139 110 -259 223 -66 63 -153 137
-194 165 -127 88 -158 111 -213 155 -30 24 -72 58 -94 75 -22 18 -72 64 -111
102 -105 103 -148 142 -264 237 -150 123 -321 294 -431 433 -53 66 -102 131
-109 145 -13 25 -18 32 -90 127 -22 29 -48 66 -58 82 -9 16 -48 73 -85 126
-37 53 -81 120 -96 148 -16 29 -44 79 -62 112 -19 33 -45 85 -59 115 -13 30
-28 60 -32 66 -11 15 -56 108 -104 214 -21 47 -46 97 -56 112 -10 14 -18 30
-18 35 0 5 -9 28 -20 51 -12 24 -35 82 -51 130 -17 48 -44 114 -59 147 -16 33
-31 71 -34 85 -3 14 -30 86 -61 160 -143 343 -228 601 -277 835 -32 155 -33
167 -33 400 0 258 15 388 71 605 25 94 96 322 116 370 5 14 29 87 53 162 48
154 116 287 152 299 32 11 289 260 355 344 28 36 103 101 205 178 20 15 46 27
59 27 14 0 31 12 45 32 21 29 23 30 31 12 5 -11 30 -34 56 -52 79 -54 144 -37
162 42 9 39 -1 86 -18 86 -5 0 -12 -19 -16 -41 -13 -82 -30 -93 -95 -60 -97
50 -271 323 -271 426 0 59 12 80 58 104 45 24 38 24 71 6z m1725 -2 c4 -5 32
-9 63 -9 70 -2 105 -26 115 -80 15 -83 -6 -156 -68 -229 -87 -103 -218 -113
-287 -22 -73 95 6 300 130 337 37 11 39 11 47 3z m1804 -100 c-3 -76 -9 -99
-42 -167 -40 -84 -47 -93 -111 -125 -72 -37 -194 -10 -266 58 -44 43 -72 107
-64 150 6 33 7 33 48 26 23 -4 75 -10 115 -14 100 -9 119 0 247 121 34 32 64
53 69 48 5 -5 7 -48 4 -97z m-538 -47 c0 -59 -45 -143 -130 -243 -37 -43 -89
-93 -116 -111 -67 -42 -177 -83 -233 -85 -53 -2 -146 11 -170 23 -9 4 -49 18
-88 31 -58 18 -82 32 -121 70 -67 69 -142 199 -113 199 5 0 18 -11 29 -25 50
-64 297 -102 417 -63 64 20 114 43 155 69 14 9 41 25 60 36 72 39 147 94 209
151 l64 60 19 -34 c10 -19 18 -54 18 -78z m8902 56 c38 -78 157 -199 251 -255
l38 -23 -58 -30 c-32 -17 -77 -42 -100 -57 -46 -29 -68 -33 -79 -16 -3 6 -21
17 -39 25 -51 21 -122 111 -139 175 -18 72 -13 94 40 162 24 31 44 62 44 67 0
24 17 5 42 -48z m-12058 -44 c7 -69 73 -208 132 -276 40 -47 39 -77 -2 -93
-34 -12 -110 6 -146 36 -29 25 -98 110 -98 122 0 3 -6 14 -14 22 -18 21 -46
108 -46 143 0 33 42 75 98 99 57 24 68 16 76 -53z m4563 30 c0 -55 31 -309 47
-388 17 -83 44 -165 67 -201 8 -13 26 -49 39 -79 13 -30 36 -71 51 -90 15 -19
37 -53 49 -75 67 -120 333 -407 420 -454 119 -65 155 -81 176 -81 13 0 24 -4
24 -9 0 -7 106 -60 134 -66 6 -1 24 -7 39 -13 16 -7 32 -12 36 -12 4 0 21 -6
37 -14 16 -8 56 -18 89 -21 33 -4 78 -11 100 -16 22 -5 63 -9 90 -9 28 0 100
-7 160 -15 118 -15 508 -23 565 -12 35 7 86 11 305 22 66 4 143 11 170 16 80
16 114 19 225 23 72 3 136 12 205 31 55 14 129 28 165 31 36 3 80 7 98 9 l33
4 -6 -72 c-3 -40 -11 -103 -17 -142 -7 -38 -11 -74 -10 -78 2 -5 -2 -34 -8
-65 -9 -52 -27 -220 -35 -332 -2 -24 -8 -46 -14 -48 -6 -2 -11 -10 -11 -17 0
-8 -20 -18 -47 -24 -27 -6 -73 -18 -103 -27 -57 -16 -90 -24 -200 -44 -36 -6
-93 -20 -127 -30 -33 -10 -78 -21 -100 -24 -21 -3 -72 -10 -113 -16 -41 -6
-88 -15 -105 -20 -28 -8 -55 -12 -195 -25 -335 -32 -576 -28 -740 11 -36 9
-74 20 -85 25 -11 5 -42 16 -70 24 -82 23 -237 75 -280 94 -22 10 -56 24 -75
32 -19 7 -37 16 -40 20 -3 4 -34 21 -70 38 -58 27 -119 68 -215 143 -51 40
-125 120 -183 198 -31 41 -66 86 -78 99 -12 13 -28 35 -36 50 -7 14 -15 28
-18 31 -3 3 -25 39 -49 80 -25 41 -57 95 -72 120 -43 70 -66 130 -89 236 -11
53 -22 100 -25 103 -6 11 -69 403 -115 711 -17 117 -23 369 -10 385 16 20 16
20 17 -17z m-3550 -13 c36 -37 45 -147 16 -193 -33 -51 -41 -55 -97 -49 -59 5
-110 28 -120 52 -33 86 48 199 144 201 24 1 50 -4 57 -11z m10874 -112 c4 -97
85 -220 170 -258 42 -19 48 -35 23 -55 -23 -20 -52 -86 -60 -135 -8 -59 24
-117 80 -145 87 -41 209 -42 286 0 18 9 25 10 28 1 2 -6 9 -17 16 -24 7 -6 15
-19 18 -28 3 -8 23 -42 44 -75 21 -32 44 -68 50 -79 6 -11 28 -51 48 -90 21
-38 46 -81 55 -95 19 -28 31 -51 90 -189 23 -52 41 -102 41 -111 0 -9 4 -20 9
-25 9 -9 111 -258 115 -280 1 -9 39 -77 75 -135 36 -57 90 -163 105 -205 10
-27 23 -54 27 -59 5 -6 9 -16 9 -23 0 -7 17 -50 39 -96 21 -45 44 -100 51
-122 7 -22 27 -76 43 -120 50 -136 66 -190 108 -361 22 -91 46 -180 53 -198
20 -47 68 -218 63 -222 -2 -3 -37 62 -78 143 -74 150 -104 200 -182 308 -24
33 -63 101 -87 150 -51 108 -70 145 -127 250 -23 44 -61 118 -83 165 -23 47
-45 92 -50 100 -5 8 -18 31 -28 50 -93 178 -169 301 -241 389 -52 65 -149 202
-163 231 -15 31 -68 111 -85 128 -8 8 -20 27 -28 43 -9 16 -19 29 -23 29 -4 0
-29 28 -57 63 -27 34 -56 69 -65 78 -8 8 -46 51 -85 93 -38 43 -86 95 -105
115 -19 20 -61 66 -93 104 -32 37 -68 78 -80 90 -12 13 -54 62 -94 109 -75 90
-272 274 -320 298 -49 26 -114 72 -109 78 3 2 11 0 18 -6 24 -19 126 -43 165
-39 44 5 109 27 168 55 22 11 56 27 75 36 19 9 62 34 95 55 33 22 63 40 68 40
4 1 8 -11 8 -26z m-11124 -25 c-10 -68 38 -126 119 -143 86 -19 104 -17 139 9
18 14 37 26 41 26 18 0 73 -88 109 -175 16 -38 42 -99 58 -134 46 -100 50
-233 9 -243 -28 -8 -117 19 -160 47 -48 32 -226 214 -279 287 -78 104 -97 216
-57 318 20 48 28 51 21 8z m1334 -115 c14 -57 18 -196 10 -343 -4 -79 -28
-150 -63 -187 -17 -18 -24 -20 -48 -11 -79 27 -251 294 -304 472 -8 25 -12 46
-10 46 2 0 23 -12 45 -26 32 -20 55 -26 107 -27 83 -2 129 18 192 85 25 26 48
47 51 47 3 1 12 -25 20 -56z m10731 15 c7 -13 24 -47 37 -75 l24 -52 -44 -40
c-24 -21 -68 -52 -98 -67 -29 -16 -72 -44 -95 -64 -69 -60 -83 -67 -46 -25 67
76 85 114 85 181 0 46 -5 67 -18 82 -20 22 -19 24 38 42 22 7 49 19 60 26 27
19 41 17 57 -8z m-240 -53 c32 -13 60 -70 52 -110 -8 -46 -79 -137 -144 -186
-61 -46 -197 -99 -253 -99 -88 0 -175 44 -178 89 -7 102 67 189 231 274 l94
47 90 -4 c50 -2 99 -7 108 -11z m-12583 -122 l40 -20 -47 -39 c-26 -21 -53
-43 -61 -49 -28 -21 -109 -103 -168 -170 -87 -99 -143 -158 -143 -151 0 15 85
207 159 357 44 91 81 174 81 184 0 14 14 3 50 -37 27 -31 67 -64 89 -75z
m13028 -28 c27 -31 29 -63 8 -161 -18 -87 -22 -99 -52 -146 -27 -45 -45 -47
-99 -12 -53 35 -69 72 -69 164 1 84 29 150 75 176 39 22 109 12 137 -21z
m-251 -80 c-12 -49 -8 -150 9 -188 16 -39 68 -97 85 -97 21 0 9 -21 -17 -31
-44 -16 -144 -69 -193 -101 -24 -17 -46 -25 -48 -20 -2 6 -34 60 -71 119 l-69
108 22 23 c36 40 262 210 280 211 4 1 5 -10 2 -24z m283 -326 c13 -39 36 -101
52 -137 24 -52 27 -67 17 -79 -10 -13 -85 -51 -298 -151 -30 -14 -58 -26 -62
-27 -4 0 -34 54 -67 120 l-60 120 22 17 c31 24 190 101 266 129 45 17 69 32
80 51 9 16 18 28 22 28 3 0 15 -32 28 -71z m-8435 -231 c25 -126 54 -238 71
-268 8 -14 20 -36 27 -50 6 -14 26 -47 43 -75 17 -27 36 -61 43 -75 32 -63 47
-86 69 -110 12 -13 23 -27 23 -30 0 -23 209 -273 267 -320 24 -19 49 -40 56
-46 99 -85 299 -187 497 -253 85 -29 164 -56 175 -62 11 -5 48 -16 83 -24 34
-8 88 -21 120 -29 61 -16 206 -28 312 -28 89 0 463 30 525 41 28 6 95 17 150
26 55 9 156 29 225 45 69 16 165 37 213 46 49 8 108 22 130 30 38 14 171 45
172 41 6 -17 239 -272 293 -321 23 -20 46 -42 217 -205 45 -42 99 -92 121
-112 58 -53 279 -225 314 -246 17 -9 30 -20 30 -24 0 -4 8 -9 18 -13 9 -3 44
-26 77 -51 66 -50 188 -134 217 -150 10 -5 18 -13 18 -17 0 -4 16 -14 35 -23
19 -9 44 -27 57 -39 29 -28 95 -76 103 -76 4 0 26 -13 50 -30 24 -16 46 -30
50 -30 3 0 29 -16 58 -35 28 -19 57 -35 64 -35 6 0 13 -3 15 -8 2 -6 251 -176
317 -217 9 -5 36 -24 61 -41 25 -18 68 -43 95 -56 28 -14 115 -59 195 -100 80
-41 177 -87 215 -102 39 -16 88 -36 110 -46 22 -10 94 -41 160 -70 66 -28 138
-60 160 -70 22 -9 76 -26 120 -36 44 -10 82 -19 85 -19 44 -12 67 -19 75 -25
9 -6 86 -27 135 -36 73 -14 119 -26 205 -52 128 -39 253 -70 313 -77 26 -4 54
-8 64 -11 9 -3 72 -11 140 -20 67 -8 161 -22 208 -31 47 -8 122 -16 167 -17
51 -1 87 -6 94 -13 7 -7 19 -13 26 -13 7 0 13 -4 13 -8 0 -9 44 -64 78 -97 56
-56 175 -261 240 -413 29 -68 52 -129 52 -137 0 -8 4 -16 9 -19 5 -3 12 -21
15 -39 3 -18 17 -68 31 -112 28 -88 69 -327 82 -475 4 -52 8 -228 7 -390 l0
-295 -47 -138 c-47 -142 -97 -244 -140 -287 -161 -162 -232 -218 -391 -308
-27 -15 -84 -50 -126 -78 -89 -59 -124 -77 -195 -105 -44 -17 -70 -33 -171
-104 -23 -17 -187 -76 -221 -80 -13 -1 -28 -7 -35 -12 -7 -6 -56 -28 -108 -50
-88 -37 -146 -54 -370 -105 -47 -10 -114 -25 -150 -34 -36 -8 -105 -21 -154
-29 -49 -8 -105 -20 -125 -26 -20 -7 -43 -13 -51 -14 -24 -2 -272 -58 -350
-78 -89 -23 -1244 -5 -1550 24 -126 12 -307 42 -410 69 -41 10 -119 26 -173
34 -54 9 -137 27 -185 40 -92 26 -129 33 -202 41 -144 15 -385 57 -425 74 -11
5 -99 34 -195 65 -96 32 -184 61 -195 66 -11 5 -31 12 -45 15 -22 6 -98 33
-155 56 -24 9 -151 50 -168 53 -7 2 -19 6 -27 9 -8 3 -62 22 -120 42 -58 20
-114 40 -125 45 -11 4 -67 23 -125 40 -58 18 -159 50 -225 72 -66 22 -140 43
-165 48 -25 4 -79 24 -120 44 -41 20 -80 36 -87 36 -7 0 -13 5 -13 10 0 6 -5
10 -12 10 -6 0 -79 33 -162 74 -83 40 -167 80 -186 88 -55 24 -179 79 -245
109 -33 15 -87 37 -120 50 -33 12 -69 28 -80 35 -11 7 -51 25 -90 40 -72 28
-395 190 -405 202 -3 4 -54 32 -115 63 -241 123 -345 182 -353 202 -2 4 -8 7
-14 7 -12 0 -172 110 -176 122 -2 4 -43 29 -90 55 -48 26 -108 63 -133 82 -79
62 -238 191 -263 214 -13 12 -44 37 -68 54 -24 18 -58 44 -74 58 -16 15 -51
45 -78 68 -27 23 -54 47 -60 53 -6 5 -42 37 -81 69 -38 33 -83 71 -99 85 -41
35 -143 129 -180 165 -49 49 -214 186 -296 247 -41 31 -86 65 -99 77 -13 11
-27 21 -30 21 -3 0 -20 12 -36 28 -17 15 -77 70 -135 122 -57 52 -116 108
-130 125 -14 16 -45 50 -69 75 -24 25 -55 63 -70 85 -14 22 -38 56 -53 75 -14
19 -36 55 -49 80 -13 25 -28 50 -34 56 -11 12 -120 178 -216 330 -35 56 -81
127 -102 159 -21 32 -59 97 -84 144 -63 118 -66 124 -80 141 -23 29 -192 377
-243 500 -28 69 -65 154 -82 188 -16 35 -31 72 -33 82 -2 10 -8 26 -13 36 -6
11 -18 39 -28 64 -10 25 -26 65 -36 90 -11 25 -23 54 -27 65 -5 11 -21 47 -36
79 -15 33 -28 64 -29 70 -1 6 -11 31 -22 56 -57 121 -72 167 -117 340 -39 149
-48 253 -42 475 6 211 7 229 26 340 12 67 14 71 54 96 67 42 178 62 310 56 61
-3 129 -13 151 -21 21 -8 82 -30 134 -49 52 -19 115 -44 140 -55 25 -12 81
-31 125 -42 44 -12 94 -27 110 -35 17 -7 71 -23 120 -35 50 -12 122 -32 162
-45 39 -14 83 -26 98 -29 15 -3 41 -9 58 -15 50 -15 253 -42 357 -47 155 -8
219 -13 327 -25 92 -11 260 -8 383 6 76 9 140 14 245 20 61 4 139 13 175 21
36 8 142 30 235 49 94 18 188 41 210 49 22 8 65 24 95 36 30 12 87 30 125 41
39 11 75 21 80 23 6 2 23 6 38 11 16 4 55 20 87 36 32 15 82 35 111 44 30 8
92 35 139 59 47 25 87 45 90 45 3 1 14 -41 24 -91z m8743 -48 c32 -75 -1 -210
-67 -277 -37 -38 -61 -47 -103 -39 -34 7 -77 57 -77 92 0 10 -6 39 -13 63 -21
68 -6 139 35 174 44 37 80 45 151 32 54 -10 60 -13 74 -45z m-12977 -64 c-6
-20 -9 -39 -7 -43 3 -5 1 -32 -4 -61 -10 -67 -14 -433 -5 -527 4 -38 18 -119
33 -180 14 -60 26 -114 27 -120 6 -30 39 -116 47 -120 5 -4 9 -13 9 -21 0 -8
11 -37 25 -66 14 -28 25 -55 25 -60 0 -4 16 -43 36 -85 51 -111 68 -151 88
-208 20 -55 37 -97 89 -225 19 -47 51 -124 70 -172 20 -48 40 -95 46 -105 5
-10 53 -106 107 -213 53 -107 104 -206 113 -220 33 -52 42 -67 81 -143 37 -70
183 -304 209 -334 6 -7 11 -14 11 -17 0 -9 72 -122 105 -165 30 -39 65 -90 65
-94 0 -2 21 -40 48 -83 70 -118 187 -259 311 -375 60 -56 108 -106 105 -110
-2 -4 -8 -27 -13 -51 -13 -63 -57 -233 -80 -308 -113 -363 -149 -475 -170
-525 -4 -11 -16 -47 -26 -80 -9 -33 -24 -79 -32 -103 -8 -23 -16 -50 -18 -60
-3 -22 -25 -17 -44 10 -39 56 -150 174 -225 240 -147 128 -194 168 -201 168
-13 0 -148 134 -366 365 -168 177 -396 479 -420 555 -6 19 -17 42 -24 50 -35
43 -149 290 -210 455 -18 50 -45 122 -60 160 -143 373 -170 485 -245 1015 -6
41 -13 93 -16 115 -3 22 -6 166 -6 320 0 311 10 418 63 640 31 127 152 452
189 505 10 14 29 48 43 75 26 51 221 254 233 242 3 -3 1 -22 -6 -41z m12675
-53 c1 -85 4 -106 27 -155 15 -31 32 -59 39 -64 7 -4 -33 -22 -93 -43 -105
-36 -142 -56 -133 -71 3 -5 22 -4 43 2 58 15 216 69 227 78 6 4 31 10 57 12
25 3 60 15 76 27 l30 21 17 -52 c10 -29 23 -62 30 -73 26 -43 27 -75 3 -96
-35 -30 -72 -48 -146 -70 -37 -12 -71 -25 -77 -29 -5 -4 -28 -13 -50 -20 -22
-7 -53 -20 -68 -29 -27 -15 -29 -15 -47 9 -28 36 -72 131 -110 235 -18 50 -52
136 -75 193 -42 100 -42 102 -20 102 15 0 270 113 270 120 0 0 0 -44 0 -97z
m-3935 -93 c218 -15 304 -20 425 -25 61 -3 117 -7 125 -10 8 -2 80 -14 160
-25 119 -17 183 -33 360 -91 118 -39 244 -85 280 -101 36 -16 79 -36 95 -43
46 -20 212 -85 218 -85 3 0 79 -32 169 -71 141 -62 230 -109 248 -130 6 -7
128 -81 204 -124 30 -16 96 -66 147 -111 52 -44 104 -89 117 -100 13 -10 38
-32 55 -48 18 -15 48 -38 67 -51 19 -13 44 -31 55 -41 11 -11 54 -48 95 -84
41 -36 98 -86 125 -111 28 -26 75 -66 105 -90 52 -41 93 -80 198 -194 26 -27
67 -65 92 -84 61 -47 85 -71 171 -175 81 -98 129 -162 129 -175 0 -5 9 -20 20
-34 11 -14 42 -66 68 -115 26 -49 66 -118 90 -153 23 -34 42 -69 42 -76 0 -7
4 -13 9 -13 18 0 151 -238 151 -270 0 -6 -19 3 -42 20 -22 16 -46 30 -52 30
-6 0 -25 14 -43 30 -18 17 -34 30 -37 30 -5 0 -112 80 -186 139 -25 20 -67 60
-95 90 -27 30 -58 61 -68 70 -10 9 -51 49 -90 90 -40 40 -97 96 -127 125 -30
28 -109 105 -176 171 -180 178 -342 321 -402 355 -15 8 -29 18 -32 21 -53 61
-591 388 -740 450 -30 12 -59 26 -65 30 -5 3 -68 37 -140 74 -71 38 -134 71
-140 76 -29 21 -325 164 -425 204 -151 61 -286 111 -332 123 -21 6 -86 28
-145 50 -60 21 -146 49 -193 62 -47 12 -123 37 -170 55 -75 30 -180 63 -345
111 -27 8 -72 21 -100 29 -27 8 -114 35 -192 60 -100 31 -194 53 -317 72 -167
26 -216 40 -143 42 17 0 46 3 62 6 17 3 98 8 180 11 83 4 151 7 152 8 9 7 270
4 383 -4z m-760 -85 c85 -13 169 -26 185 -28 102 -16 159 -29 178 -42 12 -7
56 -23 97 -35 41 -12 95 -28 120 -35 25 -7 101 -29 170 -48 69 -20 163 -49
210 -65 197 -69 270 -93 350 -116 112 -32 359 -119 540 -190 129 -51 447 -200
460 -216 5 -7 112 -62 370 -193 85 -43 176 -90 202 -105 227 -130 345 -205
478 -301 204 -149 285 -218 474 -406 61 -61 136 -133 166 -162 30 -28 123
-120 205 -205 145 -148 265 -258 282 -258 4 0 42 -28 83 -61 41 -34 86 -66
100 -72 14 -6 52 -30 85 -52 101 -70 100 -70 124 -30 11 19 25 53 31 76 6 23
28 76 47 118 20 42 56 132 80 201 48 137 47 133 67 208 8 28 26 73 40 100 46
87 94 197 106 242 6 25 16 62 22 82 l11 37 22 -33 c12 -18 37 -73 55 -122 18
-49 39 -96 47 -105 7 -8 13 -19 13 -24 0 -4 12 -29 28 -54 15 -25 34 -64 41
-86 13 -37 140 -300 161 -335 18 -28 68 -145 95 -220 15 -41 31 -84 35 -95 29
-66 68 -175 75 -205 4 -19 27 -95 51 -167 24 -73 51 -165 59 -205 8 -40 26
-127 41 -193 25 -110 27 -139 28 -345 1 -232 -10 -351 -65 -690 -36 -219 -145
-605 -202 -717 -10 -18 -17 -37 -17 -44 0 -10 -50 -132 -101 -244 -9 -22 -38
-87 -62 -145 -75 -175 -93 -211 -148 -305 -29 -49 -83 -148 -120 -220 -71
-135 -79 -144 -54 -60 17 55 29 157 45 377 6 79 15 177 20 218 24 187 33 443
20 600 -26 319 -28 338 -106 775 -9 49 -25 112 -36 140 -11 27 -38 100 -59
160 -32 93 -91 243 -139 359 -15 34 -148 213 -180 241 -12 11 -48 52 -79 90
-83 105 -87 107 -241 179 -30 14 -71 27 -90 30 -56 8 -162 33 -205 49 -22 9
-71 21 -110 28 -69 12 -225 62 -330 105 -16 6 -59 23 -95 37 -196 74 -249 97
-397 169 -88 43 -166 78 -171 78 -5 0 -56 22 -113 49 -57 27 -149 66 -204 87
-55 20 -128 50 -163 65 -34 16 -65 29 -68 29 -17 0 -139 60 -216 107 -80 48
-174 100 -283 158 -22 11 -78 46 -125 76 -47 31 -119 75 -160 99 -104 60 -265
166 -326 215 -28 22 -64 49 -80 60 -15 11 -37 28 -47 38 -10 11 -35 30 -54 43
-19 13 -67 52 -105 86 -39 35 -78 67 -86 72 -39 22 -108 81 -176 148 -107 107
-244 232 -301 275 -48 36 -259 238 -505 483 -134 133 -194 189 -305 286 -44
38 -99 87 -123 109 -24 22 -50 44 -58 48 -75 42 122 44 386 2z m-363 -75 c38
-36 91 -85 118 -109 28 -23 80 -71 117 -105 36 -33 79 -72 95 -86 15 -14 58
-57 94 -95 36 -39 157 -158 269 -265 239 -230 212 -204 280 -260 66 -53 120
-102 259 -237 58 -56 141 -129 184 -162 44 -33 93 -72 110 -88 136 -122 441
-343 564 -408 23 -13 55 -32 71 -44 17 -11 33 -21 36 -21 4 0 50 -29 104 -63
53 -35 130 -81 170 -101 41 -20 91 -48 113 -61 21 -14 41 -25 43 -25 3 0 22
-12 43 -26 39 -27 220 -119 238 -122 14 -2 84 -31 118 -49 15 -8 27 -11 27 -8
0 3 12 -1 28 -9 35 -19 85 -40 142 -59 53 -18 250 -106 405 -181 154 -75 222
-106 232 -106 11 0 164 -58 185 -70 10 -6 22 -10 28 -10 5 0 33 -11 62 -24 66
-30 225 -81 298 -95 30 -6 64 -13 75 -15 11 -2 40 -11 65 -20 25 -8 65 -18 90
-22 25 -4 57 -13 72 -20 15 -8 36 -14 46 -14 25 0 59 -37 45 -51 -5 -5 -27
-12 -49 -15 -43 -5 -214 -38 -314 -60 -74 -16 -118 -17 -175 -5 -22 5 -58 12
-80 14 -22 3 -60 10 -85 16 -25 5 -81 12 -125 16 -99 7 -278 40 -365 65 -246
72 -299 86 -359 94 -14 2 -53 13 -86 24 -33 11 -113 34 -178 51 -65 16 -133
37 -150 46 -18 9 -65 30 -105 46 -162 65 -411 177 -526 235 -33 18 -98 50
-143 72 -44 22 -125 71 -180 109 -54 37 -129 88 -168 113 -38 24 -72 47 -75
51 -3 3 -34 22 -70 42 -36 21 -72 42 -80 47 -8 5 -44 27 -80 49 -36 21 -94 61
-130 87 -36 26 -121 86 -190 133 -69 46 -162 112 -207 145 -45 34 -90 67 -100
74 -61 42 -142 100 -162 117 -13 11 -44 37 -70 58 -181 149 -548 503 -685 659
l-58 68 5 62 c7 86 24 231 43 368 14 105 31 258 33 303 1 26 10 21 88 -53z
m5527 -191 c35 -41 41 -71 26 -136 -13 -58 -63 -126 -101 -138 -60 -19 -99 29
-100 125 -1 47 4 69 25 105 46 77 107 95 150 44z m-210 -81 c-20 -57 -7 -152
27 -199 l18 -26 -57 -13 c-31 -7 -83 -19 -115 -26 -32 -8 -60 -14 -63 -14 -2
0 -24 43 -49 97 -49 102 -49 106 5 119 14 4 50 18 80 32 48 21 128 48 153 51
5 1 5 -9 1 -21z m228 -391 l5 -45 -61 -7 c-86 -10 -206 -42 -237 -64 l-25 -19
-29 67 c-15 36 -34 79 -41 95 -8 16 -14 33 -14 37 0 9 42 22 125 39 33 7 98
24 145 39 l85 26 21 -61 c12 -34 23 -82 26 -107z m7 -119 c-6 -13 -17 -30 -24
-38 -19 -22 -33 -101 -26 -146 8 -51 28 -79 71 -97 l35 -14 -70 -11 c-38 -6
-99 -14 -136 -17 l-65 -5 -16 47 c-35 102 -48 139 -57 153 -16 30 -21 75 -8
90 6 9 46 23 87 33 107 24 110 25 168 26 52 1 52 1 41 -21z m130 -3 c54 -27
55 -167 3 -227 -25 -30 -88 -24 -123 11 -16 16 -29 39 -29 50 0 49 24 126 48
152 28 32 58 37 101 14z m-65 -387 c12 -86 -2 -256 -29 -351 -29 -101 -66
-197 -77 -197 -4 0 -14 26 -23 58 -9 31 -27 93 -40 137 -13 44 -29 100 -35
125 -6 25 -15 56 -20 70 -5 14 -11 41 -14 60 -2 19 -9 50 -15 69 -6 19 -9 36
-8 38 2 1 44 5 93 7 50 3 102 10 115 15 40 16 46 13 53 -31z m-11411 -2410
c78 -57 78 -60 47 -190 -58 -242 -83 -353 -100 -448 -34 -183 -40 -211 -90
-415 -27 -110 -52 -219 -57 -243 l-8 -42 -75 67 c-93 85 -230 221 -230 230 0
4 9 25 20 47 10 23 31 81 45 129 14 49 32 105 41 125 9 20 24 66 35 102 11 36
40 130 65 210 74 234 91 292 104 345 11 48 38 155 46 183 3 10 16 4 47 -18 23
-18 72 -54 110 -82z m229 -184 c62 -53 151 -133 198 -178 47 -44 128 -117 180
-161 52 -44 139 -119 193 -167 55 -48 112 -96 127 -105 38 -22 42 -43 26 -143
-16 -91 -36 -262 -42 -345 -4 -72 -16 -215 -20 -251 -1 -18 -14 -94 -28 -170
-42 -228 -45 -247 -52 -301 -4 -29 -9 -53 -11 -53 -3 0 -26 14 -52 32 -25 17
-73 50 -107 73 -34 23 -73 50 -86 61 -14 10 -34 25 -44 32 -66 44 -308 219
-387 279 -52 40 -135 99 -184 132 -49 32 -94 66 -101 74 -14 16 -6 82 23 197
8 30 21 84 30 120 9 36 25 99 36 140 16 60 53 240 82 400 2 14 16 70 30 125
40 158 59 237 64 273 3 17 7 32 9 32 2 0 54 -43 116 -96z m864 -746 c35 -28
64 -55 64 -59 0 -13 -30 -281 -39 -348 -9 -63 -12 -95 -27 -261 -3 -41 -17
-127 -30 -190 -13 -63 -29 -162 -35 -220 -7 -58 -18 -118 -26 -133 -12 -24
-12 -32 1 -57 8 -17 13 -30 11 -30 -3 0 -147 111 -168 130 -4 4 6 85 24 181
55 309 77 452 84 554 3 55 8 116 10 135 32 277 44 350 57 350 6 0 39 -23 74
-52z m126 -96 c6 -15 84 -70 143 -102 33 -18 86 -52 118 -76 31 -24 61 -44 66
-44 5 0 11 -3 13 -7 10 -24 290 -193 433 -263 61 -29 117 -59 125 -65 12 -10
198 -109 268 -144 75 -37 150 -71 156 -71 6 0 140 -59 274 -121 35 -16 65 -29
68 -29 3 0 22 -7 42 -16 21 -9 55 -25 77 -34 100 -44 387 -180 530 -251 44
-21 103 -44 130 -50 28 -6 58 -15 67 -20 10 -5 25 -9 33 -9 8 0 23 -4 33 -9
38 -19 70 -30 137 -46 39 -10 77 -19 85 -22 8 -3 78 -27 155 -54 77 -27 190
-66 250 -85 61 -20 151 -51 200 -69 50 -18 128 -45 175 -60 47 -14 121 -40
165 -57 44 -17 94 -34 110 -38 17 -4 84 -23 150 -43 127 -37 225 -58 237 -50
5 2 14 1 20 -3 7 -5 19 -9 28 -9 8 -1 35 -5 60 -8 25 -4 69 -9 99 -12 30 -3
72 -10 95 -16 162 -42 231 -58 316 -69 41 -6 101 -18 135 -26 33 -9 71 -18 85
-20 14 -3 31 -7 39 -9 7 -3 57 -12 110 -20 53 -8 107 -17 121 -20 25 -5 128
-10 440 -20 96 -3 213 -8 260 -11 47 -2 265 -4 485 -4 393 0 402 0 505 25 58
14 141 32 185 40 44 8 107 23 140 34 33 11 75 21 93 21 31 0 32 -1 28 -37 -3
-21 -8 -78 -11 -128 -4 -49 -9 -99 -11 -110 -11 -58 -34 -253 -39 -340 -8
-118 -33 -350 -41 -383 -4 -14 -16 -24 -33 -28 -14 -2 -52 -11 -83 -19 -32 -8
-68 -15 -81 -15 -13 0 -28 -5 -33 -10 -6 -6 -19 -13 -30 -15 -48 -11 -138 -35
-242 -64 -89 -25 -140 -32 -235 -36 -185 -7 -284 -15 -372 -30 -44 -8 -107
-16 -140 -19 -69 -7 -1053 -8 -1063 -2 -4 2 -77 7 -162 11 -85 3 -162 8 -170
10 -8 2 -44 7 -80 10 -158 16 -360 55 -605 120 -247 65 -329 86 -391 100 -75
16 -174 45 -312 91 -114 37 -221 64 -357 90 -49 9 -94 20 -100 24 -5 4 -26 11
-45 15 -19 4 -41 11 -50 15 -8 5 -37 15 -65 23 -56 17 -179 65 -240 95 -83 40
-113 53 -235 96 -69 24 -143 52 -165 62 -22 10 -42 18 -45 18 -3 1 -43 20 -90
43 -107 53 -177 83 -190 83 -6 0 -18 4 -28 9 -17 8 -66 29 -112 49 -14 5 -45
19 -70 29 -25 11 -75 32 -111 47 -36 15 -153 72 -260 127 -107 54 -302 153
-434 219 -132 66 -247 124 -255 130 -16 10 -181 106 -215 125 -28 15 -184 120
-219 147 -16 13 -68 52 -115 87 -91 67 -106 84 -97 107 3 8 -1 14 -9 14 -16 0
-20 16 -6 24 12 8 20 66 9 72 -17 11 -8 84 57 443 8 46 17 118 20 160 6 73 22
236 30 284 2 12 9 68 15 125 11 90 21 119 32 94z m9602 -762 c-25 -121 -79
-296 -149 -487 -36 -98 -79 -216 -96 -263 -44 -119 -109 -232 -230 -395 -16
-22 -44 -62 -63 -90 -36 -55 -82 -99 -196 -190 -41 -33 -77 -64 -79 -68 -6
-14 -304 -233 -361 -265 -30 -17 -75 -38 -99 -47 -25 -8 -93 -43 -153 -76
-107 -61 -321 -159 -346 -159 -10 0 -12 12 -8 43 12 111 16 146 20 198 3 30
12 81 20 113 8 31 20 94 26 139 6 45 15 100 20 122 5 22 16 99 25 170 9 72 18
137 21 145 2 9 25 22 51 29 109 32 170 54 209 77 22 13 50 24 62 24 28 0 248
88 327 130 33 18 83 44 110 57 28 14 52 28 55 32 3 3 27 17 53 31 27 14 59 37
72 53 13 15 26 27 29 27 4 0 25 14 48 30 22 17 45 30 50 30 5 0 36 18 69 40
33 22 63 40 65 40 34 0 280 226 336 309 29 43 87 181 114 270 3 8 6 12 9 10 2
-3 -3 -38 -11 -79z m-1694 -1108 c0 -29 -31 -250 -44 -312 -9 -41 -19 -104
-22 -140 -4 -36 -11 -76 -16 -90 -5 -13 -14 -60 -19 -105 -6 -44 -12 -89 -13
-100 -2 -11 -6 -49 -10 -85 -12 -103 -34 -160 -63 -160 -8 0 -45 -14 -82 -32
-82 -40 -159 -67 -189 -68 -23 0 -24 3 -18 48 3 26 11 103 16 172 23 289 23
285 44 425 8 55 17 138 21 185 11 157 15 179 36 185 10 4 70 17 132 30 61 13
132 30 157 38 53 18 70 20 70 9z"/>
<path d="M7745 19189 c-93 -51 -135 -102 -135 -165 0 -76 49 -123 131 -126 99
-5 179 69 187 170 5 62 -9 97 -50 118 -32 17 -105 18 -133 3z m110 -51 c25
-20 27 -25 23 -77 -4 -49 -9 -59 -43 -88 -31 -27 -47 -33 -82 -33 -55 0 -78
12 -98 50 -24 46 1 101 64 142 54 34 98 36 136 6z"/>
<path d="M7252 19130 c-18 -11 -38 -32 -45 -47 -6 -16 -16 -31 -22 -35 -5 -4
-10 -38 -10 -75 0 -55 4 -74 23 -101 66 -92 174 -78 261 34 67 86 68 177 1
224 -40 28 -161 28 -208 0z m183 -44 c27 -18 33 -63 15 -111 -13 -33 -93 -111
-117 -113 -69 -7 -108 17 -119 75 -25 135 107 224 221 149z"/>
<path d="M6745 19068 c-76 -27 -104 -42 -138 -72 -21 -18 -37 -36 -37 -39 0
-3 -14 -26 -30 -51 -34 -50 -60 -124 -60 -173 0 -51 34 -115 76 -143 32 -21
49 -25 113 -25 63 0 87 5 141 30 62 28 154 95 193 140 48 55 78 160 63 219 -7
28 -53 76 -73 76 -7 0 -31 10 -53 21 -47 25 -150 34 -195 17z m145 -50 c65
-19 110 -43 116 -62 9 -28 6 -98 -6 -130 -37 -99 -216 -216 -329 -216 -57 0
-97 18 -127 57 -23 30 -26 41 -20 81 10 77 75 193 127 230 13 9 48 26 78 39
57 23 85 23 161 1z"/>
<path d="M5595 18444 c-33 -6 -77 -22 -98 -34 -82 -49 -135 -157 -125 -259 8
-83 56 -126 151 -137 49 -6 64 -3 111 20 52 25 156 124 156 148 0 5 7 25 16
44 24 51 14 113 -27 166 -18 24 -33 44 -34 45 -1 2 -22 7 -46 11 -29 6 -66 4
-104 -4z m150 -87 c30 -57 31 -88 6 -142 -20 -46 -108 -129 -156 -150 -40 -16
-114 -4 -156 26 -26 19 -29 25 -29 80 0 71 19 122 63 167 55 58 123 82 203 72
39 -5 45 -9 69 -53z"/>
<path d="M5117 18126 c-20 -14 -53 -44 -74 -67 -99 -109 -108 -173 -35 -251
57 -62 136 -57 214 12 57 50 77 91 80 168 2 48 -1 64 -17 82 -14 16 -16 24 -7
27 21 8 13 20 -22 37 -49 23 -97 20 -139 -8z m96 -56 c46 -29 47 -31 47 -80 0
-64 -18 -99 -72 -143 -53 -42 -89 -52 -126 -33 -64 33 -80 82 -47 146 22 45
114 140 135 140 9 0 37 -13 63 -30z"/>
<path d="M4785 17869 c-49 -28 -95 -84 -109 -133 -30 -104 3 -172 91 -191 51
-10 134 32 170 87 25 38 28 52 28 125 0 104 -9 115 -97 120 -35 1 -72 -2 -83
-8z m83 -45 c45 -15 51 -20 54 -48 11 -109 -63 -201 -150 -188 -89 13 -95 130
-9 212 22 22 44 40 48 40 4 0 29 -7 57 -16z"/>
<path d="M4454 17573 c-47 -49 -64 -83 -71 -142 -5 -43 -3 -50 22 -69 37 -29
106 -29 152 -1 68 42 98 163 51 206 -61 55 -104 56 -154 6z m91 -23 c4 -12 15
-20 27 -20 19 0 20 -4 14 -47 -3 -25 -14 -55 -24 -66 -24 -28 -78 -48 -107
-41 -40 10 -45 32 -24 90 32 85 98 134 114 84z"/>
</g>
</svg>
