<?xml version="1.0" standalone="no"?>
<!DOCTYPE svg PUBLIC "-//W3C//DTD SVG 20010904//EN"
 "http://www.w3.org/TR/2001/REC-SVG-20010904/DTD/svg10.dtd">
<svg version="1.0" xmlns="http://www.w3.org/2000/svg"
 width="8192.000000pt" height="8192.000000pt" viewBox="0 0 8192.000000 8192.000000"
 preserveAspectRatio="xMidYMid meet">
<metadata>
Created by potrace 1.16, written by Peter Selinger 2001-2019
</metadata>
<g transform="translate(0.000000,8192.000000) scale(0.100000,-0.100000)"
fill="#000000" stroke="none">
<path d="M20664 75886 c-17 -8 -42 -27 -55 -43 -13 -17 -43 -41 -67 -54 -55
-30 -75 -64 -336 -587 -113 -227 -229 -454 -257 -504 -86 -154 -264 -515 -327
-663 -113 -263 -251 -545 -369 -755 -190 -334 -462 -775 -603 -975 -179 -253
-439 -529 -604 -640 -141 -95 -334 -155 -501 -156 -147 -1 -232 32 -441 172
-220 146 -326 240 -491 435 -376 443 -454 529 -633 699 -323 306 -772 616
-991 683 -226 70 -462 50 -824 -69 -272 -89 -517 -222 -655 -354 -47 -45 -121
-108 -165 -141 -98 -71 -189 -155 -273 -248 -108 -121 -238 -299 -295 -402
-30 -54 -70 -124 -89 -154 -146 -227 -259 -551 -294 -840 -14 -116 -15 -159
-5 -305 13 -195 35 -304 84 -431 54 -135 162 -370 206 -443 81 -137 304 -414
423 -526 430 -407 637 -550 931 -644 220 -70 422 -96 812 -106 496 -13 793
-92 1093 -292 83 -55 125 -90 155 -131 23 -30 55 -68 71 -83 30 -28 30 -29 17
-81 -28 -108 -110 -348 -156 -454 -102 -234 -346 -703 -593 -1139 -25 -44
-122 -201 -217 -350 -234 -369 -252 -400 -570 -1010 -103 -198 -228 -436 -278
-530 -233 -436 -276 -527 -277 -578 0 -91 44 -147 133 -167 25 -5 82 -34 126
-62 44 -29 122 -80 173 -113 51 -33 155 -106 232 -163 76 -57 213 -153 305
-214 91 -61 236 -163 321 -227 157 -119 620 -447 785 -558 246 -164 721 -449
990 -593 110 -59 276 -148 369 -199 93 -50 244 -125 335 -167 91 -42 204 -97
251 -124 125 -70 330 -170 455 -223 61 -25 184 -77 275 -115 183 -77 368 -140
511 -174 77 -18 123 -22 254 -22 149 0 166 2 245 28 266 88 485 269 597 491
29 57 120 339 132 410 5 33 17 132 26 220 23 229 41 353 81 548 32 160 121
498 164 628 28 81 116 272 164 353 54 90 301 372 405 461 97 83 265 199 343
237 119 59 359 125 483 134 149 12 462 -54 605 -126 124 -62 263 -196 368
-350 153 -227 294 -635 308 -895 18 -316 -119 -612 -417 -900 -132 -127 -244
-214 -489 -380 -96 -65 -206 -141 -245 -170 -38 -28 -122 -86 -185 -130 -120
-82 -201 -140 -359 -259 -226 -169 -341 -431 -341 -777 0 -384 214 -766 625
-1113 441 -373 829 -641 1305 -904 91 -50 239 -132 330 -182 91 -50 296 -157
455 -237 160 -80 396 -202 525 -271 281 -150 1231 -625 1444 -722 83 -38 239
-110 346 -160 220 -103 361 -161 437 -180 65 -17 118 0 148 47 14 22 30 33 55
37 55 9 78 39 285 376 64 104 176 326 256 509 74 167 295 608 389 776 93 166
490 961 604 1210 112 244 154 316 256 444 77 97 237 273 309 340 20 19 68 64
107 101 126 119 292 219 490 295 125 49 326 105 373 105 24 0 47 -21 138 -122
158 -178 261 -303 405 -489 152 -198 335 -419 392 -474 97 -96 284 -229 511
-365 50 -30 170 -86 267 -126 119 -48 207 -91 271 -132 346 -224 775 -337
1092 -289 121 19 344 91 480 156 173 83 431 268 599 430 109 105 295 370 383
546 64 127 169 383 212 519 55 171 124 554 134 744 17 315 -96 724 -269 978
-146 213 -280 350 -424 432 -60 33 -240 106 -358 143 -55 18 -88 36 -135 76
-109 93 -277 170 -554 253 -308 94 -514 122 -1173 165 -281 19 -434 37 -456
56 -24 20 -99 119 -118 157 -9 18 -33 94 -53 170 -31 118 -36 157 -40 283 -8
211 14 358 92 625 57 193 47 169 248 584 331 684 684 1371 938 1827 67 120
165 299 219 398 54 99 169 299 255 445 87 146 178 303 202 350 40 78 43 88 33
121 -13 45 -52 86 -89 94 -16 3 -33 16 -39 30 -6 13 -55 53 -109 88 -54 35
-163 113 -243 173 -176 133 -262 194 -276 194 -6 0 -16 -18 -23 -40 -6 -21
-16 -42 -22 -45 -12 -8 -150 85 -334 225 -174 133 -240 177 -645 430 -179 112
-377 237 -440 278 -199 129 -337 214 -590 362 -135 78 -348 204 -475 280 -397
237 -493 290 -780 436 -154 78 -345 175 -425 215 -240 123 -517 224 -737 268
-196 39 -395 64 -473 58 -208 -16 -360 -112 -485 -306 -155 -240 -265 -763
-265 -1270 -1 -475 -40 -666 -192 -951 -139 -258 -279 -444 -406 -537 -42 -31
-111 -84 -152 -118 -127 -106 -187 -139 -294 -165 -86 -20 -112 -22 -253 -18
-166 6 -370 42 -423 75 -138 86 -396 360 -525 557 -160 245 -197 331 -245 589
-55 294 -38 464 82 822 130 390 254 544 598 745 41 24 116 68 165 99 50 30
164 95 255 144 184 99 280 167 369 263 199 212 303 512 273 788 -22 203 -88
358 -238 556 -227 301 -481 501 -1029 812 -82 47 -247 143 -365 215 -118 71
-271 160 -340 197 -69 38 -172 95 -230 126 -58 32 -139 74 -180 95 -41 21
-145 77 -230 125 -193 108 -495 268 -750 396 -107 53 -296 152 -420 219 -124
66 -290 152 -370 190 -80 38 -262 129 -405 202 -258 130 -478 234 -756 353
-79 35 -174 78 -211 96 -74 37 -89 40 -134 20z m299 -382 c299 -138 516 -255
777 -417 127 -79 438 -254 825 -465 66 -36 205 -114 308 -174 103 -60 252
-143 330 -184 317 -169 464 -253 725 -411 112 -68 283 -169 380 -225 201 -114
426 -260 522 -337 148 -118 330 -319 433 -476 15 -23 40 -81 57 -130 57 -169
36 -356 -57 -513 -53 -90 -171 -198 -289 -267 -300 -174 -648 -389 -731 -451
-262 -196 -415 -432 -567 -875 -85 -249 -118 -569 -81 -774 9 -44 25 -134 36
-199 36 -205 103 -369 239 -581 116 -182 194 -279 345 -434 284 -290 522 -447
942 -616 45 -18 101 -46 125 -62 24 -17 66 -43 95 -59 l52 -29 30 29 30 29
145 -17 c177 -20 253 -20 376 -1 197 29 308 79 492 218 68 51 159 118 203 148
242 165 519 557 659 932 77 206 94 318 106 692 13 428 43 657 116 908 48 164
68 213 116 284 54 80 93 99 200 96 319 -6 670 -111 1051 -314 93 -50 243 -125
335 -168 347 -163 1220 -652 1802 -1011 159 -98 484 -290 805 -475 127 -73
307 -183 400 -244 94 -62 200 -126 238 -144 37 -17 67 -35 67 -40 0 -4 -78
-128 -174 -275 -95 -147 -208 -325 -251 -397 -42 -71 -128 -211 -190 -310
-152 -243 -231 -383 -451 -792 -103 -191 -223 -413 -266 -493 -66 -121 -306
-592 -461 -904 -85 -171 -169 -432 -214 -665 -23 -119 -26 -163 -27 -346 -1
-230 9 -304 64 -485 54 -175 110 -269 252 -421 89 -96 243 -209 388 -287 90
-49 156 -75 268 -107 46 -14 102 -38 126 -55 41 -30 43 -30 77 -16 30 13 48
13 134 1 55 -8 206 -23 335 -35 458 -41 761 -94 1039 -179 180 -56 294 -100
366 -141 97 -55 304 -297 373 -435 41 -82 106 -273 128 -376 25 -121 23 -310
-5 -469 -52 -288 -93 -425 -192 -648 -112 -250 -261 -494 -386 -631 -109 -121
-416 -346 -568 -416 -38 -18 -122 -50 -185 -71 -98 -32 -131 -38 -228 -42
-238 -9 -498 70 -705 214 -209 146 -367 290 -522 478 -276 334 -773 864 -910
971 -164 128 -348 231 -523 293 -71 25 -88 27 -232 26 -134 0 -169 -4 -255
-26 -148 -39 -265 -82 -404 -149 -264 -126 -371 -206 -646 -483 -370 -372
-436 -472 -716 -1084 -11 -24 -60 -114 -108 -200 -48 -86 -132 -242 -186 -347
-54 -104 -143 -268 -198 -365 -55 -96 -159 -292 -232 -435 -126 -249 -163
-329 -351 -762 -46 -105 -101 -227 -122 -270 -21 -43 -49 -106 -62 -140 -12
-35 -23 -63 -25 -63 -1 0 -44 17 -96 38 -82 34 -218 93 -747 329 -67 30 -269
126 -447 214 -179 87 -328 159 -331 159 -3 0 -130 62 -283 139 -327 164 -472
247 -1016 584 -403 249 -759 512 -1082 801 -182 163 -235 220 -322 349 -90
135 -133 219 -168 333 -23 78 -27 106 -27 224 -1 237 53 390 181 510 102 97
485 380 789 585 431 291 728 580 868 845 78 147 131 349 142 535 11 186 -45
470 -147 743 -144 385 -347 660 -628 852 -83 56 -411 240 -571 320 -219 110
-439 184 -620 209 -208 28 -291 23 -500 -29 -326 -82 -534 -190 -809 -420 -96
-80 -351 -362 -417 -461 -120 -180 -206 -382 -295 -694 -89 -315 -132 -527
-178 -892 -33 -256 -47 -323 -92 -463 -65 -197 -130 -288 -273 -382 -115 -75
-199 -102 -321 -102 -261 2 -763 201 -1313 523 -505 295 -1016 630 -1412 925
-74 56 -218 156 -320 223 -102 67 -227 153 -279 190 -236 170 -228 166 -263
154 -45 -16 -87 -13 -136 9 -44 20 -180 111 -342 230 -115 84 -203 138 -332
202 -54 27 -98 54 -98 61 0 7 26 60 59 117 166 297 340 605 436 770 60 102
156 268 215 370 59 102 153 259 210 350 373 596 531 884 804 1462 179 380 269
610 350 898 48 172 58 235 59 380 2 170 -35 315 -121 484 -58 114 -101 167
-214 267 -112 97 -202 158 -323 215 -148 69 -185 74 -582 74 -385 0 -423 4
-743 69 -369 75 -523 117 -635 174 -86 43 -238 170 -416 347 -153 152 -200
205 -259 295 -177 269 -252 493 -253 750 -1 137 10 214 59 409 60 240 141 423
281 636 150 227 334 444 456 536 84 64 233 134 412 193 173 57 275 80 395 88
168 11 269 -28 510 -198 379 -266 601 -471 921 -849 26 -30 102 -120 169 -200
149 -176 309 -336 410 -411 114 -85 337 -232 410 -272 273 -146 582 -153 938
-21 187 70 312 156 515 352 216 211 370 394 534 637 139 205 489 775 634 1032
83 146 274 537 339 693 24 58 126 269 226 470 296 595 490 1010 547 1173 4 9
11 17 17 17 6 0 66 -25 133 -56z m4841 -2884 c91 -120 108 -148 141 -240 42
-114 46 -239 12 -357 -14 -50 -43 -119 -63 -154 -56 -97 -170 -203 -299 -278
-263 -154 -632 -380 -710 -436 -140 -100 -281 -253 -365 -395 -124 -211 -257
-565 -290 -771 -18 -115 -28 -322 -20 -404 8 -84 53 -339 72 -415 7 -25 29
-90 50 -144 21 -55 36 -101 35 -102 -7 -7 -118 141 -189 253 -150 236 -177
306 -229 585 -31 171 -31 174 -20 318 6 80 20 181 30 225 30 121 118 379 162
474 82 176 203 322 346 419 86 58 487 294 572 337 218 109 395 258 499 418
153 234 198 531 127 817 -6 22 -2 20 30 -15 20 -22 69 -83 109 -135z m-13041
-1041 c-13 -71 -17 -146 -17 -304 0 -204 1 -214 32 -333 55 -214 156 -432 291
-631 84 -123 397 -445 555 -570 229 -181 346 -225 976 -370 316 -72 326 -73
740 -80 l375 -6 77 -37 c42 -20 93 -47 112 -61 76 -51 188 -154 222 -203 30
-43 94 -205 94 -238 0 -5 -15 4 -32 21 -89 85 -418 259 -578 306 -237 69 -419
94 -745 102 -429 11 -662 49 -860 140 -124 57 -320 192 -445 308 -25 23 -98
91 -163 151 -221 204 -388 417 -494 631 -157 316 -182 388 -208 600 -17 140
-10 292 21 455 16 84 55 222 61 216 2 -2 -4 -46 -14 -97z m20243 -3014 c60
-39 136 -82 167 -95 35 -15 55 -30 52 -38 -2 -6 -64 -103 -136 -215 -129 -197
-173 -267 -395 -627 -263 -428 -287 -470 -694 -1225 -131 -241 -580 -1123
-615 -1205 -77 -182 -153 -458 -180 -650 -31 -224 -17 -500 33 -682 11 -38 15
-68 11 -68 -16 0 -162 144 -205 202 -69 95 -130 316 -141 511 -10 199 37 465
133 752 20 61 80 198 134 305 53 107 150 306 214 442 64 136 131 275 150 310
18 35 85 164 148 288 234 457 417 799 643 1200 23 41 68 125 100 185 32 61
120 214 195 340 75 127 156 263 179 303 l43 73 26 -17 c15 -10 77 -50 138 -89z
m-11107 -3701 c60 -12 79 -20 65 -25 -10 -4 -79 -26 -153 -50 -215 -68 -432
-190 -625 -354 -113 -96 -369 -376 -435 -476 -108 -162 -209 -391 -274 -619
-105 -368 -153 -593 -192 -910 -36 -285 -51 -368 -92 -495 -74 -230 -147 -331
-309 -427 -86 -52 -204 -88 -284 -88 -47 0 -206 26 -223 37 -5 3 13 18 41 33
63 34 100 60 185 129 127 103 214 242 282 447 63 191 71 232 95 464 37 363 81
597 179 950 91 327 200 567 319 703 260 294 335 364 527 494 127 85 278 144
510 198 77 18 270 13 384 -11z m12585 -2577 c96 -124 135 -190 177 -303 72
-191 90 -273 96 -439 5 -132 2 -168 -21 -299 -30 -168 -57 -285 -92 -398 -28
-92 -126 -317 -195 -448 -67 -126 -224 -360 -293 -436 -90 -99 -398 -329 -533
-397 -28 -15 -114 -48 -190 -74 -133 -45 -143 -47 -273 -51 -74 -2 -146 1
-159 5 -21 9 -17 12 40 32 289 105 696 416 877 670 158 222 227 349 339 621
99 238 131 350 182 630 68 381 65 585 -14 875 -14 51 -25 96 -25 99 0 15 22
-8 84 -87z m-4689 -936 l30 -13 -35 -15 c-150 -66 -391 -195 -470 -251 -110
-78 -427 -384 -567 -547 -177 -206 -221 -279 -412 -685 -54 -113 -132 -268
-175 -345 -44 -77 -127 -233 -186 -346 -60 -113 -157 -293 -218 -400 -212
-376 -383 -729 -592 -1224 -23 -54 -63 -144 -89 -200 -26 -55 -58 -127 -71
-160 -13 -33 -25 -62 -26 -64 -5 -5 -343 135 -372 155 -3 1 31 56 175 284 79
125 172 305 269 520 110 242 287 601 375 755 96 172 500 973 601 1195 131 287
185 384 277 503 97 125 401 441 499 519 158 126 400 242 642 309 91 25 119 28
210 25 58 -1 119 -8 135 -15z"/>
<path d="M43919 60325 c-3 -2 -304 -11 -669 -20 -366 -8 -856 -20 -1090 -25
-234 -6 -659 -23 -945 -40 -286 -16 -578 -32 -650 -35 -71 -3 -301 -17 -510
-30 -209 -14 -517 -29 -685 -35 -172 -6 -405 -21 -535 -35 -126 -13 -318 -31
-425 -40 -269 -21 -364 -32 -515 -60 -159 -29 -250 -41 -425 -55 -168 -13
-183 -16 -208 -43 -45 -48 -68 -239 -77 -652 -6 -244 -13 -361 -51 -845 -9
-117 -19 -424 -24 -770 -5 -356 -14 -666 -25 -815 -25 -351 -11 -777 36 -1110
5 -38 29 -171 54 -295 24 -124 53 -277 64 -340 48 -282 124 -663 147 -745 91
-321 313 -574 645 -735 221 -107 423 -142 696 -122 353 25 527 61 963 197 243
76 287 90 510 158 305 93 536 144 759 168 164 17 429 7 509 -19 72 -23 229
-110 352 -193 76 -52 246 -210 284 -265 16 -23 66 -210 90 -342 16 -82 29
-254 41 -532 6 -135 5 -152 -19 -247 -49 -191 -117 -350 -201 -468 -69 -97
-397 -412 -495 -477 -285 -186 -508 -273 -725 -285 -71 -3 -121 0 -170 11 -38
8 -144 31 -234 50 -90 20 -194 45 -230 57 -168 55 -487 175 -596 224 -535 239
-660 288 -865 341 -411 107 -838 12 -1119 -250 -104 -96 -214 -219 -260 -291
-95 -144 -146 -387 -171 -805 -6 -96 -17 -274 -25 -395 -30 -456 -35 -584 -35
-912 -1 -186 -5 -421 -10 -523 -5 -102 -12 -345 -15 -540 -4 -195 -13 -440
-21 -545 -34 -429 -44 -621 -44 -835 0 -124 -5 -304 -11 -400 -6 -96 -14 -290
-18 -430 -8 -232 -10 -259 -30 -295 -26 -49 -26 -68 0 -123 21 -43 22 -53 16
-301 -3 -141 -13 -337 -22 -436 -8 -99 -20 -364 -25 -590 -6 -225 -14 -466
-19 -535 -6 -69 -15 -289 -21 -490 -12 -386 -31 -608 -80 -920 -16 -102 -40
-286 -55 -410 -33 -284 -39 -325 -81 -492 -44 -179 -75 -276 -136 -428 -139
-346 -250 -484 -484 -607 -172 -89 -252 -107 -454 -100 -166 6 -275 26 -458
85 -117 38 -374 179 -577 317 -387 264 -679 413 -925 474 -289 71 -649 65
-905 -16 -131 -41 -319 -157 -412 -254 -62 -65 -224 -271 -261 -332 -95 -157
-199 -483 -269 -842 -25 -132 -27 -156 -26 -415 0 -280 13 -452 53 -715 31
-201 48 -325 61 -435 23 -206 56 -297 183 -505 205 -338 545 -729 761 -875
127 -85 189 -116 346 -173 124 -45 251 -75 405 -96 184 -26 624 41 1004 151
130 37 521 190 690 270 208 97 550 217 810 283 96 25 116 27 230 21 240 -11
315 -22 367 -50 77 -43 155 -99 174 -126 20 -27 100 -296 118 -396 42 -226 60
-530 72 -1204 5 -311 14 -632 19 -715 6 -82 14 -400 20 -705 5 -305 14 -645
19 -755 6 -110 16 -364 21 -565 6 -201 13 -393 17 -427 l5 -63 -29 0 c-56 0
-808 60 -998 80 -104 11 -275 26 -380 35 -181 14 -293 20 -855 45 -135 6 -344
18 -465 26 -423 28 -838 10 -1395 -61 -315 -40 -488 -77 -760 -166 -324 -105
-710 -277 -885 -394 -168 -112 -283 -267 -354 -481 -52 -156 -65 -372 -31
-534 43 -201 231 -775 365 -1109 97 -243 136 -374 182 -610 23 -119 27 -162
27 -341 1 -191 -1 -210 -23 -275 -28 -81 -123 -255 -200 -365 -81 -115 -327
-371 -471 -491 -130 -108 -297 -176 -596 -243 -294 -66 -525 -91 -762 -84
-144 5 -165 8 -255 38 -145 49 -369 161 -395 198 -12 16 -43 43 -70 58 -114
67 -187 163 -311 412 -70 140 -110 252 -141 397 -28 125 -39 523 -21 685 28
235 127 523 384 1110 74 170 158 391 203 535 37 117 38 125 42 303 5 209 -8
345 -44 471 -84 296 -315 541 -594 629 -118 38 -429 92 -526 92 -29 0 -95 13
-148 30 -123 38 -317 75 -476 92 -83 9 -266 13 -540 13 -351 0 -451 -4 -645
-22 -388 -38 -617 -51 -940 -58 -170 -3 -436 -10 -590 -15 -154 -6 -487 -17
-740 -25 -253 -8 -494 -19 -535 -25 -124 -15 -356 -39 -505 -51 -77 -6 -155
-13 -173 -15 -43 -7 -107 -65 -124 -112 -10 -29 -13 -231 -13 -992 0 -1196 18
-1911 60 -2400 23 -257 17 -475 -21 -795 -17 -141 -75 -456 -100 -545 -43
-151 -127 -329 -250 -530 -109 -181 -157 -235 -244 -274 -149 -68 -342 -58
-734 39 -207 51 -234 61 -446 160 -421 197 -997 370 -1380 414 -357 42 -468
43 -677 7 -188 -33 -321 -81 -518 -187 -302 -163 -618 -478 -732 -729 -69
-152 -150 -480 -172 -700 -29 -279 15 -685 111 -1025 17 -60 32 -128 33 -150
2 -28 36 -109 113 -265 128 -260 141 -281 254 -421 46 -57 117 -153 157 -214
93 -140 124 -178 236 -295 50 -52 121 -130 159 -172 112 -128 294 -237 523
-315 160 -54 249 -55 558 -9 343 52 405 65 595 123 148 45 299 102 530 198
304 127 426 164 800 247 90 20 133 23 300 23 207 0 271 -9 423 -61 59 -20 249
-120 298 -157 42 -31 103 -204 154 -435 88 -401 95 -518 84 -1327 -4 -324 -5
-774 -2 -1000 4 -302 1 -501 -11 -755 -8 -190 -18 -399 -21 -465 -3 -66 -10
-277 -15 -470 -7 -260 -13 -368 -25 -419 -21 -90 -21 -140 -1 -171 11 -16 18
-57 22 -122 7 -136 52 -233 139 -298 109 -84 456 -103 1980 -111 1607 -9 2696
30 3540 126 465 52 708 139 898 320 131 124 272 326 331 474 80 199 74 408
-20 699 -50 152 -96 260 -226 522 -195 393 -308 678 -328 827 -16 118 -17 428
-1 508 22 112 204 615 267 743 81 160 407 428 690 567 340 167 862 249 1252
197 106 -14 114 -17 155 -52 231 -203 356 -389 471 -698 63 -171 81 -357 51
-533 -29 -168 -53 -238 -240 -693 -37 -91 -94 -243 -127 -339 -33 -96 -87
-241 -120 -321 -75 -183 -172 -451 -192 -528 -34 -132 -28 -286 18 -462 10
-39 11 -62 4 -82 -7 -19 -6 -45 1 -78 6 -27 19 -108 30 -180 31 -198 67 -280
204 -463 82 -110 284 -310 377 -374 312 -214 705 -312 1413 -355 257 -15 1018
-6 1247 15 91 9 296 20 455 26 504 18 845 41 1185 80 91 10 280 28 420 40 345
28 441 37 605 60 77 10 239 31 360 45 276 32 521 72 557 91 15 8 51 14 81 14
131 0 234 89 271 235 29 107 40 370 27 600 -17 287 -30 881 -30 1415 -1 594
-26 1042 -87 1580 -39 349 -31 556 32 838 114 507 316 780 690 929 296 117
436 117 899 -1 400 -101 591 -161 888 -277 324 -127 439 -164 672 -218 216
-51 293 -60 540 -68 274 -8 368 11 570 115 117 60 228 145 342 259 322 324
513 873 564 1623 33 493 -50 959 -241 1347 -80 165 -153 277 -285 438 -172
212 -275 311 -423 408 -156 103 -307 170 -434 193 -21 3 -62 25 -95 51 -188
146 -372 231 -583 270 -137 25 -575 25 -710 0 -350 -65 -611 -146 -961 -297
-365 -158 -651 -253 -944 -315 -321 -67 -441 -70 -593 -13 -99 37 -198 157
-335 408 -82 149 -150 360 -192 600 -14 80 -48 249 -75 377 -29 133 -54 282
-60 350 -12 150 -12 662 0 858 5 83 19 310 30 505 11 195 34 500 50 677 23
245 31 407 37 673 3 192 8 350 10 350 2 0 45 -6 96 -14 353 -56 920 -72 2362
-68 1423 4 1606 11 2185 83 439 54 605 97 875 223 98 46 350 212 456 300 81
66 170 179 274 346 197 314 247 526 214 906 -24 284 -158 688 -360 1084 -115
227 -184 376 -199 435 -7 28 -28 89 -46 136 -63 168 -132 557 -120 684 13 154
114 380 216 484 98 101 222 192 350 256 187 94 577 188 935 224 271 28 727 22
923 -11 77 -13 151 -60 303 -193 153 -134 260 -268 392 -491 84 -140 120 -238
147 -397 35 -210 29 -329 -26 -552 -74 -294 -133 -438 -360 -880 -171 -335
-220 -453 -290 -715 -35 -128 -43 -307 -20 -457 9 -59 23 -201 31 -314 18
-238 30 -294 90 -406 119 -225 303 -412 533 -540 135 -76 375 -136 640 -163
62 -6 305 -15 540 -20 235 -5 447 -12 472 -16 25 -3 288 0 585 7 417 9 2060
21 3130 22 241 0 1285 19 1540 27 154 5 345 16 425 25 299 31 621 46 1150 56
300 5 599 7 665 4 66 -3 236 -10 377 -15 330 -13 915 -63 1046 -90 131 -26
218 -58 372 -135 101 -51 143 -79 220 -148 109 -97 147 -141 213 -248 62 -99
67 -149 37 -348 -18 -123 -30 -170 -85 -315 -75 -204 -167 -413 -277 -631
-120 -239 -131 -271 -257 -735 -82 -303 -84 -313 -84 -480 -1 -165 12 -252 60
-404 23 -75 24 -83 12 -161 -15 -101 -7 -286 16 -370 24 -89 87 -216 141 -287
56 -73 260 -280 354 -358 138 -114 320 -216 586 -329 303 -128 355 -136 824
-135 307 0 338 2 560 32 308 41 463 73 640 132 80 26 199 63 265 81 119 33
141 43 500 228 384 198 612 439 880 929 112 204 165 379 165 543 0 110 -41
456 -71 603 -24 112 -87 336 -117 411 -11 28 -56 124 -100 215 -43 91 -94 203
-112 250 -18 47 -52 128 -75 180 -23 52 -46 106 -50 120 -4 14 -31 81 -61 150
-104 244 -127 486 -60 619 26 49 109 149 166 198 145 126 425 246 655 283 188
30 316 39 660 50 176 5 442 21 590 34 479 44 540 47 1220 57 369 5 729 13 800
18 72 6 240 15 375 21 135 6 326 17 425 25 99 8 236 17 305 20 219 10 484 25
528 31 54 7 105 50 126 107 13 37 43 202 61 337 3 25 15 151 25 280 11 129 26
303 34 385 59 584 86 1198 107 2392 11 627 10 704 -12 968 -18 220 -64 440
-142 675 -106 324 -222 479 -517 692 -168 122 -321 200 -452 232 -87 22 -107
31 -185 88 -118 85 -174 120 -263 162 -191 91 -379 105 -625 47 -256 -61 -323
-87 -820 -326 -523 -251 -620 -286 -940 -339 -256 -43 -340 -48 -538 -34
l-178 12 -58 61 c-229 235 -294 339 -396 629 -73 209 -86 286 -92 551 -5 224
-4 235 26 407 37 212 86 368 149 478 67 115 365 511 445 591 85 85 228 193
332 251 229 126 422 163 845 162 362 0 506 -23 913 -144 237 -70 304 -95 492
-185 299 -143 570 -247 707 -271 202 -35 433 21 602 145 100 74 217 230 291
386 175 372 262 794 312 1520 24 364 25 1951 0 2395 -9 168 -21 404 -27 525
-13 273 -30 411 -80 670 -37 190 -39 206 -25 239 48 115 -31 242 -155 248 -25
1 -142 -2 -261 -7 l-216 -8 -6 23 c-3 13 0 35 7 49 37 73 25 144 -33 202 -52
53 -86 59 -264 49 -83 -5 -261 -9 -394 -10 -135 0 -300 -6 -375 -14 -73 -8
-221 -19 -328 -26 -107 -6 -260 -15 -340 -20 -331 -22 -737 -30 -1015 -20
-154 5 -491 16 -750 24 -258 9 -531 18 -605 21 -149 7 -669 67 -794 91 -158
32 -168 37 -239 122 -114 138 -162 234 -178 362 -14 112 4 182 96 386 146 323
230 472 394 699 113 157 179 260 243 381 34 66 97 176 139 245 98 160 124 212
193 386 69 174 86 250 93 418 6 143 -7 241 -53 389 -27 84 -148 329 -210 422
-48 72 -165 205 -251 284 -124 115 -332 223 -517 271 -60 15 -91 30 -125 58
-101 84 -249 168 -379 215 -154 55 -551 142 -797 175 -268 36 -421 44 -735 38
-318 -6 -494 -22 -780 -72 -116 -20 -333 -75 -437 -111 -97 -33 -326 -148
-429 -215 -107 -70 -275 -242 -357 -365 -157 -236 -271 -573 -312 -920 -17
-149 -20 -451 -4 -574 38 -303 224 -936 375 -1278 131 -295 202 -568 192 -742
-9 -157 -87 -275 -247 -374 -310 -192 -612 -268 -1251 -317 -74 -5 -439 -14
-810 -19 -742 -10 -1198 -23 -1450 -41 -172 -12 -995 -8 -1008 6 -13 13 -7
674 7 775 16 115 31 1353 20 1645 -32 819 -69 1186 -173 1690 -71 341 -113
467 -221 650 -81 138 -138 210 -261 332 -177 175 -377 324 -559 415 -88 45
-108 52 -209 73 -46 10 -84 27 -115 49 -199 145 -343 222 -481 257 -80 20
-120 24 -250 24 -147 0 -160 -2 -255 -32 -206 -66 -377 -167 -795 -468 -360
-259 -491 -327 -748 -393 -100 -25 -121 -27 -327 -27 -277 0 -316 8 -378 74
-196 209 -307 479 -367 893 -62 421 -22 734 151 1182 95 245 179 388 357 610
114 141 197 213 310 267 91 44 260 91 390 110 176 25 525 -4 777 -65 156 -38
753 -263 990 -373 238 -111 414 -163 555 -163 234 0 594 107 759 225 79 57
187 201 275 366 98 184 126 276 182 607 19 114 41 243 50 287 16 89 47 359 64
560 6 72 15 375 20 675 21 1184 29 1558 35 1635 8 97 -7 362 -54 1000 -6 72
-13 220 -16 330 -17 520 -106 687 -359 668 -40 -3 -125 0 -189 7 l-115 12 -12
46 c-21 86 -52 142 -101 186 -60 54 -113 68 -224 61 -47 -3 -131 2 -205 12
-103 14 -223 17 -690 18 -311 1 -693 7 -850 13 -343 15 -1603 29 -1855 21
-224 -7 -1682 7 -2100 21 -303 10 -2047 15 -2056 5z m901 -375 c410 -5 923
-17 1140 -25 469 -18 1759 -33 2120 -25 140 3 363 2 495 -2 435 -12 2178 -13
2315 0 69 7 252 16 407 22 155 5 300 12 322 16 l39 6 16 -72 c19 -84 31 -230
46 -575 6 -137 17 -322 26 -410 42 -449 42 -463 33 -1160 -5 -368 -14 -708
-19 -755 -6 -47 -14 -335 -19 -640 -10 -628 -11 -637 -111 -1165 -54 -286 -73
-355 -127 -475 -42 -92 -153 -259 -199 -300 -69 -61 -226 -119 -403 -151 -207
-37 -282 -21 -595 131 -272 133 -769 326 -971 378 -299 77 -523 106 -765 99
-203 -6 -296 -21 -475 -77 -261 -83 -438 -213 -637 -470 -204 -264 -314 -463
-416 -750 -150 -420 -189 -771 -136 -1205 21 -168 98 -544 134 -656 111 -339
393 -667 720 -838 137 -71 383 -144 598 -176 198 -30 482 -16 680 34 310 79
415 134 967 513 370 254 534 332 694 330 138 -1 223 -34 390 -149 287 -198
451 -374 561 -605 52 -110 79 -206 131 -478 74 -383 101 -601 124 -970 8 -140
20 -318 26 -395 16 -228 31 -1455 19 -1645 -6 -91 -15 -319 -20 -507 -5 -188
-14 -427 -20 -530 -5 -103 -10 -194 -10 -202 0 -15 -17 -15 -600 8 -305 11
-2414 5 -2715 -8 -137 -6 -322 -16 -410 -21 -88 -5 -263 -14 -390 -20 -423
-19 -769 -55 -1025 -106 -304 -61 -552 -185 -693 -347 -124 -142 -178 -248
-233 -457 -67 -253 -17 -647 140 -1105 412 -1207 436 -1293 436 -1555 -1 -274
-96 -638 -233 -882 -45 -81 -163 -216 -274 -313 -161 -141 -466 -266 -858
-351 -163 -35 -499 -45 -675 -20 -490 71 -777 183 -1016 394 -127 113 -299
297 -346 372 -53 82 -134 245 -158 314 -33 97 -25 207 30 429 12 45 30 111 42
147 33 106 159 353 268 529 288 464 391 680 421 883 18 127 6 371 -24 493 -65
256 -186 443 -395 610 -157 127 -261 187 -517 301 -340 151 -558 226 -840 289
-293 65 -733 103 -1365 115 -234 5 -481 14 -550 20 -69 6 -368 12 -665 13
-497 1 -556 0 -740 -21 -229 -25 -414 -37 -811 -53 -154 -6 -289 -11 -299 -12
-18 -2 -19 7 -16 173 1 96 6 254 11 350 5 96 10 315 10 485 1 171 5 373 10
450 4 77 15 250 24 385 15 245 30 763 46 1605 7 380 33 879 55 1075 3 25 10
126 15 225 17 290 55 516 101 608 12 23 73 95 137 159 97 98 128 123 196 158
106 53 215 80 351 87 96 5 123 2 216 -20 160 -39 329 -104 689 -264 179 -80
381 -166 450 -190 69 -25 181 -65 250 -90 69 -25 161 -53 205 -63 44 -10 150
-35 235 -54 223 -51 327 -61 469 -47 314 32 546 123 881 345 140 93 185 130
295 241 132 133 253 269 318 361 104 145 201 411 254 694 25 135 25 514 -1
650 -37 203 -89 417 -126 524 -21 61 -50 156 -63 211 -72 295 -196 503 -452
761 -247 249 -445 346 -795 389 -298 36 -385 33 -710 -26 -278 -51 -655 -155
-990 -274 -52 -18 -160 -57 -239 -85 -191 -67 -256 -84 -489 -126 -473 -84
-544 -71 -720 127 -103 116 -181 230 -254 374 -60 118 -83 184 -122 340 -36
147 -104 500 -121 634 -36 277 -37 733 -5 1121 5 63 10 293 10 510 0 409 10
695 35 1005 26 325 37 651 34 945 l-4 289 70 5 c361 27 544 37 805 46 168 6
346 15 395 20 50 6 275 14 500 20 226 5 480 14 565 20 640 40 1720 70 2785 78
567 5 1104 9 1195 10 91 1 500 -2 910 -8z m7481 -396 c18 -79 35 -290 49 -639
5 -126 20 -322 32 -435 22 -194 23 -243 22 -915 0 -502 -4 -747 -13 -835 -8
-72 -16 -356 -21 -675 -8 -662 -11 -681 -151 -1394 -12 -58 -32 -137 -46 -175
-68 -190 -198 -389 -288 -441 -111 -66 -378 -136 -517 -137 -43 0 -91 8 -133
22 -36 12 -65 23 -65 25 0 2 30 13 68 25 115 38 240 109 307 175 111 109 266
369 324 542 40 120 141 695 171 978 30 285 40 463 40 745 0 140 4 413 10 605
37 1397 37 1373 -15 2065 -8 102 -17 260 -21 351 l-7 167 89 7 c49 3 94 8 99
10 6 2 19 3 30 2 16 -2 23 -16 36 -73z m-11214 -5009 c277 -34 422 -105 610
-296 56 -57 121 -128 145 -158 l42 -54 -49 28 c-28 16 -78 46 -112 67 -180
112 -387 147 -713 118 -323 -29 -600 -98 -1045 -262 -615 -227 -856 -289
-1227 -319 -327 -27 -541 23 -779 180 -160 105 -284 242 -358 395 -43 88 -101
247 -101 277 0 6 35 -36 77 -93 92 -124 235 -270 322 -328 231 -155 414 -166
981 -60 218 41 295 62 480 133 593 227 1201 384 1495 386 61 1 165 -6 232 -14z
m7601 -51 c51 -4 92 -10 92 -13 0 -3 -37 -17 -82 -31 -98 -29 -225 -92 -312
-154 -131 -94 -381 -388 -502 -591 -157 -265 -294 -643 -351 -971 -13 -76 -17
-159 -17 -354 0 -256 10 -379 49 -560 8 -36 21 -103 30 -150 22 -114 51 -237
70 -290 21 -60 19 -64 -18 -36 -73 56 -215 244 -276 365 -75 148 -153 450
-182 699 -15 134 -6 468 15 582 53 279 204 681 326 870 96 147 228 312 314
393 121 113 312 191 556 226 143 21 175 23 288 15z m3480 -3822 c119 -160 178
-327 248 -706 105 -572 138 -989 155 -1961 12 -697 2 -1376 -27 -1852 l-6
-103 -116 0 -117 0 3 467 c2 348 7 527 21 698 16 191 19 336 20 855 0 344 -4
702 -9 795 -6 94 -17 298 -25 455 -17 330 -26 430 -61 670 -23 159 -125 695
-140 734 -12 31 5 15 54 -52z m7847 15 c77 -9 210 -27 295 -42 498 -84 705
-161 799 -295 30 -43 49 -60 65 -60 60 0 219 -254 293 -468 24 -68 27 -93 27
-212 1 -155 -8 -196 -71 -355 -50 -124 -116 -251 -202 -388 -32 -51 -84 -143
-114 -203 -31 -61 -86 -155 -123 -210 -224 -328 -302 -451 -372 -592 -106
-209 -204 -428 -238 -532 -27 -79 -29 -96 -29 -250 0 -146 3 -174 23 -240 28
-87 77 -188 140 -285 63 -98 249 -281 337 -332 155 -89 394 -213 460 -238 39
-14 89 -35 112 -45 81 -37 239 -69 488 -99 138 -17 302 -40 365 -51 85 -15
160 -20 285 -20 94 0 276 -4 405 -10 129 -5 429 -17 665 -25 237 -8 468 -17
515 -20 132 -8 884 24 1315 57 374 28 551 34 581 17 16 -8 27 -9 36 -2 7 6 92
13 189 16 l176 6 17 -77 c24 -113 44 -259 55 -412 38 -477 37 -2454 0 -3030
-41 -632 -93 -990 -184 -1265 -131 -395 -266 -574 -470 -624 -66 -17 -178 -15
-238 4 -134 41 -361 134 -577 238 -241 115 -324 144 -686 237 -260 67 -388 89
-592 100 -194 10 -519 -2 -672 -25 -118 -17 -311 -67 -408 -105 -80 -31 -256
-131 -342 -193 -75 -56 -217 -177 -261 -223 -99 -106 -379 -483 -470 -636 -98
-163 -162 -390 -205 -728 -54 -432 56 -1065 241 -1380 79 -134 278 -367 410
-481 106 -90 249 -190 340 -236 230 -117 615 -185 920 -163 294 21 522 61 752
130 187 57 409 148 927 379 200 90 291 122 436 154 159 35 254 40 244 13 -8
-21 9 -27 45 -16 49 14 113 -16 294 -137 249 -167 313 -250 407 -532 130 -392
144 -572 130 -1661 -9 -737 -33 -1389 -65 -1795 -32 -401 -36 -450 -40 -465
-2 -8 -11 -141 -20 -295 -15 -264 -38 -501 -50 -514 -3 -3 -223 -6 -488 -8
-265 -1 -608 -5 -762 -8 -154 -4 -595 -10 -980 -15 -709 -9 -827 -15 -1355
-65 -85 -8 -299 -19 -475 -25 -523 -17 -733 -43 -973 -121 -124 -41 -340 -144
-447 -214 -74 -48 -240 -215 -293 -292 -104 -155 -137 -319 -113 -569 15 -154
41 -264 91 -379 21 -49 59 -142 84 -205 104 -264 142 -354 226 -530 149 -314
208 -539 240 -917 17 -203 -13 -320 -136 -525 -305 -510 -553 -726 -949 -827
-385 -97 -952 -121 -1345 -55 -233 39 -497 122 -636 199 -112 63 -341 242
-386 302 -115 157 -179 390 -158 584 10 103 8 94 87 369 96 336 115 385 238
630 208 413 331 733 377 978 27 142 32 446 9 547 -76 341 -247 606 -526 815
-125 94 -346 198 -590 279 -305 101 -577 165 -960 226 -468 75 -744 93 -1115
76 -491 -24 -1022 -38 -1205 -33 -348 9 -1094 -24 -1510 -66 l-170 -18 -8 51
c-4 27 -10 298 -13 600 -6 561 3 976 31 1420 8 127 19 349 25 495 19 489 39
659 159 1330 47 261 91 430 157 596 78 200 131 289 270 454 134 159 251 239
414 282 114 29 262 12 505 -59 178 -51 287 -99 750 -330 474 -235 592 -286
841 -358 455 -133 805 -87 1174 155 124 81 258 216 395 400 166 222 237 336
349 560 170 343 227 592 227 990 0 428 -76 734 -291 1175 -242 496 -535 805
-956 1010 -240 117 -571 171 -894 146 -235 -19 -317 -38 -605 -143 -124 -46
-267 -111 -530 -244 -438 -221 -581 -283 -840 -363 -274 -84 -357 -96 -448
-65 -97 33 -256 218 -343 400 -86 180 -247 717 -279 930 -26 177 -34 358 -46
1029 -12 706 -9 999 15 1315 20 275 36 686 36 952 0 208 14 578 25 664 l6 41
97 7 c53 4 373 13 712 22 1130 27 1259 32 1455 53 430 47 691 61 1130 61 860
1 1276 46 1664 182 98 34 284 128 382 194 88 58 194 173 247 266 122 216 138
417 58 743 -49 199 -88 317 -166 495 -69 160 -186 500 -264 770 -48 169 -80
337 -97 518 -31 331 55 785 202 1060 163 306 468 507 919 606 121 26 436 71
598 86 145 12 636 4 797 -13z m1919 -847 c42 -62 106 -189 147 -293 11 -26 26
-92 35 -145 29 -175 -3 -329 -115 -567 -32 -66 -92 -176 -133 -245 -42 -69
-107 -185 -145 -257 -38 -71 -115 -195 -170 -274 -212 -303 -313 -481 -451
-791 -112 -254 -135 -333 -136 -478 -1 -63 2 -135 6 -160 l8 -45 -46 50 c-117
126 -182 261 -191 394 -7 113 5 168 74 321 158 355 242 500 500 871 49 69 119
183 157 255 38 71 98 176 134 234 80 130 148 264 201 398 108 269 123 477 57
739 -14 56 -26 105 -26 110 0 11 42 -41 94 -117z m-10331 -4195 c164 -4 300
-11 302 -15 2 -3 0 -35 -5 -71 -16 -117 -41 -451 -50 -679 -15 -357 -28 -594
-51 -895 -20 -260 -21 -330 -16 -1001 4 -396 11 -770 16 -830 6 -60 15 -172
22 -249 20 -257 41 -359 143 -710 141 -482 215 -665 355 -875 114 -171 213
-268 351 -343 93 -51 164 -67 300 -67 136 0 193 9 350 55 63 18 153 43 200 55
244 62 488 159 830 330 337 169 651 289 824 317 141 23 421 23 543 0 307 -58
580 -216 780 -452 121 -143 194 -254 277 -422 189 -379 251 -632 250 -1023 -1
-317 -48 -517 -189 -800 -84 -171 -151 -276 -308 -486 -161 -215 -248 -293
-420 -374 -126 -60 -191 -74 -347 -75 -149 0 -219 13 -405 72 -184 59 -298
109 -575 251 -623 319 -706 358 -846 405 -256 84 -467 122 -646 114 -139 -5
-215 -26 -373 -101 -167 -79 -276 -169 -414 -341 -266 -331 -399 -671 -506
-1294 -24 -141 -49 -281 -55 -311 -45 -232 -85 -656 -100 -1060 -6 -157 -17
-382 -25 -500 -27 -419 -39 -1104 -27 -1495 7 -198 17 -408 23 -468 7 -59 10
-109 8 -111 -10 -10 -1259 -31 -1819 -31 -844 0 -1458 21 -1930 65 -113 11
-266 24 -340 30 -327 26 -753 95 -930 151 -175 56 -451 209 -543 301 -76 77
-124 214 -113 328 16 179 91 381 373 1015 127 284 163 377 218 565 91 311 110
425 102 603 -9 199 -59 423 -126 572 -34 74 -137 248 -221 375 -197 294 -552
559 -925 689 -96 34 -311 90 -440 115 -376 72 -732 70 -1335 -9 -340 -44 -568
-126 -810 -289 -435 -295 -621 -554 -722 -1006 -30 -136 -32 -368 -5 -500 49
-232 176 -575 304 -820 148 -282 313 -627 313 -654 0 -2 27 -68 60 -145 78
-184 91 -231 99 -365 11 -164 1 -241 -54 -381 -64 -168 -115 -252 -204 -340
-132 -128 -205 -177 -366 -239 -179 -69 -353 -103 -685 -136 -113 -11 -262
-27 -332 -35 -70 -8 -281 -26 -470 -40 -315 -23 -408 -25 -1103 -27 -759 -2
-760 -2 -1035 25 -151 14 -410 33 -575 42 -260 13 -435 26 -730 54 l-70 6 -6
560 c-14 1130 -28 1926 -39 2145 -7 128 -9 307 -6 415 11 331 -17 934 -59
1266 -29 228 -81 424 -176 663 -81 204 -117 269 -209 379 -143 171 -311 284
-533 359 -80 27 -105 30 -197 30 -112 -1 -296 -22 -407 -48 -138 -31 -413
-118 -598 -189 -104 -40 -219 -82 -255 -95 -36 -12 -153 -57 -260 -100 -388
-154 -652 -229 -897 -255 -266 -28 -408 -16 -609 50 -195 64 -264 107 -511
313 -180 151 -237 221 -326 398 -168 335 -206 521 -214 1054 -6 361 -4 380 64
645 48 190 114 379 173 500 52 107 167 251 279 348 210 183 596 221 1001 101
63 -19 142 -48 175 -64 100 -49 370 -210 540 -322 282 -187 550 -320 770 -383
225 -65 527 -89 705 -56 342 62 693 296 867 576 115 185 237 483 323 785 58
208 62 228 125 710 13 102 38 264 54 360 51 298 70 483 81 775 11 285 20 450
45 815 8 113 15 261 15 330 0 166 16 466 36 675 9 94 19 262 22 375 l7 205
430 2 c238 1 564 10 730 19 250 13 342 14 550 5 138 -6 367 -16 510 -21 143
-6 332 -17 420 -26 88 -8 306 -19 485 -24 319 -9 392 -14 667 -45 534 -60 885
-163 1438 -424 227 -107 429 -278 499 -421 77 -160 102 -348 68 -514 -29 -136
-102 -284 -332 -666 -169 -280 -282 -530 -333 -735 -74 -294 -83 -537 -26
-702 33 -96 138 -300 212 -412 93 -140 446 -497 577 -583 273 -180 558 -278
1060 -364 149 -25 514 -30 675 -10 340 44 683 146 935 277 233 122 523 415
637 644 104 208 201 540 230 785 32 276 3 565 -86 865 -29 97 -220 664 -316
935 -122 349 -177 580 -191 809 -5 83 -2 109 21 196 36 139 62 191 135 269 76
80 148 125 278 170 273 94 565 125 1592 166 151 6 345 14 430 18 215 10 2558
7 2923 -3z m15485 -262 c36 -193 51 -377 63 -778 22 -726 13 -2273 -15 -2650
-44 -592 -92 -937 -163 -1175 -35 -117 -96 -277 -140 -363 -44 -88 -131 -206
-181 -245 -94 -75 -228 -110 -345 -92 -64 10 -142 34 -160 50 -5 4 16 24 47
45 105 69 217 208 295 364 198 392 287 835 336 1656 17 294 21 1764 5 2085 -6
107 -17 339 -25 515 -19 409 -31 565 -51 667 l-5 27 108 4 c59 1 131 4 158 5
l50 2 23 -117z m-3423 -4743 c-11 -4 -63 -18 -115 -30 -311 -72 -573 -222
-815 -465 -149 -148 -453 -560 -532 -720 -73 -147 -127 -344 -164 -599 -18
-130 -21 -180 -16 -380 3 -163 11 -269 25 -361 19 -121 77 -365 102 -430 6
-15 9 -30 7 -32 -5 -4 -115 118 -174 194 -85 108 -204 406 -250 623 -25 115
-27 144 -27 360 0 224 1 243 32 398 30 155 67 283 110 382 25 59 103 173 277
405 152 202 197 253 309 344 239 194 453 281 761 310 119 11 496 12 470 1z
m-27404 -3046 c83 -25 243 -111 299 -161 28 -25 49 -47 47 -49 -2 -2 -62 3
-133 12 -88 11 -173 15 -269 11 -123 -4 -155 -9 -260 -40 -262 -78 -536 -183
-810 -309 -293 -136 -551 -243 -667 -277 -233 -69 -567 -136 -728 -146 -315
-19 -721 126 -948 339 -71 67 -253 263 -222 240 200 -153 289 -203 469 -263
271 -89 522 -100 896 -36 191 33 502 135 820 270 61 26 214 85 340 132 498
184 680 240 900 273 152 23 198 24 266 4z m30614 -761 c70 -85 111 -169 174
-359 113 -339 131 -515 131 -1298 -1 -988 -37 -1869 -105 -2571 -8 -82 -20
-242 -25 -355 -10 -194 -37 -479 -47 -490 -3 -3 -318 -8 -701 -12 -383 -4
-870 -9 -1082 -11 -397 -5 -382 0 60 22 140 6 338 18 440 27 102 8 277 19 390
24 354 17 486 27 506 38 29 16 72 64 83 95 26 69 68 386 86 652 3 50 13 149
21 220 24 223 54 601 64 815 6 113 14 291 20 395 32 616 46 2113 22 2320 -19
164 -67 406 -108 538 -11 35 17 15 71 -50z m-23288 -228 c-225 -115 -446 -300
-552 -464 -119 -183 -192 -387 -210 -583 -16 -172 60 -585 146 -790 17 -40 44
-111 61 -158 17 -47 96 -211 177 -365 80 -154 159 -309 175 -345 15 -36 50
-114 77 -175 55 -126 76 -189 120 -370 30 -122 32 -142 33 -320 1 -180 0 -195
-27 -280 -36 -118 -88 -223 -188 -375 -95 -147 -156 -208 -310 -316 -217 -153
-337 -214 -528 -269 -316 -91 -977 -162 -1716 -185 -835 -26 -3082 -9 -3290
25 -49 8 -93 14 -97 15 -10 0 -21 101 -12 110 5 4 41 4 79 0 143 -16 468 -40
735 -55 151 -9 347 -22 435 -30 88 -9 216 -21 285 -27 252 -23 1475 -5 1815
26 88 8 219 20 290 26 258 22 889 107 1054 142 223 47 481 159 631 272 92 69
317 295 391 391 57 74 164 265 189 339 49 137 66 422 34 572 -25 125 -41 172
-171 504 -45 114 -183 408 -235 497 -27 48 -63 112 -79 144 -50 101 -215 481
-238 550 -29 88 -61 258 -61 322 0 168 89 474 173 601 74 110 254 286 426 417
84 64 264 152 361 178 116 31 123 25 27 -24z m2541 -4313 c95 -64 342 -199
426 -233 120 -47 215 -73 391 -107 269 -52 471 -81 675 -97 107 -8 283 -23
390 -32 304 -26 2185 -32 2490 -8 191 15 244 16 468 4 301 -15 711 -4 1292 36
436 30 905 44 1515 45 248 0 617 7 820 15 656 26 744 28 910 16 245 -18 702
-80 885 -121 l85 -19 -155 7 c-244 11 -1367 6 -1655 -7 -325 -15 -475 -25
-790 -56 -137 -13 -320 -29 -405 -35 -289 -18 -1259 -34 -3135 -50 -544 -5
-1253 -14 -1575 -21 -445 -9 -646 -9 -840 0 -140 6 -376 11 -525 11 -376 0
-630 32 -804 103 -155 63 -363 249 -456 407 -54 91 -90 180 -74 180 5 0 36
-17 67 -38z m-11703 -311 c66 -6 233 -15 370 -21 646 -26 795 -36 1255 -80
313 -31 557 -51 855 -70 94 -6 184 -13 201 -16 l31 -4 7 -118 c10 -188 -26
-805 -69 -1164 -28 -235 -57 -541 -80 -863 -9 -121 -23 -301 -31 -400 -21
-248 -30 -860 -15 -996 7 -57 30 -194 51 -304 22 -110 53 -283 70 -385 48
-299 94 -449 200 -665 77 -157 224 -379 308 -464 171 -174 455 -263 739 -234
93 10 498 91 618 123 127 35 435 144 595 210 394 164 579 231 796 286 234 59
306 67 557 62 259 -6 332 -20 467 -89 166 -85 289 -193 445 -388 173 -218 246
-346 319 -562 55 -162 82 -287 101 -468 52 -489 -50 -1158 -236 -1540 -105
-217 -204 -337 -369 -448 -173 -116 -221 -128 -473 -120 -198 6 -296 21 -542
83 -148 37 -147 37 -560 209 -212 88 -289 114 -538 186 -806 230 -1128 235
-1562 24 -330 -160 -538 -368 -689 -687 -66 -138 -105 -253 -156 -451 -84
-332 -106 -627 -76 -1047 26 -369 45 -798 56 -1270 5 -239 15 -543 20 -675 6
-132 15 -359 20 -505 6 -146 17 -344 25 -440 9 -96 18 -274 21 -395 l5 -220
-29 -33 -29 -33 -134 -10 c-74 -5 -190 -16 -259 -25 -69 -8 -249 -19 -400 -24
-151 -5 -393 -14 -536 -21 -310 -14 -2008 -7 -2339 10 -115 6 -327 15 -470 21
-312 12 -441 30 -755 104 -389 93 -432 105 -515 145 -149 71 -293 209 -380
365 -74 133 -116 331 -95 446 14 76 86 282 177 505 36 88 96 252 133 365 37
113 104 297 149 408 173 434 231 654 231 887 0 238 -60 451 -208 742 -121 239
-267 417 -497 606 -286 235 -482 327 -815 380 -196 31 -565 30 -760 -2 -301
-49 -477 -96 -666 -177 -358 -152 -747 -438 -885 -649 -54 -82 -103 -199 -215
-505 -116 -320 -142 -424 -150 -590 -9 -190 10 -476 40 -585 48 -179 150 -423
317 -762 191 -389 251 -546 279 -727 25 -163 -36 -323 -203 -531 -93 -116
-193 -178 -371 -229 -237 -69 -421 -75 -2531 -81 -1530 -5 -2536 2 -2551 18
-11 11 52 1110 77 1342 13 113 19 614 21 1860 2 765 0 794 -78 1145 -85 382
-174 595 -337 810 -65 84 -184 207 -267 273 -84 67 -261 157 -405 205 -198 66
-469 90 -646 56 -187 -35 -567 -156 -899 -288 -142 -55 -584 -215 -740 -266
-210 -69 -272 -72 -626 -30 -218 26 -341 54 -448 101 -182 80 -328 199 -496
404 -67 82 -97 131 -166 273 -115 234 -164 388 -218 682 -62 341 -61 587 3
895 88 423 172 561 516 854 63 53 163 116 271 169 117 57 139 66 221 87 210
52 314 59 556 35 377 -38 587 -86 982 -225 240 -84 305 -111 493 -199 86 -40
189 -85 229 -99 85 -31 435 -110 580 -132 315 -47 575 11 737 164 105 98 229
285 349 526 120 240 143 308 191 560 108 565 132 925 120 1810 -4 341 -6 847
-3 1125 2 278 4 731 4 1007 l-1 503 31 4 c65 10 563 36 800 41 138 3 462 12
720 20 259 8 607 17 775 20 198 4 429 17 660 36 529 44 611 49 895 49 278 0
489 -12 650 -36 412 -61 786 -261 921 -492 74 -126 67 -380 -20 -670 -46 -151
-82 -228 -270 -563 -152 -273 -311 -640 -365 -841 -68 -252 -75 -552 -19 -778
85 -349 229 -585 568 -934 304 -313 412 -400 672 -535 365 -191 534 -241 819
-241 440 0 998 111 1293 257 130 64 260 167 442 348 240 239 343 377 481 640
144 276 157 592 44 1102 -37 170 -81 303 -177 541 -106 260 -279 770 -324 954
-37 150 -45 234 -31 330 22 159 83 290 176 376 154 144 777 400 1210 497 181
40 547 88 920 120 180 15 643 13 840 -4z m-6165 -144 c222 -97 383 -287 442
-523 20 -79 22 -115 23 -314 l0 -225 -43 -130 c-47 -139 -146 -386 -220 -550
-144 -318 -229 -537 -307 -785 -67 -214 -84 -354 -86 -686 0 -237 15 -384 57
-523 8 -29 14 -55 12 -57 -7 -6 -112 137 -157 212 -59 101 -105 214 -137 340
-25 98 -28 126 -28 279 0 153 3 181 28 280 61 237 186 521 413 932 52 95 116
223 143 286 158 373 208 801 122 1050 -47 138 -149 275 -288 386 -41 34 -69
61 -62 61 7 0 47 -15 88 -33z m35770 -123 c-14 -1 -95 -8 -180 -14 -85 -6
-222 -17 -305 -25 -251 -24 -446 -35 -755 -45 -528 -15 -795 -71 -1096 -229
-168 -89 -244 -143 -342 -246 -187 -196 -242 -322 -242 -565 0 -211 28 -365
94 -522 19 -46 58 -141 87 -213 120 -300 145 -359 229 -535 49 -102 104 -235
123 -295 60 -188 105 -443 114 -655 5 -119 3 -144 -16 -215 -29 -105 -81 -211
-185 -372 -210 -330 -373 -499 -541 -564 -40 -15 -101 -42 -136 -59 -34 -18
-124 -59 -198 -92 -75 -33 -192 -85 -261 -116 -131 -58 -306 -107 -492 -137
-57 -10 -233 -40 -393 -67 -271 -47 -304 -51 -505 -55 -126 -3 -251 -1 -302 5
-98 12 -224 56 -396 138 -201 95 -316 169 -429 278 -57 54 -102 101 -100 103
2 2 46 -19 98 -46 215 -113 594 -221 929 -266 161 -22 623 -31 775 -16 282 28
539 81 740 151 222 78 506 280 660 473 161 200 368 551 429 725 73 211 77 272
35 612 -47 389 -110 614 -259 924 -45 92 -103 223 -130 290 -54 134 -166 405
-199 479 -45 104 -77 300 -68 421 7 101 41 167 134 266 119 127 269 217 491
294 192 67 400 92 863 106 182 5 352 12 378 15 145 16 640 57 781 64 152 7
628 12 570 5z m-21479 -5798 c108 -161 183 -333 238 -549 101 -391 82 -955
-50 -1475 -106 -418 -270 -676 -535 -842 -133 -83 -196 -100 -368 -100 -156 1
-154 -2 -46 59 77 44 239 179 313 262 263 293 426 733 504 1359 22 182 25 654
5 800 -22 156 -60 323 -106 466 -27 83 -38 130 -30 123 8 -7 42 -53 75 -103z
m-3925 -2412 c16 -4 -4 -18 -90 -63 -364 -187 -569 -414 -717 -794 -82 -212
-157 -521 -179 -746 -14 -147 -12 -460 5 -711 24 -362 44 -852 55 -1345 5
-258 12 -497 15 -530 3 -33 12 -229 20 -435 8 -206 21 -454 29 -550 8 -96 17
-264 20 -374 l6 -198 -22 5 c-42 11 -844 -33 -1053 -58 -66 -8 -221 -21 -345
-30 -239 -16 -486 -39 -610 -55 -147 -20 -528 -50 -819 -65 -388 -20 -736 -43
-941 -61 -91 -8 -325 -17 -520 -21 -722 -12 -1247 41 -1549 157 -88 34 -257
142 -341 219 l-55 50 84 -34 c91 -36 120 -44 521 -136 308 -70 401 -84 640
-99 225 -13 1282 -14 1825 0 695 17 852 26 1363 79 106 12 276 27 377 36 102
8 231 21 287 30 242 35 373 47 523 49 120 2 169 6 196 18 92 40 157 138 180
271 17 96 17 477 1 902 -7 187 -15 617 -17 955 -4 750 -32 1277 -91 1715 -23
169 -29 376 -15 506 31 282 129 626 228 798 125 217 337 378 613 466 143 46
309 67 376 49z m-17186 -30 c47 -9 118 -26 158 -40 71 -24 258 -112 251 -119
-2 -1 -38 4 -79 13 -53 11 -134 15 -275 16 -221 0 -261 -6 -560 -84 -171 -45
-347 -109 -655 -240 -388 -164 -628 -236 -955 -284 -93 -14 -215 -32 -270 -41
-118 -17 -182 -10 -320 36 -100 34 -298 134 -355 179 -21 16 -49 45 -64 64
l-26 35 57 -20 c106 -36 449 -88 699 -105 163 -11 324 17 534 91 52 18 210 74
350 123 140 50 320 116 400 147 284 112 598 207 790 240 84 15 194 11 320 -11z
m8815 -863 l40 -7 -60 -8 c-100 -13 -289 -54 -399 -86 -314 -91 -649 -275
-908 -498 -208 -179 -258 -259 -393 -622 -191 -513 -199 -552 -192 -910 6
-260 12 -314 57 -462 37 -123 170 -430 300 -694 143 -290 196 -411 234 -535
45 -149 58 -290 35 -374 -41 -148 -204 -383 -325 -466 -39 -27 -48 -29 -99
-23 -54 7 -61 5 -183 -54 -70 -34 -152 -66 -182 -72 -30 -5 -64 -14 -75 -19
-31 -15 -441 -70 -645 -86 -102 -8 -198 -17 -215 -20 -93 -15 -425 -37 -740
-47 -436 -15 -3244 -13 -3521 2 -278 15 -314 26 -314 93 0 28 2 29 33 23 154
-33 1389 -44 2387 -22 415 9 834 14 930 10 196 -7 1203 11 1436 26 154 11 246
25 385 60 323 83 498 210 701 512 124 185 172 328 171 508 -2 235 -84 493
-291 906 -120 239 -265 572 -305 699 -14 44 -30 126 -36 183 -14 129 -14 367
0 452 11 74 66 243 164 505 94 253 123 309 201 393 130 142 414 348 600 437
214 103 500 175 813 205 92 9 330 4 396 -9z"/>
<path d="M19975 53693 c-27 -14 -57 -31 -65 -38 -8 -7 -47 -24 -85 -38 l-70
-25 -33 28 c-88 73 -197 64 -277 -24 -36 -40 -50 -47 -150 -76 -141 -40 -290
-100 -487 -194 -200 -96 -239 -112 -488 -203 -200 -74 -271 -104 -670 -292
-419 -198 -1161 -574 -1430 -726 -143 -81 -487 -312 -705 -474 -499 -371 -680
-604 -766 -984 -30 -133 -37 -347 -15 -457 43 -212 125 -373 305 -600 99 -125
165 -189 415 -405 224 -194 284 -241 591 -461 462 -332 644 -529 825 -899 112
-226 180 -472 180 -646 0 -86 -26 -232 -60 -339 -37 -115 -145 -319 -230 -433
-113 -151 -283 -319 -400 -396 -259 -170 -721 -349 -1020 -395 -208 -33 -360
-30 -550 9 -62 13 -68 17 -140 93 -146 153 -226 272 -315 470 -109 241 -154
383 -215 682 -22 107 -53 245 -70 305 -55 194 -72 276 -116 568 -60 403 -124
556 -329 794 -247 287 -409 394 -675 448 -79 16 -89 21 -150 74 -220 193 -437
264 -810 264 -231 -1 -305 -21 -730 -198 -74 -31 -206 -83 -293 -116 -273
-102 -367 -144 -770 -344 -616 -305 -992 -508 -1412 -760 -121 -73 -310 -185
-420 -250 -250 -147 -386 -236 -568 -369 -78 -57 -230 -159 -337 -226 -193
-122 -319 -212 -372 -265 -54 -54 -60 -137 -13 -193 13 -15 26 -44 30 -64 4
-20 30 -73 57 -119 115 -189 182 -308 279 -491 116 -220 208 -386 474 -853
104 -181 266 -481 360 -665 172 -335 193 -373 407 -765 132 -241 211 -412 331
-715 171 -431 197 -530 204 -785 4 -155 2 -194 -15 -277 -28 -132 -78 -232
-162 -317 -78 -79 -146 -117 -329 -182 -237 -85 -419 -121 -795 -154 -317 -28
-697 -116 -979 -227 -169 -66 -459 -211 -572 -286 -167 -111 -335 -283 -394
-405 -41 -82 -76 -225 -92 -370 -22 -198 9 -451 102 -827 93 -380 178 -618
296 -835 160 -292 306 -460 619 -711 230 -184 344 -250 601 -344 76 -27 140
-60 208 -106 54 -36 129 -81 166 -100 138 -69 382 -157 533 -191 102 -23 443
-24 541 -1 98 23 244 77 345 128 95 48 372 231 489 323 220 175 472 430 671
682 111 140 403 429 485 480 78 49 201 99 217 89 36 -23 137 -151 281 -359
585 -843 673 -981 927 -1455 115 -215 227 -417 335 -605 133 -230 352 -621
467 -833 141 -261 308 -541 477 -802 180 -278 191 -291 257 -297 42 -4 67 3
173 47 68 28 125 49 126 48 1 -2 55 -86 121 -187 127 -197 151 -221 220 -221
71 0 355 124 677 296 195 104 856 427 1232 602 279 129 1579 778 2090 1043
204 105 460 234 570 286 264 124 500 247 742 386 323 186 647 358 1203 639
289 146 644 328 790 403 237 124 1605 814 2145 1082 116 58 323 157 460 220
138 63 304 145 370 181 66 36 428 220 805 408 377 189 755 382 840 430 85 48
214 115 285 150 72 35 144 76 162 92 17 17 45 39 62 51 73 52 111 221 50 221
-15 0 -17 4 -10 23 5 13 14 67 21 120 14 116 7 162 -53 372 -33 114 -103 256
-272 555 -141 249 -440 795 -550 1005 -37 72 -103 189 -145 260 -297 499 -440
775 -701 1354 -73 161 -171 415 -208 540 -28 91 -51 221 -51 282 0 114 71 395
120 473 74 120 232 179 520 196 97 5 254 21 350 34 96 14 211 30 255 36 100
13 394 82 500 117 357 116 548 198 821 353 263 148 439 294 540 446 65 98 199
340 313 564 115 227 137 328 162 730 8 148 8 222 0 305 -42 400 -186 886 -354
1192 -119 217 -433 560 -687 751 -250 187 -393 265 -678 371 -294 110 -382
132 -737 181 -377 53 -612 42 -860 -41 -262 -88 -649 -328 -869 -539 -109
-105 -190 -212 -336 -445 -173 -276 -334 -519 -423 -637 -79 -107 -81 -108
-121 -108 -60 1 -135 35 -292 135 -177 113 -181 116 -317 268 -132 146 -332
428 -642 902 -76 116 -172 255 -215 310 -124 161 -215 301 -400 620 -51 88
-128 219 -170 290 -43 72 -108 184 -145 250 -103 182 -185 320 -320 535 -223
358 -442 755 -607 1099 -44 91 -99 207 -124 257 -48 100 -115 183 -168 208
-49 23 -112 19 -171 -11z m130 -450 c112 -263 459 -922 712 -1353 82 -140 176
-304 208 -365 56 -104 303 -540 423 -745 101 -172 257 -403 358 -530 114 -143
169 -219 304 -415 429 -625 645 -904 781 -1011 35 -28 115 -83 177 -123 61
-40 112 -76 112 -78 0 -13 -90 11 -161 41 -101 44 -282 153 -372 225 -97 77
-203 193 -362 391 -149 187 -226 289 -337 446 -42 60 -118 166 -170 236 -103
141 -164 239 -450 723 -218 369 -413 710 -508 890 -35 66 -87 158 -115 205
-230 379 -371 637 -531 970 -77 162 -173 359 -213 437 -39 79 -71 146 -71 150
0 7 118 58 141 62 4 0 37 -70 74 -156z m-541 -102 c17 -33 22 -51 15 -58 -8
-8 3 -29 34 -69 43 -56 123 -218 289 -584 90 -200 263 -545 382 -763 51 -95
126 -237 166 -317 85 -169 426 -795 595 -1090 188 -328 260 -446 361 -590 52
-74 142 -202 199 -285 291 -418 605 -781 790 -910 283 -198 536 -314 715 -329
128 -11 341 27 467 84 140 63 285 182 391 320 76 100 215 311 377 575 210 341
204 332 266 420 112 159 210 249 424 392 182 121 356 204 498 238 152 37 429
26 647 -26 155 -36 370 -126 553 -231 188 -107 436 -338 548 -510 116 -178
298 -573 363 -788 72 -237 81 -518 25 -806 -19 -103 -47 -181 -101 -289 -102
-201 -394 -482 -596 -572 -156 -69 -364 -126 -526 -143 -56 -6 -231 -24 -391
-41 -586 -60 -901 -132 -1178 -268 -148 -73 -255 -151 -409 -300 -143 -137
-203 -216 -267 -352 -54 -113 -128 -327 -157 -454 -29 -123 -27 -429 4 -585
32 -160 73 -319 147 -575 105 -360 112 -377 295 -755 76 -157 180 -377 233
-490 52 -113 127 -266 167 -340 225 -417 439 -832 480 -932 59 -144 165 -342
262 -489 139 -212 214 -344 275 -486 29 -68 53 -129 53 -134 0 -6 -33 -25 -72
-44 -40 -18 -140 -70 -223 -115 -158 -85 -205 -109 -585 -290 -284 -135 -887
-437 -1100 -550 -85 -45 -191 -99 -235 -119 -326 -152 -746 -359 -1065 -526
-381 -200 -593 -310 -894 -461 -159 -80 -382 -196 -495 -256 -113 -61 -325
-172 -471 -246 -146 -74 -346 -178 -445 -232 -174 -94 -529 -282 -995 -525
-123 -65 -264 -139 -312 -166 -148 -83 -598 -305 -775 -383 -92 -41 -375 -176
-628 -301 -253 -125 -593 -290 -755 -365 -162 -76 -405 -189 -540 -253 -135
-63 -378 -176 -540 -252 -719 -334 -1660 -795 -1878 -919 -35 -20 -67 -36 -70
-36 -14 0 -210 372 -537 1015 -103 203 -264 511 -358 685 -93 173 -244 455
-335 625 -231 435 -271 502 -497 840 -361 541 -601 877 -705 989 -227 244
-366 344 -550 399 -246 73 -413 90 -535 53 -94 -29 -290 -133 -368 -196 -104
-84 -349 -336 -457 -470 -50 -63 -108 -133 -128 -155 -21 -22 -75 -84 -121
-138 -96 -111 -306 -310 -420 -396 -125 -96 -361 -252 -416 -277 -254 -112
-475 -128 -738 -54 -268 75 -431 162 -657 348 -190 157 -287 260 -388 412
-132 198 -202 356 -281 634 -155 542 -197 839 -156 1096 22 134 50 189 145
281 102 99 210 171 407 268 209 104 302 140 534 206 222 64 398 96 653 120
219 20 433 54 587 94 134 34 357 115 450 161 289 146 474 406 524 740 18 112
19 378 4 505 -16 136 -68 326 -159 580 -142 400 -271 682 -511 1116 -61 112
-200 377 -309 589 -198 387 -287 547 -529 958 -72 123 -186 321 -252 440 -152
270 -246 432 -317 542 -40 62 -52 88 -45 99 5 8 92 65 194 126 101 60 254 156
339 211 184 120 368 225 700 402 135 72 328 178 430 237 271 155 1241 637
1635 813 55 24 192 79 305 121 113 43 318 123 455 179 138 56 277 108 310 117
95 26 271 30 405 11 213 -31 336 -113 531 -357 118 -148 139 -211 215 -649 29
-167 72 -352 129 -550 19 -69 54 -204 76 -300 77 -329 203 -657 344 -896 90
-151 279 -377 429 -512 129 -116 311 -217 509 -283 67 -23 133 -48 147 -57 14
-9 45 -16 70 -17 25 -1 88 -10 140 -21 76 -15 140 -19 320 -18 247 0 297 7
591 88 293 80 667 248 909 407 401 264 720 738 809 1199 43 229 38 379 -24
629 -59 236 -117 384 -243 619 -97 181 -199 317 -353 471 -157 157 -276 256
-468 388 -251 173 -412 298 -646 502 -247 215 -234 202 -357 366 -157 207
-205 339 -195 535 7 123 34 237 81 335 38 81 150 221 252 314 135 124 542 417
832 599 142 89 910 483 1252 642 85 40 272 127 415 195 158 75 362 161 520
220 143 53 350 140 460 192 110 52 241 112 290 133 155 65 289 119 302 119 7
1 24 -21 37 -48z m8180 -3646 c176 -222 251 -344 325 -532 137 -344 225 -686
246 -953 7 -87 -7 -350 -26 -495 -6 -44 -21 -111 -34 -150 -39 -116 -266 -511
-381 -664 -50 -67 -197 -184 -310 -247 -264 -148 -817 -372 -1129 -458 -230
-63 -552 -120 -780 -136 -210 -16 -353 -52 -503 -126 -175 -87 -273 -207 -343
-422 -52 -161 -88 -344 -89 -448 -1 -375 268 -1013 873 -2068 88 -154 176
-307 196 -340 21 -34 94 -177 164 -319 121 -246 356 -697 437 -837 209 -361
321 -642 305 -764 -7 -47 -14 -58 -90 -137 -49 -51 -85 -98 -89 -115 -6 -26
-29 -41 -204 -134 -209 -111 -285 -149 -667 -330 -230 -110 -907 -448 -990
-495 -66 -38 -349 -178 -514 -255 -232 -108 -608 -297 -1081 -545 -234 -122
-569 -295 -745 -383 -176 -89 -347 -176 -380 -195 -147 -81 -437 -233 -625
-327 -113 -56 -209 -106 -215 -110 -17 -13 -198 -110 -410 -220 -110 -57 -204
-106 -210 -110 -5 -4 -129 -70 -275 -145 -146 -76 -341 -179 -435 -230 -243
-132 -675 -347 -845 -420 -80 -35 -347 -163 -595 -285 -389 -192 -820 -400
-830 -400 -1 0 -112 -52 -246 -116 -134 -64 -354 -167 -489 -229 -795 -366
-1852 -878 -2133 -1033 -66 -36 -122 -61 -126 -56 -4 5 -22 34 -39 65 l-32 56
173 90 c94 50 244 125 332 168 556 269 802 387 970 465 218 100 1298 639 1776
886 461 237 677 346 894 449 216 103 407 204 715 380 331 189 557 308 1175
620 314 158 710 361 880 449 171 89 569 291 885 449 316 157 663 331 770 386
300 153 513 257 770 376 129 59 267 125 305 146 140 76 651 335 1110 563 259
129 540 273 625 321 85 48 214 116 287 151 207 101 303 197 303 303 0 27 -14
76 -39 134 -22 51 -47 117 -57 147 -41 129 -180 372 -361 635 -49 72 -118 197
-197 360 -68 138 -153 306 -191 375 -37 69 -101 188 -143 265 -41 77 -103 190
-137 250 -88 153 -565 1127 -615 1255 -46 118 -177 564 -208 710 -87 403 -66
609 94 933 44 90 91 145 188 223 180 145 291 207 496 276 196 66 354 90 860
128 146 11 301 22 345 26 238 18 556 104 753 203 205 103 420 283 573 481 274
352 382 714 366 1224 -8 257 -41 421 -134 668 -77 208 -224 512 -330 688 -39
66 -5 34 81 -75z m-14427 -1229 c135 -169 165 -243 218 -541 50 -282 88 -455
140 -640 25 -88 68 -252 95 -365 28 -113 62 -241 76 -285 27 -83 112 -303 124
-320 9 -13 20 -45 16 -45 -8 0 -117 140 -163 210 -84 126 -199 394 -259 604
-19 67 -50 198 -69 291 -18 94 -56 253 -83 355 -27 102 -61 259 -76 350 -44
274 -68 414 -73 427 -11 28 14 9 54 -41z m-2639 -9466 c50 -12 92 -25 92 -28
0 -4 -28 -23 -62 -42 -84 -47 -409 -365 -536 -525 -100 -126 -322 -379 -376
-429 -17 -16 -69 -65 -116 -109 -46 -44 -114 -103 -149 -131 -122 -96 -356
-255 -428 -290 -206 -102 -409 -134 -636 -99 -45 7 -40 13 28 38 168 61 505
273 705 444 221 189 413 390 637 666 104 129 371 392 445 439 32 20 90 50 130
67 84 34 115 34 266 -1z"/>
<path d="M45380 22470 c-124 -4 -299 -13 -390 -20 -91 -6 -345 -15 -565 -20
-491 -10 -633 -28 -770 -97 -79 -40 -123 -96 -146 -187 -8 -34 -19 -51 -39
-61 -61 -31 -61 -38 -70 -599 -5 -310 -4 -707 2 -1011 5 -275 11 -1695 12
-3155 2 -1707 7 -2812 14 -3095 20 -768 33 -1535 38 -2385 6 -986 18 -1625 38
-2045 8 -170 20 -422 26 -560 12 -288 24 -444 46 -638 13 -112 14 -146 4 -182
-10 -35 -9 -76 4 -216 23 -244 21 -235 73 -290 53 -57 70 -63 228 -85 147 -20
312 -22 1530 -11 1183 10 1423 19 2090 76 127 11 300 25 385 31 85 6 216 18
290 25 75 8 226 21 335 30 518 41 748 80 1107 189 63 19 123 33 134 30 40 -11
289 96 414 177 132 85 211 168 282 294 88 157 120 328 99 530 -20 181 -54 318
-201 790 -198 642 -225 764 -224 1045 1 250 22 358 114 562 83 185 264 407
470 577 250 206 392 284 635 346 255 65 523 68 950 9 61 -8 125 -20 144 -26
41 -13 237 -199 296 -283 116 -162 179 -413 154 -615 -13 -111 -35 -186 -97
-335 -55 -131 -276 -571 -427 -850 -198 -365 -268 -535 -314 -761 -34 -164
-35 -246 -12 -484 28 -278 44 -342 131 -515 146 -292 337 -487 597 -611 181
-86 462 -160 718 -188 336 -38 621 -66 762 -76 201 -13 1007 -33 1058 -26 22
3 456 11 965 16 927 10 1188 18 1420 45 810 92 1039 140 1266 266 206 114 259
184 320 427 37 144 42 189 69 612 9 135 22 305 30 378 11 96 15 255 15 565 0
568 14 1035 41 1392 22 279 22 306 10 730 -13 474 -9 589 29 775 67 333 197
518 449 645 101 50 204 75 315 75 105 0 122 -7 369 -144 176 -98 349 -185 457
-229 47 -20 139 -66 205 -102 317 -176 467 -237 680 -276 99 -18 154 -22 314
-21 239 2 318 12 545 68 562 140 882 317 1078 594 52 74 153 252 223 390 49
97 162 424 196 567 55 232 86 513 75 679 -13 194 -148 648 -260 879 -217 445
-574 773 -981 901 -96 30 -134 48 -224 108 -202 135 -369 207 -570 246 -222
43 -398 36 -780 -31 -525 -92 -554 -100 -861 -241 -207 -96 -613 -259 -750
-302 -111 -36 -222 -54 -370 -61 -139 -7 -132 -9 -192 65 -104 129 -167 421
-188 872 -6 122 -17 315 -26 428 -11 156 -14 347 -13 805 2 506 -1 658 -19
970 -11 204 -23 507 -26 675 -3 168 -11 368 -17 445 -7 77 -12 307 -13 510 -1
406 -1 401 -63 459 -56 52 -145 77 -303 87 -80 4 -171 11 -202 15 l-58 6 0 41
c0 104 -40 164 -139 209 -59 27 -82 31 -211 39 -80 4 -161 11 -180 13 -19 3
-280 15 -580 28 -629 26 -1011 28 -1655 10 -742 -21 -1326 -30 -1537 -24 -332
9 -804 -21 -1073 -68 -270 -47 -383 -85 -541 -180 -292 -177 -450 -350 -526
-576 -20 -61 -23 -88 -23 -234 1 -316 57 -488 351 -1080 154 -310 184 -377
311 -700 169 -428 196 -530 197 -755 1 -159 -16 -236 -80 -371 -41 -86 -134
-192 -229 -259 -78 -56 -330 -207 -418 -251 -486 -245 -904 -274 -1589 -108
-98 24 -157 43 -180 60 -60 44 -171 158 -223 229 -67 91 -223 341 -268 431
-106 208 -124 590 -40 844 43 130 331 717 453 925 121 205 185 352 213 486 51
242 17 467 -96 637 -67 101 -243 277 -336 337 -84 54 -211 109 -360 155 -77
23 -114 41 -154 73 -91 74 -123 95 -184 126 -168 86 -440 166 -723 215 -173
30 -794 99 -1075 121 -110 8 -218 17 -240 20 -222 28 -1503 51 -1945 35z m505
-285 c657 -11 1380 -67 2010 -155 116 -16 293 -41 395 -55 436 -61 740 -135
910 -220 136 -69 276 -214 320 -333 19 -50 21 -72 17 -182 -3 -109 -8 -136
-36 -211 -17 -47 -68 -150 -112 -230 -173 -312 -426 -851 -488 -1039 -45 -140
-62 -249 -68 -437 -11 -356 34 -543 197 -814 210 -349 330 -490 546 -645 257
-183 535 -314 829 -390 388 -100 593 -129 925 -129 248 0 326 8 517 51 149 34
410 145 609 259 449 257 605 423 718 765 48 147 60 240 53 439 -8 247 -41 371
-220 821 -117 295 -172 419 -339 756 -212 428 -267 579 -288 786 -16 165 5
234 106 354 42 50 192 159 304 222 180 101 639 151 1380 152 400 1 927 13
1600 37 272 10 646 17 830 16 340 -1 1456 -36 1466 -45 2 -3 -1 -80 -7 -172
-10 -130 -10 -232 0 -464 7 -163 14 -432 17 -597 4 -265 10 -410 40 -935 4
-69 8 -404 8 -745 1 -539 4 -662 24 -940 38 -546 59 -685 137 -922 65 -197
111 -277 230 -401 187 -196 399 -336 602 -399 87 -27 92 -28 358 -28 295 0
349 7 555 67 155 44 573 215 830 339 268 129 296 136 759 214 228 38 294 45
426 45 334 1 596 -139 859 -456 154 -185 228 -294 305 -449 87 -175 126 -272
186 -454 44 -136 47 -155 57 -305 10 -162 5 -385 -12 -548 -26 -254 -263 -737
-452 -920 -157 -153 -426 -275 -775 -352 -224 -49 -332 -59 -562 -53 -348 9
-399 30 -821 321 -101 70 -194 111 -329 146 -91 23 -94 24 -231 121 -203 143
-318 188 -555 220 -321 42 -703 -88 -934 -319 -182 -182 -244 -309 -327 -667
-25 -109 -28 -143 -32 -360 -2 -132 1 -376 7 -543 9 -251 9 -333 -3 -480 -34
-411 -38 -522 -46 -1227 -7 -636 -11 -765 -28 -915 -11 -96 -23 -240 -27 -320
-8 -166 -32 -499 -44 -609 -8 -68 -11 -77 -42 -102 -19 -15 -70 -42 -114 -60
-69 -27 -96 -32 -195 -37 -105 -4 -383 6 -775 27 -170 10 -1352 -2 -2134 -20
-529 -13 -1042 -4 -1226 22 -38 5 -180 21 -315 34 -291 31 -393 47 -486 79
-110 38 -173 69 -264 130 -107 73 -149 113 -211 200 -95 135 -116 245 -80 432
35 184 98 341 256 634 94 176 301 602 420 866 170 377 199 679 98 1014 -71
235 -160 376 -357 568 -370 359 -710 519 -1247 586 -288 36 -636 34 -839 -5
-93 -18 -326 -87 -405 -119 -137 -58 -343 -188 -493 -313 -413 -343 -644 -687
-729 -1083 -26 -121 -27 -145 -28 -379 0 -308 17 -437 94 -707 16 -57 50 -175
75 -264 25 -88 75 -257 111 -375 144 -468 163 -641 84 -808 -41 -90 -105 -147
-237 -214 -197 -101 -397 -155 -672 -181 -294 -29 -616 -56 -835 -71 -121 -8
-229 -18 -240 -21 -11 -3 -276 -10 -590 -14 -336 -6 -652 -16 -770 -25 -110
-8 -425 -20 -700 -25 -275 -5 -646 -13 -825 -18 -179 -4 -435 -8 -570 -7
l-245 0 -6 115 c-4 63 -7 327 -8 585 -1 259 -6 576 -11 705 -6 129 -15 865
-21 1635 -5 770 -15 1632 -21 1915 -6 296 -11 1723 -13 3360 -1 1921 -6 2954
-14 3180 -6 184 -16 666 -21 1070 -6 460 -14 770 -21 828 -11 81 -11 97 4 126
20 43 77 63 208 75 92 8 1499 5 2014 -4z m12721 -531 l82 -7 -2 -321 c-1 -421
20 -1241 40 -1531 11 -158 18 -475 24 -1010 4 -429 13 -827 18 -885 6 -58 16
-193 22 -300 13 -220 41 -442 70 -551 11 -41 20 -78 20 -84 0 -14 -86 73 -126
127 -38 51 -83 163 -114 286 -33 131 -49 276 -65 572 -8 157 -20 339 -27 405
-8 78 -12 365 -13 820 -1 536 -6 760 -18 955 -10 140 -22 440 -27 665 -5 226
-14 466 -20 535 -5 69 -10 171 -10 228 l0 102 33 0 c17 0 69 -3 113 -6z
m-8617 -330 c134 -124 181 -220 181 -369 0 -120 -28 -218 -108 -375 -560
-1099 -604 -1217 -605 -1635 0 -267 35 -444 123 -612 22 -41 40 -78 40 -81 0
-13 -48 40 -101 111 -66 88 -231 351 -278 442 -58 113 -82 228 -88 430 -9 274
10 353 167 690 117 253 231 475 338 659 184 317 242 506 230 741 -5 99 -8 99
101 -1z m13742 -5334 c53 -80 158 -287 210 -416 57 -143 120 -348 131 -429 15
-112 4 -627 -16 -720 -43 -203 -174 -487 -329 -712 -53 -78 -164 -189 -241
-242 -124 -85 -385 -187 -619 -240 -216 -50 -313 -61 -522 -61 -195 0 -274 8
-398 37 l-72 17 55 9 c123 19 498 119 627 168 276 103 458 213 599 362 84 87
107 121 206 292 121 209 156 287 228 504 118 357 153 551 154 851 l1 205 -43
165 c-35 134 -80 284 -120 400 -7 22 91 -103 149 -190z m-3950 -2016 c99 -19
124 -29 94 -40 -254 -88 -424 -202 -567 -383 -102 -128 -150 -242 -217 -519
-48 -195 -54 -335 -41 -850 9 -329 9 -476 1 -570 -33 -384 -50 -903 -51 -1563
0 -293 -4 -401 -19 -545 -11 -98 -22 -226 -26 -284 -21 -399 -27 -490 -42
-608 -16 -130 -17 -133 -52 -167 -72 -71 -184 -105 -346 -106 l-110 0 48 -15
c43 -13 64 -34 35 -34 -7 0 -87 -11 -178 -24 -91 -13 -201 -27 -245 -30 -44
-4 -210 -17 -370 -31 -247 -20 -401 -25 -1045 -35 -415 -6 -865 -16 -1000 -21
-402 -16 -1352 -23 -1565 -10 -746 43 -816 52 -1065 133 -154 50 -304 134
-379 212 -42 43 -37 45 31 8 80 -43 176 -79 285 -106 133 -34 189 -42 463 -66
129 -12 264 -25 300 -31 215 -30 904 -35 1450 -10 495 24 1152 36 1695 31 314
-3 716 -5 895 -5 313 0 328 1 400 24 154 48 303 131 368 206 45 50 90 143 106
218 7 34 23 98 34 142 19 74 30 190 58 650 3 50 12 153 21 230 8 77 16 201 17
275 8 991 18 1416 36 1655 11 143 22 296 26 340 3 44 1 192 -6 329 -16 359
-14 663 5 788 20 139 69 320 105 393 33 68 91 149 153 214 81 85 267 188 382
211 69 14 229 11 316 -6z m-8556 -1102 c-6 -5 -55 -23 -110 -40 -254 -79 -519
-251 -786 -510 -197 -190 -335 -366 -418 -530 -128 -254 -176 -471 -175 -797
0 -205 17 -355 59 -531 28 -119 169 -614 225 -794 104 -333 135 -485 127 -630
-6 -110 -23 -164 -74 -238 -54 -79 -181 -159 -363 -227 -41 -16 -82 -36 -90
-45 -18 -20 -86 -45 -295 -105 -178 -52 -348 -79 -730 -120 -132 -14 -330 -36
-440 -50 -308 -38 -964 -102 -1215 -119 -369 -26 -644 -36 -1265 -46 -325 -5
-814 -16 -1088 -24 -468 -14 -592 -12 -699 10 -25 5 -27 9 -33 90 -4 47 -6 86
-4 88 2 1 99 -2 214 -6 321 -13 1744 0 2010 19 125 8 481 19 825 23 333 5 643
13 690 19 47 5 157 15 245 20 88 6 257 20 375 31 118 10 277 24 354 30 325 25
665 117 886 238 152 83 255 168 324 266 102 143 145 273 153 461 9 203 -24
359 -187 892 -150 487 -158 514 -184 623 -79 335 -79 652 0 889 79 239 253
483 489 688 310 269 576 392 915 423 120 10 276 12 265 2z"/>
</g>
</svg>
