<?xml version="1.0" standalone="no"?>
<!DOCTYPE svg PUBLIC "-//W3C//DTD SVG 20010904//EN"
 "http://www.w3.org/TR/2001/REC-SVG-20010904/DTD/svg10.dtd">
<svg version="1.0" xmlns="http://www.w3.org/2000/svg"
 width="1522.000000pt" height="1526.000000pt" viewBox="0 0 1522.000000 1526.000000"
 preserveAspectRatio="xMidYMid meet">

<g transform="translate(0.000000,1526.000000) scale(0.100000,-0.100000)"
fill="#000000" stroke="none">
<path d="M2184 14830 c-6 -5 -27 -7 -172 -13 -51 -2 -95 0 -98 4 -2 4 -17 4
-33 -1 -16 -4 -238 -8 -494 -8 -583 0 -647 -5 -647 -49 0 -7 -8 -26 -17 -40
-20 -30 -21 -233 -9 -1983 8 -1257 8 -1290 -1 -1695 -9 -394 -10 -704 -4
-1060 2 -121 3 -303 3 -405 0 -102 -1 -194 -1 -205 1 -11 -1 -42 -4 -70 -16
-163 -25 -871 -14 -1160 23 -599 28 -1440 10 -1760 -6 -121 -11 -231 -11 -245
1 -14 0 -68 0 -120 -1 -52 -1 -102 -1 -110 1 -47 -13 -275 -16 -279 -3 -2 -1
-9 4 -15 5 -6 5 -40 0 -76 -4 -36 -5 -159 -2 -275 3 -115 4 -273 4 -350 -2
-120 -7 -896 -11 -1532 -1 -106 1 -196 4 -201 2 -4 0 -27 -5 -51 -7 -30 -6
-47 1 -56 6 -7 7 -16 2 -19 -10 -6 -17 -330 -15 -646 5 -507 -3 -1400 -12
-1560 -5 -73 -3 -155 5 -225 7 -60 13 -124 15 -141 1 -17 5 -36 8 -42 5 -6 90
-8 248 -6 155 3 262 1 298 -7 39 -7 453 -12 1361 -14 1177 -3 1776 -10 2005
-22 44 -2 877 -5 1852 -7 974 -2 1776 -6 1780 -9 5 -3 218 -8 473 -11 429 -6
829 -14 975 -21 308 -15 1029 -19 1054 -6 12 7 21 7 28 0 6 -6 291 -9 804 -8
437 1 1285 2 1884 3 600 0 1095 4 1101 8 11 7 255 22 341 21 38 -1 45 3 63 31
10 18 20 46 20 62 1 90 -9 1147 -15 1539 -8 604 -9 1202 -1 1242 3 17 2 34 -3
37 -4 3 -5 23 -2 43 7 40 7 66 -4 303 -6 127 -10 380 -15 945 -4 490 9 2353
18 2540 6 121 11 362 11 535 0 273 4 542 15 1190 2 80 7 215 11 300 8 147 11
478 6 620 -1 36 -1 214 0 395 2 182 -1 717 -6 1190 -5 473 -10 1375 -11 2005
-3 1158 -6 1409 -19 1430 -5 8 -20 9 -44 5 -33 -7 -832 -8 -926 -1 -22 1 -113
-3 -203 -10 -89 -7 -242 -13 -340 -14 -297 -1 -1605 11 -1807 16 -280 8 -1517
8 -1610 -1 -44 -4 -84 -6 -90 -5 -5 0 -289 2 -630 4 -341 2 -782 6 -980 10
-198 3 -621 9 -940 12 -319 4 -652 7 -740 9 -1245 21 -2654 37 -3025 34 -348
-2 -396 -2 -908 2 -282 2 -516 2 -518 -1z m2591 -116 c303 -3 573 -7 600 -9
28 -2 372 -6 765 -10 393 -3 879 -8 1080 -10 201 -3 626 -7 945 -10 319 -4
582 -8 584 -11 3 -2 -5 -17 -17 -32 -41 -50 -99 -186 -167 -392 -78 -236 -102
-294 -188 -437 -60 -102 -108 -158 -218 -258 -30 -27 -71 -70 -90 -94 -34 -43
-36 -44 -69 -32 -19 6 -57 26 -85 45 -161 106 -223 146 -228 146 -2 0 -35 18
-72 39 -37 22 -89 45 -116 51 -32 8 -57 22 -72 40 -30 37 -182 100 -252 105
-16 1 -41 6 -55 12 -14 6 -52 14 -85 18 -33 4 -65 11 -72 17 -6 5 -37 11 -69
14 -31 2 -62 8 -68 13 -37 29 -580 45 -766 23 -159 -19 -255 -34 -265 -42 -5
-4 -37 -11 -70 -15 -33 -4 -64 -10 -70 -14 -5 -4 -35 -15 -66 -25 -113 -34
-246 -141 -293 -234 -29 -57 -53 -69 -146 -71 -95 -2 -241 -87 -318 -186 -30
-37 -28 -64 8 -105 16 -19 29 -38 30 -41 0 -3 -11 -18 -25 -33 -32 -35 -34
-95 -3 -143 21 -35 102 -83 141 -83 20 0 21 -3 5 -48 -13 -33 -12 -35 25 -67
57 -49 112 -61 211 -46 44 7 131 26 191 41 174 43 253 60 267 55 7 -2 63 -6
123 -9 61 -4 148 -10 195 -14 47 -4 138 -7 203 -7 64 0 117 -2 117 -5 0 -3
-15 -17 -34 -32 -102 -82 -187 -299 -171 -436 8 -65 48 -116 104 -133 34 -10
42 -9 77 14 47 29 55 39 76 92 9 22 26 64 37 92 12 29 40 77 62 107 34 46 53
60 130 95 50 24 108 49 130 56 99 35 215 110 299 192 46 46 86 83 88 83 6 0
172 -145 172 -150 0 -3 -20 -16 -45 -30 -122 -69 -271 -209 -340 -320 -15 -25
-45 -64 -66 -87 -22 -23 -55 -68 -75 -100 -47 -74 -195 -218 -291 -283 -40
-28 -75 -50 -78 -50 -2 0 -43 -18 -92 -41 -48 -23 -98 -45 -111 -50 -12 -5
-71 -42 -131 -84 -78 -54 -148 -115 -252 -222 -216 -222 -228 -234 -262 -278
-87 -112 -224 -282 -238 -295 -9 -8 -34 -37 -55 -65 -21 -27 -47 -57 -57 -67
-32 -34 -202 -158 -215 -158 -7 0 -60 -25 -117 -55 -58 -30 -112 -55 -121 -55
-28 0 -72 -33 -77 -57 -4 -19 1 -27 22 -34 55 -21 128 -62 177 -99 57 -43 189
-210 230 -292 15 -29 48 -78 74 -108 25 -30 61 -76 78 -101 64 -94 227 -211
353 -253 68 -22 223 -50 284 -51 25 0 31 -5 35 -30 8 -48 23 -64 70 -78 l44
-13 12 -79 c14 -102 64 -245 123 -359 52 -100 82 -126 148 -126 39 0 42 -2 48
-32 4 -18 11 -39 16 -48 4 -8 18 -37 30 -63 30 -63 82 -123 138 -159 50 -31
86 -36 111 -13 16 14 19 12 42 -22 56 -84 128 -138 209 -157 33 -7 69 25 69
62 -1 15 -7 60 -14 100 -7 39 -11 72 -9 72 2 0 18 -8 36 -17 18 -9 46 -19 62
-23 29 -6 30 -8 37 -72 7 -77 33 -121 120 -205 58 -57 163 -110 239 -122 49
-8 139 -6 229 4 63 8 180 51 196 73 10 14 16 13 55 -2 75 -30 149 -106 274
-281 132 -185 190 -245 271 -282 30 -14 54 -29 52 -33 -2 -5 -73 -81 -158
-170 -149 -156 -274 -308 -390 -474 -30 -44 -76 -102 -101 -130 -25 -28 -60
-70 -78 -94 -19 -24 -128 -139 -243 -255 -207 -209 -356 -367 -371 -393 -5 -9
-40 -13 -135 -12 -126 0 -152 6 -152 36 0 47 -107 124 -209 152 -45 12 -227
41 -258 40 -12 0 -25 5 -28 10 -3 6 -35 10 -71 10 l-64 0 6 98 c3 53 7 122 10
152 3 30 7 98 10 151 3 86 2 99 -17 123 -32 41 -81 55 -243 71 -83 9 -180 20
-216 27 -99 18 -325 14 -380 -7 -61 -23 -242 -75 -259 -75 -29 0 -51 -32 -51
-74 0 -23 -5 -57 -10 -76 -6 -19 -13 -64 -16 -100 -3 -36 -11 -71 -17 -78 -6
-8 -13 -70 -16 -139 l-6 -125 -38 -13 c-90 -31 -100 -30 -174 23 -99 72 -144
86 -249 79 l-86 -5 6 82 c4 44 9 203 11 351 3 149 7 282 11 297 3 15 1 51 -4
80 -9 49 -3 180 9 192 3 3 50 8 104 11 112 7 213 26 295 56 72 26 140 60 140
71 0 4 5 8 11 8 21 0 92 79 87 98 -4 13 1 18 21 20 33 3 46 18 59 70 7 32 7
57 -4 100 -7 31 -13 76 -14 100 0 24 -5 52 -10 62 -6 10 -13 43 -16 72 -3 29
-9 58 -14 63 -9 12 -24 85 -21 99 2 10 -21 72 -41 109 -5 11 -12 40 -14 65 -6
52 -22 111 -35 128 -4 5 -15 50 -24 99 -8 49 -20 94 -25 99 -6 6 -10 20 -10
32 0 12 -14 61 -31 110 -16 49 -44 136 -61 194 -16 58 -36 119 -43 135 -8 17
-17 41 -20 54 -4 13 -27 57 -51 97 -53 86 -95 115 -204 140 -89 20 -174 15
-280 -15 -207 -59 -226 -71 -254 -148 -10 -26 -33 -84 -51 -128 -18 -44 -40
-116 -49 -160 -8 -44 -24 -109 -35 -145 -11 -36 -25 -96 -31 -134 -6 -38 -17
-84 -25 -103 -8 -20 -15 -48 -15 -64 0 -15 -4 -31 -10 -34 -5 -3 -10 -16 -10
-28 0 -24 -50 -181 -101 -317 -17 -47 -38 -107 -47 -135 -8 -27 -32 -103 -54
-168 -21 -64 -38 -133 -38 -151 0 -120 162 -259 335 -289 17 -3 53 -13 80 -21
28 -9 79 -20 114 -26 35 -5 67 -13 72 -17 4 -4 3 -55 -2 -113 -5 -58 -11 -139
-14 -180 -2 -41 -6 -82 -8 -90 -11 -44 -18 -105 -32 -300 -9 -118 -17 -235
-18 -260 l-2 -45 -89 -8 c-214 -19 -345 -112 -385 -272 -10 -39 -15 -43 -123
-98 -62 -31 -118 -57 -125 -57 -9 0 -12 23 -11 78 1 85 -9 373 -19 522 -7 118
-8 140 -3 215 2 33 0 157 -4 275 -4 118 -9 274 -11 347 -2 72 -8 185 -14 250
-6 65 -16 183 -22 263 -10 135 -67 454 -102 575 -8 28 -21 75 -30 105 -25 88
-58 171 -87 221 -15 25 -31 57 -35 70 -4 13 -21 42 -37 64 -16 22 -38 54 -48
72 -20 33 -137 124 -200 155 -54 27 -122 48 -154 48 -15 0 -67 6 -115 14 -82
14 -242 32 -361 41 -56 4 -247 22 -310 29 -19 2 -64 7 -100 10 -92 9 -190 35
-225 61 -16 12 -55 46 -85 74 -62 59 -175 138 -251 176 -77 40 -256 95 -327
102 -35 3 -65 11 -67 17 -3 9 -12 330 -17 626 -4 186 3 370 13 370 6 0 24 -9
39 -20 36 -26 142 -39 320 -39 74 -1 151 -2 170 -3 19 -1 71 2 115 6 44 4 139
9 210 12 72 2 141 6 155 9 14 2 75 7 135 10 61 4 142 11 180 16 39 6 105 14
147 19 42 6 88 14 103 20 14 5 41 10 59 10 32 0 153 25 256 53 30 8 85 29 123
46 37 17 74 31 82 31 8 0 56 18 106 40 51 22 97 40 102 40 25 0 162 77 199
111 23 22 46 39 50 39 17 0 100 87 113 118 8 18 18 31 23 28 5 -3 19 9 32 27
23 31 45 57 83 98 20 23 58 114 50 122 -3 3 7 21 21 40 14 19 26 37 26 41 0 5
11 30 24 57 42 83 87 240 99 344 11 95 13 324 3 430 -11 110 -26 218 -35 248
-5 18 -21 70 -35 117 -31 106 -49 159 -77 228 -7 15 -15 36 -19 47 -4 11 -15
38 -25 60 -9 22 -23 60 -30 83 -8 24 -25 61 -39 83 -14 21 -26 43 -26 47 0 16
-81 115 -142 174 -121 117 -273 217 -490 321 -53 26 -99 47 -103 47 -3 0 -33
14 -67 30 -33 17 -68 30 -78 30 -10 0 -34 7 -55 16 -71 29 -285 67 -450 80
-38 2 -122 9 -185 14 -217 18 -637 33 -761 27 -68 -3 -188 -11 -267 -17 -79
-7 -145 -10 -148 -7 -10 10 -9 546 1 556 6 6 230 11 595 13 322 2 646 5 720 8
153 6 1828 2 2655 -6z m9964 -38 c87 4 111 2 111 -8 0 -7 1 -280 3 -606 1
-409 -1 -595 -9 -600 -5 -4 -28 -38 -49 -77 -55 -99 -116 -178 -238 -305 -84
-87 -172 -192 -199 -235 -34 -56 -89 -188 -137 -330 -139 -412 -220 -596 -330
-747 -18 -25 -88 -97 -154 -160 -209 -195 -331 -322 -378 -394 -61 -91 -121
-202 -158 -291 -29 -67 -161 -505 -176 -583 -9 -50 -33 -114 -67 -183 -5 -10
-20 -49 -34 -87 -50 -140 -216 -379 -344 -495 -30 -27 -60 -57 -67 -66 -7 -9
-43 -35 -80 -59 -174 -110 -213 -137 -277 -194 -39 -34 -84 -77 -102 -95 l-32
-35 -67 140 c-37 76 -72 148 -78 159 -43 82 -107 217 -107 226 0 17 -168 326
-188 346 -9 9 -28 38 -42 64 -55 105 -123 225 -135 239 -7 8 -25 40 -41 70
-15 30 -49 87 -74 125 -26 39 -63 98 -84 133 -21 34 -43 68 -50 75 -6 6 -26
32 -43 57 -17 25 -45 58 -62 74 -17 17 -31 34 -31 39 0 19 -75 107 -205 242
-33 34 -73 79 -90 100 -16 21 -48 59 -71 84 -22 25 -67 80 -99 121 -109 140
-190 229 -470 517 -261 270 -343 344 -495 447 -47 32 -95 67 -107 78 -12 11
-42 34 -66 52 -46 32 -147 111 -294 229 -114 92 -111 90 -173 139 -154 121
-262 191 -360 233 -8 3 -33 17 -55 30 -57 35 -264 144 -384 203 -42 21 -42 34
0 48 21 7 48 32 77 70 24 32 54 65 65 73 11 8 28 22 37 30 9 9 26 23 38 31 23
15 90 113 128 185 11 22 39 74 62 115 45 84 82 188 82 234 0 17 7 40 15 50 8
10 12 22 9 27 -2 4 5 24 16 44 11 19 20 41 20 47 0 7 19 62 42 123 41 109 64
152 113 210 l25 30 747 2 c412 0 899 2 1083 3 184 1 792 -2 1350 -7 1158 -9
1539 -9 1660 1 47 4 256 9 464 12 209 2 381 6 384 8 2 2 16 0 32 -4 16 -5 79
-6 139 -4z m-13144 -596 c66 -5 190 -17 275 -25 85 -9 207 -20 270 -25 401
-30 650 -109 1004 -318 96 -58 217 -156 274 -225 73 -86 149 -253 238 -525 67
-204 89 -375 88 -682 0 -153 -3 -185 -23 -250 -21 -70 -129 -344 -170 -435
-27 -58 -195 -240 -287 -311 -80 -61 -194 -134 -210 -134 -5 0 -43 -13 -84
-30 -234 -92 -438 -155 -567 -175 -48 -7 -128 -21 -178 -30 -49 -9 -97 -17
-105 -17 -8 0 -51 -4 -95 -9 -362 -40 -989 -53 -1133 -23 -42 9 -80 18 -84 20
-6 4 1 294 7 302 2 2 17 -4 33 -12 39 -20 39 -20 367 -8 154 6 298 11 320 12
22 0 90 5 150 10 61 6 166 12 235 15 69 3 159 12 200 20 41 7 116 19 165 25
85 10 266 51 310 69 11 5 40 18 65 30 25 11 71 28 104 36 41 12 60 22 63 35 3
12 19 23 38 29 69 19 176 110 276 236 32 41 59 77 59 81 0 3 11 20 25 38 14
18 25 39 25 46 0 16 18 72 37 117 7 17 13 40 13 50 0 11 9 53 19 94 16 64 34
202 34 264 0 275 -92 630 -203 785 -14 19 -31 46 -39 60 -29 51 -165 200 -243
266 -65 55 -180 123 -248 146 -70 24 -253 82 -345 109 -22 7 -141 15 -265 19
-124 4 -265 13 -315 20 -62 9 -182 12 -385 9 -162 -2 -342 -3 -400 -4 l-105 0
-3 131 -3 131 31 7 c28 5 255 21 415 29 134 7 236 6 350 -3z m5110 -225 c33
-4 86 -13 118 -21 32 -7 65 -14 72 -14 8 0 26 -5 42 -11 15 -6 45 -13 65 -15
21 -2 72 -13 115 -25 178 -49 342 -125 638 -298 50 -29 128 -70 175 -92 104
-49 393 -195 431 -218 80 -48 158 -91 165 -91 23 0 345 -222 500 -345 178
-141 266 -209 308 -240 23 -16 65 -48 93 -70 28 -22 67 -50 85 -63 123 -84
192 -145 423 -377 258 -258 383 -394 546 -594 46 -57 113 -138 149 -182 372
-447 429 -528 704 -992 10 -18 53 -97 94 -177 42 -80 107 -201 145 -270 90
-162 207 -380 207 -387 0 -3 17 -42 39 -86 21 -45 76 -161 121 -257 45 -96
120 -253 167 -349 52 -108 81 -177 75 -183 -27 -27 -343 -32 -475 -7 -92 17
-226 74 -337 144 -19 12 -39 22 -43 23 -28 2 -212 136 -337 245 -19 17 -66 55
-105 84 -38 29 -95 77 -125 106 -30 29 -64 60 -76 68 -11 8 -66 68 -123 134
-56 66 -133 156 -172 199 -41 47 -68 85 -64 93 3 8 0 23 -6 35 -6 11 -13 43
-15 71 -7 87 -10 107 -17 114 -4 3 -7 21 -7 40 0 33 -46 136 -82 183 -10 14
-40 54 -66 89 -26 35 -60 80 -77 101 -81 103 -119 155 -151 210 -34 59 -98
150 -177 255 -21 28 -88 127 -150 220 -62 94 -122 180 -135 193 -12 12 -22 26
-22 31 0 5 -6 16 -13 23 -7 7 -27 33 -44 58 -17 25 -43 57 -57 72 -14 15 -36
42 -49 60 -23 34 -58 77 -89 110 -10 10 -18 23 -18 28 0 6 -3 10 -8 10 -4 0
-16 17 -27 38 -11 20 -24 42 -30 48 -5 7 -26 33 -45 59 -77 102 -182 226 -231
272 -28 26 -71 66 -94 89 -37 34 -179 138 -233 169 -9 6 -42 28 -72 51 -30 22
-71 49 -90 60 -19 10 -44 27 -55 37 -11 11 -40 29 -65 41 -25 13 -68 36 -96
53 -66 39 -154 90 -305 172 -19 11 -41 27 -48 35 -8 9 -17 16 -22 16 -15 0
-162 106 -253 182 -65 55 -167 135 -243 190 -50 37 -74 61 -78 81 -12 53 -67
27 -100 -47 -41 -93 -105 -138 -360 -256 -64 -30 -143 -76 -155 -91 -3 -4 -15
-10 -28 -14 -25 -7 -116 -124 -149 -190 -11 -22 -30 -68 -42 -102 -13 -34 -29
-64 -37 -67 -17 -7 -76 18 -94 39 -9 11 -11 36 -6 92 8 95 54 187 141 282 92
101 120 141 153 218 44 103 75 147 137 194 58 43 68 68 42 104 -35 46 -146
-44 -203 -163 -72 -152 -63 -140 -103 -136 -20 2 -130 6 -246 8 -115 3 -225 9
-243 15 -74 22 -306 4 -417 -33 -22 -8 -55 -17 -74 -21 -34 -7 -96 -38 -115
-56 -11 -10 -110 -11 -141 -1 -34 11 -63 36 -67 57 -3 18 5 21 72 27 41 4 131
24 200 44 69 20 153 44 186 54 34 10 121 25 194 34 155 19 195 33 202 70 3 15
1 26 -6 26 -6 0 -54 -5 -106 -11 -52 -6 -120 -12 -150 -14 -102 -7 -184 -23
-325 -64 -164 -48 -294 -62 -341 -38 -60 31 -94 89 -75 126 9 16 17 18 43 13
94 -18 295 1 403 38 33 11 134 36 225 55 282 58 325 67 331 71 13 7 27 61 20
72 -8 14 -162 -10 -224 -33 -20 -8 -57 -15 -82 -15 -55 0 -143 -18 -170 -34
-25 -16 -111 -40 -195 -56 -36 -7 -72 -13 -80 -15 -8 -1 -49 -6 -90 -9 -91 -9
-140 8 -164 54 -14 29 -14 32 5 51 36 36 112 79 140 79 15 0 40 5 56 11 15 6
58 19 94 28 64 17 67 17 115 -2 37 -14 62 -18 104 -13 62 6 207 42 350 86 52
16 106 31 120 34 70 12 135 42 150 68 21 39 6 50 -55 38 -28 -5 -68 -14 -90
-20 -22 -6 -58 -15 -80 -20 -83 -18 -101 -23 -120 -35 -11 -7 -41 -18 -67 -25
-28 -7 -45 -17 -41 -23 4 -6 -3 -8 -19 -4 -14 4 -44 1 -65 -7 -22 -8 -53 -13
-69 -12 -37 3 -84 26 -84 41 0 18 57 88 88 107 149 94 331 146 572 163 40 3
76 8 80 11 6 7 517 -3 605 -11z m-4985 -170 c52 -4 109 -11 125 -15 17 -5 127
-14 245 -20 205 -11 219 -13 315 -47 55 -19 109 -37 120 -40 44 -12 204 -89
268 -130 215 -137 374 -403 434 -723 26 -138 23 -454 -5 -548 -11 -37 -20 -74
-20 -82 -2 -33 -20 -101 -41 -153 -25 -60 -33 -66 -134 -92 -79 -20 -210 -19
-342 4 -60 11 -117 22 -125 25 -8 3 -34 10 -57 16 -26 6 -43 17 -43 25 0 8 18
52 39 97 44 91 63 142 112 293 17 55 42 121 55 147 28 56 24 73 -27 98 -42 22
-167 28 -225 11 -17 -5 -127 -10 -243 -12 -196 -4 -213 -3 -223 14 -5 10 -10
82 -9 160 0 168 -14 263 -43 296 -19 20 -26 22 -71 16 -51 -7 -175 -21 -276
-31 -39 -4 -59 -2 -64 6 -8 13 -19 93 -36 270 -9 96 -14 119 -33 138 -20 20
-27 21 -71 13 -28 -5 -78 -9 -113 -10 -34 -1 -72 -5 -85 -10 -12 -5 -41 -9
-64 -9 -73 -1 -122 -19 -129 -49 -4 -14 -1 -107 7 -207 8 -100 14 -185 14
-191 0 -9 -155 -39 -162 -31 -1 1 -3 173 -3 382 l-1 379 190 5 c104 3 192 7
195 10 7 7 415 4 526 -5z m-342 -380 c2 -28 9 -95 16 -150 18 -149 16 -169
-14 -171 -14 -2 -73 -10 -131 -18 -59 -9 -129 -16 -156 -16 l-50 0 -11 68
c-13 78 -27 238 -23 267 2 11 6 23 10 27 3 4 63 13 131 19 69 6 141 15 160 19
59 14 64 10 68 -45z m13471 -312 c-1 -317 7 -1148 18 -2043 9 -633 8 -1688 -1
-1840 -3 -58 -9 -160 -12 -227 l-7 -123 -26 0 c-14 0 -42 -4 -61 -10 -19 -5
-71 -16 -115 -24 -44 -8 -91 -17 -105 -19 -14 -3 -52 -8 -84 -12 -32 -4 -68
-11 -80 -15 -30 -12 -149 -29 -236 -34 -41 -3 -102 -9 -135 -15 -115 -19 -375
-35 -387 -23 -10 10 -13 276 -4 437 3 44 8 154 11 245 3 91 7 208 10 260 18
372 23 733 17 1185 -1 88 0 221 3 295 3 74 7 195 9 268 3 155 -13 127 165 292
62 57 125 122 140 145 15 22 45 67 68 100 37 55 94 161 113 210 4 11 17 43 29
72 12 28 21 56 21 62 0 6 14 39 30 73 17 34 30 69 30 77 0 18 3 28 89 285 35
105 72 197 89 220 16 23 31 47 33 53 2 7 76 88 164 179 88 92 168 180 177 196
10 15 22 28 28 28 6 0 9 -107 9 -297z m-12998 -98 c8 -48 15 -352 9 -358 -7
-7 -266 -17 -585 -23 -154 -2 -313 -9 -353 -14 -125 -17 -112 -36 -112 171 l0
182 39 -7 c41 -6 295 14 490 38 64 9 177 21 251 27 74 7 153 15 175 19 69 14
79 9 86 -35z m5593 -177 c143 -105 231 -161 325 -210 53 -27 152 -83 221 -124
69 -41 138 -83 154 -92 42 -25 176 -114 232 -156 27 -20 76 -54 109 -77 222
-155 499 -472 818 -936 78 -113 91 -138 60 -111 -22 18 -128 58 -154 58 -10 0
-19 6 -19 14 0 8 -13 43 -29 78 -31 70 -75 110 -163 150 -41 18 -46 24 -37 40
8 15 4 25 -23 51 -18 17 -49 51 -68 74 -20 25 -59 55 -90 70 -30 15 -62 32
-70 38 -20 15 -100 40 -199 61 -45 10 -81 23 -81 29 0 6 16 29 35 51 46 52 47
86 1 108 -69 32 -126 38 -222 21 -49 -8 -109 -18 -133 -21 l-44 -6 39 42 c50
54 57 67 50 94 -14 55 -188 68 -311 24 -38 -14 -78 -29 -87 -33 -14 -5 -18 -2
-18 12 0 41 -36 58 -119 57 -61 -1 -91 -7 -156 -34 -44 -18 -84 -37 -89 -41
-17 -16 -34 -10 -40 15 -10 40 -52 50 -143 33 -122 -23 -212 -71 -308 -164
-104 -100 -153 -135 -177 -127 -112 37 -262 -107 -352 -338 l-14 -36 -60 5
c-59 5 -60 5 -98 -34 -89 -90 -165 -323 -166 -513 -1 -134 0 -155 11 -214 8
-41 6 -54 -9 -75 -94 -138 -148 -232 -221 -392 -46 -102 -50 -115 -47 -177 l3
-67 43 -24 c42 -22 45 -23 83 -8 21 8 40 12 42 9 2 -4 -1 -44 -6 -89 l-11 -83
-57 0 c-69 0 -177 32 -242 71 -26 16 -50 29 -53 29 -4 0 -35 20 -70 45 -34 25
-66 45 -69 45 -9 0 -44 43 -45 54 0 5 -31 45 -69 90 -37 45 -82 109 -99 143
-36 72 -139 201 -208 259 -62 52 -149 111 -174 119 -30 10 -24 21 18 33 21 7
61 24 88 38 27 14 90 47 139 72 106 55 90 44 191 131 45 39 119 116 165 173
46 57 89 109 97 117 8 8 32 39 55 70 80 109 167 205 379 421 92 93 173 170
180 170 7 0 32 16 56 35 24 18 60 39 80 46 71 23 219 97 286 141 63 43 203
165 267 233 15 17 52 65 81 107 47 67 136 187 201 271 25 32 151 137 200 167
18 11 41 20 51 20 11 0 51 -23 90 -52z m-4874 -252 c0 -7 -22 -73 -45 -131
-12 -33 -27 -80 -33 -105 -6 -25 -31 -89 -56 -142 -25 -53 -46 -103 -46 -110
0 -7 -8 -23 -18 -35 -16 -20 -22 -21 -80 -14 -95 11 -179 3 -392 -39 -107 -21
-215 -41 -240 -45 -25 -4 -72 -11 -105 -15 -35 -6 -88 -5 -130 0 -38 5 -95 12
-125 15 -30 3 -89 11 -131 19 -84 17 -230 22 -300 11 l-46 -7 -6 268 c-4 147
-5 269 -3 272 5 4 252 10 636 16 225 4 349 8 600 23 63 4 122 6 130 5 35 -5
228 0 265 8 41 8 125 13 125 6z m5035 -548 c-4 -18 -15 -50 -26 -71 -23 -46
-24 -55 -2 -79 27 -30 63 -22 118 27 27 25 56 45 62 45 7 0 13 5 13 10 0 6 5
10 11 10 6 0 23 8 37 19 39 27 137 61 176 61 30 0 33 -3 29 -21 -3 -11 -15
-31 -27 -43 -45 -47 -86 -96 -86 -102 0 -4 7 -16 17 -26 21 -23 67 -23 165 2
115 29 243 49 268 43 13 -4 19 -11 16 -20 -3 -8 -6 -19 -6 -24 0 -5 -23 -32
-52 -59 -52 -50 -52 -50 -33 -70 15 -14 44 -22 115 -30 111 -12 265 -52 324
-83 23 -12 65 -47 94 -78 l53 -57 -35 -22 c-20 -12 -36 -25 -36 -29 0 -11 84
-51 107 -51 10 0 40 -14 66 -30 36 -22 53 -42 68 -78 11 -26 28 -55 36 -65 19
-20 17 -23 -29 -45 -18 -10 -49 -38 -68 -64 -19 -27 -42 -48 -51 -48 -44 0
-257 194 -290 265 -12 26 -21 30 -57 33 -56 4 -70 -9 -78 -69 -7 -52 -19 -60
-46 -31 -8 9 -31 28 -49 42 -19 14 -56 46 -83 72 -26 27 -52 48 -57 48 -5 0
-26 15 -46 34 -54 47 -120 87 -151 90 -25 2 -102 -28 -102 -40 0 -3 10 -27 21
-54 28 -65 21 -83 -28 -74 -51 9 -76 26 -121 83 -54 69 -77 84 -117 77 -19 -4
-41 -14 -50 -23 -14 -13 -14 -18 -2 -32 8 -9 26 -38 41 -66 53 -96 25 -175
-62 -175 -51 1 -84 32 -129 121 -21 43 -73 47 -115 11 -16 -13 -16 -17 6 -61
49 -96 36 -261 -21 -269 -23 -3 -67 52 -92 115 -15 36 -33 43 -76 30 -51 -16
-59 -30 -41 -64 43 -84 64 -299 37 -380 -8 -24 -19 -43 -24 -43 -15 0 -77 69
-77 86 0 8 -11 19 -24 25 -18 9 -31 7 -60 -6 l-36 -17 0 -82 c-1 -55 -5 -87
-15 -100 -15 -20 -15 -20 -30 0 -17 22 -21 34 -30 86 -7 47 -31 62 -74 47 -41
-14 -45 -36 -30 -155 13 -108 14 -265 0 -274 -4 -3 -14 -22 -20 -42 -7 -21
-18 -38 -25 -38 -16 0 -46 33 -80 88 -35 57 -63 69 -105 47 -43 -22 -46 -35
-21 -91 12 -26 28 -65 35 -88 7 -23 24 -72 38 -111 16 -44 23 -82 20 -102 -3
-18 -7 -33 -9 -33 -8 0 -78 82 -89 104 -6 11 -21 23 -34 24 -29 4 -91 -27 -91
-46 0 -7 31 -54 68 -105 73 -99 162 -235 162 -249 0 -4 -3 -8 -6 -8 -13 0 -74
42 -74 50 0 29 -91 8 -103 -23 -3 -7 33 -43 81 -82 115 -94 253 -232 277 -277
l19 -37 -24 -26 -25 -27 45 -40 c25 -22 65 -60 90 -83 25 -23 57 -49 70 -58
14 -9 33 -33 43 -54 10 -21 27 -55 38 -75 25 -48 24 -67 -5 -102 l-23 -30 -34
24 c-45 32 -53 42 -98 130 -61 118 -90 139 -140 104 -30 -21 -26 -44 35 -231
48 -145 51 -183 14 -163 -11 6 -20 16 -20 22 0 6 -20 51 -44 102 -73 151 -116
272 -116 326 0 43 -74 54 -110 15 -23 -24 -23 -26 -13 -142 5 -65 8 -120 5
-123 -6 -8 -42 44 -42 61 0 9 -9 37 -20 62 -20 46 -44 163 -55 272 -9 95 -17
139 -27 158 -14 26 -70 22 -107 -8 -24 -21 -31 -36 -36 -83 -3 -31 -10 -66
-15 -77 l-8 -20 -7 20 c-3 11 -20 54 -37 95 -58 142 -70 261 -38 375 12 43 29
89 37 101 13 21 13 24 -6 34 -33 17 -99 -6 -139 -47 -18 -20 -36 -33 -39 -29
-11 11 -5 103 12 179 16 73 66 177 85 177 20 0 9 31 -14 40 -44 16 -99 -7
-164 -71 -33 -32 -65 -59 -71 -59 -25 0 -11 79 29 161 77 159 95 194 127 247
18 29 33 56 33 61 0 5 20 35 45 67 l45 58 -5 84 c-9 157 -7 267 5 297 6 17 21
68 32 114 26 111 56 191 72 191 7 0 17 -14 22 -31 12 -42 54 -74 88 -65 21 5
28 17 46 79 11 39 25 79 30 88 5 10 21 46 35 80 28 66 112 199 127 199 4 0 7
-3 6 -7 -6 -22 16 -53 43 -62 27 -9 33 -7 52 13 12 13 33 42 47 66 34 58 64
89 140 145 36 26 90 72 120 101 53 50 120 94 168 108 19 6 22 4 22 -17 0 -13
-15 -57 -34 -98 l-34 -73 23 -18 c13 -10 33 -18 45 -18 20 0 136 88 153 116 8
14 122 94 134 94 5 0 31 11 58 25 69 33 78 32 70 -7z m-5214 -103 c52 -4 130
-17 174 -30 94 -27 234 -54 290 -56 22 -1 68 2 103 6 42 5 62 4 62 -3 0 -21
-140 -137 -216 -179 -44 -23 -92 -50 -108 -59 -66 -36 -251 -104 -343 -125
-89 -20 -130 -27 -262 -43 -23 -4 -46 -8 -50 -10 -24 -15 -1165 -61 -1212 -49
-18 5 -19 19 -19 227 l0 222 31 23 c53 39 202 44 365 12 228 -45 409 -47 584
-7 63 15 144 31 180 36 36 6 72 13 80 16 19 8 221 33 236 29 6 -2 53 -6 105
-10z m11184 -502 c-10 -75 -25 -428 -25 -578 1 -275 1 -314 2 -430 2 -159 -3
-414 -18 -860 -4 -104 -6 -208 -6 -230 2 -152 3 -136 -13 -345 -4 -58 -4 -149
-1 -202 7 -86 10 -98 37 -127 l29 -32 113 2 c61 1 120 6 129 11 9 4 74 13 145
18 70 6 153 15 183 20 30 4 84 9 120 9 36 1 81 5 100 11 19 5 105 21 190 35
85 14 173 30 195 35 22 5 52 11 67 14 l27 6 -1 -174 c0 -167 -1 -173 -20 -168
-10 2 -29 0 -41 -6 -21 -11 -79 -22 -217 -42 -36 -6 -103 -16 -150 -25 -150
-26 -213 -34 -295 -40 -44 -4 -102 -10 -130 -16 -27 -5 -93 -13 -145 -19 -52
-6 -133 -21 -180 -35 -47 -13 -98 -24 -115 -24 -16 1 -61 -4 -100 -10 -87 -13
-152 -14 -160 -2 -3 6 -8 70 -11 143 -6 139 -12 256 -14 273 0 6 0 45 1 88 1
43 -1 80 -4 83 -2 3 -1 22 4 42 7 31 4 422 -5 582 -3 44 7 150 18 200 12 51
16 479 6 485 -8 5 -8 11 0 20 6 8 12 150 16 401 6 466 6 464 35 528 36 82 87
183 114 226 14 22 25 46 25 55 0 8 4 15 8 15 5 0 23 20 41 45 37 52 51 57 46
18z m-5317 -128 c99 -86 194 -142 258 -152 27 -4 42 -1 64 16 16 11 33 21 38
21 5 0 26 -16 46 -36 69 -67 176 -142 223 -156 35 -10 49 -20 61 -45 35 -73
81 -45 82 49 0 71 6 85 41 103 38 20 69 19 135 -5 63 -22 126 -74 165 -135 45
-69 89 -213 89 -287 0 -81 -24 -155 -53 -164 -21 -7 -30 -9 -73 -12 -14 -1
-26 -13 -34 -32 -11 -26 -10 -33 3 -48 43 -47 93 -240 108 -412 24 -267 -7
-541 -79 -715 -71 -168 -197 -335 -320 -421 -183 -129 -366 -197 -602 -224
-52 -6 -146 -18 -209 -26 -108 -15 -222 -14 -298 2 -46 9 -83 -2 -83 -26 0
-10 5 -22 10 -25 42 -26 -31 -111 -130 -151 -55 -23 -81 -27 -170 -28 -98 -1
-108 1 -152 27 -61 37 -114 97 -146 165 -39 86 -31 138 30 206 10 11 18 23 18
28 0 7 -42 33 -47 30 -14 -10 -21 8 -25 63 -3 35 -12 71 -19 79 -8 8 -25 33
-39 55 -13 23 -59 71 -102 107 -80 67 -85 73 -69 103 19 35 -44 136 -155 247
-29 29 -31 34 -26 88 5 59 -7 93 -66 189 l-23 38 40 39 40 39 -1 78 c0 43 -4
83 -8 88 -4 6 -12 24 -18 42 -10 31 -10 31 21 27 24 -4 43 2 73 22 66 43 77
72 82 202 l5 114 34 -5 c72 -12 133 58 133 151 l0 30 60 -20 c59 -20 61 -20
94 -3 23 12 42 37 63 79 29 58 30 67 28 164 l-2 104 31 -5 c83 -13 152 56 171
171 l7 43 41 -7 c63 -10 91 -7 144 16 59 26 110 74 118 110 l6 27 69 -15 c64
-14 73 -14 115 3 25 9 56 30 67 46 12 16 26 29 30 29 5 0 52 -38 106 -85z
m1282 -412 c22 -32 46 -67 53 -77 6 -10 28 -40 48 -65 19 -25 58 -82 87 -126
28 -44 72 -109 97 -145 45 -64 68 -95 190 -256 81 -107 137 -220 164 -331 l23
-92 -25 -53 c-28 -61 -43 -106 -52 -163 -8 -54 -15 -75 -24 -75 -12 0 -135 83
-185 126 -118 98 -241 243 -336 394 -63 102 -64 103 -82 124 -10 11 -18 28
-18 37 0 21 -28 136 -39 164 -35 84 -35 78 -4 100 111 80 144 185 103 332 -12
43 -28 93 -36 111 -30 70 -17 68 36 -5z m3681 -441 c-1 -70 -4 -143 -6 -162
-2 -19 -6 -152 -10 -295 -4 -143 -10 -282 -15 -310 -7 -44 -14 -293 -12 -440
0 -27 3 -228 6 -445 4 -217 6 -402 6 -410 0 -8 0 -41 -1 -73 l-1 -59 -36 6
c-20 4 -57 7 -82 7 -99 1 -137 9 -148 34 -12 27 -12 775 0 775 4 0 7 28 6 63
-2 101 9 371 22 522 12 144 14 241 4 257 -3 5 15 43 40 86 24 42 59 109 76
147 17 39 40 89 51 113 10 23 19 54 19 67 0 14 4 33 9 43 5 9 14 35 20 57 34
130 43 157 49 151 3 -4 5 -64 3 -134z m-3643 -584 c84 -116 232 -266 327 -334
90 -64 190 -115 210 -107 9 3 26 -19 49 -65 20 -39 60 -108 90 -154 58 -89
206 -364 236 -438 10 -25 32 -74 48 -110 36 -78 86 -246 102 -350 7 -41 15
-86 20 -100 4 -14 8 -63 10 -110 9 -275 -18 -383 -126 -499 -147 -159 -480
-272 -678 -231 -55 11 -157 62 -164 81 -2 5 -9 9 -15 9 -7 0 -37 25 -67 55
-30 30 -59 55 -63 55 -15 0 -120 111 -189 199 -81 103 -142 203 -174 283 -12
32 -32 69 -43 84 -21 27 -30 70 -35 169 -4 80 -27 137 -86 210 -47 56 -132
125 -156 125 -7 0 -17 6 -23 14 -9 11 -1 17 41 31 55 17 108 46 133 72 9 8 39
32 68 53 28 22 57 44 64 50 7 5 16 10 20 10 5 0 17 14 27 30 9 17 43 61 75 98
56 64 105 156 181 332 46 107 54 176 51 413 -2 114 -1 207 2 207 3 0 32 -37
65 -82z m-8732 -35 c22 -9 73 -22 114 -28 41 -7 102 -20 135 -30 56 -16 79
-26 192 -83 23 -12 82 -59 130 -105 93 -88 170 -142 225 -158 44 -13 215 -38
253 -37 17 1 55 -2 85 -5 30 -4 96 -9 145 -12 278 -18 567 -50 655 -73 45 -11
104 -49 156 -100 52 -51 157 -259 175 -347 4 -22 17 -76 28 -120 11 -44 34
-150 50 -235 17 -85 32 -164 35 -175 2 -11 7 -78 11 -150 3 -71 13 -186 20
-255 8 -69 16 -201 19 -295 4 -93 8 -240 11 -325 3 -85 7 -292 10 -460 3 -168
7 -318 10 -335 10 -64 7 -381 -3 -407 -10 -25 -122 -98 -150 -98 -7 0 -8 26
-4 83 8 107 8 503 -1 732 -4 99 -10 263 -13 365 -3 102 -8 188 -10 192 -2 3
-6 82 -9 175 -3 92 -9 197 -15 233 -5 36 -12 126 -15 200 -6 156 -13 268 -20
325 -10 81 -24 212 -30 279 -13 141 -110 330 -223 433 -26 24 -50 43 -53 43
-3 0 -17 9 -30 20 -12 12 -39 31 -59 43 -19 11 -41 27 -49 34 -7 8 -31 24 -53
36 -22 12 -50 27 -62 34 -37 21 -179 54 -251 59 -38 3 -76 7 -83 9 -7 3 -146
5 -310 6 -328 1 -449 15 -587 67 -64 25 -81 38 -190 148 -111 112 -207 193
-262 223 -19 10 -23 20 -23 61 0 28 2 50 4 50 2 0 21 -7 42 -17z m11999 -113
c-2 -4 -7 -83 -10 -176 -4 -93 -10 -216 -14 -274 -9 -113 -6 -836 4 -935 4
-48 11 -65 33 -86 43 -43 111 -67 173 -63 69 5 156 -9 212 -35 49 -23 128 -28
172 -11 14 5 54 12 88 15 86 6 197 22 275 40 69 15 134 24 357 49 261 30 323
38 450 62 193 37 220 41 239 34 17 -6 18 -38 16 -570 0 -311 -5 -646 -9 -745
-4 -99 -8 -445 -9 -770 -3 -1271 -2 -2206 3 -2335 8 -231 18 -584 17 -615 -3
-66 -4 -425 -2 -503 1 -46 0 -85 -3 -88 -3 -3 -14 -1 -24 4 -16 9 -239 3 -435
-12 l-66 -5 -16 39 c-9 22 -19 59 -22 82 -4 24 -14 51 -22 61 -8 9 -16 25 -17
35 -1 9 -7 27 -14 40 -7 13 -16 44 -21 70 -4 26 -14 67 -23 92 -8 25 -34 104
-57 175 -64 200 -255 585 -290 585 -25 0 -6 42 32 73 37 31 43 41 44 79 0 24
4 51 9 62 4 10 3 54 -4 100 -7 44 -14 92 -15 106 -2 14 -13 50 -24 80 -11 30
-26 81 -33 113 -7 32 -16 60 -21 63 -4 3 -8 19 -8 35 0 17 -5 40 -12 52 -7 12
-13 30 -15 41 -2 10 -10 33 -18 50 -8 17 -16 42 -19 56 -4 24 -47 135 -67 173
-5 9 -20 47 -34 84 -42 111 -137 323 -145 323 -4 0 -10 14 -14 31 -3 18 -20
54 -36 81 -17 26 -30 53 -30 59 0 6 -16 46 -36 88 -20 42 -47 103 -59 136 -13
33 -30 74 -39 90 -9 17 -16 35 -16 42 0 7 -11 36 -24 65 -13 29 -31 87 -41
128 -10 41 -24 87 -32 103 -14 28 -32 98 -38 152 -5 42 -20 97 -33 121 -6 12
-14 43 -17 70 -3 27 -10 69 -15 94 -6 25 -13 63 -17 85 -3 22 -10 46 -16 53
-6 7 -14 32 -18 55 -15 82 -36 162 -47 184 -7 12 -17 56 -23 97 -5 42 -17 88
-24 103 -8 16 -15 45 -15 65 0 20 -5 40 -10 43 -6 4 -10 21 -9 38 3 56 -36
276 -60 340 -5 13 -12 48 -16 78 -3 30 -16 90 -27 134 -11 44 -25 103 -30 130
-6 28 -15 61 -21 75 -5 14 -11 32 -12 40 -2 8 -12 67 -24 130 -12 63 -26 144
-31 180 -6 36 -15 78 -20 94 -6 16 -10 47 -10 68 0 36 -9 64 -31 92 -38 51
-94 106 -117 114 -83 30 -109 33 -200 25 l-93 -9 -13 31 c-7 16 -23 51 -35 78
-11 26 -31 68 -42 95 -54 120 -59 97 39 199 89 93 184 173 206 173 7 0 21 9
33 19 11 11 42 31 69 45 65 35 143 84 159 99 6 7 40 37 74 67 34 30 81 75 104
98 l42 44 7 -33 c3 -19 5 -36 3 -39z m-12004 -67 c19 -15 95 -88 169 -163 134
-135 191 -178 290 -215 25 -10 65 -27 89 -38 24 -11 89 -29 145 -40 87 -17
149 -20 451 -23 323 -3 359 -5 460 -26 61 -13 117 -28 125 -33 71 -44 186
-134 216 -168 66 -76 120 -219 134 -357 6 -52 15 -135 21 -185 13 -111 16
-150 24 -290 3 -60 10 -157 16 -215 5 -58 12 -163 15 -235 3 -71 9 -195 15
-275 11 -174 11 -153 10 -324 0 -76 1 -142 4 -146 11 -18 15 -610 5 -700 -7
-52 -17 -141 -23 -197 -13 -111 -21 -123 -97 -153 -49 -20 -98 -75 -105 -119
-14 -85 -6 -78 -102 -83 -58 -3 -91 -1 -96 6 -4 6 -6 61 -5 121 1 61 1 175 -1
255 -5 228 8 356 59 565 5 22 11 56 14 75 8 68 36 246 50 325 19 107 8 128
-88 161 -46 16 -54 16 -125 -1 -42 -10 -103 -27 -136 -38 -33 -10 -73 -23 -90
-27 -16 -5 -61 -18 -100 -30 -178 -53 -315 -67 -428 -45 -189 38 -384 93 -577
165 -41 15 -90 31 -108 35 -18 3 -46 13 -63 22 -16 8 -62 19 -102 24 -49 6
-76 15 -85 26 -9 13 -13 85 -13 288 0 148 -2 290 -4 315 -10 136 -20 622 -19
940 2 343 13 830 19 830 2 0 18 -12 36 -27z m9573 -208 c120 -148 253 -281
405 -405 50 -41 122 -100 159 -131 84 -70 294 -213 386 -263 138 -75 307 -112
521 -115 236 -3 469 40 496 91 14 26 7 31 -47 34 -25 1 -47 4 -49 6 -5 6 -55
121 -55 126 0 3 41 2 92 -2 110 -7 123 -17 161 -114 30 -76 73 -242 82 -317 7
-58 39 -208 66 -312 49 -188 57 -220 63 -253 3 -19 8 -44 11 -55 2 -11 29
-139 59 -285 58 -285 90 -429 136 -610 26 -98 54 -212 89 -360 51 -210 121
-443 185 -611 27 -74 164 -392 206 -484 53 -112 118 -260 125 -285 4 -14 11
-29 15 -35 4 -5 13 -26 18 -45 6 -19 25 -73 42 -120 18 -47 46 -123 62 -170
17 -47 39 -110 50 -140 45 -125 118 -387 118 -421 0 -50 -13 -83 -56 -135 -38
-46 -140 -103 -224 -124 -25 -7 -49 -16 -55 -20 -5 -4 -44 -17 -85 -29 -152
-43 -216 -63 -250 -78 -45 -20 -122 -38 -285 -67 -49 -9 -144 -30 -210 -47
-66 -18 -136 -35 -155 -39 -93 -20 -281 -80 -440 -140 -47 -17 -101 -36 -121
-41 -20 -5 -63 -19 -95 -33 -33 -13 -86 -32 -119 -41 -33 -9 -87 -25 -120 -35
-33 -11 -94 -29 -135 -41 -41 -11 -95 -27 -120 -34 -48 -14 -86 -21 -165 -31
-27 -3 -68 -10 -90 -16 -67 -16 -411 -22 -571 -9 -261 21 -577 85 -599 122 -7
10 -4 16 69 148 25 47 46 93 46 103 0 10 4 18 9 18 5 0 11 8 14 18 3 9 15 42
27 72 21 54 56 188 79 301 11 54 9 351 -3 409 -3 14 -10 62 -16 107 -6 45 -18
115 -26 155 -8 40 -19 93 -24 118 -20 107 -104 293 -357 790 -56 110 -109 224
-119 253 -9 28 -43 105 -76 171 -52 105 -57 121 -44 135 12 14 22 49 40 146 2
11 -2 53 -9 92 -6 40 -10 75 -7 77 2 3 -3 26 -11 53 -9 26 -18 71 -22 98 -10
77 -36 168 -51 186 -8 8 -14 27 -14 41 0 14 -7 31 -15 38 -8 7 -15 24 -15 37
0 25 -35 103 -65 146 -8 12 -15 29 -15 37 0 9 -13 34 -30 56 -16 21 -30 47
-30 56 0 9 -13 40 -30 68 -16 28 -30 53 -30 56 0 2 -13 22 -29 44 -16 22 -39
66 -51 97 -27 67 -192 388 -236 460 -19 31 -18 41 11 79 14 18 25 35 25 38 0
14 94 126 106 126 7 0 16 -10 19 -22 25 -83 123 -253 197 -343 9 -11 34 -43
56 -71 52 -66 281 -277 346 -319 157 -100 265 -124 471 -104 120 12 177 30
340 109 116 57 202 125 230 184 11 22 26 45 33 50 19 11 42 69 42 105 0 17 5
40 10 53 6 13 14 82 18 153 8 133 8 137 -38 375 -23 118 -53 218 -85 285 -19
39 -41 89 -49 112 -8 22 -26 63 -40 89 -14 27 -26 55 -26 62 0 13 -28 70 -40
82 -3 3 -10 20 -17 39 -15 40 -119 213 -178 296 -24 33 -57 89 -75 125 -29 61
-31 70 -25 135 4 39 12 78 17 88 12 22 20 13 192 -198z m-5737 126 c23 -6 49
-19 58 -28 24 -23 68 -95 70 -113 3 -27 37 -135 47 -146 5 -7 10 -27 13 -45 2
-19 13 -61 25 -94 18 -52 108 -387 146 -545 7 -30 29 -103 48 -163 20 -59 36
-117 36 -130 0 -12 7 -54 15 -92 58 -262 57 -248 36 -296 -35 -77 -127 -149
-266 -205 -87 -36 -96 -37 -245 -43 -382 -14 -484 -4 -755 68 -122 33 -193 91
-182 148 14 69 42 169 50 174 4 3 10 23 14 45 6 40 46 174 63 209 24 51 110
339 110 369 0 18 7 57 16 87 9 30 27 101 40 159 22 101 62 267 82 340 5 19 24
69 42 110 17 41 34 85 37 97 7 32 37 47 136 67 49 9 103 23 120 31 38 16 183
14 244 -4z m4118 -977 c34 -16 66 -41 86 -67 18 -23 40 -49 49 -57 9 -9 29
-47 44 -84 l28 -69 -28 -24 c-15 -13 -41 -47 -58 -77 -73 -126 -159 -256 -169
-256 -7 0 -41 -20 -76 -45 -36 -25 -70 -45 -76 -45 -41 0 -159 116 -203 200
-7 14 -30 48 -51 75 -20 28 -49 71 -64 97 -25 42 -121 140 -174 175 -12 8 -52
25 -88 37 -37 12 -66 25 -66 29 1 4 1 21 1 39 l0 31 133 -6 c72 -3 155 -2 182
3 28 4 115 17 195 29 80 12 163 25 185 30 67 15 94 12 150 -15z m112 -936
c264 -526 375 -756 389 -807 9 -31 20 -60 24 -66 13 -17 57 -198 95 -392 8
-42 -3 -42 -81 -6 -53 25 -70 28 -169 28 -92 -1 -124 -5 -195 -28 -106 -34
-163 -69 -390 -236 -135 -100 -710 -643 -710 -671 0 -5 -21 0 -47 11 -72 31
-148 49 -209 49 -66 0 -76 -15 -46 -68 24 -43 54 -61 137 -86 33 -9 83 -24
110 -32 28 -9 142 -60 255 -116 112 -55 220 -106 240 -113 19 -7 94 -41 165
-75 228 -109 272 -129 327 -150 29 -12 109 -50 178 -84 69 -34 150 -72 180
-83 30 -12 90 -35 134 -52 155 -61 276 -79 556 -82 63 -1 129 -6 146 -11 31
-8 32 -12 43 -86 38 -270 37 -424 -6 -602 -33 -139 -34 -140 -90 -140 -110 0
-266 68 -472 206 -197 132 -349 212 -484 254 -202 62 -331 91 -379 83 -20 -3
-70 2 -110 10 -123 26 -190 36 -258 41 -36 2 -94 11 -130 20 -36 8 -96 22
-135 31 -38 9 -83 21 -100 26 -199 61 -336 106 -412 134 -160 60 -401 194
-533 298 -41 32 -101 78 -134 103 -122 92 -184 230 -142 315 9 17 16 36 16 42
0 5 14 36 30 69 17 32 30 66 30 76 0 9 7 26 15 36 8 11 15 30 15 43 0 13 20
55 45 93 25 38 45 71 45 74 0 3 23 40 50 83 55 84 94 129 233 272 50 52 121
128 157 170 37 42 80 91 96 109 16 19 85 90 154 158 69 68 130 129 135 135 36
38 212 221 245 255 22 22 40 45 40 50 0 5 21 30 46 54 25 25 52 57 60 72 12
24 178 250 208 285 6 7 22 27 36 45 14 18 70 79 125 135 55 56 105 108 111
115 6 7 26 24 43 38 18 14 60 51 94 83 34 31 67 57 73 57 6 0 17 7 24 15 8 10
17 12 24 6 6 -5 52 -92 103 -193z m-4445 -529 c-4 -510 -14 -643 -54 -686 -30
-32 -114 -58 -144 -45 -27 13 -58 67 -50 88 3 7 8 55 11 106 4 51 12 165 20
253 8 88 17 216 20 285 4 69 8 141 10 160 2 19 7 69 11 110 4 41 9 78 10 83 1
4 2 25 3 47 l1 39 63 3 c113 5 102 54 99 -443z m-3598 82 c17 -10 53 -21 80
-25 28 -3 102 -25 165 -47 438 -157 500 -175 688 -204 117 -19 296 -17 358 3
17 5 64 17 105 27 41 10 85 24 98 32 12 7 26 12 30 9 5 -3 19 1 33 8 38 20
161 48 170 39 4 -4 2 -46 -5 -93 -8 -47 -19 -123 -26 -170 -7 -47 -20 -119
-30 -160 -42 -172 -44 -195 -46 -670 -1 -256 -5 -476 -8 -490 -3 -14 -11 -59
-19 -100 -29 -150 -94 -356 -163 -517 -8 -17 -14 -42 -14 -56 0 -14 -5 -29
-10 -32 -13 -8 -70 -132 -70 -151 0 -8 -4 -14 -9 -14 -6 0 -16 -11 -23 -24
-68 -128 -286 -429 -326 -450 -9 -5 -39 -30 -66 -55 -84 -79 -91 -86 -122
-101 -16 -8 -37 -22 -47 -32 -23 -20 -131 -78 -146 -78 -6 0 -13 12 -17 28 -8
39 -31 99 -64 167 -16 33 -47 105 -70 160 -23 55 -50 114 -60 130 -10 17 -31
55 -48 86 -96 174 -219 302 -352 366 l-79 38 0 410 c-1 367 4 566 24 1110 4
88 8 174 11 190 2 17 6 165 8 330 5 366 5 355 12 355 4 0 21 -8 38 -19z m5041
-152 c17 -6 85 -13 152 -16 91 -4 126 -10 135 -20 14 -18 16 -88 5 -283 -11
-206 -11 -206 -104 -260 -83 -48 -184 -90 -214 -90 -23 0 -24 26 -4 165 8 55
15 132 15 172 0 39 5 75 10 78 6 3 10 28 10 54 0 83 -66 129 -195 136 -38 2
-127 7 -196 11 -145 7 -172 16 -102 33 26 7 68 17 91 24 53 15 353 11 397 -4z
m-493 -120 c191 -10 389 -26 392 -31 2 -5 -14 -369 -18 -398 -2 -14 -4 -53 -5
-87 l-1 -63 -33 0 c-18 0 -38 5 -44 11 -8 8 -56 11 -145 9 -254 -4 -273 -4
-324 4 -29 5 -58 12 -65 17 -15 9 -16 196 -1 314 5 39 9 81 10 95 0 44 12 131
18 141 3 5 14 7 25 4 10 -3 96 -10 191 -16z m-677 -453 c58 -27 106 -73 84
-80 -244 -75 -364 -133 -343 -167 4 -8 9 -22 9 -31 1 -10 12 -29 25 -43 29
-31 23 -38 -19 -24 -24 8 -60 8 -139 0 -207 -22 -366 -10 -502 36 -112 38
-110 36 -98 80 21 78 72 144 138 178 67 35 166 65 211 65 44 0 49 -2 49 -23 0
-36 53 -112 89 -127 44 -18 150 -8 193 18 30 18 51 52 71 113 4 12 21 16 78
17 39 1 74 4 77 7 10 9 26 5 77 -19z m1620 -41 c45 -13 144 -38 221 -54 207
-44 197 -37 209 -141 8 -69 -2 -97 -65 -168 l-49 -57 -118 -28 c-65 -15 -199
-44 -298 -63 -166 -32 -237 -48 -275 -62 -8 -2 -26 -6 -40 -8 -14 -1 -79 -14
-145 -29 -118 -26 -357 -75 -363 -75 -2 0 -1 25 3 55 8 72 -16 129 -76 177
-52 41 -86 55 -154 63 -55 7 -248 51 -280 65 -62 26 -135 50 -168 56 -20 3
-40 10 -43 15 -3 5 -16 9 -30 9 -30 0 -67 18 -59 29 7 12 356 131 384 131 7 0
28 7 47 16 31 15 36 15 52 1 80 -70 234 -93 474 -72 64 6 100 4 135 -6 88 -25
166 -17 273 31 52 23 102 48 110 55 8 7 44 25 80 40 36 15 69 31 75 36 12 12
7 13 100 -16z m2960 -169 c17 -8 42 -19 58 -25 31 -12 35 -40 12 -81 -21 -37
-19 -49 28 -136 23 -43 62 -128 86 -189 41 -105 109 -242 255 -513 36 -68 66
-126 66 -129 0 -3 16 -37 35 -76 57 -117 126 -304 132 -359 6 -48 5 -51 -13
-43 -10 4 -102 9 -204 11 -302 6 -426 41 -830 232 -47 22 -139 64 -205 92 -66
29 -190 88 -275 130 -85 43 -166 81 -180 85 -60 18 -330 156 -330 169 0 8 17
27 37 42 21 16 85 74 143 130 58 55 132 125 165 155 33 30 91 84 130 121 102
96 205 178 294 233 9 6 18 13 21 16 15 18 150 99 164 99 10 0 27 6 39 12 12 7
51 21 87 30 78 21 237 18 285 -6z m-2238 -94 c7 -5 -14 -34 -63 -87 -41 -44
-93 -105 -116 -135 -23 -30 -60 -76 -83 -101 -51 -58 -157 -252 -190 -349 -24
-71 -45 -109 -45 -82 0 6 -13 18 -29 26 -27 14 -34 13 -126 -24 -125 -51 -258
-90 -310 -90 -22 0 -98 7 -169 15 -71 8 -168 18 -215 20 -47 3 -131 10 -186
15 -55 5 -239 9 -409 10 -170 0 -312 2 -316 5 -10 6 -386 23 -645 30 -464 11
-629 16 -890 27 -148 6 -298 12 -331 13 -34 1 -67 6 -73 9 -16 10 -13 53 6 82
13 21 14 30 5 45 -31 49 0 120 62 144 23 9 91 44 151 77 61 34 130 72 155 85
25 14 52 31 61 39 8 8 20 14 26 14 6 0 13 4 15 9 4 10 84 61 97 61 6 0 34 14
63 31 29 18 82 47 117 66 l63 35 27 -25 c28 -26 103 -55 213 -81 78 -19 409
-21 555 -3 25 3 45 1 49 -5 8 -13 -22 -43 -66 -66 -41 -23 -49 -56 -17 -74 25
-14 129 -53 197 -73 25 -7 61 -20 81 -29 20 -8 69 -22 109 -30 39 -8 97 -27
127 -41 30 -14 62 -25 70 -25 8 0 61 -15 117 -34 120 -40 163 -47 214 -35 20
4 100 18 177 30 77 11 181 32 230 46 50 13 101 26 115 29 14 2 50 8 80 13 112
17 227 42 290 61 36 11 89 21 118 22 30 1 56 6 58 10 3 4 15 8 26 8 23 0 52 8
251 67 120 35 131 40 157 77 19 25 31 56 35 91 4 28 10 57 14 63 3 6 31 12 61
15 30 2 60 4 65 5 6 1 15 -2 22 -6z m-2309 -111 c141 -58 283 -103 414 -132
81 -17 152 -35 159 -40 17 -10 13 -87 -6 -115 -22 -33 -51 -47 -74 -35 -10 6
-34 12 -52 14 -19 2 -41 6 -49 10 -8 3 -46 13 -84 22 -38 9 -101 28 -140 42
-39 14 -94 29 -123 33 -28 4 -74 20 -103 34 -28 14 -61 26 -73 26 -41 0 -48
13 -27 45 13 20 20 47 20 79 l0 49 45 -6 c25 -4 67 -15 93 -26z m-2081 -506
c21 -2 52 -4 69 -4 30 -1 32 -4 38 -48 15 -101 51 -144 123 -148 26 -1 58 -3
71 -4 20 -1 22 -6 22 -54 0 -30 -6 -123 -14 -208 -7 -85 -14 -185 -15 -224 0
-38 -6 -96 -12 -128 -5 -32 -9 -84 -8 -115 3 -96 -11 -542 -21 -642 -5 -52
-11 -176 -15 -275 -3 -99 -8 -223 -11 -275 l-6 -95 -46 -20 c-26 -11 -62 -34
-82 -51 -19 -16 -96 -74 -170 -128 -74 -55 -140 -105 -146 -112 -6 -8 -14 -14
-18 -14 -3 0 -16 -9 -28 -19 -13 -11 -34 -29 -48 -41 -14 -12 -72 -53 -130
-92 -58 -39 -121 -85 -140 -102 -100 -90 -142 -119 -159 -109 -27 17 -95 122
-154 238 -113 221 -140 296 -237 640 -4 17 -15 57 -24 90 -9 33 -21 70 -27 81
-13 25 -9 59 7 59 6 0 40 19 76 43 36 23 70 42 75 42 4 0 29 17 54 38 26 20
57 44 70 52 42 27 244 216 255 239 6 12 22 34 36 49 13 15 33 40 43 57 10 16
22 34 27 40 22 27 88 134 88 142 0 6 12 24 28 40 79 88 113 148 152 268 12 39
29 81 36 95 21 40 72 199 103 327 35 139 51 241 51 316 0 59 5 70 31 62 9 -3
35 -8 56 -10z m3885 -258 c-12 -74 1 -213 22 -237 7 -8 26 -37 41 -65 38 -69
124 -171 158 -185 15 -7 44 -29 65 -49 45 -42 106 -86 171 -122 102 -57 117
-65 143 -83 l27 -18 -7 -151 c-9 -204 -9 -427 2 -887 6 -212 9 -561 9 -777 -1
-386 -1 -393 -23 -435 -12 -24 -25 -45 -29 -48 -4 -3 -16 -17 -26 -31 -35 -45
-40 -38 -41 57 -1 51 -4 97 -8 103 -13 20 -68 43 -90 37 -12 -3 -32 -22 -43
-43 -12 -21 -42 -58 -67 -83 -25 -25 -58 -63 -73 -85 -15 -22 -37 -49 -48 -60
-12 -11 -64 -83 -116 -160 -88 -130 -115 -171 -225 -341 -23 -35 -65 -95 -93
-134 l-53 -71 -4 -112 c-3 -62 -6 -154 -8 -205 -3 -71 -7 -97 -21 -112 -10
-11 -22 -20 -27 -20 -9 0 -2 930 11 1320 11 340 2 878 -16 1030 -3 30 -5 60
-3 65 1 6 4 52 6 103 1 51 5 125 8 165 3 39 8 107 11 151 3 43 8 82 11 87 4 8
7 144 18 977 3 156 0 297 -5 315 -10 36 -5 41 56 58 22 6 69 26 105 44 75 38
163 75 168 70 2 -2 -1 -33 -6 -68z m-2527 38 c121 -2 258 -6 305 -10 47 -4
157 -9 245 -11 88 -2 196 -6 240 -9 44 -3 215 -7 380 -9 200 -3 332 -9 395
-19 52 -8 133 -16 180 -16 47 -1 101 -6 120 -11 19 -5 42 -8 50 -7 51 6 210
-28 211 -46 2 -22 1 -70 -7 -417 -4 -190 -8 -435 -9 -545 -1 -198 -10 -380
-25 -505 -5 -36 -6 -227 -2 -425 8 -488 8 -645 -1 -1030 -4 -181 -10 -499 -12
-705 -4 -356 -14 -691 -20 -698 -4 -5 -216 -5 -220 0 -6 6 -8 83 -2 98 24 70
44 186 36 214 -11 40 -72 71 -121 62 -39 -7 -286 -9 -297 -2 -14 9 -178 26
-411 41 -129 9 -243 18 -255 20 -46 10 -339 25 -610 30 -159 4 -330 11 -380
16 -302 34 -608 29 -623 -10 -3 -9 -11 -20 -18 -26 -14 -11 -31 -108 -33 -190
-2 -70 -21 -153 -39 -168 -20 -16 -208 -15 -224 1 -9 9 -11 64 -9 200 2 103 4
271 5 374 0 104 4 188 8 188 4 0 7 36 7 79 0 44 2 84 5 89 7 11 17 156 16 219
-1 24 4 61 10 85 7 23 13 94 15 157 2 64 6 148 9 186 6 61 15 220 18 280 0 11
4 142 10 290 18 529 25 683 37 750 5 28 10 129 11 225 1 96 4 193 6 215 3 22
6 150 8 285 2 135 7 297 10 360 3 63 8 165 11 225 3 61 8 124 11 142 l5 31
220 0 c122 0 223 3 226 6 4 3 70 3 147 0 78 -3 240 -7 361 -9z m-3193 -626
c31 -21 80 -62 110 -91 73 -72 214 -302 243 -397 4 -13 24 -60 44 -105 38 -82
83 -218 165 -491 54 -181 65 -219 76 -265 5 -19 24 -75 43 -125 19 -49 41
-106 48 -125 18 -47 151 -308 185 -362 41 -65 166 -216 226 -274 86 -83 207
-168 291 -204 79 -34 101 -50 79 -58 -7 -2 -19 -17 -28 -33 -8 -17 -23 -40
-32 -52 -38 -51 -233 -234 -302 -286 -41 -30 -76 -58 -78 -63 -2 -4 -20 -17
-40 -30 -20 -12 -98 -62 -172 -111 -74 -49 -148 -97 -165 -107 -183 -105 -243
-140 -318 -186 -49 -30 -91 -54 -95 -54 -3 0 -65 -29 -137 -64 -127 -63 -207
-96 -233 -96 -11 0 -12 46 -8 242 3 134 5 298 5 365 l1 122 34 23 c49 33 207
217 284 331 106 156 113 167 147 237 52 102 62 130 85 215 11 44 25 88 30 97
6 10 10 23 10 30 0 6 7 19 15 28 9 10 16 37 17 66 0 38 -4 51 -22 66 -28 23
-54 20 -58 -7 -2 -11 -26 -78 -54 -150 -136 -354 -194 -463 -315 -592 -29 -31
-53 -62 -53 -69 0 -7 -6 -17 -13 -21 -7 -4 -30 -30 -51 -56 -24 -30 -43 -44
-48 -39 -10 10 -13 1191 -4 1267 3 22 6 363 7 757 2 518 5 716 13 711 6 -4 36
-24 68 -44z m6520 -247 c34 -16 90 -36 123 -46 33 -10 110 -33 170 -52 61 -19
135 -42 165 -51 30 -8 69 -21 85 -29 44 -19 105 -34 143 -34 18 0 46 -7 62
-15 16 -8 68 -17 117 -20 129 -8 217 -16 226 -22 25 -15 140 -33 202 -32 57 1
96 -6 209 -41 77 -23 159 -51 184 -61 24 -11 52 -19 62 -19 9 0 23 -6 29 -14
7 -8 27 -18 44 -22 18 -4 46 -17 63 -30 17 -13 37 -24 45 -24 8 0 33 -16 54
-35 46 -41 235 -175 246 -175 5 0 30 -13 56 -28 63 -37 127 -63 183 -74 92
-18 100 -20 100 -27 0 -4 -29 -54 -65 -110 -36 -57 -65 -111 -65 -121 0 -31
18 -68 49 -101 l30 -31 -26 -52 c-25 -48 -101 -182 -163 -287 -15 -26 -33 -64
-40 -85 -7 -22 -23 -63 -36 -92 l-23 -53 -193 6 c-106 3 -308 8 -448 10 -140
2 -457 8 -705 15 -247 6 -495 9 -550 5 -55 -3 -143 -8 -195 -10 -95 -5 -165
-12 -208 -21 -22 -4 -22 -3 -21 73 1 43 -1 191 -4 328 -3 138 -6 313 -5 390 0
77 -1 185 -3 240 -12 370 6 775 36 775 2 0 32 -13 67 -28z m6401 -644 c44 -60
164 -301 205 -413 22 -60 70 -200 106 -310 63 -190 89 -276 137 -445 55 -192
113 -340 214 -537 l66 -131 -22 -35 c-13 -19 -39 -45 -58 -58 -20 -13 -50 -37
-68 -53 -18 -15 -39 -26 -46 -23 -7 3 -19 25 -26 48 -7 24 -28 74 -47 110 -19
36 -34 69 -34 74 0 5 -9 27 -19 49 -11 23 -34 77 -51 121 -17 44 -35 87 -39
95 -5 9 -12 30 -15 48 -4 17 -12 34 -17 37 -5 4 -9 16 -9 29 0 12 -3 26 -7 30
-5 4 -13 29 -20 54 -6 26 -32 106 -57 177 -26 72 -56 157 -67 190 -21 61 -97
235 -169 389 -22 48 -40 89 -40 92 0 3 -6 20 -14 37 -7 18 -23 57 -35 87 -12
30 -33 76 -47 101 -13 26 -24 55 -24 66 0 11 -9 37 -19 59 -18 36 -19 40 -4
52 9 6 25 12 35 12 11 0 29 11 42 24 23 22 88 54 113 55 7 1 23 -14 36 -31z
m-280 -112 c9 -13 25 -51 36 -86 12 -34 25 -68 30 -74 4 -6 21 -42 36 -81 15
-38 45 -106 67 -150 22 -44 55 -118 75 -165 19 -47 43 -101 53 -120 39 -78
122 -295 135 -355 4 -16 22 -68 41 -115 18 -47 38 -105 45 -130 6 -25 14 -49
19 -55 4 -5 10 -23 14 -40 4 -16 13 -43 21 -60 7 -16 23 -57 35 -90 29 -77 48
-125 60 -147 6 -10 10 -25 10 -33 0 -8 4 -23 10 -33 17 -31 39 -86 60 -146 23
-68 19 -81 -45 -132 -20 -16 -62 -53 -93 -82 -30 -28 -58 -52 -62 -52 -4 0
-31 -16 -59 -35 -28 -19 -55 -35 -60 -35 -5 0 -26 35 -46 78 -20 42 -40 84
-44 92 -4 8 -20 56 -35 105 -70 226 -86 274 -110 325 -14 30 -26 69 -26 85 0
17 -6 39 -14 50 -7 11 -23 46 -34 77 -12 32 -26 66 -31 75 -5 10 -16 38 -25
63 -66 200 -144 422 -150 427 -3 3 -6 12 -6 19 0 8 -11 37 -24 66 -13 29 -27
64 -31 77 -4 14 -22 56 -40 95 -18 39 -37 85 -43 101 -6 17 -27 75 -47 130
-46 128 -86 227 -97 239 -21 25 -8 44 35 51 23 4 50 12 60 17 34 17 202 66
233 67 23 1 36 -6 47 -23z m-413 -123 c22 -36 55 -123 121 -312 24 -72 97
-250 144 -356 32 -73 85 -220 114 -320 12 -38 34 -101 50 -140 53 -129 109
-279 130 -347 11 -37 29 -87 40 -111 11 -25 30 -80 42 -123 27 -102 70 -236
79 -249 4 -5 11 -25 15 -44 4 -19 16 -48 26 -65 10 -17 19 -37 19 -45 0 -17
-38 -46 -108 -83 -228 -119 -243 -125 -265 -100 -16 19 -67 141 -67 161 0 7
-6 25 -14 39 -8 15 -20 47 -27 72 -7 25 -21 63 -30 85 -10 22 -40 108 -68 190
-53 158 -98 284 -126 350 -9 21 -30 84 -46 140 -17 55 -39 119 -49 142 -11 24
-20 48 -20 54 0 6 -7 23 -15 37 -29 54 -103 258 -150 417 -15 50 -37 110 -50
135 -12 25 -27 56 -33 70 -18 40 -90 294 -94 331 -3 33 -2 34 47 46 103 26
261 59 297 62 9 0 26 -16 38 -36z m-417 -115 c9 -29 29 -96 44 -148 14 -52 43
-131 63 -175 20 -44 51 -123 68 -175 82 -252 104 -313 126 -362 13 -29 29 -69
36 -88 7 -19 26 -71 42 -115 16 -44 35 -100 43 -125 7 -25 25 -76 40 -115 14
-38 33 -90 42 -115 8 -25 21 -58 28 -75 7 -16 20 -55 30 -85 9 -30 20 -64 25
-75 4 -11 15 -40 23 -65 29 -85 136 -395 151 -435 8 -22 15 -45 16 -51 0 -13
-61 -40 -125 -54 -27 -6 -78 -18 -113 -26 -49 -13 -66 -13 -77 -4 -8 7 -28 55
-45 106 -16 52 -34 102 -40 112 -5 9 -20 49 -34 87 -13 39 -59 153 -101 255
-82 199 -84 205 -139 355 -80 215 -98 264 -147 390 -28 72 -59 148 -69 170
-10 22 -24 60 -31 85 -7 25 -20 59 -29 75 -9 17 -27 59 -39 95 -13 36 -26 70
-30 75 -4 6 -17 37 -30 70 -12 33 -31 79 -42 103 -10 23 -19 47 -19 52 0 6 -9
29 -19 53 -35 75 -51 119 -51 137 0 12 17 24 58 38 103 38 186 62 217 63 17 0
39 4 50 9 47 20 61 13 78 -42z m-421 -173 c21 -49 46 -106 54 -125 8 -19 19
-43 24 -52 6 -10 10 -23 10 -30 0 -7 16 -43 34 -80 19 -36 40 -83 46 -105 7
-21 28 -68 47 -105 18 -36 33 -71 33 -77 0 -12 71 -191 107 -271 14 -30 31
-75 39 -100 11 -41 45 -128 79 -205 7 -16 16 -41 20 -55 11 -39 96 -254 105
-265 4 -5 10 -21 13 -35 6 -27 49 -145 74 -200 42 -94 53 -123 87 -230 19 -63
42 -136 50 -162 l14 -48 -37 -9 c-59 -14 -203 -31 -264 -31 -55 0 -56 1 -65
32 -13 44 -132 340 -142 353 -4 6 -20 42 -35 80 -14 39 -30 79 -35 90 -51 117
-79 184 -115 280 -14 39 -31 81 -37 95 -6 14 -17 39 -24 55 -7 17 -22 51 -33
76 -11 26 -23 60 -27 75 -6 28 -83 229 -171 449 -46 115 -97 253 -162 440 -22
61 -42 118 -46 127 -5 13 2 21 32 34 64 28 257 93 272 91 7 -1 31 -42 53 -92z
m-398 -57 c7 -13 19 -41 26 -63 21 -67 72 -209 80 -220 3 -5 12 -30 19 -55 8
-25 31 -85 52 -135 44 -104 146 -356 161 -400 6 -16 19 -50 28 -75 10 -25 28
-72 40 -105 12 -33 33 -84 46 -113 13 -29 24 -57 24 -61 0 -7 86 -216 130
-316 4 -11 23 -54 41 -95 17 -41 40 -94 50 -117 31 -71 120 -311 134 -360 5
-19 0 -23 -37 -34 -32 -8 -183 -8 -225 1 0 0 -7 24 -13 53 -7 28 -28 97 -46
152 -31 95 -44 127 -100 253 -13 29 -24 59 -24 66 0 7 -10 26 -22 41 -12 15
-62 89 -113 164 -69 103 -102 143 -137 166 -38 25 -47 37 -52 70 -4 22 -20 92
-35 155 -27 108 -38 171 -76 445 -20 140 -35 587 -20 597 20 15 55 8 69 -14z
m-8944 -113 c0 -57 -4 -171 -10 -252 -5 -82 -14 -263 -20 -403 -15 -339 -20
-423 -26 -429 -2 -2 -19 -5 -38 -5 -28 -1 -48 -15 -117 -80 -157 -147 -174
-162 -214 -192 -61 -44 -162 -130 -235 -198 -36 -34 -97 -88 -135 -121 -37
-33 -81 -71 -96 -85 -15 -14 -47 -41 -70 -60 -23 -19 -63 -53 -88 -75 -25 -22
-51 -44 -57 -50 -7 -5 -72 -59 -145 -120 -74 -60 -199 -174 -279 -252 -80 -79
-154 -149 -165 -156 -14 -10 -69 -16 -175 -20 -85 -3 -166 -10 -179 -15 -36
-13 -78 -3 -86 22 -4 11 -10 111 -12 222 l-5 201 38 6 c22 4 53 7 71 7 17 0
34 4 37 9 3 4 19 11 35 14 36 8 342 159 439 218 41 24 105 61 144 82 38 20 95
54 126 75 31 22 89 58 127 81 105 63 169 104 201 128 33 26 82 62 151 113 50
37 240 224 283 280 14 17 32 44 40 59 8 14 25 40 38 58 12 17 19 38 16 47 -6
17 -85 66 -106 66 -7 0 -58 22 -113 49 -77 38 -119 67 -182 127 -73 68 -99
104 -75 104 12 0 107 77 209 170 12 11 25 20 28 20 3 0 18 8 33 19 15 10 59
38 97 62 39 24 80 53 92 64 81 74 114 99 158 123 28 15 54 37 60 49 5 12 16
24 25 28 45 17 150 88 158 107 2 5 8 8 13 8 5 0 9 -47 9 -105z m8788 38 c-3
-39 -18 -89 -46 -152 -23 -51 -42 -98 -42 -104 0 -6 -8 -29 -19 -51 -10 -23
-21 -48 -25 -56 -3 -8 -10 -22 -15 -30 -6 -8 -31 -60 -57 -115 -26 -55 -55
-111 -64 -125 -9 -14 -34 -68 -54 -120 -33 -83 -88 -203 -161 -350 -13 -25
-26 -55 -30 -68 -3 -12 -32 -71 -64 -131 -32 -59 -63 -123 -71 -142 -7 -19
-29 -68 -48 -109 -19 -41 -43 -95 -54 -120 -80 -174 -161 -332 -173 -337 -16
-5 -27 -3 -180 41 -49 14 -115 31 -145 38 -48 11 -55 16 -58 39 -2 15 6 44 17
65 12 21 21 45 21 52 0 14 10 39 62 152 44 94 118 269 118 277 0 3 20 38 44
77 39 64 316 614 316 628 0 3 34 77 75 164 76 160 83 175 122 249 12 22 24 47
27 55 4 8 21 40 39 70 31 53 35 56 92 68 158 35 241 56 255 63 19 11 79 27
104 28 16 1 18 -5 14 -56z m-1533 -3 c44 -10 81 -19 82 -19 3 -1 -92 -186
-107 -211 -5 -8 -36 -69 -68 -135 -32 -66 -85 -163 -117 -215 -32 -52 -82
-140 -110 -195 -29 -55 -68 -129 -88 -165 -20 -36 -51 -90 -67 -120 -53 -95
-64 -113 -111 -185 -25 -38 -58 -92 -72 -120 -49 -97 -44 -95 -123 -32 -38 31
-74 57 -80 57 -6 0 -17 6 -23 14 -9 10 -2 25 30 65 22 28 45 51 50 51 5 0 9 6
9 13 0 6 18 35 39 62 56 70 129 196 221 380 17 33 34 67 39 75 22 34 81 166
81 179 0 19 75 165 121 236 21 33 49 81 62 107 13 26 35 62 48 80 14 18 33 50
43 71 15 33 21 38 39 32 12 -4 58 -15 102 -25z m223 -40 c32 -9 94 -15 242
-25 133 -9 456 -6 490 4 44 14 80 14 80 1 0 -5 -33 -76 -73 -157 -40 -81 -85
-177 -101 -213 -15 -36 -47 -105 -71 -155 -210 -442 -228 -478 -240 -495 -7
-8 -18 -31 -25 -50 -7 -19 -23 -48 -35 -65 -24 -34 -145 -275 -145 -290 0 -5
-18 -48 -41 -95 -50 -104 -59 -125 -94 -220 -38 -103 -39 -104 -111 -86 -80
20 -206 66 -280 104 -62 32 -84 61 -59 82 7 6 16 22 19 36 4 14 29 71 55 127
27 56 52 113 56 127 4 14 20 48 35 75 15 28 69 133 120 235 51 102 96 192 101
200 4 8 31 62 60 120 29 58 63 122 77 144 13 21 39 73 57 115 18 42 60 133 94
203 33 70 61 130 61 133 0 3 9 15 20 27 26 29 27 78 1 78 -13 0 -25 -16 -41
-52 -44 -105 -52 -124 -75 -173 -13 -27 -33 -72 -46 -100 -38 -87 -97 -208
-135 -274 -20 -36 -61 -115 -91 -175 -30 -61 -70 -140 -89 -176 -35 -68 -195
-389 -284 -573 -29 -59 -56 -110 -61 -113 -13 -8 -170 78 -261 144 -96 68
-114 87 -100 104 5 7 27 45 47 83 21 39 42 73 47 76 8 5 24 34 89 154 12 22
32 54 45 72 13 17 24 38 24 45 0 8 4 18 10 24 5 5 20 30 33 54 35 67 120 228
151 284 14 27 30 54 35 60 11 14 62 107 116 211 97 185 177 327 203 358 17 19
42 21 90 7z m1323 -268 c4 -59 17 -168 29 -242 40 -246 40 -250 19 -292 -10
-20 -19 -42 -19 -48 0 -6 -27 -68 -61 -138 -119 -250 -169 -364 -210 -477 -17
-49 -54 -134 -81 -188 -27 -54 -58 -121 -69 -150 -11 -29 -34 -79 -50 -112
-16 -33 -29 -67 -29 -75 0 -8 -9 -26 -20 -40 -11 -14 -20 -31 -20 -37 0 -17
-25 -16 -86 1 -27 8 -89 22 -139 32 -90 17 -149 39 -143 52 2 4 30 63 64 132
34 69 64 138 68 153 4 16 18 46 31 68 14 21 25 42 25 46 0 15 53 142 87 208
68 133 113 226 113 233 0 3 35 79 79 167 90 185 121 252 121 262 0 8 37 86
146 306 30 60 54 115 54 122 0 7 9 24 20 38 11 14 20 31 20 39 0 18 30 61 38
53 4 -3 9 -54 13 -113z m-3371 -227 c234 -3 578 -7 765 -9 343 -4 465 -11 465
-26 0 -10 -39 -97 -106 -238 -58 -123 -88 -170 -174 -277 -163 -204 -167 -235
-38 -304 37 -20 90 -57 117 -83 l49 -47 -39 -108 c-22 -59 -60 -166 -84 -238
-24 -71 -64 -184 -90 -250 -45 -116 -82 -215 -140 -375 -15 -41 -32 -81 -38
-88 -9 -11 -44 -12 -171 -8 -360 13 -729 18 -1472 20 -429 2 -786 6 -792 10
-20 12 -14 41 18 84 17 23 30 44 30 47 0 3 34 61 75 130 41 69 77 136 81 151
4 14 13 28 20 31 8 3 14 11 14 19 0 8 3 14 8 14 7 0 13 9 42 66 8 16 25 40 38
54 12 14 32 44 43 67 11 24 25 45 30 49 5 3 9 12 9 21 0 9 9 26 19 37 35 38
141 228 141 253 0 3 11 20 24 37 13 17 26 41 30 54 4 12 12 22 17 22 5 0 13 8
16 18 4 9 26 49 50 88 24 39 43 74 43 78 0 3 33 54 72 113 83 122 73 108 152
239 33 55 63 100 68 102 4 2 33 47 63 100 83 147 97 159 177 155 24 -1 234 -5
468 -8z m-625 -4 c3 -6 -15 -42 -41 -82 -25 -40 -48 -79 -52 -88 -3 -9 -22
-41 -42 -71 -21 -30 -45 -71 -55 -90 -10 -19 -21 -37 -25 -40 -12 -8 -103
-151 -128 -200 -12 -25 -45 -76 -73 -115 -27 -38 -55 -81 -60 -95 -6 -13 -34
-65 -63 -115 -29 -49 -81 -142 -116 -205 -55 -101 -109 -191 -172 -282 -10
-15 -18 -30 -18 -33 0 -3 -34 -58 -76 -121 -41 -64 -123 -195 -181 -292 -58
-98 -108 -179 -110 -182 -7 -8 -170 -10 -943 -13 -399 -2 -795 0 -880 4 -85 4
-326 10 -535 14 -209 4 -381 8 -382 10 -8 6 83 111 251 289 22 22 77 84 123
136 47 52 95 103 109 113 13 10 24 25 24 32 0 8 6 17 13 22 34 21 528 -2 817
-38 109 -14 361 -29 564 -35 88 -2 161 -6 164 -8 2 -3 -1 -77 -8 -165 -6 -88
-9 -168 -6 -178 9 -29 41 -44 71 -33 15 6 97 11 183 12 90 1 160 6 164 11 3 6
2 20 -2 33 -5 12 -6 34 -2 48 8 28 66 76 93 76 34 0 39 25 45 225 6 215 7 218
78 309 17 22 40 54 51 73 35 58 138 203 152 214 7 6 13 19 13 28 1 15 7 26 45
76 57 75 85 117 85 126 0 7 10 9 28 4 15 -5 34 -8 42 -7 8 1 60 3 114 5 78 4
101 8 108 21 5 9 14 16 19 16 6 0 29 21 52 47 23 26 51 56 62 68 54 53 57 68
66 269 4 105 8 193 9 195 0 2 16 1 36 -1 20 -2 86 1 148 8 141 15 233 17 241
5z m7142 -209 c3 -225 13 -662 19 -767 4 -65 13 -550 17 -863 1 -122 -1 -196
-8 -201 -5 -5 -44 -9 -85 -10 -41 -2 -129 -6 -195 -10 -156 -10 -161 -8 -157
49 1 8 -3 32 -9 52 -5 21 -10 54 -10 75 -1 21 -5 65 -10 98 -4 33 -11 87 -14
120 -3 33 -12 96 -20 140 -16 87 -18 107 -36 265 -7 59 -23 134 -36 170 -37
98 -37 95 -9 113 14 10 59 46 100 82 41 36 78 65 83 65 11 0 68 60 111 116 30
39 30 42 16 70 -9 16 -24 38 -34 49 -27 30 -124 231 -145 300 -10 33 -29 85
-42 115 -24 53 -48 164 -39 178 2 4 116 8 253 9 l248 1 2 -216z m-3041 -208
c26 -96 37 -210 23 -236 -6 -12 -15 -25 -19 -28 -10 -8 -105 -171 -134 -230
-45 -92 -86 -203 -86 -234 0 -42 -75 -257 -131 -373 -27 -57 -49 -108 -49
-114 0 -8 -15 -9 -47 -5 -80 12 -113 25 -113 48 0 20 46 145 61 163 4 6 15 33
25 60 16 49 34 91 101 234 32 69 44 98 73 181 7 19 33 78 56 131 24 53 44 102
44 109 0 6 8 24 18 38 10 15 23 38 29 52 6 14 34 72 62 130 28 58 51 111 51
119 0 30 24 1 36 -45z m-8975 -386 c-21 -223 -37 -535 -36 -693 1 -197 20
-238 110 -237 24 1 62 -5 82 -12 40 -14 106 -12 188 5 28 5 60 12 73 15 12 2
22 11 22 18 0 17 87 96 105 96 7 0 17 6 23 13 11 13 25 112 27 187 l1 44 174
2 c96 1 200 -2 230 -7 30 -6 120 -12 200 -14 147 -3 170 -5 170 -13 0 -6 -63
-93 -85 -117 -11 -12 -63 -68 -115 -125 -52 -57 -151 -161 -220 -231 l-125
-127 -1137 -1 c-625 0 -1144 2 -1152 5 -24 9 -20 19 30 66 26 24 76 72 113
108 67 66 119 112 226 196 33 27 62 51 65 55 3 3 39 35 81 70 161 136 177 149
201 171 14 13 54 48 89 78 35 30 84 74 109 96 113 103 179 162 224 199 98 81
222 190 276 241 30 29 56 51 59 49 2 -3 -1 -64 -8 -137z m9134 52 c23 -25 17
-68 -25 -205 -42 -137 -44 -147 -80 -335 -17 -91 -42 -221 -55 -290 -13 -69
-26 -136 -28 -150 -3 -14 -12 -52 -22 -85 -9 -33 -27 -99 -39 -146 -12 -48
-27 -94 -35 -102 -11 -14 -57 -16 -411 -13 -219 2 -403 7 -409 10 -11 7 96
223 151 306 9 14 19 36 23 50 3 14 14 35 23 47 l17 22 85 -19 c47 -10 105 -26
130 -35 25 -9 59 -18 75 -21 17 -2 45 -7 62 -10 51 -10 77 1 91 39 7 18 12 39
12 46 0 7 13 40 28 74 16 34 59 141 96 237 38 96 72 184 77 195 4 11 17 46 28
77 11 32 29 71 40 87 12 16 21 36 21 44 0 9 4 19 10 22 16 10 100 144 100 160
0 21 14 19 35 -5z m122 -182 c90 -137 197 -388 228 -536 14 -68 39 -121 58
-122 4 0 24 -11 45 -25 26 -17 52 -24 87 -25 120 -3 121 -4 143 -78 11 -37 34
-121 52 -187 17 -66 34 -128 36 -137 5 -17 -8 -18 -163 -18 -183 -1 -432 -7
-640 -15 -73 -3 -144 -3 -158 1 -31 8 -31 23 -5 123 52 201 80 336 84 396 1
17 5 35 8 40 4 6 16 64 29 130 12 66 25 138 29 160 12 60 51 217 60 240 5 11
16 41 26 68 9 26 22 47 28 47 6 0 30 -28 53 -62z m-2565 -134 c33 -25 48 -42
45 -53 -3 -9 -15 -41 -27 -71 -12 -30 -29 -77 -37 -105 -9 -27 -37 -113 -63
-190 -74 -217 -131 -392 -155 -480 l-22 -80 -81 -2 c-59 -1 -84 2 -92 12 -10
12 -2 45 34 157 46 140 56 168 81 218 7 14 18 43 25 65 7 22 16 45 20 50 4 6
28 69 54 140 25 72 54 150 62 175 9 25 25 68 34 95 44 124 45 125 122 69z
m4682 -28 c3 -14 17 -105 31 -203 13 -98 29 -194 35 -213 19 -64 90 -505 90
-556 0 -4 -660 -7 -1015 -5 -110 1 -272 5 -360 9 l-160 7 -6 45 c-3 25 -12 61
-21 80 -8 20 -18 56 -22 81 -4 25 -15 68 -25 95 -11 28 -17 63 -14 81 6 35 13
38 153 53 47 5 110 14 140 19 30 5 86 14 124 20 37 6 72 13 76 16 4 3 78 25
165 50 86 24 168 54 182 65 14 11 36 20 48 20 30 0 168 66 191 91 9 10 25 19
36 19 10 0 26 8 36 18 27 25 127 92 139 92 6 0 18 11 27 25 23 35 67 77 102
97 39 22 41 22 48 -6z m-4208 -233 c111 -52 256 -102 374 -127 90 -19 151 -35
250 -63 47 -13 113 -30 146 -38 34 -7 84 -22 110 -33 27 -11 57 -23 67 -26 22
-7 22 -27 -1 -68 -30 -53 -179 -351 -185 -369 -9 -28 -328 -33 -967 -15 -252
6 -420 15 -431 22 -7 4 9 76 27 119 6 17 26 77 44 135 46 153 97 305 108 326
6 11 23 55 38 99 15 44 33 91 40 105 7 14 20 41 29 61 l16 36 113 -56 c62 -31
162 -79 222 -108z"/>
<path d="M10251 14323 c-87 -164 -101 -181 -231 -293 -47 -40 -87 -76 -90 -79
-3 -3 -21 -14 -41 -24 -126 -64 -346 -365 -423 -578 -52 -145 -102 -241 -146
-284 -43 -42 -49 -55 -25 -55 48 0 138 141 190 298 33 100 54 139 160 302 76
115 222 280 249 280 16 0 157 110 211 164 66 67 95 107 139 191 20 39 48 82
62 98 26 28 27 57 0 57 -7 0 -32 -35 -55 -77z"/>
<path d="M13472 14090 c-23 -32 -42 -62 -42 -65 0 -4 -13 -26 -30 -49 -16 -24
-48 -90 -71 -147 -50 -125 -119 -256 -169 -324 -43 -58 -292 -303 -336 -331
-16 -10 -63 -48 -104 -84 -41 -37 -106 -91 -145 -122 -74 -58 -140 -125 -171
-174 -10 -16 -29 -40 -42 -54 -35 -39 -130 -210 -162 -293 -16 -41 -41 -115
-55 -164 -14 -48 -30 -97 -35 -108 -4 -11 -18 -54 -30 -95 -58 -195 -143 -348
-267 -480 -24 -25 -43 -48 -43 -52 0 -4 -25 -25 -55 -46 -31 -22 -81 -63 -113
-91 -31 -27 -72 -62 -90 -77 -38 -31 -67 -83 -75 -136 -8 -55 5 -47 36 21 26
57 41 73 137 151 147 119 251 223 336 334 36 48 140 261 154 316 4 19 18 67
30 105 11 39 28 95 36 125 47 168 108 298 202 435 75 109 160 201 257 277 28
22 70 59 95 82 25 23 72 62 105 86 77 57 305 279 356 347 48 64 132 222 154
288 26 77 92 202 151 287 30 43 54 82 54 88 0 26 -30 5 -68 -50z"/>
<path d="M11726 13958 c-54 -63 -101 -155 -141 -276 -43 -128 -149 -382 -182
-434 -13 -21 -23 -41 -23 -46 0 -5 -12 -20 -27 -34 -16 -14 -77 -76 -138 -138
-60 -61 -128 -126 -150 -143 -132 -103 -415 -362 -415 -379 0 -5 -8 -18 -19
-29 -36 -39 -72 -120 -97 -215 -27 -108 -31 -164 -11 -164 8 0 17 27 24 73 14
90 59 204 108 277 40 60 239 250 378 363 98 79 318 292 359 347 14 19 35 51
46 72 33 59 139 319 167 409 33 110 108 259 152 303 19 19 32 39 28 45 -11 18
-22 13 -59 -31z"/>
<path d="M14114 13615 c-38 -39 -68 -94 -144 -260 -10 -22 -37 -80 -59 -128
-23 -49 -41 -90 -41 -93 0 -8 -84 -146 -147 -243 -60 -91 -268 -306 -453 -466
-206 -179 -223 -195 -264 -246 -11 -13 -40 -49 -66 -79 -25 -30 -59 -76 -76
-101 -23 -35 -124 -232 -176 -341 -18 -39 -37 -102 -32 -110 3 -4 1 -8 -4 -8
-14 0 -53 -96 -46 -113 3 -9 -3 -24 -13 -34 -11 -11 -33 -60 -51 -109 -39
-113 -155 -323 -232 -423 -94 -119 -162 -197 -200 -227 -19 -15 -57 -49 -85
-75 -27 -26 -78 -62 -112 -80 -42 -22 -63 -39 -63 -51 0 -28 20 -22 115 38 61
38 217 179 268 242 110 136 128 158 157 199 46 63 154 278 183 363 40 113 79
217 135 350 53 128 160 328 206 387 22 28 52 66 66 84 36 48 187 198 240 239
25 19 61 51 81 70 20 19 62 58 95 87 49 43 209 201 275 273 49 52 211 319 260
425 17 39 44 98 60 133 16 34 29 66 29 71 0 28 82 163 123 203 44 44 53 68 25
68 -6 0 -31 -20 -54 -45z"/>
<path d="M6693 13490 c-13 -5 -23 -14 -23 -19 0 -22 76 -69 177 -111 130 -54
206 -61 315 -28 54 17 69 26 78 49 22 51 -5 61 -94 34 -27 -8 -67 -15 -88 -15
-56 0 -185 35 -260 70 -68 32 -72 33 -105 20z"/>
<path d="M11216 9604 c-27 -15 -28 -18 -21 -70 9 -72 59 -224 96 -294 70 -130
130 -184 165 -148 15 15 10 48 -7 48 -5 0 -9 6 -9 13 0 8 -11 27 -25 43 -14
16 -28 39 -31 52 -4 12 -10 22 -14 22 -5 0 -11 14 -15 31 -4 17 -16 51 -27 76
-11 25 -21 55 -23 67 -1 11 -8 44 -15 71 -27 113 -27 114 -74 89z"/>
<path d="M14651 11797 c-24 -12 -52 -69 -106 -217 -55 -150 -139 -346 -156
-364 -5 -6 -9 -17 -9 -25 0 -8 -24 -71 -54 -140 -30 -70 -59 -147 -66 -171 -7
-25 -24 -68 -40 -96 -15 -27 -33 -68 -40 -90 -7 -21 -23 -58 -36 -82 -13 -23
-24 -48 -24 -55 0 -12 -50 -87 -77 -115 -31 -32 -82 -190 -68 -212 13 -20 30
-9 49 33 11 23 52 110 92 192 40 83 86 186 102 230 17 44 42 107 57 140 14 33
42 102 61 153 19 50 50 125 68 165 43 90 176 403 176 411 0 3 25 58 56 122 30
64 52 120 47 125 -4 4 -19 3 -32 -4z"/>
<path d="M14325 11728 c-4 -13 -53 -117 -110 -233 -56 -115 -109 -226 -118
-245 -17 -40 -62 -138 -120 -260 -21 -47 -48 -97 -58 -112 -25 -35 -24 -48 4
-48 22 0 50 53 218 410 63 132 189 380 214 419 36 58 37 85 3 89 -20 2 -28 -2
-33 -20z"/>
<path d="M14423 10353 c-7 -16 -23 -57 -37 -93 -13 -36 -51 -126 -84 -200 -32
-74 -64 -153 -71 -175 -7 -22 -16 -49 -21 -60 -20 -46 -60 -154 -60 -161 0 -4
-20 -48 -44 -98 -82 -172 -108 -233 -104 -255 4 -26 18 -31 29 -11 27 46 129
288 185 435 36 94 75 193 89 221 13 28 33 75 45 105 11 30 32 75 46 101 26 50
74 182 74 205 0 24 -35 13 -47 -14z"/>
<path d="M1440 12791 c-28 -7 -37 -46 -25 -107 7 -40 19 -45 101 -37 l67 6 -7
60 c-3 33 -11 66 -17 73 -12 15 -75 17 -119 5z"/>
<path d="M1190 12783 c-14 -2 -37 -9 -52 -15 -25 -9 -28 -16 -28 -55 0 -32 6
-50 23 -66 19 -19 31 -22 95 -19 l74 4 -7 51 c-11 85 -39 112 -105 100z"/>
<path d="M913 12759 c-31 -9 -33 -12 -33 -55 0 -61 13 -81 59 -94 51 -13 104
10 96 43 -2 12 -7 38 -9 57 -8 56 -41 70 -113 49z"/>
<path d="M2233 12412 c-32 -5 -58 -63 -45 -99 5 -17 6 -38 1 -52 -8 -21 -13
-22 -47 -16 -58 12 -67 11 -67 -5 0 -8 17 -23 38 -32 20 -10 37 -20 37 -22 0
-6 -61 -150 -66 -155 -2 -2 -17 2 -34 9 -48 20 -70 55 -70 112 0 46 1 48 20
38 12 -6 25 -22 30 -36 11 -28 40 -32 40 -5 0 24 -77 111 -99 111 -23 0 -53
-34 -83 -95 -34 -68 -22 -100 21 -54 l20 21 25 -50 c36 -72 83 -105 154 -109
66 -4 143 20 181 55 25 23 25 23 41 3 28 -37 43 -12 41 66 -1 50 -24 62 -71
38 -33 -17 -40 -35 -13 -35 15 0 14 -2 -2 -20 -10 -11 -27 -22 -39 -26 -11 -4
-32 -15 -45 -25 -25 -20 -61 -25 -61 -9 0 19 42 120 58 141 17 20 19 20 56 5
21 -9 42 -13 47 -10 16 9 -9 41 -41 52 -19 7 -30 18 -30 29 0 25 28 63 45 63
8 0 21 13 29 29 13 25 13 31 0 49 -19 28 -43 39 -71 34z"/>
<path d="M956 12178 c-14 -54 3 -88 43 -88 17 0 13 63 -5 88 -19 28 -30 28
-38 0z"/>
<path d="M1142 12178 c-27 -27 -1 -106 31 -95 22 7 30 56 13 82 -18 28 -27 30
-44 13z"/>
<path d="M1320 12153 c0 -51 13 -71 34 -54 21 18 21 77 0 85 -29 11 -34 6 -34
-31z"/>
<path d="M1520 12140 c0 -33 34 -60 53 -41 15 15 -11 71 -34 71 -14 0 -19 -7
-19 -30z"/>
<path d="M7795 10837 c-118 -86 -176 -165 -209 -279 -20 -69 -20 -78 -1 -78
28 0 62 45 79 104 14 46 29 69 74 114 31 32 79 73 107 92 54 38 70 70 37 70
-11 0 -22 5 -24 11 -2 6 -30 -9 -63 -34z"/>
<path d="M9151 10869 c-27 -11 -50 -37 -51 -57 0 -7 15 -19 33 -27 38 -16 60
-39 116 -123 24 -35 45 -62 47 -59 2 2 10 26 17 53 9 37 10 62 1 105 -14 69
-17 75 -57 96 -40 20 -75 24 -106 12z"/>
<path d="M7975 10609 c-49 -31 -100 -99 -127 -171 -35 -93 -20 -172 48 -247
25 -28 51 -51 58 -51 6 0 28 -9 49 -20 69 -37 171 -17 231 46 38 40 71 108 86
176 17 73 4 119 -53 201 -34 48 -48 60 -91 73 -84 27 -151 25 -201 -7z m246
-160 c9 -28 8 -48 -5 -92 -18 -61 -83 -151 -116 -162 -40 -13 -88 4 -126 45
-64 67 -79 128 -47 194 l16 35 27 -19 c65 -46 171 -29 192 31 8 25 12 27 29
16 11 -7 24 -28 30 -48z"/>
<path d="M7314 9800 c-109 -56 -162 -122 -184 -231 -12 -62 -12 -66 15 -123
57 -119 156 -187 254 -173 88 11 184 85 218 165 8 20 17 68 19 108 4 61 1 80
-21 127 -14 31 -25 60 -25 65 0 5 -11 15 -25 22 -14 7 -25 17 -25 21 0 5 -18
18 -40 29 -57 29 -115 26 -186 -10z m31 -192 c40 -17 105 -14 145 7 17 9 35
14 38 10 4 -4 7 -41 7 -84 0 -70 -4 -82 -34 -129 -38 -59 -84 -87 -128 -78
-34 8 -114 79 -136 122 -44 85 -41 154 10 208 l26 29 21 -36 c12 -20 35 -42
51 -49z"/>
<path d="M7071 9807 c-35 -17 -90 -116 -102 -184 -12 -60 -5 -191 10 -206 5
-5 18 -4 31 3 21 11 22 17 18 103 -5 114 14 179 70 239 14 16 22 33 19 42 -8
19 -14 20 -46 3z"/>
<path d="M8155 9768 c-31 -18 -35 -28 -34 -99 1 -81 -14 -114 -75 -160 -47
-35 -65 -64 -49 -80 11 -11 68 11 125 48 50 34 108 130 108 181 0 47 -16 103
-32 114 -16 10 -19 10 -43 -4z"/>
<path d="M8550 9555 c-29 -15 -42 -39 -60 -104 -11 -42 -154 -258 -227 -345
-35 -42 -44 -72 -17 -62 9 3 27 6 41 6 18 0 40 15 72 48 50 53 121 145 122
159 0 4 16 28 35 53 54 72 85 140 91 203 5 51 4 57 -13 57 -11 -1 -30 -7 -44
-15z"/>
<path d="M7305 8556 l-26 -44 21 -35 c11 -19 37 -46 58 -59 96 -62 171 -74
200 -31 13 21 13 23 -4 29 -81 26 -175 99 -172 133 3 40 -3 51 -27 51 -18 0
-31 -11 -50 -44z"/>
<path d="M12479 7643 c-1 -10 -1 -27 -1 -38 10 -181 16 -461 10 -535 -25 -353
-42 -499 -103 -854 -35 -208 -80 -416 -96 -448 -5 -9 -20 -58 -33 -110 -14
-51 -36 -133 -50 -183 -25 -86 -26 -125 -5 -125 41 0 203 548 239 805 6 44 15
107 20 140 52 311 76 507 90 721 14 201 6 498 -15 577 -8 32 -15 60 -15 62 0
3 -9 5 -20 5 -12 0 -21 -7 -21 -17z"/>
<path d="M12759 6008 c0 -29 -2 -73 -4 -98 -2 -25 -6 -94 -9 -155 -7 -141 -20
-252 -51 -444 -14 -84 -23 -156 -19 -160 10 -10 38 38 56 98 28 91 56 247 69
386 12 138 6 374 -12 406 -17 33 -29 20 -30 -33z"/>
<path d="M4240 9352 c0 -34 41 -59 110 -67 88 -9 230 -7 244 4 6 4 25 9 42 9
47 1 114 33 114 56 0 20 4 20 -105 -9 -39 -10 -102 -16 -183 -16 -107 0 -128
3 -158 20 -43 26 -64 27 -64 3z"/>
<path d="M2230 5621 c-5 -11 -10 -29 -10 -40 0 -11 -12 -60 -26 -108 -15 -49
-29 -99 -31 -113 -3 -14 -9 -30 -14 -35 -4 -6 -24 -51 -44 -100 -20 -50 -53
-119 -74 -155 -21 -36 -49 -83 -62 -106 -107 -182 -382 -481 -562 -610 -68
-49 -80 -63 -66 -81 17 -19 26 -16 56 18 16 17 57 52 93 79 124 90 311 285
399 415 19 28 39 55 45 60 21 20 66 84 76 109 5 14 13 26 18 26 14 0 152 283
152 312 0 8 5 19 11 25 11 11 58 179 64 229 2 18 8 41 15 53 6 12 8 26 5 31
-10 16 -34 11 -45 -9z"/>
<path d="M2096 4885 c-9 -13 -16 -31 -16 -38 0 -8 -7 -20 -15 -27 -8 -7 -15
-18 -15 -26 0 -7 -6 -17 -13 -21 -7 -4 -26 -30 -41 -57 -16 -27 -74 -93 -129
-148 -55 -54 -97 -101 -93 -105 10 -10 45 14 129 89 83 75 132 142 204 277 35
68 27 114 -11 56z"/>
<path d="M5377 6785 c-97 -50 -167 -163 -167 -265 0 -38 31 -113 58 -143 33
-36 150 -77 222 -77 85 1 114 13 179 80 64 66 69 81 63 180 -6 86 -60 164
-135 195 -23 9 -57 23 -75 31 -43 18 -110 18 -145 -1z m183 -66 c55 -18 64
-24 84 -59 14 -24 19 -51 19 -100 -1 -68 -1 -68 -48 -111 -94 -88 -162 -101
-278 -57 -43 17 -60 58 -52 131 11 98 59 173 135 209 18 9 91 2 140 -13z"/>
<path d="M5410 6685 c-12 -14 -10 -27 8 -83 l22 -67 -21 -17 c-11 -10 -33 -27
-47 -38 l-27 -20 28 -25 c15 -14 37 -25 47 -25 28 0 113 89 104 109 -4 9 -12
41 -19 71 -12 55 -33 100 -47 100 -3 0 -13 2 -21 5 -7 3 -20 -1 -27 -10z"/>
<path d="M3974 6266 c-38 -17 -47 -30 -39 -55 8 -25 44 -33 106 -25 46 6 79
24 79 43 0 39 -91 62 -146 37z"/>
<path d="M6608 6185 c-2 -3 -25 -7 -49 -9 -24 -3 -80 -15 -124 -26 -75 -20
-209 -51 -300 -70 -22 -4 -67 -16 -100 -25 -33 -9 -76 -19 -95 -21 -19 -3 -69
-13 -110 -24 -41 -10 -95 -21 -120 -25 -25 -3 -67 -13 -95 -22 -70 -21 -104
-30 -148 -38 -32 -5 -38 -10 -35 -28 4 -30 45 -36 133 -20 39 7 96 17 127 23
31 6 85 19 120 30 35 10 91 23 125 29 34 5 71 15 82 20 11 6 32 11 48 11 15 0
46 9 68 19 22 10 78 24 125 31 47 7 97 19 112 26 15 8 42 14 61 14 19 0 47 6
62 14 15 8 62 17 106 21 44 4 82 11 85 17 3 5 3 20 0 34 -5 19 -13 24 -40 24
-18 0 -35 -2 -38 -5z"/>
<path d="M6562 5591 c-29 -10 -76 -29 -105 -44 -51 -26 -150 -67 -277 -114
-63 -23 -74 -24 -315 -24 -367 1 -579 9 -715 28 -30 4 -59 6 -65 4 -5 -1 -27
2 -50 8 -35 10 -134 22 -295 36 -25 2 -126 9 -225 15 -99 5 -214 12 -255 15
-301 20 -415 27 -560 31 -91 3 -208 10 -260 15 -145 15 -467 29 -487 21 -17
-5 -17 -27 0 -40 7 -6 110 -13 257 -16 135 -4 268 -8 295 -10 28 -3 156 -9
285 -15 129 -6 308 -16 397 -22 241 -16 275 -18 433 -24 80 -3 170 -10 200
-15 30 -5 93 -12 140 -15 47 -4 124 -13 171 -21 47 -8 97 -14 110 -14 35 0
276 -9 409 -16 197 -9 309 -11 359 -4 57 7 111 -9 122 -36 4 -10 8 -34 8 -52
1 -26 5 -33 19 -30 14 3 17 14 17 61 1 64 6 70 92 95 23 7 48 18 55 25 25 22
57 37 82 37 14 0 27 4 31 9 3 5 18 12 34 16 16 3 35 12 41 20 6 8 36 19 66 25
59 12 68 20 59 50 -7 23 -4 23 -73 1z"/>
<path d="M3355 5154 c-106 -27 -134 -65 -151 -203 -3 -24 -10 -56 -16 -70 -5
-14 -12 -129 -15 -256 -2 -126 -5 -252 -7 -280 -2 -60 9 -129 29 -170 13 -29
48 -65 62 -65 3 0 14 -7 23 -15 10 -9 52 -19 106 -25 49 -5 134 -14 189 -20
55 -6 125 -13 155 -16 30 -3 143 -7 250 -9 168 -2 307 -8 476 -19 23 -2 45 -6
51 -9 5 -3 77 -7 159 -8 138 -2 240 -8 419 -24 148 -14 304 -21 390 -18 50 1
146 4 215 6 119 4 128 6 182 36 62 35 68 46 87 161 11 69 29 258 28 300 0 14
3 91 7 172 11 220 -18 378 -74 408 -11 6 -20 9 -20 7 0 -3 -19 0 -42 4 -24 5
-137 11 -253 14 -180 4 -528 21 -820 40 -44 3 -230 7 -414 10 -184 3 -337 8
-340 10 -4 2 -78 6 -166 9 -88 4 -172 9 -188 12 -15 3 -55 7 -90 9 -34 3 -96
6 -137 9 -41 3 -84 3 -95 0z m330 -55 c94 -7 184 -11 200 -10 17 1 71 -3 120
-8 50 -6 232 -13 405 -16 300 -5 473 -13 800 -36 80 -6 244 -12 364 -14 248
-4 307 -10 337 -34 36 -29 50 -140 44 -351 -3 -102 -8 -203 -10 -225 -2 -22
-7 -74 -10 -115 -3 -41 -14 -111 -23 -155 -17 -76 -20 -81 -63 -110 -42 -28
-49 -30 -169 -33 -189 -5 -480 -3 -491 4 -12 7 -204 22 -379 30 -195 8 -262
11 -485 23 -110 7 -279 13 -375 15 -190 3 -427 22 -467 37 -13 5 -51 9 -84 9
-57 0 -93 12 -145 50 -42 31 -47 66 -45 333 1 139 3 268 6 287 2 19 7 55 10
80 3 25 6 54 7 65 0 11 10 49 21 84 18 54 27 66 54 78 18 7 48 13 67 13 19 0
37 4 41 9 3 6 27 8 53 6 26 -3 124 -10 217 -16z"/>
<path d="M4392 4722 c-10 -10 -30 -34 -46 -55 -37 -48 -30 -93 20 -140 52 -47
60 -50 119 -42 72 9 120 52 130 118 6 39 4 51 -15 74 -37 47 -70 63 -132 63
-42 0 -63 -5 -76 -18z m152 -52 c26 -10 28 -14 23 -51 -7 -51 -27 -74 -76 -87
-44 -11 -84 2 -116 37 -19 22 -19 22 5 68 30 56 69 77 109 58 14 -8 39 -18 55
-25z"/>
<path d="M3736 3863 c-3 -3 -83 -5 -178 -5 -218 0 -271 -12 -294 -66 -21 -49
-53 -227 -60 -332 -3 -47 -10 -100 -14 -119 -5 -19 -7 -38 -4 -43 7 -11 7
-162 0 -208 -3 -19 -11 -66 -17 -105 -6 -38 -12 -160 -13 -270 -1 -110 -5
-206 -10 -213 -14 -23 -30 -323 -30 -567 0 -179 0 -180 28 -232 16 -29 38 -59
50 -66 35 -23 161 -37 381 -42 181 -4 414 -15 640 -30 70 -5 129 -11 229 -26
121 -18 155 -20 346 -23 268 -5 520 -16 557 -26 30 -8 190 -5 243 5 62 11 135
36 142 49 5 8 21 29 36 47 38 46 51 90 58 204 4 55 10 105 15 111 5 5 11 64
14 130 3 65 10 173 15 239 6 66 12 212 14 325 6 285 24 668 32 681 4 6 6 96 5
199 -2 219 -6 232 -81 273 -55 30 -94 33 -510 42 -181 3 -703 25 -765 31 -57
6 -216 12 -485 19 -129 4 -238 9 -243 12 -11 7 -95 12 -101 6z m-169 -52 c23
5 95 6 160 4 65 -3 206 -8 313 -11 360 -9 515 -14 528 -19 8 -3 118 -8 245
-11 128 -3 235 -8 238 -10 3 -2 64 -6 135 -9 71 -3 181 -8 244 -10 368 -16
367 -16 414 -72 l29 -34 -2 -202 c-2 -243 -8 -437 -16 -532 -3 -38 -8 -164
-10 -280 -5 -240 -10 -331 -26 -500 -6 -66 -13 -142 -15 -170 -22 -240 -32
-286 -74 -330 -10 -11 -28 -30 -39 -42 -35 -39 -92 -47 -291 -46 -102 1 -221
4 -265 8 -44 3 -183 8 -310 10 -126 3 -264 9 -305 14 -41 6 -102 13 -134 16
-33 3 -63 8 -67 10 -9 6 -265 26 -384 30 -49 2 -153 7 -230 11 -77 3 -164 6
-193 5 -94 -4 -285 19 -304 36 -47 42 -61 166 -47 424 4 79 10 200 14 269 3
69 10 152 14 185 5 33 7 78 5 99 -6 55 14 354 25 396 6 19 12 118 15 220 4
192 32 404 61 473 8 20 24 41 35 47 33 18 102 26 150 19 25 -4 64 -3 87 2z"/>
<path d="M3475 2945 c-5 -2 -22 -6 -38 -9 -37 -9 -107 -73 -124 -115 -24 -57
9 -163 62 -199 31 -22 38 -23 88 -12 75 15 137 74 137 129 0 44 -24 117 -46
142 -8 9 -14 22 -12 29 3 13 -49 40 -67 35z m19 -76 c31 -25 66 -88 66 -122 0
-27 -42 -71 -83 -86 -73 -28 -113 1 -124 88 -5 47 -4 51 37 95 47 51 65 56
104 25z"/>
</g>
</svg>
