<?xml version="1.0" standalone="no"?>
<!DOCTYPE svg PUBLIC "-//W3C//DTD SVG 20010904//EN"
 "http://www.w3.org/TR/2001/REC-SVG-20010904/DTD/svg10.dtd">
<svg version="1.0" xmlns="http://www.w3.org/2000/svg"
 width="2202.000000pt" height="2263.000000pt" viewBox="0 0 2202.000000 2263.000000"
 preserveAspectRatio="xMidYMid meet">
<metadata>
Created by potrace 1.16, written by Peter Selinger 2001-2019
</metadata>
<g transform="translate(0.000000,2263.000000) scale(0.100000,-0.100000)"
fill="#000000" stroke="none">
<path d="M2335 22620 c3 -6 66 -56 138 -112 155 -121 287 -249 377 -370 88
-116 364 -572 358 -588 -4 -8 -147 23 -253 56 -97 30 -173 60 -285 113 -145
67 -188 75 -415 75 l-200 1 -135 -46 c-74 -26 -169 -56 -210 -69 -106 -32
-296 -126 -425 -211 -60 -40 -132 -81 -158 -91 -100 -38 -348 -49 -493 -21
-49 9 -109 18 -134 19 -26 1 -75 15 -115 34 -55 25 -300 129 -372 157 -10 4
-13 -25 -13 -124 l0 -129 193 -62 c214 -68 398 -115 530 -134 74 -10 110 -10
240 4 287 32 426 77 641 212 203 128 324 172 508 182 183 11 523 -37 688 -96
47 -16 156 -46 243 -65 146 -33 171 -42 320 -116 89 -45 193 -102 231 -128
102 -68 232 -195 292 -286 29 -44 80 -114 114 -155 111 -136 180 -310 235
-590 l16 -85 -59 -140 c-226 -534 -266 -712 -280 -1245 l-7 -285 -40 85 c-159
344 -294 570 -546 915 -44 61 -116 160 -160 220 -254 350 -489 624 -639 747
-208 171 -423 278 -700 349 -116 30 -288 30 -420 0 -190 -43 -427 -39 -655 11
-139 30 -171 41 -300 105 -66 33 -174 84 -240 113 -66 29 -139 64 -163 77
l-42 25 0 -91 0 -90 83 -65 c46 -36 129 -90 183 -119 54 -30 126 -70 159 -91
72 -44 108 -55 205 -63 59 -4 83 -2 107 10 28 15 40 15 119 2 180 -30 393 -16
634 39 131 30 256 16 463 -55 204 -68 358 -157 530 -304 147 -125 363 -387
674 -815 66 -91 159 -218 206 -283 118 -161 190 -279 332 -542 44 -81 100
-185 127 -234 11 -18 17 -36 14 -38 -3 -3 -31 4 -63 15 -32 11 -92 27 -133 36
-202 45 -291 80 -526 212 -209 117 -392 250 -491 357 -102 111 -255 338 -378
562 -15 28 -59 104 -98 169 -39 66 -95 176 -124 245 -29 69 -63 135 -75 148
-30 33 -87 31 -118 -3 -23 -24 -25 -35 -32 -197 -8 -176 4 -594 22 -733 33
-256 36 -798 7 -979 -9 -49 -18 -116 -22 -147 -4 -36 -11 -58 -19 -58 -26 0
-204 64 -291 104 -113 53 -227 128 -380 252 -66 53 -151 118 -190 144 -103 70
-439 250 -445 240 -3 -5 -30 7 -60 27 -30 21 -136 91 -235 155 l-180 118 -3
-122 c-2 -89 1 -125 10 -134 18 -18 223 -136 348 -201 135 -69 243 -145 373
-260 121 -108 166 -143 267 -209 115 -75 166 -98 421 -188 l236 -83 66 -69 66
-69 1 -105 c1 -254 57 -526 144 -698 77 -151 218 -314 386 -444 150 -116 218
-148 555 -263 98 -33 226 -61 465 -100 224 -37 323 -59 445 -101 71 -24 137
-44 147 -44 59 0 -30 -66 -122 -90 -65 -17 -117 -46 -136 -76 -14 -21 -16 -40
-10 -120 l6 -94 -27 6 c-16 4 -36 11 -46 16 -34 17 -205 28 -279 18 -68 -10
-96 -17 -243 -65 -144 -46 -172 -54 -268 -74 -169 -35 -344 -37 -450 -5 -29 9
-20 -23 11 -34 15 -5 50 -18 77 -28 75 -28 324 -26 455 4 96 21 119 28 315 98
104 36 116 38 230 38 107 0 125 -2 170 -24 47 -24 50 -27 53 -68 4 -52 -20
-150 -54 -219 -17 -35 -41 -64 -73 -88 -102 -74 -151 -147 -171 -255 -7 -36
-20 -73 -29 -84 -41 -48 -204 -163 -286 -201 -87 -42 -218 -89 -320 -116 -201
-55 -473 52 -699 274 -76 75 -95 110 -157 291 -55 161 -88 214 -197 318 -139
132 -252 174 -447 165 -185 -9 -360 -52 -556 -137 -50 -22 -89 -34 -89 -27 0
15 96 176 193 322 204 309 457 573 657 688 95 55 481 207 547 217 36 5 67 11
70 13 13 14 -12 79 -39 98 -63 46 -197 19 -482 -96 -226 -90 -335 -164 -528
-361 -137 -139 -196 -213 -317 -399 -54 -82 -112 -163 -128 -180 -16 -16 -48
-75 -72 -129 -24 -55 -51 -113 -61 -130 -155 -279 -164 -297 -164 -364 -1 -96
12 -100 116 -30 91 61 150 92 247 132 35 14 73 36 85 48 28 31 249 105 384
129 181 33 289 22 382 -36 45 -29 162 -151 182 -190 9 -16 30 -73 48 -125 65
-193 137 -299 286 -421 l74 -60 -103 -102 c-106 -105 -167 -178 -297 -357 -59
-81 -86 -109 -128 -132 -57 -33 -72 -62 -53 -104 6 -13 21 -29 33 -35 13 -5
50 -48 83 -95 117 -170 162 -190 483 -223 105 -11 282 -48 282 -60 0 -3 -39
-26 -88 -50 -132 -67 -188 -107 -291 -206 -151 -144 -249 -289 -390 -571 -159
-321 -241 -590 -275 -904 -31 -290 -29 -505 9 -815 55 -447 63 -546 67 -790 3
-188 2 -204 -20 -265 -36 -98 -14 -160 55 -160 44 0 74 30 98 99 53 145 272
322 578 464 73 34 192 91 264 128 74 38 135 63 139 58 11 -19 8 -275 -5 -349
-28 -164 -84 -334 -147 -445 -49 -85 -49 -86 -70 -130 -10 -22 -51 -83 -90
-136 -40 -53 -75 -105 -78 -116 -10 -31 29 -73 66 -73 27 0 150 66 199 107 8
7 28 13 43 13 19 0 29 7 36 24 9 24 122 96 151 96 27 0 221 90 314 145 52 30
97 55 101 55 16 0 -20 -353 -52 -502 -20 -93 -18 -121 9 -146 30 -28 74 -28
140 0 124 52 236 135 370 272 53 55 97 97 97 94 0 -16 -41 -284 -45 -296 -11
-30 -45 -258 -45 -302 0 -56 15 -73 62 -68 25 2 36 10 47 33 23 51 43 67 139
111 169 79 303 187 468 376 59 68 113 130 121 138 13 13 14 -36 10 -400 -3
-228 -8 -437 -10 -465 -2 -27 -8 -263 -12 -524 l-8 -473 -44 -52 c-91 -106
-183 -275 -183 -337 0 -15 -8 -46 -17 -70 -28 -71 -25 -383 5 -509 48 -201 89
-269 199 -330 l46 -25 1 -285 c2 -269 17 -849 31 -1170 5 -96 4 -142 -3 -135
-6 6 -23 48 -39 95 -124 358 -384 873 -581 1149 -25 36 -92 113 -149 172 -148
153 -243 313 -243 410 0 69 26 106 203 288 229 236 289 340 343 601 12 59 18
130 18 230 0 130 -2 152 -25 217 -51 142 -136 249 -287 361 -139 103 -333 190
-482 218 -90 16 -323 18 -440 3 -47 -5 -164 -30 -260 -54 -96 -24 -215 -53
-265 -65 -49 -11 -108 -25 -130 -30 -221 -53 -757 -140 -985 -159 -63 -5 -203
-12 -310 -16 -179 -5 -208 -3 -350 20 -85 14 -206 29 -267 32 l-113 6 0 -141
0 -141 33 -6 c169 -29 439 -35 523 -11 33 10 126 16 284 19 238 5 315 14 680
73 295 47 798 160 1002 224 111 35 265 52 431 48 142 -3 158 -6 247 -37 270
-95 447 -239 506 -411 44 -130 0 -446 -83 -590 -42 -72 -79 -117 -213 -255
-193 -199 -255 -294 -267 -410 -3 -30 -9 -55 -12 -55 -3 0 -25 6 -49 13 -31 9
-49 23 -64 47 -90 148 -301 348 -533 504 -107 72 -219 130 -380 194 -55 22
-145 61 -201 86 -131 60 -218 78 -369 78 -253 1 -549 -92 -810 -252 -212 -130
-324 -218 -557 -438 l-166 -157 -1 -112 c-1 -62 3 -113 7 -113 4 0 30 23 57
51 83 85 262 239 414 359 331 258 704 423 1010 446 131 10 213 -7 386 -80 82
-35 184 -76 225 -91 162 -60 307 -147 532 -316 125 -95 318 -273 318 -294 0
-8 -30 -14 -97 -18 -249 -15 -517 -165 -700 -390 -74 -93 -162 -236 -197 -323
-29 -71 -75 -242 -106 -399 -27 -134 -49 -179 -109 -230 -21 -18 -43 -20 -229
-26 -180 -6 -220 -10 -307 -34 -55 -15 -152 -40 -216 -55 -63 -16 -135 -38
-160 -49 -81 -35 -203 -116 -359 -237 -85 -66 -195 -149 -245 -183 -50 -35
-120 -88 -158 -118 l-67 -54 0 -169 c0 -94 3 -170 8 -170 4 0 72 59 152 131
80 72 203 176 275 232 72 56 166 138 210 182 81 82 191 161 269 194 23 11 80
28 127 40 46 12 129 36 184 53 94 30 112 32 310 37 202 6 212 7 270 34 74 35
140 103 182 188 18 38 54 157 87 289 61 243 93 322 187 465 129 198 298 327
532 407 85 29 103 32 227 32 191 1 191 1 451 -261 190 -192 212 -218 286 -338
99 -161 243 -437 318 -610 31 -71 63 -143 70 -160 16 -35 94 -234 137 -350 54
-145 102 -366 131 -589 2 -14 -9 -21 -51 -32 -76 -20 -334 -107 -443 -150
-201 -78 -456 -212 -614 -322 -345 -240 -687 -527 -886 -743 -57 -62 -176
-189 -264 -283 -288 -304 -377 -410 -529 -624 -205 -288 -364 -555 -405 -679
-26 -76 -26 -105 -3 -125 24 -21 419 -134 552 -158 498 -89 1682 -89 2033 1
45 11 176 52 290 91 114 39 211 68 214 64 3 -3 10 -77 14 -163 4 -87 13 -229
20 -315 l12 -158 64 0 63 0 0 33 c-1 83 -46 603 -54 615 -11 17 13 29 94 47
47 10 141 31 209 47 69 16 127 25 131 21 4 -5 1 -89 -6 -188 -7 -99 -13 -269
-13 -377 l-1 -198 70 0 70 0 0 93 c0 92 16 436 28 617 l7 94 35 8 c333 71 744
99 895 59 145 -37 359 -157 506 -282 46 -40 138 -125 204 -190 66 -65 134
-123 150 -129 69 -26 126 12 145 95 30 126 57 177 219 410 189 274 343 466
604 753 170 187 228 239 442 389 99 70 267 191 373 270 107 78 257 182 334
230 77 49 236 152 353 229 116 78 275 174 352 213 76 39 158 83 182 99 173
116 262 303 246 517 -7 102 -29 163 -78 213 -72 74 -272 180 -412 217 -82 22
-261 30 -372 16 -192 -24 -360 -81 -663 -224 -63 -30 -169 -77 -235 -105 -66
-27 -221 -93 -345 -145 -444 -189 -537 -216 -760 -224 -80 -2 -179 0 -220 6
-126 18 -465 49 -650 60 -196 12 -334 28 -366 41 l-22 9 34 96 c18 53 51 131
72 173 22 43 90 178 153 302 164 325 218 403 364 526 246 208 337 270 700 474
72 40 180 103 240 140 61 37 148 89 195 115 87 49 478 247 521 264 32 12 452
202 559 253 439 208 749 341 1140 488 275 104 455 179 598 249 172 85 381 167
872 344 276 100 699 242 850 286 41 13 86 27 100 31 38 14 248 68 305 79 283
55 361 89 378 161 4 15 0 38 -9 54 -8 16 -13 31 -11 33 2 1 46 22 98 44 268
117 568 209 904 279 83 17 208 45 280 61 167 40 255 83 243 121 -5 13 -7 14
-103 16 -60 2 -61 3 -125 65 -36 34 -101 83 -145 108 -44 26 -134 77 -200 114
-111 63 -251 154 -558 363 -178 122 -297 181 -503 250 -114 39 -276 82 -357
97 -171 29 -568 17 -817 -25 -30 -5 -113 -19 -185 -30 -134 -21 -176 -29 -305
-54 -41 -8 -127 -25 -190 -36 -63 -12 -216 -41 -340 -66 -198 -39 -292 -59
-510 -109 -30 -7 -89 -21 -130 -30 -41 -9 -100 -23 -130 -30 -49 -11 -134 -30
-360 -80 -36 -8 -118 -26 -183 -40 -274 -60 -418 -106 -592 -190 -317 -154
-766 -424 -1008 -607 -437 -330 -771 -666 -1112 -1118 -250 -331 -366 -530
-423 -725 -48 -164 -57 -259 -42 -442 14 -182 35 -284 83 -403 36 -88 69 -126
100 -114 20 7 19 16 -25 204 -46 198 -51 545 -8 654 4 11 18 53 30 91 42 131
112 253 263 459 426 580 891 1033 1432 1393 126 83 433 266 603 357 296 160
437 207 922 311 91 19 183 40 205 45 231 57 809 182 1090 235 383 72 524 97
840 144 217 33 535 48 665 32 120 -15 265 -50 400 -95 217 -72 327 -128 546
-282 332 -233 465 -311 691 -408 121 -51 126 -55 93 -60 -19 -3 -78 -13 -130
-22 -100 -16 -311 -65 -395 -91 -222 -69 -348 -119 -545 -215 -127 -63 -174
-91 -210 -128 -45 -46 -47 -47 -160 -68 -258 -49 -523 -126 -1005 -292 -679
-234 -1016 -365 -1328 -514 -151 -73 -191 -90 -377 -161 -611 -235 -770 -303
-1295 -555 -71 -34 -217 -102 -323 -151 -422 -195 -708 -344 -952 -496 -80
-49 -206 -125 -280 -168 -311 -180 -418 -255 -620 -434 -69 -61 -128 -111
-131 -111 -4 0 -9 9 -12 20 -7 26 -27 25 -60 0 -49 -39 -209 -321 -269 -475
-34 -86 -90 -218 -122 -288 -60 -128 -126 -304 -126 -334 0 -56 -10 -60 -102
-33 -46 13 -93 27 -106 31 -25 10 -37 -14 124 235 29 45 88 154 133 242 78
156 93 202 120 357 6 33 19 89 30 125 71 239 69 231 81 465 10 213 0 278 -58
374 -56 92 -355 453 -431 520 -213 188 -325 240 -636 296 -49 9 -180 38 -290
65 -110 26 -214 51 -232 55 -75 15 -107 74 -142 261 -40 215 -43 463 -6 549
67 156 377 422 745 640 242 143 440 318 498 437 43 91 60 189 44 266 -19 90
-17 94 51 160 105 101 201 182 212 179 17 -6 73 -106 103 -186 16 -42 39 -125
52 -186 13 -60 28 -116 33 -122 13 -18 62 -16 77 2 7 8 27 15 45 15 40 0 46 7
130 155 37 66 127 215 200 330 184 292 281 466 319 572 51 140 87 184 224 276
90 60 105 65 215 73 94 7 159 24 322 88 54 20 125 39 173 45 127 16 178 45
313 180 94 95 127 121 175 140 91 37 209 98 223 114 9 12 9 17 0 23 -18 11
-145 4 -223 -12 -104 -22 -155 -55 -245 -159 -84 -98 -154 -152 -205 -159
-126 -18 -185 -33 -286 -73 -149 -59 -153 -60 -268 -73 -103 -12 -155 -31
-229 -80 -25 -17 -47 -29 -49 -27 -2 2 5 35 15 73 73 270 99 576 65 763 -30
167 -89 305 -239 566 -65 113 -170 283 -225 365 -67 100 -68 109 -4 52 115
-102 296 -244 391 -308 53 -36 173 -103 267 -151 94 -47 277 -143 406 -213
129 -70 287 -155 350 -189 63 -34 157 -92 207 -129 51 -37 164 -119 250 -182
172 -125 289 -234 345 -320 40 -63 92 -158 167 -310 29 -58 56 -112 60 -120 7
-12 71 -29 71 -18 0 2 9 28 21 58 51 137 119 451 119 556 0 82 3 85 84 78 152
-12 430 -56 538 -84 310 -83 391 -101 483 -110 102 -9 164 -26 209 -55 33 -22
33 -27 -5 -81 -85 -124 -131 -236 -188 -454 -35 -136 -58 -265 -66 -375 -4
-44 -13 -110 -21 -147 -20 -94 -18 -121 11 -152 l25 -27 30 21 c52 37 67 81
80 235 18 229 29 303 66 449 40 160 72 245 123 329 20 32 46 75 58 95 15 24
23 53 23 83 0 42 -4 50 -44 87 -75 69 -125 87 -306 111 -41 6 -167 35 -280 66
-274 74 -535 115 -737 115 l-70 0 -7 88 c-4 48 -14 125 -22 172 -32 188 -47
232 -134 405 -144 287 -204 362 -420 529 -149 116 -300 237 -300 239 0 2 93 3
207 2 115 0 312 2 438 5 253 5 267 4 505 -72 320 -101 454 -159 548 -237 53
-44 80 -79 176 -229 23 -35 52 -48 86 -37 19 6 21 13 17 53 -2 26 -10 61 -17
78 -11 27 -11 46 0 117 21 139 6 240 -85 552 -113 388 -213 580 -445 855 -71
84 -71 84 -15 76 111 -15 268 -83 360 -156 107 -85 124 -94 153 -84 40 14 50
59 41 184 -5 58 -13 195 -18 305 -11 209 -30 313 -72 384 -11 18 -17 36 -14
39 14 15 123 -56 310 -203 162 -128 251 -187 304 -205 37 -12 44 -12 58 2 14
15 13 28 -6 149 -55 341 -94 462 -273 839 -179 375 -428 723 -744 1038 l-164
162 53 0 c260 0 678 141 942 318 189 127 343 287 447 467 25 44 58 91 72 104
42 39 30 91 -21 91 -12 0 -43 12 -68 26 -26 14 -95 43 -154 64 -112 39 -143
54 -198 94 -30 22 -85 38 -283 82 -157 35 -216 59 -418 172 -155 86 -268 132
-375 153 -32 7 -56 15 -55 19 2 4 44 41 93 82 254 211 398 454 449 763 42 254
52 508 27 680 -27 177 -90 325 -177 410 l-51 51 14 39 c19 56 13 94 -18 118
-47 34 -70 12 -209 -193 -209 -309 -344 -427 -635 -550 -134 -58 -334 -123
-480 -159 -409 -99 -458 -113 -575 -163 -121 -52 -230 -122 -296 -190 -77 -78
-99 -114 -164 -264 -121 -280 -180 -354 -450 -561 -121 -93 -272 -192 -381
-250 -86 -46 -192 -87 -210 -81 -12 4 136 160 591 623 287 292 390 413 535
630 235 352 412 730 481 1030 23 99 28 144 28 260 1 233 -44 421 -181 745
-147 349 -213 599 -213 810 0 99 3 113 44 231 24 69 47 149 51 178 8 60 1 63
-80 32 -60 -23 -86 -53 -156 -186 -66 -127 -128 -208 -274 -365 -218 -234
-371 -428 -421 -532 -10 -21 -21 -38 -25 -38 -4 0 -19 33 -34 73 -53 142 -108
259 -192 409 -193 345 -300 595 -334 783 -30 163 -28 160 -71 163 -21 2 -47
-2 -58 -8 -52 -28 -66 -142 -35 -268 15 -62 17 -102 12 -260 -5 -182 -17 -274
-62 -467 -34 -146 -65 -210 -65 -133 0 53 -68 236 -141 378 -75 147 -145 245
-186 261 -37 14 -81 2 -100 -27 -14 -22 -14 -34 -3 -99 25 -148 -19 -374 -110
-562 -51 -104 -200 -336 -263 -408 l-34 -40 -7 110 c-16 247 -65 534 -111 647
-36 91 -101 191 -184 284 -120 135 -115 127 -102 165 27 78 1 139 -59 139 -39
0 -77 -39 -90 -94 -18 -73 -78 -248 -166 -486 -78 -209 -154 -355 -154 -296 0
26 -61 197 -101 286 -22 47 -68 131 -102 188 -86 142 -93 158 -117 253 -12 46
-26 89 -31 96 -6 6 -15 56 -20 110 -12 123 -32 233 -71 393 -16 69 -32 167
-35 218 -6 92 13 663 23 735 l6 37 -100 0 -100 0 -7 -127 c-4 -71 -3 -290 4
-488 10 -314 21 -460 47 -645 l6 -45 -48 46 c-27 25 -66 58 -86 73 -41 30
-143 66 -188 66 -23 0 -31 7 -50 48 -13 26 -40 108 -62 182 -46 158 -89 279
-131 370 -60 128 -181 319 -290 457 l-49 63 -275 0 c-180 0 -272 -3 -268 -10z
m2503 -1824 c88 -93 154 -208 186 -326 52 -194 71 -392 86 -895 7 -259 14
-350 29 -425 26 -128 57 -222 82 -254 l21 -26 -31 -93 c-72 -216 -91 -343 -91
-606 0 -239 17 -388 71 -621 36 -155 98 -298 203 -467 31 -50 56 -94 56 -97 0
-3 -15 -12 -34 -21 -19 -9 -55 -36 -81 -60 -57 -52 -108 -64 -158 -38 -17 9
-53 17 -79 17 -60 0 -106 -30 -184 -122 l-59 -69 -53 3 c-30 1 -56 5 -59 8 -7
7 -31 185 -43 326 -29 321 -64 467 -151 629 -57 107 -138 228 -192 287 -47 52
-159 135 -233 172 -23 12 -44 28 -48 37 -12 32 -6 537 9 720 22 265 58 414
186 755 93 249 122 318 236 560 30 63 66 142 79 175 14 33 29 69 34 80 14 29
58 146 95 255 45 131 53 150 63 150 5 0 32 -24 60 -54z m1704 -304 c140 -232
190 -343 310 -690 108 -314 134 -476 125 -762 -12 -351 -73 -551 -279 -924
-28 -50 -64 -116 -80 -146 -53 -96 -94 -161 -252 -401 -169 -255 -228 -339
-325 -463 -35 -44 -72 -100 -83 -123 -22 -49 -35 -52 -75 -19 -38 31 -67 46
-92 46 -13 0 -21 7 -21 18 0 9 -7 71 -15 137 -8 67 -15 209 -15 320 0 205 13
305 54 422 16 46 126 266 161 323 92 150 236 453 274 580 12 41 26 82 31 90
13 27 23 100 12 100 -10 0 -31 -40 -76 -147 -24 -57 -86 -179 -126 -248 -10
-16 -32 -57 -50 -90 -18 -33 -67 -118 -108 -190 -82 -142 -159 -295 -184 -365
-53 -147 -53 -143 -53 -510 1 -226 5 -357 12 -380 6 -19 14 -51 17 -71 6 -34
4 -38 -29 -58 -55 -32 -71 -28 -84 22 -6 23 -36 87 -66 142 -161 290 -205 416
-249 716 -19 126 -23 528 -7 631 26 159 82 330 157 481 58 115 269 424 410
598 212 263 379 598 448 899 33 147 46 208 56 270 18 109 18 109 57 39 19 -35
85 -146 145 -247z m-682 48 c47 -108 67 -171 75 -232 6 -52 2 -78 -45 -298
-11 -52 -20 -114 -20 -137 0 -47 -26 -90 -184 -296 -107 -141 -288 -407 -342
-503 -20 -36 -40 -62 -44 -57 -19 20 -43 241 -47 433 l-5 205 31 20 c17 11 34
28 37 38 3 10 26 41 52 70 118 133 236 312 313 472 61 128 92 222 114 349 8
50 20 39 65 -64z m1765 23 c23 -158 107 -429 192 -623 136 -308 171 -412 207
-609 56 -297 -42 -652 -305 -1111 -187 -327 -309 -480 -683 -855 -126 -126
-297 -304 -379 -395 -153 -167 -295 -310 -309 -310 -5 0 -8 14 -8 31 0 21 21
66 60 131 60 98 72 142 48 166 -20 20 -59 14 -95 -14 -40 -30 -50 -26 -35 13
6 15 14 43 17 61 10 51 -21 41 -45 -15 -11 -27 -26 -60 -33 -75 l-12 -26 -48
44 -49 44 84 108 c47 59 131 174 188 255 56 82 133 189 170 238 153 205 376
617 445 822 95 287 123 682 70 982 -18 96 -64 274 -95 366 -10 31 -17 67 -14
80 15 64 92 185 193 299 89 101 412 430 422 430 4 0 11 -17 14 -37z m-5612
-1095 c19 -35 67 -126 107 -203 100 -192 189 -333 306 -485 135 -175 388 -357
749 -538 176 -88 216 -102 420 -143 33 -6 130 -33 216 -59 130 -39 167 -54
217 -91 83 -60 142 -95 173 -103 32 -7 81 -66 156 -184 122 -193 153 -285 198
-587 40 -269 49 -311 81 -414 6 -21 5 -23 -12 -17 -72 30 -145 12 -158 -38
-14 -56 34 -104 138 -139 57 -20 183 -23 220 -6 21 10 29 8 53 -12 16 -13 67
-35 113 -48 203 -57 223 -64 260 -97 35 -32 37 -38 43 -107 7 -92 27 -130 119
-223 71 -73 84 -99 95 -192 9 -74 28 -44 30 48 2 97 -4 114 -87 215 -65 79
-93 128 -88 155 3 17 12 13 76 -30 68 -47 102 -61 102 -42 0 10 -148 153 -214
207 -28 22 -60 40 -72 40 -12 0 -30 7 -40 16 -11 9 -33 24 -50 34 -21 12 -30
24 -27 35 3 13 -6 22 -36 34 -23 9 -49 16 -58 16 -14 0 -80 19 -92 27 -2 1 29
38 69 82 l73 80 36 -28 c53 -42 92 -47 146 -21 25 12 57 37 71 56 31 41 44 42
81 9 l28 -24 -35 -1 c-41 0 -60 -15 -60 -46 0 -38 46 -45 91 -13 l29 21 46
-51 c39 -44 51 -51 82 -51 36 0 37 -1 66 -73 16 -39 34 -85 42 -102 27 -63 52
-123 90 -212 50 -122 69 -125 62 -10 -9 143 -86 334 -169 422 -33 35 -51 65
-60 98 -6 26 -9 50 -7 53 9 8 98 -97 105 -125 11 -44 72 -139 106 -164 64 -48
104 -45 62 5 -31 36 -32 48 -3 48 36 0 58 28 58 77 0 23 3 43 8 43 7 0 62 -74
62 -83 0 -3 -9 -3 -20 0 -26 7 -50 -13 -50 -41 0 -12 14 -44 32 -72 32 -51 43
-82 59 -174 6 -30 16 -73 24 -95 11 -33 11 -43 0 -55 -7 -8 -18 -42 -24 -75
-20 -115 -35 -165 -49 -165 -8 0 -11 -7 -8 -18 4 -10 -3 -45 -14 -77 -28 -83
-26 -138 10 -208 16 -33 33 -82 36 -110 l7 -52 -30 28 c-19 17 -40 27 -60 27
-46 0 -61 -24 -87 -142 -8 -37 -22 -35 -30 2 -3 17 -17 42 -31 56 -25 25 -25
26 -8 55 14 23 24 29 53 29 70 0 101 64 92 188 -3 42 -9 62 -18 62 -7 0 -16
-4 -19 -10 -19 -30 -31 8 -55 175 -12 83 -41 185 -51 185 -15 0 -18 -17 -10
-46 4 -16 4 -54 1 -84 l-7 -55 -2 71 c0 44 -6 77 -16 90 -14 18 -14 17 -15
-13 0 -26 -3 -30 -20 -26 -17 5 -20 0 -20 -28 0 -105 -13 -335 -19 -352 -7
-17 -11 -15 -39 24 l-32 43 0 133 c0 102 -4 141 -16 164 -15 29 -43 35 -35 8
8 -34 -14 -280 -28 -308 -12 -24 -22 -194 -12 -210 6 -9 18 -11 33 -8 19 5 32
-2 61 -33 21 -21 52 -42 68 -45 26 -6 29 -11 29 -43 0 -20 2 -55 5 -77 l5 -40
-14 30 c-22 47 -51 68 -81 61 -43 -11 -49 -50 -24 -151 8 -33 7 -48 -9 -84
l-20 -43 -29 44 c-17 24 -38 75 -48 118 -10 41 -31 104 -47 140 -20 45 -30 86
-34 140 -3 56 -2 69 6 52 11 -27 58 -28 51 -2 -2 8 -7 60 -12 114 -7 86 -6
101 8 111 15 11 8 26 -60 129 -42 64 -110 150 -150 191 -64 64 -79 75 -109 75
-42 0 -58 -15 -58 -53 0 -20 10 -37 32 -55 17 -15 94 -83 170 -151 103 -92
137 -129 132 -140 -4 -9 -13 -45 -20 -81 -6 -36 -13 -56 -13 -45 -1 28 -31
104 -58 147 -52 84 -110 135 -229 199 -33 18 -85 49 -117 70 -49 32 -61 37
-77 27 -15 -10 -27 -10 -53 0 -18 7 -49 12 -68 12 -19 0 -52 5 -74 11 -22 6
-67 16 -100 24 -106 24 -107 26 -84 135 l11 52 27 -25 c44 -42 89 -60 130 -52
80 16 134 10 190 -18 30 -15 71 -41 91 -57 41 -32 60 -38 60 -17 0 18 -95 114
-143 144 -53 33 -140 55 -204 51 -51 -3 -54 -1 -92 40 -45 49 -82 56 -105 19
-9 -13 -18 -61 -22 -120 -4 -54 -11 -100 -16 -103 -5 -3 -18 2 -28 11 -23 21
-40 12 -40 -22 0 -30 25 -63 48 -63 11 0 13 -8 9 -36 -8 -51 -15 -53 -44 -19
-67 80 -74 85 -103 85 -35 0 -50 -23 -50 -78 0 -49 8 -57 29 -31 15 19 18 19
30 6 10 -13 6 -21 -25 -50 -31 -28 -38 -42 -38 -71 0 -99 114 -137 203 -67 34
26 18 41 -44 41 -40 0 -54 4 -59 17 -10 26 18 47 62 45 48 -2 86 34 96 91 9
46 3 46 239 8 135 -22 332 -106 391 -167 18 -19 40 -34 49 -34 22 0 96 -87
119 -140 17 -37 48 -185 48 -226 0 -7 -18 -21 -39 -32 l-39 -21 -14 22 c-8 12
-19 34 -26 50 -6 15 -17 27 -23 27 -17 0 -3 -72 23 -116 12 -20 17 -35 12 -33
-5 2 -25 10 -45 18 -26 10 -45 29 -69 70 -19 30 -64 85 -100 122 -56 55 -77
70 -125 84 -57 16 -155 17 -215 1 -23 -7 -28 -2 -57 61 -28 58 -42 113 -30
113 2 0 46 -18 98 -41 129 -56 168 -69 174 -59 3 5 -16 25 -41 44 -26 20 -41
36 -33 36 23 0 132 -55 166 -84 18 -15 40 -26 50 -24 14 2 11 10 -16 40 -59
67 -188 141 -270 154 -32 5 -41 10 -36 22 9 23 -14 42 -53 42 -38 0 -72 -23
-72 -49 0 -9 -7 -25 -15 -35 -28 -37 -18 -84 41 -195 l57 -106 -41 37 c-22 20
-65 52 -95 71 -30 20 -57 40 -61 45 -3 5 -28 10 -56 11 -39 0 -52 -3 -60 -18
-12 -24 1 -35 57 -50 23 -6 45 -16 49 -22 3 -6 64 -48 133 -94 134 -86 142
-96 156 -180 13 -76 61 -99 94 -44 25 41 39 172 21 194 -17 20 -24 19 -59 -11
l-30 -25 -21 33 -20 33 28 8 c30 9 140 1 175 -12 38 -15 125 -100 189 -185 34
-45 63 -83 64 -85 1 -1 7 0 13 4 8 4 8 12 0 26 -19 37 0 34 41 -6 42 -41 52
-75 23 -75 -59 0 -72 -92 -24 -175 37 -64 53 -78 97 -80 29 -2 38 -8 52 -36
12 -24 25 -35 45 -37 35 -4 45 20 24 63 -20 42 -32 105 -20 105 11 0 49 -40
86 -91 l26 -35 -18 -61 c-10 -34 -21 -66 -25 -71 -4 -7 -25 1 -57 21 -53 32
-80 30 -87 -7 -5 -24 15 -44 72 -73 63 -31 59 -28 51 -52 -6 -19 -7 -19 -42 5
-40 27 -75 31 -91 11 -16 -19 -13 -147 5 -175 12 -19 12 -33 3 -78 -6 -29 -15
-54 -20 -54 -5 0 -25 7 -43 16 l-34 16 14 42 c19 54 10 134 -28 249 -33 100
-51 138 -72 156 -8 6 -32 46 -53 89 -20 42 -54 106 -76 142 -38 67 -103 139
-114 128 -3 -4 10 -30 28 -60 19 -29 49 -84 67 -123 79 -167 73 -147 53 -168
-23 -23 -41 -16 -71 28 -29 44 -144 132 -149 115 -2 -6 6 -22 18 -35 19 -20
21 -27 11 -39 -26 -31 -3 -73 80 -147 73 -66 79 -75 79 -110 0 -22 -4 -39 -10
-39 -17 0 -83 39 -235 140 -82 55 -161 106 -175 113 -85 46 -181 95 -202 102
-58 20 -60 24 -8 19 30 -4 60 -10 65 -15 6 -4 31 -11 55 -15 41 -7 44 -6 31 9
-7 10 -19 17 -25 17 -6 0 -23 7 -39 15 -25 13 -66 23 -182 45 -22 4 -64 20
-94 35 -54 28 -114 48 -203 67 -27 6 -48 15 -48 19 0 12 27 11 35 -1 11 -18
44 -10 61 15 20 30 12 64 -11 45 -12 -10 -22 -6 -55 20 -41 33 -47 44 -29 55
6 4 9 21 8 39 -3 51 0 66 16 66 8 0 15 -4 15 -10 0 -5 7 -10 15 -10 10 0 15
10 15 30 0 35 6 37 34 11 28 -26 76 -38 76 -20 0 8 -9 25 -20 39 -27 35 -10
50 59 50 85 0 193 -36 245 -82 24 -21 47 -38 50 -38 16 0 3 33 -26 66 -70 80
-161 114 -302 114 -53 0 -96 4 -96 9 0 4 -11 24 -24 44 -20 30 -22 38 -11 47
8 6 29 35 46 63 18 29 34 54 36 56 1 2 24 -11 51 -28 53 -34 71 -38 90 -19 18
18 14 38 -6 38 -11 0 -38 22 -61 50 -33 39 -40 54 -33 67 9 17 35 134 47 215
7 46 36 68 89 68 47 0 103 19 110 36 3 7 1 27 -4 44 -8 27 -5 37 26 77 26 34
32 48 23 54 -7 4 -16 6 -19 4 -4 -2 -12 13 -19 33 -8 20 -38 86 -67 146 -124
249 -268 425 -482 589 -119 91 -251 171 -470 283 -259 134 -370 213 -619 443
-117 108 -289 289 -315 331 -13 21 -38 27 -38 10 0 -13 98 -145 157 -213 137
-156 309 -319 453 -428 114 -87 157 -113 350 -212 213 -109 243 -126 359 -204
259 -175 422 -368 587 -694 65 -128 67 -119 -41 -172 -82 -41 -133 -56 -166
-51 -13 3 -73 9 -134 14 -231 21 -286 30 -430 77 -249 80 -610 365 -770 608
-22 33 -45 66 -52 73 -14 14 -33 16 -33 2 0 -5 5 -10 10 -10 6 0 10 -6 10 -13
0 -7 16 -36 35 -66 19 -29 35 -55 35 -58 0 -3 23 -35 51 -72 76 -97 212 -227
330 -315 57 -42 109 -80 114 -84 25 -20 145 -81 200 -102 33 -12 69 -26 80
-31 56 -22 245 -56 389 -69 60 -6 111 -12 113 -14 3 -2 0 -21 -6 -43 -6 -21
-11 -60 -12 -88 -1 -27 -4 -63 -8 -80 -9 -40 -26 -38 -171 13 -161 57 -218 70
-460 107 -311 47 -357 57 -578 131 -196 65 -272 102 -378 183 -90 67 -224 200
-284 279 -86 115 -141 269 -176 492 -29 184 -17 594 24 840 22 136 21 654 -2
890 -13 137 -29 341 -40 528 -2 34 0 62 5 62 4 0 23 -28 42 -62z m7907 -740
c59 -63 112 -227 132 -403 22 -205 -9 -587 -61 -737 -58 -168 -165 -318 -346
-488 -44 -41 -106 -101 -138 -132 l-58 -58 -82 0 c-220 0 -634 -71 -927 -160
-253 -76 -476 -176 -738 -332 -221 -131 -322 -205 -505 -372 -74 -67 -101 -86
-110 -77 -6 6 -14 43 -18 83 -9 97 -23 107 -146 108 l-93 0 0 46 c0 26 5 64
11 84 19 64 8 84 -63 110 -35 13 -64 24 -65 25 -2 1 12 30 31 64 32 60 38 65
127 113 200 107 459 295 612 444 112 110 185 223 267 419 77 180 140 255 280
325 131 66 207 89 623 189 339 82 663 217 861 359 110 79 224 197 303 313 37
54 70 99 74 99 5 0 18 -10 29 -22z m-3770 -1857 c5 -11 10 -33 10 -50 0 -43
10 -61 37 -72 13 -5 26 -15 29 -23 3 -8 -14 -51 -38 -95 -33 -60 -47 -78 -57
-71 -12 7 -12 13 -1 40 10 25 10 51 1 138 -7 59 -15 117 -18 130 -7 28 22 31
37 3z m3472 -162 c107 -25 181 -56 363 -154 133 -71 282 -133 345 -143 19 -3
78 -23 130 -45 52 -22 114 -45 137 -51 23 -6 45 -15 49 -19 4 -4 14 -7 23 -7
9 0 29 -7 44 -15 40 -21 107 -39 142 -40 24 0 29 -4 27 -18 -3 -17 3 -19 45
-16 46 2 123 -8 123 -18 0 -2 -28 -41 -62 -86 -84 -110 -208 -233 -294 -289
-130 -87 -358 -192 -524 -242 -250 -76 -328 -86 -660 -86 -244 0 -247 0 -465
-40 -277 -51 -370 -76 -575 -149 -247 -89 -294 -111 -440 -206 -203 -131 -267
-154 -450 -162 -150 -6 -338 11 -346 32 -3 7 5 39 17 71 29 81 35 148 15 178
-8 13 -40 38 -71 56 -30 17 -55 35 -55 38 0 4 9 21 20 37 25 37 26 86 3 113
-10 11 -40 28 -68 38 -27 9 -54 21 -59 25 -5 5 12 28 37 52 26 24 47 53 47 63
0 29 -25 60 -60 74 -57 23 -66 14 250 256 199 152 267 199 430 294 463 269
754 376 1245 455 239 39 481 41 637 4z m-3209 -216 c13 -16 14 -20 1 -37 -8
-11 -14 -29 -14 -40 0 -25 28 -56 50 -56 12 0 21 -14 30 -47 7 -27 19 -61 27
-76 17 -34 69 -67 105 -67 27 0 27 -1 22 -44 -6 -39 -3 -47 20 -67 20 -17 26
-32 26 -61 0 -28 7 -46 25 -63 13 -14 29 -25 34 -25 6 0 13 -15 16 -34 5 -24
-1 -53 -23 -107 -26 -67 -52 -100 -52 -67 0 24 -76 221 -120 312 -20 41 -31
52 -52 54 -16 2 -28 -1 -28 -7 0 -23 -17 -9 -29 24 -7 20 -28 50 -47 69 -19
18 -34 36 -34 40 0 19 -51 116 -61 116 -13 0 -6 -64 13 -117 11 -30 10 -35
-17 -63 -44 -46 -64 -37 -90 40 -38 113 -46 134 -57 157 -6 12 -8 29 -5 37 8
20 60 21 76 2 6 -8 21 -16 31 -19 27 -7 27 24 0 48 -27 24 -25 33 13 70 48 47
111 59 140 28z m-213 -505 c6 -28 10 -106 10 -174 0 -72 4 -125 10 -129 6 -3
19 -4 29 0 24 7 33 69 16 110 -8 17 -16 55 -20 86 -6 54 -5 58 23 77 16 12 37
41 47 67 l19 45 13 -42 c7 -24 16 -80 19 -125 6 -77 5 -89 -31 -197 -22 -64
-41 -116 -44 -116 -3 1 -15 15 -26 33 -15 23 -30 33 -55 37 -25 4 -36 11 -38
25 -7 45 -35 91 -68 113 -19 12 -39 20 -44 17 -10 -6 -5 41 10 85 5 14 11 56
14 94 3 38 8 71 11 74 3 3 12 -4 21 -16 27 -39 37 -27 30 41 l-6 62 25 -58
c14 -32 30 -81 35 -109z m802 95 c13 -11 18 -30 18 -65 0 -27 7 -62 15 -78 15
-29 15 -30 -27 -60 l-42 -31 -18 62 c-9 34 -24 70 -33 79 -9 10 -19 36 -22 58
-5 38 -4 41 23 45 56 8 68 7 86 -10z m-430 -236 c59 -136 116 -258 128 -272
18 -22 5 -32 -50 -40 -54 -7 -144 -60 -193 -112 -32 -34 -46 -95 -27 -118 23
-28 49 -17 80 34 28 45 101 110 158 140 21 11 22 10 22 -19 0 -31 -3 -33 -53
-44 -53 -12 -46 -66 9 -76 27 -5 30 -10 39 -65 10 -54 13 -60 35 -60 20 0 26
6 28 30 5 43 15 49 39 23 15 -17 22 -40 25 -85 2 -35 1 -63 -3 -63 -3 0 -26 7
-49 15 -23 8 -57 15 -75 15 -38 0 -95 18 -95 31 0 5 -25 9 -56 9 -52 0 -59 3
-135 61 -89 68 -86 56 -52 167 15 49 17 51 33 37 14 -13 19 -13 28 -2 12 15
46 120 57 177 11 60 15 67 40 78 24 11 25 15 25 107 0 52 3 95 8 95 4 0 19
-28 34 -63z m287 -265 c18 -41 24 -73 23 -116 -1 -32 -3 -61 -6 -63 -3 -3 -28
-2 -55 2 l-51 7 0 79 c0 72 3 83 28 115 15 18 29 34 32 34 3 0 16 -26 29 -58z
m-2902 -5 c15 -36 14 -39 -9 -70 -14 -17 -28 -42 -32 -53 -5 -17 -17 -23 -49
-26 -23 -3 -43 -4 -44 -4 0 1 -3 30 -5 65 l-3 65 55 32 c30 18 59 31 64 30 5
-1 15 -19 23 -39z m2189 -232 c17 -26 15 -70 -8 -163 l-11 -43 -21 20 c-16 15
-25 18 -33 10 -6 -6 -48 -12 -92 -13 -69 -1 -80 1 -75 14 4 8 11 33 17 55 13
53 18 57 55 44 41 -14 73 4 92 53 23 55 50 63 76 23z m-2216 -105 c6 0 10 -4
10 -10 0 -5 -6 -10 -14 -10 -8 0 -24 -8 -36 -18 -46 -37 5 -82 92 -82 15 0 50
-5 79 -11 l52 -11 -24 -19 c-24 -19 -24 -20 -5 -34 15 -11 47 -15 124 -15 94
0 102 -1 88 -16 -44 -43 -9 -80 151 -158 65 -32 125 -61 133 -66 9 -4 29 -10
45 -14 41 -9 69 -32 62 -50 -5 -13 -16 -11 -67 15 -104 51 -217 48 -242 -6
-22 -48 21 -74 66 -40 50 38 183 0 294 -83 27 -21 32 -22 32 -8 0 10 -5 26
-11 37 -10 19 -9 20 13 8 54 -28 164 -105 194 -136 18 -18 36 -33 39 -33 10 0
64 -65 65 -78 0 -18 50 -63 83 -74 23 -8 27 -16 27 -46 0 -21 -7 -46 -15 -56
-8 -11 -15 -33 -15 -49 0 -22 -3 -27 -12 -20 -26 20 -105 41 -168 46 -46 3
-79 13 -113 32 -67 38 -178 65 -269 65 -63 0 -78 -3 -78 -15 0 -8 9 -15 20
-15 11 0 41 -5 67 -12 27 -6 65 -15 86 -20 26 -6 41 -16 47 -33 11 -29 58 -55
98 -55 26 0 32 -6 46 -41 15 -36 20 -41 43 -36 17 3 33 -2 50 -17 43 -38 146
-96 170 -96 14 0 32 4 42 10 15 8 21 3 36 -31 32 -70 101 -102 139 -64 8 8 22
15 30 15 13 0 16 12 16 53 0 30 3 57 7 60 4 4 19 -5 35 -20 20 -19 39 -27 63
-27 46 0 64 25 66 89 1 43 2 46 8 20 13 -51 29 -72 81 -104 50 -31 54 -43 28
-78 -5 -7 -7 -21 -4 -31 6 -17 -1 -20 -76 -25 -56 -5 -84 -3 -89 4 -12 19 -29
-1 -29 -33 0 -37 23 -57 67 -58 27 0 31 -3 26 -17 -4 -10 -15 -25 -24 -33 -10
-8 -26 -30 -36 -49 -26 -48 -48 -54 -37 -10 11 48 7 88 -12 116 -11 18 -13 28
-5 36 6 6 11 19 11 29 0 27 -80 25 -105 -2 -10 -11 -28 -20 -40 -20 -13 0 -55
-7 -94 -16 -81 -18 -131 -55 -131 -97 0 -25 0 -25 -31 -10 -53 27 -96 12 -158
-53 -29 -32 -58 -70 -63 -85 -6 -19 -25 -35 -54 -49 -58 -29 -130 -110 -167
-190 -24 -53 -31 -83 -35 -160 -4 -85 -3 -94 11 -82 8 7 19 31 22 54 15 86
101 222 204 323 28 27 51 57 51 68 0 12 17 26 53 42 63 30 72 30 104 5 30 -23
68 -26 76 -6 3 7 3 32 0 55 -5 39 7 56 22 31 3 -5 40 -10 81 -10 41 0 74 -4
74 -10 0 -5 -10 -28 -21 -50 -17 -31 -20 -51 -16 -84 5 -38 3 -46 -19 -67 -29
-27 -61 -84 -64 -114 -5 -46 0 -55 28 -55 l28 0 -4 -132 c-3 -109 -7 -137 -22
-153 -10 -11 -22 -29 -28 -40 -15 -31 -68 -194 -82 -253 l-12 -53 -34 7 c-50
9 -77 -17 -69 -66 5 -30 3 -36 -17 -45 -13 -5 -32 -27 -43 -47 -17 -31 -27
-39 -66 -47 -25 -6 -70 -20 -100 -33 -51 -22 -65 -23 -252 -20 -186 3 -201 2
-234 -18 -20 -11 -37 -19 -39 -17 -5 5 24 156 36 184 12 28 50 20 50 -11 0
-29 17 -53 28 -41 5 6 17 36 26 67 22 73 89 201 183 351 71 114 81 143 45 130
-65 -23 -218 -237 -252 -353 -7 -23 -8 -23 -15 -6 -11 25 18 134 56 209 37 74
36 80 -2 72 -29 -6 -30 -6 -20 13 6 12 11 28 11 37 0 9 16 36 35 59 64 79 36
102 -47 39 -90 -69 -165 -204 -204 -368 -22 -90 -22 -90 5 -87 19 2 22 -1 16
-15 -14 -36 -53 -189 -60 -235 -4 -30 -11 -48 -20 -48 -19 0 -25 24 -15 60 8
29 11 100 13 279 0 49 -3 57 -35 86 -19 18 -41 34 -49 37 -10 3 -3 18 26 52
69 82 155 200 155 214 0 6 4 12 10 12 6 0 6 -9 0 -26 -14 -35 -13 -84 1 -84
15 0 33 23 61 78 12 23 36 51 53 61 17 10 64 61 104 114 39 53 97 119 129 147
53 48 56 52 39 65 -11 7 -25 11 -32 9 -7 -3 -23 4 -35 16 -21 21 -29 22 -146
18 -81 -2 -125 0 -128 7 -10 27 -234 -142 -369 -280 -43 -44 -75 -72 -71 -62
5 13 -1 25 -19 40 -37 31 -99 151 -109 211 -4 28 -5 73 -2 99 6 44 8 47 24 32
9 -8 23 -15 32 -15 25 0 99 55 167 123 94 96 69 96 -121 1 -38 -18 -68 -32
-68 -29 0 2 16 39 36 82 29 64 35 87 32 130 l-3 51 40 6 c22 3 81 12 130 21
150 26 267 37 333 32 90 -7 81 19 -16 44 -42 10 -66 11 -123 1 -38 -7 -105
-12 -149 -12 -73 0 -80 -2 -80 -20 0 -18 -7 -20 -57 -20 -62 1 -62 2 12 40 37
18 39 44 5 48 -30 3 -130 -20 -181 -41 -34 -15 -37 -15 -67 6 -60 43 -67 66
-67 229 0 80 3 149 6 152 3 4 21 -7 39 -24 20 -19 43 -30 61 -30 38 0 38 22
-2 67 -16 19 -28 40 -26 46 7 23 76 19 133 -7 67 -31 86 -25 47 16 -38 41 -95
68 -139 68 -21 0 -35 3 -32 6 6 6 193 15 361 17 53 1 97 4 97 7 0 3 -5 12 -10
20 -7 11 -35 16 -115 18 -101 4 -105 5 -105 26 0 12 -16 41 -35 63 -39 46 -40
44 48 91 51 27 103 47 222 82 56 17 132 22 152 11 23 -12 34 -6 26 15 -8 22
-57 44 -95 44 -18 0 -76 -9 -128 -21 -52 -11 -107 -23 -122 -26 -20 -4 -37 2
-65 24 -81 63 -180 92 -211 61 -21 -21 -13 -55 20 -88 31 -32 32 -32 48 -13
14 18 19 18 64 7 46 -12 84 -34 59 -34 -6 0 -32 -16 -58 -36 l-47 -35 -43 36
c-25 20 -50 48 -58 63 -11 24 -18 27 -60 25 -26 -1 -47 3 -47 7 0 5 27 25 59
44 126 77 176 180 206 418 l6 48 50 -50 c28 -28 54 -50 59 -50z m3046 33 c12
-71 32 -158 39 -176 6 -13 -1 -20 -29 -32 -20 -9 -41 -13 -45 -11 -5 3 -11 33
-15 66 -3 33 -9 87 -12 119 -6 52 -4 60 12 64 38 10 43 6 50 -30z m2479 -16
c43 -23 113 -67 155 -98 180 -135 505 -514 679 -794 67 -108 259 -489 314
-625 51 -124 150 -439 141 -449 -2 -2 -59 41 -126 96 -263 213 -351 268 -523
323 -55 18 -131 43 -170 56 -85 27 -175 43 -315 54 -58 5 -125 14 -150 21 -33
9 -196 13 -600 14 -305 2 -600 6 -655 9 -55 3 -189 11 -299 16 -200 11 -355
34 -457 68 l-54 19 -6 154 c-3 85 -9 175 -14 202 l-7 47 233 0 c131 0 298 6
379 14 80 8 224 20 320 26 207 12 831 13 945 0 60 -6 83 -5 93 4 10 10 5 15
-25 24 -45 14 -271 39 -478 53 -187 13 -678 3 -840 -17 -66 -8 -238 -18 -382
-21 l-262 -6 -16 40 c-9 22 -27 60 -39 84 l-23 43 31 21 c21 14 33 31 36 54
l5 33 125 -1 c140 -2 241 10 345 41 95 28 166 65 325 168 210 136 476 246 735
304 187 41 425 76 470 69 17 -3 66 -24 110 -46z m-3625 -167 c0 -5 -5 -21 -12
-35 -9 -20 -8 -31 3 -51 12 -23 11 -30 -5 -57 -78 -132 -125 -258 -191 -507
-9 -36 -22 -76 -29 -89 -11 -24 -11 -23 -14 13 -2 21 2 77 8 124 6 48 16 123
21 167 14 126 14 125 54 118 l35 -6 -25 47 c-30 56 -30 67 -8 149 20 75 25 82
50 66 30 -18 51 -5 59 38 4 21 9 41 11 46 5 9 43 -11 43 -23z m168 -12 c-3 -7
-16 -14 -31 -16 -14 -2 -30 -9 -35 -15 -6 -7 -12 -59 -15 -117 -6 -128 -20
-195 -57 -275 -31 -66 -74 -124 -85 -113 -9 9 56 269 91 363 38 103 39 113 17
117 -16 3 -15 7 10 30 16 15 38 29 50 31 44 8 59 7 55 -5z m582 -93 c9 -16 53
-44 134 -83 67 -33 132 -71 145 -86 31 -33 41 -33 41 -1 0 33 -16 60 -69 117
-37 39 -42 48 -28 54 9 3 31 1 49 -5 18 -7 66 -14 106 -18 62 -5 72 -8 66 -22
-30 -72 -54 -161 -54 -203 0 -44 4 -54 34 -84 21 -21 44 -34 60 -34 21 0 26
-5 26 -25 0 -24 -35 -123 -49 -138 -4 -4 -21 12 -37 36 -31 43 -115 106 -177
132 -28 12 -37 11 -64 -2 -31 -14 -33 -14 -70 15 -21 17 -61 42 -90 57 -28 14
-57 33 -64 41 -8 10 -22 13 -39 9 -18 -4 -33 -1 -44 10 -15 15 -14 18 14 42
17 13 30 32 30 41 0 19 32 107 43 118 4 4 7 18 7 31 0 30 13 29 30 -2z m-290
-34 c-18 -35 -11 -78 23 -129 17 -27 44 -57 60 -66 15 -10 27 -21 27 -26 0 -5
-21 -19 -46 -32 -26 -12 -69 -44 -97 -70 -78 -75 -92 -60 -52 59 34 101 55
189 55 234 0 39 6 49 27 49 10 0 11 -5 3 -19z m-1727 -62 c47 -24 159 -90 167
-98 3 -3 12 -10 22 -16 9 -5 61 -40 115 -76 188 -126 219 -135 216 -61 -1 23
0 42 3 42 8 0 64 -124 64 -142 0 -22 -38 -24 -46 -3 -8 21 -48 19 -68 -4 -16
-18 -19 -16 -77 44 -33 35 -95 87 -137 115 -42 29 -87 63 -98 74 -12 12 -59
43 -105 70 -46 27 -93 55 -104 63 -31 21 1 15 48 -8z m1433 -244 c-8 -120 -63
-342 -111 -450 -7 -16 -30 -70 -51 -120 -21 -49 -39 -92 -41 -94 -2 -3 -10 2
-18 10 -13 12 -13 27 -5 89 6 41 17 128 25 192 13 103 20 128 58 205 45 89 65
142 87 223 7 25 14 51 16 59 4 11 9 10 25 -5 20 -18 21 -26 15 -109z m-2300
-10 c49 -30 98 -61 109 -70 20 -16 20 -16 -1 -10 -48 13 -201 10 -218 -4 -9
-8 -18 -12 -19 -10 -14 19 -37 59 -37 64 0 5 70 85 75 85 2 0 43 -25 91 -55z
m3040 -106 c25 -23 128 -69 156 -69 27 0 48 -11 48 -26 0 -19 30 -82 61 -129
25 -38 26 -44 17 -98 -6 -31 -15 -57 -20 -57 -6 0 -46 27 -89 60 -43 33 -84
60 -90 60 -8 0 -10 -12 -6 -32 l5 -33 -118 0 c-117 0 -119 0 -134 26 -14 24
-13 31 21 110 20 46 37 85 38 87 5 5 83 -37 90 -48 10 -16 35 -12 35 5 0 9
-20 37 -44 63 l-44 47 21 28 c25 33 25 33 53 6z m-3235 -26 c11 -28 3 -129
-20 -248 -5 -27 -10 -103 -10 -168 -1 -133 7 -163 64 -226 l37 -41 -27 -10
c-14 -5 -30 -10 -35 -10 -4 0 -63 -39 -131 -87 -256 -180 -354 -231 -538 -279
-86 -23 -115 -26 -276 -26 -142 0 -201 4 -280 20 -55 11 -154 26 -220 32 -224
20 -249 32 -340 150 -49 63 -54 80 -29 101 9 8 71 86 138 174 174 231 343 402
369 376 6 -6 18 -11 27 -11 8 0 27 -6 42 -14 96 -50 240 -86 348 -86 225 0
606 158 790 328 30 28 61 51 68 52 7 0 17 -12 23 -27z m2630 -39 c10 -12 10
-25 0 -67 -28 -111 -104 -321 -138 -383 -52 -93 -158 -184 -215 -184 -19 0
-23 5 -24 35 -1 37 15 46 36 20 21 -25 64 -18 88 15 12 16 22 36 22 44 0 23
36 96 54 109 16 12 58 121 71 187 7 33 11 50 50 183 17 58 32 69 56 41z m1147
-259 c3 -102 1 -145 -7 -145 -6 0 -14 14 -18 30 -3 17 -14 36 -23 43 -29 20
-27 175 2 231 9 17 11 17 26 2 14 -14 18 -43 20 -161z m-325 -93 c44 -26 63
-45 82 -83 31 -59 31 -80 4 -105 -28 -24 -58 -91 -59 -126 0 -16 -4 -28 -10
-28 -5 0 -21 -18 -36 -41 -14 -22 -27 -39 -29 -37 -3 2 -12 21 -21 43 l-16 38
26 -16 c14 -9 28 -17 31 -17 15 0 0 39 -40 101 -36 56 -45 78 -45 114 0 24 -5
47 -11 51 -20 12 -61 -40 -62 -80 -1 -20 -3 -36 -6 -36 -4 0 -37 16 -75 35
-87 44 -125 45 -154 5 -29 -38 -53 -38 -92 1 -23 24 -34 29 -43 20 -18 -18
-27 -13 -27 14 0 14 -7 36 -15 49 -14 20 -14 27 -1 57 12 26 15 29 16 13 0
-30 23 -46 62 -42 26 2 37 10 53 40 17 33 25 38 55 38 27 0 44 -9 81 -46 26
-26 52 -43 58 -40 12 8 4 33 -17 58 -35 42 3 55 158 55 67 0 81 -4 133 -35z
m392 -257 c194 -114 668 -159 1580 -153 440 3 466 2 590 -20 72 -12 174 -29
228 -37 149 -23 173 -30 216 -64 44 -35 97 -104 129 -167 36 -71 51 -156 67
-370 9 -115 18 -222 22 -238 l6 -30 -44 28 c-150 93 -314 146 -456 146 l-83 0
-62 59 c-235 220 -579 444 -807 525 -189 67 -389 96 -721 103 -240 5 -300 3
-470 -16 -107 -12 -232 -28 -277 -35 l-83 -13 0 26 c0 15 -12 43 -26 64 -31
46 -27 63 32 123 37 38 44 52 44 84 l0 39 38 -16 c20 -8 55 -26 77 -38z m-626
-30 c74 -43 137 -104 154 -148 6 -17 -22 -57 -49 -68 -27 -11 -64 -136 -64
-215 0 -26 -4 -33 -21 -36 -33 -5 -57 -45 -77 -128 -16 -63 -22 -74 -38 -72
-10 2 -20 5 -22 7 -1 1 3 34 9 72 10 60 9 74 -5 101 -9 17 -16 40 -16 50 0 11
-11 50 -25 86 -14 37 -25 68 -25 70 0 2 20 1 45 -2 74 -8 56 31 -41 91 -26 16
-44 36 -48 52 -6 22 -11 26 -29 20 -52 -15 -52 -15 -50 69 1 43 3 80 5 82 2 2
20 -3 41 -10 55 -19 207 -162 237 -224 28 -57 40 -63 56 -27 10 21 7 34 -27
98 -21 40 -56 94 -79 119 -22 25 -40 49 -40 53 0 13 49 -5 109 -40z m-428
-131 c-12 -21 -21 -44 -21 -50 0 -6 -11 -27 -25 -47 -14 -21 -20 -39 -14 -42
5 -4 25 -37 43 -73 19 -37 54 -101 78 -142 24 -41 47 -83 51 -92 3 -10 14 -18
22 -18 13 0 15 7 10 33 -10 47 -48 162 -80 236 -38 92 -19 139 43 107 20 -11
45 -50 95 -148 37 -74 67 -141 67 -149 0 -8 -7 -24 -15 -36 -19 -27 -39 -171
-32 -224 6 -44 -8 -50 -53 -24 -53 30 -129 6 -146 -47 -6 -19 -9 -16 -33 23
-29 47 -101 205 -101 220 0 6 7 6 18 0 10 -5 42 -13 72 -17 74 -10 64 12 -28
56 -59 28 -74 40 -84 67 -13 36 -23 41 -36 17 -7 -13 -12 -13 -41 3 -31 17
-32 17 -46 -1 -19 -25 -3 -54 45 -78 44 -23 51 -36 40 -84 -20 -85 25 -204
113 -298 l48 -51 -30 -55 c-16 -30 -33 -55 -38 -55 -4 0 -17 39 -28 86 -26
109 -45 139 -88 139 -24 0 -41 -9 -63 -31 -16 -17 -38 -35 -50 -39 -17 -7 -22
-20 -27 -66 -3 -31 -12 -63 -19 -71 -11 -11 -16 -5 -27 32 -7 25 -19 44 -25
42 -6 -2 -23 -34 -37 -70 -22 -59 -49 -96 -71 -97 -3 0 -8 47 -10 105 -2 69
-7 108 -16 117 -21 21 -42 -17 -42 -75 l0 -49 -36 21 c-19 12 -50 21 -68 21
-30 0 -33 3 -45 51 -16 61 -41 64 -53 7 -14 -71 10 -95 101 -102 43 -4 90 -57
105 -118 6 -26 4 -28 -26 -28 -18 -1 -44 -7 -58 -15 -14 -8 -46 -14 -72 -15
-31 0 -78 -13 -145 -42 -55 -23 -115 -42 -137 -42 -37 -1 -40 1 -49 33 -11 46
0 309 17 376 7 29 26 33 26 6 0 -22 33 -98 53 -123 8 -10 22 -18 31 -18 15 0
16 -8 10 -60 -6 -52 -4 -60 10 -60 9 0 16 5 16 11 0 5 10 -1 23 -15 27 -30 77
-46 77 -24 0 8 -10 23 -21 34 -20 17 -21 27 -17 112 3 51 10 98 15 103 17 17
1 149 -18 149 -17 0 -51 -92 -57 -159 -4 -35 -12 -66 -18 -68 -6 -2 -19 17
-29 43 -15 40 -17 66 -11 183 10 221 19 282 52 348 27 55 32 59 84 75 88 27
106 24 135 -22 l25 -39 -23 -38 c-18 -32 -23 -56 -26 -150 -3 -100 -1 -116 20
-157 31 -62 54 -62 44 -1 -8 55 4 205 16 205 5 0 9 -9 9 -20 0 -21 47 -70 67
-70 17 0 16 15 -3 52 -9 16 -13 40 -10 52 3 11 2 27 -3 34 -5 9 1 24 17 42 14
16 35 53 47 81 l21 53 94 1 c82 1 102 5 147 28 68 35 123 84 123 109 0 24 -17
22 -105 -16 -33 -14 -77 -26 -98 -26 l-37 0 64 63 c71 69 113 94 130 77 32
-32 98 1 147 73 l34 50 3 -41 c2 -26 -4 -53 -17 -78z m-2747 -129 c-14 -38
-28 -100 -31 -137 l-6 -67 -111 -56 c-61 -30 -146 -76 -188 -103 -43 -26 -159
-96 -259 -157 -196 -118 -283 -190 -426 -354 -115 -132 -437 -622 -572 -872
-45 -84 -47 -89 -28 -89 6 1 32 30 57 66 25 36 52 73 60 84 8 10 65 89 125
175 299 425 522 693 656 788 55 39 262 170 449 285 58 35 141 82 185 103 l79
39 22 -41 c19 -38 119 -149 134 -149 9 0 -3 -66 -30 -165 -11 -44 -25 -97 -30
-117 -6 -21 -24 -60 -41 -88 -19 -30 -28 -57 -25 -68 6 -18 -20 -98 -65 -199
-47 -107 -132 -278 -140 -281 -5 -2 -9 -8 -9 -12 0 -11 -51 -89 -94 -145 -17
-21 -35 -47 -41 -56 -35 -61 -391 -455 -611 -676 -98 -98 -148 -156 -143 -164
8 -13 471 443 569 562 30 36 87 102 125 147 124 145 180 222 261 362 83 144
122 228 194 420 28 74 66 159 85 187 19 29 35 55 35 58 0 3 11 23 25 45 22 35
28 39 45 30 15 -8 20 -21 20 -51 0 -72 46 -136 138 -193 31 -19 42 -33 42 -51
0 -43 -29 -152 -60 -219 -31 -70 -57 -151 -140 -445 -131 -462 -250 -730 -426
-957 -112 -144 -208 -217 -479 -362 -82 -44 -217 -119 -300 -167 -176 -101
-368 -198 -552 -279 -155 -68 -258 -127 -368 -209 -43 -32 -85 -61 -92 -64
-10 -4 -13 17 -13 93 0 139 -24 413 -57 654 -26 190 -28 228 -27 520 0 274 3
331 22 441 51 297 180 637 355 937 148 252 253 369 428 472 65 39 123 70 128
70 6 0 11 4 11 9 0 11 48 39 110 66 25 10 63 26 85 36 22 9 85 24 140 33 133
21 298 74 419 135 110 56 267 159 336 219 25 22 46 37 48 33 1 -4 -9 -38 -24
-76z m3629 -120 c66 -28 206 -29 427 -5 179 20 238 22 480 17 273 -5 333 -11
520 -53 128 -29 324 -122 510 -244 226 -148 402 -310 581 -535 185 -232 247
-343 334 -600 86 -256 182 -611 169 -624 -2 -2 -30 20 -61 50 -120 114 -215
163 -533 276 -321 115 -336 118 -565 118 -104 0 -320 -6 -480 -14 -283 -13
-291 -14 -315 -37 l-26 -24 -134 102 c-278 209 -465 318 -870 508 -124 58
-273 132 -331 163 -113 62 -236 149 -245 172 -4 9 10 33 32 58 22 25 54 74 73
110 l34 66 23 -24 c12 -13 33 -27 46 -29 77 -18 255 -29 563 -36 380 -9 417
-14 555 -76 181 -80 475 -282 829 -569 179 -145 195 -157 199 -145 13 37 -360
374 -623 562 -117 84 -271 176 -362 216 -69 30 -101 40 -198 62 -22 6 -209 14
-415 19 -422 11 -560 19 -560 31 0 5 15 14 34 20 52 17 70 52 76 150 4 75 7
85 25 88 11 2 28 11 38 20 19 17 19 35 1 105 -4 19 -1 39 12 63 16 30 23 35
45 30 19 -4 54 7 75 23 1 1 17 -6 37 -14z m-2699 -83 c-38 -37 -107 -132 -120
-166 -4 -11 -14 -13 -35 -9 -23 4 -34 0 -58 -25 -15 -17 -31 -45 -34 -62 -4
-17 -13 -30 -21 -30 -8 0 -74 -59 -147 -132 l-132 -132 -18 23 c-27 33 -41 91
-27 109 9 10 9 15 -1 22 -22 13 -5 50 45 105 44 48 45 49 39 20 -17 -90 -17
-102 -2 -108 12 -4 20 6 32 41 44 123 91 216 133 260 59 63 212 120 327 121
l59 1 -40 -38z m2005 -644 c84 -203 171 -264 716 -509 237 -106 472 -229 595
-310 111 -74 245 -173 751 -555 167 -126 236 -200 317 -336 34 -58 62 -107 62
-109 0 -2 -57 51 -127 119 -71 68 -167 150 -215 182 -75 50 -278 156 -533 275
-38 19 -101 51 -140 72 -82 45 -199 97 -420 186 -327 132 -406 174 -565 298
-84 66 -116 86 -118 74 -5 -22 36 -74 138 -176 123 -123 227 -185 485 -288 72
-29 139 -56 150 -61 11 -5 49 -21 84 -35 35 -14 176 -82 315 -149 138 -68 303
-148 366 -179 152 -74 243 -136 367 -249 160 -146 212 -223 268 -394 52 -159
65 -245 65 -429 0 -108 4 -175 11 -182 11 -11 -3 -151 -23 -211 l-10 -34 -38
94 c-89 220 -177 334 -375 482 -236 177 -380 280 -450 323 -113 70 -698 372
-975 503 -272 130 -653 429 -738 581 -34 59 -55 139 -78 284 -7 50 -21 126
-31 170 -18 87 -20 143 -8 340 l7 130 61 63 c34 34 64 62 67 62 3 0 11 -15 19
-32z m-558 -433 c21 -47 48 -99 59 -116 38 -53 100 -28 100 41 0 64 12 160 21
160 4 0 11 -10 15 -22 15 -50 63 -75 91 -47 13 13 23 -42 53 -301 23 -195 32
-239 67 -324 13 -32 22 -60 20 -62 -2 -2 -26 22 -53 53 -27 32 -92 105 -145
163 -90 100 -102 118 -192 300 -67 134 -97 205 -97 229 0 49 14 32 61 -74z
m-998 -95 c10 -30 15 -64 13 -74 -3 -11 0 -40 5 -65 6 -25 17 -73 25 -106 54
-236 74 -407 74 -651 0 -313 -25 -537 -86 -771 -29 -114 -117 -348 -143 -383
-10 -15 -26 -48 -35 -73 -9 -26 -30 -75 -47 -109 -75 -148 -305 -516 -343
-547 -10 -8 -23 -28 -30 -45 -18 -42 -121 -180 -221 -296 -156 -181 -280 -287
-412 -354 -81 -41 -78 -67 -28 219 23 133 27 182 30 435 2 157 0 357 -3 445
l-7 160 100 110 c291 319 426 572 541 1023 98 386 125 579 139 997 l3 89 93
-1 c50 -1 96 -6 101 -11 27 -27 80 -230 99 -377 5 -44 14 -109 20 -145 14 -87
5 -499 -14 -665 -33 -273 -81 -519 -122 -617 -5 -12 -3 -18 7 -18 42 0 141
418 168 710 5 58 14 135 20 173 13 86 13 336 0 424 -5 38 -14 106 -20 153 -18
154 -34 227 -78 348 -8 23 -13 44 -11 45 18 14 90 35 114 34 27 -2 32 -7 48
-57z m-561 -211 c-3 -246 -3 -249 -27 -424 -20 -141 -37 -223 -90 -420 -97
-361 -171 -516 -368 -780 -104 -139 -405 -424 -614 -582 -219 -167 -483 -326
-657 -397 -60 -25 -146 -45 -146 -35 0 5 12 33 26 61 61 121 100 251 145 483
21 114 22 240 1 365 -7 39 -7 58 2 67 13 14 211 124 391 217 188 98 287 166
384 264 105 106 188 226 274 397 101 201 179 400 253 645 19 63 41 135 48 160
8 25 24 80 36 122 l23 77 70 -26 c92 -33 167 -26 207 18 14 15 29 27 35 25 5
-1 8 -95 7 -237z m1276 -144 c21 -136 60 -260 120 -384 9 -19 71 -116 137
-215 192 -288 247 -386 307 -546 45 -120 60 -170 87 -295 12 -55 26 -116 31
-135 5 -19 12 -60 15 -90 4 -30 11 -68 16 -85 4 -16 13 -70 18 -120 6 -49 15
-133 21 -185 17 -150 33 -240 43 -240 12 0 1 417 -14 535 -65 536 -132 726
-398 1125 -215 323 -245 385 -291 610 -20 97 -28 330 -12 330 11 0 42 -66 42
-88 0 -33 58 -138 117 -212 33 -41 121 -141 195 -223 223 -242 269 -304 466
-624 144 -234 233 -404 274 -523 l32 -95 0 -240 c0 -270 -12 -356 -80 -575
-96 -308 -178 -468 -435 -857 -71 -107 -143 -221 -161 -254 -18 -32 -35 -59
-38 -59 -3 0 -13 30 -23 68 -29 112 -99 238 -224 403 -151 201 -218 279 -411
482 -155 162 -293 340 -349 447 -25 49 -27 60 -39 333 -14 287 -14 294 21 447
40 174 57 329 64 575 l6 250 29 45 c46 70 156 313 212 468 19 51 42 134 52
185 l19 92 44 6 c24 4 45 5 47 4 2 -1 -4 -18 -12 -36 -8 -19 -21 -56 -30 -84
-38 -127 -41 -171 -42 -665 0 -315 -4 -508 -12 -550 -6 -36 -18 -105 -26 -155
-9 -49 -23 -124 -31 -165 -27 -127 -29 -174 -11 -189 22 -19 43 -8 48 26 3 15
17 71 31 123 24 91 40 174 69 345 15 90 17 358 6 790 -7 251 -6 293 12 400 32
204 34 205 41 30 4 -88 11 -191 17 -230z m-407 253 c26 -22 56 -16 83 15 18
21 18 21 13 2 -3 -11 -13 -47 -23 -80 -9 -33 -44 -134 -77 -225 l-61 -165 -13
65 c-7 36 -22 106 -33 155 -29 134 -31 183 -10 190 27 8 56 46 71 90 l13 40 7
-35 c4 -19 17 -43 30 -52z m-244 -2371 c38 -81 164 -264 248 -362 33 -38 111
-124 173 -190 104 -109 322 -369 322 -385 0 -3 -29 -27 -64 -53 -35 -26 -106
-87 -159 -137 -123 -117 -136 -145 -119 -269 8 -53 9 -100 3 -122 -24 -103
-107 -197 -300 -340 -110 -82 -167 -117 -175 -108 -3 3 -11 124 -17 270 -8
200 -8 301 2 415 12 154 8 1428 -5 1486 -6 27 17 112 38 137 8 11 12 -20 16
-130 5 -136 7 -148 37 -212z m-1398 -62 c6 -88 11 -199 11 -246 l0 -87 -54
-41 c-30 -22 -98 -79 -152 -127 -107 -95 -254 -207 -262 -200 -2 3 1 33 7 68
15 84 31 230 37 353 8 168 1 153 122 243 59 44 143 111 187 150 48 42 82 65
86 58 4 -6 11 -83 18 -171z m1169 -260 c-4 -187 -10 -443 -14 -570 -5 -192 -3
-264 15 -440 11 -115 23 -280 26 -365 3 -85 8 -200 11 -255 l5 -100 -63 -41
c-35 -22 -109 -78 -165 -122 l-103 -82 0 37 c0 21 7 119 15 218 16 205 20 867
5 1035 -5 58 -12 215 -15 350 l-7 245 69 97 c37 54 103 152 146 219 43 66 80
119 81 117 1 -2 -2 -156 -6 -343z m-106 -3516 l127 -32 6 -36 c15 -97 26 -331
35 -811 6 -289 17 -630 25 -758 8 -128 15 -290 15 -359 0 -69 5 -143 12 -164
8 -28 8 -46 0 -63 -10 -22 -17 -23 -134 -30 -67 -3 -139 -9 -158 -12 l-35 -6
-3 164 c-1 90 -7 206 -12 258 -6 52 -14 304 -20 560 -5 256 -14 539 -20 630
-7 124 -15 626 -11 694 1 4 11 6 24 2 12 -3 79 -20 149 -37z m398 -86 c203
-40 359 -157 656 -491 60 -67 112 -130 116 -140 4 -9 7 -39 8 -67 0 -27 7 -79
15 -115 27 -123 11 -358 -35 -525 -19 -66 -71 -206 -105 -280 -18 -38 -45 -99
-61 -135 -58 -133 -227 -456 -249 -476 -12 -11 -26 -30 -29 -42 l-7 -21 -67
26 c-142 54 -189 70 -257 87 l-70 17 0 167 c0 92 -6 358 -13 592 -7 234 -17
589 -23 790 -9 335 -17 462 -35 594 l-7 48 44 -7 c24 -4 78 -13 119 -22z
m4495 -2067 c69 -19 226 -94 270 -129 27 -23 30 -31 33 -101 5 -96 -19 -208
-58 -269 -39 -62 -87 -95 -271 -187 -86 -44 -226 -125 -310 -182 -85 -57 -221
-146 -304 -197 -182 -114 -255 -165 -500 -347 -104 -77 -226 -165 -270 -196
-165 -113 -202 -141 -284 -210 -146 -125 -507 -537 -708 -808 -106 -143 -278
-401 -308 -461 -44 -88 -39 -88 -129 -1 -200 192 -450 351 -663 422 -206 69
-619 43 -1123 -71 -52 -11 -115 -25 -140 -30 -25 -5 -58 -13 -75 -18 -16 -5
-75 -19 -130 -31 -197 -44 -362 -90 -505 -140 -80 -29 -170 -61 -200 -71 -80
-29 -194 -56 -285 -68 -255 -34 -951 -45 -1345 -22 -309 19 -467 41 -709 102
-64 16 -128 29 -143 29 -18 0 -28 5 -28 15 0 23 415 606 547 768 81 100 115
138 313 347 86 91 221 234 299 318 349 372 847 760 1208 941 179 89 218 105
456 187 292 100 422 127 627 128 175 0 190 -3 430 -104 232 -98 535 -185 745
-215 61 -9 209 -22 330 -30 330 -21 473 -34 550 -47 112 -21 443 -17 540 5
150 35 306 88 488 166 100 44 245 105 322 136 210 86 237 98 410 180 248 117
414 177 558 200 102 17 282 12 362 -9z"/>
<path d="M5312 16570 c-56 -52 -2 -126 85 -117 38 4 49 0 100 -41 118 -92 183
-123 183 -88 0 8 -38 55 -85 104 -67 70 -83 93 -78 110 6 23 -6 29 -22 13 -6
-6 -28 -1 -58 15 -59 29 -96 31 -125 4z"/>
<path d="M4273 15385 c-24 -17 -31 -59 -11 -71 6 -4 81 -8 167 -9 155 -2 201
-10 261 -47 32 -20 35 0 5 32 -57 60 -148 88 -330 105 -56 5 -75 3 -92 -10z"/>
<path d="M4354 15166 c-18 -73 32 -91 222 -82 73 3 145 2 164 -4 42 -12 57 -3
30 20 -27 24 -142 48 -260 55 -69 4 -96 9 -103 20 -13 24 -46 18 -53 -9z"/>
<path d="M10455 16194 c-99 -7 -225 -18 -280 -23 -55 -6 -161 -11 -235 -11
-189 -1 -380 -23 -547 -65 -139 -34 -181 -44 -238 -60 -33 -9 -82 -22 -110
-30 -88 -23 -229 -65 -270 -79 -22 -8 -74 -24 -115 -36 -41 -12 -84 -25 -95
-30 -11 -4 -51 -18 -90 -30 -82 -26 -304 -106 -355 -128 -251 -109 -280 -148
-57 -76 62 20 121 40 132 44 11 5 76 25 145 45 69 20 168 49 220 65 52 17 136
41 185 56 50 14 110 32 135 39 541 159 737 199 1115 225 136 9 307 28 450 48
39 6 128 13 200 17 138 8 191 19 165 35 -19 13 -133 11 -355 -6z"/>
<path d="M4377 14580 c-29 -19 -9 -30 53 -30 32 0 61 -4 64 -9 3 -4 21 -11 41
-14 46 -7 209 -69 283 -106 32 -16 95 -57 140 -90 85 -63 115 -73 127 -43 5
12 -8 30 -48 68 -30 28 -57 60 -59 70 -2 12 -15 21 -38 25 -19 3 -65 20 -101
36 -57 27 -104 44 -235 84 -50 15 -207 21 -227 9z"/>
<path d="M4243 14441 c-75 -19 -103 -34 -103 -57 0 -27 35 -34 91 -18 114 33
313 64 354 57 l30 -6 -19 22 c-18 20 -28 21 -150 20 -89 0 -154 -6 -203 -18z"/>
<path d="M3850 14289 c-41 -21 -106 -50 -145 -65 -100 -39 -130 -78 -82 -108
19 -13 34 -12 127 5 58 11 156 21 218 24 62 3 121 9 130 14 9 4 34 11 54 15
51 9 126 43 136 62 7 13 25 15 100 13 68 -3 92 -1 92 8 0 7 -10 15 -22 17 -13
2 -48 9 -78 15 -30 6 -84 13 -119 16 -35 3 -70 10 -77 16 -13 10 -34 5 -34 -9
1 -21 23 -36 61 -41 64 -9 59 -26 -13 -40 -99 -19 -200 -31 -210 -25 -5 3 -47
5 -94 5 -97 -1 -99 5 -18 50 58 33 71 47 58 58 -5 4 -43 -10 -84 -30z"/>
<path d="M4650 14101 c-8 -5 -33 -12 -55 -15 -22 -4 -78 -21 -125 -37 -96 -33
-135 -36 -148 -12 -13 23 -42 9 -42 -21 0 -74 47 -75 225 -6 168 65 195 78
195 90 0 12 -29 13 -50 1z"/>
<path d="M4220 14090 c-36 -4 -133 -8 -217 -9 -159 -1 -179 -7 -147 -42 37
-40 374 -15 431 33 14 11 18 29 6 26 -5 0 -37 -4 -73 -8z"/>
<path d="M4749 13961 c-65 -23 -119 -58 -119 -77 0 -13 6 -15 33 -9 105 22
196 14 313 -27 69 -25 94 -20 94 18 0 38 -28 79 -67 98 -45 21 -191 20 -254
-3z"/>
<path d="M4780 13812 c-136 -9 -327 -59 -398 -103 -27 -16 -39 -56 -25 -78 20
-32 70 -25 162 23 96 49 242 108 249 101 3 -3 -15 -25 -41 -50 -51 -51 -153
-218 -136 -224 6 -2 52 37 102 87 91 89 143 123 204 136 63 14 66 66 3 66 -20
0 -27 5 -26 17 1 19 -38 30 -94 25z"/>
<path d="M4175 13700 c-124 -23 -307 -128 -321 -185 -5 -18 -15 -25 -47 -30
-65 -11 -97 -51 -65 -83 9 -9 8 -16 -5 -30 -32 -36 -17 -102 24 -102 32 0 309
240 309 267 0 20 -58 16 -99 -8 l-36 -21 35 32 c67 59 210 120 314 134 46 6
56 14 36 26 -17 11 -87 11 -145 0z"/>
<path d="M5174 13513 c-44 -42 -90 -106 -128 -176 -20 -39 -22 -48 -10 -58 18
-15 66 33 141 143 77 112 75 165 -3 91z"/>
<path d="M4791 13237 c-6 -8 -23 -49 -37 -93 -21 -63 -67 -173 -91 -216 -2 -4
2 -10 8 -14 20 -12 116 102 163 197 25 50 46 97 46 104 0 30 -68 47 -89 22z"/>
<path d="M4901 13141 c-10 -6 -17 -41 -22 -113 -6 -83 -25 -261 -32 -302 -1
-5 3 -10 10 -13 14 -5 51 64 83 157 31 89 40 239 16 263 -19 19 -34 21 -55 8z"/>
<path d="M5015 13078 c-4 -18 -11 -37 -15 -43 -4 -5 -13 -37 -19 -70 -13 -71
-15 -77 -23 -90 -3 -5 -5 -49 -5 -98 0 -63 -5 -98 -18 -127 -32 -71 11 -66 52
6 26 45 53 130 53 167 0 13 -9 35 -19 49 -18 23 -18 27 -4 78 20 70 28 160 15
160 -6 0 -14 -15 -17 -32z"/>
<path d="M4767 12712 c-15 -10 -43 -36 -62 -58 -19 -21 -35 -34 -35 -27 0 6 4
13 10 15 23 8 -9 30 -34 24 -60 -15 -215 -286 -163 -286 13 0 45 40 119 151
52 77 73 92 37 26 -33 -62 -53 -146 -38 -162 12 -12 35 15 80 95 18 30 56 88
85 129 71 97 72 139 1 93z"/>
<path d="M5863 13247 c3 -29 12 -77 21 -107 55 -181 71 -220 91 -220 38 0 0
209 -63 348 -9 21 -21 32 -35 32 -18 0 -19 -5 -14 -53z"/>
<path d="M5584 3048 c-4 -6 0 -17 10 -23 9 -7 28 -21 42 -31 299 -217 483
-404 616 -625 74 -122 281 -551 309 -639 4 -14 17 -50 28 -80 24 -63 55 -177
72 -265 6 -33 14 -175 18 -315 5 -221 8 -260 24 -283 11 -17 26 -27 41 -27 23
0 24 4 29 93 3 50 10 164 17 253 22 324 -23 518 -231 982 -185 412 -313 588
-566 778 -53 40 -204 122 -278 151 -16 6 -47 19 -69 27 -46 19 -53 20 -62 4z"/>
</g>
</svg>
