<?xml version="1.0" encoding="UTF-8" standalone="no"?>
<!DOCTYPE svg PUBLIC "-//W3C//DTD SVG 1.1//EN" "http://www.w3.org/Graphics/SVG/1.1/DTD/svg11.dtd">
<svg width="100%" height="100%" viewBox="0 0 420 420" version="1.1" xmlns="http://www.w3.org/2000/svg" xmlns:xlink="http://www.w3.org/1999/xlink" xml:space="preserve" xmlns:serif="http://www.serif.com/" style="fill-rule:evenodd;clip-rule:evenodd;stroke-linecap:round;stroke-linejoin:round;stroke-miterlimit:1.5;">
    <g transform="matrix(1.49544,0,0,1.49544,-35.1079,-51.5628)">
        <g id="Слой1">
            <path d="M110.98,153.379C109.183,151.265 110.907,148.143 106.634,147.075C100.848,145.628 81.775,150.792 84.733,159.668C85.746,162.705 88.105,164.61 90.482,166.512C93.762,169.136 98.849,169.402 102.802,169.797C114.646,170.981 129.773,169.353 140.307,163.5C145.112,160.831 154.254,155.531 150.71,148.443C145.947,138.916 134.294,137.478 124.703,136.945C104.499,135.823 85.725,137.895 67.486,147.622C57.768,152.805 45.108,161.679 54.072,173.63C55.3,175.267 57.142,176.743 58.726,178.01C61.752,180.431 65.011,182.015 68.581,183.485C74.649,185.984 81.379,187.24 87.745,188.687C99.366,191.328 111.201,191.387 123.06,191.972C140.198,192.817 157.621,184.248 173.706,179.652" style="fill:none;stroke:black;stroke-width:3.47px;"/>
            <path d="M170.805,180.332C170.357,180.302 170.368,180.551 170.805,180.332C171.999,179.735 176.694,178.365 177.862,177.586C180.914,175.551 186.428,170.457 184.931,165.964C181.898,156.866 162.922,155.287 154.817,155.287" style="fill:none;stroke:black;stroke-width:3.47px;"/>
        </g>
        <g id="Слой2">
            <path d="M49.282,166.993C44.179,171.487 40.282,176.126 39.464,181.134L41.32,219.336C45.477,224.95 54.642,229.149 60.167,227.971C101.311,234.688 144.394,234.54 183.766,225.365C188.286,223.046 190.702,215.293 190.607,209.358L193.729,180.825C191.823,174.891 189.558,171.344 185.15,166.937" style="fill:none;stroke:black;stroke-width:1.34px;"/>
            <path d="M103.767,154.289C103.127,154.293 99.284,157.878 99.848,158.441C101.221,159.814 102.878,161.747 104.722,162.208C112.116,164.056 118.932,163.038 125.992,160.214C131.363,158.065 134.404,153.333 130.867,148.027C127.986,143.706 120.384,144.102 116.022,143.375C101.917,141.024 88.246,142.32 75.697,150.686C68.761,155.31 60.083,163.113 66.717,170.695C71.928,176.65 83.267,180.171 90.542,181.262C109.582,184.118 130.433,183.798 149.347,177.78C158.503,174.866 166.181,175.149 172.369,167.785C176.193,163.234 158.514,156.466 160.446,156.466" style="fill:none;stroke:black;stroke-width:1.34px;"/>
            <path d="M192.324,194.721C192.201,194.744 191.562,192.548 191.133,192.119C190.01,190.997 187.864,190.595 186.48,189.903C182.852,188.089 176.153,189.239 172.078,189.239C170.162,189.239 167.516,188.773 165.653,189.239C150.062,193.136 131.871,198.582 115.579,196.772C107.188,195.84 98.333,193.239 90.32,190.568" style="fill:none;stroke:black;stroke-width:1.34px;"/>
        </g>
    </g>
    <g id="Слой3">
        <g transform="matrix(1.09366,0.311498,-0.311498,1.09366,81.3684,-20.026)">
            <path d="M324.532,247.389C347.56,234.506 350.668,217.011 350.131,199.357C337.442,173.498 286.285,187.12 283.228,246.983L169.35,341.802C162.318,355.276 161.871,356.471 170.564,365.164C171.215,365.815 175.97,368.059 180.527,367.216C186.976,366.025 193.383,361.432 192.266,361.432L289.968,252.873C304.01,253.562 316.758,251.271 324.532,247.389Z" style="fill:none;stroke:black;stroke-width:1.88px;"/>
            <path d="M293.622,249.195C293.515,249.177 295.823,248.865 296.753,248.865C299.002,248.865 301.763,248.992 303.847,248.297C310.178,246.187 315.893,243.41 322.01,240.351C333.357,234.677 339.559,221.805 342.443,210.27C343.804,204.824 340.456,200.031 340.456,196.932" style="fill:none;stroke:black;stroke-width:1.88px;"/>
            <path d="M286.058,251.715C286.394,251.694 283.476,252.209 280.861,254.824" style="fill:none;stroke:black;stroke-width:1.88px;"/>
            <path d="M278.218,260.729C275.416,261.513 272.75,266.34 270.077,269.014C264.451,274.639 259.95,281.978 254.185,287.744C247.265,294.663 240.97,301.81 234.036,308.744C227.668,315.112 218.137,321.812 214.17,329.744C211.334,335.418 203.826,339.081 201.116,344.501C199.91,346.914 196.54,348.386 195.157,350.461C190.885,356.868 175.129,368.014 169.9,357.556" style="fill:none;stroke:black;stroke-width:1.88px;"/>
        </g>
        <path d="M229.875,192.377C229.86,193.514 229.875,195.587 230.141,196.455C230.28,196.906 230.449,197.329 230.65,197.722C230.754,198.953 230.981,200.82 231.442,201.954C231.439,202.248 231.409,204.673 231.36,205.963C231.247,208.939 231.604,211.747 232.742,214.022C233.401,215.34 233.238,217.007 233.361,218.617C233.511,220.588 233.745,222.537 234.24,224.348C234.131,225.093 233.89,226.84 233.888,227.754C233.884,229.437 234.238,230.971 234.904,232.303C237.424,237.342 237.7,244.654 239.626,250.432C240.636,253.461 242.163,255.434 243.27,258.623C243.256,258.994 243.211,260.28 243.205,260.974C243.198,261.797 243.242,262.612 243.36,263.412C243.309,264.399 243.23,266.323 243.328,267.313C243.456,268.611 243.808,269.633 244.124,270.292C245.347,272.843 247.319,273.901 249.101,274.315C250.916,274.738 253.461,274.85 256.011,272.3C257.031,271.28 258.104,269.589 258.288,267.161C258.39,265.809 258.008,263.556 257.726,262.18C257.749,260.837 257.859,259.007 258.335,258.054C258.461,257.803 258.609,257.3 258.749,256.74C259.253,256.182 259.676,255.533 259.992,254.806C260.862,252.802 260.743,250.615 259.848,248.794C260.495,247.987 261.017,246.916 261.307,245.503C261.337,245.359 261.364,244.053 261.329,242.729C260.875,240.264 259.155,238.24 256.87,237.357C258.425,237.901 260.759,239.246 261.322,242.504L261.329,242.729L261.368,242.948C261.383,243.068 261.399,243.187 261.414,243.306L261.44,243.645L261.451,244.039C261.451,243.906 261.447,243.775 261.44,243.645L261.435,243.471C261.419,243.292 261.403,243.113 261.387,242.934L261.322,242.504C261.294,241.448 261.222,240.422 261.083,240.004C260.949,239.603 261.058,239.197 261.058,238.731C261.058,234.979 262.237,231.464 262.237,227.723C262.237,214.61 256.273,199.998 249.043,189.152C246.911,185.954 246.048,182.037 244.623,178.475C244.481,178.12 242.942,175.382 241.879,174.072C241.007,172.998 240.115,172.349 239.575,172.03C235.664,169.718 232.662,171.201 230.742,173.121C230.043,173.82 229.286,174.847 228.846,176.333C228.503,177.489 228.65,182.177 228.65,182.177C228.65,182.177 228.644,181.986 228.644,181.922C228.644,185.206 228.978,189.141 229.875,192.377ZM252.572,237.082C252.105,237.175 251.615,237.316 251.128,237.523L251.144,237.6C251.595,237.378 252.073,237.203 252.572,237.082Z" style="fill:white;"/>
        <path d="M120.067,286.555C119.493,286.748 118.919,287.016 118.344,287.359C118.019,287.553 117.639,287.883 117.237,288.288C116.551,288.318 115.854,288.448 115.144,288.685L115.113,288.696C112.712,288.13 110.172,288.84 108.409,290.603C108.409,290.603 107.659,291.352 107.284,291.727C105.361,293.65 103.995,296.801 106.012,300.747C106.789,302.268 109.089,304.728 110.848,306.057C112.358,307.198 113.755,307.715 114.36,307.866C117.023,308.532 118.685,307.95 119.836,307.41C120.436,307.129 121.085,306.534 121.681,305.869C122.415,305.694 123.347,305.42 124.313,305.007C125.467,305.032 126.701,304.749 128.027,304.085C130.194,303.002 131.572,300.966 131.906,298.737C132.895,299.659 135.515,301.642 139.448,300.051C139.669,299.961 140.544,299.483 141.16,299.141C141.752,299.073 143.148,298.908 143.718,298.827C145.089,298.631 146.496,298.238 147.919,297.734C148.627,298.24 149.489,298.717 150.537,299.136C154.209,300.605 157.9,300.603 161.554,299.857C163.758,299.408 165.939,298.645 168.056,298.082C168.719,298.346 170.373,298.992 171.299,299.241C173.453,299.822 175.679,299.912 178.135,299.093C181.361,298.018 184.629,297.551 187.954,296.886C189.79,296.519 191.696,295.861 193.625,295.251C194.068,295.111 194.51,294.944 194.952,294.801C195.227,295.577 195.522,296.318 195.77,296.732C196.611,298.134 197.912,299.461 199.593,300.528C201.758,301.902 204.747,302.873 206.734,303.369C209.415,304.04 212.905,303.385 215.361,301.698C217.433,301.633 219.476,300.9 221.362,299.496C222.038,298.993 222.895,298.143 223.702,297.28C224.335,297.549 224.922,297.722 225.429,297.823C226.641,298.065 228.78,298.041 231.022,297.513C233.736,296.874 236.57,295.534 237.583,294.736C241.46,291.679 240.857,287.971 239.856,285.788C239.351,284.684 237.742,281.384 232.268,281.384C230.503,281.384 228.887,282.024 227.639,283.084C226.48,282.434 225.108,281.722 224.382,281.55C222.257,281.047 220.423,281.402 218.946,282.141C217.871,282.678 216.648,283.609 215.47,284.914C215.171,285.245 214.74,285.74 214.312,286.238C212.844,285.882 211.45,286.118 210.215,286.538C209.409,286.811 208.55,287.248 207.748,287.944C207.432,286.966 207.035,285.866 206.671,285.219C205.351,282.868 203.407,281.303 200.841,280.661C198.043,279.962 195.224,280.098 192.429,280.725C189.94,281.283 187.484,282.367 185.144,282.835C181.548,283.554 178.021,284.133 174.527,285.206C173.763,284.903 172.297,284.34 171.391,284.103C170.63,283.905 169.851,283.763 169.047,283.701C168.797,283.374 168.512,283.052 168.194,282.733C167.65,282.189 166.963,281.67 166.091,281.263C165.662,281.063 164.394,280.854 163.365,280.712C159.6,279.192 155.671,279.432 151.687,280.738C148.317,281.842 144.937,284.174 141.703,284.64C141.525,283.655 141.31,282.695 141.07,281.974C141.104,282.075 141.176,282.336 141.176,282.336C141.176,282.336 139.968,278.168 138.875,276.856C137.697,275.441 136.245,274.59 134.674,274.2C133.089,273.808 131.255,273.803 129.195,274.833C125.654,276.604 123.034,279.885 121.137,283.923C120.741,284.766 120.394,285.657 120.067,286.555ZM231.793,295.696L231.801,295.697L231.793,295.696Z" style="fill:white;"/>
        <path d="M195.592,380.25C194.614,379.716 193.5,379.405 192.32,379.381C189.103,379.313 186.278,381.392 185.337,384.391C183.345,384.786 181.576,386.021 180.528,387.839C179.112,390.298 179.28,393.362 180.958,395.651C180.958,395.651 183.071,398.061 184.469,398.761C186.075,399.563 187.976,399.864 189.994,399.511C190.738,399.38 191.531,399.117 192.262,398.821C193.782,398.837 195.365,398.777 196.497,398.4C200.171,397.175 204.028,394.313 206.492,390.971C208.558,388.167 209.64,385.04 209.64,382.234C209.64,378.28 206.43,375.07 202.476,375.07C199.21,375.07 196.452,377.26 195.592,380.25Z" style="fill:white;"/>
    </g>
    <g transform="matrix(1.60661,0,0,1.53218,-141.04,-189.114)">
        <g transform="matrix(2.63534,0,0,2.49794,-353.767,-222.949)">
            <ellipse cx="237.74" cy="155.946" rx="21.414" ry="7.109" style="fill:none;stroke:black;stroke-width:0.53px;"/>
        </g>
        <path d="M216.326,166.594C209.732,172.564 209.772,172.131 212.814,182.328C222.659,183.164 225.7,179.791 235.58,179.791" style="fill:none;stroke:black;stroke-width:1.36px;"/>
        <path d="M221.95,181.812L237.447,300.662C265.503,312.912 282.648,314.137 306.154,302.056L325.802,173.261" style="fill:none;stroke:black;stroke-width:1.36px;"/>
        <path d="M237.957,201.1C237.738,200.865 237.568,200.686 237.491,200.609C236.45,199.568 234.429,196.852 232.396,195.428C230.886,194.37 229.365,194.027 228.155,195.236C227.872,195.519 227.642,195.996 227.489,196.6C227.283,197.412 227.201,198.465 227.235,199.517C227.27,200.568 227.42,201.617 227.668,202.424C227.851,203.018 228.093,203.487 228.37,203.764C228.97,204.363 229.921,204.821 230.985,205.186C232.491,205.702 234.225,206.044 235.395,206.434C236.058,206.655 237.157,206.937 237.893,207.119C237.078,207.839 235.677,209.161 235.174,210.168C234.528,211.459 233.198,214.341 232.922,216.783C232.72,218.566 233.088,220.114 234.487,220.813C235.555,221.347 236.548,220.85 237.401,219.764C239.119,217.578 240.285,212.921 240.596,211.989C240.701,211.674 240.765,211.252 240.802,210.814C241.001,211.346 241.215,211.876 241.406,212.257C241.974,213.392 244.682,216.151 246.94,217.358C248.007,217.929 248.989,218.131 249.643,217.804C250.112,217.57 250.399,217.262 250.554,216.917C250.78,216.411 250.725,215.8 250.441,215.143C249.523,213.026 246.097,210.29 245.443,209.635C245.267,209.459 244.455,208.941 243.879,208.45C244.215,208.644 244.564,208.873 244.803,208.993C245.044,209.113 245.437,209.174 245.891,209.175C246.832,209.177 248.061,208.951 248.52,208.798C250.253,208.22 254.766,205.708 256.693,203.001C257.598,201.73 257.939,200.41 257.337,199.207C256.98,198.493 256.542,198.089 256.066,197.888C255.589,197.687 255.063,197.69 254.509,197.828C253.541,198.069 252.475,198.743 251.465,199.248C248.031,200.965 245.655,202.313 243.647,204.083C243.625,202.909 243.626,199.982 243.626,198.962C243.626,197.313 243.127,192.674 241.605,189.79C240.954,188.556 240.111,187.642 239.073,187.333C238.362,187.122 237.552,187.184 236.636,187.642C236.018,187.951 235.705,188.562 235.577,189.295C235.416,190.22 235.56,191.347 235.56,192.085C235.56,194.839 236.912,197.759 237.507,200.138C237.58,200.43 237.746,200.757 237.957,201.1ZM242.937,204.742C242.923,204.699 242.907,204.632 242.902,204.541C242.867,203.924 242.867,200.153 242.867,198.962C242.867,197.382 242.398,192.938 240.941,190.175C240.4,189.15 239.729,188.355 238.866,188.099C238.31,187.933 237.679,188.003 236.962,188.361C236.569,188.558 236.405,188.971 236.324,189.438C236.171,190.315 236.319,191.385 236.319,192.085C236.319,194.772 237.661,197.615 238.241,199.936C238.405,200.594 239.122,201.431 239.657,202.209C240.089,202.837 240.402,203.443 240.402,203.905C240.402,204.023 240.359,204.107 240.308,204.168C240.26,204.225 240.199,204.268 240.12,204.29C240.103,204.295 239.938,204.363 239.767,204.199C239.761,204.194 239.732,204.163 239.682,204.11C239.287,203.684 237.295,201.512 236.967,201.185C235.945,200.163 233.97,197.488 231.974,196.09C230.798,195.266 229.621,194.87 228.679,195.812C228.475,196.016 228.333,196.371 228.222,196.805C228.033,197.552 227.962,198.521 227.994,199.49C228.026,200.462 228.161,201.433 228.39,202.18C228.526,202.622 228.688,202.981 228.894,203.188C229.426,203.719 230.278,204.106 231.221,204.429C232.725,204.945 234.456,205.286 235.625,205.675C236.669,206.023 238.816,206.526 238.816,206.526C238.96,206.559 239.072,206.677 239.104,206.828C239.136,206.979 239.082,207.135 238.965,207.23C238.965,207.23 236.524,209.182 235.846,210.538C235.227,211.776 233.94,214.535 233.676,216.877C233.517,218.283 233.71,219.543 234.813,220.095C235.56,220.468 236.219,220.017 236.815,219.258C238.477,217.143 239.579,212.628 239.88,211.726C240.204,210.754 240.074,208.657 240.074,208.657C240.062,208.458 240.194,208.28 240.381,208.243C240.568,208.205 240.753,208.319 240.813,208.508C240.813,208.508 241.54,210.812 242.078,211.887C242.611,212.952 245.168,215.517 247.285,216.649C247.719,216.881 248.133,217.052 248.506,217.13C248.817,217.194 249.094,217.197 249.316,217.086C249.593,216.947 249.775,216.782 249.867,216.578C249.972,216.343 249.95,216.071 249.862,215.777C249.753,215.412 249.539,215.022 249.265,214.622C247.994,212.765 245.463,210.755 244.919,210.211C244.725,210.017 243.755,209.409 243.191,208.882C243.015,208.718 242.874,208.558 242.788,208.417C242.692,208.262 242.652,208.114 242.652,207.989C242.652,207.773 242.724,207.631 242.816,207.534C242.941,207.401 243.141,207.327 243.406,207.38C243.857,207.471 244.682,208.05 245.129,208.274C245.364,208.392 245.8,208.395 246.27,208.368C247.055,208.324 247.931,208.159 248.29,208.039C249.71,207.566 253.083,205.736 255.178,203.594C255.85,202.907 256.391,202.189 256.674,201.472C256.929,200.826 256.968,200.183 256.665,199.577C256.412,199.072 256.12,198.769 255.783,198.627C255.446,198.485 255.075,198.505 254.685,198.602C253.763,198.832 252.753,199.485 251.792,199.966C247.936,201.894 245.441,203.335 243.294,205.483C243.142,205.634 242.902,205.628 242.757,205.47C242.612,205.311 242.618,205.058 242.77,204.907C242.825,204.851 242.881,204.796 242.937,204.742ZM243.063,204.282C243.019,204.315 242.968,204.368 242.937,204.463C242.962,204.389 243.007,204.327 243.063,204.282Z"/>
        <path d="M290.891,283.927C290.841,283.741 290.79,283.534 290.749,283.337C290.443,281.855 290.13,279.707 290.04,279.259C289.749,277.804 288.497,274.264 286.661,272.105C285.346,270.559 283.738,269.723 281.983,270.6C280.982,271.101 280.749,272.277 281.072,273.755C281.728,276.762 284.623,281.078 285.538,281.993C285.884,282.339 286.345,282.902 286.727,283.387C286.098,283.213 285.338,282.996 284.84,282.83C282.792,282.148 279.418,280.979 277.088,281.756C276.447,281.97 274.121,283.526 273.267,284.926C272.806,285.683 272.755,286.403 273.288,286.936C274.681,288.33 276.255,288.668 277.954,288.57C279.561,288.477 281.285,287.983 283.066,287.686C283.846,287.556 285.04,287.315 285.975,287.121C285.42,287.648 284.789,288.284 284.427,288.766C283.583,289.891 281.131,294.721 280.784,298.042C280.618,299.636 280.956,300.893 281.983,301.407C282.453,301.642 282.962,301.626 283.492,301.4C283.952,301.203 284.432,300.839 284.91,300.358C286.993,298.258 289.091,293.848 289.589,292.605C289.768,292.157 289.877,291.506 289.944,290.869C290.096,291.287 290.258,291.692 290.407,291.991C291.684,294.545 293.375,296.468 296.001,297.343C296.296,297.442 297.241,297.952 297.942,298.09C298.383,298.177 298.75,298.104 298.957,297.897C299.838,297.016 299.812,295.667 299.279,294.281C298.546,292.376 296.882,290.412 295.89,289.751C295.372,289.406 294.576,288.894 293.931,288.483C294.127,288.464 294.333,288.44 294.541,288.408C295.212,288.307 295.895,288.127 296.32,287.844C297.674,286.941 301.324,284.091 302.863,281.402C303.588,280.134 303.841,278.89 303.33,277.867C302.905,277.018 302.147,276.731 301.283,276.759C300.171,276.795 298.875,277.382 298.13,277.68C296.608,278.289 293.444,280.936 291.687,282.93C291.372,283.288 291.101,283.625 290.891,283.927ZM290.393,284.915C290.349,284.822 290.303,284.699 290.258,284.549C289.892,283.333 289.412,279.996 289.297,279.423C289.021,278.042 287.836,274.682 286.094,272.634C285.023,271.375 283.74,270.604 282.31,271.319C281.924,271.511 281.748,271.875 281.703,272.333C281.668,272.7 281.712,273.121 281.812,273.577C282.436,276.439 285.191,280.546 286.062,281.417C286.796,282.151 288.034,283.826 288.034,283.826C288.133,283.96 288.141,284.145 288.052,284.287C287.964,284.429 287.799,284.496 287.642,284.455C287.642,284.455 285.608,283.921 284.611,283.589C283.434,283.197 281.803,282.624 280.203,282.391C279.182,282.242 278.174,282.229 277.318,282.514C276.824,282.679 275.225,283.742 274.293,284.832C274.009,285.165 273.785,285.496 273.699,285.806C273.641,286.013 273.658,286.206 273.812,286.36C275.034,287.583 276.421,287.861 277.912,287.775C279.495,287.684 281.192,287.192 282.947,286.9C284.382,286.661 287.228,286.044 287.228,286.044C287.398,286.007 287.571,286.096 287.647,286.261C287.722,286.426 287.681,286.623 287.547,286.74C287.547,286.74 285.737,288.308 285.024,289.258C284.217,290.334 281.871,294.953 281.539,298.129C281.473,298.763 281.486,299.336 281.625,299.802C281.744,300.201 281.959,300.513 282.31,300.688C282.589,300.828 282.891,300.797 283.205,300.663C283.589,300.498 283.985,300.186 284.384,299.784C286.394,297.758 288.409,293.497 288.889,292.297C289.324,291.208 289.289,288.802 289.289,288.802C289.287,288.604 289.424,288.434 289.611,288.404C289.797,288.374 289.977,288.492 290.032,288.681C290.032,288.681 290.614,290.691 291.079,291.621C292.259,293.981 293.805,295.776 296.231,296.585C296.477,296.667 297.186,297.047 297.813,297.238C297.988,297.292 298.155,297.331 298.298,297.334C298.353,297.335 298.404,297.351 298.433,297.321C299.099,296.655 298.978,295.627 298.575,294.579C297.904,292.835 296.391,291.028 295.483,290.423C294.493,289.763 292.482,288.494 292.482,288.494C292.336,288.401 292.266,288.218 292.312,288.046C292.357,287.874 292.507,287.755 292.678,287.755C292.678,287.755 293.54,287.755 294.432,287.62C294.989,287.536 295.561,287.407 295.912,287.172C297.032,286.426 299.782,284.306 301.48,282.082C302.025,281.367 302.461,280.644 302.685,279.954C302.885,279.337 302.915,278.751 302.657,278.236C302.381,277.684 301.868,277.537 301.306,277.555C300.28,277.588 299.089,278.148 298.401,278.423C296.943,279.006 293.927,281.56 292.244,283.47C291.824,283.948 291.488,284.383 291.287,284.736C291.271,284.764 291.256,284.792 291.241,284.819C291.255,284.944 291.211,285.069 291.122,285.155C291.117,285.37 290.949,285.542 290.743,285.542C290.534,285.542 290.364,285.363 290.364,285.144C290.364,285.075 290.373,284.999 290.393,284.915Z"/>
        <g transform="matrix(0.83126,0.00462051,-0.00429094,0.771969,73.9003,61.8944)">
            <circle cx="250.111" cy="224.927" r="36.133" style="fill:none;stroke:black;stroke-width:1.69px;"/>
        </g>
    </g>
    <g transform="matrix(1.38365,0,0,1.31954,-85.8697,-136.799)">
        <path d="M260.383,231.687C260.354,231.828 260.349,232.08 260.375,232.384C260.429,232.997 260.587,233.869 260.68,234.242C261.01,235.562 260.924,238.477 260.333,239.66C260.188,239.949 259.733,240.665 259.216,241.103C259.072,241.224 258.926,241.325 258.779,241.373C258.696,241.401 258.613,241.412 258.536,241.374C258.346,241.278 258.281,241.11 258.197,240.952C258.101,240.77 257.999,240.588 257.848,240.426C257.816,240.366 257.725,240.197 257.657,240.098C257.585,239.994 257.505,239.914 257.437,239.868C257.207,239.714 256.995,239.745 256.816,239.923C256.754,239.985 256.683,240.097 256.629,240.242C256.577,240.382 256.538,240.58 256.5,240.656C256.051,241.554 255.985,242.171 256.104,242.607C256.231,243.069 256.562,243.384 257.035,243.617C257.552,243.871 258.267,244.026 258.924,244.354C259.184,244.485 259.54,244.505 259.907,244.441C260.355,244.363 260.821,244.17 261.066,244.048C262.821,243.17 263.569,241.603 263.861,239.77C264.132,238.064 264,236.121 264,234.355C264,233.983 264.041,233.52 264.015,233.091C263.994,232.742 263.929,232.414 263.796,232.148C263.78,232.115 263.738,232.023 263.69,231.913C263.745,231.919 263.796,231.925 263.837,231.928C264.021,231.941 264.178,231.913 264.286,231.859C264.995,231.505 265.967,231.308 266.616,230.912C267.045,230.651 267.351,230.308 267.469,229.852C267.578,229.428 267.528,228.879 267.169,228.161C267.051,227.925 266.726,227.719 266.255,227.655C265.565,227.561 264.497,227.684 264.096,227.684C262.248,227.684 260.504,227.8 258.803,228.481C258.581,228.57 258.231,228.603 257.928,228.679C257.627,228.755 257.364,228.873 257.199,229.038C257.058,229.18 256.976,229.429 257.026,229.738C257.077,230.056 257.28,230.487 257.317,230.598C257.486,231.105 257.703,231.41 257.943,231.598C258.206,231.804 258.507,231.883 258.856,231.879C259.271,231.876 259.775,231.731 260.383,231.687ZM266.414,228.643C266.344,228.624 266.077,228.558 265.87,228.548C265.23,228.517 264.427,228.608 264.096,228.608C262.359,228.608 260.717,228.704 259.117,229.344C258.902,229.43 258.586,229.48 258.282,229.544C258.148,229.572 258.015,229.592 257.913,229.638C257.932,229.715 257.96,229.821 257.986,229.89C258.056,230.072 258.129,230.233 258.149,230.293C258.256,230.613 258.364,230.806 258.525,230.894C258.689,230.984 258.885,230.963 259.11,230.935C259.558,230.88 260.092,230.75 260.723,230.75C260.966,230.75 261.164,230.957 261.164,231.212C261.164,231.254 261.158,231.295 261.148,231.334C261.195,231.367 261.242,231.41 261.289,231.469C261.445,231.662 261.424,231.95 261.243,232.115C261.245,232.175 261.248,232.239 261.253,232.299C261.303,232.863 261.447,233.665 261.533,234.008C261.903,235.49 261.778,238.761 261.113,240.089C260.908,240.499 260.18,241.609 259.427,242.073C258.996,242.338 258.553,242.406 258.157,242.208C257.824,242.041 257.643,241.797 257.494,241.526C257.421,241.393 257.362,241.249 257.262,241.123C257.085,241.483 256.981,241.775 256.944,242.018C256.919,242.189 256.928,242.324 256.982,242.432C257.039,242.544 257.137,242.623 257.253,242.694C257.422,242.799 257.628,242.881 257.852,242.962C258.302,243.124 258.818,243.278 259.303,243.52C259.424,243.581 259.591,243.559 259.762,243.53C260.12,243.467 260.491,243.311 260.687,243.214C262.153,242.48 262.747,241.15 262.991,239.618C263.256,237.96 263.119,236.071 263.119,234.355C263.119,234.054 263.147,233.692 263.142,233.338C263.138,233.059 263.12,232.786 263.016,232.577C262.95,232.445 262.626,231.74 262.592,231.571C262.539,231.314 262.661,231.166 262.719,231.108C262.837,230.989 263.047,230.909 263.315,230.927C263.5,230.939 263.883,230.997 263.945,231.006C264.505,230.734 265.219,230.556 265.808,230.299C266.146,230.152 266.446,229.993 266.579,229.717C266.703,229.458 266.646,229.122 266.414,228.643Z"/>
        <path d="M269.093,229.797C268.204,233.232 267.4,237.24 268.312,240.889C268.48,241.561 268.743,242.568 269.214,243.325C269.765,244.21 270.575,244.779 271.775,244.379C272.609,244.101 273.178,243.537 273.638,242.859C274.047,242.254 274.366,241.555 274.741,240.93C276.898,237.336 277.335,231.618 274.993,228.105C274.161,226.857 272.665,226.364 271.374,226.584C270.027,226.813 268.914,227.792 268.914,229.425C268.914,229.577 268.984,229.712 269.093,229.797ZM270.237,228.175C270.329,228.288 270.367,228.446 270.325,228.6C269.358,232.177 268.161,236.64 269.165,240.655C269.314,241.25 269.535,242.149 269.952,242.82C270.29,243.362 270.773,243.743 271.508,243.498C272.145,243.286 272.568,242.841 272.919,242.323C273.32,241.732 273.629,241.049 273.995,240.438C275.98,237.13 276.427,231.868 274.271,228.634C273.639,227.686 272.496,227.329 271.515,227.496C271.016,227.581 270.556,227.808 270.237,228.175Z"/>
        <path d="M271.602,229.993C271.556,230.003 271.511,230.022 271.468,230.05C270.927,230.399 270.573,231.131 270.395,232.078C270.04,233.964 270.321,236.748 270.321,238.133C270.321,238.505 270.569,239.712 270.958,240.282C271.254,240.714 271.631,240.849 272.007,240.661C272.231,240.55 272.429,240.325 272.579,240.026C272.832,239.521 272.965,238.78 273.04,238.404C273.398,236.615 273.841,234.586 273.841,232.768C273.841,232.485 273.93,231.952 273.921,231.532C273.916,231.27 273.871,231.041 273.791,230.882C273.67,230.64 273.417,230.023 273.136,229.656C272.885,229.329 272.582,229.185 272.322,229.224C272.098,229.258 271.806,229.435 271.602,229.993ZM272.455,230.256C272.438,230.292 272.422,230.331 272.409,230.369C272.357,230.527 272.23,230.637 272.084,230.669C272.048,230.736 271.996,230.794 271.93,230.837C271.701,230.984 271.551,231.256 271.432,231.592C271.287,232.004 271.202,232.509 271.152,233.055C270.993,234.81 271.202,236.973 271.202,238.133C271.202,238.377 271.345,239.088 271.572,239.561C271.606,239.632 271.662,239.714 271.702,239.769C271.774,239.688 271.822,239.558 271.875,239.424C272.037,239.007 272.122,238.493 272.178,238.214C272.523,236.485 272.96,234.525 272.96,232.768C272.96,232.524 273.025,232.094 273.039,231.71C273.044,231.551 273.056,231.402 273.01,231.311C272.923,231.136 272.763,230.741 272.572,230.42C272.541,230.368 272.496,230.308 272.455,230.256Z"/>
        <path d="M285.417,239.81C285.965,239.78 286.674,239.558 287.124,239.201C287.439,238.95 287.634,238.632 287.666,238.285C287.697,237.949 287.584,237.554 287.173,237.143C287.12,237.09 286.945,236.988 286.657,236.941C286.032,236.84 284.556,236.774 283.559,236.826C283.066,236.851 282.678,236.919 282.51,237.002C282.361,237.074 282.279,237.176 282.236,237.263C282.119,237.497 281.751,238.029 281.555,238.579C281.381,239.064 281.345,239.561 281.545,239.961C281.601,240.073 281.729,240.214 281.913,240.342C282.034,240.427 282.226,240.543 282.389,240.638C282.35,240.666 282.309,240.688 282.266,240.702C282.017,240.782 281.74,240.654 281.472,240.486C280.91,240.133 280.399,239.526 280.254,239.236C279.826,238.38 279.748,237.359 279.855,236.326C280.024,234.695 280.659,233.034 281.241,231.871C281.34,231.671 281.447,231.548 281.582,231.515C281.726,231.48 281.877,231.537 282.032,231.622C282.691,231.985 283.342,232.93 283.478,233.432C283.471,233.487 283.412,233.983 283.408,234.225C283.402,234.519 283.494,234.74 283.605,234.852C283.751,234.998 283.952,235.083 284.192,235.094C284.546,235.11 285.021,234.943 285.396,234.72C285.659,234.564 285.871,234.381 285.978,234.237C286.089,234.087 286.126,233.94 286.126,233.827C286.126,233.611 285.985,233.43 285.795,233.379C285.845,233.324 285.883,233.255 285.902,233.176C285.941,233.016 285.896,232.853 285.794,232.742C285.789,232.701 285.782,232.637 285.779,232.584C285.772,232.434 285.776,232.256 285.783,232.069C285.81,231.408 285.866,230.657 285.815,230.453C285.637,229.738 284.956,228.853 284.078,228.275C283.174,227.68 282.08,227.421 281.154,227.884C278.743,229.09 277.32,232.374 277.141,235.679C276.96,239.008 278.046,242.31 280.463,243.519C281.187,243.88 282.06,243.751 282.89,243.332C284.032,242.756 285.085,241.646 285.483,240.849C285.63,240.556 285.631,240.312 285.57,240.107C285.538,240 285.486,239.901 285.417,239.81ZM284.96,230.678C284.82,230.136 284.274,229.495 283.609,229.058C282.965,228.634 282.194,228.388 281.533,228.718C279.377,229.796 278.181,232.776 278.021,235.732C277.861,238.664 278.713,241.62 280.843,242.684C281.341,242.933 281.937,242.787 282.508,242.499C283.469,242.014 284.367,241.092 284.703,240.42C284.709,240.408 284.715,240.391 284.719,240.379C284.704,240.363 284.678,240.337 284.659,240.322C284.585,240.266 284.499,240.218 284.417,240.17C284.246,240.071 284.086,239.971 283.982,239.864C283.835,239.713 283.764,239.54 283.764,239.352C283.764,239.097 283.962,238.89 284.205,238.89L285.29,238.89C285.688,238.89 286.248,238.738 286.591,238.465C286.69,238.386 286.779,238.306 286.789,238.197C286.798,238.093 286.736,237.993 286.625,237.874C286.007,237.735 283.642,237.644 282.945,237.821C282.798,238.071 282.531,238.48 282.38,238.904C282.305,239.113 282.242,239.325 282.312,239.502C282.357,239.533 282.552,239.671 282.684,239.747C282.985,239.92 283.273,240.101 283.349,240.199C283.513,240.407 283.484,240.605 283.411,240.751C283.172,241.228 282.859,241.477 282.526,241.585C282.199,241.69 281.84,241.657 281.481,241.516C280.592,241.166 279.698,240.115 279.473,239.665C278.967,238.652 278.852,237.448 278.979,236.226C279.16,234.476 279.836,232.69 280.46,231.441C280.711,230.939 281.04,230.699 281.381,230.615C281.715,230.533 282.081,230.605 282.441,230.804C283.318,231.286 284.172,232.562 284.335,233.216C284.359,233.31 284.366,233.454 284.351,233.625C284.339,233.764 284.317,234.012 284.303,234.168C284.364,234.162 284.429,234.147 284.495,234.127C284.783,234.04 285.183,233.745 285.267,233.681C285.287,233.616 285.322,233.557 285.366,233.508L285.366,233.508C285.195,233.462 284.977,233.271 284.92,232.87C284.868,232.499 284.912,231.824 284.944,231.28C284.959,231.028 284.96,230.71 284.96,230.678Z"/>
        <path d="M288.55,228.219C288.53,228.246 288.514,228.28 288.502,228.322C288.497,228.326 288.494,228.328 288.494,228.33C288.493,228.344 288.492,228.358 288.491,228.372C288.489,228.384 288.487,228.397 288.486,228.411C288.441,228.873 288.204,231.329 288.204,232.347C288.204,234.71 288.147,236.914 288.712,239.173C288.826,239.628 288.824,240.156 288.919,240.617C289.002,241.024 289.152,241.385 289.426,241.66C289.663,241.896 289.851,242.309 290.102,242.62C290.476,243.085 290.944,243.379 291.64,243.147C293.087,242.665 293.955,241.676 294.539,240.474C295.086,239.349 295.375,238.032 295.682,236.805C295.815,236.273 295.767,235.665 295.717,235.06C295.678,234.577 295.633,234.096 295.77,233.683C296.142,232.569 296.189,231.085 295.934,229.847C295.754,228.972 295.419,228.221 294.968,227.77C294.724,227.525 294.233,227.426 293.769,227.52C293.516,227.571 293.276,227.673 293.103,227.803C292.935,227.928 292.822,228.084 292.768,228.247C292.525,228.976 292.748,230.268 292.965,230.92C293.414,232.267 293.089,235.67 292.669,236.93C292.587,237.176 292.441,237.845 292.22,238.358C292.182,238.444 292.143,238.526 292.1,238.598C292.076,238.639 292.037,238.688 292.008,238.722L292.008,238.722C290.904,237.618 291.041,235.936 291.276,234.19C291.542,232.209 291.961,230.141 291.429,228.543C291.19,227.825 290.622,227.289 289.995,227.184C289.554,227.111 289.074,227.234 288.637,227.671C288.492,227.816 288.462,228.041 288.55,228.219ZM293.592,228.576C293.418,229.143 293.631,230.118 293.797,230.616C294.291,232.098 293.964,235.847 293.501,237.235C293.43,237.449 293.31,237.972 293.137,238.45C292.998,238.833 292.82,239.185 292.623,239.392C292.448,239.577 292.249,239.671 292.045,239.678C291.847,239.685 291.626,239.616 291.4,239.391C290.095,238.086 290.125,236.124 290.403,234.061C290.649,232.231 291.089,230.323 290.597,228.848C290.469,228.466 290.191,228.153 289.857,228.097C289.681,228.068 289.497,228.123 289.32,228.271C289.347,228.311 289.363,228.363 289.365,228.431C289.368,228.434 289.37,228.436 289.369,228.438C289.368,228.447 289.367,228.457 289.365,228.466C289.365,228.479 289.364,228.492 289.363,228.506C289.319,228.956 289.086,231.354 289.086,232.347C289.086,234.628 289.019,236.758 289.565,238.939C289.665,239.339 289.684,239.791 289.745,240.213C289.787,240.512 289.84,240.797 290.035,240.991C290.249,241.205 290.437,241.541 290.647,241.849C290.826,242.111 291.013,242.386 291.373,242.266C292.565,241.869 293.273,241.044 293.754,240.054C294.273,238.987 294.539,237.735 294.83,236.571C294.939,236.134 294.88,235.635 294.839,235.139C294.789,234.521 294.762,233.907 294.938,233.378C295.261,232.409 295.295,231.119 295.073,230.042C294.935,229.372 294.705,228.784 294.36,228.438C294.336,228.415 294.296,228.417 294.255,228.412C294.156,228.398 294.044,228.405 293.936,228.427C293.849,228.445 293.765,228.472 293.692,228.508C293.657,228.526 293.609,228.563 293.592,228.576Z"/>
        <path d="M298.156,226.292C297.99,226.359 297.874,226.527 297.874,226.723L297.874,228.005C297.874,228.932 297.973,229.836 297.973,230.768C297.973,232.154 297.75,233.94 297.727,235.612C297.71,236.787 297.794,237.908 298.096,238.814C298.134,238.929 298.127,239.092 298.116,239.276C298.092,239.661 298.021,240.117 297.991,240.528C297.968,240.856 297.972,241.159 298.024,241.4C298.075,241.634 298.172,241.821 298.306,241.956C298.355,242.004 298.434,242.061 298.552,242.096C298.686,242.134 298.966,242.153 299.278,242.142C299.698,242.127 300.185,242.07 300.401,242.011C300.554,241.969 300.648,241.899 300.691,241.857C300.741,241.806 300.829,241.694 300.839,241.493C300.852,241.222 300.644,240.137 300.616,240.024C300.473,239.452 300.502,238.801 300.561,238.153C300.611,237.6 300.683,237.049 300.714,236.541C300.786,236.731 300.839,236.881 300.859,236.939C301.19,237.933 301.893,238.919 302.364,239.863C302.486,240.107 302.486,240.509 302.549,240.859C302.615,241.228 302.738,241.553 302.944,241.759C303.014,241.829 303.162,241.914 303.381,241.937C303.734,241.973 304.454,241.886 304.629,241.886C304.856,241.886 305.121,241.986 305.355,242.005C305.652,242.03 305.915,241.961 306.117,241.759C306.404,241.472 306.473,241.086 306.377,240.65C306.283,240.223 306.007,239.732 305.809,239.335C305.094,237.905 304.497,236.334 303.719,235.368C303.885,235.271 304.095,235.148 304.128,235.132C304.757,234.817 305.439,233.992 305.71,233.449C306.67,231.53 306.248,229.26 305.316,227.396C304.942,226.648 304.04,225.949 303.01,225.561C301.978,225.172 300.831,225.1 300,225.516C299.865,225.583 299.69,225.608 299.513,225.635C299.267,225.673 299.016,225.707 298.809,225.774C298.503,225.873 298.272,226.034 298.156,226.292ZM305.516,241.082C305.539,241.052 305.537,241.012 305.535,240.972C305.53,240.889 305.507,240.8 305.476,240.708C305.368,240.389 305.171,240.05 305.028,239.764C304.282,238.271 303.703,236.598 302.845,235.74C302.731,235.626 302.683,235.498 302.673,235.37C302.664,235.26 302.685,235.141 302.748,235.023C302.809,234.908 302.935,234.774 303.099,234.658C303.346,234.484 303.689,234.328 303.749,234.298C304.222,234.061 304.725,233.429 304.93,233.02C305.754,231.371 305.336,229.426 304.535,227.825C304.243,227.242 303.515,226.733 302.712,226.431C301.912,226.129 301.024,226.028 300.379,226.35C300.066,226.507 299.607,226.538 299.223,226.617C299.147,226.633 299.075,226.651 299.013,226.677C298.986,226.688 298.953,226.689 298.953,226.723C298.953,226.858 298.897,226.98 298.808,227.065C298.831,227.211 298.859,227.366 298.889,227.473C298.938,227.652 298.88,227.836 298.755,227.951L298.755,228.005C298.755,228.932 298.854,229.836 298.854,230.768C298.854,232.157 298.631,233.949 298.608,235.626C298.593,236.683 298.656,237.693 298.928,238.509C299.054,238.888 298.973,239.589 298.901,240.262C298.872,240.532 298.848,240.796 298.862,241.02C298.865,241.086 298.864,241.148 298.874,241.199L299.908,241.131C299.855,240.799 299.778,240.318 299.763,240.259C299.443,238.981 299.847,237.348 299.847,236.096C299.847,235.925 299.765,235.256 299.8,234.926C299.824,234.703 299.91,234.553 299.984,234.479C300.147,234.316 300.507,234.219 300.809,234.646C301.11,235.071 301.617,236.415 301.691,236.634C302.009,237.588 302.692,238.528 303.145,239.434C303.279,239.701 303.329,240.107 303.386,240.503C303.406,240.647 303.429,240.789 303.468,240.914C303.479,240.95 303.489,240.984 303.503,241.015C303.584,241.019 303.716,241.023 303.819,241.018C304.15,241.002 304.512,240.962 304.629,240.962C304.814,240.962 305.02,241.009 305.221,241.051C305.301,241.068 305.379,241.083 305.453,241.086C305.472,241.086 305.504,241.083 305.516,241.082Z"/>
        <path d="M300.476,228.905C300.418,228.997 300.367,229.103 300.325,229.223C300.128,229.792 300.127,230.716 300.341,231.403C300.489,231.88 300.749,232.241 301.061,232.396C301.315,232.521 301.614,232.541 301.958,232.369C302.913,231.891 303.323,230.866 303.304,229.95C303.283,228.923 302.71,228.093 301.914,228.084C301.539,228.079 301.077,228.255 300.576,228.756C300.532,228.8 300.499,228.851 300.476,228.905ZM301.234,229.382C301.226,229.393 301.197,229.435 301.183,229.464C301.151,229.534 301.127,229.617 301.107,229.709C301.02,230.123 301.044,230.684 301.179,231.116C301.217,231.239 301.264,231.351 301.323,231.442C301.36,231.496 301.395,231.546 301.446,231.564C301.485,231.578 301.528,231.56 301.578,231.535C302.316,231.166 302.523,230.276 302.384,229.626C302.315,229.303 302.176,229.011 301.904,229.008C301.759,229.006 301.602,229.074 301.426,229.209C301.381,229.283 301.315,229.345 301.234,229.382Z"/>
        <path d="M307.096,227.19C307.038,227.218 306.951,227.276 306.887,227.407C306.811,227.563 306.512,229.151 306.469,230.21C306.455,230.563 306.471,230.862 306.518,231.049C306.56,231.221 306.634,231.34 306.708,231.414C306.897,231.603 307.15,231.699 307.452,231.709C307.761,231.721 308.135,231.636 308.507,231.542C308.758,231.479 309.008,231.412 309.226,231.394C309.288,231.389 309.347,231.388 309.4,231.395L309.416,231.397C309.421,231.461 309.427,231.562 309.424,231.641C309.401,232.249 309.202,233.143 309.153,233.339C308.894,234.373 308.976,235.518 309.049,236.653C309.114,237.673 309.176,238.685 308.878,239.578C308.821,239.748 308.457,240.449 308.346,240.958C308.257,241.368 308.342,241.699 308.514,241.872C308.547,241.904 308.627,241.977 308.78,242.004C308.954,242.034 309.711,242.042 310.462,242.034C311.189,242.027 311.91,242.01 312.052,242.001C312.256,241.988 312.345,241.882 312.355,241.872C312.53,241.696 312.656,241.384 312.704,240.985C312.781,240.336 312.682,239.408 312.682,238.875C312.682,237.043 312.788,234.706 313.238,232.908C313.266,232.794 313.277,232.63 313.267,232.434C313.25,232.111 313.18,231.669 313.149,231.28C313.137,231.127 313.147,230.924 313.152,230.834C313.169,230.828 313.187,230.822 313.202,230.818C313.304,230.794 313.425,230.784 313.558,230.781C314.038,230.769 314.641,230.85 315.087,230.891C315.415,230.922 315.676,230.923 315.805,230.89C315.926,230.86 316.008,230.803 316.063,230.748C316.077,230.734 316.209,230.613 316.2,230.357C316.192,230.14 316.104,229.091 316.104,228.893C316.104,228.704 316.109,228.341 316.073,228.059C316.051,227.884 316.009,227.734 315.959,227.632C315.833,227.38 315.538,227.198 315.125,227.159C314.574,227.107 313.751,227.29 313.477,227.29C312.161,227.29 310.722,227.472 309.376,227.203C308.742,227.076 307.86,226.726 307.691,226.671C307.489,226.604 307.362,226.677 307.342,226.686C307.212,226.751 307.146,226.852 307.112,226.957C307.091,227.025 307.08,227.103 307.096,227.19ZM307.738,227.666C307.736,227.763 307.706,227.853 307.655,227.927C307.64,227.99 307.623,228.07 307.608,228.149C307.509,228.678 307.377,229.581 307.35,230.249C307.342,230.44 307.359,230.671 307.368,230.773C307.393,230.78 307.42,230.781 307.448,230.784C307.527,230.79 307.612,230.784 307.702,230.772C307.997,230.732 308.327,230.632 308.637,230.561C308.947,230.489 309.241,230.448 309.483,230.475C309.721,230.502 309.92,230.592 310.073,230.745C310.143,230.815 310.206,230.913 310.247,231.045C310.294,231.195 310.315,231.418 310.305,231.678C310.278,232.358 310.06,233.355 310.005,233.573C309.77,234.515 309.862,235.558 309.928,236.591C310.002,237.739 310.045,238.877 309.71,239.883C309.663,240.023 309.396,240.535 309.254,240.986C309.242,241.023 309.232,241.066 309.223,241.108C309.878,241.126 311.238,241.103 311.791,241.086L311.796,241.065C311.827,240.938 311.842,240.785 311.849,240.621C311.875,240.032 311.8,239.314 311.8,238.875C311.8,236.971 311.918,234.543 312.385,232.674C312.407,232.585 312.387,232.436 312.369,232.262C312.331,231.884 312.262,231.425 312.255,231.063C312.248,230.648 312.353,230.328 312.507,230.175C312.689,229.993 313.047,229.874 313.497,229.858C314.007,229.84 314.839,229.913 315.288,229.958C315.26,229.562 315.223,229.018 315.223,228.893C315.223,228.752 315.228,228.499 315.209,228.276C315.204,228.216 315.203,228.158 315.194,228.112C315.127,228.1 314.964,228.071 314.846,228.073C314.332,228.079 313.707,228.214 313.477,228.214C312.108,228.214 310.611,228.391 309.211,228.111C308.763,228.021 308.116,227.802 307.738,227.666Z"/>
    </g>
    <g transform="matrix(1.60661,0,0,1.53218,-141.04,-189.114)">
        <path d="M246.316,175.405C247.712,175.263 251.373,173.448 253.999,172.643C254.636,172.449 255.207,172.315 255.662,172.29C255.906,172.277 256.109,172.291 256.256,172.365C256.588,172.53 256.781,172.806 256.915,173.129C257.075,173.516 257.154,173.968 257.24,174.421C257.448,175.506 257.716,176.576 258.742,177.089C261.12,178.277 263.258,177.52 265.298,176.6C266.254,176.168 267.187,175.705 268.115,175.429C268.985,175.169 269.85,175.076 270.726,175.368C271.534,175.638 271.998,176.402 272.523,177.077C273.165,177.903 273.873,178.619 275.067,178.619C275.277,178.619 275.447,178.441 275.447,178.221C275.447,178.002 275.277,177.823 275.067,177.823C274.136,177.823 273.611,177.217 273.111,176.574C272.493,175.779 271.907,174.927 270.955,174.61C268.972,173.949 267.029,174.953 264.998,175.868C263.152,176.701 261.221,177.446 259.069,176.37C258.276,175.974 258.145,175.103 257.985,174.264C257.777,173.175 257.537,172.123 256.583,171.646C256.344,171.527 256.018,171.474 255.624,171.495C255.121,171.522 254.489,171.664 253.787,171.879C251.206,172.67 247.615,174.474 246.243,174.613C246.035,174.634 245.882,174.828 245.902,175.047C245.922,175.266 246.108,175.426 246.316,175.405Z"/>
        <path d="M263.669,160.054C263.685,160.01 263.724,159.911 263.761,159.847C263.86,159.677 263.991,159.498 264.099,159.324C264.397,158.841 264.471,158.373 264.141,158.042C263.904,157.805 263.433,157.714 262.86,157.793C261.82,157.937 260.38,158.547 260.005,158.708C258.964,159.154 254.977,160.966 252.131,161.465C251.44,161.586 250.82,161.63 250.337,161.545C250.122,161.506 249.937,161.445 249.797,161.341C249.844,161.285 249.918,161.2 249.989,161.139C250.299,160.871 250.755,160.586 251.148,160.318C251.6,160.009 251.963,159.695 252.068,159.465C252.185,159.208 252.151,158.982 251.957,158.788C251.719,158.55 251.399,158.4 251.01,158.336C250.515,158.255 249.894,158.315 249.207,158.476C246.749,159.051 243.361,160.935 242.176,161.172C241.806,161.246 240.172,161.858 239.031,162.024C238.816,162.055 238.621,162.071 238.461,162.057C238.397,162.052 238.341,162.055 238.303,162.035C238.283,161.974 238.214,161.759 238.175,161.593C238.061,161.11 237.935,160.511 237.788,160.242C237.6,159.895 237.337,159.847 237.111,159.96C236.457,160.287 235.778,160.892 235.119,161.59C234.183,162.582 233.282,163.761 232.537,164.507C232.385,164.658 232.379,164.911 232.524,165.07C232.669,165.228 232.909,165.234 233.061,165.083C233.81,164.333 234.717,163.147 235.658,162.15C236.168,161.61 236.686,161.125 237.194,160.814C237.214,160.871 237.235,160.932 237.25,160.988C237.353,161.37 237.443,161.856 237.537,162.161C237.602,162.376 237.688,162.527 237.758,162.596C237.873,162.711 238.044,162.797 238.267,162.835C238.496,162.872 238.797,162.862 239.135,162.812C240.29,162.645 241.944,162.028 242.318,161.953C243.507,161.716 246.906,159.83 249.373,159.253C249.861,159.138 250.31,159.076 250.691,159.1C250.905,159.113 251.096,159.151 251.251,159.232C251.047,159.395 250.638,159.715 250.318,159.93C250.006,160.14 249.698,160.354 249.471,160.556C249.278,160.727 249.139,160.899 249.067,161.052C248.931,161.346 248.96,161.615 249.196,161.851C249.437,162.092 249.781,162.253 250.211,162.329C250.761,162.427 251.468,162.388 252.256,162.25C255.16,161.741 259.231,159.9 260.293,159.445C260.642,159.295 261.987,158.717 262.959,158.582C263.139,158.557 263.305,158.548 263.444,158.565C263.506,158.573 263.562,158.578 263.6,158.605C263.597,158.618 263.593,158.636 263.589,158.648C263.569,158.702 263.54,158.757 263.508,158.814C263.41,158.985 263.28,159.162 263.172,159.334C263.053,159.525 262.96,159.714 262.923,159.883C262.863,160.157 262.913,160.401 263.119,160.607C263.454,160.942 263.957,161.023 264.586,160.84C265.718,160.512 267.361,159.299 268.973,158.049C270.301,157.021 271.609,155.973 272.582,155.438C272.869,155.28 273.122,155.167 273.333,155.127C273.43,155.108 273.51,155.086 273.562,155.137C273.875,155.45 274.309,155.617 274.737,155.759C275.04,155.859 275.341,155.936 275.534,156.115C275.534,156.136 275.533,156.183 275.527,156.214C275.517,156.276 275.499,156.343 275.476,156.413C275.382,156.707 275.216,157.052 275.072,157.4C274.903,157.809 274.769,158.224 274.76,158.579C274.748,159.048 274.915,159.441 275.401,159.684C276.786,160.376 278.926,160.254 281.197,159.757C284.475,159.04 288.038,157.574 289.852,156.969C290.48,156.76 292.011,156.514 293.275,156.625C293.674,156.661 294.045,156.731 294.346,156.856C294.583,156.955 294.775,157.081 294.871,157.272C294.936,157.401 294.922,157.539 294.869,157.68C294.791,157.893 294.633,158.108 294.436,158.323C293.764,159.058 292.642,159.763 291.937,160.218C291.592,160.441 291.337,160.616 291.242,160.712C290.972,160.988 291.105,161.243 291.216,161.353C291.283,161.42 291.372,161.47 291.492,161.477C291.57,161.482 291.689,161.462 291.832,161.394C292.077,161.277 292.486,160.983 292.848,160.738C293.044,160.606 293.22,160.488 293.333,160.45C294.44,160.081 295.757,160.22 296.948,160.22C300.478,160.22 302.196,162.141 304.244,163.165C304.957,163.521 309.943,166.545 311.605,168.045C311.735,168.162 311.844,168.269 311.925,168.363C311.837,168.411 311.732,168.457 311.613,168.501C311.214,168.652 310.675,168.775 310.06,168.877C307.608,169.281 303.978,169.326 302.986,169.128C302.96,169.123 300.859,168.827 300.02,168.818C299.749,168.815 299.565,168.867 299.5,168.909C299.348,169.006 299.303,169.142 299.303,169.27C299.303,169.495 299.369,169.733 299.486,169.981C299.625,170.275 299.843,170.591 300.066,170.928C300.52,171.611 301.05,172.393 300.59,173.312C300.239,174.014 299.43,174.314 298.509,174.401C296.997,174.543 295.166,174.076 294.168,173.41C294.017,173.31 293.773,173.028 293.486,172.737C293.146,172.393 292.757,172.038 292.396,171.855C291.954,171.631 291.541,171.641 291.216,171.966C290.598,172.583 290.099,173.918 289.561,175.018C289.26,175.633 288.965,176.177 288.579,176.37C288.45,176.435 288.281,176.397 288.08,176.332C287.641,176.189 287.106,175.865 286.532,175.474C285.619,174.85 284.618,174.055 283.745,173.464C283.119,173.04 282.551,172.721 282.117,172.613C280.886,172.305 280.081,172.395 279.493,172.693C278.896,172.996 278.508,173.524 278.142,174.153C277.728,174.867 277.336,175.724 276.528,176.422C276.366,176.562 276.343,176.813 276.476,176.982C276.609,177.152 276.849,177.176 277.01,177.036C277.894,176.273 278.337,175.348 278.791,174.568C279.076,174.077 279.358,173.646 279.823,173.41C280.298,173.169 280.948,173.139 281.941,173.387C282.381,173.497 282.97,173.874 283.623,174.333C284.679,175.075 285.879,176.04 286.875,176.625C287.34,176.899 287.767,177.092 288.122,177.162C288.428,177.223 288.692,177.195 288.906,177.089C289.407,176.838 289.847,176.179 290.237,175.382C290.734,174.364 291.169,173.113 291.74,172.542C291.798,172.483 291.873,172.497 291.95,172.522C292.064,172.56 292.181,172.632 292.301,172.719C292.883,173.142 293.48,173.895 293.76,174.082C294.869,174.821 296.899,175.352 298.577,175.194C299.784,175.08 300.802,174.602 301.262,173.682C301.783,172.64 301.453,171.714 300.96,170.897C300.749,170.546 300.509,170.218 300.323,169.912C300.268,169.822 300.217,169.737 300.175,169.654C300.964,169.729 302.822,169.906 302.844,169.91C303.872,170.116 307.636,170.082 310.178,169.663C311.35,169.47 312.271,169.167 312.625,168.812C312.762,168.676 312.822,168.49 312.745,168.248C312.686,168.063 312.468,167.773 312.1,167.441C310.399,165.907 305.3,162.811 304.57,162.447C302.435,161.379 300.628,159.424 296.948,159.424C296.115,159.424 295.225,159.37 294.378,159.444C294.664,159.204 294.926,158.954 295.132,158.703C295.637,158.091 295.82,157.455 295.543,156.902C295.298,156.412 294.739,156.085 294.012,155.93C292.56,155.621 290.42,155.944 289.622,156.21C287.823,156.81 284.292,158.267 281.042,158.978C278.96,159.434 276.997,159.6 275.728,158.966C275.521,158.862 275.499,158.672 275.532,158.461C275.589,158.096 275.782,157.682 275.948,157.296C276.111,156.92 276.25,156.566 276.284,156.288C276.323,155.977 276.249,155.73 276.075,155.556C275.856,155.336 275.54,155.194 275.19,155.075C274.808,154.944 274.373,154.848 274.086,154.561C273.812,154.288 273.342,154.237 272.729,154.489C271.703,154.912 270.123,156.169 268.522,157.409C267.204,158.431 265.871,159.44 264.837,159.903C264.533,160.039 264.26,160.127 264.025,160.14C263.884,160.148 263.761,160.13 263.669,160.054Z"/>
        <path d="M245.805,175.252L245.805,175.256C245.805,175.475 245.975,175.654 246.185,175.654C246.394,175.654 246.564,175.475 246.564,175.256C246.564,174.913 246.458,174.716 246.335,174.599C246.154,174.427 245.862,174.387 245.509,174.503C245.268,174.582 244.98,174.731 244.706,174.814C244.626,174.838 244.549,174.857 244.476,174.859C244.43,174.861 244.385,174.861 244.352,174.828C244.131,174.607 243.826,174.489 243.472,174.444C243.06,174.391 242.573,174.439 242.135,174.439C240.993,174.439 238.746,174.232 237.392,174.024C237.079,173.976 236.761,173.905 236.581,173.862C236.487,173.718 236.31,173.652 236.145,173.712C235.885,173.806 235.84,173.999 235.834,174.107C235.828,174.218 235.854,174.364 236.008,174.483C236.09,174.547 236.35,174.644 236.743,174.72C237.981,174.959 240.797,175.235 242.135,175.235C242.481,175.235 242.86,175.201 243.203,175.219C243.451,175.231 243.681,175.257 243.828,175.404C244.031,175.607 244.288,175.678 244.577,175.65C244.869,175.621 245.204,175.476 245.505,175.351C245.598,175.313 245.722,175.275 245.805,175.252Z"/>
        <path d="M229.703,168.607C229.674,168.633 229.639,168.659 229.601,168.686C229.471,168.782 229.307,168.875 229.124,168.968C228.519,169.274 227.724,169.562 227.166,169.812C226.833,169.96 226.576,170.106 226.448,170.228C226.301,170.369 226.253,170.521 226.253,170.647C226.253,170.66 226.308,171.042 226.673,171.047C226.921,171.05 228.164,171.023 228.238,171.038C229.671,171.325 231.136,171.379 232.55,171.732C232.999,171.845 233.265,172.013 233.406,172.241C233.633,172.605 233.554,173.068 233.522,173.49C233.464,174.236 233.519,174.88 234.151,175.196C234.496,175.368 234.881,175.299 235.257,175.088C235.644,174.873 236.02,174.494 236.293,174.358C236.38,174.314 236.696,174.215 236.839,174.148C236.964,174.09 237.035,174.013 237.061,173.975C237.19,173.788 237.156,173.622 237.052,173.484C237.02,173.441 236.925,173.321 236.688,173.321C236.568,173.321 236.461,173.38 236.391,173.471C236.242,173.527 236.026,173.61 235.966,173.639C235.725,173.76 235.404,174.054 235.067,174.282C234.941,174.368 234.813,174.444 234.685,174.48C234.614,174.501 234.543,174.51 234.477,174.477C234.318,174.398 234.277,174.253 234.264,174.089C234.24,173.796 234.294,173.453 234.309,173.11C234.328,172.67 234.287,172.232 234.072,171.856C233.856,171.477 233.463,171.142 232.726,170.958C231.301,170.602 229.825,170.545 228.38,170.256C228.362,170.252 228.281,170.25 228.163,170.249C228.718,170.022 229.326,169.774 229.762,169.518C230.109,169.313 230.355,169.086 230.46,168.877C230.599,168.599 230.534,168.304 230.264,168.045C230.105,167.893 229.857,167.746 229.627,167.623C229.48,167.545 229.28,167.43 229.263,167.42C228.766,166.923 227.353,165.497 226.549,164.366C226.41,164.17 226.289,163.984 226.198,163.815C226.585,163.847 227.083,163.89 227.228,163.91L227.239,163.912C228.17,164.225 229.926,164.985 231.285,165.254C231.953,165.387 232.536,165.393 232.924,165.229C233.118,165.147 233.212,164.915 233.134,164.712C233.056,164.508 232.835,164.409 232.64,164.491C232.242,164.659 231.579,164.533 230.849,164.335C229.618,164.002 228.226,163.405 227.446,163.145C227.382,163.124 225.974,162.973 225.693,162.98C225.331,162.987 225.276,163.33 225.276,163.385C225.276,163.721 225.525,164.257 225.94,164.841C226.774,166.014 228.238,167.495 228.745,168.002C228.834,168.092 229.094,168.228 229.365,168.377C229.472,168.436 229.615,168.54 229.703,168.607Z"/>
    </g>
    <g transform="matrix(1.41917,-0.380958,0.380958,1.41917,-170.238,69.4969)">
        <path d="M193.601,209.786C192.978,209.917 194.331,207.999 194.518,207.625C195.121,206.419 197.293,204.074 198.708,203.602C200.456,203.019 202.037,201.495 204.073,201.087C206.921,200.518 209.434,203.263 211.113,204.943C218.618,212.448 219.816,233.112 209.102,238.469C202.516,241.762 193.336,233.425 190.662,228.076C189.896,226.544 187.626,223.085 188.65,221.036C189.767,218.802 189.792,214.698 191.5,212.989C192.186,212.304 193.679,210.389 193.679,209.301" style="fill:none;stroke:black;stroke-width:1.45px;"/>
        <path d="M192.176,194.976C194.965,190.856 205.812,190.957 209.102,195.891C211.284,199.164 211.784,201.15 211.784,204.943" style="fill:none;stroke:black;stroke-width:1.45px;"/>
        <path d="M164.726,182.207C164.614,182.459 164.293,181.256 164.176,181.139C163.664,180.627 162.907,179.703 162.332,179.128C161.283,178.078 159.156,177.628 157.974,176.446C157.179,175.651 156.691,174.325 155.794,173.428C154.077,171.711 159.15,169.073 157.638,167.561C157.017,166.94 155.525,169.806 154.621,168.902C154.092,168.373 153.951,167.444 153.951,166.388C153.951,165.826 154.118,164.711 154.118,164.711C154.118,164.711 154.013,165.759 153.783,166.22C153.258,167.269 153.084,168.595 152.274,169.405C151.652,170.027 147.126,172.303 148.419,173.596C151.16,176.337 155.813,178.308 158.812,181.307C159.451,181.946 160.823,183.281 160.823,183.989" style="fill:none;stroke:black;stroke-width:1.45px;"/>
        <path d="M154.338,179.432C153.157,179.596 151.918,181.328 151.101,182.145C148.446,184.8 146.415,187.654 145.234,191.197C145.023,191.83 145.305,194.982 144.898,195.388C144.449,195.838 143.018,194.903 142.384,195.22C142.058,195.383 140.754,196.273 141.21,196.729C141.64,197.159 143.083,196.212 143.39,196.059C144.718,195.394 147.059,195.854 147.748,197.232C147.884,197.503 145.754,195.899 145.066,195.556C144.644,195.345 143.394,195.553 143.054,195.723C142.697,195.902 142.049,196.999 142.049,196.729" style="fill:none;stroke:black;stroke-width:1.45px;"/>
        <path d="M189.263,227.049C187.622,227.365 185.488,225.62 184.292,224.724C183.957,224.472 182.842,222.821 182.448,223.215C182.271,223.392 183.287,224.473 183.454,224.724C184.712,226.611 186.037,227.188 187.812,228.076C187.998,228.169 190.633,228.106 190.494,228.244C188.73,230.009 181.945,225.187 181.945,222.88" style="fill:none;stroke:black;stroke-width:1.45px;"/>
        <path d="M180.3,224.876C180.269,225.055 176.242,227.702 175.743,228.076C174.919,228.694 173.927,229.557 173.228,230.256C172.975,230.509 172.39,231.284 172.39,230.926C172.39,230.255 175.144,228.756 175.575,228.412C176.082,228.006 180.706,223.317 180.939,223.55C181.238,223.849 181.209,224.323 181.442,224.556C181.748,224.862 182.258,224.03 182.616,224.388C183.042,224.815 181.579,224.724 181.442,224.724C180.71,224.724 180.202,225.159 179.598,225.562C177.835,226.737 175.385,228.266 174.234,229.417C173.757,229.895 172.39,230.256 172.39,230.256C172.39,230.256 174.011,229.328 174.737,228.747C175.935,227.789 179.598,225.338 179.598,223.718" style="fill:none;stroke:black;stroke-width:1.45px;"/>
        <path d="M180.966,224.205C179.868,224.293 180.141,225.977 180.604,226.903C181.803,229.3 182.711,231.955 183.957,234.446C184.331,235.196 186.295,239.484 186.304,239.475C186.531,239.248 185.053,236.741 184.963,236.29C184.454,233.749 178.701,226.597 182.113,224.891C182.378,224.759 182.28,226.014 182.28,226.232C182.28,227.055 182.583,228.112 182.783,228.914C183.362,231.23 184.55,233.377 185.298,235.62C185.693,236.804 186.598,237.717 187.142,238.805C187.271,239.064 187.745,240.414 187.645,240.313C185.168,237.836 184.183,233.459 182.448,230.423C181.815,229.315 181.006,228.209 180.436,227.07C180.355,226.907 179.598,225.346 179.598,225.394C179.598,226.783 180.885,228.499 181.442,229.753C182.837,232.89 185.139,238.981 186.974,240.816C187.504,241.346 185.674,241.585 184.963,241.822C183.964,242.155 182.774,243.84 181.778,244.504C181.117,244.945 179.934,246.013 179.934,246.013C179.934,246.013 181.801,244.648 182.616,243.834C183.863,242.586 184.533,240.407 185.633,239.308C186.491,238.45 187.812,242.311 187.812,241.99" style="fill:none;stroke:black;stroke-width:1.45px;"/>
        <path d="M187.907,240.501C187.215,240.352 187.309,242.839 187.309,243.331C187.309,245.058 186.723,248.193 187.477,249.701C187.852,250.451 187.477,252.215 187.477,252.215C187.477,252.215 187.645,249.534 187.645,248.192L187.645,242.157C187.645,241.931 187.858,240.359 187.812,240.313C187.684,240.185 186.376,242.085 186.304,242.157C185.334,243.127 183.475,243.645 182.28,244.84" style="fill:none;stroke:black;stroke-width:1.45px;"/>
        <path d="M188.153,241.165C187.206,242.009 190.472,242.485 191.5,242.828C193.587,243.523 195.636,244.773 197.703,246.013C198.797,246.67 201.223,247.522 201.223,247.522C201.223,247.522 198.942,246.488 197.87,245.845C195.666,244.523 193.439,243.738 191.165,242.828C189.935,242.336 187.645,240.984 187.645,240.984C187.645,240.984 190.151,242.564 191.5,243.163C193.892,244.226 196.304,245.341 198.541,246.683C199.353,247.171 202.674,247.522 201.893,247.522" style="fill:none;stroke:black;stroke-width:1.45px;"/>
        <path d="M187.749,239.838C187.513,239.777 188.596,240.276 189.489,239.978C190.981,239.481 192.307,238.637 194.015,238.637C194.916,238.637 196.697,238.302 196.697,238.302C196.697,238.302 194.738,239.264 193.679,239.475C191.743,239.862 189.631,239.668 188.148,241.152" style="fill:none;stroke:black;stroke-width:1.45px;"/>
        <path d="M178.765,222.696C178.762,222.797 179.302,222.441 179.766,222.209C180.318,221.933 181.856,222.466 182.28,222.042C184.37,219.952 187.665,219.486 189.489,215.839C191.617,211.581 192.674,207.924 192.674,202.093C192.674,200.392 192.924,197.899 192.171,196.394C191.21,194.473 190.362,192.777 189.321,190.694C188.562,189.176 187.017,186.693 185.298,185.833C184.068,185.218 182.432,185.741 181.275,185.162C180.158,184.604 177.753,184.115 176.246,184.492C162.812,187.85 161.98,206.312 168.199,216.677C170.327,220.223 176.512,225.128 180.436,221.203" style="fill:none;stroke:black;stroke-width:1.45px;"/>
        <path d="M175.827,188.552C176.085,188.956 176.302,189.186 177.419,189.186" style="fill:none;stroke:black;stroke-width:1.45px;"/>
        <path d="M177.833,189.286C177.807,189.308 177.781,189.331 177.754,189.353" style="fill:none;stroke:black;stroke-width:1.45px;"/>
        <path d="M177.964,189.202C178.386,189.178 178.897,189.018 179.095,189.018" style="fill:none;stroke:black;stroke-width:1.45px;"/>
        <path d="M179.368,188.957C179.389,188.977 179.41,188.998 179.431,189.018" style="fill:none;stroke:black;stroke-width:1.45px;"/>
        <path d="M179.541,188.908C180.05,188.777 180.573,188.379 180.939,188.012" style="fill:none;stroke:black;stroke-width:1.45px;"/>
        <path d="M178.006,185.98C178.144,186.014 177.972,186.001 177.922,186.001" style="fill:none;stroke:black;stroke-width:1.45px;"/>
        <path d="M177.964,185.98C177.95,185.987 177.936,185.994 177.922,186.001" style="fill:none;stroke:black;stroke-width:1.45px;"/>
        <path d="M177.943,185.98C177.112,180.138 173.605,175.956 168.032,174.099C165.431,173.232 161.43,173.66 159.65,175.44C159.435,175.654 157.974,175.821 157.974,176.278" style="fill:none;stroke:black;stroke-width:1.45px;"/>
        <path d="M173.757,184.583C173.749,184.608 173.74,184.634 173.731,184.66" style="fill:none;stroke:black;stroke-width:1.45px;"/>
        <path d="M173.626,184.715C173.325,185.251 171.796,183.563 171.552,183.318C170.812,182.578 168.659,182.794 167.696,182.313C164.33,180.629 159.568,184.655 158.309,187.174C155.782,192.227 152.537,206.751 159.315,210.14C161.444,211.204 163.718,210.81 165.852,210.81" style="fill:none;stroke:black;stroke-width:1.45px;"/>
        <path d="M171.671,230.899C172.24,230.195 167.157,228.823 166.38,228.629C161.546,227.42 156.927,228.829 152.634,230.975C142.367,236.109 136.356,247.46 143.247,257.797C144.879,260.245 148.722,260.367 150.958,261.485C152.222,262.117 154.188,261.82 155.651,261.82C163.415,261.82 169.934,253.035 173.085,246.733C173.95,245.004 174.511,242.708 175.264,241.201C177.101,237.527 174.919,231.143 171.409,231.143" style="fill:none;stroke:black;stroke-width:1.45px;"/>
        <path d="M142.215,196.929C139.554,197.244 138.294,199.049 136.541,200.802C131.994,205.348 129.787,212.51 131.512,219.409C132.35,222.761 134.727,227.379 138.385,228.293C145.464,230.063 152.857,227.707 157.16,221.253C158.688,218.96 160.177,215.655 160.177,212.871C160.177,211.605 159.768,211.288 159.172,210.692C159.015,210.535 160.177,211.948 160.177,212.871" style="fill:none;stroke:black;stroke-width:1.45px;"/>
        <path d="M154.604,202.436C154.498,202.501 154.281,201.858 154.214,201.724C154.009,201.313 153.453,200.905 153.137,200.432C152.245,199.094 149.714,197.417 148.4,197.417" style="fill:none;stroke:black;stroke-width:1.45px;"/>
        <path d="M143.946,199.757C144.076,200.194 145.709,200.754 146.463,200.001" style="fill:none;stroke:black;stroke-width:1.45px;"/>
        <path d="M143.325,196.51C142.246,196.77 144.576,197.848 144.796,198.068C145.327,198.599 146.901,197.601 147.25,197.601" style="fill:none;stroke:black;stroke-width:1.45px;"/>
        <path d="M167.795,232.387C167.473,232.333 167.228,232.885 167.521,233.178C168.478,234.135 168.936,236.095 171.027,235.398" style="fill:none;stroke:black;stroke-width:1.45px;"/>
        <path d="M192.448,224.404C192.053,224.433 193.055,224.361 193.81,225.117C194.451,225.757 195.096,227.001 195.096,227.921" style="fill:none;stroke:black;stroke-width:1.45px;"/>
        <path d="M186.975,253.321C187.104,252.96 184.744,252.691 184.229,252.691C182.016,252.691 179.948,253.467 178.271,255.144C176.784,256.631 175.244,257.855 173.948,259.584C170.317,264.425 170.213,272.443 173.48,277.344C174.533,278.923 176.084,281.032 178.154,281.55C180.569,282.154 184.089,282.52 186.566,281.9C189.073,281.274 190.703,279.376 192.058,277.344C192.911,276.064 194.052,274.937 194.862,273.722C196.133,271.816 196.179,268.887 196.614,266.711C197.364,262.961 198.643,256.341 194.745,253.742C191.907,251.85 188.957,253.041 186.216,253.041" style="fill:none;stroke:black;stroke-width:1.45px;"/>
        <path d="M184.062,256.955C185.747,258.893 187.898,258.836 189.721,257.014" style="fill:none;stroke:black;stroke-width:1.45px;"/>
        <path d="M197.94,262.63C197.962,262.611 197.983,262.593 198.005,262.574" style="fill:none;stroke:black;stroke-width:1.45px;"/>
        <path d="M197.819,262.749C197.643,262.636 198.416,263.552 199.035,263.862C200.163,264.426 201.358,264.464 202.643,264.893C205.821,265.952 211.368,262.837 213.208,260.383C216.263,256.311 216.894,249.408 215.27,244.535C214.824,243.196 214.485,241.173 213.466,240.154C212.584,239.271 211.656,238.602 211.018,237.964" style="fill:none;stroke:black;stroke-width:1.45px;"/>
        <path d="M191.099,251.249C191.009,251.448 190.918,249.398 190.918,248.916C190.918,247.511 191.797,244.535 192.851,244.535" style="fill:none;stroke:black;stroke-width:1.45px;"/>
        <path d="M194.059,242.918C193.906,242.326 195.017,241.62 195.299,241.056C196.014,239.625 198.392,237.835 200.066,237.835" style="fill:none;stroke:black;stroke-width:1.45px;"/>
        <path d="M203.187,249.745C203.027,250.158 203.921,249.243 204.318,249.045C204.974,248.717 205.482,246.472 204.833,245.823" style="fill:none;stroke:black;stroke-width:1.45px;"/>
        <path d="M216.712,249.353C216.583,249.771 218.336,248.298 218.749,247.885C220.081,246.553 221.748,244.944 222.357,243.118C224.141,237.764 224.435,231.925 220.166,227.656C219.419,226.908 218.57,226.11 217.46,226.11" style="fill:none;stroke:black;stroke-width:1.45px;"/>
        <path d="M194.671,242.048C194.094,242.203 193.189,241.218 192.851,240.541C191.826,238.492 190.818,236.36 191.949,234.098C192.269,233.457 192.636,232.423 193.366,232.423" style="fill:none;stroke:black;stroke-width:1.45px;"/>
        <path d="M184.053,251.657C184.711,251.002 184.811,245.566 183.574,245.566" style="fill:none;stroke:black;stroke-width:1.45px;"/>
        <path d="M182.772,242.902C181.997,242.58 181.608,240.588 180.481,240.025C179.089,239.329 177.918,239.123 176.487,239.123" style="fill:none;stroke:black;stroke-width:1.45px;"/>
        <path d="M170.89,264.811C170.876,264.802 170.14,265.296 169.916,265.408C169.22,265.756 167.666,265.314 167.081,265.022C165.763,264.363 162.061,261.023 163.731,259.352" style="fill:none;stroke:black;stroke-width:1.45px;"/>
        <path d="M153.737,226.385C153.252,226.339 153.981,226.966 154.068,227.141C154.46,227.925 155.27,228.558 156.258,228.558" style="fill:none;stroke:black;stroke-width:1.45px;"/>
        <path d="M175.231,233.346C175.126,233.697 176.689,233.645 177.26,233.454C179.23,232.798 180.508,231.495 181.77,230.233" style="fill:none;stroke:black;stroke-width:1.45px;"/>
        <path d="M224.383,234.259C224.366,234.286 224.35,234.312 224.333,234.339" style="fill:none;stroke:black;stroke-width:1.45px;"/>
        <path d="M224.274,234.464C224.273,234.464 225.748,233.715 226.549,232.914C227.848,231.615 228.547,229.837 229.556,228.324C232.102,224.506 232.406,216.144 231.297,211.707C229.429,204.235 226.751,198.864 220.376,194.614C218.775,193.546 213.112,191.907 211.514,193.506C211.045,193.975 209.298,193.315 209.298,194.297" style="fill:none;stroke:black;stroke-width:1.45px;"/>
        <path d="M211.172,192.272C212.447,182.445 200.66,177.046 192.522,177.046C188.445,177.046 186.104,180.932 184.134,182.902C183.79,183.246 182.551,184.443 182.551,184.801" style="fill:none;stroke:black;stroke-width:1.45px;"/>
    </g>
</svg>
