<?xml version="1.0" encoding="UTF-8" standalone="no"?>
<!DOCTYPE svg PUBLIC "-//W3C//DTD SVG 1.1//EN" "http://www.w3.org/Graphics/SVG/1.1/DTD/svg11.dtd">
<svg width="100%" height="100%" viewBox="0 0 1749 1749" version="1.1" xmlns="http://www.w3.org/2000/svg" xmlns:xlink="http://www.w3.org/1999/xlink" xml:space="preserve" xmlns:serif="http://www.serif.com/" style="fill-rule:evenodd;clip-rule:evenodd;stroke-linecap:round;stroke-linejoin:round;stroke-miterlimit:1.5;">
    <g id="Слой1">
        <path d="M501.075,867.159C501.075,847.811 552.726,865.103 552.726,845.893" style="fill:none;stroke:black;stroke-width:8.89px;"/>
        <path d="M550.091,846.865C550.353,847.678 548.574,841.155 547.976,839.362C546.065,833.628 544.94,826.199 541.446,820.958C530.658,804.776 526.006,780.181 518.292,762.182C502.567,725.492 486.842,685.978 465.454,651.756C455.063,635.132 438.339,618.403 431.02,600.105" style="fill:none;stroke:black;stroke-width:8.89px;"/>
        <path d="M532.912,851.741C528.518,852.795 530.407,843.055 528.978,838.768C526.354,830.895 523.861,823.642 521.854,815.614C516.811,795.44 507.743,775.657 501.075,755.652C488.45,717.777 469.577,681.656 454.767,644.632C448.785,629.677 437.392,616.098 433.394,600.105" style="fill:none;stroke:black;stroke-width:8.89px;"/>
        <path d="M552.448,849.86C559.89,839.035 575.297,839.945 583.598,831.644C586.476,828.766 593.335,831.406 596.659,828.082C606.129,818.612 604.84,803.408 611.501,790.086C624.845,763.399 630.674,734.172 624.196,701.783" style="fill:none;stroke:black;stroke-width:8.89px;"/>
        <path d="M629.498,706.537C628.536,706.338 621.751,684.878 619.219,677.285C609.03,646.716 584.191,617.915 564.6,591.793C553.823,577.424 540.599,567.792 528.978,556.172C526.646,553.839 513.542,546.596 513.542,550.235" style="fill:none;stroke:black;stroke-width:8.89px;"/>
        <path d="M519.999,550.617C517.335,551.701 514.22,545.656 509.387,547.267C507.048,548.046 502.737,554.034 499.888,552.61C493.028,549.18 488.372,542.696 479.702,538.361C466.098,531.559 450.343,527.19 433.988,521.738C430.246,520.491 400.186,513.982 398.367,515.801C394.851,519.316 390.147,525.802 387.086,528.862C382.55,533.399 377.555,526.552 372.244,537.174" style="fill:none;stroke:black;stroke-width:8.89px;"/>
        <path d="M496.901,864.165C496.964,866.653 473.098,866.672 469.016,866.672C437.745,866.672 415.585,866.673 393.023,844.112C377.406,828.494 371.353,802.848 364.526,782.368C349.949,738.637 348.497,695.176 348.497,648.194C348.497,635.73 346.711,621.496 349.684,609.604C353.467,594.474 357.283,555.698 366.307,546.673C367.9,545.08 370.4,534.799 372.838,534.799" style="fill:none;stroke:black;stroke-width:8.89px;"/>
        <path d="M349.888,718.392C349.504,719.242 350.02,718.922 349.684,718.249C340.731,700.343 338.319,679.404 331.873,660.068C318.016,618.494 311.688,570.153 311.688,525.894C311.688,500.056 314.406,492.553 323.562,474.243C325.445,470.475 313.39,460.033 308.719,462.369C294.198,469.63 281.548,497.575 276.66,512.239C275.07,517.01 276.494,523.851 274.285,528.268C264.16,548.519 271.847,583.756 276.066,604.854C287.498,662.015 265.114,730.956 302.782,781.18C319.43,803.377 344.783,814.099 368.088,828.082C373.438,831.292 393.617,837.495 393.617,842.924" style="fill:none;stroke:black;stroke-width:8.89px;"/>
        <path d="M515.899,545.519C516.124,537.885 486.586,520.31 480.296,514.02C468.476,502.2 423.744,468.651 410.24,464.15C405.232,462.48 396.657,455.209 390.649,458.213C385.296,460.889 379.854,464.852 375.806,468.899" style="fill:none;stroke:black;stroke-width:8.89px;"/>
        <path d="M391.187,456.274C388.461,457.076 395.826,452.953 398.367,451.682C402.221,449.755 412.351,450.166 415.584,446.933C422.603,439.913 474.735,451.841 479.702,461.775C492.824,488.019 509.736,519.119 532.541,541.923C564.09,573.473 618.032,634.054 618.032,681.441" style="fill:none;stroke:black;stroke-width:8.89px;"/>
        <path d="M408.589,512.578C405.427,504.321 410.745,487.986 415.584,483.148C417.678,481.054 427.457,482.322 427.457,478.399" style="fill:none;stroke:black;stroke-width:8.89px;"/>
        <path d="M408.125,466.965C404.579,467.602 391.214,461.21 388.274,464.15C382.864,469.559 368.547,466.372 360.964,468.899C344.484,474.393 332.02,474.096 319.999,486.116" style="fill:none;stroke:black;stroke-width:8.89px;"/>
        <path d="M412.374,490.947C403.562,488.918 398.77,486.318 391.242,482.554C373.986,473.926 313.469,508.684 313.469,526.487" style="fill:none;stroke:black;stroke-width:8.89px;"/>
        <path d="M372.43,532.303C370.633,532.583 357.667,508.544 343.153,515.801C333.784,520.486 324.107,528.412 320.593,538.955C320.302,539.829 311.422,552.61 314.656,552.61" style="fill:none;stroke:black;stroke-width:8.89px;"/>
        <path d="M280.559,498.348C280.288,488.379 272.577,463.379 268.5,451.148C263.46,436.028 266.966,418.87 263.788,402.98C258.314,375.608 254.952,295.519 266.929,271.565C280.657,244.108 297.904,209.741 327.14,195.124C327.221,195.083 355.58,191.894 355.936,191.982C362.304,193.574 377.958,201.439 382.114,205.595C385.198,208.679 393.633,211.256 393.633,214.496" style="fill:none;stroke:black;stroke-width:8.89px;"/>
        <path d="M371.365,465.98C370.773,466.828 367.677,455.632 366.931,453.766C363.317,444.731 360.639,436.461 357.507,427.064C348.25,399.294 344.941,365.051 344.941,335.44C344.941,326.033 345.464,316.435 345.464,307.167C345.464,306.068 345.177,293.436 344.941,293.554C341.088,295.481 337.801,326.588 337.087,332.298C332.973,365.212 334.808,400.485 341.276,432.823C343.738,445.131 346.031,462.709 354.889,471.567" style="fill:none;stroke:black;stroke-width:8.89px;"/>
        <path d="M279.79,246.171C274.478,241.459 282.841,195.035 284.731,189.365C286.245,184.82 288.044,179.424 289.443,175.228C290.263,172.767 295.202,167.398 295.202,169.993C295.202,170.559 283.426,179.018 282.113,180.987C273.326,194.168 265.917,206.049 259.076,219.731C255.123,227.638 258.029,243.823 258.029,252.716C258.029,260.38 253.824,289.461 252.27,298.79C248.889,319.074 239.953,337.882 237.086,357.953C233.056,386.162 238.863,412.39 244.416,440.153C248.737,461.758 257.455,481.365 264.312,501.934C265.651,505.953 272.071,520.782 275.307,520.782" style="fill:none;stroke:black;stroke-width:8.89px;"/>
        <path d="M340.785,187.721C340.659,190.017 332.588,180.047 329.234,178.37C324.265,175.885 290.49,163.132 290.49,174.705" style="fill:none;stroke:black;stroke-width:8.89px;"/>
        <path d="M395.612,213.65C390.581,211.169 385.568,172.923 380.543,167.898C379.953,167.308 381.347,166.328 380.02,166.328" style="fill:none;stroke:black;stroke-width:8.89px;"/>
        <path d="M382.343,179.536C356.11,175.366 354.031,189.365 341.8,189.365" style="fill:none;stroke:black;stroke-width:8.89px;"/>
        <path d="M518.863,518.864C518.793,519.113 519.408,516.355 519.812,515.547C521.237,512.696 521.383,510.107 521.383,506.646C521.383,498.043 517.643,490.64 515.624,482.562C509.224,456.961 493.798,434.199 482.115,410.833C465.972,378.546 449.562,344.634 436.042,310.832C430.788,297.699 429.665,282.372 423.476,269.994C418.436,259.914 392.062,208.645 392.062,202.454" style="fill:none;stroke:black;stroke-width:8.89px;"/>
        <path d="M547.414,545.23C546.782,546.378 550.195,541.694 550.703,540.678C552.85,536.383 556.483,533.306 558.556,529.159C564.532,517.207 566.933,503.85 566.933,488.845C566.933,476.408 574.769,459.996 570.598,447.483C561.924,421.462 549.638,396.138 537.614,372.089" style="fill:none;stroke:black;stroke-width:8.89px;"/>
        <path d="M538.464,374.508C537.696,374.977 536.807,368.865 536.566,367.901C535.485,363.576 532.747,358.506 530.284,354.812C522.033,342.436 515.645,326.581 508.817,312.926C498.332,291.955 483.079,274.015 472.691,253.24C455.514,218.886 452.243,190.227 415.099,177.846C410.052,176.164 395.148,175.173 392.062,172.087C390.58,170.605 383.406,163.988 381.591,165.804" style="fill:none;stroke:black;stroke-width:8.89px;"/>
        <path d="M754.845,778.895C752.843,779.977 755.945,758.864 756.601,756.896C761.493,742.221 760.65,725.836 765.502,711.277C771.848,692.24 763.218,633.153 758.827,615.588C754.73,599.203 759.293,578.691 751.594,563.293" style="fill:none;stroke:black;stroke-width:8.89px;"/>
        <path d="M753.002,566.575C751.959,568.738 752.151,563.008 752.151,562.181C752.151,558.812 750.362,553.04 748.813,549.942C743.319,538.955 741.321,525.538 738.242,513.224C730.647,482.84 717.71,422.568 687.616,407.521C682.696,405.061 658.365,386.146 655.349,389.163C653.907,390.605 643.009,425.627 641.441,430.331C636.783,444.306 630.958,457.887 626.42,471.499C621.173,487.24 625.395,505.642 621.413,521.569C617.732,536.295 613.284,551.09 610.287,566.075C608.464,575.188 594.186,619.515 601.942,627.271" style="fill:none;stroke:black;stroke-width:8.89px;"/>
        <g transform="matrix(1.04399,0,0,0.873455,-30.3387,92.5683)">
            <path d="M752.411,776.692C749.303,786.082 712.673,773.256 705.975,771.917C686.91,768.103 643.682,739.696 636.991,719.622C633.369,708.757 631.749,692.448 626.977,682.904" style="fill:none;stroke:black;stroke-width:9.24px;"/>
        </g>
        <path d="M759.139,776.251C767.244,771.787 781.336,766.609 788.868,774.142C789.584,774.858 791.096,774.696 791.65,774.142C795.791,770.001 785.35,757.843 784.418,754.114C782.51,746.484 776.325,739.851 773.847,732.417C769.714,720.018 768.284,709.041 768.284,695.7" style="fill:none;stroke:black;stroke-width:8.89px;"/>
        <path d="M794.797,772.332C793.83,772.705 799.588,774.834 803.333,773.586C810.236,771.285 822.912,768.471 828.368,763.015C835.354,756.029 843.623,756.925 851.177,751.889C863.091,743.946 886.139,725.915 892.345,713.502C898.285,701.622 897.881,676.672 894.571,663.433C892.777,656.258 895.386,647.403 894.571,640.067C892.479,621.243 891.938,602.831 887.338,584.434C882.074,563.375 865.883,551.537 856.74,533.252" style="fill:none;stroke:black;stroke-width:8.89px;"/>
        <path d="M896.518,709.274C892.935,706.41 901.099,696.291 901.803,693.474C905.154,680.07 908.412,664.19 912.93,650.637C921.217,625.775 900.134,578.292 900.134,552.167" style="fill:none;stroke:black;stroke-width:8.89px;"/>
        <path d="M899.039,553.24C898.077,524.64 878.033,492.336 862.86,467.049C857.4,457.948 848.611,449.678 843.945,440.345C838.813,430.082 832.2,417.679 822.804,411.416C816.325,407.096 792.499,380.95 784.974,384.712C775.602,389.398 770.188,412.146 767.728,421.986C765.939,429.141 761.756,435.86 759.939,443.126C757.129,454.366 758.884,466.761 756.601,478.175C751.388,504.242 741.994,537.973 754.932,563.85" style="fill:none;stroke:black;stroke-width:8.89px;"/>
        <path d="M775.308,400.593C774.516,401.168 770.025,395.318 766.615,393.613C761.022,390.817 746.114,388.022 739.355,390.275C725.098,395.028 717.765,412.421 708.757,421.43" style="fill:none;stroke:black;stroke-width:8.89px;"/>
        <path d="M824.021,410.983C823.583,410.901 810.176,383.293 806.671,378.036C793.005,357.538 778.761,356.57 761.608,347.994C757.467,345.924 747.748,350.752 744.362,352.445C732.478,358.387 689.9,403.071 682.61,403.071" style="fill:none;stroke:black;stroke-width:8.89px;"/>
        <path d="M698.743,393.287C698.743,390.996 723.826,380.06 728.228,378.592C733.067,376.979 737.746,372.443 742.137,370.247C749.383,366.624 779.536,365.581 786.643,369.135C791.395,371.511 796.5,378.992 799.995,382.487C804.785,387.276 815.572,392.811 815.572,400.845" style="fill:none;stroke:black;stroke-width:8.89px;"/>
        <path d="M674.44,391.725C674.456,391.773 676.377,385.861 677.153,384.309C679.311,379.994 681.669,372.705 681.669,367.248C681.669,350.249 686.186,332.311 686.186,314.558C686.186,283.033 682.336,250.32 672.637,221.222C668.238,208.024 669.342,194.201 661.597,182.583C653.265,170.085 650.303,155.61 637.009,148.962C625.824,143.37 605.297,181.226 600.377,188.605C584.524,212.385 581.019,245.674 571.774,273.41C561.211,305.1 541.164,342.362 541.164,375.778" style="fill:none;stroke:black;stroke-width:8.89px;"/>
        <path d="M621.641,485.566C613.532,486.829 572.778,460.094 572.778,453.057" style="fill:none;stroke:black;stroke-width:8.89px;"/>
        <path d="M665.721,181.93C664.725,178.748 671.603,172.107 673.139,169.035C680.006,155.3 693.133,134.912 710.272,134.912" style="fill:none;stroke:black;stroke-width:8.89px;"/>
        <path d="M651.326,156.556C650.568,156.367 651.023,156.525 651.561,155.988C656.331,151.218 688.193,141.701 688.193,147.959" style="fill:none;stroke:black;stroke-width:8.89px;"/>
        <path d="M774.127,248.599C772.336,249.236 772.773,241.847 771.493,239.287C768.288,232.878 766.295,225.379 762.962,218.713C753.665,200.119 738.438,182.995 730.846,164.017C729.255,160.037 726.266,156.362 724.323,152.475C722.111,148.051 719.267,144.91 716.294,141.937C715.693,141.336 712.786,136.417 711.276,136.417C710.483,136.417 708.767,136.038 708.767,136.919" style="fill:none;stroke:black;stroke-width:8.89px;"/>
        <path d="M912.373,576.122C907.286,577.118 913.395,573.069 915.648,571.567C924.251,565.832 934.145,562.476 939.161,557.459C939.327,557.294 941.695,555.962 941.177,555.444C940.676,554.943 938.948,558.344 938.49,558.803C935.258,562.035 933.622,565.631 929.756,568.208C925.292,571.185 908.93,575.094 908.93,581.645" style="fill:none;stroke:black;stroke-width:8.89px;"/>
        <path d="M961.142,389.294C966.805,375.491 935.518,307.789 926.397,294.107C918.248,281.883 910.559,267.135 904.227,254.47C892.375,230.766 863.033,220.986 840.405,232.3C830.21,237.398 821.785,252.648 814.876,261.86C807.276,271.993 802.328,286.956 796.736,298.138C790.156,311.299 768.52,333.532 768.52,345.165" style="fill:none;stroke:black;stroke-width:8.89px;"/>
        <path d="M811.795,263.918C809.856,264.63 814.838,242.491 816.891,236.331C820.988,224.039 847.839,200.934 820.25,210.13C795.737,218.302 777.619,247.022 767.177,267.907C763.543,275.174 764.695,284.963 761.13,292.092C756.17,302.013 758.573,316.559 755.084,327.026C753.907,330.556 750.381,345.06 750.381,343.15" style="fill:none;stroke:black;stroke-width:8.89px;"/>
        <path d="M863.285,220.551C862.125,214.1 857.77,207.231 856.022,200.239C849.365,173.609 861.688,130.492 886.474,118.099" style="fill:none;stroke:black;stroke-width:8.89px;"/>
        <path d="M823.68,205.686C824.267,206.017 828.042,199.234 828.375,198.235C831.309,189.434 836.39,178.4 841.598,170.588C851.071,156.378 862.973,143.533 872.45,129.318C876.592,123.105 885.095,119.477 890.08,114.493" style="fill:none;stroke:black;stroke-width:8.89px;"/>
        <path d="M1023.81,285.761C1022.34,284.899 1022.36,278.175 1021.9,276.368C1019.5,266.745 1018.01,254.961 1013.49,245.916C1003.92,226.767 999.896,203.359 988.648,184.612C980.351,170.784 968.725,148.884 963.806,134.126C961.091,125.982 948.272,120.149 941.768,116.897C938.041,115.033 937.391,109.099 933.754,107.28C928.273,104.54 919.205,109.776 912.919,107.681C906.518,105.548 902.643,112.089 899.697,112.089C896.251,112.089 888.477,110.388 888.477,117.698" style="fill:none;stroke:black;stroke-width:8.89px;"/>
        <path d="M1039.6,268.089C1039.43,268.812 1038.16,264.627 1037.93,263.947C1036.82,260.622 1035.21,257.078 1034.33,253.529C1031.81,243.473 1030.66,232.137 1026.71,222.276C1016.27,196.161 1002.55,165.659 982.638,145.746C976.158,139.266 968.818,126.914 959.398,126.914" style="fill:none;stroke:black;stroke-width:8.89px;"/>
        <path d="M980.411,598.999C975.59,599.707 962.294,585.818 958.742,580.491C937.249,548.251 936.637,538.114 936.637,496.724C936.637,457.68 947.162,409.677 967.468,379.219C975.881,366.598 987.526,354.226 993.645,341.989C1007.14,314.993 1024.06,287.723 1043.67,268.112C1056.95,254.838 1081.18,236.63 1099.52,232.046C1101.8,231.476 1122.79,223.777 1122.79,225.065" style="fill:none;stroke:black;stroke-width:8.89px;"/>
        <path d="M1081.3,269.056C1087.54,256.615 1103.96,246.795 1114.06,236.7C1116.44,234.321 1120.82,229.249 1123.37,227.974C1124.59,227.361 1128.81,227.392 1127.44,227.392" style="fill:none;stroke:black;stroke-width:8.89px;"/>
        <path d="M982.738,598.465C982.585,599.136 991.731,596.694 994.226,597.942C997.651,599.654 1002.4,602.626 1005.86,606.086C1016.75,616.971 1020.37,632.263 1039.6,632.263" style="fill:none;stroke:black;stroke-width:8.89px;"/>
        <path d="M1008.27,607.272C1007.92,607.466 1008.77,601.961 1008.77,600.85C1008.77,595.98 1006.92,587.731 1005.28,582.817C1002.08,573.223 1005.28,558.873 1005.28,549.078C1005.28,519.544 1021.46,460.722 1033.2,433.318C1038.25,421.536 1041.7,409.459 1048.33,398.415C1051.06,393.861 1054.21,388.325 1055.89,383.291C1056.25,382.218 1057.63,380.382 1057.63,380.382C1057.63,380.382 1055.9,383.275 1054.72,384.454C1049.24,389.941 1043.99,398.179 1039.02,404.814C1026.02,422.142 1015.66,437.59 1007.02,457.75C994.69,486.53 985.481,527.437 990.736,558.967C992.428,569.117 997.317,589.199 997.317,596.455" style="fill:none;stroke:black;stroke-width:8.89px;"/>
        <path d="M1180.35,408.671C1179.69,408.177 1180.5,409.634 1180.5,409.644C1180.5,411.779 1180.88,414.202 1180.88,416.554C1180.88,421.845 1181.52,427.563 1182.8,432.677C1185.74,444.43 1183.41,472.856 1180.5,484.501C1178.77,491.424 1180.16,500.532 1177.04,506.766C1171.24,518.372 1169.7,531.87 1165.53,544.386C1162.11,554.617 1153.52,563.98 1150.94,574.328C1148.93,582.375 1135.1,607.584 1128.67,610.797C1125.52,612.371 1122.84,618.526 1119.46,620.778C1115.38,623.495 1103.9,630.198 1101.42,632.678C1100.63,633.466 1095.72,637.285 1094.89,637.285" style="fill:none;stroke:black;stroke-width:8.89px;"/>
        <path d="M1094.1,638.052C1091.57,638.052 1082.45,637.892 1079.92,637.892C1069.05,637.892 1052.78,635.041 1044.22,630.759C1040.84,629.071 1029.63,632.01 1029.63,634.214" style="fill:none;stroke:black;stroke-width:8.89px;"/>
        <path d="M1184.38,419.553C1182.37,406.44 1189.24,394.557 1193.16,382.773C1201.34,358.252 1219.7,329.183 1210.82,302.542C1208.97,296.977 1209.85,289.841 1207.37,284.883C1206.74,283.624 1208.33,279.708 1207.37,278.741C1206.85,278.219 1202.42,283.066 1201.99,283.348C1198.85,285.445 1192.34,291.025 1188.56,291.025" style="fill:none;stroke:black;stroke-width:8.89px;"/>
        <path d="M1207.76,322.864C1200.25,308.736 1193.77,294.59 1178.19,286.803C1176.81,286.11 1158.55,293.753 1156.31,295.248C1151.73,298.301 1150.55,303.035 1150.55,301.39" style="fill:none;stroke:black;stroke-width:8.89px;"/>
        <path d="M1185.09,441.669C1184.18,441.269 1184.72,436.026 1184.72,434.98L1184.72,414.635" style="fill:none;stroke:black;stroke-width:8.89px;"/>
        <path d="M1176.54,284.474C1169.67,275.148 1160.86,270.186 1149.02,267.225C1145.79,266.417 1138.81,263.497 1135.2,265.305C1132.57,266.619 1125.46,267.609 1122.53,267.609" style="fill:none;stroke:black;stroke-width:8.89px;"/>
        <path d="M1129.78,260.742C1129.91,261.675 1128.23,254.002 1127.52,251.87C1125.76,246.595 1119.34,241.505 1113.7,241.505" style="fill:none;stroke:black;stroke-width:8.89px;"/>
        <path d="M1163.59,267.959C1163.71,264.472 1159.25,257.783 1157.08,254.173C1149.39,241.364 1143.38,238.165 1134.05,228.837C1131.94,226.73 1127.72,227.785 1125.22,226.533" style="fill:none;stroke:black;stroke-width:8.89px;"/>
        <path d="M1094.27,637.751C1093.99,638.337 1100.72,637.285 1101.42,637.285C1106.36,637.285 1111.51,636.481 1116,634.981C1121.26,633.229 1144,636.541 1145.95,634.598C1148.61,631.933 1156.76,631.462 1160.53,627.688C1178.65,609.57 1204.86,591.843 1213.51,565.883C1216.36,557.341 1223.11,548.707 1223.11,539.395" style="fill:none;stroke:black;stroke-width:8.89px;"/>
        <path d="M1221.87,541.046C1223.03,534.185 1226.76,528.815 1228.87,522.505C1230.62,517.243 1230.56,510.753 1231.94,505.23C1236.21,488.129 1232.17,465.338 1228.87,448.8C1226.06,434.771 1232.32,421.211 1232.32,407.725" style="fill:none;stroke:black;stroke-width:8.89px;"/>
        <path d="M1231.66,409.183C1233.19,409.61 1233.82,399.818 1234.24,398.128C1236.06,390.826 1238.18,382.561 1241.53,375.863C1248.81,361.305 1252.9,343.568 1247.67,327.878C1243.64,315.774 1218.76,291.671 1210.06,282.964" style="fill:none;stroke:black;stroke-width:8.89px;"/>
        <path d="M1239.6,739.513C1239.61,739.676 1238.3,736.08 1237.69,735.174C1235.97,732.59 1234.16,728.223 1231.17,726.729C1226.8,724.545 1210.99,705.743 1209.29,700.625C1206.13,691.157 1199.11,683.149 1197,672.602C1192.15,648.332 1198.07,620.023 1206.98,597.745C1212.91,582.94 1232.58,552.955 1243.45,542.083C1254.25,531.286 1261.98,515.936 1271.86,504.078C1288.81,483.736 1308.86,464.525 1329.83,448.8C1336.37,443.893 1342.04,434.286 1347.87,428.454C1358.68,417.639 1372.17,408.016 1384.34,398.895C1389.49,395.031 1392.86,387.53 1398.54,384.692C1401.39,383.266 1405.45,383.386 1408.52,382.773C1414.29,381.619 1420.57,380.335 1426.18,378.934C1436.28,376.408 1449.05,381.621 1459.58,381.621" style="fill:none;stroke:black;stroke-width:8.89px;"/>
        <path d="M1397.27,466.569C1397.06,466.786 1400.68,459.212 1401.99,457.245C1406.13,451.037 1409.38,444.627 1413.51,438.435C1422.7,424.654 1436.16,413.094 1445.37,399.279C1448.86,394.054 1454.44,384.692 1459.96,384.692" style="fill:none;stroke:black;stroke-width:8.89px;"/>
        <path d="M1240.11,737.545C1239.29,737.432 1239.57,731.971 1239.23,730.951C1237.02,724.312 1235.68,717.068 1234.24,709.838C1229.17,684.487 1246.47,638.535 1257.66,616.171C1270.47,590.544 1299.62,561.536 1320.23,540.931C1335.03,526.132 1352.73,513.331 1365.14,496.785C1371.46,488.365 1383.21,478.851 1392.01,472.984C1393.93,471.705 1401.99,465.992 1401.99,464.539" style="fill:none;stroke:black;stroke-width:8.89px;"/>
        <path d="M1395.23,468.362C1396.12,468.421 1412.98,457.127 1415.81,455.71C1424.29,451.473 1431.22,446.281 1440,441.89C1448.14,437.818 1459.44,437.798 1467.64,435.748C1477.43,433.3 1488.98,430.6 1496.43,438.051" style="fill:none;stroke:black;stroke-width:8.89px;"/>
        <path d="M1516.47,559.45C1515.35,553.046 1522.64,539.844 1524.84,533.253C1526.46,528.367 1525.94,522.681 1527.14,517.898C1533.77,491.385 1536.81,475.817 1524.45,451.103C1521.81,445.824 1510.14,442.796 1506.03,440.738C1502.86,439.154 1500.41,436.516 1496.05,436.516" style="fill:none;stroke:black;stroke-width:8.89px;"/>
        <path d="M1534.32,619.172C1535.33,619.322 1538.1,613.1 1538.76,611.784C1543.52,602.269 1551.46,593.397 1555.13,582.396C1560.25,567.035 1555.54,545.686 1550.67,531.059C1547.7,522.176 1549.62,511.234 1547.32,502.043C1543.28,485.895 1537.36,473.943 1530.58,460.378" style="fill:none;stroke:black;stroke-width:8.89px;"/>
        <path d="M1540.34,608.038C1539.69,610.832 1536.57,613.947 1535.04,616.992C1530.14,626.799 1518.24,645.905 1515.7,656.052C1512.45,669.037 1501.77,683.231 1494.87,694.741C1481.51,717.008 1469.09,738.006 1450.97,756.121C1443.77,763.325 1437.87,772.017 1429.02,777.325C1421.33,781.942 1402.36,790.872 1394.05,792.95C1389.47,794.095 1383.63,792.208 1379.17,793.694C1370.57,796.56 1371.23,800.719 1362.43,797.786C1359.39,796.772 1340.49,800.491 1340.49,795.926" style="fill:none;stroke:black;stroke-width:8.89px;"/>
        <path d="M1338.46,794.941C1338.38,796.464 1335.53,793.258 1335.08,792.806C1332.77,790.498 1328.83,789.179 1325.98,787.754C1318.43,783.978 1307.47,784.727 1299.37,782.027C1286.88,777.864 1272.88,781.81 1262.99,771.922C1257.68,766.614 1255.52,757.916 1250.87,751.711C1247.86,747.704 1243.47,743.323 1241.77,739.921C1240.78,737.938 1237.05,737.426 1237.05,735.879" style="fill:none;stroke:black;stroke-width:8.89px;"/>
        <path d="M1336.13,790.307C1335.38,790.586 1338.81,788.064 1339.46,787.417C1341.58,785.293 1343.62,782.916 1345.86,780.68C1352.53,774.004 1358.2,765.877 1363.37,758.111C1378.28,735.751 1385.57,709.657 1400.43,687.373C1405.26,680.124 1408.63,671.826 1413.9,664.804C1415.64,662.478 1417.01,659.807 1418.62,657.393C1419.46,656.122 1421.31,652.16 1421.31,653.688C1421.31,656.068 1415.96,662.524 1414.57,664.467C1408.56,672.89 1404.65,682.746 1398.4,691.078C1392.74,698.631 1387.45,707.589 1383.25,716.005C1375.94,730.616 1362.49,744.175 1351.25,755.416C1345.68,760.981 1342.01,768.237 1335.75,772.932C1330.52,776.853 1317.26,780.642 1313.86,784.048" style="fill:none;stroke:black;stroke-width:8.89px;"/>
        <path d="M1558.11,548.486C1557.91,550.643 1558.13,545.577 1558.41,544.212C1559.18,540.33 1559.99,536.635 1560.77,532.759C1562.82,522.495 1567.63,510.289 1565.82,499.411C1563.38,484.8 1556.93,473.078 1552.35,459.325C1550.63,454.194 1549.08,444.274 1545.27,440.462C1541.98,437.166 1528.96,429.825 1528.09,430.693C1526.3,432.489 1526.38,438.824 1525.06,441.472C1524.51,442.575 1520.68,447.132 1520.68,447.873" style="fill:none;stroke:black;stroke-width:8.89px;"/>
        <path d="M1529.6,430.011C1530.86,430.069 1526.53,427.928 1525.73,427.662C1522.41,426.553 1517.61,426.988 1513.94,426.988C1502.75,426.988 1492.05,430.693 1481.27,430.693" style="fill:none;stroke:black;stroke-width:8.89px;"/>
        <path d="M1500.05,423.889C1490.19,413.366 1481.38,405.721 1466.45,402.735C1461.18,401.681 1455.54,402.061 1450.28,402.061C1448.62,402.061 1446.82,403.011 1445.23,403.408C1444.83,403.508 1442.49,404.082 1443.21,404.082" style="fill:none;stroke:black;stroke-width:8.89px;"/>
        <path d="M1484.37,427.371C1481.19,427.171 1478.42,423.049 1474.53,422.272C1466.26,420.616 1453.86,417.582 1445.56,419.24C1444.12,419.528 1428.25,422.478 1430.41,424.63" style="fill:none;stroke:black;stroke-width:8.89px;"/>
        <path d="M1560.18,571.684C1560.05,571.73 1564.28,563.653 1564.81,562.065C1566.95,555.63 1570.95,549.734 1573.57,543.201C1580.86,524.957 1584.9,499.346 1581.65,479.873C1576.42,448.499 1579.52,411.044 1544.93,402.398C1540.63,401.322 1534.4,399.788 1529.78,400.714C1516.27,403.415 1505.06,412.167 1491.71,412.167" style="fill:none;stroke:black;stroke-width:8.89px;"/>
        <path d="M1359.29,414.481C1359.64,412.06 1363.53,408.822 1364.72,406.44C1368.2,399.475 1372.01,390.42 1373.14,382.524C1374.67,371.84 1376.43,361.11 1378.19,350.523C1380.24,338.259 1376.99,325.147 1378.53,312.796C1380.26,298.999 1382.39,271.303 1365.39,265.637C1355.84,262.454 1336.3,277.005 1332.38,284.837C1327.73,294.144 1317.61,301.098 1311.84,309.764C1297.97,330.556 1282.45,350.97 1267.37,371.071C1258.92,382.335 1251.16,393.917 1242.78,405.093C1239.86,408.983 1236.87,412.559 1234.02,416.546C1232.98,418.006 1229.66,420.236 1229.98,419.914" style="fill:none;stroke:black;stroke-width:8.89px;"/>
        <path d="M1482.04,406.757C1480.85,406.811 1482.92,404.881 1483.29,403.408C1484.07,400.276 1484.68,397.16 1485.31,393.977C1487.13,384.896 1488.01,375.627 1488.01,366.018C1488.01,354.584 1482.43,337.495 1472.85,330.312C1469.57,327.852 1465.4,326.564 1462.41,323.575C1459.62,320.784 1457.86,317.553 1454.66,315.154C1443,306.41 1427.88,320.997 1421.65,329.302C1419.26,332.481 1414.79,334.034 1412.55,337.386C1409.95,341.295 1408.23,346.088 1404.81,349.513C1400.74,353.582 1395,356.635 1391.67,361.639C1389.01,365.628 1375.16,375.415 1375.16,379.492" style="fill:none;stroke:black;stroke-width:8.89px;"/>
        <path d="M1503.85,405.831C1503.8,407.14 1503.48,403.804 1503.84,402.735C1504.84,399.732 1504.67,396.079 1505.19,392.966C1506.64,384.243 1509.44,371.232 1507.21,362.313C1505.25,354.478 1506.34,343.833 1501.82,337.049C1490.81,320.538 1478.6,312.459 1459.04,312.459" style="fill:none;stroke:black;stroke-width:8.89px;"/>
        <path d="M1459.2,310.807C1457.98,313.151 1454.65,311.449 1452.64,311.449" style="fill:none;stroke:black;stroke-width:8.89px;"/>
        <path d="M1485.74,314.64C1484.1,314.031 1485.12,309.721 1484.3,308.08C1481.56,302.587 1479.46,293.163 1474.2,289.217C1463.59,281.261 1440.59,279.916 1428.72,285.848C1425.19,287.611 1421.42,290.64 1417.61,291.911C1413.43,293.304 1406.68,294.418 1403.8,297.301" style="fill:none;stroke:black;stroke-width:8.89px;"/>
        <path d="M1425.81,319.822C1424.63,319.947 1419.25,309.797 1417.61,307.743C1412.68,301.593 1407.41,301.973 1401.44,298.985C1399.06,297.797 1395.09,299.853 1392.68,298.648C1391.18,297.901 1383.96,296.248 1382.57,297.638" style="fill:none;stroke:black;stroke-width:8.89px;"/>
        <path d="M1407.25,290.642C1405.93,290.398 1402.4,283.878 1401.1,282.143C1397.86,277.825 1382.83,269.427 1377.52,274.732" style="fill:none;stroke:black;stroke-width:8.89px;"/>
        <path d="M1180.43,413.269C1178.93,413.904 1178.77,398.258 1178.05,396.088C1174.73,386.151 1176.05,374.445 1173.98,364.094C1169.62,342.324 1165.1,322.565 1152.45,303.596C1149.02,298.443 1143.6,296.423 1140.24,291.38C1137.43,287.175 1133.76,278.546 1129.18,276.256C1090.62,256.975 1089.04,270.153 1053.56,287.89C1041.8,293.771 1027.9,301.072 1020.4,312.322C1016.6,318.026 992.481,340.157 992.481,344.316" style="fill:none;stroke:black;stroke-width:8.89px;"/>
        <path d="M859.677,224.955C860.374,222.578 838.621,210.13 835.702,210.13" style="fill:none;stroke:black;stroke-width:8.89px;"/>
        <path d="M965.677,381.985C961.478,374.771 967.439,360.19 965.362,351.884C960.649,333.032 964.071,290.181 957.3,276.64C951.745,265.53 944.978,254.683 939.161,243.049C929.785,224.296 928.27,217.449 909.602,208.115C889.345,197.987 876.522,224.91 861.903,224.91" style="fill:none;stroke:black;stroke-width:8.89px;"/>
        <path d="M963.179,313.762C961.143,313.068 954.566,279.952 950.582,275.968C925.202,250.588 928.868,240.362 892.806,240.362" style="fill:none;stroke:black;stroke-width:8.89px;"/>
        <path d="M909.686,208.579C908.448,205.793 921.326,209.611 925.053,211.474C934.462,216.178 942.76,218.128 951.926,224.239C978.728,242.106 991.563,274.798 991.563,306.2L991.563,308.216C991.563,328.285 991.406,346.509 990.891,346.509" style="fill:none;stroke:black;stroke-width:8.89px;"/>
    </g>
    <g id="Слой2">
        <path d="M548.409,852.262L652.493,1177.75L622.579,1187.51C622.579,1187.51 514.046,866.382 507.646,865.59" style="fill:none;stroke:black;stroke-width:11.43px;"/>
        <path d="M824.094,901.226L806.044,775.941" style="fill:none;stroke:black;stroke-width:11.43px;"/>
        <path d="M767.661,776.019L792.619,960.601L826.494,1118.94L834.202,1014.85C814.461,990.688 805.464,959.676 808.932,927.71L807.859,889.07C832.693,917.051 865.464,936.233 897.952,948.628C929.058,966.244 948.708,985.007 964.297,1004.18L994.465,1054.94" style="fill:none;stroke:black;stroke-width:11.43px;"/>
        <path d="M577.718,1059.88C574.194,1107.54 583.291,1150.99 597.251,1197.9" style="fill:none;stroke:black;stroke-width:11.43px;"/>
        <path d="M578.261,1108.05L546.926,1082.24C520.183,1013.42 500.26,942.79 488.347,870.041" style="fill:none;stroke:black;stroke-width:11.43px;"/>
        <path d="M496.874,1051.32L488.347,870.041" style="fill:none;stroke:black;stroke-width:11.43px;"/>
        <path d="M491.53,937.701C463.566,918.865 436.956,892.373 417.318,861.26" style="fill:none;stroke:black;stroke-width:11.43px;"/>
        <path d="M289.545,759.646C267.45,792.599 281.613,827.059 311.673,862.18" style="fill:none;stroke:black;stroke-width:11.43px;"/>
        <path d="M407.718,951.256L341.587,885.92L311.673,862.18L415.094,1013.18L443.271,1019.38L492.562,1053.04C476.744,1010.41 407.718,951.256 407.718,951.256Z" style="fill:none;stroke:black;stroke-width:11.43px;"/>
        <path d="M578.577,1107.7L492.562,1053.04L447.818,1019.8" style="fill:none;stroke:black;stroke-width:11.43px;"/>
        <path d="M413.591,1011.05C385.401,1009.45 359.832,1019.59 338.719,1028.97C339.385,1062.4 359.263,1078.45 389.902,1093.15C416.463,1109.84 434.832,1134.29 445.886,1151.12C501.389,1157.05 550.859,1172.12 594.862,1195.49" style="fill:none;stroke:black;stroke-width:11.43px;"/>
        <path d="M445.886,1151.12C407.705,1166.92 372.952,1164.31 340.281,1150.51L352.92,1179.21L389.684,1194.8L469.577,1208.15C469.577,1208.15 558.637,1225.43 559.319,1230.5" style="fill:none;stroke:black;stroke-width:11.43px;"/>
        <path d="M352.92,1179.21C368.725,1217.59 397.433,1239.79 433.031,1253.37C464.372,1267.38 492.815,1283.76 518.54,1302.37L623.666,1385.31C647.227,1423.03 687.201,1459.2 726.706,1489.58L751.177,1482.47L742.392,1405.03L760.364,1356.81L725.703,1339.39L704.822,1317.21L684.303,1294.76L726.465,1309.05L725.703,1339.39" style="fill:none;stroke:black;stroke-width:11.43px;"/>
        <path d="M726.706,1489.58L762.149,1582.41L784.394,1584.98L749.292,1485.09" style="fill:none;stroke:black;stroke-width:11.43px;"/>
        <path d="M703.799,1476.58L723.477,1569L707.811,1563.3L680.391,1449.57L649.2,1453.26C634.06,1437.65 625.548,1414.88 620.838,1388.01" style="fill:none;stroke:black;stroke-width:11.43px;"/>
        <path d="M649.2,1453.26L684.824,1554.87L705.344,1565.41" style="fill:none;stroke:black;stroke-width:11.43px;"/>
        <path d="M604.069,1019.86C601.626,923.922 617.978,824.311 641.799,730.243" style="fill:none;stroke:black;stroke-width:11.43px;"/>
        <path d="M566.62,905.796L579.417,834.575L566.62,905.796Z" style="fill:none;stroke:black;stroke-width:11.43px;"/>
        <path d="M665.361,1178.57C662.465,1122.59 660.763,1066.09 664.072,1007.48C653.337,982.254 650.559,956.569 651.27,930.682C651.27,930.682 658.646,878.117 653.788,854.945C648.93,831.774 648.646,802.344 648.646,802.344C651.8,773.834 649.902,754.898 638.54,753.9" style="fill:none;stroke:black;stroke-width:11.43px;"/>
        <path d="M686.519,1175.77L671.82,937.21C664.676,895.819 662.303,848.233 670.951,812.605C669.623,792.186 669.908,773.21 680.632,763.577L708.718,765.446C695.677,814.994 709.601,846.544 733.789,871.243C760.574,901.307 777.063,936.194 787.123,975.044C779.448,1000.14 775.545,1018.58 775.545,1044.83C772.928,1078.53 777.174,1098.15 777.761,1121.91L785.669,1235.52C744.774,1244.82 703.154,1242.78 661.359,1238L614.889,1233.81L549.709,1214.02C592.658,1196.74 634.238,1183.76 672.884,1179.98C703.457,1178.63 724.85,1183.72 742.463,1191.44L783.862,1209.55" style="fill:none;stroke:black;stroke-width:11.43px;"/>
        <path d="M709.815,1181.84L671.82,937.21" style="fill:none;stroke:black;stroke-width:11.43px;"/>
        <path d="M741.257,1184.75C741.257,1184.75 760.052,1056.13 758.296,1066.64C756.541,1077.15 756.47,1020.59 756.47,1020.59L746.997,979.665L734.785,934.318C718.898,915.902 714.637,897.289 716.718,878.569" style="fill:none;stroke:black;stroke-width:11.43px;"/>
        <path d="M776.949,1165.29L741.257,1184.75L776.949,1165.29Z" style="fill:none;stroke:black;stroke-width:11.43px;"/>
        <path d="M774.341,835.454C748.829,822.665 728.586,798.639 710.969,769.013" style="fill:none;stroke:black;stroke-width:11.43px;"/>
        <path d="M550.752,1213.79C582.994,1267.04 634.744,1281.6 688.493,1292.19L735.875,1311.17L789.883,1350.78L860.74,1407.66C886.279,1418.53 902.764,1433.16 915.298,1449.44" style="fill:none;stroke:black;stroke-width:11.43px;"/>
        <path d="M877.458,1416L908.082,1486.63L923.181,1491.49L940.974,1455.48L924.597,1395.91L936.039,1353.51C951.212,1337.22 950.096,1322.3 923.358,1309.52" style="fill:none;stroke:black;stroke-width:11.43px;"/>
        <path d="M848.949,1261.32L923.358,1309.52L848.949,1261.32Z" style="fill:none;stroke:black;stroke-width:11.43px;"/>
        <path d="M786.48,1237.18C808.151,1237.18 831.691,1248.21 848.949,1261.32" style="fill:none;stroke:black;stroke-width:11.43px;"/>
        <path d="M848.949,1261.32L827.47,1118.13L834.047,1012.85C864.182,1047.98 885.096,1096.95 899.392,1152.94C910.127,1190.56 913.86,1227.96 910.359,1265.14L909.671,1297.95L944.852,1321.16C938.796,1296.95 931.348,1263.32 911.223,1253.43" style="fill:none;stroke:black;stroke-width:11.43px;"/>
        <path d="M953.035,1233.72C959.742,1264.62 960.871,1297.46 949.012,1334.83" style="fill:none;stroke:black;stroke-width:11.43px;"/>
        <path d="M949.012,1334.83C937.746,1361.4 938.686,1378.93 953.035,1386.55" style="fill:none;stroke:black;stroke-width:11.43px;"/>
        <path d="M953.035,1386.55L1003.45,1318.18L1030.2,1298.28L1015.98,1280.39C1000.14,1270.01 989.995,1252.01 982.725,1230.15" style="fill:none;stroke:black;stroke-width:11.43px;"/>
        <path d="M1015.98,1280.39C1015.09,1228.9 1004.46,1187.8 992.469,1149.15C984.031,1117.07 971.023,1090.81 954.917,1068.48L899.576,1010.35L862.62,977.213L837.611,950.503C821.778,935.142 813.522,910.821 809.038,890.626" style="fill:none;stroke:black;stroke-width:11.43px;"/>
        <path d="M860.791,924.77C888.762,877.723 896.004,828.706 881.427,783.225" style="fill:none;stroke:black;stroke-width:11.43px;"/>
        <path d="M881.427,783.225C851.412,799.883 830.473,836.296 821.215,875.28" style="fill:none;stroke:black;stroke-width:11.43px;"/>
        <path d="M853.8,806.706L849.573,755.015" style="fill:none;stroke:black;stroke-width:11.43px;"/>
        <path d="M872.418,785.82L871.248,740.753" style="fill:none;stroke:black;stroke-width:11.43px;"/>
        <path d="M882.538,879.349L886.604,940.624" style="fill:none;stroke:black;stroke-width:11.43px;"/>
        <path d="M915.298,957.551L900.834,697.108" style="fill:none;stroke:black;stroke-width:11.43px;"/>
        <path d="M993.776,757.317C985.701,709.04 973.641,668.563 941.74,663.411C931.538,659.077 924.32,667.645 919.188,685.229L915.459,715.664L907.518,741.514" style="fill:none;stroke:black;stroke-width:11.43px;"/>
        <path d="M972.965,788.239C960.487,691.911 926.868,694.602 935.7,791.712L946.888,861.732L951.363,881.514" style="fill:none;stroke:black;stroke-width:11.43px;"/>
        <path d="M945.016,660.374L935.393,561.719" style="fill:none;stroke:black;stroke-width:11.43px;"/>
        <path d="M970.493,677.355L963.824,584.085L970.493,677.355Z" style="fill:none;stroke:black;stroke-width:11.43px;"/>
        <path d="M1027.25,630.611C999.095,734.938 973.363,845.737 958.866,955.768" style="fill:none;stroke:black;stroke-width:11.43px;"/>
        <path d="M1056.56,635.877C1029.22,721.089 1014.45,810.139 998.617,899.483" style="fill:none;stroke:black;stroke-width:11.43px;"/>
        <path d="M951.089,979.487C940.635,971.863 1027.09,856.457 1034.3,860.57L1071.53,819.813L1116.8,777.201L1160.83,740.746L1204.02,692.993" style="fill:none;stroke:black;stroke-width:11.43px;"/>
        <path d="M1193.44,661.045C1123.69,708.462 1055.46,751.143 1013.73,818.964" style="fill:none;stroke:black;stroke-width:11.43px;"/>
        <path d="M1089.65,731.642C1092.64,698.592 1109.99,667.951 1124.75,638.513" style="fill:none;stroke:black;stroke-width:11.43px;"/>
        <path d="M1052.13,766.067C1055.37,715.888 1075.09,674.984 1107.07,640.976" style="fill:none;stroke:black;stroke-width:11.43px;"/>
        <path d="M1035.73,784.372L1050.09,698.964L1071.16,641.028" style="fill:none;stroke:black;stroke-width:11.43px;"/>
        <path d="M962.915,992.898L1055.16,872.594L1104.49,805.535L1123.2,786.249L1185.12,739.89L1211.02,707.016" style="fill:none;stroke:black;stroke-width:11.43px;"/>
        <path d="M1185.12,739.89C1164.08,765.699 1143.43,791.739 1127.38,820.496C1124.51,837.034 1115.11,847.513 1109.28,858.674L1099.14,887.944L1070.83,918.42L1051.37,935.382L1046.62,954.368L1048.38,968.817L1031.48,985.418L1022.42,1015.69L1026.58,1028.19L1006.23,1044.1L985.423,1077.81L979.124,1109.61" style="fill:none;stroke:black;stroke-width:11.43px;"/>
        <path d="M1026.58,1028.19L1078.45,961.644L1130.39,912.886L1167.45,880.853L1187.93,858.719L1211.42,833.715L1228.06,794.714L1241.63,743.927" style="fill:none;stroke:black;stroke-width:11.43px;"/>
        <path d="M1211.42,833.715L1193.04,877.491L1153.67,936.728L1125.18,994.179L1091.14,1053.17L1059.66,1112.35L1038.87,1156.74L1012.84,1219.64C1034.74,1198.12 1053.68,1175.31 1066.76,1149.98L1084.23,1116.36L1101.47,1091.72L1122.73,1059.08L1136.5,1028.47L1155.02,993.027L1172.5,961.786L1213.39,904.949L1243.59,853.835L1264.98,817.774C1279.38,806.845 1283.85,795.202 1284.6,785.659" style="fill:none;stroke:black;stroke-width:11.43px;"/>
        <path d="M1301.77,785.996C1320.95,810.993 1306.39,843.977 1280.02,879.757" style="fill:none;stroke:black;stroke-width:11.43px;"/>
        <path d="M1280.02,879.757L1223.78,937.823L1185.77,977.416L1146.02,1021.39L1133.44,1047.87L1124.28,1081.47L1111.62,1115.26L1096.09,1146.43L1075.8,1169.43L1058.44,1195.78L1048.84,1213.35L1015.96,1232.32" style="fill:none;stroke:black;stroke-width:11.43px;"/>
        <path d="M1048.84,1213.35L1025.43,1287.04" style="fill:none;stroke:black;stroke-width:11.43px;"/>
        <path d="M1130.03,1081.01C1157.58,1068.01 1173.18,1046.31 1179.65,1013.22" style="fill:none;stroke:black;stroke-width:11.43px;"/>
        <path d="M1156.36,1012.19L1194.13,981.686C1213.46,1000.55 1217.75,1022.15 1222.92,1043.59C1233.18,1058.65 1221.14,1078.62 1199.37,1100.73" style="fill:none;stroke:black;stroke-width:11.43px;"/>
        <path d="M1199.37,1100.73L1189.34,1138.85L1181.64,1189.97L1148.6,1234.91C1144.45,1259.76 1129.6,1278.33 1107.55,1292.67" style="fill:none;stroke:black;stroke-width:11.43px;"/>
        <path d="M1199.37,1100.73L1173.58,1146.53C1155.95,1158.05 1142.19,1173.88 1133.05,1194.85C1121.14,1212.87 1107.03,1223.01 1091.56,1228.3" style="fill:none;stroke:black;stroke-width:11.43px;"/>
        <path d="M1104.87,1293.49C1064.69,1311.46 1045.18,1343.2 1029.31,1383.02" style="fill:none;stroke:black;stroke-width:11.43px;"/>
        <path d="M1227.33,1030.82C1225.14,1028.69 1274.27,985.972 1274.27,985.972L1295.45,924.212L1310.32,887.314L1321.28,852.189L1334.56,818.921L1341.33,801.108" style="fill:none;stroke:black;stroke-width:11.43px;"/>
        <path d="M1013.05,1316.15L972.993,1464.6C976.377,1483.2 987.593,1486.95 1002.77,1483.19L1013.11,1454.68L1036.4,1425.48L1062.25,1384.92L1103.09,1297.49" style="fill:none;stroke:black;stroke-width:11.43px;"/>
        <path d="M1002.77,1483.19L983.154,1527.9L947.154,1553.34L977.827,1478.92" style="fill:none;stroke:black;stroke-width:11.43px;"/>
        <path d="M966.648,1370.66L972.348,1492.21" style="fill:none;stroke:black;stroke-width:11.43px;"/>
        <path d="M949.655,1532.84C949.655,1532.84 932.487,1376.53 931.912,1370.62" style="fill:none;stroke:black;stroke-width:11.43px;"/>
        <path d="M908.029,1487.42L900.539,1567.44L924.109,1563.73L930.961,1474.18" style="fill:none;stroke:black;stroke-width:11.43px;"/>
        <path d="M906.538,1503.35C904.04,1501.58 858.85,1575.92 858.85,1575.92C857.618,1525.41 864.003,1473.52 876.643,1420.5L894.962,1457.96L860.21,1523.55" style="fill:none;stroke:black;stroke-width:11.43px;"/>
        <path d="M851.422,1406.24L831.366,1577.93L831.666,1412.86L844.045,1399.15L831.666,1412.86L814.948,1414.61L799.655,1361.1" style="fill:none;stroke:black;stroke-width:11.43px;"/>
        <path d="M814.948,1414.61L809.796,1579.05" style="fill:none;stroke:black;stroke-width:11.43px;"/>
    </g>
    <g id="Слой3">
        <path d="M1033.81,1434.61C1007.99,1546.16 920.607,1590.08 789.621,1586.1C690.322,1578.06 634.027,1542.31 630.715,1431.56" style="fill:none;stroke:black;stroke-width:15.24px;"/>
        <path d="M606.622,1398.59C592.484,1404.84 585.832,1413.74 583.382,1424.13L586.392,1436.04L600.735,1440.9L608.497,1451.57" style="fill:none;stroke:black;stroke-width:15.24px;"/>
        <path d="M577.912,1350.76C568.145,1358.24 564.456,1368.25 565.803,1380.36C558.982,1387.14 551.946,1389.72 544.808,1390.29C532.804,1400.34 531.167,1412.91 534.358,1426.67L538.968,1440.9C522.082,1461.86 523.787,1481.39 542.921,1499.56C559.155,1499.56 572.476,1496.72 575.99,1484.31" style="fill:none;stroke:black;stroke-width:15.24px;"/>
        <path d="M544.951,1488.98C547.639,1473.49 556.271,1463.41 572.335,1460.08" style="fill:none;stroke:black;stroke-width:15.24px;"/>
        <path d="M572.335,1460.08C576.854,1453.53 606.141,1468.54 603.35,1472.18L651.61,1525.32" style="fill:none;stroke:black;stroke-width:15.24px;"/>
        <path d="M569.959,1471.57L579.357,1480.4C576.477,1503.65 593.065,1521.39 609.919,1540.95C663.538,1587.73 715.761,1611.06 766.905,1616.24C827.261,1623.09 884.829,1621.7 932.543,1598.34C979.712,1579.01 1013.64,1549.57 1039.88,1517.72L1082.47,1442.79L1099.53,1399.57L1097.04,1352.73" style="fill:none;stroke:black;stroke-width:15.24px;"/>
        <path d="M1088.01,1339.37L1097.04,1352.73L1088.01,1339.37Z" style="fill:none;stroke:black;stroke-width:15.24px;"/>
        <path d="M608.128,1539.36C569.774,1610.13 558.008,1680.27 571.309,1749.82" style="fill:none;stroke:black;stroke-width:15.24px;"/>
        <path d="M1085.11,1447.08C1106.76,1456.59 1124.1,1439.23 1140.23,1414.34C1153.92,1401.66 1165.05,1392.99 1174.17,1387.44L1199.82,1381.07L1244.57,1369.54L1275.61,1369.39C1319.99,1372.25 1352.91,1385.73 1374.74,1409.5L1412.52,1460.34" style="fill:none;stroke:black;stroke-width:15.24px;"/>
        <path d="M1374.74,1409.5L1362.15,1397.88C1361.88,1437.44 1353.59,1475.06 1303.5,1502.51C1269.08,1518.93 1234.66,1522.95 1200.25,1522.97L1183.63,1516.36L1176.42,1526.11C1162.12,1492 1140.53,1463.85 1107.68,1448.71" style="fill:none;stroke:black;stroke-width:15.24px;"/>
        <path d="M1176.42,1526.11L1245.9,1747.07L1279.29,1685.22L1319.82,1639.61L1369.53,1578.56L1405.13,1529.25C1419.65,1510.22 1431.54,1489.97 1437.22,1466.89C1448.79,1413.79 1432.89,1358.24 1390.55,1328.47C1360.65,1303.67 1326.92,1293.54 1285.54,1278.1C1252.96,1270.93 1220.02,1269.65 1186.64,1275.4C1161.55,1278.56 1135.04,1285.59 1107.08,1296.58" style="fill:none;stroke:black;stroke-width:15.24px;"/>
    </g>
</svg>
