<?xml version="1.0" encoding="UTF-8" standalone="no"?><!DOCTYPE svg PUBLIC "-//W3C//DTD SVG 1.1//EN" "http://www.w3.org/Graphics/SVG/1.1/DTD/svg11.dtd"><svg width="100%" height="100%" viewBox="0 0 420 420" version="1.1" xmlns="http://www.w3.org/2000/svg" xmlns:xlink="http://www.w3.org/1999/xlink" xml:space="preserve" xmlns:serif="http://www.serif.com/" style="fill-rule:evenodd;clip-rule:evenodd;stroke-linejoin:round;stroke-miterlimit:2;"><rect id="Záchod" x="-0" y="0" width="419.528" height="419.528" style="fill:none;"/><g><g><path d="M283.989,306.308l-0.053,0.067c-0.237,0.306 -0.549,1.124 -0.761,2.21c-0.344,1.766 -0.634,4.446 -0.87,5.402c-1.116,4.514 -2.215,9.033 -3.254,13.566c-1.253,5.466 -1.383,12.529 -3.573,17.699c-0.164,0.386 -0.451,0.534 -0.745,0.651c-0.423,0.168 -0.872,0.283 -1.298,0.449c-0.644,0.251 -1.24,0.597 -1.737,1.156c-0.662,0.745 -1.206,1.922 -1.202,4.056c0.001,0.359 -0.096,1.085 -0.042,1.636c0.054,0.556 0.246,1.013 0.492,1.317c1.475,1.82 4.479,3.225 6.387,4.501c20.185,13.508 50.327,15.321 72.688,6.467c11.554,-4.574 23.412,-14.17 27.674,-26.321c0.278,-0.793 0.518,-1.599 0.745,-2.408c0.51,-1.818 0.144,-2.846 -0.346,-3.433c-0.423,-0.508 -1.034,-0.819 -1.803,-0.921c-0.613,-0.08 -1.378,-0.008 -2.128,0.035c-0.232,0.013 -0.462,0.022 -0.679,0.009c-0.098,-0.006 -0.249,-0.038 -0.315,-0.053c-0.332,-0.647 -0.357,-1.673 -0.344,-2.774c0.024,-2.167 0.365,-4.594 0.368,-5.946c0.017,-9.066 0.229,-18.131 -0.001,-27.197c-0.258,-10.151 -1.16,-17.421 -5.665,-23.019c-3.021,-3.756 -7.676,-6.793 -14.96,-9.375c-9.86,-3.494 -25.909,-1.995 -31.366,0.499c-5.596,2.557 -8.469,6.969 -10.797,11.869c-2.128,4.479 -3.773,9.381 -7.059,13.358c-2.451,2.965 -6.656,4.831 -10.432,7.02c-4.133,2.395 -7.754,5.167 -8.924,9.48Zm91.668,29.093c-0.022,0.165 -0.056,0.368 -0.106,0.545c-0.209,0.747 -0.43,1.492 -0.687,2.225c-3.984,11.36 -15.147,20.249 -25.947,24.525c-21.507,8.516 -50.502,6.82 -69.916,-6.171c-1.62,-1.084 -4.191,-2.187 -5.552,-3.697c0.014,-0.284 0.048,-1.026 0.047,-1.271c-0.002,-1.01 0.108,-1.629 0.407,-2.012c0.207,-0.264 0.5,-0.358 0.784,-0.458c0.383,-0.135 0.776,-0.247 1.151,-0.395c0.983,-0.39 1.857,-0.982 2.402,-2.269c2.253,-5.321 2.446,-12.576 3.735,-18.2c1.035,-4.516 2.131,-9.019 3.242,-13.516c0.286,-1.158 0.645,-4.86 1.087,-6.363c0.239,-0.211 0.408,-0.496 0.476,-0.815c0.809,-3.827 4.088,-6.048 7.637,-8.106c4.093,-2.372 8.584,-4.491 11.24,-7.704c3.447,-4.171 5.225,-9.284 7.457,-13.981c2.031,-4.275 4.453,-8.198 9.334,-10.428c5.065,-2.315 19.964,-3.644 29.117,-0.4c6.61,2.342 10.883,5.019 13.625,8.427c4.142,5.147 4.766,11.881 5.003,21.215c0.229,9.039 0.017,18.076 -0,27.116c-0.003,1.345 -0.344,3.76 -0.368,5.917c-0.02,1.749 0.203,3.346 0.761,4.337c0.63,1.119 1.801,1.54 3.19,1.53c0.54,-0.004 1.415,-0.034 1.881,-0.051Zm-90.378,-26.684l0.002,0l-0.008,0l0.006,0Zm-0.02,-0c-0.22,0 -0.441,-0.06 -0.663,-0.181c0.207,0.112 0.434,0.173 0.663,0.181Z"/><path d="M294.186,343.349c0.712,0.242 1.494,-0.08 1.828,-0.754c0.334,-0.673 0.117,-1.491 -0.507,-1.91c-1.309,-0.881 -1.281,-2.319 -1.486,-3.679c-0.334,-2.219 -0.898,-4.359 -3.558,-5.719c-1.934,-0.99 -3.377,-0.745 -4.373,-0.066c-0.917,0.625 -1.53,1.737 -1.734,3.072c-0.254,1.666 0.132,3.669 1.004,5.033c1.301,2.037 2.872,2.794 4.596,3.192c1.329,0.308 2.773,0.335 4.23,0.831Zm-2.705,-3.591c-0.034,-0.006 -0.068,-0.011 -0.101,-0.017c-1.308,-0.219 -2.535,-0.532 -3.492,-2.029c-0.365,-0.573 -0.566,-1.342 -0.605,-2.089c-0.026,-0.499 0.019,-0.991 0.167,-1.405c0.08,-0.223 0.172,-0.431 0.355,-0.534c0.311,-0.175 0.721,-0.018 1.292,0.273c1.06,0.543 1.48,1.335 1.707,2.19c0.206,0.775 0.283,1.594 0.415,2.387c0.069,0.417 0.153,0.826 0.262,1.224l-0,-0Z"/><path d="M299.586,333.766c0.007,-0.043 0.042,-0.231 0.081,-0.347c0.129,-0.378 0.345,-0.799 0.6,-1.251c0.953,-1.693 2.381,-3.71 3.013,-5.444c0.507,-1.391 0.526,-2.661 -0.012,-3.662c-0.52,-0.966 -1.613,-1.833 -3.763,-2.141c-1.785,-0.257 -3.031,0.206 -3.893,0.998c-0.83,0.761 -1.329,1.898 -1.485,3.262c-0.375,3.265 1.292,7.963 2.679,9.735c0.257,0.328 0.782,0.67 1.243,0.694c0.482,0.025 0.946,-0.183 1.248,-0.559c0.29,-0.362 0.396,-0.836 0.289,-1.285Zm-1.746,-3.378c-0.542,-1.556 -0.901,-3.398 -0.733,-4.865c0.065,-0.568 0.188,-1.077 0.533,-1.394c0.313,-0.287 0.791,-0.332 1.439,-0.239c0.442,0.063 0.805,0.153 1.098,0.277c0.21,0.089 0.372,0.174 0.449,0.316c0.108,0.201 0.05,0.445 -0.012,0.71c-0.126,0.547 -0.401,1.137 -0.726,1.748c-0.616,1.154 -1.408,2.353 -2.048,3.447Z"/><path d="M299.195,343.805c-0.044,0.802 0.551,1.496 1.35,1.574c0.799,0.079 1.518,-0.485 1.632,-1.279c0.132,-0.919 0.774,-1.299 1.481,-1.591c0.77,-0.319 1.631,-0.532 2.421,-0.815c1.901,-0.679 3.414,-1.723 3.688,-4.051c0.261,-2.212 -0.822,-3.879 -2.303,-4.634c-1.494,-0.762 -3.476,-0.649 -5.097,0.935c-2.419,2.362 -2.997,6.643 -3.172,9.861Zm3.49,-4.138c0.314,-1.377 0.845,-2.666 1.777,-3.576c0.529,-0.517 1.152,-0.657 1.64,-0.409c0.501,0.255 0.774,0.862 0.686,1.61c-0.1,0.847 -0.711,1.177 -1.378,1.448c-0.768,0.311 -1.633,0.526 -2.435,0.817c-0.097,0.035 -0.194,0.072 -0.29,0.11l-0,-0Z"/><path d="M282.674,314.013c1.067,1.865 2.253,2.749 3.417,3.07c1.7,0.467 3.584,-0.282 5.545,-1.796c1.874,-1.446 3.917,-3.576 6.177,-5.127c1.898,-1.301 3.955,-2.211 6.248,-1.491c5.606,1.758 6.22,6.279 7.67,10.53c0.874,2.561 1.978,5.062 4.084,7.116c2.104,2.051 5.216,3.685 10.204,4.39c6.275,0.887 12.626,-0.233 18.48,-2.536c5.242,-2.061 9.924,-5.234 13.563,-9.56c7.794,-9.267 9.644,-18.757 7.431,-26.908c-3.302,-12.158 -15.787,-21.474 -31.791,-22.642c-3.205,-0.234 -8.004,-0.646 -12.332,-0.134c-3.125,0.37 -6.005,1.237 -8.014,2.865c-0.643,0.521 -0.742,1.466 -0.221,2.109c0.521,0.644 1.467,0.743 2.11,0.222c1.616,-1.309 3.964,-1.919 6.477,-2.216c4.128,-0.489 8.705,-0.077 11.762,0.146c14.585,1.064 26.104,9.355 29.114,20.436c1.993,7.34 0.187,15.846 -6.832,24.191c-3.315,3.942 -7.589,6.821 -12.365,8.699c-5.375,2.114 -11.201,3.172 -16.962,2.358c-3.992,-0.564 -6.575,-1.764 -8.325,-3.375c-2.685,-2.471 -3.424,-5.826 -4.459,-8.928c-1.382,-4.139 -3.17,-7.892 -8.696,-9.626c-2.726,-0.855 -5.246,-0.237 -7.574,1.084c-2.053,1.164 -3.951,2.894 -5.705,4.442c-1.091,0.963 -2.115,1.851 -3.095,2.414c-0.628,0.36 -1.201,0.619 -1.768,0.422c-0.557,-0.193 -1.026,-0.747 -1.539,-1.644c-0.411,-0.719 -1.328,-0.969 -2.046,-0.558c-0.719,0.411 -0.969,1.329 -0.558,2.047Z"/><path d="M310.171,311.633c0.196,0.122 0.387,0.305 0.585,0.49c0.779,0.726 1.488,1.682 1.984,2.232c2.673,2.966 5.043,6.019 9.077,7.102c5.063,1.36 12.96,0.706 18.006,-2.556c3.639,-2.353 5.884,-5.979 4.956,-11.06c-1.063,-5.816 -6.229,-9.282 -12.869,-10.958c-9.285,-2.344 -21.387,-1.256 -27.209,0.517c-2.202,0.67 -6.838,2.681 -9.638,5.463c-2.215,2.2 -3.304,4.856 -2.064,7.695c0.332,0.759 1.217,1.105 1.975,0.774c0.759,-0.331 1.106,-1.216 0.774,-1.975c-0.714,-1.637 0.152,-3.097 1.429,-4.366c2.435,-2.419 6.483,-4.139 8.398,-4.721c5.478,-1.668 16.864,-2.684 25.601,-0.478c5.375,1.357 9.791,3.88 10.651,8.589c0.854,4.674 -2.067,7.599 -5.941,9.194c-4.234,1.743 -9.619,1.971 -13.291,0.985c-3.442,-0.925 -5.345,-3.682 -7.627,-6.213c-0.539,-0.598 -1.319,-1.629 -2.167,-2.419c-0.776,-0.723 -1.628,-1.24 -2.423,-1.386c-0.215,-0.04 -0.63,-0.03 -0.968,0.114c-0.371,0.157 -0.638,0.435 -0.782,0.692c-0.16,0.285 -0.223,0.593 -0.189,0.915c0.032,0.3 0.138,0.669 0.528,1.012c0.343,0.302 0.785,0.418 1.204,0.358Zm0.839,-2.553c0.142,0.139 0.251,0.301 0.325,0.475c-0.062,-0.158 -0.163,-0.319 -0.325,-0.475Z"/><path d="M312.699,311.119c0.681,-0.154 1.378,-0.243 2.069,-0.345c1.878,-0.28 3.774,-0.473 5.675,-0.457c2.88,0.024 8.292,0.643 12.078,2.663c2.124,1.133 3.754,2.703 3.632,5.059c-0.043,0.827 0.594,1.533 1.42,1.576c0.827,0.043 1.533,-0.593 1.576,-1.42c0.185,-3.569 -1.999,-6.145 -5.216,-7.862c-4.224,-2.253 -10.251,-2.989 -13.465,-3.016c-2.057,-0.017 -4.109,0.187 -6.142,0.489c-1.014,0.151 -2.036,0.288 -3.023,0.576c-0.424,0.124 -0.805,0.406 -0.999,0.937c-0.094,0.259 -0.104,0.852 0.04,1.196c0.499,1.196 1.683,1.011 2.144,0.749c0.075,-0.042 0.146,-0.091 0.211,-0.145Zm0.294,-1.995c-0.335,-0.564 -0.864,-0.699 -1.315,-0.663c0.511,-0.023 1.017,0.216 1.315,0.663Zm-1.938,-0.494c-0.016,0.008 -0.032,0.016 -0.046,0.024l0.046,-0.024Z"/><path d="M272.283,348.534c0.858,2.421 3.171,4.638 6.277,6.524c6.552,3.977 16.669,6.668 21.214,8.064c14.912,4.581 35.868,2.81 52.019,-5.155c10.926,-5.388 19.642,-13.6 22.974,-24.494c0.242,-0.791 -0.204,-1.631 -0.995,-1.873c-0.792,-0.242 -1.631,0.204 -1.874,0.996c-3.096,10.123 -11.279,17.674 -21.432,22.681c-15.466,7.627 -35.53,9.365 -49.811,4.978c-3.785,-1.163 -11.556,-3.227 -17.708,-6.229c-3.738,-1.825 -6.921,-3.91 -7.836,-6.493c-0.276,-0.781 -1.134,-1.19 -1.915,-0.913c-0.78,0.276 -1.189,1.134 -0.913,1.914Z"/><path d="M282.741,346.002c-0.454,-0.454 -1.17,-0.58 -1.766,-0.261c-0.401,0.214 -0.635,0.535 -0.742,0.932c-0.038,0.139 -0.248,0.953 0.555,1.614c0.441,0.363 2.971,2.018 3.184,2.137c2.305,1.294 4.71,2.449 7.184,3.385c6.923,2.618 14.635,4.674 22.064,5.06c0.826,0.042 1.533,-0.594 1.575,-1.421c0.043,-0.826 -0.593,-1.532 -1.42,-1.575c-7.124,-0.37 -14.518,-2.359 -21.157,-4.87c-2.334,-0.883 -4.603,-1.975 -6.778,-3.195c-0.169,-0.095 -2.348,-1.569 -2.699,-1.806Zm0.349,1.576c-0.122,0.335 -0.363,0.628 -0.701,0.809c0.358,-0.192 0.582,-0.469 0.701,-0.809Zm0.017,-0.05l-0.004,0.012l0.003,-0.008l0.001,-0.004Z"/></g><g><path d="M147.946,186.257c-0.324,-0.226 -0.968,-0.684 -1.193,-0.91c-0.853,-0.855 -1.677,-1.74 -2.491,-2.627c-2.709,-2.955 -5.136,-6.096 -7.372,-9.378c-6.666,-9.783 -10.872,-20.435 -12.532,-31.952c-2.509,-17.401 2.343,-43.126 14.566,-61.924c8.038,-12.361 19.279,-21.734 33.804,-23.56c8.239,-1.036 15.505,1.19 22.226,5.54c23.97,15.517 26.089,45.617 25.074,70.535c-0.39,9.574 -1.435,19.221 -3.993,28.527c-0.844,3.073 -1.765,6.125 -2.784,9.153c-0.499,1.484 -0.951,2.984 -1.305,4.502l-0.011,0.054c-0.048,0.154 -0.071,0.319 -0.065,0.489c0.026,0.804 0.491,1.079 0.596,1.158c0.254,0.192 0.523,0.28 0.796,0.299c0.331,0.025 1.021,0.004 1.441,-0.806c0.025,-0.047 0.133,-0.38 0.164,-0.513c0.333,-1.426 0.759,-2.833 1.228,-4.226c1.036,-3.082 1.974,-6.187 2.833,-9.315c2.619,-9.526 3.698,-19.399 4.097,-29.2c1.056,-25.899 -1.528,-57.048 -26.441,-73.175c-7.324,-4.741 -15.252,-7.128 -24.23,-5.999c-15.415,1.938 -27.415,11.784 -35.945,24.902c-12.629,19.422 -17.613,46.008 -15.021,63.987c1.726,11.971 6.094,23.045 13.023,33.214c2.317,3.4 4.833,6.653 7.639,9.715c0.843,0.918 1.696,1.834 2.578,2.719c0.439,0.44 1.78,1.385 1.978,1.503c0.968,0.573 1.693,-0.082 1.768,-0.147c0.042,-0.036 1.169,-1.399 -0.185,-2.416c-0.077,-0.059 -0.159,-0.109 -0.243,-0.149Zm66.851,-12.057c0.034,0.103 0.056,0.212 0.066,0.323c-0.012,-0.141 -0.039,-0.246 -0.066,-0.323Zm-0.686,-0.846c0.201,0.114 0.373,0.274 0.502,0.466c-0.148,-0.23 -0.327,-0.374 -0.502,-0.466Zm-0.728,-0.197l-0.064,0.001c-0.413,0.013 -0.781,0.193 -1.043,0.472c0.35,-0.407 0.767,-0.492 1.107,-0.473Z"/><path d="M214.557,173.39c-10.234,1.28 -48.22,8.385 -56.815,10.498c-3.119,0.767 -5.539,1.674 -7.202,2.742c-1.321,0.85 -2.207,1.823 -2.689,2.887c-0.637,1.404 -0.63,3.007 0.217,4.846c0.688,1.494 1.982,3.198 3.966,5.118c1.856,1.796 3.89,3.442 5.96,4.982c3.326,2.474 6.799,4.689 10.409,6.725c5.894,3.323 12.178,5.985 18.749,7.622c25.25,6.288 50.372,6.492 75.284,-0.05c6.508,-1.709 13.445,-6.15 16.275,-9.818c3.316,-4.297 3.132,-9.898 -1.816,-15.586c-6.65,-7.644 -22.48,-15.629 -50.284,-20.167c-3.666,-0.598 -7.523,-0.365 -12.054,0.201l0,0Zm0.372,2.977c4.21,-0.526 7.793,-0.773 11.198,-0.217c26.768,4.368 42.103,11.817 48.505,19.175c3.754,4.316 4.22,8.524 1.704,11.784c-2.543,3.295 -8.816,7.214 -14.662,8.749c-24.42,6.414 -49.046,6.204 -73.797,0.04c-6.309,-1.571 -12.341,-4.132 -18,-7.323c-3.5,-1.974 -6.868,-4.121 -10.092,-6.519c-1.967,-1.463 -3.901,-3.025 -5.665,-4.731c-1.646,-1.593 -2.756,-2.978 -3.327,-4.218c-0.413,-0.895 -0.52,-1.668 -0.21,-2.351c0.359,-0.793 1.17,-1.424 2.305,-2.023c1.407,-0.742 3.279,-1.369 5.57,-1.932c8.543,-2.1 46.299,-9.162 56.471,-10.434l0,-0Z"/><path d="M151.067,186.2c-0.96,0.115 -1.816,0.601 -2.529,1.413c-0.806,0.92 -1.437,2.318 -1.827,3.934c-0.532,2.204 -0.638,4.821 -0.327,6.954c0.236,1.618 0.735,2.972 1.392,3.799c5.811,7.316 15.432,13.487 23.795,17.294c21.947,9.99 69.592,14.609 93.949,5.136c11.1,-4.317 17.472,-11.518 15.376,-22.087c-0.161,-0.812 -0.951,-1.341 -1.763,-1.18c-0.812,0.161 -1.341,0.951 -1.18,1.764c1.798,9.064 -4,15.005 -13.521,18.707c-23.754,9.239 -70.215,4.672 -91.619,-5.071c-7.964,-3.625 -17.154,-9.462 -22.688,-16.429c-0.404,-0.508 -0.628,-1.371 -0.773,-2.366c-0.26,-1.785 -0.169,-3.974 0.275,-5.817c0.224,-0.928 0.532,-1.766 0.955,-2.384c0.24,-0.352 0.489,-0.646 0.844,-0.689c0.822,-0.099 1.409,-0.847 1.309,-1.669c-0.099,-0.822 -0.846,-1.408 -1.668,-1.309Z"/><path d="M216.837,181.773c-10.986,0.695 -26.296,2.819 -36.477,6.339c-5.317,1.838 -8.118,4.541 -8.56,7.332c-0.446,2.821 1.41,6.151 6.341,9.276c2.055,1.302 4.194,2.534 6.397,3.569c3.295,1.548 6.874,2.651 10.38,3.631c21.676,6.063 46.495,1.826 57.643,-2.496c1.465,-0.568 4.241,-1.349 6.562,-2.764c1.784,-1.087 3.294,-2.54 3.999,-4.443c0.75,-2.024 0.65,-4.619 -1.26,-7.936c-0.366,-0.637 -1.134,-1.394 -2.299,-2.163c-1.426,-0.942 -3.513,-1.983 -6.053,-3.026c-9.627,-3.953 -25.902,-8.002 -36.673,-7.319l0,-0Zm0.19,2.994c10.383,-0.658 26.063,3.29 35.344,7.1c2.322,0.954 4.235,1.893 5.54,2.755c0.656,0.433 1.145,0.797 1.352,1.156c1.306,2.269 1.559,4.012 1.046,5.396c-0.511,1.38 -1.72,2.34 -3.034,3.094c-2.09,1.198 -4.502,1.857 -5.798,2.359c-10.782,4.18 -34.787,8.268 -55.751,2.404c-3.347,-0.936 -6.767,-1.98 -9.912,-3.458c-2.09,-0.981 -4.118,-2.152 -6.068,-3.387c-1.91,-1.211 -3.292,-2.407 -4.139,-3.591c-0.667,-0.931 -0.979,-1.823 -0.843,-2.683c0.14,-0.888 0.735,-1.693 1.669,-2.456c1.159,-0.946 2.807,-1.783 4.907,-2.509c9.959,-3.444 24.94,-5.5 35.687,-6.18l-0,-0Z"/><path d="M278.298,207.868c-0.667,5.157 -2.627,33.122 -33.627,48.084c-23.754,11.465 -48.19,5.067 -70.421,-6.107c-8.424,-4.234 -16.132,-9.85 -25.067,-13.028c-0.78,-0.278 -1.639,0.13 -1.916,0.91c-0.278,0.78 0.13,1.639 0.91,1.916c8.818,3.137 16.412,8.704 24.726,12.883c23.063,11.591 48.43,18.021 73.072,6.128c32.509,-15.691 34.599,-44.993 35.298,-50.402c0.106,-0.821 -0.474,-1.573 -1.295,-1.68c-0.821,-0.106 -1.574,0.475 -1.68,1.296Z"/><path d="M119.94,304.392c-0.02,-0.073 -0.114,-0.416 -0.155,-0.681c-0.129,-0.847 -0.185,-2.031 -0.202,-3.399c-0.067,-5.662 0.583,-14.282 0.502,-16.238c-0.822,-19.717 -0.178,-39.766 -2.483,-59.365c-0.799,-6.789 -3.049,-10.035 -5.785,-12.973c-2.475,-2.658 -5.42,-5.016 -7.946,-10.02c-3.171,-6.283 -1.993,-14.067 -1.993,-20.857c-0,-0.828 -0.672,-1.5 -1.5,-1.5c-0.828,-0 -1.5,0.672 -1.5,1.5c-0,7.236 -1.064,15.512 2.315,22.208c2.175,4.311 4.617,6.816 6.875,9.108c3.044,3.09 5.715,5.753 6.554,12.884c2.297,19.525 1.647,39.497 2.465,59.14c0.081,1.946 -0.57,10.518 -0.503,16.148c0.021,1.816 0.122,3.346 0.324,4.315c0.135,0.645 0.339,1.116 0.543,1.407c1.502,2.145 4.686,4.556 8.668,6.909c8.829,5.219 21.619,10.351 26.927,12.45c8.948,3.537 18.265,6.385 27.618,8.633c9.496,2.282 30.706,5.107 46.364,2.896c7.001,-0.989 12.908,-3.023 16.364,-6.405c0.522,-0.51 0.935,-1.257 1.193,-2.217c0.297,-1.103 0.405,-2.54 0.363,-4.159c-0.146,-5.659 -2.115,-13.774 -2.239,-16.158c-0.645,-12.385 -0.265,-37.585 5.371,-48.484c0.38,-0.736 0.092,-1.641 -0.643,-2.022c-0.736,-0.38 -1.642,-0.092 -2.022,0.644c-5.816,11.248 -6.367,37.237 -5.702,50.018c0.123,2.373 2.091,10.448 2.236,16.079c0.028,1.09 -0.013,2.078 -0.168,2.892c-0.104,0.545 -0.218,0.999 -0.488,1.263c-4.167,4.079 -12.361,5.736 -21.469,6.213c-14.146,0.74 -30.507,-1.566 -38.459,-3.477c-9.217,-2.215 -18.399,-5.02 -27.216,-8.506c-5.224,-2.065 -17.815,-7.106 -26.504,-12.243c-3.499,-2.068 -6.361,-4.114 -7.705,-6.003Z"/><path d="M90.686,76.029c-0.025,0.407 -0.224,3.627 -0.558,7.54c-1.657,19.452 -5.477,69.066 7.068,94.159c4.849,9.699 15.483,12.162 25.15,12.93c7.952,0.632 15.379,-1.588 23.149,-2.559c0.821,-0.103 1.405,-0.853 1.302,-1.674c-0.103,-0.822 -0.853,-1.405 -1.674,-1.303c-7.567,0.946 -14.795,3.161 -22.539,2.545c-8.667,-0.688 -18.357,-2.585 -22.704,-11.28c-12.331,-24.664 -8.392,-73.443 -6.762,-92.563c0.334,-3.921 0.573,-6.626 0.575,-7.673c0.001,-0.744 -0.211,-1.165 -0.302,-1.301c-0.463,-0.686 -1.395,-0.868 -2.082,-0.406c-0.531,0.358 -0.76,0.996 -0.623,1.585Z"/><path d="M110.292,171.961c2.76,-6.845 3.364,-14.494 4.028,-21.771c1.697,-18.605 1.66,-33.839 1.66,-52.393c-0,-0.828 -0.672,-1.5 -1.5,-1.5c-0.828,0 -1.5,0.672 -1.5,1.5c-0,18.457 0.04,33.612 -1.648,52.121c-0.637,6.99 -1.172,14.346 -3.823,20.921c-0.309,0.767 0.063,1.642 0.831,1.952c0.767,0.309 1.642,-0.063 1.952,-0.83Z"/><path d="M93.659,77.127c0.027,-0.27 0.093,-0.932 0.101,-1.031c0.445,-5.461 5.612,-10.375 11.397,-11.621c20.412,-4.398 45.601,-6.83 65.435,-8.706c0.825,-0.078 1.43,-0.811 1.352,-1.635c-0.078,-0.824 -0.81,-1.43 -1.634,-1.352c-19.941,1.887 -45.263,4.339 -65.785,8.76c-7.054,1.519 -13.212,7.65 -13.755,14.31c-0.017,0.211 -0.177,1.363 -0.077,1.914c0.125,0.681 0.516,1.074 0.867,1.266c0.727,0.398 1.639,0.131 2.036,-0.595c0.23,-0.42 0.238,-0.902 0.063,-1.31Z"/><path d="M170.724,55.75c1.215,-0.225 20.274,-0.494 28.273,0.022c2.465,0.16 4.773,1.477 6.901,3.269c3.477,2.928 6.445,7.139 8.676,10.426c0.847,1.249 1.219,2.856 0.495,3.953c-0.464,0.702 -1.381,1.07 -2.759,1.07c-0.828,0 -1.5,0.673 -1.5,1.5c-0,0.828 0.672,1.5 1.5,1.5c2.698,0 4.356,-1.044 5.262,-2.417c1.33,-2.013 1.038,-5 -0.516,-7.29c-2.366,-3.487 -5.538,-7.932 -9.226,-11.037c-2.649,-2.23 -5.571,-3.769 -8.64,-3.967c-8.208,-0.53 -27.765,-0.209 -29.012,0.022c-0.814,0.15 -1.353,0.934 -1.202,1.748c0.151,0.814 0.934,1.352 1.748,1.201Z"/><path d="M215.571,73.223c0.187,1.224 0.153,5.193 -0.308,7.663c-0.087,0.462 -0.284,1.044 -0.351,1.233c-0.539,0.406 -0.753,1.142 -0.476,1.789c0.326,0.761 1.209,1.114 1.97,0.788c0.487,-0.209 1.049,-0.75 1.401,-1.706c0.419,-1.137 0.683,-3.12 0.793,-5.083c0.123,-2.188 0.066,-4.345 -0.074,-5.2c-0.135,-0.833 -0.57,-1.23 -0.748,-1.352c-0.684,-0.466 -1.618,-0.29 -2.085,0.393c-0.308,0.452 -0.336,1.012 -0.122,1.475Z"/><path d="M90.766,87.172c1.164,2.738 4.062,5.411 6.546,6.988c8.764,5.563 22.863,4.534 32.438,2.182c0.804,-0.197 1.297,-1.01 1.099,-1.814c-0.197,-0.804 -1.01,-1.297 -1.814,-1.099c-8.886,2.182 -21.983,3.361 -30.115,-1.802c-2.022,-1.283 -4.445,-3.4 -5.393,-5.629c-0.324,-0.762 -1.205,-1.117 -1.967,-0.794c-0.762,0.324 -1.118,1.206 -0.794,1.968Z"/><path d="M90.7,75.98c0.059,1.608 0.596,3.277 1.187,4.771c0.378,0.953 1.68,2.362 3.5,3.794c3.793,2.984 9.791,6.352 11.736,6.791c8.527,1.923 17.32,0.31 25.277,-1.54c0.806,-0.188 1.308,-0.995 1.121,-1.801c-0.188,-0.807 -0.995,-1.309 -1.801,-1.121c-7.536,1.752 -15.861,3.357 -23.937,1.536c-1.756,-0.396 -7.117,-3.528 -10.541,-6.222c-1.273,-1.002 -2.301,-1.874 -2.565,-2.542c-0.47,-1.185 -0.932,-2.5 -0.979,-3.776c-0.031,-0.827 -0.727,-1.474 -1.554,-1.444c-0.828,0.031 -1.475,0.727 -1.444,1.554Z"/><path d="M215.031,189.11c0.025,-0.081 0.043,-0.167 0.053,-0.255c0.098,-0.822 -0.489,-1.569 -1.311,-1.667c-0.293,-0.035 -1.302,-0.05 -1.636,1.103c-0.062,0.214 -0.174,1.323 -0.218,1.633c-0.23,1.587 -0.539,3.153 -0.911,4.713c-0.952,3.991 -2.291,8.228 -6.553,9.364c-0.8,0.214 -1.276,1.036 -1.063,1.836c0.214,0.8 1.036,1.276 1.836,1.063c5.396,-1.439 7.493,-6.514 8.698,-11.567c0.393,-1.649 0.719,-3.303 0.962,-4.98c0.029,-0.201 0.118,-1.019 0.143,-1.243Zm-0.662,0.851c-0.276,0.167 -0.607,0.247 -0.952,0.206c0.308,0.036 0.633,-0.008 0.952,-0.206Z"/></g><g><path d="M58.048,238.556l0.061,0.119c0.281,0.583 0.492,1.356 0.674,2.285c0.783,4.006 0.898,10.595 1.428,18.089c1.262,17.829 2.654,40.728 1.789,45.915c-0.136,0.817 0.416,1.591 1.233,1.727c0.817,0.136 1.59,-0.417 1.726,-1.233c0.878,-5.267 -0.474,-28.519 -1.755,-46.621c-0.637,-8.995 -0.743,-16.717 -1.982,-20.437c-0.812,-2.437 -2.203,-3.479 -3.882,-3.337c-0.489,0.042 -0.954,0.248 -1.356,0.687c-0.384,0.421 -0.765,1.239 -0.981,2.459c-0.854,4.821 -0.026,17.948 0.235,31.206c0.268,13.563 0.608,27.206 1.043,32.956c0.125,1.653 0.293,2.734 0.432,3.11c0.288,0.776 1.152,1.172 1.928,0.884c0.776,-0.287 1.173,-1.151 0.885,-1.927c-0.165,-0.447 -0.269,-2.166 -0.41,-4.765c-0.358,-6.621 -0.645,-18.5 -0.878,-30.317c-0.226,-11.44 -0.903,-22.781 -0.504,-28.622c0.054,-0.781 0.195,-1.596 0.314,-2.178Z"/><path d="M53.868,299.964c-0.853,1.931 -0.695,4.323 0.858,5.876c1.382,1.383 3.938,2.162 6.445,2.042c2.594,-0.123 5.05,-1.207 6.172,-3.13c0.417,-0.715 0.175,-1.634 -0.54,-2.051c-0.715,-0.417 -1.634,-0.176 -2.051,0.54c-0.66,1.131 -2.198,1.572 -3.723,1.645c-1.61,0.076 -3.294,-0.279 -4.182,-1.167c-0.668,-0.668 -0.602,-1.712 -0.235,-2.542c0.334,-0.757 -0.009,-1.644 -0.766,-1.978c-0.757,-0.335 -1.644,0.008 -1.978,0.765Z"/><path d="M55.169,292.403c-0.969,0.296 -1.938,0.624 -2.865,1.032c-2.761,1.213 -5.221,3.282 -6.631,5.97c-1.846,3.52 -1.753,6.826 -0.271,9.54c1.427,2.614 4.213,4.712 8.02,5.827c11.835,3.469 20.2,-2.255 22.807,-8.668c1.401,-3.447 1.179,-7.122 -0.876,-9.941c-1.968,-2.698 -5.698,-4.693 -11.599,-4.693c-0.828,0 -1.5,0.672 -1.5,1.5c-0,0.828 0.672,1.5 1.5,1.5c7.219,0 10.476,3.409 10.362,7.46c-0.179,6.41 -8.06,13.419 -19.85,9.963c-3.472,-1.017 -5.94,-2.966 -6.718,-5.545c-0.501,-1.663 -0.265,-3.554 0.782,-5.55c1.097,-2.09 3.034,-3.673 5.18,-4.617c0.821,-0.36 1.679,-0.647 2.535,-0.909c0.792,-0.242 1.238,-1.081 0.996,-1.873c-0.242,-0.792 -1.081,-1.238 -1.872,-0.996Z"/><path d="M44.295,303.596c-0.064,2.092 0.759,28.982 0.759,28.982c0.01,0.339 0.135,0.664 0.354,0.922c1.311,1.551 3.702,2.847 6.663,3.703c4.118,1.192 9.359,1.592 13.928,0.983c3.181,-0.424 6.038,-1.347 8.038,-2.77c1.521,-1.081 2.575,-2.452 3.028,-4.094c0.22,-0.799 -0.249,-1.625 -1.047,-1.845c-0.798,-0.22 -1.625,0.249 -1.845,1.047c-0.352,1.277 -1.362,2.228 -2.706,2.965c-1.591,0.873 -3.639,1.427 -5.864,1.723c-4.165,0.555 -8.944,0.196 -12.699,-0.89c-2.055,-0.595 -3.8,-1.38 -4.869,-2.402c-0.118,-3.869 -0.799,-26.333 -0.741,-28.232c0.025,-0.828 -0.626,-1.52 -1.454,-1.546c-0.827,-0.025 -1.519,0.626 -1.545,1.454Z"/><path d="M74.121,303.558c0.311,6.15 0.252,18.003 -0.001,28.632c-0.02,0.827 0.636,1.515 1.464,1.535c0.827,0.02 1.515,-0.636 1.535,-1.464c0.255,-10.712 0.311,-22.657 -0.002,-28.854c-0.041,-0.827 -0.747,-1.464 -1.573,-1.422c-0.827,0.041 -1.465,0.747 -1.423,1.573Z"/><path d="M74.216,304.013c0.55,1.456 1.8,2.766 3.296,3.805c2.025,1.406 4.468,2.332 5.697,2.634c4.483,1.103 7.499,0.757 10.19,0.429c3.512,-0.429 6.385,-0.788 11.98,3.265c0.505,0.366 1.606,0.781 2.48,1.077c-0.259,2.148 -0.799,6.572 -1.12,8.903c-0.114,0.823 -1.157,8.056 -1.651,11.476c-1.974,-0.644 -5.189,-1.64 -7.137,-1.967c-2.875,-0.482 -7.749,0.495 -12.261,0.555c-3.718,0.049 -7.254,-0.451 -8.435,-3.982c-0.263,-0.785 -1.114,-1.209 -1.899,-0.946c-0.785,0.262 -1.209,1.113 -0.947,1.898c1.33,3.974 4.603,5.538 8.567,5.927c2.601,0.254 5.506,-0.007 8.197,-0.268c2.444,-0.237 4.694,-0.491 6.282,-0.225c2.8,0.469 8.368,2.417 8.368,2.417c0.423,0.148 0.889,0.098 1.272,-0.134c0.383,-0.233 0.642,-0.624 0.706,-1.068c-0,0 1.76,-12.19 1.91,-13.274c0.436,-3.17 1.276,-10.189 1.276,-10.189c0.088,-0.738 -0.378,-1.43 -1.096,-1.625c0,-0 -2.089,-0.524 -2.752,-1.004c-5.524,-4.002 -8.828,-4.31 -12.178,-4.026c-2.948,0.251 -5.952,1.099 -11.035,-0.152c-1.015,-0.25 -3.03,-1.024 -4.703,-2.185c-0.968,-0.672 -1.845,-1.459 -2.2,-2.401c-0.293,-0.775 -1.159,-1.166 -1.934,-0.874c-0.774,0.293 -1.165,1.159 -0.873,1.934Z"/><path d="M61.847,318.395c0.115,-0.296 0.137,-0.63 0.042,-0.958c-0.231,-0.796 -1.063,-1.254 -1.859,-1.024c-0.347,0.101 -0.809,0.35 -1.046,0.999c-0.074,0.203 -0.146,0.609 -0.152,1.101c-0.009,0.668 0.059,1.591 0.074,1.821c0.051,0.826 0.764,1.455 1.59,1.403c0.827,-0.051 1.456,-0.764 1.404,-1.59c-0.013,-0.201 -0.044,-1.39 -0.053,-1.752Zm-0.87,0.862l-0.032,0.012l0.008,-0.002l0.024,-0.01Zm0.083,-0.034l-0.036,0.016l0.016,-0.007l0.02,-0.009Zm0.075,-0.036l-0.027,0.014l0.019,-0.009l0.008,-0.005Z"/><path d="M61.936,325.444c0.026,-0.166 0.025,-0.339 -0.009,-0.513c-0.155,-0.813 -0.941,-1.347 -1.755,-1.192c-0.449,0.086 -0.992,0.354 -1.197,1.129c-0.038,0.145 -0.073,0.39 -0.049,0.697c0.031,0.395 0.181,1.097 0.2,1.199c0.146,0.815 0.927,1.358 1.741,1.211c0.815,-0.146 1.358,-0.927 1.212,-1.741l-0.143,-0.79Zm-0.402,0.809c-0.208,0.216 -0.482,0.373 -0.798,0.433c0.289,-0.055 0.57,-0.183 0.798,-0.433Z"/><path d="M62.275,332.057c0.267,-0.636 0.066,-1.393 -0.521,-1.806c-0.677,-0.476 -1.613,-0.313 -2.089,0.364c-0.168,0.238 -0.35,0.699 -0.393,1.286c-0.049,0.673 0.033,1.621 0.083,1.946c0.127,0.818 0.894,1.379 1.712,1.252c0.818,-0.126 1.379,-0.893 1.253,-1.711c-0.032,-0.205 -0.043,-1.134 -0.045,-1.331Z"/><path d="M87.799,313.738c-0.074,0.161 -0.145,0.332 -0.177,0.443c-0.066,0.232 -0.083,0.444 -0.074,0.616c0.034,0.65 0.052,1.3 0.075,1.949c0.029,0.827 0.724,1.475 1.552,1.446c0.827,-0.029 1.475,-0.725 1.446,-1.552c-0.021,-0.579 -0.037,-1.157 -0.065,-1.736c0.098,-0.214 0.292,-0.644 0.316,-0.752c0.073,-0.33 0.03,-0.591 -0.023,-0.773c-0.184,-0.633 -0.601,-0.996 -1.261,-1.081c-0.181,-0.023 -0.608,-0.08 -1.163,0.315c-0.382,0.272 -0.598,0.691 -0.626,1.125Zm2.305,1.36c0.02,-0.013 0.041,-0.027 0.061,-0.041l-0.061,0.041Z"/><path d="M90.067,323.396c0.04,-0.145 0.177,-0.708 0.256,-1.703c0.065,-0.826 -0.553,-1.549 -1.378,-1.613c-0.825,-0.065 -1.548,0.552 -1.613,1.377c-0.109,1.38 -0.257,1.557 -0.258,1.786c-0.001,0.828 0.669,1.502 1.497,1.504c0.779,0.002 1.421,-0.592 1.496,-1.351Z"/><path d="M86.636,328.369c-0.293,2.207 -0.026,2.475 -0.072,2.969c-0.078,0.824 0.529,1.556 1.353,1.633c0.824,0.078 1.556,-0.529 1.634,-1.353c0.044,-0.475 -0.223,-0.733 0.059,-2.855c0.108,-0.821 -0.47,-1.576 -1.29,-1.684c-0.821,-0.109 -1.576,0.469 -1.684,1.29Z"/><path d="M44.617,326.895c-0.06,0.063 -0.201,0.209 -0.304,0.297c-0.296,0.253 -0.644,0.518 -0.994,0.825c-0.828,0.726 -1.647,1.654 -2.085,3.009c-0.412,1.278 -0.5,2.973 0.233,5.321c0.547,1.754 1.888,3.298 3.858,4.54c2.592,1.633 6.326,2.772 10.454,3.327c6.061,0.814 12.971,0.381 18.213,-1.402c3.784,-1.288 6.709,-3.309 8.078,-5.954c0.38,-0.735 0.093,-1.641 -0.643,-2.021c-0.735,-0.381 -1.641,-0.093 -2.021,0.642c-1.065,2.057 -3.438,3.492 -6.381,4.493c-4.848,1.649 -11.241,2.021 -16.846,1.268c-3.649,-0.49 -6.964,-1.448 -9.254,-2.892c-1.286,-0.809 -2.237,-1.75 -2.594,-2.894c-0.555,-1.777 -0.511,-2.974 -0.111,-3.841c0.401,-0.87 1.111,-1.379 1.666,-1.829c0.984,-0.799 1.611,-1.592 1.695,-2.45c0.08,-0.824 -0.523,-1.558 -1.347,-1.639c-0.774,-0.075 -1.469,0.453 -1.617,1.2Z"/><path d="M40.923,332.122c-0.116,1.676 -0.131,4.038 0.017,5.705c0.22,2.483 0.476,4.076 1.177,5.388c0.728,1.361 1.924,2.468 4.203,3.834c1.573,0.942 4.681,1.812 8.508,2.303c5.507,0.706 12.538,0.678 18.369,-0.777c7.049,-1.758 12.29,-5.639 12.043,-12.317c-0.03,-0.827 -0.727,-1.474 -1.554,-1.444c-0.828,0.031 -1.474,0.727 -1.444,1.555c0.193,5.228 -4.253,7.919 -9.771,9.296c-5.479,1.366 -12.087,1.375 -17.262,0.711c-3.294,-0.422 -5.993,-1.089 -7.347,-1.901c-1.64,-0.983 -2.576,-1.695 -3.099,-2.674c-0.55,-1.028 -0.663,-2.294 -0.835,-4.238c-0.135,-1.53 -0.119,-3.696 -0.012,-5.234c0.057,-0.826 -0.567,-1.543 -1.393,-1.6c-0.826,-0.057 -1.543,0.567 -1.6,1.393Z"/></g></g><g id="Layer4"></g><g id="Layer5"></g></svg>