<?xml version="1.0" encoding="UTF-8" standalone="no"?>
<!DOCTYPE svg PUBLIC "-//W3C//DTD SVG 1.1//EN" "http://www.w3.org/Graphics/SVG/1.1/DTD/svg11.dtd">
<svg width="100%" height="100%" viewBox="0 0 1749 1749" version="1.1" xmlns="http://www.w3.org/2000/svg" xmlns:xlink="http://www.w3.org/1999/xlink" xml:space="preserve" xmlns:serif="http://www.serif.com/" style="fill-rule:evenodd;clip-rule:evenodd;stroke-linecap:round;stroke-linejoin:round;stroke-miterlimit:1.5;">
    <g id="Слой1">
        <path d="M469.927,1066C468.929,1061.68 468.051,1033.14 468.051,1033.14C410.697,994.695 371.057,933.504 344.996,854.88C340.562,760.58 376.844,680.767 434.683,608.625C476.535,574.486 520.114,544.585 567.715,524.552" style="fill:none;stroke:black;stroke-width:13.97px;"/>
        <path d="M695.879,395.487C785.877,224.586 880.243,55.821 994.115,128.124C1067.21,177.156 1069.42,255.007 1052.83,338.143C1032.99,422.906 987.495,501.519 929.335,571.009" style="fill:none;stroke:black;stroke-width:13.97px;"/>
        <path d="M1061.15,254.955C1028.38,159.125 972.682,130.417 900.956,230.514C877.514,272.347 842.526,330.739 825.587,386.841C800.447,470.107 798.457,547.06 798.457,547.06L797.06,549.097" style="fill:none;stroke:black;stroke-width:13.97px;"/>
        <path d="M1020.5,303.34C1019.42,238.215 903.593,337.01 836.974,516.195C921.086,222.141 1045.22,196.833 1020.5,303.34Z" style="fill:none;stroke:black;stroke-width:13.97px;"/>
        <path d="M1057.22,335.427C1168.47,207.668 1288.08,292.317 1187.58,439.307C1133.78,502.368 1071.59,550.972 1005.01,592.012L989.605,626.728" style="fill:none;stroke:black;stroke-width:13.97px;"/>
        <path d="M1080.24,540.46C1050.21,617.752 1049.45,690.372 1071.79,759.307" style="fill:none;stroke:black;stroke-width:13.97px;"/>
        <path d="M1118.09,855.892C1160.71,930.94 1232.97,997.161 1318.3,1056.84C1383.05,1128.75 1406.31,1208.43 1413.41,1276.58C1516.64,1302.6 1529.21,1358.49 1471.4,1440.22C1512.43,1545.22 1509.01,1609.95 1414.53,1606.05C1250.74,1630.14 1084.25,1639.3 915.884,1638" style="fill:none;stroke:black;stroke-width:13.97px;"/>
        <path d="M924.346,1557.65C990.002,1677.28 680.235,1703.54 759.621,1518.56" style="fill:none;stroke:black;stroke-width:13.97px;"/>
        <path d="M703.662,1519.8C705.231,1559.07 719.064,1593.65 690.928,1621.1C615.17,1695 428.252,1610.18 493.835,1482.05" style="fill:none;stroke:black;stroke-width:13.97px;"/>
        <path d="M654.727,1644.38L728.378,1628.73L795.664,1641.71" style="fill:none;stroke:black;stroke-width:13.97px;"/>
        <path d="M494.354,1476.99C525.255,1414.08 517.273,1349.14 485.373,1282.97" style="fill:none;stroke:black;stroke-width:13.97px;"/>
        <path d="M564.163,1485.3C593.487,1479.58 618.299,1484.85 637.724,1503.24" style="fill:none;stroke:black;stroke-width:13.97px;"/>
        <path d="M697.715,1489.18L670.919,1416.76L671.611,1333.71" style="fill:none;stroke:black;stroke-width:13.97px;"/>
        <path d="M908.739,1507.44C890.22,1465.7 897.789,1428.21 930.253,1394.78" style="fill:none;stroke:black;stroke-width:13.97px;"/>
        <path d="M1220.27,1566.28C1189.62,1604.36 915.566,1395.95 978.469,1226.5" style="fill:none;stroke:black;stroke-width:13.97px;"/>
        <path d="M1010.97,1402.07C991.24,1316.8 1012.12,1223.53 1059.02,1135.39" style="fill:none;stroke:black;stroke-width:13.97px;"/>
        <path d="M1066.56,1481.25C992.668,1429.71 921.433,1413.67 906.744,1503.35" style="fill:none;stroke:black;stroke-width:13.97px;"/>
    </g>
    <g id="Слой2">
        <path d="M588.206,759.073C609.899,676.215 703.587,666.291 702.748,681.851C713.748,688.392 662.982,773.5 588.206,759.073Z" style="fill:none;stroke:black;stroke-width:13.97px;"/>
        <path d="M570.821,728.136C589.743,668.342 622.623,630.808 686.852,643.264" style="fill:none;stroke:black;stroke-width:13.97px;"/>
        <path d="M634.298,788.897C699.821,787.367 733.271,756.895 728.916,692.309" style="fill:none;stroke:black;stroke-width:13.97px;"/>
        <path d="M732.618,607.727L765.754,565.122" style="fill:none;stroke:black;stroke-width:13.97px;"/>
        <path d="M880.587,860.406C941.91,779.516 962.152,699.622 926.208,621.09" style="fill:none;stroke:black;stroke-width:13.97px;"/>
        <path d="M848.685,886.26C805.363,940.174 758.482,952.213 709.063,934.384" style="fill:none;stroke:black;stroke-width:13.97px;"/>
        <path d="M424.231,918.552C447.028,885.068 495.971,853.11 550.533,836.717" style="fill:none;stroke:black;stroke-width:6.35px;"/>
        <path d="M426.989,947.821C497.011,907.499 579.653,877.08 639.997,866.7" style="fill:none;stroke:black;stroke-width:6.35px;"/>
        <path d="M443.503,971.131L538.267,941.147L617.204,938.984" style="fill:none;stroke:black;stroke-width:6.35px;"/>
        <path d="M456.968,987.694C489.455,980.103 521.433,986.768 546.758,994.132" style="fill:none;stroke:black;stroke-width:6.35px;"/>
        <path d="M400.658,879.066C398.983,882.927 395.726,890.237 392.868,895.539C389.232,902.285 384.472,910.104 383.909,911.025C380.419,914.87 379.08,920.858 380.135,927.938C381.131,934.62 384.147,942.571 386.459,948.92C387.435,951.601 388.477,955.277 388.52,955.426C388.585,958.613 390.278,964.353 392.285,967.911C393.994,970.941 396.247,972.726 397.793,973.413C399.955,974.373 402.034,974.388 403.953,973.787C405.885,973.182 408.188,971.869 409.596,968.464C411.268,964.419 409.373,959.782 405.363,958.061C404.928,957.004 404.513,955.834 404.513,955.225C404.513,953.47 403.997,950.808 402.952,947.614C401.345,942.706 398.4,935.773 396.749,929.351C396.243,927.385 395.861,925.484 395.767,923.752C395.726,922.991 395.884,921.792 395.915,921.568C398.37,918.339 412.096,894.916 416.179,883.924C417.655,879.949 417.882,876.814 417.616,875.248C417.25,873.093 416.279,871.561 415.175,870.457C404.201,859.483 390.619,858.15 378.034,856.676C371.729,855.938 365.698,855.443 361.418,851.127C356.816,846.487 354.662,838.085 354.662,823.012C354.662,818.596 351.077,815.012 346.662,815.012C342.247,815.012 338.662,818.596 338.662,823.012C338.662,844.383 343.532,855.815 350.057,862.394C354.898,867.274 360.845,869.815 367.495,871.229C372.764,872.349 378.523,872.728 384.328,873.541C389.907,874.322 395.606,875.482 400.658,879.066ZM394.949,962.036C394.901,962.138 394.854,962.242 394.81,962.351L394.949,962.036ZM395.75,921.772L395.668,921.868C395.693,921.843 395.721,921.809 395.75,921.772Z"/>
    </g>
    <g id="Слой3">
        <path d="M611.689,476.3C618.632,475.047 624.11,470.662 627.942,464.579C632.207,457.807 634.366,448.874 634.162,440.331C633.906,429.586 629.839,419.591 622.299,414.727C617.072,411.354 610.109,410.201 601.289,413.141C597.681,414.343 593.482,417.837 589.676,422.845C584.564,429.573 579.962,439.018 577.982,447.821C575.441,459.114 577.525,469.24 585.825,473.389C588.721,474.838 602.775,478.155 610.948,476.47C611.2,476.419 611.447,476.362 611.689,476.3ZM617.725,464.079C618.915,462.933 619.969,461.6 620.891,460.137C624.336,454.668 625.996,447.43 625.831,440.53C625.646,432.742 623.246,425.255 617.781,421.729C614.339,419.508 609.732,419.111 603.924,421.046C601.484,421.86 598.885,424.5 596.311,427.887C591.856,433.751 587.838,441.979 586.112,449.65C585.231,453.564 584.93,457.317 585.638,460.453C586.178,462.851 587.353,464.837 589.552,465.936C591.433,466.876 599.242,468.704 605.582,468.639C606.091,468.43 606.649,468.32 607.233,468.331C608.213,468.348 609.154,468.273 610.056,468.112C610.18,468.075 610.302,468.034 610.419,467.991C610.775,467.86 611.227,467.896 611.227,467.532C611.227,465.232 613.094,463.365 615.394,463.365C616.257,463.365 617.06,463.628 617.725,464.079Z"/>
        <path d="M630.867,429.725C630.739,430.017 630.643,430.329 630.584,430.657C629.921,434.358 633.239,435.332 633.659,435.439C634.515,435.657 635.522,435.667 636.621,435.09C636.73,435.033 637.955,434.577 638.616,432.791C638.729,432.484 639.325,430.312 640.362,429.275C642.015,427.622 643.761,425.174 645.622,422.852C646.978,421.161 648.347,419.483 649.935,418.689C655.561,415.876 668.507,407.285 679.821,404.579C685.504,403.22 690.811,403.199 693.362,408.301C694.514,410.604 694.963,412.595 694.638,414.373C694.272,416.379 692.93,417.994 691.095,419.45C688.687,421.361 685.465,422.927 681.801,424.316C669.555,428.962 652.697,431.475 641.352,434.912C635.634,436.644 631.188,438.74 628.786,441.142C627.16,442.768 627.16,445.409 628.786,447.035C630.413,448.661 633.053,448.661 634.679,447.035C637.075,444.639 642.403,443.13 648.794,441.501C659.905,438.669 674.053,436.168 684.757,432.108C694.618,428.367 701.54,422.959 702.836,415.871C703.436,412.583 702.946,408.834 700.816,404.574C696.398,395.738 687.726,394.121 677.883,396.474C665.92,399.335 652.157,408.261 646.208,411.236C644.119,412.28 642.12,414.1 640.283,416.236C638.181,418.679 636.283,421.569 634.47,423.382C632.725,425.127 631.201,428.871 630.867,429.725ZM638.312,429.342C638.737,430.093 638.933,430.979 638.822,431.891C639.008,430.49 638.515,429.661 638.312,429.342ZM636.529,427.656C637.046,427.911 637.496,428.267 637.86,428.694C637.462,428.215 637.008,427.883 636.529,427.656ZM633.75,427.331L633.703,427.343L633.765,427.328L633.75,427.331ZM634.568,427.227C634.311,427.232 634.045,427.263 633.772,427.326C634.03,427.268 634.297,427.234 634.568,427.227ZM634.607,427.226L634.724,427.226L634.687,427.225L634.607,427.226Z"/>
        <path d="M614.566,473.639C614.58,473.499 614.588,473.358 614.588,473.215C614.588,470.915 612.721,469.048 610.421,469.048C607.851,469.048 606.704,470.416 606.127,471.989C605.862,472.71 605.727,473.665 605.984,474.774C606.194,475.679 607.008,477.126 607.405,477.92C611.462,486.034 613.952,492.584 619.551,498.183C620.953,499.585 623.191,500.654 626.206,501.082C629.398,501.536 633.694,501.337 638.551,500.613C650.817,498.786 666.959,493.68 676.896,489.418C681.726,487.346 685.191,485.322 686.538,483.975C690.53,479.983 693.299,472.02 693.559,463.712C693.819,455.393 691.575,446.89 686.538,441.853C682.772,438.087 675.605,434.239 669.384,434.239C668.59,434.239 667.695,434.259 666.935,434.284C665.953,433.843 664.8,433.781 663.718,434.203C661.443,435.091 660.901,436.5 660.749,436.89C660.251,438.168 660.391,439.326 660.947,440.38C661.304,441.056 661.942,441.909 663.266,442.389C663.577,442.501 664.16,442.662 664.997,442.679C665.783,442.696 667.471,442.572 669.384,442.572C673.492,442.572 678.159,445.259 680.645,447.745C684.235,451.335 685.415,457.523 685.229,463.452C685.044,469.392 683.5,475.228 680.645,478.083C679.68,479.048 677.073,480.274 673.612,481.759C664.206,485.793 648.933,490.641 637.323,492.371C634.002,492.865 631.003,493.107 628.58,492.952C627.181,492.863 626.03,492.876 625.444,492.291C620.475,487.322 618.459,481.394 614.858,474.193C614.794,474.066 614.685,473.859 614.566,473.639ZM610.707,477.37L610.703,477.371L610.707,477.37Z"/>
        <path d="M583.669,477.62C583.489,477.923 582.532,479.524 581.643,480.795C577.929,486.107 571.437,494.694 567.827,503.662C563.865,513.503 563.39,523.717 571.245,531.572C578.803,539.13 590.168,540.652 601.147,537.42C616.96,532.766 631.637,518.28 631.637,500.21C631.637,497.91 629.77,496.043 627.47,496.043C625.171,496.043 623.304,497.91 623.304,500.21C623.304,514.535 611.329,525.737 598.794,529.426C590.874,531.757 582.589,531.131 577.137,525.679C570.286,518.828 573.771,509.374 578.246,501.13C581.928,494.346 586.643,488.281 589.229,484.475C590.898,482.018 591.742,480.066 591.868,479.048C592.15,476.766 590.525,474.684 588.243,474.403C586.099,474.138 584.132,475.555 583.669,477.62Z"/>
        <path d="M616.251,409.825C615.97,410.274 615.772,410.784 615.679,411.338C615.301,413.607 616.835,415.756 619.103,416.134C619.892,416.266 622.616,416.345 623.902,413.226C624.881,410.853 627.398,398.519 627.871,397.099C631.244,386.98 634.767,375.588 639.722,365.677C648.048,349.025 652.928,334.917 658.646,322.547C666.838,304.824 676.856,290.856 702.504,278.031C703.507,277.53 704.394,277.862 705.191,278.521C706.27,279.413 707.215,280.73 708.092,282.246C712.021,289.042 714.234,299.65 714.234,303.43C714.234,328.103 698.436,346.312 684.521,364.866C677.305,374.487 652.136,395.897 637.7,411.751C633.74,416.101 630.554,420.072 628.623,423.319C626.922,426.18 626.145,428.687 626.145,430.591C626.145,432.891 628.012,434.758 630.312,434.758C632.612,434.758 634.479,432.891 634.479,430.591C634.479,429.777 635.059,428.801 635.786,427.578C637.496,424.703 640.354,421.214 643.862,417.362C658.47,401.318 683.886,379.601 691.187,369.866C706.169,349.89 722.567,329.994 722.567,303.43C722.567,298.088 718.903,281.498 712.541,274.115C708.682,269.637 703.989,267.972 698.778,270.578C670.866,284.533 659.997,299.764 651.082,319.05C645.395,331.353 640.549,345.389 632.268,361.951C627.139,372.209 623.457,383.989 619.966,394.464C619.543,395.733 616.675,408.003 616.251,409.825ZM620.26,407.884C619.643,407.81 618.982,407.859 618.303,408.133C618.909,407.9 619.577,407.806 620.26,407.884ZM620.265,407.885L620.475,407.915C620.406,407.903 620.336,407.893 620.265,407.885Z"/>
        <path d="M619.503,411.587C621.587,385.559 629.502,338.302 628.205,297.347C627.305,268.935 621.781,243.542 607.684,229.445C601.792,223.553 596.372,221.769 591.733,222.408C587.034,223.055 582.746,226.29 579.221,231.72C573.86,239.977 569.995,253.689 567.583,268.07C564.022,289.301 563.546,311.945 565.132,319.876C569.148,339.954 569.494,358.637 575.921,377.919C578.222,384.82 583.449,394.205 587.279,402.866C589.523,407.939 591.336,412.698 591.336,416.383C591.336,418.683 593.203,420.55 595.503,420.55C597.802,420.55 599.669,418.683 599.669,416.383C599.669,411.801 597.691,405.804 594.9,399.495C591.18,391.083 586.061,381.987 583.827,375.283C577.512,356.339 577.249,337.968 573.304,318.242C571.169,307.57 573.268,268.636 581.711,245.677C583.294,241.374 585.088,237.654 587.169,234.881C588.773,232.745 590.463,231.18 592.477,230.734C595.253,230.119 598.205,231.751 601.792,235.337C614.678,248.224 619.053,271.637 619.876,297.611C621.162,338.234 613.263,385.105 611.196,410.922C611.012,413.214 612.724,415.224 615.017,415.408C617.309,415.591 619.319,413.879 619.503,411.587Z"/>
        <path d="M587.761,428.07C574.482,421.038 563.061,410.642 551.117,401.684C550.234,401.022 549.336,400.363 548.349,399.869C534.251,392.82 502.778,368.884 486.055,344.664C480.749,336.978 476.924,329.296 475.874,322.131C474.939,315.745 476.354,309.836 481.234,304.956C482.625,303.565 484.637,302.89 486.769,302.598C490.542,302.08 494.75,302.823 497.736,304.316C540.381,325.638 545.508,337.787 568.333,383.437C570.827,388.425 582.094,412.66 583.237,419.234C582.909,420.491 583.172,421.882 584.066,422.955C585.539,424.721 588.169,424.96 589.935,423.487C590.614,422.921 591.27,422.06 591.525,420.728C591.708,419.769 591.554,417.709 590.728,414.971C587.952,405.763 578.158,384.455 575.786,379.71C551.828,331.794 546.224,319.243 501.463,296.862C497.153,294.707 491.084,293.595 485.637,294.342C481.622,294.892 477.959,296.445 475.341,299.063C465.223,309.182 465.284,322.413 471.681,336.406C485.09,365.734 527.293,398.658 544.622,407.323C545.163,407.593 545.633,407.987 546.117,408.35C558.99,418.005 571.33,429.202 585.825,436.449C587.775,437.424 589.463,437.125 590.645,436.506C592.104,435.741 593.276,434.278 593.276,432.012C593.276,429.712 591.409,427.845 589.109,427.845C588.637,427.845 588.184,427.924 587.761,428.07ZM584.331,417.331L584.321,417.341L584.331,417.331ZM584.451,417.216L584.598,417.087C584.549,417.128 584.499,417.171 584.451,417.216Z"/>
        <path d="M578.451,439.699C578.898,440.097 579.438,440.403 580.05,440.581C580.653,440.757 581.121,440.759 581.435,440.743C583.776,440.622 584.749,439.233 585.192,437.85C585.263,437.627 586.117,435.083 583.651,433.177C582.723,432.46 576.896,428.489 574.968,427.229C573.515,426.279 571.683,424.764 570.041,424.106C564.338,421.818 557.769,417.851 551.175,415.067C546.207,412.969 541.21,411.535 536.502,411.578C529.632,411.64 521.302,408.464 514.192,407.214C491.103,403.155 462.008,399.965 439.721,408.06C433.492,410.322 426.084,413.355 420.35,417.983C413.966,423.134 409.553,430.152 410.19,440C410.741,448.51 415.14,455.266 421.596,460.136C430.616,466.939 443.775,469.939 455.005,468.86C465.608,467.841 476.154,464.006 486.661,460.356C496.412,456.969 506.123,453.727 515.865,453.639C526.375,453.543 541.142,455.27 551.607,453.078C555.353,452.293 562.382,451.685 568.426,451.98C571.81,452.145 574.87,452.432 576.457,453.469C578.382,454.727 580.966,454.186 582.224,452.261C583.483,450.336 582.941,447.752 581.016,446.494C579.11,445.248 575.957,444.336 572.192,443.918C564.817,443.1 554.834,443.887 549.898,444.921C539.912,447.013 525.818,445.214 515.789,445.306C505.171,445.402 494.554,448.792 483.926,452.484C474.054,455.914 464.17,459.607 454.207,460.565C446.445,461.311 437.561,459.758 430.486,455.95C423.989,452.452 418.994,447.009 418.506,439.462C418.07,432.729 421.218,427.99 425.583,424.468C430.595,420.423 437.121,417.87 442.566,415.892C463.569,408.264 490.99,411.596 512.749,415.421C520.333,416.755 529.25,419.978 536.578,419.911C541.232,419.869 546.19,421.849 551.079,424.156C556.645,426.783 562.101,429.899 566.939,431.84C568.121,432.314 569.363,433.521 570.408,434.204C572.08,435.297 577.626,439.129 578.451,439.699ZM579.059,433.016C578.125,433.557 577.536,434.329 577.25,435.301C577.569,434.311 578.228,433.518 579.059,433.016ZM579.69,432.703L579.669,432.713L579.737,432.686L579.69,432.703ZM582.161,432.523C581.063,432.256 580.263,432.473 579.761,432.676C580.507,432.398 581.337,432.33 582.161,432.523Z"/>
        <path d="M575.747,462.221C577.546,462.927 579.656,462.301 580.755,460.62C582.039,458.656 581.594,457.059 580.978,455.956C580.455,455.018 579.207,453.64 576.715,453.631C574.016,453.623 565.172,456.536 563.292,457.632C555.851,461.975 547.451,464.568 539.903,468.973C513.301,484.498 492.299,507.926 466.481,525.101C465.18,525.966 456.953,531.822 450.228,534.722C449.013,535.246 447.413,535.653 446.423,535.877C444.583,525.086 447.665,513.937 453.484,503.592C462.945,486.773 479.658,472.065 495.798,464.239C499.722,462.337 507.871,457.931 515.265,455.643C517.457,454.965 519.569,454.473 521.446,454.36C522.65,454.287 523.723,454.295 524.513,454.778C526.475,455.978 529.042,455.358 530.241,453.396C531.441,451.434 530.821,448.867 528.859,447.668C525.991,445.915 521.733,445.598 516.899,446.608C508.156,448.434 497.062,454.365 492.162,456.741C474.631,465.241 456.497,481.237 446.221,499.507C439.124,512.123 435.773,525.815 438.522,538.936C439.49,543.559 443.573,545.514 449.695,543.772C457.357,541.59 469.431,533.147 471.096,532.039C496.779,514.955 517.641,491.613 544.103,476.171C551.651,471.766 560.051,469.172 567.493,464.83C568.509,464.237 573.612,462.805 575.747,462.221ZM573.157,457.661C573.247,457.106 573.452,456.562 573.779,456.061C573.406,456.632 573.218,457.167 573.157,457.661Z"/>
        <path d="M485.015,513.932C479.812,518.902 477.885,528.159 479.683,536.491C481.549,545.139 487.258,552.464 496.01,553.477C507.417,554.798 516.434,552.333 526.966,546.187C538.665,539.36 546.776,528.484 554.419,517.22C561.467,506.832 568.097,496.107 577.474,488.676C579.668,486.937 582.47,482.438 585.605,478.937C586.487,477.953 587.389,477.058 588.354,476.486C588.91,476.156 589.497,475.972 590.112,476.374C592.037,477.632 594.621,477.091 595.879,475.166C597.138,473.241 596.596,470.657 594.671,469.398C590.033,466.367 585.571,467.638 581.555,471.208C579.494,473.039 577.552,475.538 575.804,477.871C574.478,479.641 573.34,481.319 572.298,482.145C562.276,490.087 555.055,501.439 547.523,512.541C540.585,522.766 533.386,532.792 522.766,538.99C513.978,544.118 506.486,546.301 496.968,545.199C491.806,544.601 488.93,539.833 487.829,534.733C486.66,529.318 487.389,523.188 490.771,519.959C492.434,518.37 492.494,515.731 490.906,514.068C489.318,512.405 486.678,512.344 485.015,513.932Z"/>
    </g>
    <g id="Слой4">
        <path d="M622.529,1040.74L639.791,1111.12L666.917,1109.5L670.911,1042.5C658.292,1028.12 641.847,1028.78 622.529,1040.74Z" style="fill:none;stroke:black;stroke-width:13.97px;"/>
        <path d="M670.911,1042.5L683.379,988.909C721.508,971.03 758.769,970.543 795.067,989.328C822.964,983.88 852.168,988.784 870.173,1005.57L900.397,1020.93C908.081,1057.32 905.463,1090.33 893.312,1120.23C861.752,1128.97 832.932,1144.49 813.829,1140.49C796.079,1143.4 779.131,1126.97 757.465,1127.03L715.996,1118.51L670.014,1106.57" style="fill:none;stroke:black;stroke-width:13.97px;"/>
        <path d="M623.541,1036.58L594.299,1008.96C565.199,1090.26 492.844,1132.69 390.528,1148.19C443.163,1083.08 510.629,1036.11 594.299,1008.96" style="fill:none;stroke:black;stroke-width:13.97px;"/>
        <path d="M390.528,1148.19C389.571,1225.51 408.728,1268.05 461.886,1283.93C508.746,1277.55 555.938,1260.92 583.799,1216.81L639.555,1114L583.799,1216.81L543.214,1370.98C573.473,1351.66 602.905,1338.09 630.39,1338.05C668.46,1260.78 674.858,1182.38 652.429,1112.56L694.545,1154.26L703.141,1172.22L732.05,1240.5L759.565,1306.21C780.226,1309.49 794.665,1296.74 803.133,1268.62C823.067,1261.59 838.726,1248.79 847.565,1226.78C832.439,1209.17 808.749,1195.03 769.966,1187.01L736.092,1138.39L676.883,1108.6" style="fill:none;stroke:black;stroke-width:13.97px;"/>
        <path d="M687.503,1061.33C746.674,1026.36 790.655,1038.72 819.697,1051.78" style="fill:none;stroke:black;stroke-width:13.97px;"/>
        <path d="M687.503,1061.33C730.989,1087.98 771.648,1083.6 811.55,1071.24" style="fill:none;stroke:black;stroke-width:13.97px;"/>
        <path d="M619.132,1089.01C614.143,1118.99 586.634,1141.12 562.743,1158.61" style="fill:none;stroke:black;stroke-width:13.97px;"/>
        <path d="M877.488,1007.76C968.165,961.436 1049.74,907.465 1126.07,845.391C1120.28,810.756 1107.39,781.433 1080.41,758.959C1018.37,846.717 914.249,917.298 784.831,979.763" style="fill:none;stroke:black;stroke-width:13.97px;"/>
    </g>
</svg>
