<?xml version="1.0" encoding="UTF-8" standalone="no"?>
<!DOCTYPE svg PUBLIC "-//W3C//DTD SVG 1.1//EN" "http://www.w3.org/Graphics/SVG/1.1/DTD/svg11.dtd">
<svg width="100%" height="100%" viewBox="0 0 3334 3334" version="1.1" xmlns="http://www.w3.org/2000/svg" xmlns:xlink="http://www.w3.org/1999/xlink" xml:space="preserve" xmlns:serif="http://www.serif.com/" style="fill-rule:evenodd;clip-rule:evenodd;stroke-linejoin:round;stroke-miterlimit:2;">
    <g transform="matrix(4.16667,0,0,4.16667,-3651.42,0)">
        <g id="facebook" transform="matrix(1,0,0,1,876.34,0)">
            <rect x="0" y="0" width="800" height="800" style="fill:none;"/>
            <g transform="matrix(18.1237,0,0,18.1237,-518.472,-6228.53)">
                <path d="M47.065,381.087L52.838,381.087L52.838,366.631L56.865,366.631L57.294,361.791L52.838,361.791L52.838,359.035C52.838,357.894 53.067,357.443 54.17,357.443L57.294,357.443L57.294,352.419L53.297,352.419C49.002,352.419 47.065,354.311 47.065,357.932L47.065,361.791L44.062,361.791L44.062,366.692L47.065,366.692L47.065,381.087Z" style="fill:rgb(16,20,22);fill-rule:nonzero;"/>
            </g>
        </g>
    </g>
</svg>
