<?xml version="1.0" encoding="UTF-8" standalone="no"?>
<!DOCTYPE svg PUBLIC "-//W3C//DTD SVG 1.1//EN" "http://www.w3.org/Graphics/SVG/1.1/DTD/svg11.dtd">
<svg width="100%" height="100%" viewBox="0 0 3334 3334" version="1.1" xmlns="http://www.w3.org/2000/svg" xmlns:xlink="http://www.w3.org/1999/xlink" xml:space="preserve" xmlns:serif="http://www.serif.com/" style="fill-rule:evenodd;clip-rule:evenodd;stroke-linejoin:round;stroke-miterlimit:2;">
    <g transform="matrix(4.16667,0,0,4.16667,-11196.8,0)">
        <g id="instagram" transform="matrix(1,0,0,1,2687.24,0)">
            <rect x="0" y="0" width="800" height="800" style="fill:none;"/>
            <g transform="matrix(19.2278,0,0,19.2278,-1659.66,-6633.47)">
                <path d="M107.119,353.751C103.588,353.751 103.145,353.766 101.758,353.829C100.374,353.892 99.429,354.112 98.602,354.434C97.746,354.766 97.021,355.21 96.299,355.933C95.576,356.656 95.131,357.382 94.799,358.236C94.478,359.064 94.258,360.009 94.195,361.392C94.131,362.779 94.116,363.222 94.116,366.753C94.116,370.284 94.131,370.727 94.195,372.114C94.258,373.498 94.478,374.443 94.799,375.27C95.131,376.125 95.576,376.85 96.299,377.573C97.021,378.296 97.746,378.741 98.602,379.073C99.429,379.394 100.374,379.614 101.758,379.677C103.145,379.74 103.588,379.755 107.119,379.755C110.65,379.755 111.093,379.74 112.48,379.677C113.864,379.614 114.809,379.394 115.636,379.073C116.491,378.741 117.216,378.296 117.939,377.573C118.662,376.85 119.106,376.125 119.439,375.27C119.76,374.443 119.98,373.498 120.043,372.114C120.106,370.727 120.121,370.284 120.121,366.753C120.121,363.222 120.106,362.779 120.043,361.392C119.98,360.009 119.76,359.064 119.439,358.236C119.106,357.382 118.662,356.656 117.939,355.933C117.216,355.21 116.491,354.766 115.636,354.434C114.809,354.112 113.864,353.892 112.48,353.829C111.093,353.766 110.65,353.751 107.119,353.751ZM107.119,356.094C110.591,356.094 111.002,356.107 112.373,356.169C113.64,356.227 114.329,356.439 114.787,356.617C115.394,356.853 115.827,357.135 116.282,357.59C116.737,358.045 117.019,358.478 117.255,359.085C117.433,359.543 117.645,360.232 117.703,361.499C117.765,362.87 117.778,363.281 117.778,366.753C117.778,370.225 117.765,370.636 117.703,372.007C117.645,373.275 117.433,373.963 117.255,374.421C117.019,375.029 116.737,375.461 116.282,375.917C115.827,376.371 115.394,376.653 114.787,376.889C114.329,377.067 113.64,377.279 112.373,377.337C111.002,377.399 110.591,377.413 107.119,377.413C103.647,377.413 103.236,377.399 101.865,377.337C100.597,377.279 99.908,377.067 99.45,376.889C98.843,376.653 98.41,376.371 97.955,375.917C97.5,375.461 97.218,375.029 96.983,374.421C96.805,373.963 96.593,373.275 96.535,372.007C96.472,370.636 96.459,370.225 96.459,366.753C96.459,363.281 96.472,362.87 96.535,361.499C96.593,360.232 96.805,359.543 96.983,359.085C97.218,358.478 97.5,358.045 97.955,357.59C98.41,357.135 98.843,356.853 99.45,356.617C99.908,356.439 100.597,356.227 101.865,356.169C103.236,356.107 103.647,356.094 107.119,356.094Z" style="fill:rgb(16,20,22);fill-rule:nonzero;"/>
                <path d="M107.119,371.087C104.725,371.087 102.785,369.147 102.785,366.753C102.785,364.359 104.725,362.419 107.119,362.419C109.513,362.419 111.453,364.359 111.453,366.753C111.453,369.147 109.513,371.087 107.119,371.087ZM107.119,360.077C103.432,360.077 100.442,363.066 100.442,366.753C100.442,370.441 103.432,373.43 107.119,373.43C110.806,373.43 113.796,370.441 113.796,366.753C113.796,363.066 110.806,360.077 107.119,360.077Z" style="fill:rgb(16,20,22);fill-rule:nonzero;"/>
                <path d="M115.62,359.813C115.62,360.674 114.921,361.373 114.06,361.373C113.198,361.373 112.499,360.674 112.499,359.813C112.499,358.951 113.198,358.252 114.06,358.252C114.921,358.252 115.62,358.951 115.62,359.813Z" style="fill:rgb(16,20,22);fill-rule:nonzero;"/>
            </g>
        </g>
    </g>
</svg>
