<?xml version="1.0" encoding="UTF-8" standalone="no"?>
<!DOCTYPE svg PUBLIC "-//W3C//DTD SVG 1.1//EN" "http://www.w3.org/Graphics/SVG/1.1/DTD/svg11.dtd">
<svg width="100%" height="100%" viewBox="0 0 3334 3334" version="1.1" xmlns="http://www.w3.org/2000/svg" xmlns:xlink="http://www.w3.org/1999/xlink" xml:space="preserve" xmlns:serif="http://www.serif.com/" style="fill-rule:evenodd;clip-rule:evenodd;stroke-linejoin:round;stroke-miterlimit:2;">
    <g transform="matrix(4.16667,0,0,4.16667,-7442.25,0)">
        <g id="twitter" transform="matrix(1,0,0,1,1786.14,0)">
            <rect x="0" y="0" width="800" height="800" style="fill:none;"/>
            <g transform="matrix(24.3475,0,0,24.3475,-3645.32,-8511.12)">
                <path d="M153.515,374.691C155.809,376.163 158.534,377.021 161.462,377.021C171.087,377.021 176.525,368.891 176.197,361.599C177.21,360.869 178.089,359.956 178.784,358.915C177.854,359.328 176.855,359.607 175.807,359.731C176.877,359.091 177.699,358.075 178.086,356.863C177.084,357.457 175.974,357.889 174.794,358.122C173.848,357.114 172.501,356.485 171.009,356.485C167.664,356.485 165.204,359.608 165.96,362.851C161.651,362.635 157.831,360.571 155.275,357.434C153.916,359.764 154.57,362.813 156.879,364.356C156.029,364.329 155.228,364.095 154.53,363.707C154.474,366.109 156.195,368.355 158.688,368.856C157.958,369.055 157.159,369.1 156.348,368.944C157.006,371.005 158.921,372.503 161.19,372.545C159.011,374.254 156.265,375.017 153.515,374.691Z" style="fill:rgb(16,20,22);fill-rule:nonzero;"/>
            </g>
        </g>
    </g>
</svg>
