<svg width="109" height="36" viewBox="0 0 109 36" fill="none" xmlns="http://www.w3.org/2000/svg">
<path d="M0 36L-1.57361e-06 4.53249e-06L109 -2.32052e-07L90.5775 18.2045L109 36L0 36Z" fill="#FFD500"/>
<path d="M30.4688 19.0078H27.5469L27.5312 17.3984H29.9844C30.4167 17.3984 30.7708 17.3438 31.0469 17.2344C31.3229 17.1198 31.5286 16.9557 31.6641 16.7422C31.8047 16.5234 31.875 16.2578 31.875 15.9453C31.875 15.5911 31.8073 15.3047 31.6719 15.0859C31.5417 14.8672 31.3359 14.7083 31.0547 14.6094C30.7786 14.5104 30.4219 14.4609 29.9844 14.4609H28.3594V24H26.0156V12.625H29.9844C30.6458 12.625 31.237 12.6875 31.7578 12.8125C32.2839 12.9375 32.7292 13.1276 33.0938 13.3828C33.4583 13.638 33.737 13.9609 33.9297 14.3516C34.1224 14.737 34.2188 15.1953 34.2188 15.7266C34.2188 16.1953 34.112 16.6276 33.8984 17.0234C33.6901 17.4193 33.3594 17.7422 32.9062 17.9922C32.4583 18.2422 31.8724 18.3802 31.1484 18.4062L30.4688 19.0078ZM30.3672 24H26.9062L27.8203 22.1719H30.3672C30.7786 22.1719 31.1146 22.1068 31.375 21.9766C31.6354 21.8411 31.8281 21.6589 31.9531 21.4297C32.0781 21.2005 32.1406 20.9375 32.1406 20.6406C32.1406 20.3073 32.0833 20.0182 31.9688 19.7734C31.8594 19.5286 31.6823 19.3411 31.4375 19.2109C31.1927 19.0755 30.8698 19.0078 30.4688 19.0078H28.2109L28.2266 17.3984H31.0391L31.5781 18.0312C32.2708 18.0208 32.8281 18.1432 33.25 18.3984C33.6771 18.6484 33.987 18.974 34.1797 19.375C34.3776 19.776 34.4766 20.2057 34.4766 20.6641C34.4766 21.3932 34.3177 22.0078 34 22.5078C33.6823 23.0026 33.2161 23.375 32.6016 23.625C31.9922 23.875 31.2474 24 30.3672 24ZM43.8672 22.1719V24H37.8125V22.1719H43.8672ZM38.5781 12.625V24H36.2344V12.625H38.5781ZM43.0781 17.2578V19.0391H37.8125V17.2578H43.0781ZM43.8594 12.625V14.4609H37.8125V12.625H43.8594ZM50.4766 12.625V24H48.1406V12.625H50.4766ZM53.9766 12.625V14.4609H44.6953V12.625H53.9766ZM59.0938 14.5703L56 24H53.5078L57.7344 12.625H59.3203L59.0938 14.5703ZM61.6641 24L58.5625 14.5703L58.3125 12.625H59.9141L64.1641 24H61.6641ZM61.5234 19.7656V21.6016H55.5156V19.7656H61.5234Z" fill="black"/>
</svg>
