<svg xmlns="http://www.w3.org/2000/svg" xml:space="preserve" fill-rule="evenodd" stroke-linejoin="round" stroke-miterlimit="2" clip-rule="evenodd" viewBox="0 0 386 293">
  <path fill="none" d="M0 0H385.078V292.444H0z"/>
  <path d="M102.672,92.409c-33.555,-2.361 -66.834,10.532 -87.723,39.563c-0.357,0.496 -0.677,1.017 -0.957,1.56c-12.407,24.014 -10.598,42.934 -5.678,62.121c0.162,0.63 0.372,1.247 0.63,1.845c13.322,30.87 43.45,48.094 46.151,49.665c18.558,10.802 50.621,16.233 77.447,14.272c10.625,-0.777 20.404,-2.831 28.493,-5.922c28.253,36.077 87.24,48.465 142.131,22.895c62.093,-28.925 90.376,-93.114 68.216,-140.685c-13.323,-28.599 -42.974,-47.106 -77.991,-51.033c3.146,-12.928 1.764,-24.649 -2.977,-36.072c-7.252,-17.474 -22.311,-32.665 -46.324,-41.682c-32.848,-12.844 -64.788,-10.954 -96.054,13.431c-0.047,0.037 -0.094,0.074 -0.141,0.111c-24.553,19.725 -40.441,43.161 -45.223,69.931Zm246.088,55.852c17.191,36.905 -7.961,85.085 -56.132,107.525c-48.172,22.44 -101.238,10.696 -118.43,-26.209c-17.191,-36.905 7.961,-85.085 56.133,-107.525c48.171,-22.439 101.237,-10.696 118.429,26.209Zm-186.028,-0.752c-35.879,-38.901 -97.157,-42.09 -126.984,-1.704c-8.202,16.387 -6.798,29.5 -3.507,42.675c10.444,23.21 33.353,35.919 35.406,37.114c0,-0 0.001,0 0.001,0c15.087,8.782 41.267,12.545 63.074,10.951c6.682,-0.488 12.984,-1.311 18.216,-2.816c-9.892,-27.281 -4.335,-59.015 13.794,-86.22Zm104.573,-61.058c3.594,-9.604 3.475,-18.037 0.06,-26.267c-4.951,-11.927 -15.705,-21.762 -32.109,-27.908c-0.058,-0.021 -0.116,-0.044 -0.174,-0.066c-24.492,-9.596 -48.322,-8.361 -71.63,9.782c-19.375,15.585 -32.439,33.792 -36.217,54.893c18.769,5.574 36.663,16.02 51.448,31.172c11.245,-11.301 25.046,-21.144 41.11,-28.627c15.771,-7.347 31.881,-11.56 47.512,-12.979Z"/>
</svg>
