<svg xmlns="http://www.w3.org/2000/svg" width="1920" height="540" viewBox="0 0 1920 540"><defs><linearGradient id="a" x1="0%" x2="84.504%" y1="41.172%" y2="49.209%"><stop offset="0%" stop-color="#00A98B"/><stop offset="100%" stop-color="#001B70"/></linearGradient><linearGradient id="b" x1="81.666%" x2="0%" y1="51.354%" y2="44.923%"><stop offset="0%" stop-color="#FFF700"/><stop offset="100%" stop-color="#FF000E"/></linearGradient></defs><g fill="none" fill-rule="evenodd" opacity=".155"><path fill="url(#a)" d="M3,1.13686838e-13 L1127.19613,1.13686838e-13 L1127.19613,1.13686838e-13 L745.9141,540 L3,540 C1.34314575,540 1.13889744e-13,538.656854 1.13686838e-13,537 L1.13686838e-13,3 C1.12595753e-13,1.34314575 1.34314575,1.13547108e-13 3,1.13686838e-13 Z"/><path fill="url(#b)" d="M748.9141,1.10844667e-11 L1920,1.10844667e-11 L1920,1.10844667e-11 L1538.71797,540 L748.9141,540 C747.257246,540 745.9141,538.656854 745.9141,537 L745.9141,3 C745.9141,1.34314575 747.257246,1.1084771e-11 748.9141,1.10844667e-11 Z" transform="rotate(180 1332.957 270)"/></g></svg>