<svg xmlns="http://www.w3.org/2000/svg" xml:space="preserve" fill-rule="evenodd" stroke-linejoin="round" clip-rule="evenodd" viewBox="0 0 29 29">
  <path d="M25.001,0l-21.001,0c-2.209,0 -4,1.791 -4,4l0,21c0,2.209 1.791,4 4,4l21.001,0c2.209,0 4,-1.791 4,-4l-0,-21c-0,-2.209 -1.791,-4 -4,-4Zm-21.001,2l14.403,0c-0,0 -10.074,25 -10.074,25c-0,0 -4.329,0 -4.329,0c-1.105,0 -2,-0.895 -2,-2l0,-21c0,-1.105 0.895,-2 2,-2Zm21.001,25l-14.49,-0c0,-0 10.074,-25 10.074,-25c-0,0 4.416,0 4.416,0c1.104,0 2,0.895 2,2c-0,-0 -0,21 -0,21c-0,1.105 -0.896,2 -2,2Z"/>
</svg>

