<svg xmlns="http://www.w3.org/2000/svg" width="764" height="215">
  <g fill="none" fill-rule="evenodd">
    <path fill="#013ABD" d="M21.0491803,0 L445.864922,0 L365.434616,214 L21.0491803,214 C9.42403904,214 0,204.575961 0,192.95082 L0,21.0491803 C0,9.42403904 9.42403904,0 21.0491803,0 Z" transform="translate(.88 .345)"/>
    <path fill="#FFD500" d="M741.320809,214 L365.619822,214 L446.050128,0 L741.320809,0 C752.945951,0 762.36999,9.42403904 762.36999,21.0491803 L762.36999,192.95082 C762.36999,204.575961 752.945951,214 741.320809,214 Z" transform="translate(.88 .345)"/>
    <path fill="#FFF" fill-rule="nonzero" d="M78.203 56.35 103.83 128.707 129.319 56.35 156.315 56.35 156.315 156.115 135.691 156.115 135.691 128.844 137.747 81.771 110.819 156.115 96.704 156.115 69.844 81.84 71.899 128.844 71.899 156.115 51.344 156.115 51.344 56.35zM273.758 108.494C273.758 118.315 272.022 126.925 268.55 134.326 265.079 141.726 260.111 147.436 253.647 151.455 247.184 155.475 239.772 157.485 231.413 157.485 223.145 157.485 215.767 155.498 209.281 151.524 202.794 147.55 197.77 141.874 194.207 134.497 190.644 127.12 188.839 118.635 188.794 109.042L188.794 104.108C188.794 94.287 190.564 85.642 194.104 78.174 197.644 70.705 202.646 64.972 209.11 60.975 215.573 56.979 222.962 54.98 231.276 54.98 239.589 54.98 246.978 56.979 253.442 60.975 259.905 64.972 264.907 70.705 268.448 78.174 271.988 85.642 273.758 94.265 273.758 104.04L273.758 108.494ZM252.928 103.971C252.928 93.511 251.055 85.563 247.309 80.127 243.564 74.691 238.219 71.973 231.276 71.973 224.378 71.973 219.056 74.657 215.311 80.024 211.565 85.391 209.669 93.26 209.624 103.629L209.624 108.494C209.624 118.68 211.496 126.583 215.242 132.201 218.988 137.82 224.378 140.629 231.413 140.629 238.31 140.629 243.609 137.923 247.309 132.51 251.009 127.097 252.882 119.206 252.928 108.836L252.928 103.971ZM341.592 131.379 364.204 56.35 387.089 56.35 352.35 156.115 330.903 156.115 296.301 56.35 319.118 56.35z" transform="translate(.88 .345)"/>
    <path fill="#013ABD" fill-rule="nonzero" d="M483.034532 135.558914 446.993292 135.558914 440.141345 156.114754 418.283635 156.114754 455.421186 56.3504098 474.469598 56.3504098 511.812708 156.114754 489.954998 156.114754 483.034532 135.558914ZM452.543369 118.908683 477.484455 118.908683 464.945392 81.5655738 452.543369 118.908683ZM559.228179 120.964267 559.228179 156.114754 538.672339 156.114754 538.672339 56.3504098 577.591396 56.3504098C585.082858 56.3504098 591.672147 57.7207992 597.359263 60.4615779 603.046378 63.2023566 607.420204 67.0965463 610.480741 72.144147 613.541277 77.1917478 615.071545 82.9359631 615.071545 89.376793 615.071545 99.152237 611.725511 106.860677 605.033443 112.502113 598.341375 118.143549 589.079827 120.964267 577.248799 120.964267L559.228179 120.964267ZM559.228179 104.314037 577.591396 104.314037C583.027274 104.314037 587.172702 103.035007 590.02768 100.476947 592.882657 97.9188866 594.310146 94.264515 594.310146 89.513832 594.310146 84.62611 592.871237 80.6748207 589.99342 77.6599641 587.115602 74.6451076 583.141473 73.0919997 578.071033 73.0006404L559.228179 73.0006404 559.228179 104.314037ZM667.283379 120.964267 667.283379 156.114754 646.727539 156.114754 646.727539 56.3504098 685.646596 56.3504098C693.138058 56.3504098 699.727347 57.7207992 705.414462 60.4615779 711.101578 63.2023566 715.475404 67.0965463 718.53594 72.144147 721.596477 77.1917478 723.126745 82.9359631 723.126745 89.376793 723.126745 99.152237 719.780711 106.860677 713.088643 112.502113 706.396575 118.143549 697.135027 120.964267 685.303999 120.964267L667.283379 120.964267ZM667.283379 104.314037 685.646596 104.314037C691.082474 104.314037 695.227902 103.035007 698.082879 100.476947 700.937857 97.9188866 702.365346 94.264515 702.365346 89.513832 702.365346 84.62611 700.926437 80.6748207 698.04862 77.6599641 695.170802 74.6451076 691.196673 73.0919997 686.126232 73.0006404L667.283379 73.0006404 667.283379 104.314037Z" transform="translate(.88 .345)"/>
  </g>
</svg>
