<svg viewBox="0 0 115 89" fill="none" xmlns="http://www.w3.org/2000/svg">
<path d="M104.375 3.04167C98.5934 1.21875 92.2393 0.4375 86.1455 0.4375C75.9893 0.4375 65.0518 2.52083 57.4997 8.25C49.9476 2.52083 39.0101 0.4375 28.8538 0.4375C18.6976 0.4375 7.76009 2.52083 0.208008 8.25V84.5521C0.208008 85.8542 1.51009 87.1562 2.81217 87.1562C3.33301 87.1562 3.59342 86.8958 4.11426 86.8958C11.1455 83.5104 21.3018 81.1667 28.8538 81.1667C39.0101 81.1667 49.9476 83.25 57.4997 88.9792C64.5309 84.5521 77.2913 81.1667 86.1455 81.1667C94.7393 81.1667 103.593 82.7292 110.885 86.6354C111.406 86.8958 111.666 86.8958 112.187 86.8958C113.489 86.8958 114.791 85.5938 114.791 84.2917V8.25C111.666 5.90625 108.281 4.34375 104.375 3.04167ZM104.375 73.3542C98.6455 71.5312 92.3955 70.75 86.1455 70.75C77.2913 70.75 64.5309 74.1354 57.4997 78.5625V18.6667C64.5309 14.2396 77.2913 10.8542 86.1455 10.8542C92.3955 10.8542 98.6455 11.6354 104.375 13.4583V73.3542Z" fill="#2D2D2D"/>
</svg>
