<?xml version="1.0" ?><!DOCTYPE svg  PUBLIC '-//W3C//DTD SVG 1.1//EN'  'http://www.w3.org/Graphics/SVG/1.1/DTD/svg11.dtd'><svg enable-background="new 0 0 91 91" height="50px" id="Layer_1" version="1.1" viewBox="0 0 91 91" width="50px" xml:space="preserve" xmlns="http://www.w3.org/2000/svg" xmlns:xlink="http://www.w3.org/1999/xlink"><g><g><path d="M45.501,3.171c-23.379,0-42.332,18.952-42.332,42.33c0,23.38,18.953,42.328,42.332,42.328    c23.38,0,42.33-18.948,42.33-42.328C87.831,22.123,68.881,3.171,45.501,3.171z M33,66.425v-41.85l33.068,20.926L33,66.425z" fill="#F4767A"/><path d="M45.501,90.329c-24.721,0-44.832-20.109-44.832-44.828c0-24.72,20.111-44.83,44.832-44.83    c24.72,0,44.83,20.11,44.83,44.83C90.331,70.22,70.221,90.329,45.501,90.329z M45.501,5.671c-21.963,0-39.832,17.868-39.832,39.83    c0,21.961,17.869,39.828,39.832,39.828s39.83-17.867,39.83-39.828C85.331,23.539,67.464,5.671,45.501,5.671z M33.79,68.925    c-0.414,0-0.83-0.103-1.206-0.31c-0.798-0.44-1.294-1.279-1.294-2.19v-41.85c0-0.911,0.496-1.75,1.295-2.19    c0.798-0.439,1.771-0.409,2.542,0.078l33.068,20.926c0.724,0.458,1.163,1.255,1.163,2.112s-0.439,1.654-1.163,2.112L35.127,68.537    C34.72,68.795,34.255,68.925,33.79,68.925z M36.29,29.115v32.77l25.893-16.384L36.29,29.115z" fill="#454B53"/></g></g></svg>