<svg viewBox="0 0 29 29" fill="none" xmlns="http://www.w3.org/2000/svg">
<path d="M26.0127 14.3519C26.0127 11.2592 24.7842 8.2932 22.5973 6.10636C20.4105 3.91953 17.4445 2.69097 14.3519 2.69097C11.2592 2.69097 8.2932 3.91953 6.10636 6.10636C3.91953 8.2932 2.69097 11.2592 2.69097 14.3519C2.69097 17.4445 3.91953 20.4105 6.10636 22.5973C8.2932 24.7842 11.2592 26.0127 14.3519 26.0127C17.4445 26.0127 20.4105 24.7842 22.5973 22.5973C24.7842 20.4105 26.0127 17.4445 26.0127 14.3519ZM0 14.3519C0 10.5455 1.51207 6.89505 4.20356 4.20356C6.89505 1.51207 10.5455 0 14.3519 0C18.1582 0 21.8086 1.51207 24.5001 4.20356C27.1916 6.89505 28.7037 10.5455 28.7037 14.3519C28.7037 18.1582 27.1916 21.8086 24.5001 24.5001C21.8086 27.1916 18.1582 28.7037 14.3519 28.7037C10.5455 28.7037 6.89505 27.1916 4.20356 24.5001C1.51207 21.8086 0 18.1582 0 14.3519ZM10.5565 8.24671C10.9825 8.01125 11.4983 8.01686 11.9188 8.27474L19.9917 13.2082C20.3897 13.4549 20.6364 13.8865 20.6364 14.3575C20.6364 14.8284 20.3897 15.2601 19.9917 15.5067L11.9188 20.4402C11.5039 20.6925 10.9825 20.7037 10.5565 20.4682C10.1304 20.2327 9.8669 19.7843 9.8669 19.2965V9.4184C9.8669 8.93066 10.1304 8.48217 10.5565 8.24671Z" fill="white"/>
</svg>
