<svg viewBox="0 0 42 25" fill="none" xmlns="http://www.w3.org/2000/svg">
<mask id="path-1-inside-1_635_616" fill="white">
<path d="M2.95005 15.5C2.95005 13.4645 3.2937 11.449 3.96137 9.5684C4.62904 7.68786 5.60766 5.97915 6.84135 4.53984C8.07504 3.10053 9.53965 1.95881 11.1515 1.17986C12.7634 0.400915 14.4911 -4.49702e-06 16.2358 -4.56057e-06C17.9805 -4.62412e-06 19.7081 0.400915 21.32 1.17986C22.9319 1.95881 24.3965 3.10053 25.6302 4.53984C26.8639 5.97915 27.8425 7.68786 28.5102 9.5684C29.1778 11.449 29.5215 13.4645 29.5215 15.5L16.2358 15.5L2.95005 15.5Z"/>
</mask>
<path d="M2.95005 15.5C2.95005 13.4645 3.2937 11.449 3.96137 9.5684C4.62904 7.68786 5.60766 5.97915 6.84135 4.53984C8.07504 3.10053 9.53965 1.95881 11.1515 1.17986C12.7634 0.400915 14.4911 -4.49702e-06 16.2358 -4.56057e-06C17.9805 -4.62412e-06 19.7081 0.400915 21.32 1.17986C22.9319 1.95881 24.3965 3.10053 25.6302 4.53984C26.8639 5.97915 27.8425 7.68786 28.5102 9.5684C29.1778 11.449 29.5215 13.4645 29.5215 15.5L16.2358 15.5L2.95005 15.5Z" stroke="white" stroke-width="4.72381" mask="url(#path-1-inside-1_635_616)"/>
<path d="M20.0027 7.73554C20.2979 7.90599 20.2979 8.33213 20.0027 8.50259L13.5813 12.21C13.286 12.3805 12.917 12.1674 12.917 11.8265L12.917 4.41164C12.917 4.07073 13.286 3.85766 13.5813 4.02812L20.0027 7.73554Z" fill="white"/>
<rect y="16.238" width="35.4286" height="4.42857" rx="2.21429" fill="white"/>
<rect x="31" y="20.6667" width="10.3333" height="4.42857" rx="2.21429" transform="rotate(-90 31 20.6667)" fill="white"/>
<rect x="31" y="7.38086" width="10.3333" height="7.38095" rx="2.95238" fill="white"/>
<rect x="5.90625" y="17.7141" width="7.38095" height="7.38095" rx="2.95238" fill="white"/>
<rect x="23.6182" y="17.7141" width="7.38095" height="7.38095" rx="2.95238" fill="white"/>
</svg>
