<svg viewBox="0 0 180 51" fill="none" xmlns="http://www.w3.org/2000/svg">
<rect x="8.71875" y="18.7266" width="3.1875" height="13.5469" rx="1.59375" fill="#013ABD"/>
<rect x="16.6875" y="15.9375" width="3.1875" height="19.125" rx="1.59375" fill="#013ABD"/>
<rect x="24.6562" y="11.9531" width="3.1875" height="27.0938" rx="1.59375" fill="#013ABD"/>
<rect x="32.625" y="13.1484" width="3.1875" height="24.7031" rx="1.59375" fill="#013ABD"/>
<rect x="40.5938" y="8.36719" width="3.1875" height="34.2656" rx="1.59375" fill="#013ABD"/>
<rect x="48.5625" y="3.98438" width="3.1875" height="43.0312" rx="1.59375" fill="#013ABD"/>
<rect x="56.5312" y="8.36719" width="3.1875" height="34.2656" rx="1.59375" fill="#013ABD"/>
<rect x="64.5" y="11.9531" width="3.1875" height="27.0938" rx="1.59375" fill="#013ABD"/>
<rect x="72.4688" y="16.7344" width="3.1875" height="17.5312" rx="1.59375" fill="#013ABD"/>
<rect x="80.4375" y="11.9531" width="3.1875" height="27.0938" rx="1.59375" fill="#013ABD"/>
<rect x="88.4062" y="8.36719" width="3.1875" height="34.2656" rx="1.59375" fill="#013ABD"/>
<rect x="96.375" y="8.36719" width="3.1875" height="34.2656" rx="1.59375" fill="#013ABD"/>
<rect x="104.344" y="3.98438" width="3.1875" height="43.0312" rx="1.59375" fill="#013ABD"/>
<rect x="112.312" y="3.98438" width="3.1875" height="43.0312" rx="1.59375" fill="#013ABD"/>
<rect x="120.281" y="8.36719" width="3.1875" height="34.2656" rx="1.59375" fill="#013ABD"/>
<rect x="128.25" y="11.9531" width="3.1875" height="27.0938" rx="1.59375" fill="#013ABD"/>
<rect x="136.219" y="16.7344" width="3.1875" height="17.5312" rx="1.59375" fill="#013ABD"/>
<rect x="144.188" y="16.7344" width="3.1875" height="17.5312" rx="1.59375" fill="#013ABD"/>
<rect x="152.156" y="11.9531" width="3.1875" height="27.0938" rx="1.59375" fill="#013ABD"/>
<rect x="160.125" y="16.7344" width="3.1875" height="17.5312" rx="1.59375" fill="#013ABD"/>
<rect x="168.094" y="21.5156" width="3.1875" height="7.96875" rx="1.59375" fill="#013ABD"/>
</svg>
