<svg viewBox="0 0 38 29" fill="none" xmlns="http://www.w3.org/2000/svg">
<path d="M31.6825 0.337908C35.5359 3.61116 38 8.60164 38 14.1935C38 19.7853 35.5359 24.7819 31.6825 28.049C31.0709 28.5697 30.1744 28.4706 29.6756 27.832C29.1769 27.1935 29.2719 26.2574 29.8834 25.7366C33.1016 23.0089 35.15 18.8554 35.15 14.1935C35.15 9.53154 33.1016 5.37798 29.8834 2.64407C29.2719 2.12332 29.1828 1.18722 29.6756 0.548686C30.1684 -0.0898468 31.0709 -0.182837 31.6825 0.331709V0.337908ZM28.0903 4.95642C30.6553 7.1386 32.3 10.4676 32.3 14.1935C32.3 17.9193 30.6553 21.2483 28.0903 23.4305C27.4788 23.9512 26.5822 23.852 26.0834 23.2135C25.5847 22.575 25.6797 21.6389 26.2912 21.1181C28.2209 19.4815 29.45 16.9894 29.45 14.1935C29.45 11.3975 28.2209 8.90541 26.2912 7.26258C25.6797 6.74184 25.5906 5.80574 26.0834 5.1672C26.5763 4.52867 27.4788 4.43568 28.0903 4.95022V4.95642ZM24.4981 9.57494C25.7747 10.666 26.6 12.3274 26.6 14.1935C26.6 16.0595 25.7747 17.7209 24.4981 18.812C23.8866 19.3327 22.99 19.2335 22.4912 18.595C21.9925 17.9565 22.0875 17.0204 22.6991 16.4996C23.3403 15.9541 23.75 15.1234 23.75 14.1935C23.75 13.2636 23.3403 12.4328 22.6991 11.8811C22.0875 11.3604 21.9984 10.4242 22.4912 9.78572C22.9841 9.14718 23.8866 9.05419 24.4981 9.56874V9.57494ZM17.8778 0.480493C18.5606 0.802859 19 1.50959 19 2.2907V26.0962C19 26.8773 18.5606 27.5841 17.8778 27.9064C17.195 28.2288 16.3934 28.0986 15.8353 27.5779L7.82562 20.1448H3.8C1.70406 20.1448 0 18.3656 0 16.1772V12.2097C0 10.0213 1.70406 8.24208 3.8 8.24208H7.82562L15.8353 0.809059C16.3934 0.288313 17.195 0.164326 17.8778 0.480493Z" fill="#2D2D2D"/>
</svg>
