<?xml version="1.0" encoding="UTF-8" standalone="no"?>
<!-- Created with Inkscape (http://www.inkscape.org/) -->

<svg
   width="31.030333mm"
   height="31.030333mm"
   viewBox="0 0 31.030333 31.030333"
   version="1.1"
   id="svg5677"
   inkscape:version="1.1 (c68e22c387, 2021-05-23)"
   sodipodi:docname="stories-play.svg"
   xmlns:inkscape="http://www.inkscape.org/namespaces/inkscape"
   xmlns:sodipodi="http://sodipodi.sourceforge.net/DTD/sodipodi-0.dtd"
   xmlns="http://www.w3.org/2000/svg"
   xmlns:svg="http://www.w3.org/2000/svg">
  <sodipodi:namedview
     id="namedview5679"
     pagecolor="#ffffff"
     bordercolor="#666666"
     borderopacity="1.0"
     inkscape:pageshadow="2"
     inkscape:pageopacity="0.0"
     inkscape:pagecheckerboard="0"
     inkscape:document-units="mm"
     showgrid="false"
     fit-margin-top="0"
     fit-margin-left="0"
     fit-margin-right="0"
     fit-margin-bottom="0"
     inkscape:zoom="1.8756036"
     inkscape:cx="268.98008"
     inkscape:cy="207.66649"
     inkscape:window-width="1920"
     inkscape:window-height="1017"
     inkscape:window-x="-8"
     inkscape:window-y="-8"
     inkscape:window-maximized="1"
     inkscape:current-layer="layer1" />
  <defs
     id="defs5674">
    <style
       id="style5746">.cls-1{fill:none;stroke:#231f20;stroke-miterlimit:10;stroke-width:4px;}</style>
  </defs>
  <g
     inkscape:label="Vrstva 1"
     inkscape:groupmode="layer"
     id="layer1"
     transform="translate(-22.298183,-93.519444)">
    <g
       id="g5762"
       transform="matrix(0.26458333,0,0,0.26458333,21.93835,93.159611)">
      <circle
         class="cls-1"
         cx="60"
         cy="60"
         r="56.639999"
         id="circle5752" />
      <path
         class="cls-1"
         d="M 81.35,55.76 51.46,38.5 a 4.9,4.9 0 0 0 -7.35,4.25 v 34.5 a 4.9,4.9 0 0 0 7.35,4.25 L 81.35,64.24 a 4.9,4.9 0 0 0 0,-8.48 z"
         id="path5754" />
    </g>
    <path
       style="fill:#013abd;fill-opacity:1;stroke-width:0.533162"
       d="m 130.17561,431.06923 c -0.7879,-0.7879 -0.8839,-2.82336 -0.8839,-18.74178 0,-11.2903 0.20298,-18.23716 0.55192,-18.88916 0.30356,-0.5672 1.10436,-1.03127 1.77955,-1.03127 1.16205,0 29.94256,16.22004 31.92417,17.99173 1.18996,1.06391 1.18996,2.41259 0,3.44875 -1.55971,1.35813 -30.10471,17.65006 -31.33745,17.88571 -0.63272,0.12095 -1.54815,-0.17784 -2.03429,-0.66398 z"
       id="path5764"
       transform="scale(0.26458333)" />
    <path
       style="fill:#ffd500;fill-opacity:1;stroke-width:0.533162"
       d="m 135.46826,465.92649 c -12.63008,-1.8421 -25.54034,-8.86614 -33.46488,-18.20714 -6.315248,-7.44406 -10.375154,-15.6783 -12.284391,-24.915 -1.521869,-7.36266 -1.132688,-18.57054 0.879637,-25.3323 9.802314,-32.93747 46.097234,-49.14712 76.232824,-34.04629 6.18064,3.09709 9.42492,5.48893 14.71011,10.84499 16.30769,16.52637 20.25448,40.623 10.10374,61.68703 -10.00579,20.76324 -33.46978,33.28055 -56.17704,29.96871 z m 13.07673,-37.79252 c 20.85703,-12.02797 20.20263,-11.50693 20.1987,-16.08223 -0.004,-4.21 -0.67752,-4.76151 -17.9749,-14.71033 -8.79214,-5.05692 -16.71994,-9.34124 -17.61734,-9.52072 -2.27282,-0.45456 -5.17532,0.62945 -6.77468,2.53018 l -1.35035,1.6048 v 20.14734 c 0,19.85238 0.0169,20.16882 1.1544,21.61491 1.52675,1.94095 3.99752,3.00484 6.36932,2.74256 1.2491,-0.13813 6.86792,-3.06314 15.99485,-8.32651 z"
       id="path5920"
       transform="scale(0.26458333)"
       inkscape:export-filename="C:\Users\barbora.skalova\Documents\UA\movapp\public\icons\stories-play.png"
       inkscape:export-xdpi="96"
       inkscape:export-ydpi="96" />
    <path
       style="fill:#64a5da;fill-opacity:1;stroke-width:0.533162"
       d="m 45.838711,76.473996 c -0.685763,-1.803691 -0.685763,-33.848725 0,-35.652417 0.290389,-0.763781 0.940587,-1.367613 1.472627,-1.367613 0.944255,0 16.173679,8.299675 26.637125,14.516602 5.373432,3.19266 6.247223,4.012971 5.724793,5.374404 -0.501868,1.307845 -30.557553,18.496638 -32.342536,18.496638 -0.552846,0 -1.196281,-0.589789 -1.492009,-1.367614 z"
       id="path6162"
       transform="matrix(0.26458333,0,0,0.26458333,22.298183,93.519444)" />
    <path
       style="fill:#fad741;fill-opacity:1;stroke-width:0.533162"
       d="M 46.620525,111.19597 C 26.664271,106.03611 12.474835,92.424499 6.5701878,72.776573 5.2363429,68.338157 5.1294414,67.278045 5.1454461,58.647788 5.1599507,50.82653 5.346088,48.646242 6.2963006,45.167444 10.50871,29.745508 21.818606,16.426723 36.573499,9.5123478 44.416185,5.8371412 48.002106,5.1187614 58.647788,5.09013 c 8.199089,-0.022051 9.84747,0.1238858 13.595624,1.2036717 5.666336,1.6323838 14.142706,5.7453703 18.241221,8.8511803 4.76284,3.609229 11.208677,10.723377 14.175717,15.645468 5.0786,8.425036 7.21544,15.392983 7.67788,25.036632 0.35232,7.34711 -0.28075,12.467953 -2.35905,19.082138 -2.85766,9.094491 -7.08898,15.757989 -14.404175,22.683733 -7.568859,7.165897 -16.780566,11.979177 -26.907957,14.059857 -6.301139,1.29458 -16.054374,1.09248 -22.046523,-0.45684 z M 52.92961,81.243181 C 61.282156,77.058267 80.318764,65.722508 82.549145,63.605595 84.899236,61.375059 84.908018,61.352933 84.654798,58.299463 84.420937,55.47937 84.216928,55.075082 82.113653,53.263609 79.838188,51.303837 64.041588,41.939826 54.382494,36.824952 47.733947,33.304283 45.061914,33.326553 41.695914,36.93069 l -1.223604,1.31017 0.15728,20.557802 0.157281,20.557804 1.332904,1.433523 c 2.764213,2.972883 5.547937,3.089592 10.809835,0.453192 z"
       id="path6386"
       transform="matrix(0.26458333,0,0,0.26458333,22.298183,93.519444)" />
  </g>
</svg>
