<svg width="263" height="74" viewBox="0 0 263 74" fill="none" xmlns="http://www.w3.org/2000/svg">
<g filter="url(#filter0_d_34_344)">
<rect x="2" y="2" width="254" height="64" rx="14" fill="#CE2021"/>
<rect x="1" y="1" width="256" height="66" rx="15" stroke="black" stroke-width="2"/>
</g>
<path d="M102.685 22.5273L108.222 33.2354L113.773 22.5273H116.981L109.628 35.8867V43.8555H106.801V35.8867L99.4473 22.5273H102.685ZM117.626 36.1064V35.7695C117.626 34.627 117.792 33.5674 118.124 32.5908C118.456 31.6045 118.935 30.75 119.56 30.0273C120.185 29.2949 120.941 28.7285 121.83 28.3281C122.719 27.918 123.715 27.7129 124.818 27.7129C125.932 27.7129 126.933 27.918 127.821 28.3281C128.72 28.7285 129.481 29.2949 130.106 30.0273C130.741 30.75 131.225 31.6045 131.557 32.5908C131.889 33.5674 132.055 34.627 132.055 35.7695V36.1064C132.055 37.249 131.889 38.3086 131.557 39.2852C131.225 40.2617 130.741 41.1162 130.106 41.8486C129.481 42.5713 128.725 43.1377 127.836 43.5479C126.957 43.9482 125.961 44.1484 124.848 44.1484C123.734 44.1484 122.733 43.9482 121.845 43.5479C120.956 43.1377 120.194 42.5713 119.56 41.8486C118.935 41.1162 118.456 40.2617 118.124 39.2852C117.792 38.3086 117.626 37.249 117.626 36.1064ZM120.336 35.7695V36.1064C120.336 36.8975 120.429 37.6445 120.614 38.3477C120.8 39.041 121.078 39.6562 121.449 40.1934C121.83 40.7305 122.304 41.1553 122.87 41.4678C123.437 41.7705 124.096 41.9219 124.848 41.9219C125.59 41.9219 126.239 41.7705 126.796 41.4678C127.362 41.1553 127.831 40.7305 128.202 40.1934C128.573 39.6562 128.852 39.041 129.037 38.3477C129.232 37.6445 129.33 36.8975 129.33 36.1064V35.7695C129.33 34.9883 129.232 34.251 129.037 33.5576C128.852 32.8545 128.568 32.2344 128.188 31.6973C127.816 31.1504 127.348 30.7207 126.781 30.4082C126.225 30.0957 125.57 29.9395 124.818 29.9395C124.076 29.9395 123.422 30.0957 122.855 30.4082C122.299 30.7207 121.83 31.1504 121.449 31.6973C121.078 32.2344 120.8 32.8545 120.614 33.5576C120.429 34.251 120.336 34.9883 120.336 35.7695ZM145.15 40.1934V28.0059H147.875V43.8555H145.282L145.15 40.1934ZM145.663 36.8535L146.791 36.8242C146.791 37.8789 146.679 38.8555 146.454 39.7539C146.239 40.6426 145.888 41.4141 145.399 42.0684C144.911 42.7227 144.271 43.2354 143.48 43.6064C142.689 43.9678 141.728 44.1484 140.595 44.1484C139.823 44.1484 139.115 44.0361 138.471 43.8115C137.836 43.5869 137.289 43.2402 136.83 42.7715C136.371 42.3027 136.015 41.6924 135.761 40.9404C135.517 40.1885 135.395 39.2852 135.395 38.2305V28.0059H138.104V38.2598C138.104 38.9727 138.183 39.5635 138.339 40.0322C138.505 40.4912 138.725 40.8574 138.998 41.1309C139.281 41.3945 139.594 41.5801 139.936 41.6875C140.287 41.7949 140.648 41.8486 141.02 41.8486C142.172 41.8486 143.085 41.6289 143.759 41.1895C144.433 40.7402 144.916 40.1396 145.209 39.3877C145.512 38.626 145.663 37.7812 145.663 36.8535ZM160.297 22.5273V43.8555H157.514V22.5273H160.297ZM167.152 22.5273V24.8418H150.673V22.5273H167.152ZM178.197 40.1934V28.0059H180.922V43.8555H178.329L178.197 40.1934ZM178.71 36.8535L179.838 36.8242C179.838 37.8789 179.726 38.8555 179.501 39.7539C179.286 40.6426 178.935 41.4141 178.446 42.0684C177.958 42.7227 177.318 43.2354 176.527 43.6064C175.736 43.9678 174.774 44.1484 173.642 44.1484C172.87 44.1484 172.162 44.0361 171.518 43.8115C170.883 43.5869 170.336 43.2402 169.877 42.7715C169.418 42.3027 169.062 41.6924 168.808 40.9404C168.563 40.1885 168.441 39.2852 168.441 38.2305V28.0059H171.151V38.2598C171.151 38.9727 171.229 39.5635 171.386 40.0322C171.552 40.4912 171.771 40.8574 172.045 41.1309C172.328 41.3945 172.641 41.5801 172.982 41.6875C173.334 41.7949 173.695 41.8486 174.066 41.8486C175.219 41.8486 176.132 41.6289 176.806 41.1895C177.479 40.7402 177.963 40.1396 178.256 39.3877C178.559 38.626 178.71 37.7812 178.71 36.8535ZM185.038 21.3555H187.763V40.7793L187.528 43.8555H185.038V21.3555ZM198.471 35.7988V36.1064C198.471 37.2588 198.334 38.3281 198.061 39.3145C197.787 40.291 197.387 41.1406 196.859 41.8633C196.332 42.5859 195.688 43.1475 194.926 43.5479C194.164 43.9482 193.29 44.1484 192.304 44.1484C191.298 44.1484 190.414 43.9775 189.652 43.6357C188.9 43.2842 188.266 42.7812 187.748 42.127C187.23 41.4727 186.815 40.6816 186.503 39.7539C186.2 38.8262 185.99 37.7812 185.873 36.6191V35.2715C185.99 34.0996 186.2 33.0498 186.503 32.1221C186.815 31.1943 187.23 30.4033 187.748 29.749C188.266 29.085 188.9 28.582 189.652 28.2402C190.404 27.8887 191.278 27.7129 192.274 27.7129C193.271 27.7129 194.154 27.9082 194.926 28.2988C195.697 28.6797 196.342 29.2266 196.859 29.9395C197.387 30.6523 197.787 31.5068 198.061 32.5029C198.334 33.4893 198.471 34.5879 198.471 35.7988ZM195.746 36.1064V35.7988C195.746 35.0078 195.673 34.2656 195.526 33.5723C195.38 32.8691 195.146 32.2539 194.823 31.7266C194.501 31.1895 194.076 30.7695 193.549 30.4668C193.021 30.1543 192.372 29.998 191.601 29.998C190.917 29.998 190.321 30.1152 189.813 30.3496C189.315 30.584 188.891 30.9014 188.539 31.3018C188.188 31.6924 187.899 32.1416 187.675 32.6494C187.46 33.1475 187.299 33.665 187.191 34.2021V37.7324C187.348 38.416 187.602 39.0752 187.953 39.71C188.314 40.335 188.793 40.8477 189.389 41.248C189.994 41.6484 190.741 41.8486 191.63 41.8486C192.362 41.8486 192.987 41.7021 193.505 41.4092C194.032 41.1064 194.457 40.6914 194.779 40.1641C195.111 39.6367 195.355 39.0264 195.512 38.333C195.668 37.6396 195.746 36.8975 195.746 36.1064ZM208.476 44.1484C207.372 44.1484 206.371 43.9629 205.473 43.5918C204.584 43.2109 203.817 42.6787 203.173 41.9951C202.538 41.3115 202.05 40.501 201.708 39.5635C201.366 38.626 201.195 37.6006 201.195 36.4873V35.8721C201.195 34.583 201.386 33.4355 201.767 32.4297C202.147 31.4141 202.665 30.5547 203.319 29.8516C203.974 29.1484 204.716 28.6162 205.546 28.2549C206.376 27.8936 207.235 27.7129 208.124 27.7129C209.257 27.7129 210.233 27.9082 211.054 28.2988C211.884 28.6895 212.562 29.2363 213.09 29.9395C213.617 30.6328 214.008 31.4531 214.262 32.4004C214.516 33.3379 214.643 34.3633 214.643 35.4766V36.6924H202.807V34.4805H211.933V34.2754C211.894 33.5723 211.747 32.8887 211.493 32.2246C211.249 31.5605 210.858 31.0137 210.321 30.584C209.784 30.1543 209.052 29.9395 208.124 29.9395C207.509 29.9395 206.942 30.0713 206.425 30.335C205.907 30.5889 205.463 30.9697 205.092 31.4775C204.721 31.9854 204.433 32.6055 204.228 33.3379C204.022 34.0703 203.92 34.915 203.92 35.8721V36.4873C203.92 37.2393 204.022 37.9473 204.228 38.6113C204.442 39.2656 204.75 39.8418 205.15 40.3398C205.561 40.8379 206.054 41.2285 206.63 41.5117C207.216 41.7949 207.88 41.9365 208.622 41.9365C209.579 41.9365 210.39 41.7412 211.054 41.3506C211.718 40.96 212.299 40.4375 212.797 39.7832L214.438 41.0869C214.096 41.6045 213.661 42.0977 213.134 42.5664C212.606 43.0352 211.957 43.416 211.186 43.709C210.424 44.002 209.521 44.1484 208.476 44.1484Z" fill="white"/>
<path d="M77.9785 34L50.2285 51.3205L50.2285 16.6795L77.9785 34Z" fill="white"/>
<defs>
<filter id="filter0_d_34_344" x="0" y="0" width="263" height="74" filterUnits="userSpaceOnUse" color-interpolation-filters="sRGB">
<feFlood flood-opacity="0" result="BackgroundImageFix"/>
<feColorMatrix in="SourceAlpha" type="matrix" values="0 0 0 0 0 0 0 0 0 0 0 0 0 0 0 0 0 0 127 0" result="hardAlpha"/>
<feOffset dx="5" dy="6"/>
<feComposite in2="hardAlpha" operator="out"/>
<feColorMatrix type="matrix" values="0 0 0 0 0 0 0 0 0 0 0 0 0 0 0 0 0 0 1 0"/>
<feBlend mode="normal" in2="BackgroundImageFix" result="effect1_dropShadow_34_344"/>
<feBlend mode="normal" in="SourceGraphic" in2="effect1_dropShadow_34_344" result="shape"/>
</filter>
</defs>
</svg>
