<svg width="66" height="38" viewBox="0 0 66 38" fill="none" xmlns="http://www.w3.org/2000/svg">
<path d="M63 21.5C64.3807 21.5 65.5 20.3807 65.5 19C65.5 17.6193 64.3807 16.5 63 16.5L63 21.5ZM1.23223 17.2322C0.255917 18.2085 0.25592 19.7915 1.23223 20.7678L17.1421 36.6777C18.1184 37.654 19.7014 37.654 20.6777 36.6777C21.654 35.7014 21.654 34.1184 20.6777 33.1421L6.53553 19L20.6777 4.85786C21.654 3.88155 21.654 2.29864 20.6777 1.32233C19.7014 0.346015 18.1184 0.346015 17.1421 1.32233L1.23223 17.2322ZM63 16.5L3 16.5L3 21.5L63 21.5L63 16.5Z" fill="#013ABD"/>
</svg>
