<?xml version="1.0" ?><svg id="svg11182" version="1.1" viewBox="0 0 480 480.00001" xmlns="http://www.w3.org/2000/svg" xmlns:cc="http://creativecommons.org/ns#" xmlns:dc="http://purl.org/dc/elements/1.1/" xmlns:inkscape="http://www.inkscape.org/namespaces/inkscape" xmlns:rdf="http://www.w3.org/1999/02/22-rdf-syntax-ns#" xmlns:sodipodi="http://sodipodi.sourceforge.net/DTD/sodipodi-0.dtd" xmlns:svg="http://www.w3.org/2000/svg"><defs id="defs11184"><clipPath clipPathUnits="userSpaceOnUse" id="clipPath29920-8-2-1"><ellipse cx="-514.28571" cy="506.64789" id="path29922-3-3-5" rx="260" ry="248.57143" style="fill:#a9b3c1;fill-opacity:1;stroke:none" transform="matrix(0.68483669,0,0,0.71632344,705.09921,116.38888)"/></clipPath></defs><g id="layer1" transform="translate(0,-572.36216)"><g id="g15097" transform="translate(5469.8984,-11285.71)"><path d="m -5229.8984,11858.073 c -132.8217,0 -240,107.179 -240,240 0,132.822 107.1783,239.998 240,239.998 132.8216,0 240,-107.176 240,-239.998 0,-132.821 -107.1784,-240 -240,-240 z" id="path15092" style="color:#000000;font-style:normal;font-variant:normal;font-weight:normal;font-stretch:normal;font-size:medium;line-height:normal;font-family:sans-serif;text-indent:0;text-align:start;text-decoration:none;text-decoration-line:none;text-decoration-style:solid;text-decoration-color:#000000;letter-spacing:normal;word-spacing:normal;text-transform:none;direction:ltr;block-progression:tb;writing-mode:lr-tb;baseline-shift:baseline;text-anchor:start;white-space:normal;clip-rule:nonzero;display:inline;overflow:visible;visibility:visible;opacity:1;isolation:auto;mix-blend-mode:normal;color-interpolation:sRGB;color-interpolation-filters:linearRGB;solid-color:#000000;solid-opacity:1;fill:#3b3c3d;fill-opacity:1;fill-rule:nonzero;stroke:none;stroke-width:15.99999905;stroke-linecap:butt;stroke-linejoin:miter;stroke-miterlimit:4;stroke-dasharray:none;stroke-dashoffset:0;stroke-opacity:1;color-rendering:auto;image-rendering:auto;shape-rendering:auto;text-rendering:auto;enable-background:accumulate"/><path d="m -5229.8984,11874.071 c 94.0996,0 174.1476,57.247 207.4511,139 l -221.2871,0 c -0.5729,-10.68 -1.0742,-16.18 -1.0742,-16.18 l -0.6973,-7.23 -156.4687,0 -0.6973,7.23 c 0,0 -0.4998,5.5 -1.0722,16.18 l -33.6055,0 c 33.3035,-81.753 113.3515,-139 207.4512,-139 z" id="path15090" style="color:#000000;font-style:normal;font-variant:normal;font-weight:normal;font-stretch:normal;font-size:medium;line-height:normal;font-family:sans-serif;text-indent:0;text-align:start;text-decoration:none;text-decoration-line:none;text-decoration-style:solid;text-decoration-color:#000000;letter-spacing:normal;word-spacing:normal;text-transform:none;direction:ltr;block-progression:tb;writing-mode:lr-tb;baseline-shift:baseline;text-anchor:start;white-space:normal;clip-rule:nonzero;display:inline;overflow:visible;visibility:visible;opacity:1;isolation:auto;mix-blend-mode:normal;color-interpolation:sRGB;color-interpolation-filters:linearRGB;solid-color:#000000;solid-opacity:1;fill:#ffffff;fill-opacity:1;fill-rule:nonzero;stroke:none;stroke-width:15.99999905;stroke-linecap:butt;stroke-linejoin:miter;stroke-miterlimit:4;stroke-dasharray:none;stroke-dashoffset:0;stroke-opacity:1;color-rendering:auto;image-rendering:auto;shape-rendering:auto;text-rendering:auto;enable-background:accumulate"/><path d="m -5387.1973,12005.661 126.9141,0 c 0.626,7.886 2.2559,31.003 2.2559,82.873 0,17.748 -3.6613,32.739 -9.5723,45.451 -0.5719,-0.636 -1.1613,-1.264 -1.791,-1.871 -3.8956,-3.753 -9.3822,-7.01 -15.9649,-7.01 -5.9488,0 -10.6238,2.016 -14.2246,4.559 -0.352,-0.557 -0.6259,-1.085 -1.0117,-1.647 -4.4301,-6.463 -11.883,-14.42 -23.1562,-14.42 -11.273,0 -18.7261,7.957 -23.1563,14.42 -0.3849,0.561 -0.6585,1.088 -1.0098,1.643 -3.5972,-2.541 -8.2676,-4.555 -14.2109,-4.555 -6.5826,0 -12.0673,3.257 -15.9629,7.01 -0.6297,0.607 -1.219,1.235 -1.791,1.871 -5.9109,-12.712 -9.5723,-27.702 -9.5723,-45.451 0,-51.869 1.6281,-74.986 2.2539,-82.873 z" id="path15088" style="color:#000000;font-style:normal;font-variant:normal;font-weight:normal;font-stretch:normal;font-size:medium;line-height:normal;font-family:sans-serif;text-indent:0;text-align:start;text-decoration:none;text-decoration-line:none;text-decoration-style:solid;text-decoration-color:#000000;letter-spacing:normal;word-spacing:normal;text-transform:none;direction:ltr;block-progression:tb;writing-mode:lr-tb;baseline-shift:baseline;text-anchor:start;white-space:normal;clip-rule:nonzero;display:inline;overflow:visible;visibility:visible;opacity:1;isolation:auto;mix-blend-mode:normal;color-interpolation:sRGB;color-interpolation-filters:linearRGB;solid-color:#000000;solid-opacity:1;fill:#ea6153;fill-opacity:1;fill-rule:nonzero;stroke:none;stroke-width:15.99999905;stroke-linecap:butt;stroke-linejoin:miter;stroke-miterlimit:4;stroke-dasharray:none;stroke-dashoffset:0;stroke-opacity:1;color-rendering:auto;image-rendering:auto;shape-rendering:auto;text-rendering:auto;enable-background:accumulate"/><path d="m -5443.1621,12029.071 38.7051,0 c -0.5398,14.623 -0.9942,34.165 -0.9942,59.463 0,34.205 12.4604,59.9 28.8262,79.037 l -66.3789,0 c -7.0652,-21.857 -10.8945,-45.207 -10.8945,-69.498 0,-24.108 3.7729,-47.287 10.7363,-69.002 z" id="path15086" style="color:#000000;font-style:normal;font-variant:normal;font-weight:normal;font-stretch:normal;font-size:medium;line-height:normal;font-family:sans-serif;text-indent:0;text-align:start;text-decoration:none;text-decoration-line:none;text-decoration-style:solid;text-decoration-color:#000000;letter-spacing:normal;word-spacing:normal;text-transform:none;direction:ltr;block-progression:tb;writing-mode:lr-tb;baseline-shift:baseline;text-anchor:start;white-space:normal;clip-rule:nonzero;display:inline;overflow:visible;visibility:visible;opacity:1;isolation:auto;mix-blend-mode:normal;color-interpolation:sRGB;color-interpolation-filters:linearRGB;solid-color:#000000;solid-opacity:1;fill:#3d6591;fill-opacity:1;fill-rule:nonzero;stroke:none;stroke-width:15.99999905;stroke-linecap:butt;stroke-linejoin:miter;stroke-miterlimit:4;stroke-dasharray:none;stroke-dashoffset:0;stroke-opacity:1;color-rendering:auto;image-rendering:auto;shape-rendering:auto;text-rendering:auto;enable-background:accumulate"/><path d="m -5243.0234,12029.071 226.3886,0 c 6.9634,21.715 10.7364,44.894 10.7364,69.002 0,24.291 -3.8293,47.641 -10.8946,69.498 l -254.0605,0 c 16.3663,-19.137 28.8262,-44.832 28.8262,-79.037 0,-25.298 -0.456,-44.84 -0.9961,-59.463 z" id="path15084" style="color:#000000;font-style:normal;font-variant:normal;font-weight:normal;font-stretch:normal;font-size:medium;line-height:normal;font-family:sans-serif;text-indent:0;text-align:start;text-decoration:none;text-decoration-line:none;text-decoration-style:solid;text-decoration-color:#000000;letter-spacing:normal;word-spacing:normal;text-transform:none;direction:ltr;block-progression:tb;writing-mode:lr-tb;baseline-shift:baseline;text-anchor:start;white-space:normal;clip-rule:nonzero;display:inline;overflow:visible;visibility:visible;opacity:1;isolation:auto;mix-blend-mode:normal;color-interpolation:sRGB;color-interpolation-filters:linearRGB;solid-color:#000000;solid-opacity:1;fill:#3d6591;fill-opacity:1;fill-rule:nonzero;stroke:none;stroke-width:15.99999905;stroke-linecap:butt;stroke-linejoin:miter;stroke-miterlimit:4;stroke-dasharray:none;stroke-dashoffset:0;stroke-opacity:1;color-rendering:auto;image-rendering:auto;shape-rendering:auto;text-rendering:auto;enable-background:accumulate"/><path d="m -5323.748,12129.596 c 3.2163,0 6.8869,2.984 9.9589,7.465 3.0721,4.482 4.7481,9.094 4.7481,9.094 l 6.9394,19.576 7.9864,-19.17 c 0,0 1.6206,-5.457 8.7597,-5.457 1.4153,0 2.8756,0.618 4.8633,2.533 1.4118,1.361 2.8613,3.314 4.168,5.44 -13.2539,18.947 -31.548,31.539 -47.416,40.232 -15.8672,-8.693 -34.1605,-21.285 -47.4141,-40.232 1.3061,-2.126 2.7542,-4.079 4.166,-5.44 1.9877,-1.915 3.448,-2.533 4.8633,-2.533 7.1385,0 8.7383,5.446 8.7383,5.446 l 7.9746,19.222 6.9551,-19.613 c 0,0 1.6757,-4.616 4.748,-9.098 3.0723,-4.481 6.7455,-7.465 9.961,-7.465 z" id="path15082" style="color:#000000;font-style:normal;font-variant:normal;font-weight:normal;font-stretch:normal;font-size:medium;line-height:normal;font-family:sans-serif;text-indent:0;text-align:start;text-decoration:none;text-decoration-line:none;text-decoration-style:solid;text-decoration-color:#000000;letter-spacing:normal;word-spacing:normal;text-transform:none;direction:ltr;block-progression:tb;writing-mode:lr-tb;baseline-shift:baseline;text-anchor:start;white-space:normal;clip-rule:nonzero;display:inline;overflow:visible;visibility:visible;opacity:1;isolation:auto;mix-blend-mode:normal;color-interpolation:sRGB;color-interpolation-filters:linearRGB;solid-color:#000000;solid-opacity:1;fill:#3d6591;fill-opacity:1;fill-rule:nonzero;stroke:none;stroke-width:15.99999905;stroke-linecap:butt;stroke-linejoin:miter;stroke-miterlimit:4;stroke-dasharray:none;stroke-dashoffset:0;stroke-opacity:1;color-rendering:auto;image-rendering:auto;shape-rendering:auto;text-rendering:auto;enable-background:accumulate"/><path d="m -5437.1484,12183.571 76.6543,0 c 11.2115,9.501 22.9119,16.688 33.0371,22 l 1.7441,0.914 1.9707,0 1.9727,0 1.7441,-0.914 c 10.1259,-5.312 21.827,-12.499 33.0391,-22 l 264.3379,0 c -33.4244,81.49 -113.34,138.502 -207.25,138.502 -93.9101,0 -173.8257,-57.012 -207.25,-138.502 z" id="rect10682-6" style="color:#000000;font-style:normal;font-variant:normal;font-weight:normal;font-stretch:normal;font-size:medium;line-height:normal;font-family:sans-serif;text-indent:0;text-align:start;text-decoration:none;text-decoration-line:none;text-decoration-style:solid;text-decoration-color:#000000;letter-spacing:normal;word-spacing:normal;text-transform:none;direction:ltr;block-progression:tb;writing-mode:lr-tb;baseline-shift:baseline;text-anchor:start;white-space:normal;clip-rule:nonzero;display:inline;overflow:visible;visibility:visible;opacity:1;isolation:auto;mix-blend-mode:normal;color-interpolation:sRGB;color-interpolation-filters:linearRGB;solid-color:#000000;solid-opacity:1;fill:#ea6153;fill-opacity:1;fill-rule:nonzero;stroke:none;stroke-width:15.99999905;stroke-linecap:butt;stroke-linejoin:miter;stroke-miterlimit:4;stroke-dasharray:none;stroke-dashoffset:0;stroke-opacity:1;color-rendering:auto;image-rendering:auto;shape-rendering:auto;text-rendering:auto;enable-background:accumulate"/><path d="m -5333.7754,11442.391 c 0,0 3.4807,16.405 3.8457,29.421 -7.0983,0.07 -17.3176,-0.308 -28.8691,-4.517 0,0 0.3574,5.275 0.3574,11.42 0,6.145 -0.3574,11.418 -0.3574,11.418 11.5686,-4.216 21.8002,-4.588 28.9004,-4.518 l 0,20.557 c -7.7902,0.137 -22.9877,0.469 -36.5215,-4.463 0,0 0.3574,5.274 0.3574,11.418 0,6.145 -0.3574,11.42 -0.3574,11.42 12.4144,-4.527 27.7431,-4.619 36.5215,-4.498 l 0,22.027 c 1.9107,-0.533 3.956,-0.842 6.1504,-0.842 2.1966,0 4.2438,0.31 6.1562,0.844 l 0,-22.029 c 8.7786,-0.121 24.1077,-0.03 36.5215,4.498 0,0 -0.3574,-5.274 -0.3574,-11.42 0,-6.144 0.3574,-11.418 0.3574,-11.418 -13.5337,4.932 -28.7312,4.601 -36.5215,4.463 l 0,0 0,-20.555 c 7.1001,-0.07 17.3323,0.302 28.9004,4.518 0,0 -0.3574,-5.275 -0.3574,-11.42 0,-6.145 0.3574,-11.42 0.3574,-11.42 -11.5512,4.209 -21.7703,4.588 -28.8691,4.518 0.3656,-13.015 3.8457,-29.42 3.8457,-29.42 0,0 -7.1637,0.607 -10.0313,0.607 -2.8646,0 -10.0293,-0.607 -10.0293,-0.607 z" id="path18-70-4" style="fill:#ffffff;stroke:none" transform="translate(0,572.3621)"/></g></g></svg>