<?xml version="1.0" encoding="UTF-8" standalone="no"?><!DOCTYPE svg PUBLIC "-//W3C//DTD SVG 1.1//EN" "http://www.w3.org/Graphics/SVG/1.1/DTD/svg11.dtd"><svg width="100%" height="100%" viewBox="0 0 420 420" version="1.1" xmlns="http://www.w3.org/2000/svg" xmlns:xlink="http://www.w3.org/1999/xlink" xml:space="preserve" xmlns:serif="http://www.serif.com/" style="fill-rule:evenodd;clip-rule:evenodd;stroke-linejoin:round;stroke-miterlimit:2;"><rect id="Artboard2" x="0" y="0" width="419.528" height="419.528" style="fill:none;"/><g id="Layer6"></g><g><g><path d="M178.36,56.361c-0.585,-0.501 -1.419,-1.053 -2.435,-1.591c-2.469,-1.31 -6.067,-2.629 -9.307,-3.174c-2.102,-0.354 -4.065,-0.362 -5.553,0.069c-0.214,-0.076 -0.48,-0.167 -0.618,-0.202c-0.259,-0.064 -0.474,-0.07 -0.612,-0.059c-0.574,0.044 -0.913,0.336 -1.116,0.605c-0.2,0.265 -0.746,1.268 0.273,2.098c0.206,0.168 1.391,0.811 1.477,0.857c1.135,0.612 2.249,1.291 3.251,2.104c0.413,0.335 0.479,0.873 0.493,1.364c0.007,0.219 -0.003,0.435 -0.023,0.641c-3.456,-1.066 -11.851,-2.874 -21.999,0.484c-17.23,5.702 -33.628,17.088 -40.565,34.908c-6.561,16.855 -7.802,38.992 -1.677,55.981c0.421,1.166 3.922,10.089 5.982,13.727c0.446,0.789 0.858,1.363 1.165,1.664c0.391,0.383 0.781,0.534 1.073,0.584c0.322,0.054 1.294,0.065 1.742,-1.066c0.348,-0.878 1.101,-5.451 1.163,-5.718c0.794,-3.419 2.082,-6.676 4.281,-9.443c0.069,-0.087 0.168,-0.181 0.242,-0.248c0.12,0.113 0.324,0.315 0.443,0.481c0.809,1.133 1.428,2.839 1.859,3.686c0.15,0.296 0.365,0.927 0.365,0.927c0.222,0.64 0.845,1.051 1.52,1.004c0.676,-0.047 1.236,-0.54 1.368,-1.204c-0,-0 0.184,-0.929 0.275,-1.393c0.46,-2.343 0.945,-4.653 1.659,-6.936c0.754,-2.408 1.113,-4.754 1.752,-7.001c0.865,-3.04 2.303,-5.877 6.375,-8.4c0.902,-0.56 2.348,-0.847 4.166,-1.1c3.113,-0.431 7.217,-0.653 11.75,-1.217c11.752,-1.464 26.243,-5.23 34.498,-20.097c0.402,-0.724 0.141,-1.638 -0.583,-2.04c-0.724,-0.402 -1.637,-0.14 -2.039,0.583c-7.695,13.858 -21.293,17.212 -32.247,18.577c-4.549,0.566 -8.667,0.79 -11.791,1.223c-2.341,0.325 -4.173,0.801 -5.335,1.521c-4.907,3.041 -6.637,6.465 -7.679,10.13c-0.632,2.222 -0.984,4.543 -1.73,6.925c-0.431,1.376 -0.783,2.762 -1.096,4.158c-0.408,-0.747 -0.864,-1.452 -1.357,-1.929c-0.709,-0.686 -1.509,-1.015 -2.323,-0.968c-0.746,0.043 -1.605,0.4 -2.441,1.451c-2.479,3.12 -3.959,6.777 -4.854,10.631c-0.025,0.105 -0.216,1.084 -0.426,2.173c-1.99,-4.046 -4.6,-10.719 -4.954,-11.702c-5.895,-16.351 -4.665,-37.654 1.65,-53.875c6.606,-16.971 22.303,-27.719 38.711,-33.149c12.161,-4.024 21.556,0.021 21.556,0.021c0.38,0.165 0.812,0.166 1.193,0.002c0.38,-0.164 0.676,-0.479 0.817,-0.869c-0,0 0.563,-1.562 0.513,-3.217c-0.04,-1.336 -0.48,-2.693 -1.602,-3.604c-0.132,-0.107 -0.267,-0.213 -0.403,-0.317c0.299,0.036 0.604,0.081 0.914,0.133c2.923,0.492 6.17,1.684 8.398,2.866c0.924,0.49 1.899,1.275 2.118,1.455c0.2,1.135 0.865,1.503 1.214,1.616c0.465,0.15 1.135,0.162 1.781,-0.494c0.234,-0.238 0.547,-0.699 0.891,-1.322c0.58,-1.05 1.364,-2.683 2.317,-4.069c0.28,-0.407 0.573,-0.792 0.883,-1.123c0.081,0.681 0.168,1.443 0.236,2.067c0.138,1.279 0.329,2.401 0.507,2.816c0.428,0.999 1.224,1.099 1.691,1.042c0.777,-0.094 3.032,-1.1 5.328,-2.139c1.129,-0.511 2.565,-1.051 3.54,-1.402c-0.094,0.26 -0.21,0.53 -0.337,0.802c-0.851,1.814 -2.227,3.677 -2.227,3.677c-0.363,0.492 -0.39,1.156 -0.069,1.677c0.321,0.521 0.926,0.794 1.529,0.691c0,0 15.927,-2.69 30.257,9.077c21.583,17.723 31.57,42.484 32.442,62.988c0.337,7.933 0.548,20.449 -2.836,30.271c-2.134,6.194 -5.7,11.317 -11.79,13.208c-0.791,0.246 -1.234,1.087 -0.988,1.878c0.245,0.79 1.087,1.233 1.877,0.987c7.021,-2.18 11.277,-7.955 13.738,-15.096c3.508,-10.182 3.346,-23.152 2.996,-31.376c-0.902,-21.212 -11.206,-46.843 -33.536,-65.179c-11.429,-9.385 -23.813,-10.203 -29.493,-9.992c0.485,-0.839 0.963,-1.77 1.269,-2.624c0.544,-1.521 0.453,-2.881 -0.148,-3.664c-0.236,-0.308 -0.586,-0.565 -1.099,-0.669c-0.37,-0.076 -0.966,-0.053 -1.709,0.15c-1.57,0.429 -4.259,1.69 -6.44,2.674c-0.515,0.232 -0.994,0.453 -1.409,0.633c-0.073,-0.526 -0.152,-1.14 -0.206,-1.672c-0.154,-1.533 -0.323,-3.05 -0.482,-3.537c-0.382,-1.165 -1.329,-1.22 -1.732,-1.163c-1.227,0.171 -2.418,0.995 -3.445,2.215c-1.123,1.334 -2.087,3.142 -2.827,4.538Z"/><path d="M224.749,155.633c0.008,-0.233 0.021,-0.503 0.043,-0.744c0.111,-1.201 0.303,-2.738 0.32,-4.176c0.023,-2.025 -0.399,-3.852 -1.39,-4.818c-4.893,-4.771 -8.658,-6.1 -12.505,-14.493c-1.508,-3.29 -2.028,-6.728 -2.796,-9.91c-0.859,-3.561 -2.025,-6.817 -4.751,-9.377c-3.512,-3.297 -9.749,-5.506 -21.87,-5.316c-0.828,0.013 -1.489,0.695 -1.476,1.523c0.013,0.828 0.695,1.489 1.523,1.476c10.92,-0.171 16.606,1.533 19.77,4.504c2.281,2.143 3.169,4.913 3.888,7.894c0.811,3.36 1.392,6.981 2.985,10.456c4.066,8.873 7.965,10.347 13.137,15.391c0.161,0.156 0.237,0.393 0.306,0.656c0.119,0.449 0.165,0.97 0.177,1.518c0.045,2.003 -0.359,4.325 -0.383,5.614c-0.013,0.683 0.095,1.197 0.235,1.499c0.212,0.458 0.532,0.729 0.878,0.884c1.163,0.521 2.18,0.552 3.077,0.286c1.208,-0.358 2.244,-1.326 3.089,-2.701c0.819,-1.335 1.49,-3.073 2.15,-4.705c0.552,-1.364 1.066,-2.653 1.745,-3.396c0.559,-0.61 0.517,-1.56 -0.094,-2.119c-0.611,-0.559 -1.561,-0.517 -2.119,0.094c-1.364,1.491 -2.354,4.72 -3.581,7.319c-0.391,0.828 -0.806,1.581 -1.309,2.118c-0.299,0.318 -0.641,0.519 -1.049,0.523Z"/><path d="M234.294,149.98c-0.032,0.179 -0.03,0.367 0.009,0.556c0.312,1.508 1.682,1.359 1.78,1.341c0.207,-0.037 1.194,-0.261 1.241,-1.447c0.01,-0.264 -0.191,-2.132 -0.229,-2.855c-0.086,-1.659 -0.215,-3.399 0.316,-4.997c0.7,-2.107 2.827,-4.404 5.18,-5.308c1.346,-0.517 2.787,-0.552 4.01,0.406c2.189,1.714 3.269,4.854 3.677,8.303c0.649,5.486 -0.475,11.811 -2.518,15.252c-2.031,3.422 -5.405,5.855 -8.761,7.853c-0.711,0.424 -0.945,1.345 -0.521,2.057c0.424,0.711 1.345,0.944 2.056,0.521c3.777,-2.25 7.52,-5.049 9.806,-8.9c2.297,-3.868 3.647,-10.966 2.917,-17.135c-0.511,-4.322 -2.063,-8.165 -4.807,-10.313c-2.12,-1.66 -4.602,-1.741 -6.935,-0.844c-3.166,1.217 -6.009,4.327 -6.951,7.163c-0.648,1.951 -0.57,4.07 -0.465,6.098c0.025,0.484 0.138,1.669 0.195,2.249Z"/><path d="M241.865,151.16l0.025,-2.884c0.592,-2.214 1.986,-4.109 3.795,-5.491c0.657,-0.503 0.783,-1.445 0.281,-2.103c-0.503,-0.658 -1.445,-0.784 -2.103,-0.281c-2.367,1.809 -4.16,4.317 -4.905,7.226c-0.039,0.153 -0.164,1.98 -0.129,3.236c0.021,0.775 0.159,1.387 0.267,1.604c0.298,0.599 0.764,0.793 1.13,0.858c0.378,0.067 0.806,0.025 1.234,-0.316c0.566,-0.451 0.719,-1.228 0.405,-1.849Zm-2.216,-0.541c-0.02,0.013 -0.039,0.028 -0.058,0.043l0.058,-0.043Zm0.042,-0.03l-0.029,0.021l0.048,-0.033l-0.019,0.012Zm0.051,-0.033l-0.02,0.013l0.05,-0.03l-0.03,0.017Zm0.05,-0.029l-0.008,0.004l0.047,-0.025l-0.039,0.021Z"/><path d="M243.298,144.651c-0.04,-0.147 -0.104,-0.29 -0.192,-0.425c-0.454,-0.692 -1.384,-0.885 -2.077,-0.431c-0.343,0.225 -0.774,0.663 -0.67,1.47c0.025,0.2 0.489,1.152 0.489,1.152c0,-0 -0.027,-0.052 -0.032,-0.063c0.467,0.961 0.85,1.965 1.183,2.979c0.887,2.702 1.598,5.482 1.22,8.342c-0.109,0.821 0.469,1.576 1.29,1.684c0.821,0.109 1.575,-0.469 1.684,-1.29c0.438,-3.313 -0.316,-6.543 -1.344,-9.672c-0.375,-1.142 -0.809,-2.274 -1.336,-3.356c-0.011,-0.022 -0.143,-0.26 -0.215,-0.39Z"/><path d="M112.365,165.589c1.927,5.64 7.419,16.99 10.522,22.06c4.886,7.985 8.052,16.623 12.45,24.09c4.578,7.773 10.458,14.305 20.672,17.747c6.537,2.202 31.372,3.625 38.646,1.297c3.345,-1.07 9.363,-4.881 15.644,-9.51c9.323,-6.871 19.248,-15.519 21.897,-19.255c4.251,-5.995 6.964,-14.926 6.618,-22.313c-0.038,-0.827 -0.741,-1.467 -1.568,-1.428c-0.827,0.038 -1.467,0.741 -1.429,1.568c0.317,6.767 -2.174,14.946 -6.068,20.438c-2.562,3.614 -12.211,11.927 -21.23,18.575c-5.948,4.384 -11.611,8.054 -14.779,9.068c-6.922,2.215 -30.553,0.813 -36.773,-1.283c-9.429,-3.177 -14.819,-9.251 -19.045,-16.427c-4.407,-7.481 -7.581,-16.133 -12.476,-24.133c-3.019,-4.933 -8.367,-15.976 -10.242,-21.464c-0.268,-0.783 -1.121,-1.202 -1.904,-0.934c-0.784,0.268 -1.202,1.121 -0.935,1.904Z"/><path d="M124.753,171.072c0.339,-0.084 1.141,-0.283 1.285,-0.321c2.026,-0.533 4.143,-0.811 6.219,-1.068c7.785,-0.963 15.522,-3.58 18.713,-11.485c0.31,-0.767 -0.062,-1.642 -0.829,-1.952c-0.768,-0.31 -1.643,0.062 -1.953,0.829c-2.752,6.816 -9.586,8.801 -16.3,9.631c-2.208,0.273 -4.458,0.577 -6.614,1.144c-0.215,0.057 -1.234,0.269 -1.727,0.453c-0.424,0.158 -0.695,0.382 -0.821,0.522c-0.33,0.367 -0.414,0.757 -0.4,1.098c0.012,0.312 0.109,0.627 0.352,0.921c0.518,0.625 1.439,0.723 2.075,0.228Zm0.286,-2.077c0.192,0.258 0.288,0.56 0.294,0.861c0.005,-0.295 -0.084,-0.584 -0.294,-0.861Z"/><path d="M170.828,154.73c1.185,-0.182 2.628,0.235 4.114,0.624c1.865,0.488 3.781,0.972 5.449,0.86c7.203,-0.484 13.663,-3.62 21.049,-3.379c0.827,0.027 1.521,-0.623 1.548,-1.45c0.027,-0.828 -0.623,-1.521 -1.45,-1.548c-7.488,-0.245 -14.045,2.893 -21.348,3.384c-1.377,0.092 -2.949,-0.367 -4.489,-0.77c-1.919,-0.502 -3.798,-0.922 -5.329,-0.686c-0.818,0.125 -1.38,0.892 -1.254,1.71c0.125,0.818 0.892,1.381 1.71,1.255Z"/><path d="M138.521,192.931c1.371,-0.61 2.032,-1.02 3.447,-1.521c3.163,-1.121 6.354,-2.191 9.572,-3.145c0.794,-0.235 1.247,-1.071 1.012,-1.864c-0.236,-0.794 -1.071,-1.247 -1.865,-1.012c-3.267,0.969 -6.509,2.055 -9.721,3.193c-1.502,0.532 -2.208,0.96 -3.665,1.608c-0.756,0.337 -1.097,1.224 -0.761,1.98c0.337,0.757 1.224,1.098 1.981,0.761Z"/><path d="M182.529,177.546c-0.323,0.146 -0.596,0.407 -0.751,0.756c-0.336,0.756 0.005,1.643 0.762,1.98c-0.021,-0.01 -0.064,-0.031 -0.064,-0.031c-0,0 1.238,0.268 1.77,-0.218c4.574,-4.185 11.878,-5.173 17.794,-6.113c0.818,-0.13 1.376,-0.899 1.246,-1.717c-0.129,-0.818 -0.899,-1.376 -1.716,-1.246c-6.325,1.005 -14.037,2.245 -19.041,6.589Z"/><path d="M208.591,170.818c0.364,-0.21 1.177,-0.678 1.308,-0.747c0.733,-0.383 1.018,-1.29 0.635,-2.024c-0.384,-0.733 -1.291,-1.018 -2.024,-0.635c-0.209,0.109 -1.37,0.726 -1.867,1.089c-0.485,0.355 -0.683,0.761 -0.743,0.95c-0.132,0.415 -0.078,0.777 0.057,1.084c0.153,0.346 0.439,0.741 1.09,0.883c0.606,0.132 1.207,-0.123 1.544,-0.6Zm-0.82,-2.31c0.257,0.072 0.481,0.208 0.658,0.387c-0.15,-0.164 -0.358,-0.307 -0.658,-0.387Z"/><path d="M210.032,171.818c-0.532,-0.282 -1.205,-0.225 -1.686,0.193c-0.625,0.543 -0.692,1.491 -0.149,2.116c0.209,0.241 0.643,0.546 1.315,0.654c0.84,0.134 2.565,0.003 3.003,0.051c0.823,0.091 1.564,-0.503 1.655,-1.326c0.091,-0.823 -0.503,-1.565 -1.326,-1.656c-0.383,-0.042 -2.477,-0.033 -2.812,-0.032Z"/><path d="M131.276,190.067c-0.715,-0.142 -1.446,0.256 -1.701,0.962c-0.281,0.779 0.123,1.639 0.902,1.92c0.201,0.073 0.62,0.139 1.155,0.109c0.475,-0.026 1.495,-0.095 1.774,-0.114c0.518,0.203 1.13,0.109 1.566,-0.293c0.609,-0.561 0.647,-1.511 0.086,-2.12c-0.217,-0.236 -0.676,-0.539 -1.383,-0.586c-0.612,-0.04 -2.18,0.101 -2.399,0.122Z"/><path d="M133.661,194.064c-0.12,0.045 -0.279,0.105 -0.313,0.12c-0.76,0.328 -1.111,1.211 -0.783,1.971c0.327,0.756 1.202,1.107 1.96,0.788c0.13,-0.054 0.79,-0.33 0.952,-0.456c0.222,-0.171 0.352,-0.358 0.433,-0.508c0.348,-0.655 0.253,-1.242 -0.234,-1.76c-0.535,-0.569 -1.411,-0.627 -2.015,-0.155Zm0.864,2.879l-0.023,0.009c0,0 0.027,-0.01 0.035,-0.014l-0.012,0.005Zm-1.439,-1.784c-0.038,0.377 0.07,0.73 0.35,1.054c-0.256,-0.303 -0.372,-0.682 -0.35,-1.054Z"/><path d="M167.317,198.316c-0.096,-0.517 -0.25,-1.163 -0.276,-1.793c-0.012,-0.311 -0.044,-0.63 0.146,-0.85c0.107,-0.124 0.269,-0.178 0.442,-0.221c0.345,-0.086 0.741,-0.09 1.155,-0.055c1.498,0.127 3.192,0.792 4.022,1.349c0.687,0.462 1.62,0.278 2.081,-0.409c0.462,-0.687 0.279,-1.62 -0.409,-2.081c-1.124,-0.755 -3.411,-1.676 -5.441,-1.849c-1.714,-0.145 -3.236,0.28 -4.121,1.306c-0.562,0.651 -0.828,1.48 -0.871,2.38c-0.045,0.946 0.175,1.982 0.323,2.774c0.153,0.814 0.937,1.351 1.751,1.199c0.813,-0.152 1.35,-0.937 1.198,-1.75Z"/><path d="M188.494,211.307c-0.037,-0.004 -0.118,-0.014 -0.168,-0.028c-0.124,-0.033 -0.251,-0.083 -0.382,-0.141c-0.41,-0.183 -0.838,-0.442 -1.277,-0.703c-0.849,-0.504 -1.731,-1.009 -2.58,-1.257c-0.787,-0.231 -1.559,-0.262 -2.295,-0.036c-1.57,0.481 -2.456,1.665 -3.096,3.072c-0.273,0.599 -0.501,1.236 -0.776,1.815c-0.23,0.485 -0.445,0.965 -0.961,1.123c-0.34,0.104 -0.617,-0.106 -0.913,-0.306c-0.422,-0.285 -0.835,-0.652 -1.261,-1.008c-1.582,-1.319 -3.329,-2.36 -5.549,-1.502c-2.073,0.802 -2.767,2.453 -2.996,4.354c-0.146,1.206 -0.012,2.531 -0.417,3.493c-0.321,0.763 0.037,1.643 0.8,1.965c0.763,0.321 1.644,-0.038 1.965,-0.801c0.42,-0.996 0.478,-2.281 0.564,-3.557c0.037,-0.547 0.082,-1.092 0.228,-1.582c0.138,-0.461 0.389,-0.862 0.938,-1.074c0.651,-0.251 1.178,0.006 1.669,0.334c0.554,0.369 1.068,0.844 1.582,1.263c1.34,1.092 2.728,1.762 4.27,1.289c1.471,-0.451 2.318,-1.617 2.945,-3.04c0.256,-0.583 0.48,-1.207 0.763,-1.777c0.256,-0.515 0.535,-1.012 1.125,-1.193c0.356,-0.109 0.721,0.076 1.107,0.254c0.714,0.331 1.433,0.811 2.119,1.194c1.488,0.832 2.918,1.118 4.045,0.479c0.533,-0.303 0.999,-0.798 1.378,-1.46c0.388,-0.676 0.698,-1.56 1.001,-2.473c0.238,-0.716 0.473,-1.453 0.785,-2.068c0.172,-0.339 0.328,-0.658 0.617,-0.787c0.257,-0.115 0.564,0.009 0.992,0.218c0.855,0.417 1.899,1.246 3.23,2.585c0.583,0.587 1.534,0.59 2.121,0.007c0.587,-0.584 0.591,-1.534 0.007,-2.121c-1.703,-1.714 -3.065,-2.71 -4.144,-3.216c-0.967,-0.453 -1.782,-0.562 -2.467,-0.478c-1.662,0.202 -2.779,1.619 -3.5,3.51c-0.329,0.865 -0.598,1.817 -0.919,2.628c-0.17,0.432 -0.278,0.847 -0.55,1.025Z"/><path d="M153.26,226.046c-4.153,2.305 -9.588,9.156 -10.967,13.668c-2.763,9.04 -2.524,18.674 -3.019,28.02c-0.838,15.839 -0.91,32.437 -0.91,32.437c-0.003,0.789 0.606,1.446 1.393,1.502c-0,0 20.84,1.496 34.814,-0.103c0.823,-0.094 1.414,-0.838 1.32,-1.66c-0.094,-0.823 -0.838,-1.414 -1.661,-1.32c-11.599,1.327 -28.004,0.48 -32.855,0.183c0.037,-4.319 0.206,-17.858 0.895,-30.88c0.482,-9.105 0.2,-18.495 2.892,-27.302c1.202,-3.934 5.933,-9.913 9.554,-11.922c0.723,-0.402 0.985,-1.316 0.583,-2.04c-0.402,-0.724 -1.316,-0.985 -2.039,-0.583Z"/><path d="M179.951,232.134c0.083,0.206 0.227,0.556 0.285,0.692c0.263,0.608 0.539,1.218 0.842,1.807c0.968,1.878 2.061,3.704 3.47,5.29c4.12,4.638 10.773,6.094 16.715,4.75c7.081,-1.602 13.275,-6.878 17.381,-13.547c4.083,-6.631 6.088,-14.615 4.949,-21.589c-0.134,-0.817 -0.905,-1.372 -1.722,-1.238c-0.817,0.133 -1.372,0.905 -1.239,1.722c1.031,6.314 -0.846,13.528 -4.542,19.532c-3.673,5.965 -9.155,10.761 -15.489,12.194c-4.9,1.108 -10.413,0.008 -13.81,-3.817c-1.242,-1.398 -2.193,-3.015 -3.046,-4.672c-0.272,-0.528 -0.519,-1.076 -0.755,-1.622c-0.114,-0.263 -0.394,-0.954 -0.445,-1.046c-0.582,-1.05 -1.596,-0.767 -1.773,-0.71c-0.08,0.025 -1.399,0.5 -0.966,1.926c0.036,0.118 0.085,0.227 0.145,0.328Zm2.667,-0.168c0.119,-0.227 0.2,-0.566 0.059,-1.031c0.107,0.353 0.078,0.716 -0.059,1.031Z"/><path d="M176.677,231.43c-0.002,-0.231 -0.059,-0.465 -0.174,-0.683c-0.388,-0.731 -1.297,-1.01 -2.028,-0.623c-0.284,0.151 -1.01,0.697 -0.769,1.84c0.234,1.111 2.506,6.1 2.66,6.431c3.169,6.818 8.088,13.165 15.578,15.413c13.181,3.956 24.47,-2.86 31.527,-13.476c6.945,-10.447 9.713,-24.544 6.195,-35.213c-0.259,-0.786 -1.108,-1.214 -1.894,-0.955c-0.786,0.26 -1.214,1.109 -0.955,1.895c3.26,9.886 0.591,22.931 -5.844,32.612c-6.323,9.512 -16.356,15.809 -28.167,12.264c-6.652,-1.997 -10.905,-7.749 -13.72,-13.805c-0.128,-0.277 -2.117,-5.006 -2.409,-5.7Zm-0.682,1.277l-0.035,0.022l0.015,-0.008l0.02,-0.014Zm0.332,-0.294c-0.084,0.101 -0.183,0.192 -0.294,0.269c0.106,-0.073 0.206,-0.161 0.294,-0.269Z"/><path d="M231.632,202.598l0.155,-0.102c2.221,-0.911 5.276,-0.831 7.601,-0.968c5.434,-0.319 11.034,0.13 16.36,1.248c15.947,3.349 30.727,14.95 39.443,28.32c2.639,4.048 10.311,23.76 12.461,29.343c-4.659,1.486 -19.287,6.007 -30.935,8.019c-5.707,0.985 -10.657,1.443 -13.16,0.433c-0.768,-0.31 -1.642,0.061 -1.952,0.829c-0.31,0.768 0.061,1.643 0.829,1.953c2.812,1.135 8.38,0.849 14.794,-0.259c14.235,-2.458 32.863,-8.611 32.863,-8.611c0.389,-0.128 0.708,-0.41 0.884,-0.78c0.176,-0.371 0.193,-0.797 0.046,-1.179c0,-0 -10.177,-26.569 -13.317,-31.386c-9.128,-14.003 -24.638,-26.11 -41.34,-29.618c-5.583,-1.173 -11.455,-1.642 -17.152,-1.307c-2.667,0.157 -6.169,0.165 -8.691,1.24c-0.088,0.038 -0.752,0.462 -0.858,0.559c-0.527,0.48 -0.501,1.001 -0.497,1.161c0.017,0.603 0.294,1.051 0.867,1.317c0.545,0.254 1.166,0.152 1.599,-0.212Z"/><path d="M165.545,269.433c2.584,6.296 9.801,31.634 15.638,48.303c2.593,7.403 4.98,13.132 6.556,14.976c0.538,0.629 1.485,0.703 2.115,0.165c0.629,-0.538 0.703,-1.485 0.165,-2.115c-1.47,-1.719 -3.586,-7.111 -6.004,-14.018c-5.856,-16.721 -13.103,-42.135 -15.695,-48.45c-0.315,-0.766 -1.192,-1.133 -1.957,-0.818c-0.766,0.314 -1.133,1.191 -0.818,1.957Z"/><path d="M144.593,300.749c-0.206,13.862 2.07,27.369 4.763,40.948c0.527,2.659 0.938,6.533 1.931,9.948c0.732,2.514 1.791,4.782 3.332,6.295c1.473,1.447 4.821,2.424 9.016,2.882c8.856,0.967 21.672,0.07 25.649,-0.07c8.173,-0.286 16.338,-0.838 24.508,-1.207c6.29,-0.283 12.583,-0.564 18.875,-0.822c6.227,-0.255 12.48,-0.838 18.715,-0.762c2.921,0.035 5.667,0.949 8.561,1.1c5.53,0.29 10.824,-0.956 16.241,-1.88c5.361,-0.914 12.107,-1.798 16.067,-5.732c0.587,-0.584 0.59,-1.534 0.007,-2.122c-0.584,-0.587 -1.534,-0.59 -2.122,-0.007c-3.544,3.522 -9.659,4.085 -14.457,4.904c-5.197,0.887 -10.272,2.12 -15.579,1.841c-2.934,-0.153 -5.72,-1.068 -8.682,-1.104c-6.288,-0.076 -12.594,0.507 -18.874,0.764c-6.296,0.258 -12.593,0.539 -18.887,0.823c-8.16,0.368 -16.315,0.92 -24.479,1.206c-3.91,0.138 -16.51,1.036 -25.217,0.086c-2.127,-0.232 -4.011,-0.571 -5.445,-1.076c-0.77,-0.271 -1.395,-0.571 -1.796,-0.964c-1.213,-1.191 -1.976,-3.013 -2.552,-4.993c-0.968,-3.326 -1.356,-7.103 -1.87,-9.694c-2.651,-13.371 -4.909,-26.669 -4.706,-40.319c0.013,-0.828 -0.649,-1.51 -1.477,-1.522c-0.828,-0.013 -1.51,0.65 -1.522,1.477Z"/><path d="M290.011,347.279c0.387,0.758 0.404,1.452 -0.102,2.292c-0.427,0.709 -0.199,1.631 0.511,2.059c0.709,0.427 1.631,0.198 2.058,-0.511c1.255,-2.081 1.112,-3.76 -0.063,-5.684c-0.182,-0.297 -0.463,-0.58 -0.878,-0.797c-0.442,-0.23 -1.147,-0.408 -2.056,-0.472c-3.716,-0.261 -11.978,1.14 -14.32,1.132c-0.828,-0.002 -1.502,0.668 -1.505,1.496c-0.003,0.827 0.667,1.502 1.495,1.504c2.041,0.007 8.597,-1.067 12.684,-1.161c0.848,-0.02 1.822,0.095 2.176,0.142Z"/><path d="M275.713,348.191c2.771,-1.109 6.091,-1.766 9.271,-2.683c3.47,-1.001 6.771,-2.317 9.192,-4.635c1.005,-0.962 1.827,-2.537 2.088,-4.101c0.272,-1.622 -0.068,-3.2 -1.102,-4.246c-0.699,-0.707 -1.736,-1.221 -3.242,-1.263c-0.827,-0.023 -1.518,0.63 -1.542,1.457c-0.023,0.828 0.63,1.518 1.458,1.542c0.541,0.015 0.942,0.12 1.193,0.374c0.393,0.397 0.379,1.026 0.276,1.641c-0.154,0.921 -0.612,1.862 -1.204,2.429c-2.084,1.995 -4.961,3.057 -7.949,3.919c-3.278,0.946 -6.697,1.637 -9.554,2.781c-0.768,0.307 -1.142,1.181 -0.835,1.95c0.308,0.768 1.182,1.143 1.95,0.835Z"/><path d="M272.059,342.017c1.775,-0.453 12.455,-3.242 18.472,-6.466c1.729,-0.927 3.093,-1.914 3.874,-2.871c0.769,-0.942 1.057,-1.912 0.921,-2.835c-0.354,-2.421 -2.209,-3.353 -4.615,-3.327c-2.467,0.027 -5.571,1.185 -6.454,1.363c-5.314,1.072 -9.761,2.414 -15.173,2.397c-0.828,-0.003 -1.503,0.667 -1.505,1.495c-0.003,0.828 0.667,1.502 1.495,1.505c5.625,0.018 10.253,-1.342 15.776,-2.456c0.808,-0.163 3.636,-1.279 5.894,-1.304c0.755,-0.008 1.503,0.003 1.614,0.762c0.013,0.09 -0.049,0.169 -0.103,0.26c-0.109,0.182 -0.264,0.36 -0.449,0.542c-0.631,0.619 -1.572,1.225 -2.692,1.825c-5.794,3.105 -16.087,5.767 -17.796,6.203c-0.803,0.204 -1.288,1.022 -1.083,1.824c0.204,0.802 1.022,1.287 1.824,1.083Z"/><path d="M286.077,313.271c0.468,0.767 0.278,1.521 -0.208,2.241c-0.48,0.712 -1.21,1.389 -2.063,2.036c-3.634,2.757 -9.403,4.86 -10.92,5.525c-1.611,0.705 -3.177,1.451 -4.722,2.288c-0.637,0.344 -1.272,0.725 -1.791,1.246c-0.58,0.584 -1.519,2.219 -1.178,3.736c0.231,1.026 0.951,2.132 2.91,2.726c0.793,0.24 1.631,-0.208 1.871,-1c0.24,-0.792 -0.208,-1.63 -1,-1.871c-0.425,-0.129 -0.712,-0.248 -0.834,-0.461c-0.08,-0.139 -0.016,-0.294 0.029,-0.428c0.086,-0.257 0.224,-0.48 0.33,-0.587c0.311,-0.313 0.709,-0.516 1.091,-0.723c1.472,-0.797 2.963,-1.507 4.497,-2.178c1.896,-0.831 9.943,-3.844 13.377,-7.524c1.938,-2.076 2.569,-4.361 1.138,-6.643c-0.634,-1.012 -1.709,-1.473 -3.051,-1.424c-1.891,0.07 -4.499,1.358 -5.622,1.775c-7.639,2.837 -14.683,6.346 -22.569,8.684c-0.794,0.236 -1.247,1.071 -1.012,1.865c0.236,0.794 1.071,1.247 1.865,1.012c7.951,-2.358 15.057,-5.888 22.76,-8.749c0.838,-0.311 2.607,-1.231 4.134,-1.521c0.224,-0.043 0.44,-0.07 0.643,-0.07c0.107,0.001 0.276,0.034 0.325,0.045Z"/><path d="M271.232,316.052c-0.852,-1.868 -2.362,-3.383 -3.825,-4.268c-1.142,-0.69 -2.277,-0.989 -3.119,-0.93c-2.558,0.181 -5.347,1.897 -7.748,2.758c-10.484,3.757 -13.09,4.872 -21.641,13.683c-0.576,0.594 -0.562,1.544 0.032,2.121c0.594,0.577 1.544,0.562 2.121,-0.032c8.098,-8.344 10.572,-9.39 20.5,-12.948c2.165,-0.776 4.642,-2.426 6.948,-2.589c0.374,-0.027 0.848,0.198 1.355,0.505c1.011,0.611 2.059,1.654 2.647,2.945c0.344,0.753 1.234,1.086 1.988,0.742c0.753,-0.343 1.086,-1.234 0.742,-1.987Z"/><path d="M234.814,327.391c-0.425,0.52 -1.248,0.936 -2.334,1.351c-2.013,0.77 -4.845,1.385 -8.183,1.864c-13.334,1.915 -34.576,1.595 -45.171,-0.934c-0.805,-0.193 -1.615,0.305 -1.807,1.11c-0.192,0.806 0.305,1.616 1.111,1.808c10.858,2.592 32.628,2.948 46.293,0.986c3.604,-0.518 6.656,-1.201 8.829,-2.032c1.705,-0.652 2.918,-1.438 3.585,-2.255c0.524,-0.642 0.429,-1.587 -0.212,-2.111c-0.642,-0.524 -1.587,-0.428 -2.111,0.213Z"/><path d="M306.604,263.191c0.766,2.382 6.713,25.006 8.398,32.652c1.103,5 2.217,10.007 3.167,15.039c0.51,2.705 1.671,7.93 2.169,12.663c0.307,2.924 0.397,5.646 -0.199,7.337c-1.004,2.848 -4.578,5.185 -8.823,7.256c-6.931,3.381 -15.76,5.804 -20.264,7.289c-0.786,0.259 -1.214,1.108 -0.955,1.894c0.259,0.786 1.108,1.214 1.894,0.955c5.375,-1.772 16.758,-4.88 24.067,-9.292c3.442,-2.078 5.989,-4.492 6.91,-7.105c0.703,-1.994 0.716,-5.2 0.353,-8.648c-0.507,-4.823 -1.684,-10.149 -2.204,-12.906c-0.956,-5.062 -2.076,-10.098 -3.185,-15.128c-1.7,-7.71 -7.7,-30.523 -8.472,-32.925c-0.253,-0.788 -1.099,-1.222 -1.887,-0.968c-0.788,0.253 -1.222,1.099 -0.969,1.887Z"/><path d="M266.341,272.172c1.576,3.422 10.326,31.065 15.987,40.329c0.431,0.707 1.355,0.93 2.062,0.498c0.706,-0.431 0.929,-1.355 0.498,-2.062c-5.615,-9.19 -14.259,-36.626 -15.822,-40.02c-0.347,-0.752 -1.239,-1.081 -1.99,-0.735c-0.752,0.347 -1.082,1.238 -0.735,1.99Z"/></g><path d="M255.225,383.527c-0.471,0.134 -1.057,0.175 -1.713,0.194c-2.111,0.064 -4.831,-0.347 -7.534,-0.794c-3.372,-0.557 -6.721,-1.167 -8.98,-1.144c-1.287,0.014 -2.294,0.255 -2.938,0.659c-0.169,0.106 -0.663,0.513 -0.792,1.428c-0.243,1.725 -0.202,9.057 -0.515,11.88c-0.499,-0.049 -1.033,-0.196 -1.592,-0.395c-1.697,-0.604 -3.558,-1.721 -5.361,-2.859c-1.945,-1.228 -3.825,-2.485 -5.383,-3.273c-1.316,-0.665 -2.474,-0.991 -3.336,-0.931c-0.643,0.045 -1.464,0.428 -2.316,1.227c-1.276,1.198 -2.879,3.47 -4.539,5.737c-1.304,1.779 -2.645,3.556 -3.902,4.682c-0.508,0.454 -0.938,0.843 -1.37,0.883c-0.07,-0.053 -0.261,-0.2 -0.376,-0.325c-0.258,-0.279 -0.514,-0.638 -0.774,-1.049c-1.142,-1.812 -2.272,-4.552 -3.275,-6.939c-1.002,-2.383 -1.926,-4.434 -2.582,-5.194c-0.495,-0.574 -1.029,-0.768 -1.435,-0.798c-1.06,-0.08 -2.41,0.307 -3.901,1.075c-1.838,0.947 -3.975,2.469 -6.09,3.962c-1.972,1.392 -3.922,2.761 -5.572,3.517c-0.366,0.169 -0.705,0.319 -1.015,0.412c0.023,-0.436 0.064,-0.977 0.133,-1.464c0.528,-3.751 1.931,-9.613 2.074,-10.854c0.114,-0.987 -0.424,-1.471 -0.554,-1.575c-0.774,-0.621 -2.214,-1.154 -4.046,-1.531c-3.617,-0.745 -8.932,-1.056 -12.502,-1.489l-0.212,-0.027c4.742,-2.443 9.487,-4.867 14.295,-7.183l1.496,-0.591c1.082,-0.428 0.989,-1.515 0.988,-1.517c-0.057,-0.826 -0.775,-1.45 -1.601,-1.392c-0.174,0.012 -0.339,0.054 -0.49,0.12l0,-0.001c0,-0 -1.614,0.639 -1.657,0.66c-5.467,2.633 -10.854,5.405 -16.246,8.187c-0.225,0.116 -1.203,0.57 -1.558,0.97c-0.423,0.476 -0.521,1 -0.439,1.466c0.075,0.426 0.309,0.888 0.859,1.256c0.395,0.266 1.15,0.538 2.189,0.732c2.649,0.496 7.639,0.764 11.744,1.327c1.541,0.211 2.95,0.462 4.032,0.794c0.202,0.062 0.391,0.124 0.563,0.19c-0.407,1.906 -1.484,7.047 -1.906,10.04c-0.251,1.78 -0.232,3.181 -0.019,3.734c0.26,0.675 0.725,0.984 1.182,1.109c0.868,0.236 1.952,0.133 3.172,-0.324c1.393,-0.522 3.039,-1.517 4.758,-2.682c2.38,-1.613 4.925,-3.558 7.124,-4.813c0.957,-0.546 1.809,-0.989 2.525,-1.096c0.154,0.257 0.4,0.685 0.595,1.095c0.648,1.359 1.409,3.265 2.227,5.167c1.145,2.66 2.423,5.298 3.638,6.659c0.837,0.936 1.737,1.365 2.538,1.375c0.835,0.01 1.769,-0.329 2.721,-1.026c1.595,-1.165 3.389,-3.45 5.089,-5.769c1.333,-1.821 2.615,-3.655 3.708,-4.848c0.358,-0.391 0.906,-0.812 1.019,-0.898c0.454,0.003 1.019,0.278 1.691,0.618c1.487,0.751 3.277,1.96 5.135,3.132c1.999,1.262 4.075,2.479 5.956,3.148c1.483,0.528 2.872,0.717 4.067,0.476c0.344,-0.07 0.781,-0.262 1.091,-0.815c0.148,-0.263 0.338,-0.952 0.431,-1.945c0.261,-2.775 0.258,-8.845 0.439,-11.091c0.454,-0.073 1.053,-0.038 1.746,0.002c2.078,0.119 4.81,0.625 7.56,1.079c2.911,0.481 5.841,0.902 8.114,0.833c1.879,-0.057 3.369,-0.489 4.277,-1.264c0.333,-0.284 0.582,-0.693 0.62,-1.273c0.026,-0.396 -0.096,-1.034 -0.454,-1.806c-1.273,-2.745 -5.827,-8.632 -6.778,-9.798c-1.641,-2.011 -3.2,-4.092 -4.787,-6.146c-0.507,-0.655 -1.449,-0.776 -2.104,-0.27c-0.656,0.506 -0.776,1.449 -0.27,2.104c1.603,2.075 3.179,4.176 4.836,6.209c0.711,0.871 3.555,4.518 5.321,7.302c0.367,0.578 0.724,1.267 0.961,1.749Z"/></g></svg>