<?xml version="1.0" standalone="no"?>
<!DOCTYPE svg PUBLIC "-//W3C//DTD SVG 20010904//EN"
 "http://www.w3.org/TR/2001/REC-SVG-20010904/DTD/svg10.dtd">
<svg version="1.0" xmlns="http://www.w3.org/2000/svg"
 width="1315.000000pt" height="945.000000pt" viewBox="0 0 1315.000000 945.000000"
 preserveAspectRatio="xMidYMid meet">

<g transform="translate(0.000000,945.000000) scale(0.100000,-0.100000)"
fill="#000000" stroke="none">
<path d="M6685 9116 c-107 -28 -209 -87 -240 -140 -7 -13 -27 -19 -73 -21 -35
-3 -114 -11 -177 -19 -98 -13 -117 -13 -142 -1 -24 12 -37 12 -84 1 -53 -12
-59 -11 -97 10 -39 22 -105 44 -148 49 -11 1 -25 4 -30 7 -5 3 -35 -7 -68 -22
-32 -16 -64 -27 -70 -25 -24 8 -103 17 -134 16 -70 -3 -277 -96 -290 -130 -4
-11 -37 -42 -74 -71 -70 -54 -98 -97 -103 -158 -6 -75 39 -155 93 -166 15 -4
65 0 111 9 46 8 87 13 90 11 4 -3 30 -26 60 -53 29 -26 62 -51 74 -55 35 -10
129 -9 167 2 81 24 94 22 149 -15 45 -30 61 -35 110 -35 31 0 76 5 101 11 25
6 56 12 70 14 14 2 42 10 61 18 19 8 74 20 121 27 75 11 97 11 175 -4 48 -10
104 -22 123 -27 25 -7 53 -5 100 6 36 8 76 17 90 19 14 3 47 9 73 15 58 13 80
4 102 -39 33 -63 119 -73 219 -26 28 13 80 34 116 46 36 12 95 33 131 46 l65
23 61 -18 c33 -10 78 -17 99 -14 75 8 205 33 223 42 10 6 29 12 43 15 13 2 47
12 74 21 38 13 65 15 119 9 212 -22 396 11 411 73 15 60 -21 113 -137 205 -63
50 -204 60 -312 22 -51 -18 -67 -18 -67 1 0 9 -22 26 -52 40 -45 21 -65 24
-145 22 l-93 -2 -13 44 c-15 53 -67 94 -167 131 -70 26 -189 31 -244 10 -25
-9 -34 -6 -80 27 -28 20 -74 42 -101 48 -68 16 -228 16 -290 1z m286 -56 c65
-20 109 -47 109 -66 0 -24 26 -27 97 -9 104 26 182 22 246 -15 29 -16 64 -41
76 -54 21 -23 22 -27 10 -61 -19 -51 -6 -56 126 -50 134 5 178 -6 183 -48 5
-41 37 -50 103 -27 135 46 155 50 210 40 62 -12 121 -45 165 -92 65 -69 52
-101 -50 -123 -38 -7 -73 -12 -78 -9 -5 3 -23 1 -41 -5 -23 -7 -62 -6 -137 3
l-105 13 -80 -29 c-151 -55 -320 -76 -388 -49 -56 22 -93 14 -257 -50 -119
-47 -196 -69 -237 -69 -38 0 -45 4 -74 45 -29 40 -37 45 -70 45 -21 0 -75 -9
-121 -21 -99 -25 -213 -35 -231 -21 -33 27 -212 42 -283 23 -22 -5 -52 -13
-69 -15 -16 -3 -77 -15 -135 -26 -142 -27 -167 -26 -223 10 -55 35 -89 37
-182 14 -103 -26 -143 -15 -214 57 -58 58 -60 59 -103 53 -24 -3 -56 -10 -73
-14 -30 -9 -68 -13 -93 -11 -7 1 -20 17 -28 36 -23 55 -9 107 43 165 25 28 48
50 52 50 4 0 32 24 62 53 106 103 305 157 371 102 34 -28 66 -25 104 10 15 14
36 25 48 25 50 -1 109 -19 146 -45 36 -25 45 -27 87 -20 68 11 114 9 123 -5 6
-9 24 -9 81 3 41 9 81 16 89 15 8 0 35 3 60 8 25 4 65 8 90 9 25 1 57 3 73 3
18 1 31 10 37 25 13 31 35 57 49 57 6 0 11 5 11 10 0 6 5 10 11 10 6 0 23 9
38 20 16 10 47 23 70 29 24 5 45 12 49 16 13 12 197 1 253 -15z"/>
<path d="M2434 8187 c-88 -39 -110 -57 -158 -126 -20 -30 -45 -56 -54 -57 -9
-1 -51 -5 -92 -8 -128 -12 -139 -14 -193 -41 -64 -33 -105 -63 -181 -134 -75
-72 -100 -126 -91 -201 12 -98 48 -127 195 -155 132 -25 265 -21 315 10 36 22
122 47 170 49 29 1 30 0 30 -44 1 -67 12 -87 63 -117 44 -26 54 -28 154 -27
93 2 142 9 198 31 20 8 21 8 55 18 17 4 35 12 42 17 13 10 61 -11 82 -36 19
-23 79 -27 169 -12 45 7 85 16 88 19 3 3 24 -4 46 -15 45 -23 117 -21 166 6
15 9 47 23 72 32 25 9 61 22 80 29 19 8 53 14 76 15 40 0 42 -2 76 -60 33 -55
35 -62 24 -94 -17 -50 -102 -138 -216 -224 -30 -22 -61 -50 -68 -61 -7 -12
-18 -21 -25 -21 -8 0 -43 -30 -80 -67 -177 -181 -338 -335 -394 -376 -92 -67
-183 -92 -388 -109 -5 0 -56 3 -111 7 -98 7 -103 7 -151 -19 -27 -15 -99 -75
-159 -133 -60 -57 -134 -122 -165 -142 -61 -41 -111 -80 -193 -151 -88 -76
-144 -121 -214 -171 -37 -26 -80 -59 -97 -74 -92 -81 -160 -133 -245 -188 -52
-34 -106 -72 -120 -84 -167 -145 -406 -322 -499 -370 -74 -39 -116 -80 -100
-99 18 -22 43 -17 77 19 17 17 53 43 79 57 26 14 54 31 61 38 8 6 23 17 35 24
19 9 142 102 157 118 27 28 198 164 245 194 33 21 74 51 90 66 17 15 47 36 68
48 21 12 69 48 108 79 86 71 137 110 184 143 70 49 117 85 159 124 22 21 74
64 115 95 41 31 90 68 110 83 20 15 42 31 49 34 8 4 24 16 36 28 12 12 49 44
82 72 180 156 186 160 294 157 115 -2 324 14 385 31 52 14 162 83 229 143 39
35 92 63 121 63 9 0 42 12 73 26 31 14 75 33 97 42 22 9 51 23 65 32 204 136
232 143 163 41 -35 -51 -31 -87 13 -113 28 -16 35 -26 30 -42 -2 -12 -9 -39
-15 -61 -26 -104 -51 -264 -47 -299 9 -70 46 -94 103 -66 66 31 103 84 196
274 5 10 18 35 30 55 11 20 28 50 37 66 43 83 133 185 161 185 6 0 18 -4 28
-10 13 -6 24 -5 37 5 28 21 35 18 24 -11 -12 -31 -4 -88 18 -126 12 -21 24
-28 48 -28 25 0 37 8 59 41 45 64 60 67 82 14 23 -58 71 -85 108 -61 13 8 36
33 52 55 15 23 31 41 35 41 21 0 46 -82 79 -260 11 -63 26 -128 33 -145 7 -16
19 -46 26 -65 17 -46 37 -67 76 -86 46 -22 72 -10 96 43 27 61 28 71 33 272 2
96 7 177 11 180 3 3 18 -8 32 -24 78 -90 145 -85 117 8 -16 54 -31 197 -21
197 4 0 19 -8 34 -18 134 -92 182 -112 182 -78 0 6 -14 44 -31 84 -56 133 -40
132 105 -8 71 -69 137 -132 147 -141 26 -26 197 -99 263 -114 17 -3 42 -15 57
-26 15 -10 31 -19 36 -19 4 0 18 -15 31 -34 24 -34 55 -65 152 -148 30 -25 89
-87 130 -137 41 -49 80 -90 85 -91 6 0 48 -48 95 -106 47 -58 92 -111 100
-117 9 -7 24 -25 34 -42 20 -32 194 -204 294 -292 33 -29 95 -78 139 -108 43
-31 87 -64 98 -74 11 -10 42 -30 70 -45 81 -45 128 -85 175 -145 40 -53 43
-55 84 -86 21 -16 61 -59 88 -94 47 -63 75 -85 168 -134 25 -12 66 -35 91 -50
67 -40 170 -78 191 -71 21 6 23 27 4 43 -7 6 -35 18 -62 26 -27 8 -85 35 -129
61 -44 25 -101 58 -128 72 -26 13 -59 41 -75 60 -41 55 -186 214 -242 267 -6
6 -19 18 -28 28 -9 10 -49 36 -88 58 -40 21 -77 46 -84 54 -7 8 -17 15 -22 15
-6 0 -25 12 -43 28 -19 15 -72 56 -119 91 -84 64 -95 81 -53 81 65 0 267 50
327 81 36 18 70 34 76 35 20 3 155 74 187 98 18 13 46 27 64 31 17 3 37 13 44
21 6 8 15 14 20 14 5 0 45 24 88 54 43 30 119 71 167 92 49 21 100 48 114 60
14 12 36 25 50 29 14 4 37 18 51 32 28 25 137 67 204 78 38 5 42 3 76 -36 34
-40 38 -42 90 -41 119 2 252 28 347 68 46 20 50 18 88 -22 19 -19 49 -40 66
-46 47 -14 158 -10 185 7 12 8 34 15 48 15 14 0 47 11 72 24 40 22 47 23 60
10 17 -17 105 -19 168 -3 39 10 48 9 77 -9 28 -17 40 -19 78 -11 102 22 136
22 196 0 37 -14 80 -22 119 -22 143 1 256 10 333 27 94 20 121 43 141 119 25
96 -14 163 -114 195 -22 7 -47 15 -55 18 -8 3 -33 6 -55 6 l-40 1 -12 68 c-14
76 -37 116 -87 147 -80 49 -221 111 -264 116 -52 5 -154 -22 -200 -54 -61 -44
-113 -63 -170 -63 -56 -1 -57 -1 -107 54 -53 59 -110 92 -212 122 -35 10 -63
21 -63 24 0 3 16 17 35 29 26 18 41 22 64 17 22 -5 40 -1 64 13 123 74 189
102 241 102 35 0 58 5 66 15 7 8 16 15 20 15 13 0 30 -60 30 -107 0 -36 6 -50
29 -73 32 -32 68 -33 86 -4 6 10 17 25 26 34 9 9 30 38 48 64 l32 46 28 -16
c41 -24 79 -12 97 31 17 41 22 42 58 14 48 -38 112 -155 142 -259 4 -14 15
-41 25 -60 11 -19 19 -40 19 -45 0 -18 66 -85 84 -85 18 0 19 8 16 163 -2 101
-1 107 18 107 11 0 26 -10 34 -22 11 -17 23 -22 47 -20 56 4 140 -66 266 -222
59 -74 97 -111 132 -132 29 -16 35 -17 48 -4 13 14 13 19 -1 45 -9 17 -25 52
-35 79 -11 27 -33 77 -49 110 -32 69 -54 135 -47 142 4 5 61 -56 68 -73 2 -5
58 -53 123 -108 65 -55 127 -107 136 -115 10 -8 21 -25 24 -37 16 -52 160
-146 270 -175 40 -11 62 -27 131 -98 46 -47 177 -179 292 -295 193 -194 283
-293 283 -308 0 -15 163 -207 226 -267 38 -36 75 -77 83 -92 16 -30 48 -37 57
-13 13 32 -9 63 -100 143 -69 59 -124 121 -198 220 -68 90 -160 194 -267 302
-91 91 -201 205 -244 255 -137 153 -219 215 -287 215 -39 0 -99 47 -233 182
-75 77 -137 140 -137 141 0 1 64 2 142 2 148 1 311 17 363 37 17 6 44 23 60
39 18 16 47 30 74 34 56 9 147 40 178 61 20 13 23 20 17 52 -4 20 -16 47 -27
60 l-21 22 61 63 c33 34 63 74 67 89 9 38 -39 90 -96 107 -24 7 -51 17 -60 22
-10 5 -25 9 -33 9 -9 0 -19 10 -24 23 -12 31 -36 50 -80 63 -29 8 -49 6 -99
-9 l-63 -18 -39 34 c-66 56 -176 69 -244 29 -43 -25 -105 -27 -131 -3 -25 24
-105 51 -148 51 -28 0 -126 -51 -200 -103 -14 -10 -25 -7 -66 16 -27 15 -58
27 -69 27 -11 0 -52 -17 -91 -37 l-72 -36 -27 20 c-15 11 -29 29 -31 39 -7 38
-49 80 -93 93 -23 7 -45 17 -48 21 -9 14 -107 38 -121 30 -7 -5 -17 -7 -21 -4
-11 7 -96 -23 -143 -51 -22 -13 -65 -45 -95 -72 -30 -27 -83 -68 -117 -91 -34
-23 -65 -46 -68 -52 -11 -18 -32 -10 -44 18 -28 61 -85 135 -114 147 -31 13
-99 11 -126 -5 -8 -4 -59 -5 -113 -3 -91 6 -100 4 -132 -18 -19 -13 -39 -33
-44 -44 -8 -17 -19 -20 -70 -20 -49 -1 -62 2 -65 16 -7 27 -82 71 -130 76 -79
9 -144 -36 -364 -250 -70 -67 -93 -83 -150 -103 l-67 -23 -33 25 c-18 14 -45
41 -60 61 -25 32 -103 120 -144 163 -27 29 -89 113 -89 121 0 16 -405 429
-420 429 -3 0 -14 14 -23 30 -10 17 -26 30 -35 30 -10 0 -28 7 -40 16 -13 9
-52 17 -95 20 -73 5 -89 11 -142 58 -32 29 -82 54 -131 66 -41 10 -108 -21
-165 -75 -23 -22 -56 -50 -73 -62 -40 -28 -143 -123 -320 -295 -77 -75 -158
-152 -180 -170 -21 -18 -57 -50 -78 -71 -22 -21 -54 -45 -72 -54 -51 -26 -97
-65 -92 -78 6 -17 -3 -29 -51 -61 -70 -49 -236 -176 -280 -216 -24 -21 -50
-38 -59 -38 -15 0 -149 126 -344 323 l-78 79 23 56 c41 103 41 112 -7 192 -60
101 -138 150 -260 165 -27 4 -48 10 -48 16 0 5 0 11 0 14 3 27 -91 114 -123
115 -6 1 -30 9 -52 20 -22 11 -47 19 -56 20 -8 0 -48 11 -88 25 -41 15 -101
29 -135 32 -73 7 -102 -5 -160 -66 -36 -40 -41 -41 -90 -38 -28 2 -71 -1 -96
-5 -25 -5 -56 -11 -70 -13 -14 -2 -37 -8 -52 -14 -26 -10 -29 -8 -43 25 -8 20
-15 40 -15 45 0 13 -62 54 -100 66 -100 33 -157 42 -191 33 -19 -6 -61 -8 -94
-4 -106 10 -295 -51 -295 -96 0 -29 -38 -48 -115 -59 -65 -10 -71 -9 -93 12
-13 12 -47 27 -75 32 -46 9 -52 13 -53 35 -4 71 -69 140 -147 156 -87 17 -132
13 -203 -19z m197 -42 c96 -15 125 -113 38 -130 -31 -6 -43 -20 -35 -40 5 -15
18 -16 111 -11 l104 7 32 -31 c32 -30 33 -30 113 -24 114 9 147 22 168 64 34
67 203 119 280 87 29 -12 37 -12 53 -1 23 17 70 18 132 2 108 -28 137 -61 128
-145 -4 -45 -2 -54 15 -63 16 -9 26 -7 46 9 54 43 132 62 242 62 l103 -1 42
44 c67 69 88 79 148 71 86 -12 285 -84 337 -122 35 -27 43 -65 17 -93 -13 -14
-13 -19 1 -38 l16 -23 32 21 c48 29 105 26 176 -10 49 -25 68 -42 104 -96 l44
-66 -17 -46 c-30 -87 -47 -98 -201 -130 -61 -12 -215 -8 -233 6 -13 11 -23 9
-61 -13 -44 -26 -131 -41 -167 -30 -9 3 -20 17 -23 30 -9 35 -36 31 -76 -10
-48 -49 -107 -74 -223 -91 -176 -27 -251 -3 -296 94 -24 52 -41 64 -108 77
-38 8 -77 -4 -189 -56 -44 -21 -102 -40 -127 -43 -41 -5 -49 -2 -71 21 l-25
27 -58 -18 c-114 -34 -158 -39 -192 -22 -17 9 -38 30 -46 46 -24 47 -49 55
-78 26 -81 -81 -381 -123 -442 -62 -7 7 -11 40 -11 81 1 65 -1 70 -25 82 -28
13 -40 11 -229 -50 -110 -35 -200 -40 -325 -18 -110 20 -135 44 -135 132 l0
62 83 81 c99 98 157 130 268 151 46 9 101 20 122 25 24 5 50 4 68 -2 21 -7 38
-7 59 2 32 13 40 30 15 30 -22 0 34 80 72 105 38 26 133 54 163 49 14 -2 41
-6 61 -9z m4289 -74 c28 -18 48 -33 95 -73 28 -24 42 -28 94 -28 64 0 123 -22
160 -59 10 -10 31 -26 47 -35 16 -10 44 -38 63 -63 19 -24 58 -59 86 -77 28
-18 70 -57 94 -87 24 -30 61 -70 81 -89 20 -19 56 -62 80 -95 24 -33 66 -85
94 -115 81 -88 126 -141 126 -148 0 -4 30 -36 66 -72 36 -35 60 -66 54 -68
-14 -5 -116 63 -124 83 -3 8 -12 15 -21 15 -8 0 -15 3 -15 8 0 4 -23 20 -50
37 -28 16 -50 32 -50 36 0 4 -15 12 -32 20 -18 7 -45 25 -59 41 -14 15 -39 31
-56 34 -25 5 -35 1 -57 -22 -14 -16 -26 -32 -26 -36 0 -5 -13 -8 -29 -8 -21 0
-30 -6 -34 -22 -6 -22 -6 -22 -27 5 -12 15 -31 27 -42 27 -19 0 -20 -4 -14
-52 15 -122 16 -188 2 -188 -17 0 -64 144 -77 235 -5 37 -13 74 -18 83 -4 9
-11 32 -15 51 -4 21 -26 58 -55 90 -26 31 -55 70 -65 88 -17 35 -54 60 -65 46
-12 -14 -45 -106 -47 -133 -2 -14 -5 -104 -7 -200 -5 -175 -11 -230 -28 -230
-5 0 -9 1 -9 3 0 23 -25 128 -36 148 -26 52 -111 64 -136 21 -9 -16 -42 -56
-72 -90 -30 -34 -69 -92 -86 -129 -17 -37 -35 -75 -41 -83 -5 -8 -18 -34 -29
-56 -29 -62 -46 -72 -54 -33 -3 17 -6 47 -6 67 0 65 -30 80 -135 66 -43 -6
-50 -12 -89 -64 -23 -32 -64 -75 -91 -95 -28 -21 -54 -44 -58 -52 -29 -48 -17
58 18 156 17 50 19 85 5 111 -7 13 -3 33 16 76 14 32 28 76 30 97 2 21 20 74
40 118 31 69 35 87 29 128 -8 57 -12 64 -51 84 -27 14 -33 14 -62 0 -17 -8
-34 -23 -37 -32 -3 -10 -18 -24 -33 -31 -15 -8 -35 -21 -44 -29 -10 -8 -18 -9
-18 -4 0 6 26 32 57 59 82 70 233 221 233 233 0 6 5 11 11 11 6 0 16 6 23 13
172 165 315 284 380 317 43 21 73 19 116 -9z m3153 -550 c52 -24 65 -34 70
-57 8 -36 30 -61 85 -98 24 -16 57 -48 75 -70 17 -23 57 -66 88 -96 73 -71
162 -187 149 -195 -6 -4 -7 -13 -1 -23 9 -16 34 -84 68 -182 8 -25 21 -52 29
-61 8 -8 14 -23 14 -32 0 -9 5 -19 10 -22 6 -3 10 -12 10 -18 -1 -15 -96 88
-115 123 -14 28 -85 94 -119 112 -11 6 -40 26 -64 45 -40 32 -72 38 -72 13 0
-17 -20 -11 -28 8 -23 52 -55 92 -77 92 -31 0 -36 -19 -29 -109 3 -42 2 -87
-3 -100 -10 -24 -13 -17 -85 172 -6 15 -14 27 -19 27 -5 0 -9 6 -9 13 -1 14
-66 87 -80 87 -5 0 -15 8 -22 18 -7 9 -26 23 -42 30 -27 12 -30 11 -67 -29
-37 -40 -40 -41 -57 -26 -33 30 -56 21 -92 -35 -18 -29 -40 -60 -47 -68 -8 -8
-20 -24 -28 -35 -7 -11 -15 -18 -18 -15 -3 3 -7 41 -10 85 -5 78 -13 114 -26
116 -3 0 -15 2 -25 4 -11 2 -40 -7 -65 -19 -25 -13 -66 -26 -91 -30 l-44 -7
23 25 c29 31 153 126 199 152 17 10 32 22 32 26 0 4 15 14 34 23 19 9 54 36
78 61 23 24 47 44 51 44 5 0 23 10 40 23 85 61 183 71 280 28z m-2882 -23 c12
-18 34 -46 50 -63 15 -16 29 -46 32 -65 3 -19 10 -57 16 -85 6 -27 15 -75 20
-107 5 -31 14 -64 20 -75 5 -10 23 -48 40 -84 24 -54 36 -69 62 -78 41 -14 49
-8 48 37 -1 20 1 65 3 100 3 58 6 64 35 82 17 10 33 24 35 31 2 6 17 12 33 13
19 1 33 8 40 21 23 45 26 47 44 31 40 -39 155 -118 184 -128 18 -6 55 -32 82
-57 28 -26 78 -60 112 -76 35 -17 65 -36 67 -42 6 -16 -9 -17 -35 -2 -11 6
-30 13 -42 15 -12 3 -33 8 -47 11 -50 11 -90 4 -148 -27 -39 -21 -66 -43 -77
-64 -18 -33 -18 -33 -83 -29 -60 3 -68 1 -93 -23 -20 -19 -33 -24 -46 -19 -62
26 -159 19 -223 -15 -57 -31 -140 -93 -177 -133 -55 -59 -113 -166 -118 -217
-4 -39 -1 -45 44 -90 60 -60 154 -95 228 -84 78 11 84 13 124 32 l38 19 35
-36 c20 -20 36 -42 36 -48 0 -7 15 -24 34 -38 41 -31 126 -36 199 -11 65 22
76 20 121 -18 l38 -33 -34 -27 c-19 -14 -40 -26 -46 -26 -24 0 -181 -82 -219
-114 -22 -19 -98 -63 -169 -99 -71 -35 -142 -71 -159 -80 -34 -18 -180 -85
-240 -110 -22 -9 -65 -19 -95 -22 -30 -3 -62 -8 -70 -10 -8 -3 -35 -7 -59 -10
-23 -3 -47 -8 -52 -11 -18 -11 -202 158 -214 197 -4 10 -10 19 -15 19 -5 0
-31 30 -59 68 -76 101 -152 194 -191 233 -19 19 -57 61 -85 93 -27 33 -55 64
-61 70 -46 45 -94 86 -116 97 -28 15 -98 101 -99 122 0 6 -8 23 -17 37 -9 14
-36 55 -59 90 -41 63 -253 275 -315 314 l-29 19 32 19 c18 11 38 25 45 31 7 7
36 28 65 47 28 19 70 51 93 71 22 19 72 57 109 83 37 26 73 56 80 67 6 10 19
19 27 19 15 0 114 36 140 51 8 5 31 18 51 28 20 11 52 36 70 56 18 19 36 35
40 35 3 0 11 -11 17 -24 12 -26 6 -63 -13 -86 -21 -24 -46 -91 -60 -155 -7
-33 -23 -89 -36 -124 -17 -48 -20 -67 -12 -81 8 -11 8 -29 3 -51 -31 -119 -38
-155 -44 -216 -8 -81 6 -116 47 -121 22 -3 29 3 44 35 10 21 33 51 52 68 91
82 131 121 131 128 0 4 12 19 27 33 34 31 87 31 89 -1 1 -11 6 -46 12 -77 6
-31 8 -72 5 -91 -4 -29 -1 -37 16 -46 15 -9 25 -9 38 0 17 10 93 111 93 123 0
3 18 42 39 88 45 95 130 220 165 243 13 9 26 25 29 36 4 13 12 19 24 17 13 -2
21 -19 29 -65 15 -83 54 -143 93 -143 19 0 34 8 44 23 14 22 29 97 28 147 0
14 -1 77 -2 140 -2 105 6 204 18 223 9 14 22 7 44 -25z m3659 -33 c70 -37 125
-45 163 -21 12 8 51 17 87 20 85 9 141 -9 151 -48 15 -53 51 -72 81 -42 8 7
33 17 56 21 23 4 44 11 48 16 8 14 64 -19 76 -46 6 -15 26 -29 47 -36 20 -6
41 -15 46 -19 6 -5 27 -11 47 -15 72 -14 68 -49 -14 -121 -18 -16 -40 -49 -48
-73 -14 -43 -14 -44 13 -67 15 -13 27 -25 27 -27 0 -2 -19 -12 -42 -22 -105
-43 -148 -56 -206 -60 -34 -2 -57 -17 -57 -37 0 -12 -33 -23 -105 -35 -65 -11
-377 -5 -401 8 -15 7 -24 7 -33 -1 -11 -8 -29 5 -80 58 -36 38 -82 91 -101
117 -19 27 -41 53 -50 57 -8 5 -15 15 -15 23 0 8 -38 54 -84 102 -47 49 -95
102 -107 118 -13 17 -27 33 -32 36 -11 8 40 41 87 56 36 11 42 10 72 -13 17
-14 48 -28 67 -31 30 -4 43 1 89 35 45 35 130 81 148 82 3 0 35 -16 70 -35z
m-2137 -37 c34 -39 22 -54 -68 -87 -81 -30 -131 -83 -139 -149 -19 -152 17
-204 146 -209 38 -1 84 -7 101 -12 18 -5 53 -13 80 -17 26 -3 47 -9 47 -13 0
-14 -48 -36 -105 -48 -33 -7 -77 -20 -98 -29 -33 -15 -41 -15 -64 -3 -43 23
-168 18 -231 -10 -47 -21 -54 -22 -70 -8 -9 8 -35 23 -57 33 -35 17 -46 31
-87 112 -44 86 -45 93 -28 102 10 6 26 10 36 10 28 0 98 50 122 87 13 18 34
39 47 45 14 6 27 19 30 29 3 10 14 21 24 24 10 3 48 35 85 70 37 36 76 65 86
65 11 0 20 3 20 8 0 14 45 29 75 24 17 -2 38 -13 48 -24z m416 17 c19 -3 41
-10 51 -15 11 -6 26 -4 43 5 57 29 83 28 121 -5 20 -18 36 -38 36 -45 0 -7 14
-25 31 -39 l31 -26 -28 -23 c-15 -12 -43 -37 -62 -55 -37 -35 -81 -68 -123
-92 -15 -8 -64 -40 -110 -71 -46 -30 -91 -59 -99 -63 -8 -4 -26 -13 -39 -20
-21 -12 -27 -12 -53 4 -16 10 -38 16 -48 13 -10 -3 -45 3 -77 12 -60 18 -72
20 -163 29 -65 6 -88 27 -66 60 7 11 24 23 37 27 28 7 27 28 -1 48 -28 19 -25
36 9 60 23 17 35 19 54 12 26 -10 47 2 47 26 0 8 12 13 28 13 16 0 32 3 36 8
4 4 12 8 17 8 5 1 13 2 18 3 5 0 11 10 14 21 6 25 44 26 85 3 39 -22 63 -12
56 24 -9 44 58 98 106 87 8 -2 30 -6 49 -9z m-4072 -57 c19 -18 86 -82 147
-143 154 -151 261 -252 326 -307 99 -83 256 -242 285 -288 16 -25 38 -56 49
-69 l21 -24 -40 6 c-67 10 -70 11 -168 61 -63 32 -116 68 -158 107 -34 32 -63
59 -65 59 -1 0 -35 33 -75 73 -58 57 -84 76 -121 86 -74 21 -83 2 -48 -91 11
-29 20 -56 20 -60 0 -16 -20 -7 -54 22 -18 17 -50 37 -69 45 -32 13 -37 13
-51 -1 -18 -17 -19 -69 -7 -169 5 -33 7 -62 5 -64 -1 -2 -18 14 -36 35 -51 58
-58 64 -78 64 -18 0 -19 -10 -18 -177 0 -98 -2 -187 -5 -198 -3 -12 -8 -46
-12 -76 -4 -35 -16 -67 -29 -84 l-22 -28 -22 24 c-32 33 -76 196 -87 324 -4
39 -16 89 -26 112 -10 23 -19 47 -19 52 0 6 -12 29 -27 51 -33 47 -63 61 -78
35 -27 -45 -89 -115 -99 -112 -6 2 -17 24 -25 50 -11 34 -21 49 -37 53 -29 8
-97 -28 -124 -66 -12 -17 -26 -27 -32 -24 -11 7 -4 62 14 107 9 24 8 31 -10
49 l-21 21 -49 -21 c-33 -14 -60 -19 -83 -16 -30 5 -40 0 -82 -36 -26 -23 -64
-72 -84 -108 -20 -37 -40 -69 -44 -72 -3 -3 -26 -43 -49 -90 -24 -47 -57 -105
-74 -130 -32 -48 -115 -140 -125 -140 -9 0 -7 97 2 106 4 4 7 24 7 44 0 20 4
40 9 46 5 5 13 37 19 71 6 35 22 79 37 101 15 23 25 51 23 64 -2 19 -11 24
-46 29 -64 8 -69 20 -33 72 51 75 39 108 -48 122 -20 3 -63 -18 -126 -63 -51
-36 -200 -114 -245 -127 -20 -6 -12 6 36 56 157 164 280 279 297 279 5 0 36
25 70 55 33 30 64 55 68 55 4 0 29 32 55 71 l48 70 46 -5 c74 -9 112 -9 165
-2 118 17 163 30 216 62 63 38 75 40 103 19 21 -16 82 -20 90 -7 3 5 25 9 50
10 25 0 60 7 78 16 26 13 38 14 66 5 19 -6 66 -9 110 -6 75 5 208 30 220 41
12 13 34 4 69 -26z m3005 -483 c29 -13 84 -37 123 -51 38 -15 92 -45 119 -66
l48 -38 42 34 c34 28 52 35 92 36 83 3 92 1 127 -30 31 -27 36 -28 48 -14 21
26 93 53 137 52 22 0 45 3 51 6 6 4 16 -2 23 -14 18 -28 44 -25 70 10 29 39
42 42 118 26 82 -17 142 -48 183 -95 55 -63 86 -81 147 -83 65 -1 150 20 177
44 42 38 116 62 194 62 66 1 80 -2 110 -25 19 -14 50 -31 69 -39 19 -7 41 -18
49 -24 7 -6 23 -15 34 -21 36 -17 49 -113 23 -164 -24 -45 -9 -55 73 -47 58 5
84 2 134 -15 76 -26 83 -31 91 -74 8 -42 -12 -94 -47 -122 -33 -26 -157 -43
-332 -45 -121 -2 -134 -1 -168 21 -38 24 -46 24 -188 5 -46 -6 -53 -5 -69 16
l-17 23 -83 -22 c-87 -24 -144 -22 -154 4 -8 21 -31 19 -79 -9 -48 -28 -104
-44 -197 -56 -77 -10 -116 4 -141 49 -25 44 -61 47 -159 12 -47 -17 -125 -37
-175 -46 -49 -9 -100 -18 -112 -20 -17 -4 -33 6 -66 41 -42 43 -46 45 -88 40
-24 -3 -75 -15 -114 -27 -174 -52 -202 -53 -256 -10 -48 39 -58 40 -172 16
-79 -17 -91 -18 -115 -4 -15 8 -31 24 -37 36 -17 34 -94 93 -122 93 -14 0 -56
-10 -95 -21 -102 -31 -185 -16 -253 47 -33 30 -28 64 21 145 59 98 168 190
265 223 60 21 77 20 137 -10 58 -29 78 -27 92 10 15 40 9 39 165 14 15 -2 20
5 26 36 6 40 46 86 73 86 8 0 27 7 42 15 41 21 76 19 136 -10z"/>
<path d="M6772 6528 c-17 -72 -20 -93 -10 -100 22 -14 33 -3 51 53 21 64 19
132 -3 137 -11 2 -21 -20 -38 -90z"/>
<path d="M6607 6563 c-4 -3 -7 -19 -7 -34 0 -16 -8 -50 -18 -76 -9 -26 -17
-57 -16 -68 0 -11 2 -33 3 -48 1 -23 5 -28 24 -25 14 2 21 9 19 20 -1 9 2 19
8 23 5 3 10 20 10 37 0 16 7 54 16 84 11 40 12 58 4 74 -11 20 -31 26 -43 13z"/>
<path d="M6247 6448 c-2 -7 4 -30 15 -51 16 -32 22 -36 33 -27 24 20 0 90 -30
90 -8 0 -15 -6 -18 -12z"/>
<path d="M6871 6136 c-10 -12 -10 -27 -1 -70 6 -31 9 -82 5 -116 -5 -50 -3
-61 10 -66 9 -4 21 -2 27 4 12 12 13 137 1 206 -9 53 -22 66 -42 42z"/>
<path d="M3300 6522 c-123 -129 -217 -191 -337 -222 -43 -11 -60 -39 -25 -41
93 -6 246 76 359 192 34 35 73 73 87 84 33 27 33 45 -1 45 -21 0 -42 -15 -83
-58z"/>
<path d="M5243 6443 c-18 -7 -6 -76 24 -143 27 -58 64 -115 108 -165 14 -16
35 -40 46 -52 10 -13 26 -23 34 -23 29 0 14 36 -45 110 -67 83 -120 184 -120
227 0 16 -5 34 -12 41 -13 13 -16 13 -35 5z"/>
<path d="M4339 6398 c-1 -13 0 -52 1 -88 1 -58 6 -108 29 -299 6 -57 30 -86
51 -65 8 8 6 38 -6 105 -18 100 -24 163 -26 269 0 36 -5 73 -10 83 -13 24 -38
21 -39 -5z"/>
<path d="M10565 6400 c-3 -5 10 -26 29 -46 20 -21 36 -41 36 -45 0 -13 119
-173 136 -182 9 -5 16 -3 20 7 4 10 -19 50 -60 106 -36 50 -66 94 -66 98 0 12
-64 72 -77 72 -7 0 -15 -4 -18 -10z"/>
<path d="M2433 6157 c-23 -23 -59 -62 -80 -87 -21 -25 -48 -57 -61 -70 -25
-27 -29 -60 -8 -60 8 0 24 12 37 27 65 72 166 179 182 191 24 19 21 42 -5 42
-14 0 -41 -18 -65 -43z"/>
<path d="M3277 6175 c-15 -8 -34 -21 -43 -30 -9 -8 -24 -20 -35 -25 -19 -11
-27 -60 -9 -60 21 0 60 24 65 42 4 10 9 18 13 18 4 0 20 10 36 23 23 19 26 25
14 34 -11 9 -20 9 -41 -2z"/>
<path d="M6020 6172 c0 -53 136 -237 166 -225 22 8 17 25 -31 88 -24 33 -52
76 -62 95 -10 19 -23 40 -30 47 -17 19 -43 16 -43 -5z"/>
<path d="M9490 5996 c-21 -56 -34 -146 -23 -157 22 -22 38 -1 56 76 13 59 15
81 6 91 -17 20 -28 17 -39 -10z"/>
<path d="M5570 5978 c0 -36 185 -328 208 -328 4 0 15 -12 24 -27 10 -16 45
-58 80 -94 35 -36 82 -87 106 -114 29 -31 47 -44 54 -37 11 11 -16 72 -32 72
-6 0 -10 6 -10 14 0 7 -36 51 -80 98 -78 83 -216 260 -275 354 -33 52 -75 87
-75 62z"/>
<path d="M3860 5948 c-11 -18 -25 -49 -31 -68 -14 -45 -58 -168 -71 -200 -6
-14 -15 -36 -21 -50 -5 -14 -16 -37 -23 -52 -19 -36 -18 -48 6 -48 24 0 95
137 129 250 13 41 31 98 40 125 27 76 8 104 -29 43z"/>
<path d="M4560 5958 c0 -7 7 -22 16 -33 11 -15 14 -41 13 -100 -3 -83 9 -133
44 -195 25 -45 78 -148 112 -222 15 -33 33 -58 42 -58 28 0 4 79 -71 230 -71
144 -71 146 -69 220 3 87 -10 134 -40 155 -26 18 -47 19 -47 3z"/>
<path d="M11190 5921 c0 -11 9 -22 20 -26 11 -3 57 -44 102 -91 46 -46 89 -84
96 -84 44 0 -44 122 -135 187 -53 38 -83 43 -83 14z"/>
<path d="M8513 5872 c-11 -2 -45 -29 -75 -60 -29 -31 -86 -86 -127 -122 -129
-113 -133 -120 -81 -120 17 0 30 4 30 9 0 5 8 12 18 15 9 4 42 30 73 59 31 28
69 64 85 78 46 40 114 116 114 127 0 15 -11 19 -37 14z"/>
<path d="M9897 5869 c-15 -9 -17 -21 -12 -102 6 -90 19 -147 36 -147 15 0 20
39 13 112 -3 40 -7 87 -8 105 -2 39 -6 44 -29 32z"/>
<path d="M10480 5858 c0 -7 16 -30 35 -52 19 -21 35 -42 35 -46 0 -11 89 -100
100 -100 20 0 20 21 0 42 -12 13 -31 39 -42 58 -46 77 -129 140 -128 98z"/>
<path d="M10890 5841 c0 -10 21 -36 47 -57 68 -56 103 -95 110 -124 9 -40 32
-70 53 -70 26 0 26 22 -1 77 -22 46 -104 143 -121 143 -6 0 -23 11 -40 25 -35
30 -48 31 -48 6z"/>
<path d="M9116 5842 c-3 -5 -8 -43 -11 -84 -5 -66 -3 -76 14 -92 20 -18 21
-18 30 6 5 13 11 58 12 99 4 69 3 74 -18 77 -11 2 -24 -1 -27 -6z"/>
<path d="M2795 5801 c-76 -47 -213 -224 -193 -248 16 -19 59 11 81 56 17 33
103 124 167 175 23 19 23 20 5 27 -28 11 -27 11 -60 -10z"/>
<path d="M2082 5758 c-22 -18 -69 -55 -103 -83 -81 -64 -241 -196 -254 -210
-5 -6 -48 -43 -95 -82 -126 -106 -214 -198 -207 -217 11 -29 36 -17 96 47 33
34 96 94 141 132 96 82 273 237 280 245 3 3 44 36 92 73 88 68 121 103 112
119 -9 14 -21 9 -62 -24z"/>
<path d="M8778 5673 c-20 -15 -47 -41 -59 -58 -13 -16 -53 -67 -91 -111 -67
-81 -83 -114 -52 -114 17 0 53 34 99 94 17 22 45 56 63 77 17 20 32 41 32 47
0 6 18 23 40 39 22 15 38 33 36 38 -6 20 -32 15 -68 -12z"/>
<path d="M7770 5647 c-8 -7 -35 -39 -59 -72 -25 -33 -66 -88 -92 -123 -27 -36
-45 -70 -42 -78 7 -20 22 -17 43 9 96 114 128 154 147 181 13 17 32 39 44 49
17 14 19 20 9 32 -15 18 -30 19 -50 2z"/>
<path d="M3001 5584 c-12 -15 -21 -33 -21 -42 0 -8 -23 -58 -51 -112 -49 -95
-60 -145 -31 -145 16 0 26 17 87 150 26 55 51 108 56 117 14 27 11 58 -5 58
-8 0 -24 -12 -35 -26z"/>
<path d="M9385 5576 c-16 -12 -16 -15 -2 -37 15 -24 16 -114 3 -261 -3 -33 0
-50 10 -59 33 -27 50 32 53 181 3 136 -23 207 -64 176z"/>
<path d="M10340 5530 c0 -35 28 -91 74 -144 76 -90 104 -116 120 -116 31 0 15
33 -46 99 -35 37 -71 85 -82 107 -10 21 -22 46 -26 54 -12 24 -40 25 -40 0z"/>
<path d="M6406 5464 c-11 -29 -6 -40 60 -140 76 -114 155 -192 173 -170 9 11
6 20 -15 43 -51 54 -141 179 -168 231 -27 54 -40 63 -50 36z"/>
<path d="M11510 5297 c0 -24 29 -73 98 -162 46 -60 69 -69 70 -26 0 23 -13 46
-56 95 -31 35 -65 76 -75 90 -22 32 -37 33 -37 3z"/>
<path d="M9731 5238 c-12 -32 -4 -175 11 -206 7 -15 21 -28 30 -30 15 -3 16 6
12 75 -9 149 -15 183 -30 183 -8 0 -18 -10 -23 -22z"/>
<path d="M5683 3180 c-13 -5 -23 -17 -23 -27 0 -10 -9 -24 -20 -31 -23 -14
-26 -44 -6 -61 20 -17 27 -52 17 -86 -7 -29 -8 -29 -15 -7 -4 12 -16 26 -26
32 -15 8 -29 -1 -80 -50 -34 -33 -66 -60 -70 -60 -5 0 -14 14 -22 30 -18 41
-47 49 -69 19 -60 -80 -99 -110 -99 -75 0 20 -28 46 -50 46 -13 0 -29 -19 -51
-60 -17 -33 -39 -60 -47 -60 -8 0 -12 3 -9 6 14 14 -15 44 -41 44 -28 0 -78
-43 -115 -99 l-16 -24 -12 26 c-23 50 -69 34 -150 -51 -43 -44 -49 -48 -69
-37 -13 7 -31 10 -42 7 -19 -5 -98 -88 -98 -104 0 -5 -9 -4 -21 2 -11 7 -31 9
-43 6 -24 -6 -148 14 -236 38 -136 36 -249 64 -290 70 -24 4 -71 16 -104 26
-33 11 -71 20 -85 20 -14 0 -46 7 -70 16 -34 12 -81 15 -200 13 -190 -3 -357
-14 -408 -28 -21 -6 -65 -13 -98 -16 -33 -4 -78 -11 -100 -18 -22 -6 -87 -12
-145 -13 -58 -1 -117 -4 -133 -8 -15 -4 -51 0 -80 7 -52 14 -52 14 -80 -15
-16 -15 -32 -28 -36 -28 -4 0 -16 17 -27 38 -25 47 -54 52 -85 14 l-24 -28
-10 39 c-5 22 -18 45 -28 51 -15 9 -23 5 -45 -22 -34 -40 -51 -41 -59 -2 -7
37 -36 60 -65 52 -18 -4 -20 -2 -16 16 7 24 -16 62 -37 62 -7 0 -21 -7 -30
-16 -15 -15 -18 -15 -44 10 -33 31 -41 32 -75 5 -15 -12 -28 -20 -30 -18 -1 2
-10 16 -19 32 -20 31 -60 36 -87 12 -16 -14 -19 -13 -34 9 -15 23 -21 25 -76
22 -33 -2 -67 -9 -75 -16 -12 -10 -18 -10 -30 0 -21 17 -48 -5 -36 -29 5 -9 7
-21 4 -26 -4 -12 33 -55 47 -55 5 0 18 9 28 20 16 17 23 19 47 10 15 -6 30 -8
33 -6 3 3 18 -6 34 -19 38 -32 51 -31 83 2 19 21 25 24 25 11 0 -24 55 -61 80
-53 11 3 20 11 20 16 0 20 20 8 26 -16 5 -22 12 -25 49 -25 36 0 44 -4 49 -23
3 -15 14 -23 31 -25 14 -1 41 -12 58 -25 45 -34 61 -37 92 -21 34 18 31 19 44
-15 11 -25 46 -51 70 -51 5 0 14 14 20 31 9 27 13 30 26 19 8 -7 15 -19 15
-27 0 -8 11 -25 25 -39 25 -25 27 -25 51 -10 23 16 25 16 33 -7 23 -59 70 -74
103 -32 24 31 34 26 42 -19 4 -23 17 -43 35 -56 34 -23 44 -24 72 -7 17 10 22
9 34 -8 30 -43 33 -44 70 -34 39 11 55 6 55 -17 0 -8 10 -19 23 -23 16 -7 27
-4 44 12 22 19 23 19 29 1 25 -78 40 -92 74 -74 17 9 22 5 34 -24 16 -40 45
-59 67 -45 22 13 26 11 39 -20 13 -33 44 -45 73 -29 19 10 36 -2 37 -24 0 -5
18 -8 40 -8 22 0 40 -4 40 -9 0 -5 12 -16 26 -26 22 -14 31 -15 52 -6 21 10
28 9 44 -9 22 -23 40 -25 68 -8 18 11 23 9 43 -16 19 -24 29 -28 53 -23 64 12
69 12 67 -3 -4 -24 52 -53 77 -40 13 7 20 7 20 0 0 -5 -5 -10 -12 -10 -6 0
-20 -8 -30 -17 -16 -14 -22 -15 -39 -5 -26 17 -59 6 -59 -19 0 -30 -24 -70
-68 -112 -34 -33 -40 -36 -52 -22 -19 23 -30 19 -79 -33 -83 -86 -120 -112
-145 -101 -19 9 -29 4 -73 -40 -53 -52 -70 -60 -90 -40 -19 19 -56 1 -92 -45
-32 -42 -35 -43 -60 -29 -25 13 -28 12 -68 -34 -40 -46 -42 -47 -68 -33 -23
12 -28 12 -35 0 -6 -8 -10 -20 -10 -26 0 -5 -13 -23 -29 -38 l-29 -28 -21 21
c-17 17 -29 20 -60 15 -24 -4 -41 -2 -45 5 -12 19 -44 12 -117 -24 -56 -29
-77 -34 -104 -29 -32 6 -38 2 -79 -42 -42 -47 -44 -48 -63 -32 -27 25 -37 23
-70 -13 -15 -17 -40 -37 -55 -45 -35 -18 -36 -51 -3 -66 23 -10 29 -8 65 27
31 30 43 36 52 27 21 -21 44 -13 91 28 25 22 53 40 62 40 30 0 94 22 112 39
26 23 68 40 80 33 6 -4 16 -24 24 -44 15 -43 38 -49 70 -17 12 12 27 18 38 14
32 -10 66 11 81 49 14 37 24 44 35 26 13 -21 45 -8 79 33 28 34 37 40 47 30
20 -20 55 -15 68 10 41 79 45 82 98 79 45 -3 53 0 95 37 35 32 54 41 82 41 30
0 45 10 107 69 66 64 74 69 106 64 36 -6 44 0 128 101 16 20 39 36 49 36 34 0
93 48 101 83 4 18 7 35 7 38 -2 10 81 -34 100 -53 10 -10 28 -18 39 -18 19 0
21 4 16 37 -4 21 -11 39 -17 41 -5 2 -10 10 -10 18 0 8 -6 11 -15 8 -23 -9
-18 8 15 46 16 19 30 42 30 50 1 27 30 54 58 55 21 0 29 7 37 30 12 35 72 125
84 125 4 0 16 -16 27 -35 14 -27 23 -34 39 -29 11 4 20 7 21 8 1 0 18 27 38
59 32 51 38 56 56 47 31 -17 52 -4 85 50 30 51 39 58 50 40 15 -24 41 -7 69
43 16 28 38 60 48 70 18 18 19 18 39 -7 26 -33 44 -33 66 2 10 15 25 36 35 47
9 11 29 35 43 53 31 37 41 40 50 12 8 -26 33 -50 50 -50 8 0 21 13 29 29 9 16
33 48 56 72 38 41 40 42 55 23 8 -10 15 -22 15 -25 0 -4 10 -9 22 -12 27 -7
60 21 78 64 14 33 13 33 65 15 l39 -14 54 46 c32 27 56 42 60 35 11 -15 48
-33 72 -33 12 0 37 18 59 41 l38 42 31 -18 c26 -16 38 -17 79 -8 41 10 50 9
70 -7 27 -21 51 -17 105 17 l37 23 28 -29 c41 -42 66 -47 94 -16 31 32 39 31
69 -11 14 -20 33 -45 43 -56 19 -20 19 -20 43 3 l24 22 23 -21 c13 -12 36 -22
53 -22 21 0 36 -9 57 -35 28 -35 68 -47 82 -25 11 18 24 11 31 -17 17 -69 68
-106 109 -79 22 14 24 13 46 -19 31 -44 99 -58 99 -19 0 8 3 14 6 14 8 0 34
-27 34 -37 1 -4 11 -21 24 -36 34 -42 85 -43 104 -3 l15 30 20 -40 c10 -21 29
-49 40 -61 24 -27 86 -42 97 -23 5 8 23 -15 52 -66 38 -68 48 -79 73 -82 25
-2 33 -10 49 -50 24 -60 53 -92 83 -92 13 0 23 -6 23 -12 0 -7 6 -25 14 -40 8
-15 17 -40 21 -57 8 -39 27 -53 67 -49 l33 3 17 -69 c19 -79 27 -89 67 -88 25
0 33 -6 51 -41 41 -79 76 -100 115 -67 10 8 18 0 34 -34 25 -50 63 -80 91 -71
14 4 23 -1 34 -22 31 -56 42 -66 65 -53 12 6 21 17 21 25 0 27 16 15 33 -24
20 -44 40 -57 57 -35 19 22 28 17 50 -26 19 -36 24 -40 60 -40 34 0 42 -4 55
-29 20 -41 51 -49 77 -21 l20 22 29 -31 c15 -17 33 -31 38 -31 16 0 51 38 51
55 0 21 8 19 47 -15 18 -16 38 -30 43 -30 5 0 17 13 26 29 17 28 18 28 52 14
43 -18 57 -13 83 32 l21 35 32 -34 c25 -27 37 -33 59 -29 15 3 27 11 27 19 0
24 21 26 44 5 31 -29 75 -27 102 4 21 25 22 25 52 8 25 -14 34 -15 57 -5 14 7
24 15 21 20 -2 4 2 16 9 26 13 18 15 18 41 -3 36 -28 47 -27 79 10 23 28 29
30 48 20 44 -23 64 -20 104 13 35 29 43 32 103 30 36 -1 77 -5 91 -9 19 -5 33
0 56 19 27 23 32 24 49 11 35 -26 78 -18 145 29 99 67 126 79 157 68 34 -12
94 16 119 56 24 37 33 42 64 35 27 -5 43 8 121 101 24 28 26 29 49 13 35 -25
56 -21 110 19 l49 36 35 -30 c27 -24 41 -30 67 -27 35 5 75 22 96 43 16 14 32
7 32 -13 0 -41 109 -51 159 -16 l32 23 23 -21 c28 -26 74 -20 106 14 l22 23
30 -34 c16 -18 33 -33 36 -32 4 1 20 -4 36 -11 24 -10 38 -9 75 4 38 13 48 13
56 2 20 -27 68 -36 111 -20 71 26 71 26 78 0 6 -27 61 -67 91 -67 9 0 32 16
51 36 l33 37 25 -30 c36 -43 61 -47 91 -16 l23 26 32 -26 c36 -30 57 -32 115
-12 61 22 72 19 131 -40 50 -49 58 -54 87 -48 52 10 59 45 10 58 -13 3 -46 26
-72 50 -55 51 -85 58 -169 39 -53 -12 -53 -11 -67 17 -8 15 -23 30 -33 33 -19
6 -77 -17 -87 -35 -11 -16 -20 -10 -32 21 -17 46 -37 47 -94 1 -49 -39 -53
-40 -71 -25 -10 10 -18 23 -18 30 0 33 -106 48 -130 19 -22 -26 -50 -18 -65
19 -19 44 -34 49 -66 20 -51 -48 -120 -48 -138 -2 -5 13 -18 31 -28 41 -19 17
-22 16 -76 -13 -31 -16 -59 -30 -61 -30 -3 0 -6 10 -8 23 -4 30 -52 37 -67 9
-13 -25 -76 -55 -99 -48 -9 3 -25 19 -34 36 -20 36 -47 39 -87 9 -36 -26 -96
-40 -110 -26 -6 6 -11 21 -11 34 0 16 -7 25 -26 29 -29 7 -58 -6 -104 -47 -17
-16 -33 -29 -36 -29 -3 0 -17 9 -33 21 -36 27 -62 15 -119 -56 -41 -51 -46
-54 -85 -52 -38 2 -44 -1 -57 -28 -8 -17 -27 -41 -43 -54 -26 -22 -31 -23 -66
-11 -37 12 -40 11 -91 -24 -29 -20 -59 -36 -67 -36 -8 0 -28 -13 -45 -30 -31
-32 -68 -40 -68 -16 0 19 -35 30 -57 17 -10 -5 -27 -19 -37 -30 -20 -23 -52
-28 -58 -10 -2 6 -15 10 -28 10 -14 0 -48 -1 -76 -1 -41 0 -60 -6 -92 -30 -49
-35 -58 -37 -65 -10 -4 17 -9 18 -37 10 -18 -5 -40 -16 -50 -25 -14 -13 -19
-13 -36 0 -28 22 -45 18 -88 -19 -39 -32 -41 -32 -67 -17 -28 16 -29 15 -67
-22 -38 -38 -52 -39 -52 -6 0 10 -9 23 -20 29 -20 10 -44 2 -91 -31 -12 -9
-22 -5 -48 21 l-32 33 -42 -41 -42 -41 -18 25 c-23 31 -32 30 -68 -8 -28 -31
-31 -32 -43 -15 -17 22 -60 15 -93 -16 -13 -11 -24 -19 -25 -16 -2 2 -8 13
-14 24 -16 28 -52 31 -79 5 l-22 -21 -7 23 c-3 13 -6 35 -6 50 0 21 -6 28 -31
33 -23 5 -34 3 -44 -12 -8 -10 -15 -22 -15 -26 0 -20 -20 7 -20 28 0 13 -3 30
-6 39 -7 18 -49 22 -59 6 -13 -20 -31 -9 -48 30 -22 51 -41 58 -77 31 -16 -11
-31 -21 -33 -21 -3 0 -7 23 -11 50 -4 31 -13 53 -22 57 -17 6 -66 -35 -58 -48
3 -5 2 -9 -3 -9 -10 0 -33 48 -33 69 0 9 -5 33 -11 54 -14 51 -48 52 -75 2
-10 -19 -23 -34 -29 -32 -5 2 -22 39 -36 83 -21 66 -30 81 -53 89 -20 7 -29 6
-35 -4 -5 -8 -14 11 -26 51 -24 88 -59 120 -93 86 -8 -8 -14 -4 -22 18 -6 16
-15 38 -20 49 -5 11 -11 36 -13 55 -2 19 -7 43 -11 52 -6 14 0 18 41 23 26 4
71 13 98 20 28 8 74 17 103 19 29 3 80 17 115 31 34 15 80 31 102 36 22 5 51
14 65 18 14 5 72 24 130 42 58 17 132 42 165 55 56 21 205 77 250 93 37 14
120 42 135 46 51 12 112 24 155 30 28 3 68 11 90 17 46 12 303 16 388 5 32 -4
84 -16 115 -26 31 -11 75 -23 97 -27 22 -4 63 -17 92 -30 28 -13 57 -24 63
-24 7 0 69 -18 138 -39 70 -22 154 -47 187 -56 33 -10 87 -25 120 -36 84 -25
237 -51 320 -53 66 -1 70 0 73 22 2 12 2 22 0 22 -195 17 -323 41 -468 88 -52
17 -121 38 -153 47 -32 9 -55 20 -52 24 4 7 63 21 115 26 8 1 47 11 85 23 158
46 235 62 301 61 66 -1 96 -4 244 -29 36 -6 76 -12 90 -14 64 -10 130 -26 181
-45 30 -12 68 -23 84 -26 17 -2 66 -11 110 -20 95 -18 181 -32 290 -45 44 -6
114 -15 155 -20 41 -6 114 -13 163 -16 76 -6 87 -5 87 9 0 24 -27 34 -109 41
-40 3 -76 8 -80 11 -6 3 -122 20 -211 30 -14 1 -36 5 -50 8 -14 3 -104 20
-200 37 -96 17 -197 40 -225 50 -27 11 -68 22 -90 26 -22 4 -49 8 -60 10 -11
3 -51 9 -90 15 -274 41 -363 47 -425 28 -19 -5 -44 -12 -55 -14 -11 -3 -31 -9
-45 -14 -69 -25 -186 -53 -315 -75 -83 -14 -149 -10 -210 14 -16 6 -31 11 -33
10 -1 -1 -28 8 -60 20 -31 12 -93 28 -137 36 -94 18 -308 26 -362 14 -21 -5
-72 -14 -113 -20 -108 -16 -227 -48 -370 -97 -306 -106 -332 -114 -343 -105
-7 6 -31 12 -55 16 -24 3 -47 8 -52 11 -5 3 -30 10 -57 15 -26 5 -82 19 -123
30 -41 12 -88 23 -105 25 -16 3 -41 7 -55 10 -69 16 -294 -1 -440 -33 -52 -12
-121 -22 -154 -24 -50 -3 -60 0 -70 17 -27 49 -70 49 -93 0 -9 -19 -22 -35
-28 -35 -7 0 -24 29 -39 65 -35 82 -48 93 -81 71 -14 -9 -25 -25 -25 -36 0
-11 -4 -20 -10 -20 -14 0 -30 35 -30 69 0 20 -7 34 -19 41 -31 16 -40 12 -55
-24 -8 -18 -19 -37 -25 -40 -12 -8 -33 31 -51 97 -11 42 -16 47 -41 47 -22 0
-32 -7 -44 -31 -18 -34 -20 -34 -43 12 -23 44 -46 57 -72 41 -17 -10 -25 -9
-48 8 -25 18 -32 19 -55 9 -34 -15 -52 -1 -61 46 -6 32 -29 55 -54 55 -6 0
-26 -16 -46 -36 -41 -41 -63 -40 -73 6 -5 30 -28 50 -55 50 -7 0 -28 -21 -47
-46 -35 -46 -53 -52 -57 -18 -1 10 -7 41 -12 69 -6 27 -8 53 -6 57 2 3 18 9
34 13 16 4 32 11 36 16 9 14 -15 39 -38 39 -11 0 -33 11 -50 25 -33 28 -33 28
-65 15z m-1953 -513 c30 -9 75 -19 99 -22 23 -4 55 -11 70 -17 14 -5 51 -14
81 -19 80 -12 180 -35 215 -49 33 -13 196 -51 235 -55 14 -1 29 -3 34 -4 5 0
3 -8 -4 -16 -8 -10 -21 -13 -38 -8 -22 5 -33 -2 -78 -53 l-53 -59 -31 18 c-30
18 -32 18 -58 1 -15 -10 -36 -29 -47 -43 -57 -73 -62 -76 -80 -61 -20 17 -30
5 -40 -49 -10 -53 -64 -134 -84 -125 -9 4 -26 9 -38 11 -20 5 -23 1 -23 -25 0
-20 -6 -31 -17 -35 -10 -2 -26 -8 -35 -12 -15 -6 -18 -2 -18 19 0 37 -42 63
-76 47 -36 -16 -44 -14 -44 13 0 51 -52 73 -85 36 -25 -28 -33 -25 -37 13 -2
26 -8 33 -29 35 -19 2 -33 -4 -47 -22 -25 -33 -32 -33 -32 2 0 52 -42 69 -76
31 l-19 -21 -5 33 c-4 27 -10 35 -31 37 -15 2 -32 -5 -44 -18 -24 -27 -35 -25
-35 6 0 55 -41 84 -70 49 -19 -22 -27 -18 -34 17 -3 17 -11 37 -17 45 -14 15
-51 17 -65 3 -7 -7 -14 2 -23 30 -14 47 -41 66 -71 50 -17 -9 -22 -7 -29 13
-21 54 -62 56 -90 3 -16 -29 -31 -25 -31 6 0 24 -27 58 -45 58 -6 0 -24 -14
-40 -30 -32 -34 -45 -27 -45 27 0 17 -5 44 -10 59 -6 15 -8 29 -5 32 2 3 60 6
127 8 68 1 137 5 153 8 125 24 239 38 354 42 74 2 136 5 137 7 10 9 229 -4
274 -16z m-1144 -69 c3 -5 0 -16 -7 -24 -12 -14 -14 -14 -26 2 -19 26 -16 43
7 37 11 -3 23 -10 26 -15z m5054 -8 c25 -5 88 -20 140 -34 52 -14 104 -26 115
-26 11 0 30 -6 43 -14 23 -12 22 -13 -20 -26 -49 -15 -55 -17 -83 -23 -11 -3
-54 -17 -95 -31 -101 -36 -135 -45 -200 -51 -30 -4 -62 -8 -70 -10 -8 -3 -35
-7 -59 -10 -24 -3 -51 -10 -61 -15 -10 -6 -37 -10 -60 -10 -37 0 -41 3 -46 30
-10 46 -30 58 -65 37 l-30 -16 -35 75 c-31 66 -37 103 -15 90 4 -3 34 2 67 10
164 41 342 50 474 24z m-630 -52 c0 -7 -4 -19 -9 -27 -7 -11 -11 -10 -20 7
-15 28 -14 32 9 32 11 0 20 -6 20 -12z m290 -278 c0 -5 -4 -12 -10 -15 -5 -3
-10 -4 -10 -1 0 2 -3 12 -6 20 -5 12 -2 15 10 10 9 -3 16 -10 16 -14z"/>
<path d="M5680 2773 c-53 -51 -61 -76 -32 -92 15 -8 25 -3 52 24 l33 35 19
-30 c10 -17 25 -30 33 -30 34 0 5 109 -35 130 -18 10 -27 5 -70 -37z"/>
<path d="M5477 2684 c-53 -58 -73 -68 -63 -30 4 16 0 29 -13 40 -19 17 -20 17
-36 -8 -12 -18 -15 -35 -10 -58 17 -79 45 -87 101 -33 39 38 58 39 89 5 10
-11 27 -20 38 -20 16 0 18 5 12 28 -3 15 -13 34 -21 43 -8 9 -14 29 -12 44 2
20 -2 29 -17 35 -16 6 -30 -4 -68 -46z"/>
<path d="M5888 2719 c-18 -10 -16 -33 8 -86 15 -33 31 -49 41 -40 9 9 10 68 1
73 -4 3 -8 13 -8 23 0 26 -22 42 -42 30z"/>
<path d="M1810 2690 c0 -11 7 -28 15 -37 8 -10 21 -27 28 -37 17 -23 47 -15
47 13 0 23 -52 81 -74 81 -9 0 -16 -8 -16 -20z"/>
<path d="M1442 2688 c-16 -16 -15 -24 4 -75 12 -30 23 -43 36 -43 23 0 35 27
19 43 -6 6 -11 23 -11 39 0 32 -30 54 -48 36z"/>
<path d="M1567 2684 c-16 -17 -4 -52 32 -91 43 -48 77 -58 66 -20 -4 12 -19
42 -34 67 -27 43 -49 59 -64 44z"/>
<path d="M5176 2621 c-33 -62 -44 -69 -62 -42 -22 31 -50 26 -81 -16 -15 -20
-38 -47 -51 -61 -32 -33 -27 -76 9 -80 22 -3 29 2 37 27 12 33 26 40 36 16 14
-38 65 -4 102 67 9 18 22 36 28 40 13 8 46 -19 46 -38 0 -25 50 -29 73 -6 17
17 18 23 7 36 -7 9 -20 16 -30 16 -12 0 -20 12 -26 43 -7 35 -13 43 -35 45
-21 3 -30 -5 -53 -47z"/>
<path d="M6081 2644 c-27 -22 -31 -32 -31 -75 0 -27 5 -50 10 -50 32 -5 35 -3
32 36 -2 31 1 43 18 53 19 12 20 10 20 -47 0 -73 20 -93 58 -58 20 18 24 19
32 7 7 -12 14 -12 27 -4 21 13 37 131 21 152 -18 21 -43 13 -62 -20 -18 -30
-20 -30 -27 -10 -8 20 -37 42 -58 42 -5 0 -23 -12 -40 -26z"/>
<path d="M1976 2642 c-27 -44 -6 -155 32 -160 19 -3 20 1 17 75 -1 43 -3 81
-4 86 -1 9 -38 9 -45 -1z"/>
<path d="M6353 2539 c-16 -16 -5 -37 26 -53 19 -10 40 -12 80 -5 100 15 93 53
-9 53 -33 0 -60 4 -60 8 0 12 -24 10 -37 -3z"/>
<path d="M5525 2448 c-102 -115 -107 -122 -99 -142 10 -26 32 -19 69 22 41 44
46 31 9 -23 -28 -41 -39 -91 -22 -101 6 -4 27 -7 47 -7 l37 0 -4 -53 c-4 -50
-3 -54 17 -54 37 0 50 37 56 160 3 63 10 119 14 123 5 5 32 -15 60 -43 42 -42
55 -49 66 -40 12 10 10 19 -15 56 -17 24 -36 47 -44 51 -7 4 -21 23 -31 41
-11 17 -23 32 -27 32 -4 0 -8 11 -8 25 0 20 -26 47 -42 45 -2 -1 -39 -42 -83
-92z m55 -183 c0 -8 -4 -15 -10 -15 -5 0 -10 7 -10 15 0 8 5 15 10 15 6 0 10
-7 10 -15z"/>
<path d="M1882 2508 c-30 -30 -3 -138 31 -125 21 8 18 131 -3 135 -9 1 -21 -3
-28 -10z"/>
<path d="M5810 2513 c-28 -10 -60 -46 -60 -68 0 -26 42 -75 64 -75 25 0 28 18
6 37 -27 23 -25 37 6 58 39 25 58 5 50 -56 -6 -42 -4 -48 18 -62 29 -19 32
-15 42 61 5 43 3 52 -21 80 -26 32 -63 40 -105 25z"/>
<path d="M2106 2481 c-15 -16 -16 -28 -10 -63 5 -24 8 -47 9 -53 0 -5 6 -14
14 -19 25 -16 41 21 36 81 -7 78 -17 89 -49 54z"/>
<path d="M4802 2470 c-7 -11 -18 -20 -25 -20 -6 -1 -37 -20 -67 -43 -56 -44
-74 -80 -46 -90 23 -9 38 -1 60 31 10 16 32 36 49 45 l30 18 -7 -63 c-4 -35
-9 -83 -11 -108 -2 -25 -6 -61 -9 -81 -6 -42 11 -64 43 -54 17 5 19 15 18 73
-1 89 12 188 29 220 19 36 18 78 -2 86 -28 11 -49 6 -62 -14z"/>
<path d="M1695 2470 c-4 -6 -4 -29 0 -51 10 -60 75 -94 75 -39 0 10 -4 22 -10
25 -5 3 -10 15 -10 25 0 19 -25 50 -40 50 -5 0 -12 -5 -15 -10z"/>
<path d="M1541 2441 c-20 -13 6 -76 36 -90 52 -24 80 -2 39 30 -14 11 -26 29
-26 39 0 10 -7 21 -16 24 -19 7 -16 8 -33 -3z"/>
<path d="M6528 2433 c-54 -65 -79 -173 -42 -187 25 -10 36 3 29 35 -5 20 -1
38 10 56 l17 26 27 -49 c17 -32 32 -49 44 -48 9 1 24 2 33 3 9 0 14 7 11 14
-2 6 -1 21 3 31 8 24 -16 56 -42 56 -12 0 -18 8 -18 21 0 52 -42 77 -72 42z"/>
<path d="M6111 2385 c-24 -49 -30 -100 -13 -117 19 -19 42 -1 43 34 l1 33 9
-30 c5 -16 18 -41 28 -55 18 -23 22 -24 51 -13 17 6 38 9 45 7 29 -12 34 7 13
47 -25 48 -42 57 -67 35 -23 -21 -31 -12 -31 39 0 77 -45 88 -79 20z"/>
<path d="M6773 2417 c-87 -50 -102 -67 -77 -92 21 -21 32 -19 57 9 l21 24 16
-31 c20 -38 42 -52 64 -44 14 6 15 10 4 29 -7 13 -13 28 -14 33 -6 61 -36 92
-71 72z"/>
<path d="M5135 2363 c-38 -49 -43 -85 -12 -91 12 -3 21 6 28 28 15 41 33 33
39 -16 4 -31 9 -39 25 -39 17 0 20 8 23 56 2 44 -1 61 -18 82 -12 15 -28 27
-35 27 -8 0 -30 -21 -50 -47z"/>
<path d="M2311 2376 c-8 -10 -9 -26 -1 -59 15 -70 30 -97 55 -97 33 0 35 8 14
53 -10 23 -19 54 -19 69 0 33 -32 55 -49 34z"/>
<path d="M4936 2348 c-17 -41 -10 -138 10 -138 7 0 15 12 17 28 3 18 5 12 6
-18 2 -59 12 -75 39 -61 17 9 20 20 19 93 0 92 -15 127 -55 128 -17 0 -27 -9
-36 -32z"/>
<path d="M6936 2345 c-14 -15 -14 -20 -1 -52 8 -19 15 -37 15 -39 0 -6 71 -16
77 -11 3 4 -6 20 -21 37 -14 17 -26 37 -26 45 0 7 -6 18 -14 24 -11 9 -18 8
-30 -4z"/>
<path d="M2523 2322 c-16 -10 -31 -74 -23 -97 12 -32 43 -55 60 -45 11 7 12
14 2 34 -6 13 -9 40 -6 58 6 36 -12 63 -33 50z"/>
<path d="M5924 2267 c-27 -30 -64 -70 -81 -91 -54 -60 -38 -104 26 -72 39 21
48 20 29 -1 -8 -10 -23 -35 -32 -56 -17 -37 -17 -40 0 -58 9 -10 25 -19 35
-19 28 0 69 -22 69 -37 0 -22 40 -15 49 10 4 12 6 70 4 130 -1 59 1 107 5 107
17 0 20 -12 10 -35 -6 -13 -8 -35 -4 -49 5 -21 13 -26 36 -26 20 0 30 5 30 15
0 8 6 12 13 9 8 -3 19 1 26 9 9 12 2 27 -36 78 -26 35 -53 69 -60 74 -7 6 -17
22 -22 38 -16 41 -42 34 -97 -26z m43 -62 c-4 -8 -14 -15 -23 -15 -16 0 -16 2
1 20 20 22 31 20 22 -5z m-6 -158 c-16 -16 -26 0 -10 19 9 11 15 12 17 4 2 -6
-1 -17 -7 -23z"/>
<path d="M9069 2257 c-14 -13 -24 -28 -22 -33 2 -6 -3 -26 -11 -46 -17 -41
-52 -68 -153 -117 -26 -13 -56 -27 -66 -32 -36 -19 -264 -90 -302 -95 -22 -2
-47 -6 -55 -9 -8 -2 -40 -7 -70 -10 -210 -25 -294 -36 -301 -41 -4 -2 -37 -6
-74 -8 -52 -3 -72 -9 -88 -25 -16 -16 -18 -24 -10 -32 13 -13 137 0 258 25 33
7 78 14 100 15 89 4 318 52 434 91 129 43 263 104 318 146 39 30 84 108 86
153 2 42 -10 47 -44 18z"/>
<path d="M2637 2263 c-13 -13 -7 -90 8 -103 26 -22 41 -6 39 43 -1 25 -5 50
-8 56 -8 12 -29 15 -39 4z"/>
<path d="M4350 2253 c-46 -32 -54 -44 -43 -62 15 -23 42 -26 58 -4 15 20 16
20 38 -57 9 -33 18 -46 34 -48 12 -2 23 4 27 13 15 40 -45 175 -77 175 -7 0
-24 -8 -37 -17z"/>
<path d="M4662 2207 c-71 -72 -69 -107 8 -122 30 -5 39 -2 63 23 36 37 33 67
-6 67 -30 -1 -35 16 -12 35 16 14 20 36 7 44 -5 3 -32 -18 -60 -47z"/>
<path d="M7078 2222 c-21 -20 -46 -45 -57 -54 -12 -10 -18 -24 -15 -33 7 -17
49 -21 59 -5 10 17 21 11 34 -16 16 -35 46 -28 47 11 1 17 4 49 8 72 6 36 5
43 -13 52 -25 14 -20 16 -63 -27z"/>
<path d="M4545 2220 c3 -5 17 -10 31 -10 14 0 22 4 19 10 -3 6 -17 10 -31 10
-14 0 -22 -4 -19 -10z"/>
<path d="M5200 2190 c0 -6 -11 -15 -25 -20 -13 -5 -32 -24 -41 -42 -9 -18 -28
-48 -41 -66 -24 -32 -24 -34 -7 -53 13 -14 15 -25 8 -42 -13 -30 -6 -77 11
-77 8 0 21 10 29 22 13 18 18 19 31 8 13 -11 19 -10 36 9 28 30 21 57 -14 54
-31 -2 -33 5 -12 33 19 25 19 53 0 61 -14 5 -14 8 -2 22 8 9 17 25 21 36 7 19
8 19 23 -6 9 -15 34 -38 56 -52 32 -21 44 -24 59 -16 19 10 19 11 -3 35 -12
13 -30 26 -40 29 -9 3 -24 21 -34 40 -10 22 -23 35 -35 35 -11 0 -20 -5 -20
-10z"/>
<path d="M6714 2148 c-31 -49 -46 -95 -33 -103 14 -9 28 3 58 52 l28 45 17
-32 c9 -18 16 -39 16 -46 0 -15 52 -28 79 -19 10 3 22 16 25 28 l7 22 16 -22
c8 -13 24 -23 34 -23 24 0 24 30 0 90 -15 36 -24 45 -42 45 -20 0 -28 -10 -44
-52 -11 -29 -25 -53 -32 -53 -7 0 -20 22 -30 50 -14 39 -21 49 -35 44 -10 -3
-18 -1 -18 5 0 23 -21 9 -46 -31z"/>
<path d="M2836 2158 c-22 -31 -20 -91 3 -119 24 -30 30 -24 37 32 3 24 7 52
10 62 6 18 -11 47 -27 47 -4 0 -15 -10 -23 -22z"/>
<path d="M6462 2168 c-13 -13 -16 -57 -4 -74 4 -6 17 -16 30 -23 19 -10 22 -9
22 6 1 17 1 17 11 1 5 -10 18 -22 29 -28 15 -8 21 -6 30 10 10 18 6 29 -26 71
-39 50 -68 61 -92 37z"/>
<path d="M2058 2113 c-5 -62 4 -97 26 -101 30 -6 36 10 28 78 -6 56 -10 65
-28 68 -19 3 -22 -3 -26 -45z"/>
<path d="M2200 2145 c-15 -18 -8 -98 10 -120 16 -19 46 -19 53 -1 3 8 -1 20
-9 27 -10 8 -14 26 -13 49 4 55 -15 76 -41 45z"/>
<path d="M1828 2142 c-22 -4 -26 -62 -4 -62 29 0 46 13 46 35 0 24 -14 34 -42
27z"/>
<path d="M2370 2131 c-14 -27 -13 -74 3 -95 11 -15 17 -17 35 -7 18 10 21 18
16 54 -3 23 -7 48 -9 55 -6 19 -33 14 -45 -7z"/>
<path d="M4168 2120 c-25 -28 -58 -96 -58 -119 0 -11 7 -27 16 -35 21 -21 58
-3 49 24 -8 25 5 72 18 67 6 -2 15 -21 22 -43 8 -32 16 -40 38 -42 28 -3 39
19 16 33 -6 4 -8 14 -5 22 3 8 3 20 -1 26 -5 7 -13 28 -18 47 -8 27 -16 35
-35 37 -14 1 -33 -7 -42 -17z"/>
<path d="M2547 2088 c-23 -36 -28 -63 -17 -92 7 -20 16 -27 32 -24 22 3 25 13
31 103 3 38 -26 46 -46 13z"/>
<path d="M3032 2091 c-8 -4 -16 -34 -19 -67 -4 -50 -2 -63 15 -84 18 -22 22
-23 36 -10 12 12 13 23 5 57 -9 34 -8 46 5 65 9 12 16 28 16 35 0 15 -38 17
-58 4z"/>
<path d="M6180 1999 c-50 -50 -90 -97 -90 -104 0 -19 25 -36 44 -29 9 4 22 17
29 30 14 27 105 124 117 124 19 0 -18 -82 -63 -141 -18 -24 -27 -48 -27 -73 0
-33 3 -37 30 -42 45 -10 33 -54 -15 -54 -12 0 -27 -6 -34 -12 -11 -11 -14 -10
-18 0 -3 7 -11 19 -20 27 -8 8 -13 23 -11 32 8 49 -36 57 -55 11 -52 -125
-130 -238 -162 -238 -8 0 -20 -10 -26 -22 -9 -18 -8 -24 6 -34 13 -9 23 -10
36 -3 15 7 19 6 19 -5 0 -8 -4 -18 -10 -21 -15 -9 -12 -22 7 -29 11 -5 27 5
50 29 39 42 53 46 24 8 -12 -16 -29 -38 -39 -51 -9 -13 -32 -40 -49 -61 -18
-21 -33 -43 -33 -49 0 -6 25 -16 55 -23 52 -11 55 -14 61 -48 9 -51 22 -71 44
-71 18 0 20 5 14 43 -3 23 -10 60 -15 82 -7 33 -5 43 10 59 19 18 20 18 55 -9
32 -24 40 -26 62 -17 49 23 41 66 -13 67 -22 0 -32 8 -44 35 -21 43 -17 52 21
39 46 -17 70 2 70 55 0 24 -7 60 -15 79 -16 40 -7 55 23 36 25 -15 52 -5 52
19 0 18 41 104 62 129 7 9 16 9 33 1 13 -6 32 -7 42 -4 16 7 16 9 -8 29 -14
12 -37 31 -52 42 -21 15 -27 28 -27 56 0 19 3 39 7 43 4 3 23 -12 43 -35 26
-31 41 -41 54 -36 20 8 14 40 -11 69 -22 24 -66 105 -77 141 -4 11 -16 17 -36
17 -25 0 -46 -16 -120 -91z m105 -198 c3 -5 1 -12 -5 -16 -5 -3 -10 1 -10 9 0
18 6 21 15 7z m-136 -222 c13 -28 20 -58 16 -67 -5 -14 -13 -9 -44 23 -37 39
-37 41 -22 68 8 15 18 27 22 27 4 0 16 -23 28 -51z"/>
<path d="M7169 2088 c-2 -7 -8 -106 -13 -223 -4 -93 -9 -131 -18 -134 -7 -2
-19 -10 -25 -19 -18 -22 -17 -1 2 63 17 54 14 78 -9 69 -22 -9 -82 -196 -69
-217 3 -5 -3 -8 -13 -7 -34 4 -45 0 -67 -23 -107 -113 -131 -137 -139 -137
-10 0 -22 -12 -47 -43 -11 -14 -11 -20 -1 -32 19 -22 26 -19 83 32 29 26 63
56 76 68 23 20 24 20 13 0 -5 -11 -21 -29 -34 -41 -26 -24 -80 -83 -91 -101
-12 -18 11 -53 33 -53 11 0 29 6 41 13 17 10 22 9 30 -5 6 -10 21 -18 35 -18
23 0 25 -3 22 -40 -2 -45 20 -77 46 -67 12 5 16 21 16 63 0 40 5 60 16 68 12
9 13 17 5 40 -6 15 -9 32 -5 37 8 14 36 11 56 -8 16 -15 23 -15 54 -4 40 14
52 10 29 -9 -34 -28 -6 -76 40 -68 14 3 30 -1 37 -9 6 -8 23 -13 37 -11 22 3
26 -1 26 -22 0 -14 -3 -35 -7 -47 -6 -17 -2 -25 13 -34 42 -22 52 -5 47 76 -3
41 -4 75 -2 75 2 0 15 -5 28 -12 35 -15 61 9 70 63 6 38 4 44 -35 82 -23 23
-48 41 -55 39 -7 -1 -15 2 -19 8 -3 5 -15 10 -26 10 -14 0 -19 -7 -19 -25 0
-19 -5 -25 -21 -25 -13 0 -36 -16 -54 -37 -18 -21 -36 -35 -40 -31 -9 9 64 98
80 98 15 0 41 67 31 78 -17 16 -45 10 -61 -14 -9 -15 -33 -40 -53 -58 -20 -17
-44 -39 -54 -48 -10 -10 -20 -18 -22 -18 -12 0 -88 103 -96 129 -8 27 -6 32
18 43 16 8 29 25 34 45 8 31 9 31 35 18 33 -17 39 -14 47 29 4 19 13 37 22 40
10 4 14 18 13 43 -1 21 1 97 4 169 6 114 5 133 -9 138 -16 6 -33 8 -35 4z
m161 -689 c0 -22 -5 -32 -20 -36 -11 -3 -20 -10 -20 -16 0 -8 -3 -8 -11 0 -8
8 -4 21 17 47 16 20 30 36 32 36 1 0 2 -14 2 -31z m88 -1 c-7 -19 -38 -22 -38
-4 0 10 9 16 21 16 12 0 19 -5 17 -12z"/>
<path d="M5377 2064 c-4 -4 -4 -18 -1 -30 5 -19 2 -24 -14 -24 -11 0 -32 -16
-47 -36 -16 -20 -52 -64 -82 -97 -57 -64 -66 -99 -27 -105 16 -2 28 7 44 32
12 20 26 36 31 36 5 0 9 4 9 9 0 17 69 86 77 78 4 -5 3 -11 -2 -15 -6 -4 -26
-32 -46 -62 -20 -30 -48 -66 -62 -80 -44 -41 -30 -80 28 -80 19 0 35 -7 43
-20 7 -11 19 -20 27 -20 9 0 15 -10 15 -25 0 -27 25 -44 40 -29 5 5 10 35 11
67 2 57 12 78 30 60 5 -5 4 -24 -2 -46 -11 -42 -1 -59 44 -76 20 -8 29 -6 41
8 18 20 21 47 6 56 -5 3 -7 12 -3 20 10 29 -8 66 -42 87 -19 11 -35 26 -35 34
0 17 11 18 45 2 21 -9 29 -9 42 5 20 20 11 33 -52 73 -25 15 -45 32 -45 36 0
11 8 10 45 -8 37 -17 76 -16 82 3 3 6 -15 24 -39 40 -41 27 -61 45 -100 92
-17 20 -48 28 -61 15z"/>
<path d="M4920 2041 c-5 -11 -10 -26 -10 -34 0 -7 -17 -29 -37 -48 -57 -52
-143 -148 -143 -158 0 -29 13 -41 38 -34 l26 6 -22 -28 c-23 -29 -29 -60 -13
-69 5 -3 12 -22 15 -41 6 -30 12 -37 37 -42 21 -4 27 -9 20 -16 -16 -16 -13
-47 4 -53 9 -4 15 -19 15 -41 0 -32 2 -35 23 -29 12 3 28 6 35 6 8 0 12 21 12
69 0 39 5 73 10 76 13 8 13 42 -1 50 -5 4 -18 0 -28 -9 -24 -22 -31 -20 -31 7
0 13 11 34 24 47 l25 23 39 -32 c40 -31 57 -36 86 -25 35 14 12 54 -31 54 -8
0 -30 17 -48 37 l-33 37 -35 -27 c-52 -39 -54 -33 -8 22 22 26 38 51 34 55
-10 10 27 7 48 -4 14 -8 25 -6 44 6 31 20 28 39 -6 40 -35 1 -79 21 -79 37 0
7 7 22 15 33 14 18 16 18 26 2 12 -21 27 -22 65 -8 l27 11 -49 49 c-53 53 -77
61 -94 31z m-92 -240 c-14 -12 -24 -15 -27 -8 -2 6 7 19 20 30 14 12 25 15 27
8 2 -6 -7 -20 -20 -30z"/>
<path d="M6587 2023 c-13 -21 -31 -50 -38 -65 -36 -70 -94 -165 -120 -197 -34
-42 -36 -57 -10 -71 18 -9 25 -2 65 60 26 39 46 74 46 79 0 10 39 46 43 40 2
-2 2 -23 -1 -47 -3 -36 -14 -53 -68 -110 -49 -51 -64 -73 -62 -92 5 -44 39
-31 83 33 22 32 41 53 43 47 2 -6 -3 -19 -12 -29 -18 -20 -21 -63 -6 -92 9
-16 5 -26 -19 -56 -17 -20 -28 -40 -25 -44 4 -6 -60 -153 -73 -169 -9 -10 -34
36 -29 53 6 25 -3 47 -20 47 -8 0 -14 4 -14 9 0 5 -7 17 -16 25 -18 19 -10 38
12 29 15 -5 33 11 34 29 0 9 -79 48 -97 48 -18 0 -16 -50 3 -71 15 -16 11 -24
-51 -106 -38 -48 -84 -108 -103 -131 -28 -34 -34 -47 -26 -60 22 -34 30 -28
121 93 5 6 19 27 33 47 29 43 36 46 43 17 4 -15 -4 -30 -26 -53 -77 -78 -117
-127 -123 -150 -13 -52 19 -60 73 -19 35 27 36 27 50 8 10 -15 13 -34 8 -71
-5 -41 -3 -53 9 -57 23 -9 50 37 51 87 1 22 6 54 13 69 7 16 12 42 12 58 0 37
14 37 37 -1 19 -32 43 -38 66 -16 8 8 22 14 33 13 15 -2 19 5 20 33 1 56 3 65
19 86 13 17 14 14 9 -41 -9 -98 -11 -119 -19 -147 -5 -20 -2 -29 13 -37 39
-21 49 4 60 144 6 72 12 136 14 143 3 14 -3 18 -54 42 l-27 13 20 40 c12 22
18 48 16 59 -3 11 1 22 9 25 8 3 13 12 10 19 -4 11 10 71 20 83 2 2 21 -11 44
-29 38 -30 70 -35 70 -10 0 5 -16 28 -36 50 -41 45 -42 74 -1 78 42 5 37 39
-8 48 -19 3 -45 17 -59 30 -22 22 -24 31 -19 87 3 34 7 63 8 65 1 1 22 -25 46
-58 24 -33 52 -63 62 -66 9 -3 17 -10 17 -15 0 -19 39 -8 45 12 5 16 0 27 -21
45 -16 13 -32 23 -36 24 -8 0 -78 97 -78 109 0 10 -24 21 -44 21 -8 0 -25 -17
-39 -37z"/>
<path d="M4369 1945 c-17 -36 -29 -73 -27 -83 5 -25 52 -23 56 3 6 32 22 42
22 15 1 -54 64 -88 100 -55 36 33 20 76 -20 55 -18 -10 -22 -7 -35 24 -8 20
-15 46 -15 59 0 25 -17 47 -37 47 -7 0 -27 -29 -44 -65z"/>
<path d="M5710 1985 c0 -8 -6 -15 -14 -15 -16 0 -116 -108 -116 -126 0 -17 30
-45 41 -39 19 12 8 -8 -26 -48 -37 -42 -44 -77 -22 -96 8 -6 12 -23 9 -41 -4
-28 -2 -30 26 -30 29 0 48 15 88 65 14 19 15 17 9 -25 -13 -87 -11 -114 8
-118 31 -6 47 17 47 70 0 41 3 49 18 47 29 -5 69 10 76 28 8 20 -10 33 -47 33
-32 0 -40 14 -35 61 l3 32 31 -26 c17 -15 34 -24 38 -20 14 14 5 53 -18 70
-32 26 -52 70 -55 123 -2 25 -7 51 -13 58 -15 17 -48 15 -48 -3z m-5 -105 c3
-5 -1 -10 -9 -10 -9 0 -16 5 -16 10 0 6 4 10 9 10 6 0 13 -4 16 -10z"/>
<path d="M4576 1961 c-8 -12 9 -65 28 -87 8 -10 22 -28 29 -38 9 -12 20 -17
30 -13 14 5 13 13 -10 64 -31 70 -62 99 -77 74z"/>
<path d="M2275 1913 c-14 -36 -16 -75 -4 -89 16 -20 49 -18 50 4 0 9 2 32 5
51 3 21 -1 38 -8 43 -21 13 -35 9 -43 -9z"/>
<path d="M6997 1922 c-14 -3 -17 -10 -13 -25 3 -12 6 -25 6 -29 0 -8 57 -28
63 -21 8 7 -12 60 -26 71 -7 4 -20 7 -30 4z"/>
<path d="M2073 1876 c-6 -7 -14 -34 -18 -59 -6 -39 -4 -47 13 -56 33 -17 44
-13 41 17 -1 15 4 39 11 54 7 15 10 34 7 42 -8 19 -38 20 -54 2z"/>
<path d="M3371 1846 c-14 -17 -5 -62 14 -70 7 -2 23 7 36 20 18 20 21 29 13
42 -14 22 -48 27 -63 8z"/>
<path d="M3925 1831 c-3 -6 -4 -15 -1 -19 3 -5 -8 -6 -25 -4 -31 5 -32 2 -29
-53 1 -34 33 -67 55 -58 11 4 13 15 8 45 -5 32 -3 40 8 36 8 -2 21 -19 29 -36
17 -36 55 -66 70 -57 16 10 -64 150 -88 153 -11 2 -23 -2 -27 -7z"/>
<path d="M1844 1775 c-12 -31 42 -63 77 -45 28 16 23 29 -16 46 -43 18 -54 18
-61 -1z"/>
<path d="M3167 1769 c-8 -29 10 -51 37 -47 16 2 21 10 21 33 0 25 -4 31 -26
33 -20 2 -28 -2 -32 -19z"/>
<path d="M6923 1743 c-35 -18 -44 -49 -18 -59 16 -7 95 40 95 55 0 9 -25 22
-38 20 -4 0 -22 -8 -39 -16z"/>
<path d="M7304 1746 c-3 -8 2 -29 11 -46 12 -24 14 -35 5 -40 -17 -10 -1 -58
26 -78 13 -9 45 -36 70 -59 26 -24 53 -43 60 -43 6 0 19 12 29 26 14 22 15 33
7 63 -6 20 -13 54 -16 75 -5 36 -18 55 -38 56 -5 0 -8 -22 -8 -50 0 -65 -16
-59 -65 26 -41 69 -71 96 -81 70z"/>
<path d="M3757 1700 c-14 -33 -27 -50 -41 -52 -15 -2 -22 -14 -28 -43 -5 -21
-6 -45 -4 -52 10 -25 41 -13 60 21 14 27 26 36 50 38 27 3 31 7 28 28 -2 14
-3 44 -3 68 0 35 -4 42 -21 42 -14 0 -25 -14 -41 -50z"/>
<path d="M2607 1719 c-14 -51 20 -109 64 -109 21 0 27 34 8 46 -6 3 -9 18 -6
32 7 38 -2 52 -33 52 -20 0 -29 -6 -33 -21z"/>
<path d="M4247 1733 c-4 -3 -7 -17 -7 -29 0 -18 -6 -23 -31 -26 -24 -2 -36
-11 -50 -37 -10 -18 -31 -42 -48 -52 -16 -9 -32 -27 -36 -38 -4 -15 -15 -21
-35 -21 -23 0 -33 -8 -54 -45 -15 -25 -29 -45 -33 -45 -3 0 -23 16 -44 35 -22
19 -44 35 -50 35 -5 0 -20 -12 -33 -27 -23 -26 -27 -73 -12 -113 8 -20 -82
-86 -96 -72 -6 6 -6 17 0 28 6 11 12 35 14 54 4 46 -27 56 -42 13 -6 -15 -13
-35 -17 -43 -10 -24 -11 -64 -1 -77 6 -8 4 -20 -6 -35 -19 -27 -21 -58 -3 -58
7 0 29 14 50 31 20 17 37 26 37 20 0 -6 -4 -11 -9 -11 -5 0 -12 -8 -16 -17 -3
-10 -19 -33 -35 -52 -24 -28 -32 -32 -43 -22 -21 17 -43 -8 -62 -72 -15 -49
-14 -52 5 -72 21 -20 21 -20 35 -1 8 10 12 22 10 26 -7 11 16 28 44 32 18 2
28 15 42 53 18 46 109 163 95 122 -3 -10 -6 -36 -6 -58 0 -30 -6 -45 -25 -62
-79 -68 -106 -100 -101 -114 3 -8 6 -17 6 -19 0 -9 59 -3 65 7 5 6 12 4 20 -8
11 -14 18 -16 42 -7 15 6 27 16 25 22 -1 7 3 12 9 12 7 0 9 -19 4 -58 -5 -48
-4 -62 10 -76 28 -28 50 -16 52 29 5 74 26 185 35 185 6 0 17 -9 26 -21 17
-20 52 -19 52 2 0 18 29 9 41 -12 20 -39 37 -1 44 104 l7 97 -40 0 c-26 0 -42
-5 -46 -15 -3 -8 -14 -15 -25 -15 -14 0 -23 -9 -27 -27 -3 -16 -7 -32 -8 -37
-1 -5 -13 5 -26 24 -20 29 -21 34 -8 44 18 13 38 50 38 69 0 21 -51 32 -65 14
-9 -12 -14 -13 -28 -2 -9 7 -17 17 -17 23 0 16 43 43 66 40 24 -2 84 21 84 32
0 5 -4 12 -10 15 -6 4 -5 13 3 25 13 22 27 26 27 9 0 -17 31 -38 56 -39 20 0
21 -3 11 -40 -9 -33 -8 -43 5 -56 30 -30 50 -11 74 70 24 77 78 49 94 -49 6
-34 6 -61 1 -65 -5 -3 -11 -21 -13 -40 -2 -27 1 -35 15 -38 20 -4 38 17 68 75
14 28 14 34 3 44 -8 6 -14 25 -14 41 0 24 3 28 17 19 11 -6 24 -6 35 0 13 7
18 6 18 -4 0 -8 7 -20 15 -27 10 -8 13 -21 9 -33 -13 -41 -12 -85 1 -91 20 -7
34 15 44 70 5 27 17 63 25 79 9 17 16 36 16 43 0 18 10 15 36 -13 51 -55 91
-17 49 46 -14 21 -25 41 -25 44 0 3 22 5 49 5 28 0 53 5 56 10 4 6 -23 40 -59
76 -36 37 -68 76 -71 88 -16 56 -27 66 -71 66 -47 0 -64 -17 -64 -62 0 -13 -9
-29 -19 -35 -16 -10 -20 -9 -25 10 -3 12 -6 32 -6 45 0 18 -5 23 -22 20 -39
-6 -42 -98 -3 -98 25 0 18 -13 -39 -65 -41 -38 -56 -47 -59 -35 -3 8 -8 24
-13 34 -6 17 -4 18 16 13 37 -9 48 7 40 54 -4 23 -6 63 -4 90 3 42 1 49 -15
49 -10 0 -21 -3 -24 -7z m-17 -123 c0 -13 -7 -20 -20 -20 -23 0 -26 10 -8 28
18 18 28 15 28 -8z m335 -71 c-4 -5 -14 -9 -25 -9 -13 0 -17 5 -13 20 4 16 9
18 24 9 11 -5 17 -14 14 -20z m-408 -93 l-33 -33 -12 25 c-10 21 -8 27 17 50
15 15 32 36 36 47 7 17 9 14 16 -18 8 -35 6 -40 -24 -71z m227 30 c-27 -30
-52 -54 -55 -55 -4 -1 -9 8 -12 19 -3 11 -1 20 3 20 5 0 12 9 15 20 3 11 12
20 19 20 8 0 19 7 26 15 7 8 22 15 33 15 17 0 12 -9 -29 -54z m-501 -77 c-8
-8 -14 -6 -22 9 -13 25 -2 37 18 17 11 -11 12 -18 4 -26z m7 -266 c0 -5 -4
-14 -9 -21 -6 -10 -10 -9 -14 7 -3 14 0 21 9 21 8 0 14 -3 14 -7z"/>
<path d="M2940 1705 c-15 -39 -12 -60 10 -80 29 -26 53 -13 45 25 -4 19 -2 36
6 46 14 17 12 20 -23 29 -24 6 -29 3 -38 -20z"/>
<path d="M2780 1695 c-27 -51 23 -112 67 -80 17 13 17 14 -2 28 -16 13 -17 17
-6 31 18 22 7 46 -22 46 -15 0 -29 -9 -37 -25z"/>
<path d="M2393 1683 c-18 -7 -16 -74 3 -101 11 -15 25 -22 50 -22 19 0 35 5
36 10 4 28 2 35 -9 36 -7 1 -17 2 -23 3 -5 0 -10 12 -10 25 0 19 -24 59 -33
55 -1 0 -8 -3 -14 -6z"/>
<path d="M6796 1638 c-13 -43 -12 -65 4 -104 19 -43 33 -54 44 -35 4 5 1 22
-4 37 -12 30 -6 44 12 26 17 -17 43 -15 58 3 11 13 7 21 -25 50 -38 35 -82 46
-89 23z"/>
<path d="M7541 1622 c-14 -26 -3 -86 20 -111 15 -16 31 -20 74 -19 l55 2 -1
64 c-1 44 -5 65 -15 69 -23 9 -44 -17 -44 -53 0 -24 -5 -34 -15 -34 -18 0 -24
12 -28 60 -3 40 -29 53 -46 22z"/>
<path d="M5060 1590 c0 -43 -2 -45 -31 -30 -16 9 -22 5 -39 -22 -36 -59 -23
-108 35 -133 29 -12 35 -19 35 -44 0 -17 -7 -48 -16 -70 -8 -21 -14 -54 -12
-73 2 -28 7 -33 28 -33 21 0 26 6 36 51 11 51 37 131 56 171 12 26 2 46 -21
40 -14 -3 -16 5 -13 68 4 80 -8 115 -38 115 -17 0 -20 -7 -20 -40z m0 -88 c0
-5 -7 -17 -15 -28 -14 -19 -14 -19 -15 2 0 11 3 24 7 27 9 10 23 9 23 -1z"/>
<path d="M10235 1617 c-23 -18 -33 -102 -13 -110 26 -9 38 8 44 60 7 55 -3 70
-31 50z"/>
<path d="M10057 1582 c-6 -15 -16 -30 -22 -34 -6 -5 -5 -8 3 -8 6 0 12 -9 12
-20 0 -27 47 -57 63 -41 9 9 9 16 -1 31 -6 11 -12 35 -12 54 0 45 -26 56 -43
18z"/>
<path d="M10634 1586 c-3 -7 -4 -33 -2 -57 3 -38 6 -43 23 -41 27 5 35 20 35
63 0 25 -5 39 -16 43 -24 9 -34 7 -40 -8z"/>
<path d="M5130 1532 c0 -21 29 -36 94 -50 40 -8 49 -16 66 -64 12 -36 47 -38
60 -3 23 60 -37 101 -192 132 -23 4 -28 2 -28 -15z"/>
<path d="M3346 1511 c-9 -9 -16 -22 -16 -28 0 -6 -11 -14 -24 -17 -24 -6 -31
-13 -111 -121 -58 -78 -59 -115 -2 -106 4 0 7 -14 7 -33 0 -39 17 -56 57 -59
23 -2 28 -7 27 -27 -1 -14 -4 -32 -8 -41 -10 -22 17 -31 41 -14 11 8 28 39 37
69 11 33 24 56 32 56 8 0 14 9 14 20 l0 20 37 -20 c21 -11 43 -20 50 -20 28 0
23 24 -10 51 -20 16 -39 38 -42 49 -8 26 11 60 35 60 31 0 35 22 9 42 -45 34
-67 60 -73 89 -7 38 -38 54 -60 30z m-15 -183 c2 -81 -14 -121 -51 -131 -28
-7 -31 3 -9 43 10 19 21 41 25 49 5 9 -1 21 -16 33 -22 18 -22 19 -4 41 23 27
47 48 51 44 1 -2 3 -37 4 -79z m61 40 c-7 -7 -12 -8 -12 -2 0 14 12 26 19 19
2 -3 -1 -11 -7 -17z m-142 -58 c0 -5 -5 -10 -11 -10 -5 0 -7 5 -4 10 3 6 8 10
11 10 2 0 4 -4 4 -10z"/>
<path d="M1971 1497 c-5 -13 -12 -44 -16 -68 -5 -36 -3 -48 14 -66 13 -14 27
-20 37 -16 11 4 23 -2 34 -17 15 -20 22 -22 48 -14 27 8 29 11 19 34 -6 14
-11 39 -11 55 -1 23 -6 30 -21 30 -11 0 -24 -10 -30 -22 -19 -44 -32 -25 -30
42 2 58 1 65 -16 65 -11 0 -23 -10 -28 -23z"/>
<path d="M5565 1503 c-4 -10 -9 -62 -12 -115 -6 -107 6 -159 35 -151 15 3 17
21 17 141 -1 117 -3 137 -17 140 -8 2 -19 -5 -23 -15z"/>
<path d="M5696 1468 c-3 -7 -9 -58 -15 -112 -11 -105 -5 -136 27 -136 15 0 18
10 19 63 1 34 5 85 8 112 11 80 10 85 -15 85 -11 0 -22 -6 -24 -12z"/>
<path d="M7658 1388 c-78 -87 -91 -108 -82 -133 12 -30 66 -12 69 23 1 24 93
132 112 132 7 0 16 7 19 15 7 17 -12 45 -31 45 -7 0 -46 -37 -87 -82z"/>
<path d="M9566 1454 c-9 -24 4 -63 26 -75 23 -12 25 -11 28 16 6 57 0 75 -24
75 -13 0 -27 -7 -30 -16z"/>
<path d="M9429 1444 c-29 -35 21 -90 59 -66 10 7 9 15 -5 40 -22 38 -37 46
-54 26z"/>
<path d="M9754 1432 c-18 -12 -34 -71 -27 -103 6 -30 36 -55 53 -44 11 7 3
134 -9 147 -3 4 -11 4 -17 0z"/>
<path d="M9920 1414 c-21 -54 20 -138 51 -107 9 9 8 26 -3 69 -15 65 -33 79
-48 38z"/>
<path d="M2166 1408 c-19 -27 -21 -119 -4 -136 7 -7 22 -12 35 -12 17 0 23 6
23 23 0 13 -5 28 -11 34 -8 8 -8 21 1 47 20 61 -11 92 -44 44z"/>
<path d="M5846 1415 c-9 -9 -16 -25 -16 -34 0 -10 -7 -38 -15 -62 -14 -39 -14
-46 0 -76 14 -29 43 -46 46 -25 1 4 3 37 5 73 1 36 8 77 13 91 13 35 -9 57
-33 33z"/>
<path d="M10185 1388 c8 -48 31 -74 51 -58 8 7 9 22 4 44 -10 46 -18 56 -41
56 -19 0 -20 -4 -14 -42z"/>
<path d="M9310 1412 c0 -4 7 -18 16 -30 20 -29 61 -27 56 3 -2 11 -9 23 -15
27 -16 10 -57 10 -57 0z"/>
<path d="M3577 1337 c-17 -76 -14 -117 8 -117 16 0 38 26 32 37 -3 4 1 38 8
75 13 71 12 78 -15 78 -13 0 -21 -18 -33 -73z"/>
<path d="M8680 1390 c0 -6 -11 -36 -25 -66 -14 -30 -25 -59 -25 -63 0 -5 -9
-7 -19 -4 -14 4 -21 15 -23 41 -3 41 -34 58 -44 25 -3 -10 -9 -25 -13 -33 -11
-24 2 -82 21 -94 13 -8 23 -7 39 3 20 12 21 11 14 -6 -17 -43 -25 -82 -28
-134 -1 -44 2 -62 17 -78 21 -23 33 -26 55 -12 9 6 11 15 6 27 -4 11 -9 25
-11 33 -1 8 -5 26 -9 39 -8 31 3 62 21 62 17 0 18 14 4 40 -8 15 -5 27 10 52
11 18 20 40 20 49 0 9 9 28 21 43 16 21 19 32 11 54 -9 27 -42 44 -42 22z"/>
<path d="M7743 1351 c4 -34 2 -44 -11 -49 -33 -12 -142 -119 -142 -138 0 -19
29 -44 49 -44 29 0 46 26 31 45 -11 13 -5 22 34 60 25 25 48 45 50 45 11 0 -8
-106 -21 -113 -7 -4 -25 -18 -39 -31 -23 -19 -25 -25 -15 -45 8 -14 20 -21 34
-19 15 2 22 -3 25 -17 9 -59 13 -66 34 -63 21 3 22 8 24 132 2 127 2 130 28
149 24 17 25 20 11 40 -8 12 -15 29 -15 38 0 21 -17 35 -54 45 l-29 7 6 -42z"/>
<path d="M10490 1361 c-20 -39 25 -100 64 -85 25 10 29 38 7 53 -12 7 -21 22
-21 32 0 25 -36 25 -50 0z"/>
<path d="M8807 1328 c3 -24 10 -48 14 -54 5 -6 0 -28 -11 -52 -21 -44 -19 -82
6 -103 7 -6 20 -9 27 -6 18 7 32 114 17 131 -6 9 -6 16 2 24 16 16 34 15 64
-4 19 -13 28 -14 37 -5 14 14 44 14 49 0 2 -5 24 -13 48 -16 25 -3 56 -14 69
-24 13 -11 39 -19 57 -19 19 0 43 -5 54 -12 17 -11 23 -8 48 15 l30 28 21 -35
c38 -61 62 -57 115 19 14 19 14 19 24 -5 6 -14 13 -33 16 -42 3 -9 17 -24 31
-34 21 -13 31 -15 50 -6 14 7 25 17 25 24 0 7 10 26 23 42 l23 28 24 -35 c26
-37 63 -52 83 -33 39 34 51 34 84 -2 26 -28 36 -33 58 -28 21 5 31 1 46 -19
26 -32 51 -32 93 0 l33 25 12 -40 c11 -36 15 -40 45 -40 18 0 47 7 65 16 21
10 36 13 44 6 26 -21 63 -21 96 -1 l32 20 30 -26 c17 -14 36 -25 42 -25 7 0
30 -16 51 -35 44 -39 54 -42 63 -19 7 18 -35 66 -89 100 -20 13 -39 32 -43 44
-8 25 -35 26 -77 0 -39 -23 -71 -26 -87 -6 -11 14 -28 12 -99 -10 -19 -5 -23
-3 -22 12 5 41 -1 52 -30 62 -25 9 -35 7 -66 -14 -20 -14 -38 -24 -39 -22 -9
9 9 56 19 52 6 -2 19 1 29 8 16 12 15 15 -13 46 -34 37 -53 38 -58 1 -3 -25
-64 -79 -89 -79 -14 0 -16 8 -13 56 1 32 -21 60 -40 49 -5 -3 -10 -17 -10 -31
0 -21 -4 -24 -20 -19 -11 3 -30 -1 -44 -10 -32 -21 -44 -13 -52 35 -8 50 -25
66 -53 50 -12 -6 -21 -19 -21 -30 0 -10 -8 -25 -18 -32 -11 -7 -24 -23 -31
-35 -18 -35 -36 -27 -52 24 -8 25 -21 51 -30 56 -25 16 -66 0 -86 -33 -20 -35
-29 -37 -36 -11 -2 11 -18 26 -35 35 -29 15 -32 15 -61 -9 -25 -22 -36 -25
-73 -19 -24 3 -49 14 -56 23 -8 9 -29 16 -55 17 -34 1 -50 8 -75 34 -31 30
-34 31 -51 16 -23 -21 -33 -20 -54 5 -12 13 -24 18 -35 14 -36 -15 -52 -17
-52 -6 0 6 -6 11 -14 11 -11 0 -13 -10 -9 -42z"/>
<path d="M8115 1351 c-3 -6 -13 -34 -21 -61 -12 -41 -13 -58 -4 -86 11 -31 15
-34 51 -34 32 0 39 4 39 19 0 11 -9 23 -21 26 -19 6 -20 13 -17 72 2 44 -1 67
-9 70 -6 2 -14 -1 -18 -6z"/>
<path d="M8229 1338 c-17 -31 -17 -111 0 -131 7 -10 25 -17 38 -17 22 0 24 3
18 23 -9 23 -10 88 -4 122 6 30 -36 33 -52 3z"/>
<path d="M7986 1341 c-4 -5 -9 -29 -12 -53 -8 -58 16 -108 51 -108 29 0 32 16
9 41 -18 20 -20 40 -10 92 6 33 5 37 -13 37 -11 0 -22 -4 -25 -9z"/>
<path d="M10106 1324 c-30 -30 -14 -84 25 -84 12 0 18 12 23 41 4 22 4 44 1
50 -9 14 -32 11 -49 -7z"/>
<path d="M4730 1304 c0 -9 8 -42 17 -72 l17 -54 -29 -22 c-16 -11 -38 -26 -50
-31 -25 -13 -34 -65 -10 -65 9 0 25 5 36 10 30 16 23 3 -23 -46 -58 -61 -72
-89 -58 -114 12 -23 11 -23 44 -10 14 5 26 15 26 22 0 8 14 31 32 52 27 33 32
36 41 21 9 -17 4 -24 -91 -122 -45 -46 -41 -78 9 -79 51 -2 58 -8 52 -54 -7
-52 18 -95 47 -80 14 7 20 27 26 77 11 87 7 113 -17 134 -18 15 -19 21 -8 41
8 14 14 18 17 10 2 -6 19 -12 37 -12 46 0 54 26 18 61 -15 15 -33 34 -40 42
-7 8 -17 17 -24 19 -20 7 0 28 25 28 12 0 30 6 40 13 25 18 5 72 -24 64 -22
-6 -25 5 -10 33 15 27 -47 144 -78 148 -15 2 -22 -2 -22 -14z"/>
<path d="M8381 1287 c-14 -35 -1 -116 19 -127 21 -11 62 15 44 27 -18 13 -26
51 -15 72 6 11 8 27 5 35 -9 24 -43 19 -53 -7z"/>
<path d="M4186 1251 c-30 -48 -37 -114 -13 -141 28 -33 46 -15 44 46 -1 30 4
59 11 66 17 17 15 55 -3 62 -10 3 -23 -7 -39 -33z"/>
<path d="M10333 1283 c-16 -6 -17 -37 -3 -64 13 -23 43 -25 60 -3 11 13 9 20
-16 43 -16 16 -35 27 -41 24z"/>
<path d="M6692 1255 c-11 -13 -22 -44 -26 -67 -9 -57 -36 -138 -46 -138 -14 0
-21 -32 -9 -46 9 -11 15 -10 36 6 18 14 30 17 43 10 9 -5 20 -6 24 -3 3 3 6
-5 6 -18 0 -30 26 -69 46 -69 8 0 14 -10 14 -25 0 -14 6 -25 13 -25 7 0 21 -9
30 -21 21 -24 38 -21 52 9 11 26 21 28 29 7 3 -8 17 -15 31 -15 34 0 33 32 -2
60 l-28 22 30 -2 c69 -5 75 14 15 54 -34 22 -40 32 -40 61 0 38 5 42 34 20 22
-17 56 -20 56 -5 0 5 -21 32 -47 61 -27 28 -51 59 -55 69 -4 10 -23 26 -42 35
l-35 17 -38 -43 c-21 -23 -43 -49 -50 -58 -17 -23 -17 1 1 60 11 34 11 50 3
58 -16 16 -23 14 -45 -14z m167 -175 c4 -89 -5 -143 -19 -120 -7 11 -11 12
-24 0 -20 -16 -28 -9 -32 27 -3 28 32 122 49 134 15 10 0 39 -19 39 -14 0 -14
3 -4 16 12 13 15 13 29 -1 11 -11 17 -40 20 -95z"/>
<path d="M5313 1145 c-53 -51 -74 -78 -70 -89 8 -21 51 -21 68 0 15 19 69 47
69 37 0 -5 -29 -41 -65 -81 -46 -51 -62 -77 -58 -90 9 -23 25 -33 44 -26 11 3
19 -3 23 -19 11 -44 76 -41 76 2 0 31 24 54 48 47 18 -6 22 -15 22 -52 0 -57
35 -99 72 -85 24 8 40 61 19 61 -15 0 -14 63 1 78 15 15 -17 53 -37 45 -25 -9
-50 14 -50 46 0 35 1 36 35 16 51 -29 106 -8 61 24 -55 39 -91 74 -91 90 0 22
-37 56 -68 64 -19 4 -38 -9 -99 -68z"/>
<path d="M7431 1202 c-8 -15 -15 -86 -12 -133 1 -22 35 -59 54 -59 24 0 31 19
14 38 -10 12 -14 36 -12 82 2 81 -20 117 -44 72z"/>
<path d="M4300 1151 c0 -13 26 -32 33 -24 8 7 -11 33 -24 33 -5 0 -9 -4 -9 -9z"/>
<path d="M3066 1123 c-4 -15 -18 -66 -32 -111 -28 -90 -26 -132 5 -132 15 0
20 11 26 57 4 32 14 71 22 87 22 42 23 119 2 124 -11 2 -19 -6 -23 -25z"/>
<path d="M8150 1113 c-6 -21 -14 -61 -17 -89 -5 -44 -2 -55 17 -74 14 -14 26
-18 31 -13 6 6 8 54 7 108 -3 107 -18 135 -38 68z"/>
<path d="M8668 1106 c-23 -48 -20 -69 12 -86 17 -9 25 -7 50 18 l29 29 -21 42
c-11 22 -26 41 -34 41 -8 0 -24 -20 -36 -44z"/>
<path d="M2813 1118 c-9 -12 -24 -98 -38 -224 -5 -38 -3 -53 9 -63 25 -21 36
-3 36 59 0 32 4 69 9 82 14 37 18 151 5 155 -6 2 -15 -2 -21 -9z"/>
<path d="M2910 1066 c-7 -36 -13 -90 -14 -118 -1 -47 1 -53 19 -53 17 0 20 8
23 55 1 30 7 66 12 80 5 14 10 41 12 60 3 29 -1 36 -18 38 -19 3 -23 -4 -34
-62z"/>
<path d="M8384 1120 c-25 -10 -131 -106 -145 -132 -12 -23 1 -43 32 -51 30 -8
74 36 60 60 -7 14 -3 24 22 46 18 16 42 36 55 44 12 9 22 19 22 23 0 13 -24
18 -46 10z"/>
<path d="M3186 1108 c-4 -12 -25 -116 -30 -148 -4 -20 40 -54 50 -39 3 6 8 41
9 78 1 36 6 78 10 94 6 23 4 27 -14 27 -12 0 -23 -6 -25 -12z"/>
<path d="M3490 1093 c-6 -16 -15 -37 -21 -49 -6 -11 -9 -38 -7 -60 2 -30 7
-39 22 -39 14 0 22 13 32 53 8 29 19 63 25 74 9 18 8 24 -7 35 -26 19 -33 16
-44 -14z"/>
<path d="M7250 1105 c-10 -12 -10 -21 -2 -40 11 -23 8 -28 -46 -67 -66 -49
-122 -103 -122 -117 0 -16 39 -33 60 -26 10 3 28 26 40 50 12 25 26 45 30 45
5 0 22 12 39 26 l31 26 -6 -34 c-5 -25 -26 -52 -85 -108 -81 -76 -95 -104 -64
-130 12 -10 23 -7 60 14 47 28 54 40 31 53 -10 6 -7 13 14 30 l27 22 12 -22
c11 -20 6 -28 -54 -89 -67 -69 -84 -111 -49 -125 24 -9 46 8 71 56 37 69 45
73 84 48 36 -23 47 -25 92 -13 39 12 33 34 -13 46 -42 11 -51 24 -25 34 28 10
17 45 -17 54 -38 10 -47 27 -18 35 12 3 24 15 27 26 3 12 14 21 24 21 26 0 24
25 -3 44 -12 9 -41 46 -63 83 -45 73 -56 81 -75 58z"/>
<path d="M8042 1090 c-7 -11 -15 -40 -18 -64 -6 -40 -4 -46 20 -61 21 -14 29
-15 41 -5 20 16 19 39 -1 47 -11 4 -15 17 -13 44 4 47 -11 67 -29 39z"/>
<path d="M7555 1070 c-4 -7 -13 -33 -20 -59 -10 -40 -10 -52 2 -75 9 -16 21
-26 31 -24 14 3 17 16 17 82 0 51 -4 81 -12 83 -6 2 -14 -1 -18 -7z"/>
<path d="M7920 1025 c0 -16 6 -25 15 -25 9 0 15 9 15 25 0 16 -6 25 -15 25 -9
0 -15 -9 -15 -25z"/>
<path d="M7671 1007 c-30 -30 -3 -87 41 -87 30 0 31 0 24 42 -4 23 -8 44 -10
45 -10 10 -45 10 -55 0z"/>
<path d="M8333 947 c-45 -46 -63 -71 -63 -90 0 -27 30 -53 45 -39 5 4 5 -1 2
-11 -9 -25 29 -63 48 -47 11 9 23 9 45 2 27 -10 32 -8 46 13 19 30 13 41 -26
48 -18 4 -30 13 -30 22 0 9 -9 15 -24 15 -42 0 -39 18 9 72 25 28 44 56 42 62
-9 26 -36 12 -94 -47z"/>
<path d="M8500 986 c0 -25 41 -66 67 -66 29 0 27 33 -5 62 -40 35 -62 36 -62
4z"/>
<path d="M9186 988 c-30 -46 -2 -120 39 -104 13 5 15 15 10 53 -4 27 -13 54
-20 62 -11 11 -16 9 -29 -11z"/>
<path d="M7852 974 c-27 -19 -27 -32 -2 -63 29 -34 49 -21 47 30 -2 48 -13 56
-45 33z"/>
<path d="M9021 967 c-18 -18 -14 -102 7 -120 27 -25 46 -22 38 6 -3 12 -6 43
-6 68 0 48 -17 68 -39 46z"/>
<path d="M9350 959 c-14 -26 -3 -76 19 -89 20 -10 62 -2 73 14 15 21 8 35 -19
38 -21 2 -28 8 -26 23 1 18 -12 34 -29 35 -4 0 -12 -9 -18 -21z"/>
<path d="M6356 831 c-9 -10 -16 -27 -16 -39 0 -16 -5 -21 -21 -19 -30 3 -47
-26 -29 -48 8 -9 24 -21 36 -25 27 -11 37 -75 22 -143 -8 -39 -7 -52 6 -72 19
-29 61 -33 92 -10 10 8 22 15 25 15 4 0 4 -29 1 -65 -3 -44 -1 -69 8 -80 18
-22 35 -19 50 10 10 19 17 22 31 15 29 -16 46 -11 53 15 9 36 30 32 23 -5 -4
-19 -1 -34 9 -45 22 -22 40 -19 63 11 12 15 21 22 21 15 0 -16 45 -14 60 4 7
8 10 15 6 15 -4 0 1 14 9 31 15 29 15 63 -1 150 -7 38 -44 51 -118 42 -92 -11
-105 -6 -88 32 10 21 9 25 -3 25 -21 0 -19 24 5 45 23 20 26 45 8 63 -16 16
-45 15 -51 -1 -3 -9 -16 -12 -36 -9 -33 5 -33 3 -35 -58 -1 -20 -7 -25 -34
-27 -47 -4 -53 21 -13 57 17 16 31 33 31 37 -1 20 -20 35 -38 31 -17 -5 -22
-1 -24 20 -4 30 -30 37 -52 13z m92 -242 c3 -19 -33 -67 -43 -57 -4 4 -4 23
-1 43 5 27 12 35 24 33 9 -2 18 -10 20 -19z"/>
<path d="M8590 702 c0 -34 17 -58 48 -67 33 -9 38 18 12 60 -27 44 -60 48 -60
7z"/>
<path d="M8866 704 c-17 -46 3 -70 50 -58 28 7 30 16 8 49 -18 28 -49 33 -58
9z"/>
<path d="M9057 683 c-14 -13 -6 -40 17 -62 42 -40 66 4 26 47 -22 23 -32 27
-43 15z"/>
</g>
</svg>
