<?xml version="1.0" encoding="UTF-8" standalone="no"?><!DOCTYPE svg PUBLIC "-//W3C//DTD SVG 1.1//EN" "http://www.w3.org/Graphics/SVG/1.1/DTD/svg11.dtd"><svg width="100%" height="100%" viewBox="0 0 420 420" version="1.1" xmlns="http://www.w3.org/2000/svg" xmlns:xlink="http://www.w3.org/1999/xlink" xml:space="preserve" xmlns:serif="http://www.serif.com/" style="fill-rule:evenodd;clip-rule:evenodd;stroke-linejoin:round;stroke-miterlimit:2;"><rect id="kapesnik" x="0" y="0" width="419.528" height="419.528" style="fill:none;"/><g><g><path d="M57.024,166.58c-0.733,21.944 -0.414,47.372 -0.262,69.332c0.006,0.828 0.683,1.495 1.51,1.489c0.828,-0.005 1.496,-0.682 1.49,-1.51c-0.152,-21.921 -0.472,-47.305 0.26,-69.211c0.028,-0.828 -0.621,-1.522 -1.449,-1.549c-0.827,-0.028 -1.521,0.621 -1.549,1.449Z"/><path d="M57.569,237.232c7.169,3.733 17.295,8.804 30.387,15.13c0.746,0.36 1.644,0.048 2.004,-0.698c0.36,-0.745 0.047,-1.643 -0.698,-2.003c-13.058,-6.31 -23.158,-11.367 -30.307,-15.09c-0.734,-0.382 -1.641,-0.097 -2.023,0.638c-0.383,0.734 -0.097,1.64 0.637,2.023Z"/><path d="M129.241,271.147c52.377,24.975 112.69,54.464 130.218,65.117c0.707,0.43 1.631,0.204 2.061,-0.503c0.43,-0.707 0.204,-1.631 -0.503,-2.061c-17.564,-10.675 -77.998,-40.234 -130.485,-65.261c-0.747,-0.356 -1.643,-0.039 -1.999,0.708c-0.357,0.748 -0.039,1.644 0.708,2Z"/><path d="M262.241,334.945c-0.801,-32.585 -0.528,-66.442 0,-99.019c0.014,-0.828 -0.647,-1.511 -1.475,-1.524c-0.828,-0.014 -1.511,0.647 -1.524,1.475c-0.529,32.618 -0.802,66.517 0,99.142c0.02,0.827 0.709,1.483 1.536,1.462c0.828,-0.02 1.483,-0.708 1.463,-1.536Z"/><path d="M261.066,336.232c33.61,-22.271 67.153,-46.729 99.392,-70.193c0.669,-0.487 0.817,-1.426 0.33,-2.095c-0.487,-0.67 -1.426,-0.818 -2.095,-0.331c-32.204,23.439 -65.711,47.871 -99.284,70.119c-0.69,0.457 -0.879,1.388 -0.422,2.079c0.458,0.69 1.389,0.879 2.079,0.421Z"/><path d="M361.091,264.813c-0.208,-22.971 1.739,-49.868 2.481,-72.819c0.027,-0.827 -0.623,-1.521 -1.451,-1.547c-0.827,-0.027 -1.521,0.623 -1.547,1.45c-0.743,22.991 -2.691,49.933 -2.483,72.943c0.007,0.828 0.685,1.494 1.513,1.486c0.828,-0.007 1.494,-0.685 1.487,-1.513Z"/><path d="M261.379,237.259c31.948,-15.002 68.91,-29.894 101.291,-43.937c0.759,-0.329 1.108,-1.213 0.779,-1.973c-0.33,-0.759 -1.214,-1.109 -1.973,-0.779c-32.407,14.055 -69.398,28.96 -101.372,43.974c-0.749,0.351 -1.072,1.246 -0.72,1.995c0.352,0.749 1.246,1.072 1.995,0.72Z"/><path d="M59.055,168.017c30.4,12.522 63.931,21.673 94.987,32.415c35.394,12.242 70.463,25.829 106.256,36.902c0.791,0.245 1.632,-0.198 1.877,-0.989c0.244,-0.791 -0.199,-1.632 -0.99,-1.877c-35.762,-11.063 -70.799,-24.64 -106.162,-36.871c-31.003,-10.724 -64.477,-19.853 -94.826,-32.354c-0.765,-0.316 -1.643,0.05 -1.958,0.815c-0.315,0.766 0.05,1.643 0.816,1.959Z"/><path d="M59.257,167.938c8.767,-4.92 40.126,-20.467 48.778,-25.585c0.713,-0.422 0.949,-1.342 0.527,-2.055c-0.421,-0.712 -1.342,-0.949 -2.054,-0.527c-8.641,5.112 -39.964,20.637 -48.719,25.551c-0.722,0.405 -0.979,1.32 -0.574,2.042c0.405,0.722 1.32,0.979 2.042,0.574Z"/><path d="M123.417,163.22c-0.091,-0.051 -0.223,-0.128 -0.317,-0.201c-0.327,-0.253 -0.671,-0.602 -1.029,-1.016c-2.831,-3.263 -6.258,-10.127 -7.482,-12.167c-0.504,-0.842 -0.988,-1.696 -1.514,-2.523c-1.615,-2.539 -2.672,-4.558 -3.878,-7.273c-0.525,-1.18 -7.075,-11.448 -9.007,-14.643c0.156,-0.123 0.336,-0.255 0.526,-0.399c1.552,-1.181 3.925,-2.547 4.714,-2.885c11.118,-4.765 18.834,-5.493 24.621,-3.703c8.687,2.688 12.881,10.941 17.685,18.77c5.815,9.477 12.376,18.413 26.807,18.413c0.828,-0 1.5,-0.673 1.5,-1.5c0,-0.828 -0.672,-1.5 -1.5,-1.5c-9.76,-0 -15.473,-4.618 -19.939,-10.519c-3.132,-4.138 -5.67,-8.891 -8.486,-13.231c-3.729,-5.747 -7.958,-10.763 -14.381,-13.034c-6.353,-2.246 -14.936,-1.834 -27.489,3.546c-0.893,0.383 -3.59,1.918 -5.348,3.254c-0.948,0.721 -1.63,1.444 -1.875,1.935c-0.092,0.184 -0.231,0.515 -0.123,1.004c0.017,0.077 0.125,0.392 0.398,0.859c1.379,2.36 8.609,13.623 9.156,14.852c1.271,2.861 2.385,4.989 4.088,7.664c0.512,0.806 0.982,1.638 1.473,2.456c1.269,2.115 4.854,9.208 7.787,12.59c0.949,1.093 1.884,1.828 2.664,2.116c0.945,0.35 1.788,0.229 2.513,-0.322c0.659,-0.501 0.786,-1.443 0.285,-2.102c-0.44,-0.578 -1.219,-0.747 -1.849,-0.441Z"/><path d="M152.277,137.454c1.648,-0.88 5.514,-2.994 6.824,-4.14c5.232,-4.578 10.115,-9.115 15.009,-14.009c3.822,-3.821 26.786,-22.394 42.245,-31.845c3.877,-2.37 7.263,-4.164 9.731,-4.961c0.704,-0.227 1.317,-0.371 1.831,-0.398c0.233,-0.013 0.428,-0.039 0.562,0.05c1.167,0.777 2.268,2.651 3.437,5.287c1.957,4.415 3.887,10.874 5.73,18.499c7.236,29.952 13.041,77.742 13.041,91.396c-0,0.827 0.672,1.5 1.5,1.5c0.828,-0 1.5,-0.673 1.5,-1.5c-0,-13.759 -5.833,-61.918 -13.125,-92.1c-1.894,-7.838 -3.891,-14.473 -5.904,-19.011c-1.477,-3.332 -3.041,-5.585 -4.515,-6.567c-0.72,-0.48 -1.802,-0.692 -3.213,-0.456c-1.507,0.251 -3.525,1.013 -5.896,2.193c-14.814,7.372 -44.613,31.36 -49.045,35.792c-4.847,4.846 -9.682,9.339 -14.864,13.873c-1.589,1.39 -6.528,3.84 -7.188,4.249c-1.006,0.624 -0.766,1.601 -0.732,1.727c0.118,0.432 0.427,1.102 1.444,1.108c0.066,0 0.431,-0.031 1.095,-0.309c0.21,-0.088 0.39,-0.219 0.533,-0.378Z"/><path d="M123.468,165.942c7.628,3.358 18.044,7.158 25.82,10.162c17.223,6.655 33.805,13.312 51.798,17.413c16.13,3.677 40.57,9.627 56.493,5.262c7.327,-2.008 10.686,-6.42 9.947,-11.128c-0.693,-4.407 -5.294,-9.511 -14.769,-13.403c-0.766,-0.314 -1.643,0.052 -1.958,0.818c-0.314,0.766 0.052,1.643 0.818,1.957c5.005,2.056 8.538,4.408 10.681,6.82c1.867,2.1 2.638,4.195 2.217,6.101c-0.588,2.657 -3.333,4.737 -7.729,5.942c-15.516,4.253 -39.316,-1.711 -55.033,-5.294c-17.85,-4.069 -34.297,-10.684 -51.384,-17.286c-7.737,-2.989 -18.102,-6.769 -25.692,-10.109c-0.758,-0.334 -1.644,0.01 -1.978,0.768c-0.333,0.758 0.011,1.644 0.769,1.977Z"/><path d="M361.978,190.435c-0.241,-0.051 -1.21,-0.265 -2.239,-0.551c-14.864,-4.129 -85.971,-27.966 -110.185,-38.479c-0.76,-0.329 -1.644,0.019 -1.974,0.779c-0.329,0.759 0.02,1.643 0.779,1.973c24.301,10.55 95.66,34.474 110.577,38.618c1.46,0.406 2.432,0.625 2.83,0.661c0.576,0.052 0.925,-0.125 1.081,-0.219c0.709,-0.427 0.938,-1.35 0.511,-2.059c-0.299,-0.495 -0.839,-0.757 -1.38,-0.723Z"/></g><g><path d="M78.907,304.365c-0.46,-0.513 -1.825,-2.064 -2.891,-3.544c-3.318,-4.607 -7.608,-11.493 -8.278,-12.595c-2.049,-3.37 -5.603,-7.369 -6.457,-11.298c0.084,-0.159 0.443,-0.823 0.849,-1.322c1.249,-1.536 3.431,-3.559 6.145,-5.879c10.988,-9.394 30.428,-23.413 34.658,-29.613c0.459,-0.672 0.931,-1.481 1.536,-2.093c0.356,-0.361 0.762,-0.662 1.32,-0.614c0.121,0.01 0.24,0.035 0.359,0.062c2.926,0.671 4.933,2.722 6.851,4.906c2.233,2.541 4.341,5.273 7.143,6.932c0.969,0.574 2.44,0.889 4.158,0.995c2.19,0.135 4.83,-0.027 7.124,-0.057c1.16,-0.015 2.224,0.002 3.065,0.131c0.346,0.053 0.79,0.212 0.893,0.251c0.175,0.321 0.146,0.783 0.082,1.347c-0.105,0.942 -0.423,2.083 -0.899,3.392c-2.422,6.671 -8.819,17.292 -15.117,28.056c-6.424,10.979 -12.739,22.107 -14.858,29.465c-1.058,3.67 -1.011,6.536 0.113,8.241c0.879,1.334 2.676,2.347 4.973,2.978c4.498,1.237 11.012,1.202 13.848,1.316c0.827,0.033 1.526,-0.612 1.559,-1.439c0.033,-0.827 -0.612,-1.526 -1.439,-1.559c-2.329,-0.093 -7.248,-0.06 -11.318,-0.796c-1.261,-0.228 -2.436,-0.529 -3.403,-0.944c-0.753,-0.324 -1.375,-0.69 -1.715,-1.206c-0.333,-0.506 -0.428,-1.194 -0.41,-2.017c0.024,-1.07 0.267,-2.329 0.674,-3.744c2.072,-7.192 8.286,-18.048 14.565,-28.78c6.405,-10.947 12.885,-21.763 15.348,-28.547c0.696,-1.916 1.079,-3.545 1.112,-4.804c0.03,-1.127 -0.214,-2.023 -0.656,-2.686c-0.332,-0.498 -0.879,-0.921 -1.66,-1.194c-0.737,-0.259 -1.751,-0.398 -2.933,-0.444c-2.346,-0.091 -5.452,0.162 -8.073,0.078c-1.445,-0.047 -2.722,-0.151 -3.504,-0.614c-2.538,-1.503 -4.396,-4.03 -6.418,-6.332c-2.337,-2.659 -4.87,-5.031 -8.434,-5.849c-0.255,-0.059 -0.513,-0.105 -0.773,-0.127c-1.532,-0.132 -2.731,0.502 -3.711,1.494c-0.731,0.74 -1.326,1.699 -1.88,2.511c-1.87,2.741 -6.845,7.031 -12.685,11.775c-9.015,7.322 -20.084,15.644 -25.598,20.988c-1.766,1.711 -2.985,3.167 -3.505,4.215c-0.39,0.785 -0.461,1.463 -0.356,1.985c0.864,4.282 4.629,8.724 6.864,12.399c0.869,1.429 7.711,12.381 10.9,16.001c0.569,0.646 1.063,1.09 1.416,1.31c0.418,0.261 0.794,0.337 1.079,0.339c0.594,0.005 1.062,-0.237 1.4,-0.724c0.472,-0.68 0.303,-1.616 -0.377,-2.088c-0.211,-0.146 -0.447,-0.231 -0.686,-0.258Zm-1.36,0.578c-0.014,0.018 -0.028,0.037 -0.042,0.057l0.042,-0.057Zm0.039,-0.048l-0.012,0.015l0.014,-0.018l-0.002,0.003Z"/><path d="M64.068,284.823c-1.551,0.74 -2.934,2.217 -4.064,4.277c-1.5,2.734 -2.599,6.542 -3.265,10.728c-0.978,6.147 -1.037,13.118 -0.192,18.582c0.602,3.89 1.704,7.041 3.166,8.765c5.06,5.967 14.433,7.966 21.677,9.545c6.881,1.5 27.944,6.488 42.898,7.442c6.793,0.434 12.38,-0.055 15.102,-1.824c2.212,-1.438 3.886,-3.844 5.175,-6.621c1.769,-3.811 2.83,-8.32 3.862,-11.501c2.239,-6.897 4.051,-11.937 5.083,-16.095c1.096,-4.419 1.33,-7.903 0.384,-11.493c-1.219,-4.629 -4.471,-9.472 -10.727,-16.851c-3.219,-3.797 -7.612,-9.428 -12.484,-11.377c-0.768,-0.307 -1.642,0.067 -1.95,0.836c-0.307,0.769 0.067,1.642 0.836,1.95c4.458,1.783 8.365,7.057 11.31,10.531c5.842,6.891 8.975,11.352 10.114,15.675c0.823,3.126 0.56,6.158 -0.395,10.006c-1.019,4.107 -2.813,9.081 -5.024,15.892c-1.002,3.086 -2.014,7.467 -3.73,11.164c-1.035,2.23 -2.313,4.214 -4.089,5.368c-0.878,0.572 -2.139,0.93 -3.674,1.168c-2.591,0.402 -5.902,0.415 -9.602,0.179c-14.798,-0.945 -35.64,-5.896 -42.451,-7.38c-6.66,-1.452 -15.374,-3.068 -20.028,-8.555c-1.207,-1.423 -1.991,-4.07 -2.488,-7.283c-0.803,-5.191 -0.74,-11.812 0.189,-17.651c0.605,-3.804 1.571,-7.273 2.933,-9.757c0.778,-1.418 1.657,-2.503 2.725,-3.012c0.747,-0.356 1.064,-1.252 0.708,-1.999c-0.356,-0.748 -1.252,-1.065 -1.999,-0.709Z"/><path d="M115.448,307.084c5.43,0.915 11.357,-1.369 15.315,-5.414c4.02,-4.108 6.014,-9.976 3.584,-16.05c-0.307,-0.769 -1.181,-1.143 -1.95,-0.835c-0.768,0.307 -1.143,1.181 -0.835,1.949c1.945,4.865 0.276,9.548 -2.943,12.838c-3.282,3.353 -8.171,5.312 -12.672,4.554c-0.816,-0.138 -1.591,0.414 -1.728,1.23c-0.138,0.816 0.413,1.591 1.229,1.728Z"/></g><path d="M59.615,184.175c1.494,-1.586 2.68,-2.605 3.658,-3.161c0.565,-0.321 0.975,-0.501 1.328,-0.378c0.35,0.121 0.552,0.483 0.777,0.892c0.39,0.712 0.702,1.612 1.023,2.562c0.605,1.787 1.238,3.726 2.215,5.2c0.796,1.2 1.813,2.115 3.134,2.572c2.044,0.706 3.908,0.144 5.726,-0.734c0.843,-0.408 1.676,-0.88 2.528,-1.22c0.942,-0.375 1.913,-0.588 2.982,-0.059c1.118,0.553 1.968,1.582 2.763,2.729c0.946,1.366 1.792,2.907 2.721,4.269c1.489,2.181 3.227,3.885 5.594,4.285c2.455,0.416 4.536,-0.726 6.593,-1.853c1.381,-0.757 2.744,-1.556 4.42,-0.921c2.226,0.842 3.784,3.151 5.429,5.257c2.077,2.66 4.276,5.026 7.182,5.428c1.616,0.222 3.071,-0.192 4.443,-0.941c1.15,-0.626 2.241,-1.499 3.342,-2.322c1.655,-1.238 3.305,-2.485 5.509,-1.533c1.525,0.659 2.597,2.032 3.552,3.598c1.117,1.83 2.045,3.935 3.086,5.799c1.642,2.941 3.623,5.259 6.555,5.753c1.49,0.252 2.9,-0.136 4.251,-0.881c1.109,-0.612 2.183,-1.475 3.244,-2.299c0.726,-0.563 1.443,-1.107 2.175,-1.487c0.779,-0.405 1.571,-0.622 2.42,-0.208c1.006,0.491 1.68,1.319 2.224,2.28c0.654,1.157 1.117,2.502 1.592,3.833c1.162,3.249 2.501,6.334 5.559,7.559c2.592,1.038 4.934,-0.019 7.237,-1.618c1.079,-0.749 2.155,-1.604 3.285,-2.233c1.321,-0.735 2.729,-1.14 4.36,-0.249c2.597,1.419 3.36,4.329 4.192,7.134c1.065,3.587 2.208,7.047 5.234,8.709c1.506,0.828 3.014,0.674 4.511,-0.055c1.132,-0.552 2.267,-1.472 3.378,-2.369c0.737,-0.595 1.461,-1.18 2.181,-1.561c0.613,-0.325 1.217,-0.494 1.798,0.02c0.841,0.744 1.251,1.87 1.58,3.089c0.409,1.516 0.653,3.18 1.04,4.701c0.639,2.504 1.707,4.614 3.875,5.63c2.086,0.977 4.165,-0.078 6.154,-1.914c1.063,-0.983 2.126,-2.16 3.242,-2.953c0.712,-0.507 1.428,-0.89 2.224,-0.554c0.696,0.294 1.137,0.893 1.511,1.582c0.511,0.941 0.876,2.055 1.275,3.137c1.048,2.845 2.421,5.359 5.465,5.784c2.926,0.409 5.181,-1.463 7.285,-3.603c0.82,-0.833 1.624,-1.689 2.491,-2.32c0.651,-0.473 1.33,-0.823 2.12,-0.795c1.081,0.038 1.741,0.709 2.246,1.624c0.717,1.298 1.135,3.031 1.555,4.803c0.577,2.44 1.149,4.946 2.177,6.768c0.849,1.504 1.997,2.588 3.565,3.051c1.957,0.577 4.035,-0.385 5.971,-2.135c1.371,-1.239 2.705,-2.842 3.938,-4.141c0.681,-0.718 1.31,-1.341 1.904,-1.668c0.726,-0.398 0.991,-1.311 0.593,-2.037c-0.399,-0.725 -1.312,-0.991 -2.037,-0.592c-0.811,0.445 -1.707,1.252 -2.636,2.232c-1.184,1.247 -2.458,2.792 -3.773,3.981c-0.619,0.559 -1.24,1.038 -1.87,1.32c-0.416,0.185 -0.828,0.284 -1.24,0.162c-1.348,-0.397 -1.983,-1.748 -2.525,-3.307c-0.71,-2.043 -1.127,-4.493 -1.736,-6.637c-1.026,-3.608 -2.724,-6.307 -6.027,-6.422c-1.471,-0.052 -2.778,0.486 -3.989,1.367c-0.994,0.723 -1.927,1.688 -2.865,2.643c-0.795,0.808 -1.591,1.611 -2.474,2.163c-0.678,0.425 -1.409,0.691 -2.258,0.572c-0.978,-0.136 -1.568,-0.749 -2.029,-1.514c-0.417,-0.694 -0.731,-1.507 -1.036,-2.336c-0.45,-1.22 -0.877,-2.47 -1.454,-3.531c-0.713,-1.314 -1.654,-2.356 -2.982,-2.916c-1.548,-0.653 -3.015,-0.392 -4.421,0.418c-1.083,0.624 -2.136,1.609 -3.161,2.609c-0.848,0.826 -1.672,1.664 -2.515,2.18c-0.468,0.287 -0.926,0.491 -1.415,0.262c-0.772,-0.361 -1.248,-1.007 -1.604,-1.772c-0.463,-0.992 -0.725,-2.173 -0.974,-3.379c-0.615,-2.983 -1.235,-6.058 -3.202,-7.799c-2.103,-1.86 -4.326,-1.182 -6.576,0.461c-1.178,0.86 -2.373,1.986 -3.583,2.723c-0.753,0.459 -1.493,0.816 -2.252,0.399c-1.068,-0.587 -1.754,-1.527 -2.289,-2.617c-0.64,-1.3 -1.065,-2.806 -1.514,-4.317c-1.061,-3.573 -2.321,-7.106 -5.63,-8.913c-3.614,-1.974 -6.59,-0.353 -9.408,1.66c-1.093,0.782 -2.156,1.609 -3.257,2.108c-0.811,0.367 -1.643,0.539 -2.54,0.18c-1.014,-0.407 -1.699,-1.161 -2.246,-2.062c-0.667,-1.099 -1.133,-2.407 -1.603,-3.722c-1.146,-3.207 -2.407,-6.374 -5.325,-7.799c-2.284,-1.115 -4.412,-0.362 -6.489,1.083c-1.184,0.825 -2.359,1.875 -3.579,2.659c-0.907,0.582 -1.826,1.042 -2.839,0.871c-1.197,-0.202 -2.1,-0.938 -2.889,-1.902c-0.966,-1.181 -1.753,-2.694 -2.542,-4.246c-1.847,-3.631 -3.78,-7.376 -7.072,-8.798c-3.353,-1.448 -5.977,0.001 -8.495,1.885c-0.985,0.736 -1.952,1.53 -2.981,2.09c-0.805,0.44 -1.648,0.734 -2.597,0.603c-0.983,-0.136 -1.815,-0.653 -2.591,-1.333c-0.94,-0.823 -1.788,-1.882 -2.637,-2.97c-1.994,-2.553 -4.032,-5.194 -6.731,-6.216c-2.602,-0.986 -4.779,-0.079 -6.924,1.096c-1.47,0.806 -2.896,1.823 -4.651,1.526c-0.913,-0.154 -1.641,-0.674 -2.295,-1.349c-0.814,-0.841 -1.508,-1.917 -2.195,-3.026c-1.647,-2.655 -3.308,-5.428 -5.758,-6.639c-2.574,-1.273 -4.842,-0.401 -7.079,0.731c-0.679,0.344 -1.355,0.703 -2.045,0.964c-0.786,0.297 -1.592,0.472 -2.463,0.171c-1.191,-0.411 -1.832,-1.584 -2.385,-2.861c-0.73,-1.686 -1.227,-3.611 -1.867,-5.107c-0.709,-1.657 -1.665,-2.832 -2.894,-3.257c-0.827,-0.287 -1.819,-0.293 -3.028,0.223c-1.29,0.551 -2.964,1.801 -5.124,4.094c-0.567,0.603 -0.539,1.553 0.064,2.121c0.602,0.567 1.552,0.539 2.12,-0.064Z"/><path d="M59.854,199.105c0.213,-0.039 0.407,0.149 0.6,0.291c0.408,0.299 0.771,0.696 1.076,1.038c1.204,1.352 1.892,3.624 2.944,5.414c0.936,1.593 2.124,2.851 3.776,3.354c2.433,0.74 4.49,-0.034 6.457,-1.001c1.937,-0.952 3.762,-2.25 6.179,-0.143c2.213,1.929 3.96,5.834 6.166,8.772c1.779,2.37 3.852,4.14 6.396,4.46c2.803,0.352 5.126,-1.422 7.402,-3.09c1.506,-1.103 2.982,-2.219 4.901,-1.262c2.54,1.266 4.193,4.272 5.96,7.054c2.147,3.382 4.456,6.449 7.726,7.217c2.673,0.629 4.856,-0.907 6.993,-2.572c0.641,-0.499 1.282,-0.995 1.96,-1.36c0.769,-0.414 1.589,-0.65 2.542,-0.339c1.165,0.38 2.017,1.235 2.748,2.271c0.877,1.243 1.57,2.745 2.265,4.225c0.776,1.652 1.554,3.277 2.505,4.58c1.124,1.54 2.494,2.651 4.272,3.054c1.537,0.347 2.881,-0.117 4.109,-1.063c0.933,-0.72 1.8,-1.749 2.664,-2.76c0.572,-0.669 1.141,-1.329 1.755,-1.822c0.59,-0.473 1.219,-0.785 1.996,-0.474c1.064,0.426 1.818,1.24 2.449,2.216c0.757,1.172 1.331,2.571 1.908,3.976c1.375,3.346 2.859,6.649 5.816,8.065c1.814,0.869 3.462,0.633 5.016,-0.22c1.248,-0.685 2.435,-1.824 3.59,-3.011c0.975,-1.002 1.925,-2.039 2.92,-2.722c0.653,-0.448 1.309,-0.756 2.04,-0.508c0.482,0.163 0.8,0.722 1.17,1.399c0.555,1.016 1.048,2.333 1.545,3.768c0.973,2.808 1.951,6.04 3.269,8.586c1.004,1.941 2.226,3.496 3.703,4.358c3.074,1.795 5.616,0.235 8.003,-1.845c0.874,-0.762 1.725,-1.577 2.616,-2.114c0.579,-0.349 1.165,-0.588 1.816,-0.386c0.793,0.246 1.261,0.912 1.651,1.715c0.545,1.125 0.895,2.52 1.264,3.931c0.421,1.608 0.862,3.234 1.524,4.605c0.789,1.632 1.891,2.918 3.493,3.596c2.942,1.244 5.518,-0.294 7.981,-2.33c0.953,-0.787 1.894,-1.626 2.873,-2.238c0.738,-0.461 1.487,-0.802 2.305,-0.724c0.822,0.078 1.431,0.588 1.976,1.251c0.749,0.909 1.357,2.103 1.968,3.324c0.847,1.691 1.695,3.43 2.758,4.743c0.851,1.051 1.842,1.847 3.024,2.261c3.018,1.058 5.2,-0.565 7.187,-2.665c0.738,-0.78 1.451,-1.613 2.226,-2.241c0.51,-0.414 1.036,-0.748 1.66,-0.77c0.077,0.07 0.297,0.277 0.428,0.453c0.284,0.382 0.562,0.871 0.846,1.436c1.227,2.438 2.488,6.134 4.042,9.419c1.183,2.503 2.548,4.77 4.136,6.214c1.262,1.148 2.674,1.811 4.234,1.847c1.581,0.037 3.371,-0.578 5.35,-2.243c0.634,-0.532 0.716,-1.479 0.183,-2.113c-0.533,-0.634 -1.48,-0.716 -2.113,-0.183c-1.258,1.058 -2.346,1.563 -3.35,1.54c-1.11,-0.026 -2.032,-0.714 -2.884,-1.678c-1.075,-1.218 -2,-2.881 -2.844,-4.666c-1.846,-3.903 -3.301,-8.368 -4.753,-10.711c-0.966,-1.56 -2.105,-2.299 -3.126,-2.316c-1.132,-0.019 -2.149,0.355 -3.09,0.988c-1.105,0.744 -2.105,1.885 -3.124,2.962c-1.151,1.217 -2.267,2.508 -4.016,1.896c-1.08,-0.379 -1.818,-1.372 -2.504,-2.506c-0.872,-1.439 -1.604,-3.132 -2.425,-4.621c-1.374,-2.49 -3.073,-4.375 -5.503,-4.607c-1.203,-0.115 -2.347,0.181 -3.448,0.748c-1.346,0.693 -2.636,1.821 -3.926,2.887c-0.727,0.6 -1.453,1.178 -2.207,1.589c-0.845,0.461 -1.723,0.702 -2.695,0.291c-1.151,-0.487 -1.771,-1.586 -2.266,-2.838c-0.636,-1.608 -1.019,-3.486 -1.511,-5.184c-0.832,-2.868 -2.087,-5.199 -4.435,-5.927c-2.218,-0.688 -4.234,0.457 -6.158,2.11c-0.857,0.736 -1.706,1.553 -2.599,2.16c-0.926,0.629 -1.905,1.021 -3.055,0.35c-1.046,-0.611 -1.84,-1.772 -2.551,-3.147c-1.255,-2.426 -2.171,-5.513 -3.098,-8.189c-0.68,-1.961 -1.376,-3.716 -2.168,-4.931c-0.709,-1.09 -1.535,-1.796 -2.42,-2.096c-1.369,-0.463 -2.66,-0.26 -3.902,0.392c-1.425,0.748 -2.797,2.177 -4.17,3.588c-0.769,0.79 -1.542,1.57 -2.354,2.14c-0.865,0.607 -1.772,0.972 -2.806,0.477c-1.058,-0.506 -1.806,-1.39 -2.435,-2.423c-0.747,-1.225 -1.319,-2.657 -1.902,-4.076c-1.39,-3.382 -2.943,-6.607 -6.017,-7.837c-2.428,-0.973 -4.381,0.14 -6.135,1.993c-0.95,1.005 -1.844,2.229 -2.82,3.126c-0.613,0.564 -1.231,1.038 -2.022,0.859c-1.065,-0.242 -1.837,-0.974 -2.511,-1.897c-0.847,-1.159 -1.522,-2.616 -2.212,-4.086c-0.772,-1.642 -1.557,-3.301 -2.53,-4.679c-1.118,-1.586 -2.486,-2.812 -4.269,-3.394c-2.842,-0.927 -5.105,0.495 -7.275,2.184c-0.805,0.627 -1.597,1.277 -2.447,1.702c-0.622,0.311 -1.278,0.491 -2.016,0.317c-1.177,-0.277 -2.141,-1.019 -3.024,-1.966c-1.036,-1.114 -1.948,-2.508 -2.856,-3.939c-2.073,-3.263 -4.176,-6.647 -7.155,-8.131c-3.093,-1.542 -5.586,-0.251 -8.012,1.527c-0.928,0.68 -1.846,1.422 -2.822,1.951c-0.757,0.411 -1.548,0.694 -2.433,0.582c-1.044,-0.131 -1.936,-0.688 -2.754,-1.445c-0.977,-0.904 -1.841,-2.088 -2.666,-3.342c-1.87,-2.841 -3.563,-6.002 -5.545,-7.729c-1.282,-1.118 -2.474,-1.641 -3.588,-1.823c-1.638,-0.267 -3.15,0.219 -4.646,0.926c-0.786,0.372 -1.57,0.802 -2.386,1.134c-0.956,0.389 -1.964,0.647 -3.114,0.297c-1.243,-0.378 -1.897,-1.614 -2.543,-2.891c-0.902,-1.785 -1.683,-3.737 -2.811,-5.002c-0.697,-0.782 -1.647,-1.695 -2.654,-2.087c-0.966,-0.376 -1.988,-0.375 -3.014,0.282c-0.48,0.308 -0.893,1.021 -0.964,1.198c-0.13,0.323 -0.116,0.553 -0.113,0.63c0.023,0.648 0.366,0.98 0.625,1.166c0.341,0.245 0.774,0.385 1.325,0.212c0.1,-0.031 0.482,-0.112 0.813,-0.62c0.024,-0.037 0.047,-0.075 0.067,-0.114Zm-0.362,-1.855c0.242,0.202 0.407,0.469 0.485,0.759c-0.085,-0.362 -0.278,-0.599 -0.485,-0.759Zm-0.673,-0.321c-0.386,-0.095 -1.012,-0.106 -1.5,0.587c0.351,-0.481 0.943,-0.697 1.5,-0.587Z"/><path d="M59.771,220.062c0.311,-0.03 0.582,0.172 0.852,0.363c0.519,0.368 0.983,0.847 1.378,1.213c1.437,1.328 3.406,4.068 5.534,5.789c1.846,1.492 3.836,2.225 5.735,1.592c1.42,-0.473 3.035,-1.745 4.675,-2.781c0.644,-0.407 1.291,-0.771 1.94,-0.965c0.447,-0.133 0.89,-0.185 1.322,-0.022c1.207,0.455 1.801,1.456 2.214,2.606c0.546,1.518 0.777,3.293 1.148,4.91c0.643,2.794 1.758,5.108 4.348,5.929c0.955,0.302 2.176,0.15 3.55,-0.438c2.298,-0.984 5.255,-3.244 8.104,-4.681c1.6,-0.807 3.131,-1.42 4.43,-0.955c1.297,0.465 2.121,1.989 2.682,4.934c0.155,0.813 0.941,1.348 1.754,1.193c0.813,-0.155 1.348,-0.941 1.193,-1.754c-0.854,-4.485 -2.643,-6.49 -4.618,-7.197c-1.972,-0.706 -4.363,-0.125 -6.792,1.101c-2.427,1.224 -4.93,3.052 -7.033,4.165c-0.589,0.312 -1.139,0.565 -1.639,0.702c-0.274,0.075 -0.517,0.136 -0.726,0.07c-0.855,-0.271 -1.338,-0.908 -1.687,-1.683c-0.486,-1.078 -0.725,-2.398 -0.989,-3.726c-0.31,-1.566 -0.647,-3.142 -1.264,-4.471c-0.734,-1.583 -1.843,-2.844 -3.618,-3.513c-1.586,-0.597 -3.261,-0.218 -4.905,0.663c-1.776,0.95 -3.512,2.559 -5.037,3.067c-0.988,0.329 -1.941,-0.303 -2.9,-1.079c-2.076,-1.679 -3.983,-4.363 -5.384,-5.659c-0.594,-0.549 -1.33,-1.279 -2.138,-1.754c-0.758,-0.447 -1.578,-0.686 -2.419,-0.605c-0.824,0.08 -1.428,0.815 -1.348,1.639c0.08,0.823 0.814,1.427 1.638,1.347Z"/><path d="M117.149,243.34l0.492,-0.078c0.479,-0.074 0.926,-0.179 1.22,-0.308c1.771,-0.773 3.503,-1.757 5.381,-2.251c1.883,-0.496 3.505,0.323 4.74,1.615c1.399,1.466 2.332,3.537 2.617,5.391c0.126,0.818 0.893,1.38 1.711,1.254c0.818,-0.126 1.38,-0.892 1.254,-1.711c-0.37,-2.411 -1.593,-5.1 -3.413,-7.006c-1.985,-2.078 -4.645,-3.241 -7.672,-2.445c-2.027,0.534 -3.906,1.57 -5.818,2.404c-0.419,0.183 -1.357,0.198 -1.833,0.33c-0.458,0.127 -0.772,0.342 -0.951,0.524c-0.341,0.345 -0.477,0.742 -0.472,1.159c0.005,0.346 0.097,0.821 0.618,1.276c0.623,0.544 1.572,0.481 2.117,-0.143l0.009,-0.011Z"/><path d="M140.329,253.68c-0.073,-0.063 -0.959,-0.835 -1.271,-1.092c-0.329,-0.27 -0.622,-0.396 -0.776,-0.439c-0.695,-0.196 -1.174,0.063 -1.492,0.373c-0.194,0.189 -0.751,0.769 -0.303,1.835c0.193,0.459 0.588,0.772 1.038,0.878c0.466,0.404 1.212,1.023 1.561,1.177c1.611,0.71 3.06,0.714 4.745,0.398c2.071,-0.388 4.235,-1.799 6.283,-2.514c0.702,-0.245 1.38,-0.409 2.03,-0.255c0.609,0.145 1.147,0.597 1.677,1.402c1.357,2.059 2.432,5.16 3.973,7.492c1.264,1.911 2.836,3.333 4.883,3.742c2.372,0.475 4.675,-0.769 6.908,-1.758c1.405,-0.623 2.797,-1.15 4.203,0.141c0.945,0.868 1.555,2.3 2.132,3.865c0.676,1.835 1.262,3.854 1.998,5.612c1.195,2.853 2.867,4.996 5.432,5.426c1.141,0.191 2.208,-0.059 3.219,-0.6c1.173,-0.627 2.274,-1.692 3.352,-2.691c0.57,-0.529 1.131,-1.036 1.713,-1.378c0.518,-0.304 1.054,-0.445 1.649,-0.077c1.05,0.651 1.65,1.771 2.106,3.065c0.555,1.574 0.868,3.403 1.21,5.206c0.379,1.994 0.792,3.957 1.499,5.591c0.83,1.917 2.057,3.406 3.933,4.183c1.663,0.688 3.308,0.457 4.935,-0.308c1.313,-0.618 2.623,-1.607 3.92,-2.578c1.098,-0.823 2.182,-1.638 3.277,-2.065c0.771,-0.3 1.545,-0.379 2.321,0.089c0.821,0.493 1.359,1.292 1.803,2.203c0.547,1.122 0.937,2.413 1.345,3.691c0.996,3.117 2.202,6.078 4.896,7.34c1.467,0.687 2.849,0.485 4.175,-0.307c1.447,-0.864 2.839,-2.585 4.199,-4.258c0.758,-0.934 1.509,-1.846 2.289,-2.48c0.446,-0.363 0.871,-0.657 1.348,-0.632c0.276,0.015 0.546,0.155 0.84,0.389c0.9,0.718 1.377,1.745 1.691,2.903c0.378,1.398 0.508,2.98 0.638,4.578c0.306,3.759 0.715,7.552 3.096,9.907c0.676,0.669 1.387,0.941 2.092,0.972c0.656,0.029 1.338,-0.166 2.02,-0.6c1.285,-0.819 2.688,-2.724 4.115,-4.685c0.91,-1.25 1.843,-2.516 2.818,-3.385c0.607,-0.541 1.173,-0.992 1.818,-0.803c0.496,0.145 0.951,0.596 1.465,1.325c0.714,1.011 1.429,2.49 2.169,4.544c0.28,0.779 1.14,1.183 1.919,0.903c0.779,-0.281 1.184,-1.141 0.903,-1.92c-1.089,-3.023 -2.184,-4.964 -3.225,-6.122c-0.901,-1.001 -1.814,-1.501 -2.686,-1.684c-0.949,-0.2 -1.888,-0.04 -2.805,0.426c-1.048,0.532 -2.091,1.513 -3.082,2.704c-1.138,1.366 -2.233,3.014 -3.281,4.358c-0.536,0.686 -1.047,1.287 -1.555,1.678c-0.207,0.16 -0.386,0.344 -0.576,0.156c-0.873,-0.864 -1.327,-2.016 -1.622,-3.281c-0.345,-1.483 -0.461,-3.119 -0.593,-4.736c-0.311,-3.827 -0.849,-7.51 -3.449,-9.583c-2.663,-2.124 -5.1,-0.873 -7.379,1.644c-1.228,1.357 -2.426,3.078 -3.681,4.288c-0.774,0.747 -1.502,1.399 -2.388,0.984c-0.873,-0.409 -1.456,-1.133 -1.926,-1.984c-0.582,-1.055 -0.985,-2.299 -1.385,-3.552c-0.978,-3.061 -2.039,-6.096 -4.459,-7.552c-1.66,-0.999 -3.309,-0.955 -4.957,-0.313c-1.325,0.516 -2.658,1.464 -3.986,2.458c-1.129,0.846 -2.256,1.727 -3.399,2.265c-0.83,0.391 -1.662,0.602 -2.511,0.251c-1.14,-0.472 -1.822,-1.437 -2.326,-2.602c-0.627,-1.448 -0.97,-3.193 -1.305,-4.959c-0.451,-2.376 -0.886,-4.785 -1.754,-6.712c-0.678,-1.505 -1.615,-2.736 -2.931,-3.551c-2.163,-1.339 -4.082,-0.631 -5.929,0.878c-0.974,0.797 -1.932,1.834 -2.946,2.62c-0.673,0.522 -1.348,0.973 -2.141,0.84c-0.897,-0.15 -1.532,-0.752 -2.071,-1.537c-0.717,-1.043 -1.246,-2.397 -1.745,-3.816c-1.178,-3.351 -2.242,-6.992 -4.213,-8.801c-2.501,-2.295 -4.949,-1.781 -7.448,-0.674c-0.943,0.418 -1.891,0.923 -2.856,1.269c-0.737,0.265 -1.482,0.444 -2.248,0.291c-1.67,-0.335 -2.701,-1.878 -3.643,-3.577c-1.191,-2.149 -2.147,-4.624 -3.296,-6.367c-1.065,-1.616 -2.263,-2.378 -3.487,-2.669c-1.184,-0.282 -2.434,-0.106 -3.713,0.341c-1.913,0.667 -3.914,2.035 -5.848,2.397c-1.046,0.196 -1.951,0.25 -2.949,-0.181Zm-1.044,-0.4l0.003,0.008l-0.002,-0.005l-0.001,-0.003Z"/><path d="M352.857,217.152c-0.035,-0.015 -0.135,-0.062 -0.19,-0.098c-0.121,-0.081 -0.238,-0.179 -0.355,-0.287c-0.576,-0.532 -1.128,-1.246 -1.687,-1.811c-1.338,-1.351 -2.783,-1.9 -4.281,-0.937c-0.821,0.528 -1.455,1.285 -1.96,2.196c-0.608,1.097 -1.025,2.44 -1.478,3.75c-0.254,0.733 -0.521,1.454 -0.872,2.088c-0.394,0.709 -0.891,1.311 -1.71,1.552c-0.564,0.166 -1.08,-0.07 -1.6,-0.35c-0.865,-0.466 -1.71,-1.13 -2.576,-1.637c-1.636,-0.959 -3.33,-1.406 -5.186,-0.408c-2.271,1.221 -3.936,4.009 -5.588,6.697c-0.7,1.139 -1.407,2.247 -2.215,3.125c-0.647,0.704 -1.348,1.261 -2.209,1.45c-0.556,0.122 -1,-0.168 -1.434,-0.516c-0.761,-0.609 -1.453,-1.459 -2.177,-2.185c-1.411,-1.413 -2.965,-2.338 -4.816,-1.913c-2.603,0.598 -4.158,2.926 -5.232,5.88c-0.659,1.811 -1.169,3.849 -1.835,5.636c-0.51,1.367 -1.067,2.597 -2.003,3.283c-0.149,-0.068 -0.444,-0.209 -0.64,-0.342c-0.51,-0.346 -1.056,-0.81 -1.62,-1.289c-0.988,-0.84 -2.026,-1.718 -3.013,-2.272c-0.895,-0.501 -1.777,-0.75 -2.584,-0.694c-3.334,0.234 -5.536,2.806 -7.27,6.226c-1.099,2.168 -2.042,4.663 -3.166,6.837c-0.963,1.863 -2.021,3.503 -3.583,4.263c-0.617,0.301 -1.185,0.144 -1.739,-0.181c-0.892,-0.524 -1.739,-1.418 -2.609,-2.349c-1.256,-1.341 -2.54,-2.759 -3.908,-3.657c-1.137,-0.745 -2.339,-1.157 -3.614,-1.079c-3.966,0.242 -8.809,2.256 -10.369,5.819c-0.332,0.758 0.014,1.644 0.772,1.976c0.759,0.332 1.644,-0.015 1.976,-0.773c0.425,-0.971 1.239,-1.735 2.209,-2.338c1.65,-1.025 3.758,-1.577 5.595,-1.69c1.053,-0.064 1.953,0.624 2.853,1.436c1.213,1.095 2.359,2.493 3.518,3.613c2.073,2.002 4.258,3.075 6.629,1.921c1.441,-0.701 2.631,-1.889 3.645,-3.383c1.33,-1.959 2.367,-4.469 3.438,-6.869c0.807,-1.808 1.628,-3.551 2.675,-4.864c0.843,-1.057 1.827,-1.822 3.158,-1.915c0.481,-0.034 0.972,0.325 1.515,0.706c1.304,0.915 2.648,2.252 3.808,3.038c1.441,0.978 2.782,1.13 3.758,0.512c1.068,-0.676 1.908,-1.732 2.578,-3.038c0.841,-1.64 1.424,-3.704 2.046,-5.702c0.458,-1.473 0.933,-2.908 1.615,-4.04c0.515,-0.856 1.138,-1.533 2.068,-1.747c0.528,-0.121 0.947,0.169 1.365,0.506c0.753,0.61 1.446,1.462 2.177,2.191c1.41,1.405 2.976,2.337 4.858,1.923c2.197,-0.483 3.907,-2.236 5.388,-4.447c0.933,-1.391 1.794,-2.954 2.732,-4.336c0.794,-1.168 1.621,-2.213 2.668,-2.776c0.699,-0.376 1.334,-0.139 1.954,0.188c0.671,0.354 1.324,0.836 1.983,1.265c1.551,1.009 3.154,1.677 4.852,1.177c2.514,-0.741 3.697,-3.016 4.57,-5.537c0.336,-0.971 0.638,-1.968 1.045,-2.838c0.288,-0.617 0.612,-1.172 1.118,-1.522c0.099,0.065 0.29,0.195 0.405,0.302c0.434,0.402 0.859,0.924 1.295,1.4c1.186,1.293 2.545,2.114 3.913,1.792c1.521,-0.359 2.726,-1.682 3.697,-3.447c0.558,-1.015 1.064,-2.169 1.613,-3.22c0.442,-0.842 0.89,-1.622 1.482,-2.1c0.644,-0.521 0.744,-1.466 0.223,-2.11c-0.52,-0.644 -1.465,-0.744 -2.109,-0.223c-1.361,1.099 -2.346,3.231 -3.329,5.223c-0.393,0.796 -0.79,1.56 -1.258,2.159c-0.29,0.37 -0.585,0.687 -0.979,0.79Z"/><path d="M261.193,287.427c1.102,-0.374 2.138,-1.348 3.052,-2.794c1.07,-1.694 2.051,-4.089 3.133,-6.476c0.828,-1.829 1.717,-3.656 2.793,-5.09c0.888,-1.184 1.882,-2.107 3.156,-2.336c1.045,-0.187 1.865,0.444 2.657,1.223c1.136,1.118 2.157,2.615 3.218,3.844c1.929,2.234 4.052,3.552 6.616,2.455c1.906,-0.815 3.252,-2.315 4.265,-4.208c0.888,-1.659 1.52,-3.632 2.129,-5.615c0.555,-1.808 1.091,-3.624 1.852,-5.162c0.639,-1.292 1.424,-2.385 2.621,-2.975c0.475,-0.234 0.929,-0.108 1.379,0.12c0.786,0.397 1.549,1.081 2.333,1.766c0.966,0.845 1.953,1.697 2.969,2.26c1.304,0.722 2.664,1.003 4.098,0.548c3.184,-1.012 4.774,-4.245 6.075,-7.738c0.543,-1.456 1.055,-2.942 1.721,-4.22c0.548,-1.054 1.185,-1.968 2.119,-2.492c0.639,-0.358 1.291,-0.273 1.946,-0.084c0.635,0.183 1.272,0.471 1.913,0.752c2.197,0.964 4.436,1.714 6.656,0.465c2.055,-1.157 3.349,-3.411 4.563,-5.684c0.919,-1.721 1.746,-3.483 3.281,-4.242c0.63,-0.312 1.258,-0.209 1.882,-0.027c0.967,0.282 1.928,0.769 2.89,1.09c1.776,0.595 3.539,0.71 5.316,-0.683c1.468,-1.15 2.483,-3.401 3.44,-5.58c0.393,-0.895 0.784,-1.768 1.239,-2.485c0.316,-0.497 0.634,-0.924 1.071,-1.117c0.838,-0.371 1.43,-0.089 1.95,0.26c0.646,0.433 1.234,0.944 1.843,1.271c0.641,0.342 1.307,0.522 2.028,0.463c0.909,-0.074 2.004,-0.542 3.266,-1.993c0.543,-0.625 0.477,-1.573 -0.147,-2.116c-0.625,-0.544 -1.573,-0.478 -2.116,0.147c-0.522,0.599 -0.871,0.942 -1.246,0.972c-0.241,0.02 -0.429,-0.143 -0.64,-0.283c-0.322,-0.215 -0.641,-0.471 -0.976,-0.714c-1.364,-0.988 -2.915,-1.75 -5.175,-0.751c-1.365,0.603 -2.434,2.108 -3.311,3.961c-0.521,1.101 -1.002,2.321 -1.547,3.417c-0.441,0.886 -0.902,1.695 -1.53,2.187c-0.727,0.57 -1.461,0.507 -2.189,0.3c-0.738,-0.209 -1.476,-0.552 -2.217,-0.841c-1.709,-0.666 -3.431,-1.023 -5.161,-0.167c-2.056,1.017 -3.366,3.212 -4.597,5.517c-0.936,1.753 -1.804,3.591 -3.388,4.483c-0.689,0.388 -1.382,0.325 -2.069,0.138c-1.008,-0.275 -2.009,-0.801 -3.005,-1.203c-1.837,-0.741 -3.657,-1.069 -5.439,-0.069c-1.159,0.651 -2.074,1.643 -2.823,2.858c-0.96,1.559 -1.647,3.51 -2.359,5.423c-0.525,1.409 -1.062,2.796 -1.8,3.928c-0.6,0.92 -1.33,1.666 -2.373,1.998c-0.78,0.248 -1.483,-0.12 -2.182,-0.588c-1.064,-0.711 -2.082,-1.729 -3.102,-2.556c-1.911,-1.548 -3.881,-2.382 -5.912,-1.382c-1.778,0.876 -3.035,2.417 -3.984,4.336c-0.828,1.673 -1.427,3.644 -2.031,5.611c-0.55,1.792 -1.104,3.581 -1.906,5.08c-0.677,1.266 -1.526,2.321 -2.8,2.866c-0.66,0.282 -1.224,0.086 -1.753,-0.292c-0.865,-0.617 -1.645,-1.62 -2.451,-2.64c-0.967,-1.223 -1.954,-2.476 -3.033,-3.37c-1.36,-1.128 -2.871,-1.726 -4.605,-1.414c-1.62,0.29 -3.018,1.194 -4.228,2.521c-1.555,1.705 -2.805,4.15 -3.923,6.619c-1.019,2.25 -1.928,4.515 -2.937,6.112c-0.473,0.75 -0.906,1.361 -1.477,1.554c-0.784,0.266 -1.205,1.118 -0.94,1.902c0.266,0.784 1.118,1.205 1.902,0.94Z"/><path d="M262.101,310.015c0.907,-0.306 1.741,-0.906 2.487,-1.665c0.907,-0.922 1.689,-2.087 2.378,-3.011c1.487,-1.997 3.137,-6.092 5.076,-9.282c0.577,-0.948 1.178,-1.809 1.819,-2.477c0.495,-0.515 0.995,-0.917 1.548,-1.062c1.194,-0.313 2.147,0.588 3.132,1.619c1.407,1.474 2.727,3.406 4.082,4.8c1.439,1.479 2.981,2.358 4.565,2.24c1.095,-0.082 2.284,-0.614 3.51,-1.954c2.206,-2.409 3.332,-6.618 4.543,-10.629c0.543,-1.798 1.114,-3.546 1.875,-5.009c0.647,-1.245 1.415,-2.281 2.497,-2.849c0.709,-0.372 1.213,0.051 1.691,0.603c0.594,0.687 1.123,1.599 1.657,2.508c0.805,1.37 1.624,2.729 2.538,3.597c1.315,1.246 2.807,1.704 4.634,0.757c1.811,-0.938 3.03,-2.52 3.893,-4.47c0.755,-1.705 1.239,-3.703 1.7,-5.705c0.42,-1.823 0.82,-3.65 1.459,-5.208c0.531,-1.296 1.211,-2.402 2.328,-3.031c0.338,-0.19 0.614,0.057 0.915,0.286c0.487,0.372 0.961,0.88 1.447,1.386c0.773,0.805 1.574,1.601 2.414,2.102c1.16,0.693 2.396,0.91 3.753,0.306c2.688,-1.196 4.164,-3.981 5.382,-7.02c0.973,-2.427 1.761,-5.025 3.458,-6.514c0.29,-0.255 0.597,-0.109 0.908,0.03c0.529,0.235 1.064,0.587 1.604,0.899c1.404,0.808 2.856,1.28 4.254,0.711c1.674,-0.682 2.736,-2.206 3.51,-4.054c0.458,-1.097 0.827,-2.305 1.269,-3.406c0.345,-0.859 0.713,-1.655 1.302,-2.173c0.632,-0.556 1.35,-0.546 2.074,-0.493c0.763,0.056 1.541,0.187 2.314,0.213c1.263,0.044 2.505,-0.162 3.686,-1.021c1.05,-0.762 2.094,-2.098 2.971,-4.495c0.285,-0.777 -0.115,-1.64 -0.892,-1.924c-0.778,-0.285 -1.64,0.115 -1.925,0.893c-0.691,1.888 -1.394,2.874 -2.24,3.296c-0.807,0.403 -1.666,0.263 -2.512,0.167c-1.924,-0.217 -3.796,-0.349 -5.457,1.111c-1.415,1.245 -2.171,3.472 -2.952,5.622c-0.306,0.843 -0.626,1.667 -1.06,2.35c-0.316,0.497 -0.688,0.919 -1.22,1.135c-0.336,0.137 -0.661,-0.039 -0.998,-0.198c-0.724,-0.342 -1.445,-0.848 -2.154,-1.206c-1.537,-0.776 -3.032,-0.966 -4.461,0.288c-2.015,1.768 -3.108,4.77 -4.264,7.652c-0.91,2.271 -1.808,4.502 -3.817,5.397c-0.486,0.216 -0.896,-0.045 -1.302,-0.349c-0.812,-0.607 -1.564,-1.516 -2.325,-2.258c-1.614,-1.574 -3.329,-2.375 -5.154,-1.347c-1.378,0.776 -2.387,1.971 -3.147,3.449c-0.981,1.907 -1.536,4.317 -2.092,6.731c-0.416,1.81 -0.836,3.621 -1.519,5.163c-0.574,1.296 -1.326,2.398 -2.53,3.022c-0.475,0.246 -0.848,0.053 -1.189,-0.271c-0.741,-0.702 -1.365,-1.83 -2.016,-2.939c-0.811,-1.382 -1.654,-2.742 -2.604,-3.597c-1.331,-1.199 -2.85,-1.636 -4.725,-0.652c-2.441,1.282 -3.978,4.065 -5.119,7.363c-0.752,2.175 -1.361,4.568 -2.095,6.759c-0.659,1.968 -1.397,3.77 -2.519,4.997c-0.528,0.576 -0.986,0.917 -1.46,0.981c-0.495,0.066 -0.936,-0.203 -1.391,-0.552c-0.723,-0.555 -1.417,-1.36 -2.121,-2.22c-1.428,-1.743 -2.884,-3.686 -4.455,-4.807c-1.369,-0.976 -2.832,-1.398 -4.411,-0.984c-1.879,0.492 -3.656,2.394 -5.169,4.883c-1.888,3.104 -3.471,7.104 -4.919,9.048c-0.522,0.701 -1.097,1.56 -1.753,2.312c-0.498,0.571 -1.029,1.099 -1.664,1.313c-0.785,0.265 -1.207,1.117 -0.942,1.901c0.264,0.784 1.116,1.207 1.9,0.942Z"/></g></svg>