<?xml version="1.0" standalone="no"?>
<!DOCTYPE svg PUBLIC "-//W3C//DTD SVG 20010904//EN"
 "http://www.w3.org/TR/2001/REC-SVG-20010904/DTD/svg10.dtd">
<svg version="1.0" xmlns="http://www.w3.org/2000/svg"
 width="710.000000pt" height="691.000000pt" viewBox="0 0 710.000000 691.000000"
 preserveAspectRatio="xMidYMid meet">

<g transform="translate(0.000000,691.000000) scale(0.100000,-0.100000)"
fill="#000000" stroke="none">
<path d="M3696 6083 c-2 -2 -84 -5 -182 -7 -134 -2 -207 -9 -289 -25 -60 -12
-146 -29 -190 -37 -44 -8 -102 -21 -130 -29 -27 -8 -93 -26 -145 -40 -180 -48
-219 -62 -248 -91 -7 -8 -21 -14 -30 -14 -8 0 -34 -9 -56 -19 -23 -10 -68 -29
-101 -41 -33 -11 -83 -36 -110 -54 -28 -18 -61 -37 -74 -41 -13 -4 -49 -26
-80 -50 -31 -23 -69 -50 -86 -61 -41 -25 -82 -57 -135 -107 -25 -23 -63 -58
-86 -78 -35 -31 -82 -83 -159 -178 -11 -14 -38 -45 -61 -70 -56 -63 -164 -207
-164 -219 0 -5 -6 -15 -14 -21 -19 -16 -91 -138 -139 -236 -22 -44 -46 -87
-53 -96 -18 -20 -114 -211 -114 -225 0 -6 -9 -33 -19 -60 -45 -115 -121 -413
-141 -554 -5 -41 -17 -124 -26 -185 -17 -122 -20 -359 -6 -475 19 -150 44
-296 58 -327 8 -17 15 -53 16 -80 1 -26 7 -57 14 -68 7 -11 29 -74 49 -140 21
-66 41 -124 45 -130 4 -5 22 -46 39 -90 29 -70 60 -128 146 -270 65 -107 124
-174 460 -519 141 -145 266 -246 391 -317 16 -9 79 -48 140 -85 224 -140 510
-262 673 -289 19 -3 37 -7 40 -9 3 -2 35 -7 71 -10 36 -3 88 -11 115 -16 249
-47 402 -53 635 -21 85 11 216 25 290 31 135 11 197 25 360 82 47 16 108 35
135 42 80 20 301 132 425 216 30 21 65 40 78 44 12 4 22 11 22 15 0 8 75 59
129 86 18 9 50 33 70 53 21 21 55 53 77 72 21 20 48 46 59 57 11 12 38 39 60
60 86 84 235 256 235 273 0 4 16 25 35 46 19 22 50 70 70 107 20 37 44 76 55
87 11 11 20 26 20 34 0 8 3 16 8 18 4 2 29 46 56 98 26 52 56 109 66 125 21
35 84 179 125 285 9 25 21 53 26 63 11 21 55 195 74 292 7 39 21 97 30 130 40
139 49 183 59 294 16 167 -1 406 -35 492 -10 26 -18 55 -18 65 1 16 -63 281
-102 429 -37 137 -131 315 -274 515 -33 47 -89 132 -125 190 -49 79 -94 133
-182 222 -65 65 -122 118 -127 118 -19 0 -112 87 -229 214 -35 38 -90 89 -123
113 -32 25 -59 48 -59 51 0 9 -48 30 -95 43 -19 5 -63 26 -97 45 -35 20 -110
54 -168 76 -57 22 -112 43 -121 48 -9 5 -31 12 -49 15 -18 3 -41 10 -50 15
-10 5 -35 14 -56 19 -22 6 -73 20 -114 32 -86 24 -110 29 -280 57 -107 18
-301 27 -314 15z m274 -61 c162 -28 307 -58 365 -77 22 -7 80 -25 130 -41 49
-15 100 -38 112 -50 12 -12 45 -30 72 -39 28 -9 53 -21 56 -26 4 -5 14 -9 23
-9 18 0 59 -26 177 -114 136 -101 308 -287 407 -443 56 -88 124 -270 145 -388
3 -16 9 -35 14 -40 22 -28 53 -215 53 -320 0 -103 -28 -318 -44 -340 -4 -5
-10 -25 -13 -43 -6 -28 -44 -112 -81 -177 -25 -45 -132 -201 -155 -225 -13
-14 -30 -35 -38 -47 -9 -13 -21 -23 -28 -23 -11 0 -49 67 -84 150 -11 26 -22
44 -56 95 -11 16 -31 51 -45 77 -29 55 -130 216 -146 232 -25 27 -92 123 -98
144 -4 12 -18 34 -31 48 -14 15 -44 53 -67 86 -140 196 -390 444 -638 633 -29
22 -62 49 -74 60 -18 18 -55 43 -118 80 -9 6 -58 40 -110 76 -52 37 -169 103
-269 151 -97 47 -179 90 -183 97 -4 6 -17 11 -30 11 -12 0 -26 3 -29 6 -7 8
-60 28 -212 80 -171 60 -330 87 -507 88 -53 1 -95 3 -93 7 2 3 50 20 107 39
57 19 110 40 119 47 21 17 184 74 225 78 17 1 40 8 51 13 19 11 324 74 413 86
25 4 61 9 80 12 19 3 102 7 184 9 81 2 149 5 151 7 8 8 207 1 265 -10z m-1520
-352 c0 -5 -18 -10 -40 -10 -22 0 -40 5 -40 10 0 6 18 10 40 10 22 0 40 -4 40
-10z m180 -11 c11 -6 6 -8 -16 -9 -64 0 -153 13 -148 22 7 11 141 1 164 -13z
m80 -9 c22 -7 21 -8 -12 -9 -21 -1 -38 4 -38 9 0 11 14 11 50 0z m-180 -75
c152 -18 248 -32 298 -44 167 -41 220 -59 364 -125 29 -14 69 -32 88 -40 19
-9 62 -31 95 -50 33 -19 76 -42 95 -51 19 -9 46 -27 60 -39 14 -13 48 -36 75
-51 55 -31 173 -119 192 -142 6 -8 36 -34 67 -56 254 -193 566 -492 731 -702
31 -38 68 -86 84 -105 15 -19 35 -49 44 -67 9 -17 21 -33 26 -35 5 -1 22 -26
37 -54 16 -28 49 -77 74 -110 24 -32 52 -72 60 -89 42 -79 94 -172 105 -185
21 -27 46 -105 35 -108 -6 -2 -28 -19 -48 -38 -59 -55 -299 -169 -437 -207
-267 -75 -483 -113 -540 -94 -31 10 -187 37 -216 37 -15 0 -40 7 -55 15 -16 8
-41 15 -56 15 -23 0 -59 11 -208 65 -46 16 -129 55 -165 77 -11 7 -38 24 -60
38 -22 13 -56 32 -75 41 -19 9 -44 25 -55 35 -29 28 -156 119 -185 134 -14 7
-49 33 -79 59 -29 25 -69 58 -90 74 -20 15 -79 69 -132 120 -130 124 -179 167
-190 167 -5 0 -9 4 -9 9 0 12 -98 111 -110 111 -5 0 -16 9 -24 21 -13 19 -83
72 -185 141 -18 13 -43 32 -54 43 -12 11 -36 29 -54 40 -17 11 -65 45 -105 77
-79 60 -122 86 -178 108 -19 7 -49 24 -67 36 -86 64 -158 90 -274 100 -41 4
-75 8 -77 9 -1 1 11 20 28 43 16 23 30 48 30 56 0 8 4 16 8 18 5 2 26 30 47
63 21 33 40 62 44 65 3 3 26 31 50 63 24 31 60 75 80 96 20 22 61 69 91 106
59 72 116 129 152 153 13 8 28 20 33 26 16 18 106 73 157 96 113 50 260 60
478 35z m2945 -320 c100 -85 185 -177 210 -228 14 -29 50 -86 80 -127 59 -83
155 -224 197 -292 15 -23 32 -50 38 -58 18 -27 79 -168 84 -194 3 -14 7 -29
10 -34 6 -11 48 -173 71 -277 9 -44 21 -89 25 -100 4 -11 4 -42 -1 -70 -28
-171 -47 -235 -131 -425 -70 -160 -81 -180 -160 -297 -29 -43 -60 -91 -68
-105 -55 -95 -315 -371 -420 -444 l-45 -32 -2 137 c0 75 -8 174 -17 221 -9 47
-23 130 -32 185 -9 55 -20 109 -24 120 -9 24 -25 83 -40 149 -6 27 -20 67 -31
90 -10 22 -19 47 -19 55 0 8 29 43 65 77 36 34 65 65 65 69 0 4 14 27 30 52
17 24 30 48 30 52 0 4 9 16 19 26 28 25 107 189 125 260 8 33 25 87 36 120 11
33 25 79 30 102 13 58 14 340 1 383 -6 19 -11 48 -11 64 0 28 -51 194 -70 228
-6 10 -10 23 -10 29 0 11 -34 94 -71 175 -10 23 -19 46 -19 51 0 14 -49 101
-61 108 -5 4 -9 11 -9 17 0 11 45 -20 125 -87z m-3962 -644 c74 -26 225 -102
286 -145 25 -18 93 -64 151 -104 58 -39 134 -96 170 -127 36 -30 70 -59 76
-64 55 -44 180 -158 229 -210 178 -188 421 -407 545 -492 131 -89 411 -239
448 -239 7 0 23 -5 35 -12 12 -7 31 -13 42 -15 11 -2 56 -14 100 -28 107 -32
212 -52 313 -60 45 -3 115 -12 155 -19 85 -16 221 -12 292 8 28 8 88 22 135
32 47 10 106 28 132 41 26 13 53 23 60 24 7 0 42 18 78 39 36 22 90 53 120 70
78 42 180 107 202 126 10 10 20 15 23 13 7 -8 84 -282 91 -325 18 -118 44
-436 44 -550 0 -82 0 -82 -36 -110 -20 -16 -59 -42 -87 -57 -29 -16 -70 -39
-92 -52 -87 -50 -199 -105 -253 -124 -107 -37 -327 -100 -402 -115 -186 -38
-439 -78 -590 -91 -30 -3 -77 -7 -105 -10 -260 -24 -761 -26 -910 -3 -60 10
-132 19 -160 22 -27 3 -99 14 -160 26 -60 11 -141 24 -179 30 -37 6 -72 12
-76 15 -4 2 -26 7 -49 10 -99 12 -320 77 -426 124 -22 10 -65 28 -95 40 -119
49 -261 125 -330 176 -30 22 -67 48 -82 58 -37 23 -162 149 -198 199 -29 40
-63 131 -75 201 -5 34 -4 37 17 37 13 0 34 9 48 20 23 18 24 19 6 26 -10 4
-32 2 -48 -4 -22 -8 -30 -8 -33 1 -8 23 -28 282 -26 337 4 133 45 461 62 492
5 10 9 28 9 41 0 13 4 37 9 53 5 16 35 117 66 224 32 107 66 210 76 228 11 18
19 38 19 44 0 5 9 23 21 39 11 16 37 62 58 101 26 50 46 75 62 80 40 12 171 1
232 -21z m4749 -1073 c8 -114 -11 -314 -42 -428 -17 -63 -40 -162 -52 -220
-34 -169 -59 -252 -109 -367 -11 -24 -19 -46 -19 -49 0 -8 -29 -75 -41 -94 -5
-8 -14 -26 -20 -40 -22 -53 -113 -226 -131 -249 -10 -13 -18 -27 -18 -32 0
-18 -88 -134 -104 -137 -15 -3 -16 2 -10 32 3 20 2 36 -3 36 -17 0 -54 -32
-63 -54 -9 -24 -20 -28 -235 -70 -66 -14 -129 -28 -139 -32 -17 -6 -18 -4 -12
22 4 16 9 52 12 79 3 28 12 68 20 90 8 22 19 81 24 130 16 144 17 148 25 193
4 23 11 42 16 42 7 0 47 32 147 118 24 20 61 49 83 64 44 29 189 173 231 228
15 20 46 56 68 80 50 54 127 169 146 219 22 54 35 80 74 146 20 33 44 80 54
105 10 25 27 63 36 85 10 22 23 64 31 93 7 28 16 52 20 52 4 0 9 -19 11 -42z
m-302 -443 c0 -3 -7 -17 -16 -30 -23 -36 -39 -31 -17 5 15 27 33 40 33 25z
m-300 -374 c-6 -12 -15 -21 -21 -21 -5 0 -2 11 7 25 20 30 31 26 14 -4z
m-4515 -301 c43 -38 111 -86 150 -105 195 -101 267 -135 286 -135 6 0 28 -9
48 -19 20 -11 54 -23 76 -27 47 -9 42 -7 80 -24 37 -16 238 -88 280 -100 17
-5 55 -18 85 -29 30 -11 99 -24 154 -30 54 -6 102 -13 105 -16 4 -2 63 -7 132
-10 68 -3 138 -8 155 -11 17 -2 67 -7 110 -10 43 -3 97 -7 119 -9 37 -4 544
-28 590 -29 11 0 45 3 75 7 162 21 294 36 365 42 44 4 100 11 125 16 25 5 80
16 122 23 42 8 101 22 130 32 29 9 71 20 93 24 104 22 166 38 177 47 15 12 73
32 115 39 70 13 122 27 183 50 68 26 152 65 160 74 9 11 95 57 119 65 l24 7
-6 -133 c-4 -74 -13 -160 -22 -192 -8 -32 -15 -70 -15 -85 0 -15 -8 -42 -18
-61 -14 -28 -31 -39 -97 -66 -44 -17 -105 -44 -136 -58 -31 -15 -60 -27 -64
-27 -16 0 -433 -212 -540 -275 -60 -35 -128 -74 -150 -85 -22 -11 -94 -56
-160 -100 -66 -44 -127 -83 -135 -87 -8 -4 -21 -12 -27 -19 -7 -7 -28 -22 -48
-34 -19 -12 -35 -26 -35 -31 0 -5 -6 -9 -14 -9 -8 0 -16 -4 -18 -9 -1 -5 -37
-37 -78 -71 -41 -35 -110 -96 -152 -136 -56 -53 -84 -74 -103 -74 -37 0 -241
28 -292 40 -24 5 -75 12 -115 16 -86 7 -247 46 -305 74 -23 11 -46 20 -51 20
-5 0 -42 18 -82 40 -40 22 -75 40 -77 40 -4 0 -173 84 -210 104 -13 7 -31 20
-41 29 -10 10 -24 17 -30 17 -6 0 -15 6 -19 13 -4 8 -39 31 -78 52 -38 21 -80
43 -92 49 -35 20 -213 181 -288 262 -38 41 -139 144 -222 229 -84 84 -153 158
-153 164 0 6 -26 50 -57 98 -67 105 -133 226 -133 247 0 8 -6 21 -13 28 -7 7
-25 54 -41 103 -16 50 -33 94 -38 100 -4 5 -8 13 -8 17 0 21 31 2 105 -62z
m149 -41 c-6 -11 -24 -2 -24 11 0 5 7 7 15 4 8 -4 12 -10 9 -15z m81 -39 c3
-6 -1 -7 -9 -4 -18 7 -21 14 -7 14 6 0 13 -4 16 -10z m3625 -80 c-8 -5 -19
-10 -25 -10 -5 0 -3 5 5 10 8 5 20 10 25 10 6 0 3 -5 -5 -10z m-43 -16 c-3 -3
-12 -4 -19 -1 -8 3 -5 6 6 6 11 1 17 -2 13 -5z m-2772 -193 c50 -11 110 -22
135 -26 71 -9 100 -16 100 -24 0 -9 -183 15 -245 33 -5 2 -23 6 -40 10 -59 15
-65 17 -65 26 0 5 6 8 13 5 6 -2 53 -13 102 -24z m1825 -61 c0 -5 -12 -10 -27
-9 l-28 1 25 8 c14 4 26 8 28 9 1 1 2 -3 2 -9z m57 4 c-3 -3 -12 -4 -19 -1 -8
3 -5 6 6 6 11 1 17 -2 13 -5z m-364 -41 c-7 -2 -21 -2 -30 0 -10 3 -4 5 12 5
17 0 24 -2 18 -5z m-143 -7 c0 -2 -7 -6 -15 -10 -8 -3 -15 -1 -15 4 0 6 7 10
15 10 8 0 15 -2 15 -4z m2099 -125 c19 -1 10 -20 -52 -103 -60 -80 -137 -159
-137 -140 0 17 -40 15 -46 -3 -4 -8 0 -22 7 -31 25 -30 -211 -244 -386 -349
-18 -12 -42 -28 -52 -36 -29 -25 -123 -79 -123 -71 0 4 18 30 40 57 22 28 40
54 40 58 0 4 5 13 10 20 22 26 126 174 143 204 9 17 17 36 17 43 0 7 9 25 21
41 11 16 22 39 24 51 3 12 13 40 24 62 10 23 22 55 25 72 4 18 17 36 29 42 67
33 335 93 382 86 11 -1 26 -3 34 -3z m-575 -168 c-10 -44 -62 -151 -121 -247
-71 -115 -101 -156 -176 -240 -89 -98 -107 -115 -178 -169 -35 -26 -75 -56
-89 -67 -27 -22 -272 -100 -385 -124 -39 -8 -106 -17 -150 -21 -44 -3 -132
-13 -196 -21 -63 -9 -125 -14 -138 -12 l-23 3 29 35 c15 20 55 60 88 89 33 29
90 80 126 113 36 33 85 73 110 90 24 16 53 38 65 49 11 10 25 19 31 19 6 0 13
4 15 8 4 9 198 126 285 171 34 18 67 39 74 47 6 8 17 14 23 14 6 0 59 27 118
59 60 32 118 61 131 65 13 3 39 16 58 29 35 24 105 44 95 28 -8 -13 21 -34 38
-28 9 4 19 21 23 39 7 28 19 38 72 66 35 17 68 32 73 32 4 0 6 -12 2 -27z
m-1554 -903 c0 -5 -4 -10 -10 -10 -5 0 -10 5 -10 10 0 6 5 10 10 10 6 0 10 -4
10 -10z"/>
<path d="M3818 5933 c-19 -5 -24 -28 -8 -38 13 -8 52 14 47 28 -4 13 -16 16
-39 10z"/>
<path d="M3276 5775 c-22 -23 -20 -34 10 -41 18 -5 29 -1 39 12 8 11 13 24 11
29 -5 17 -43 17 -60 0z"/>
<path d="M3527 5645 c-8 -18 28 -58 46 -52 7 2 12 17 12 33 0 24 -5 30 -26 32
-17 2 -29 -3 -32 -13z"/>
<path d="M4034 5495 c-9 -22 9 -37 37 -33 16 2 24 10 24 23 0 26 -52 35 -61
10z"/>
<path d="M4696 5414 c-9 -23 2 -34 34 -34 34 0 47 15 30 35 -16 20 -56 19 -64
-1z"/>
<path d="M4945 5179 c-19 -36 -17 -39 21 -42 23 -2 30 2 32 21 4 23 -13 52
-29 52 -5 0 -16 -14 -24 -31z"/>
<path d="M4366 5023 c-9 -22 13 -34 37 -22 14 8 16 13 6 25 -15 19 -35 18 -43
-3z"/>
<path d="M5097 4744 c-11 -11 -8 -52 3 -59 17 -10 41 16 38 39 -3 21 -28 33
-41 20z"/>
<path d="M1984 5386 c-15 -12 -17 -17 -7 -27 17 -17 67 0 71 24 4 22 -35 23
-64 3z"/>
<path d="M2247 5193 c-12 -11 -8 -31 7 -36 21 -8 56 3 56 18 0 20 -48 34 -63
18z"/>
<path d="M1933 5064 c-7 -20 11 -38 31 -31 8 3 20 15 26 26 10 19 8 21 -20 21
-19 0 -33 -6 -37 -16z"/>
<path d="M1743 5063 c-7 -2 -13 -13 -13 -24 0 -14 7 -19 30 -19 31 0 39 17 18
38 -13 13 -16 13 -35 5z"/>
<path d="M1480 4893 c-24 -31 -23 -56 4 -61 25 -5 46 23 46 60 0 36 -22 37
-50 1z"/>
<path d="M2397 4833 c-10 -10 -8 -53 2 -53 25 0 41 14 41 36 0 17 -6 24 -18
24 -10 0 -22 -3 -25 -7z"/>
<path d="M3081 4821 c-21 -13 -5 -41 22 -41 32 0 57 28 36 41 -18 11 -40 11
-58 0z"/>
<path d="M1863 4793 c-30 -20 -29 -43 1 -43 33 0 54 26 35 45 -12 11 -18 11
-36 -2z"/>
<path d="M4200 4253 c0 -22 18 -43 38 -43 9 0 12 9 10 28 -4 33 -48 47 -48 15z"/>
<path d="M2677 4088 c-4 -12 -4 -24 -1 -27 6 -7 24 20 24 37 0 21 -17 13 -23
-10z"/>
<path d="M3946 3948 c-18 -10 -21 -34 -5 -43 19 -12 59 4 59 24 0 22 -30 32
-54 19z"/>
<path d="M5853 4481 c-15 -25 3 -43 37 -36 31 6 36 13 24 33 -16 24 -47 26
-61 3z"/>
<path d="M5956 4224 c-4 -9 -5 -18 -4 -19 11 -8 49 -25 57 -25 16 0 13 26 -5
44 -20 21 -40 20 -48 0z"/>
<path d="M5771 3916 c-17 -20 -3 -46 24 -46 32 0 40 17 19 41 -20 23 -28 24
-43 5z"/>
<path d="M5985 3856 c-16 -12 -18 -18 -9 -33 12 -20 37 -28 59 -19 10 3 11 13
6 33 -9 33 -28 39 -56 19z"/>
<path d="M5733 3553 c-7 -2 -13 -16 -13 -30 0 -21 3 -23 23 -18 31 10 41 21
34 39 -6 16 -21 19 -44 9z"/>
<path d="M5885 3496 c-16 -12 -17 -16 -6 -30 7 -9 22 -16 33 -16 15 0 19 6 16
27 -4 32 -17 38 -43 19z"/>
<path d="M5424 3425 c-8 -19 1 -31 25 -38 27 -7 56 16 48 37 -8 20 -65 22 -73
1z"/>
<path d="M5651 3127 c-16 -16 -13 -47 5 -54 17 -6 57 34 48 48 -7 13 -42 17
-53 6z"/>
<path d="M1207 4398 c-27 -46 -26 -58 2 -58 16 0 51 60 51 88 0 26 -30 9 -53
-30z"/>
<path d="M1571 4401 c-26 -20 -24 -51 3 -51 15 0 56 45 56 61 0 15 -34 9 -59
-10z"/>
<path d="M1265 4303 c-30 -16 -30 -16 -7 -26 32 -14 79 7 62 28 -15 18 -18 18
-55 -2z"/>
<path d="M1393 4263 c-38 -25 -25 -61 17 -48 13 4 20 15 20 30 0 31 -10 36
-37 18z"/>
<path d="M1791 4161 c-12 -8 -12 -12 -2 -25 17 -20 26 -20 45 0 28 27 -8 47
-43 25z"/>
<path d="M1122 4044 c-30 -21 -29 -54 2 -54 19 0 25 6 28 30 6 38 -2 44 -30
24z"/>
<path d="M2138 4018 c-6 -18 14 -67 29 -72 19 -8 43 4 43 21 0 14 -47 63 -61
63 -4 0 -9 -6 -11 -12z"/>
<path d="M1339 3921 l-23 -18 23 -13 c19 -10 26 -9 39 3 15 15 11 47 -7 47 -5
0 -19 -8 -32 -19z"/>
<path d="M1096 3749 c-32 -25 -33 -35 -3 -43 16 -4 28 1 45 20 12 14 22 29 22
35 0 16 -36 10 -64 -12z"/>
<path d="M1735 3750 c-4 -7 -3 -16 3 -22 14 -14 65 -1 59 15 -5 16 -53 21 -62
7z"/>
<path d="M1460 3647 c0 -18 21 -37 41 -37 21 0 34 31 17 42 -20 12 -58 9 -58
-5z"/>
<path d="M2094 3585 c-20 -31 -8 -51 26 -40 16 5 20 13 18 33 -4 35 -23 38
-44 7z"/>
<path d="M1229 3521 c-18 -30 -10 -51 18 -51 17 0 32 38 25 62 -7 26 -25 22
-43 -11z"/>
<path d="M944 3499 c-9 -16 11 -31 41 -31 33 0 41 8 25 27 -14 17 -56 20 -66
4z"/>
<path d="M2341 3441 c-21 -14 -5 -43 21 -39 29 4 39 48 11 48 -10 0 -24 -4
-32 -9z"/>
<path d="M1524 3425 c-9 -21 4 -33 40 -37 49 -5 44 35 -7 47 -20 5 -28 3 -33
-10z"/>
<path d="M1791 3346 c-15 -18 -4 -44 21 -52 31 -9 44 11 28 41 -15 28 -32 32
-49 11z"/>
<path d="M1270 3340 c-13 -8 -13 -12 3 -27 18 -17 19 -17 33 1 8 11 14 23 14
28 0 11 -32 10 -50 -2z"/>
<path d="M1080 3281 c-32 -27 -32 -29 -12 -35 28 -9 62 10 62 34 0 31 -16 31
-50 1z"/>
<path d="M1227 3166 c-3 -8 0 -20 8 -26 20 -17 50 -8 50 15 0 25 -49 34 -58
11z"/>
<path d="M1464 3135 c-4 -8 -1 -22 6 -30 9 -11 17 -12 34 -3 31 16 31 17 10
33 -25 19 -43 19 -50 0z"/>
<path d="M2180 3071 c-26 -5 -35 -11 -35 -26 0 -27 34 -30 64 -4 30 24 18 37
-29 30z"/>
<path d="M1064 3039 c-3 -6 -2 -15 4 -21 15 -15 46 -5 50 15 3 12 -3 17 -22
17 -14 0 -28 -5 -32 -11z"/>
<path d="M2000 2915 c-21 -25 -4 -63 31 -70 45 -10 56 7 25 38 -14 14 -26 31
-26 37 0 15 -16 12 -30 -5z"/>
<path d="M1710 2891 c-14 -26 -13 -28 10 -34 10 -3 27 1 37 8 15 11 15 15 4
29 -18 21 -38 20 -51 -3z"/>
<path d="M1301 2881 c-22 -22 -21 -41 3 -41 22 0 39 27 28 46 -8 15 -11 15
-31 -5z"/>
<path d="M3031 2869 c-24 -23 -15 -40 18 -34 9 2 20 4 24 4 12 1 4 44 -8 48
-6 2 -21 -6 -34 -18z"/>
<path d="M2583 2795 c-16 -12 -16 -15 -3 -29 14 -14 18 -14 38 0 12 8 22 19
22 23 0 16 -39 19 -57 6z"/>
<path d="M1093 2684 c-7 -18 14 -35 34 -27 7 3 13 14 13 24 0 24 -38 26 -47 3z"/>
<path d="M1541 2681 c-18 -12 -7 -41 16 -41 28 0 44 15 37 33 -7 18 -31 22
-53 8z"/>
<path d="M1292 2658 c4 -28 39 -36 57 -14 18 21 5 36 -30 36 -26 0 -30 -3 -27
-22z"/>
<path d="M2205 2630 c-13 -15 -16 -23 -8 -31 16 -16 74 11 71 31 -5 23 -42 23
-63 0z"/>
<path d="M1854 2579 c-9 -16 11 -31 41 -31 31 0 39 6 32 27 -7 17 -62 21 -73
4z"/>
<path d="M4424 2555 c-8 -21 2 -45 19 -45 20 0 40 27 33 45 -7 19 -45 20 -52
0z"/>
<path d="M1500 2520 c-24 -19 -24 -21 -7 -34 30 -23 78 1 70 34 -7 25 -31 25
-63 0z"/>
<path d="M1808 2409 c-18 -11 2 -29 33 -29 22 0 29 5 29 20 0 15 -6 19 -26 18
-14 -1 -30 -5 -36 -9z"/>
<path d="M2647 2392 c-26 -5 -19 -47 8 -48 24 0 45 14 45 31 0 14 -26 23 -53
17z"/>
<path d="M3347 2323 c-13 -13 -7 -32 14 -44 17 -9 25 -8 37 4 8 9 12 23 9 31
-6 16 -48 22 -60 9z"/>
<path d="M3708 2300 c-15 -5 -29 -6 -32 -3 -2 3 -9 -5 -15 -16 -10 -17 -7 -23
14 -37 21 -14 30 -15 48 -5 13 7 28 21 35 31 10 16 9 21 -6 28 -9 5 -29 6 -44
2z"/>
<path d="M2186 2281 c-17 -19 -18 -21 -2 -27 22 -9 69 13 64 29 -7 20 -43 19
-62 -2z"/>
<path d="M3043 2283 c-17 -6 -16 -28 1 -42 16 -14 42 -5 51 16 9 25 -21 39
-52 26z"/>
<path d="M2533 2184 c-4 -11 2 -23 18 -35 34 -26 53 -25 45 4 -3 12 -6 28 -6
35 0 18 -50 15 -57 -4z"/>
<path d="M6077 3141 c-6 -24 15 -44 40 -39 12 2 18 12 18 28 0 33 -49 42 -58
11z"/>
<path d="M5958 2839 c-25 -14 -22 -34 6 -47 28 -13 46 0 46 35 0 25 -22 30
-52 12z"/>
<path d="M5898 2629 c-22 -12 -23 -35 -3 -43 24 -9 46 5 43 27 -4 25 -17 30
-40 16z"/>
<path d="M5721 2616 c-16 -19 17 -60 42 -51 20 8 21 18 7 46 -12 22 -33 25
-49 5z"/>
<path d="M5940 2531 c0 -24 5 -32 25 -37 35 -9 42 2 23 34 -24 39 -48 41 -48
3z"/>
<path d="M5663 2433 c-32 -22 -29 -43 5 -43 28 0 58 32 47 50 -9 14 -26 12
-52 -7z"/>
<path d="M5747 2367 c-22 -15 -14 -43 13 -50 26 -7 47 19 34 41 -14 22 -27 24
-47 9z"/>
<path d="M5780 2188 l-25 -9 23 -20 c18 -14 28 -16 43 -9 19 11 17 35 -4 43
-7 2 -23 0 -37 -5z"/>
<path d="M5459 2089 c-30 -42 -13 -58 35 -35 37 18 44 34 24 54 -19 19 -35 14
-59 -19z"/>
<path d="M5645 2110 c-10 -17 20 -44 40 -36 9 3 15 14 13 23 -4 21 -43 30 -53
13z"/>
<path d="M1202 2194 c-30 -21 -28 -34 7 -34 33 0 44 11 35 34 -8 20 -14 20
-42 0z"/>
<path d="M1353 2033 c-19 -7 -15 -31 6 -43 15 -7 23 -6 35 6 9 9 14 19 11 24
-6 10 -37 18 -52 13z"/>
<path d="M1661 1881 c-12 -22 -5 -31 25 -31 29 0 39 27 14 40 -25 13 -28 13
-39 -9z"/>
<path d="M4872 1864 c-27 -19 -28 -30 -3 -43 23 -13 67 20 57 44 -7 19 -26 19
-54 -1z"/>
<path d="M1447 1853 c-25 -24 11 -49 40 -28 16 13 16 16 3 25 -17 11 -34 13
-43 3z"/>
<path d="M4638 1842 c-30 -18 -37 -46 -13 -56 30 -11 52 13 56 61 1 14 -16 12
-43 -5z"/>
<path d="M2038 1842 c-24 -5 -23 -29 2 -42 23 -12 64 4 58 22 -5 14 -38 25
-60 20z"/>
<path d="M3376 1831 c-22 -24 -20 -48 4 -56 26 -8 53 18 45 44 -8 27 -30 33
-49 12z"/>
<path d="M4338 1837 c-28 -11 -37 -40 -17 -53 14 -8 64 28 64 46 0 18 -14 20
-47 7z"/>
<path d="M2390 1821 c0 -17 40 -53 53 -48 7 2 12 15 12 28 0 20 -6 25 -32 27
-19 2 -33 -1 -33 -7z"/>
<path d="M2805 1754 c-12 -12 -13 -19 -4 -30 6 -8 17 -14 25 -14 27 0 64 24
64 42 0 14 -8 18 -34 18 -19 0 -42 -7 -51 -16z"/>
<path d="M3670 1737 c0 -8 9 -22 19 -31 15 -14 24 -15 40 -6 26 13 26 19 4 36
-23 17 -63 18 -63 1z"/>
<path d="M1811 1691 c-22 -14 21 -55 48 -46 23 7 27 25 9 43 -14 14 -37 15
-57 3z"/>
<path d="M4068 1689 c-31 -18 -22 -41 15 -37 24 2 32 8 32 23 0 23 -22 29 -47
14z"/>
<path d="M2264 1635 c-16 -13 -17 -16 -4 -25 21 -14 36 -12 54 6 31 31 -12 48
-50 19z"/>
<path d="M3126 1641 c-10 -16 5 -41 24 -41 32 0 50 11 50 31 0 15 -7 19 -34
19 -19 0 -37 -4 -40 -9z"/>
<path d="M2636 1609 c-25 -19 -26 -23 -13 -37 20 -19 64 -9 72 18 14 43 -17
52 -59 19z"/>
<path d="M3937 1551 c-13 -65 29 -86 57 -29 18 35 14 43 -25 53 -23 6 -27 3
-32 -24z"/>
<path d="M1756 1537 c-25 -18 -15 -47 14 -40 27 7 32 17 17 37 -11 14 -15 15
-31 3z"/>
<path d="M2450 1505 c-16 -19 35 -53 58 -39 27 18 24 30 -12 41 -28 9 -38 8
-46 -2z"/>
<path d="M2003 1465 c-4 -12 0 -23 12 -31 23 -17 27 -17 51 0 22 17 13 31 -28
41 -21 6 -29 3 -35 -10z"/>
<path d="M3515 1451 c-9 -16 17 -61 37 -61 27 0 34 27 13 50 -19 21 -40 26
-50 11z"/>
<path d="M2253 1429 c-13 -5 -23 -15 -23 -24 0 -19 38 -19 63 0 18 13 18 14 0
23 -10 6 -27 6 -40 1z"/>
<path d="M2031 1383 c-23 -15 -23 -17 -6 -30 26 -18 38 -16 54 8 11 18 11 23
-1 30 -18 12 -20 11 -47 -8z"/>
<path d="M3017 1383 c-27 -7 -16 -37 14 -41 27 -3 55 20 44 38 -6 10 -26 11
-58 3z"/>
<path d="M3751 1381 c-14 -9 -7 -51 10 -51 18 0 59 32 59 46 0 16 -47 19 -69
5z"/>
<path d="M2807 1366 c-8 -21 21 -48 47 -44 27 4 32 48 5 48 -9 0 -24 3 -32 6
-8 3 -17 -2 -20 -10z"/>
<path d="M2534 1310 c-31 -12 -39 -30 -21 -47 13 -13 20 -14 46 -4 34 14 48
40 29 53 -16 10 -27 9 -54 -2z"/>
<path d="M3287 1313 c-9 -8 12 -33 27 -33 6 0 17 9 24 20 11 18 10 20 -16 20
-16 0 -32 -3 -35 -7z"/>
<path d="M2330 1225 c-16 -19 -4 -35 26 -35 29 0 32 25 5 39 -14 8 -22 7 -31
-4z"/>
<path d="M2192 1199 c-20 -32 -1 -45 39 -29 l32 14 -23 18 c-28 23 -32 23 -48
-3z"/>
<path d="M3596 1202 c-31 -19 -35 -32 -13 -46 18 -11 69 21 65 42 -4 22 -19
23 -52 4z"/>
<path d="M2737 1142 c-22 -24 -21 -39 1 -50 40 -22 82 24 50 56 -17 17 -32 15
-51 -6z"/>
<path d="M3077 1106 c-19 -29 -13 -56 13 -56 24 0 42 24 38 52 -4 32 -32 34
-51 4z"/>
<path d="M2423 1054 c-9 -24 19 -46 50 -38 34 8 35 32 1 44 -35 14 -44 13 -51
-6z"/>
<path d="M3408 1033 c-19 -5 -24 -38 -8 -48 20 -12 51 6 48 28 -3 22 -13 27
-40 20z"/>
<path d="M2677 963 c-12 -11 -8 -22 14 -33 23 -13 49 2 49 26 0 14 -51 20 -63
7z"/>
<path d="M3132 943 c-9 -14 -5 -20 21 -31 34 -14 51 -5 45 24 -5 26 -53 31
-66 7z"/>
<path d="M2984 855 c-8 -19 3 -35 26 -35 19 0 34 25 24 41 -8 14 -44 10 -50
-6z"/>
<path d="M3362 838 c-22 -22 -14 -38 19 -38 26 0 30 3 27 22 -3 26 -28 34 -46
16z"/>
<path d="M5423 1671 c-28 -23 -29 -41 -4 -41 35 0 51 12 51 36 0 29 -17 30
-47 5z"/>
<path d="M5247 1663 c-13 -12 -7 -41 9 -47 28 -11 44 -6 44 12 0 31 -35 54
-53 35z"/>
<path d="M5227 1444 c-3 -16 0 -28 9 -31 24 -9 44 5 44 32 0 20 -5 25 -24 25
-18 0 -25 -7 -29 -26z"/>
<path d="M5080 1320 c0 -22 22 -35 44 -27 9 4 12 14 9 26 -7 29 -53 29 -53 1z"/>
<path d="M4633 1332 c-15 -2 -23 -10 -23 -22 0 -24 11 -31 38 -24 44 12 30 54
-15 46z"/>
<path d="M4354 1258 c-4 -6 3 -19 16 -30 21 -17 24 -18 33 -3 5 9 6 23 3 31
-6 17 -42 19 -52 2z"/>
<path d="M4333 1094 c-7 -18 6 -45 24 -51 16 -6 44 27 41 46 -4 23 -56 27 -65
5z"/>
<path d="M4045 1077 c-24 -18 -11 -37 24 -37 31 0 57 23 46 40 -9 14 -48 13
-70 -3z"/>
<path d="M4358 989 c-10 -6 -18 -21 -18 -34 0 -33 45 -46 65 -19 17 23 15 33
-11 50 -13 9 -24 10 -36 3z"/>
<path d="M4161 961 c-8 -5 -11 -16 -6 -30 6 -19 12 -21 38 -15 18 3 38 11 45
16 30 25 -41 52 -77 29z"/>
<path d="M3950 885 c-10 -12 -10 -18 0 -30 17 -21 44 -19 65 5 21 24 20 26
-21 34 -22 5 -35 2 -44 -9z"/>
</g>
</svg>
