<svg xmlns="http://www.w3.org/2000/svg" viewBox="0 0 445 131"><g fill="none" fill-rule="evenodd"><path fill="#001B70" d="M12.8852459,0 L265.658226,0 L216.422852,131 L12.8852459,131 C5.76892109,131 0,125.231079 0,118.114754 L0,12.8852459 C0,5.76892109 5.76892109,0 12.8852459,0 Z"/><path fill="#FFEB00" d="M431.965854,131 L216.536225,131 L265.7716,0 L431.965854,0 C439.082179,0 444.8511,5.76892109 444.8511,12.8852459 L444.8511,118.114754 C444.8511,125.231079 439.082179,131 431.965854,131 Z"/><path fill="#FFF" fill-rule="nonzero" d="M30.8111871 33.3753396C31.3626178 34.4230579 31.8933698 35.5121334 32.4034431 36.6425662 32.9135165 37.772999 33.4029112 38.9310034 33.8716272 40.1165792 34.3403433 38.9034318 34.8366308 37.7247488 35.3604899 36.5805302 35.8843491 35.4363117 36.4219939 34.3265575 36.9734246 33.2512677L52.4410541 2.81229628C52.7167694 2.28843717 52.9993776 1.88175707 53.2888787 1.59225598 53.5783798 1.30275489 53.9023453 1.08907552 54.2607752.951217858 54.6192051.813360198 55.0258852.730645601 55.4808155.703074069 55.9357458.675502537 56.4664978.661716771 57.0730715.661716771L67.7432544.661716771 67.7432544 60.9193002 55.4187796 60.9193002 55.4187796 26.2618843C55.4187796 24.5800209 55.5014942 22.7602998 55.6669234 20.802721L39.7030063 51.7793373C39.2067187 52.744341 38.538109 53.4749866 37.6971773 53.9712741 36.8562456 54.4675617 35.8981348 54.7157055 34.8228451 54.7157055L32.9204094 54.7157055C31.8451196 54.7157055 30.8870089 54.4675617 30.0460771 53.9712741 29.2051454 53.4749866 28.5365357 52.744341 28.0402482 51.7793373L11.9936165 20.7613637C12.1039026 21.7263673 12.1866172 22.6844781 12.2417603 23.6356959 12.2969033 24.5869138 12.3244749 25.4623099 12.3244749 26.2618843L12.3244749 60.9193002 0 60.9193002 0 .661716771 10.6701829.661716771C11.2767566.661716771 11.8075086.675502537 12.2624389.703074069 12.7173692.730645601 13.1240493.813360198 13.4824792.951217858 13.8409091 1.08907552 14.1648746 1.30275489 14.4543757 1.59225598 14.7438768 1.88175707 15.026485 2.28843717 15.3022003 2.81229628L30.8111871 33.3753396ZM140.77969 30.7698299C140.77969 35.1261319 140.028365 39.1791471 138.525717 42.9288755 137.023068 46.6786039 134.906953 49.9389376 132.177372 52.7098765 129.44779 55.4808155 126.159885 57.6520737 122.313656 59.223651 118.467427 60.7952283 114.200733 61.581017 109.513572 61.581017 104.826412 61.581017 100.552824 60.7952283 96.6928098 59.223651 92.8327953 57.6520737 89.5311043 55.4808155 86.7877369 52.7098765 84.0443694 49.9389376 81.9213615 46.6786039 80.418713 42.9288755 78.9160645 39.1791471 78.1647402 35.1261319 78.1647402 30.7698299 78.1647402 26.4135278 78.9160645 22.3605126 80.418713 18.6107842 81.9213615 14.8610558 84.0443694 11.607615 86.7877369 8.85046181 89.5311043 6.0933086 92.8327953 3.92894333 96.6928098 2.357366 100.552824.785788666 104.826412 0 109.513572 0 114.200733 0 118.467427.792681549 122.313656 2.37804465 126.159885 3.96340774 129.44779 6.1346659 132.177372 8.89181911 134.906953 11.6489723 137.023068 14.9024131 138.525717 18.6521415 140.028365 22.4018699 140.77969 26.4410993 140.77969 30.7698299ZM126.470065 30.7698299C126.470065 27.7921044 126.084063 25.1107729 125.31206 22.7258354 124.540057 20.3408978 123.430303 18.3212831 121.982798 16.6669912 120.535292 15.0126992 118.763821 13.7444088 116.668385 12.8621197 114.572948 11.9798307 112.188011 11.5386862 109.513572 11.5386862 106.811562 11.5386862 104.405946 11.9798307 102.296724 12.8621197 100.187502 13.7444088 98.4091377 15.0126992 96.9616322 16.6669912 95.5141268 18.3212831 94.4043726 20.3408978 93.6323697 22.7258354 92.8603668 25.1107729 92.4743654 27.7921044 92.4743654 30.7698299 92.4743654 33.7751269 92.8603668 36.4702441 93.6323697 38.8551816 94.4043726 41.2401192 95.5141268 43.2597339 96.9616322 44.9140258 98.4091377 46.5683178 100.187502 47.8297154 102.296724 48.6982186 104.405946 49.5667219 106.811562 50.0009735 109.513572 50.0009735 112.188011 50.0009735 114.572948 49.5667219 116.668385 48.6982186 118.763821 47.8297154 120.535292 46.5683178 121.982798 44.9140258 123.430303 43.2597339 124.540057 41.2401192 125.31206 38.8551816 126.084063 36.4702441 126.470065 33.7751269 126.470065 30.7698299ZM143.674147.661716771 154.923332.661716771C156.13648.661716771 157.129055.937432092 157.901058 1.48886273 158.673061 2.04029338 159.224491 2.77093898 159.55535 3.68079954L171.218108 35.9394921C171.741967 37.3456403 172.272719 38.8758603 172.810364 40.5301522 173.348009 42.1844442 173.851189 43.9214507 174.319905 45.7411718 174.705907 43.9214507 175.153944 42.1844442 175.664017 40.5301522 176.174091 38.8758603 176.677271 37.3456403 177.173559 35.9394921L188.753602 3.68079954C189.029318 2.90879664 189.566962 2.21261545 190.366537 1.59225598 191.166111.971896507 192.144901.661716771 193.302905.661716771L204.634805.661716771 180.482143 60.9193002 167.826809 60.9193002 143.674147.661716771Z" transform="translate(27.13 34.482)"/><path fill="#001B70" fill-rule="nonzero" d="M60.9606575 60.2575835 50.1250454 60.2575835C48.911898 60.2575835 47.9124299 59.9749753 47.1266413 59.4097588 46.3408526 58.8445424 45.7963149 58.1207897 45.493028 57.2385007L41.9363004 46.733747 19.0243572 46.733747 15.4676295 57.2385007C15.1919142 58.0105036 14.6542693 58.7066848 13.8546949 59.3270442 13.0551205 59.9474037 12.0763311 60.2575835 10.9183267 60.2575835L0 60.2575835 23.3255162 0 37.6351414 0 60.9606575 60.2575835ZM22.2502264 37.2215684 38.7104311 37.2215684 33.1685531 20.7200064C32.8101232 19.6722882 32.3896574 18.4384621 31.9071556 17.0185282 31.4246537 15.5985943 30.9490448 14.0614814 30.4803288 12.4071895 30.0391842 14.0890529 29.584254 15.6468445 29.1155379 17.0805642 28.6468219 18.5142838 28.2056774 19.7550028 27.7921044 20.802721L22.2502264 37.2215684ZM83.4584744 40.1165792 83.4584744 60.2575835 69.4797076 60.2575835 69.4797076 0 90.7373589 0C94.9833748 0 98.6297099.503180461 101.676364 1.50954138 104.723019 2.51590231 107.232028 3.9013718 109.203393 5.66594985 111.174757 7.43052791 112.629155 9.51217858 113.566587 11.9109019 114.50402 14.3096252 114.972736 16.9013492 114.972736 19.6860739 114.972736 22.6913709 114.490234 25.4485242 113.52523 27.9575336 112.560227 30.466543 111.08515 32.6171225 109.099999 34.4092721 107.114849 36.2014217 104.598947 37.6006769 101.552292 38.6070379 98.505638 39.6133988 94.9006602 40.1165792 90.7373589 40.1165792L83.4584744 40.1165792ZM83.4584744 29.5704682 90.7373589 29.5704682C94.3768011 29.5704682 96.9960967 28.7019649 98.5952455 26.9649584 100.194394 25.2279519 100.993969 22.8016571 100.993969 19.6860739 100.993969 18.3074973 100.787182 17.0529926 100.373609 15.9225598 99.9600364 14.792127 99.332784 13.8202305 98.4918523 13.0068703 97.6509206 12.1935101 96.5894166 11.5662577 95.3073403 11.1251132 94.0252641 10.6839687 92.5019369 10.4633964 90.7373589 10.4633964L83.4584744 10.4633964 83.4584744 29.5704682ZM139.869276 40.1165792 139.869276 60.2575835 125.890509 60.2575835 125.890509 0 147.14816 0C151.394176 0 155.040511.503180461 158.087166 1.50954138 161.13382 2.51590231 163.642829 3.9013718 165.614194 5.66594985 167.585558 7.43052791 169.039957 9.51217858 169.977389 11.9109019 170.914821 14.3096252 171.383537 16.9013492 171.383537 19.6860739 171.383537 22.6913709 170.901035 25.4485242 169.936032 27.9575336 168.971028 30.466543 167.495951 32.6171225 165.510801 34.4092721 163.52565 36.2014217 161.009748 37.6006769 157.963094 38.6070379 154.916439 39.6133988 151.311462 40.1165792 147.14816 40.1165792L139.869276 40.1165792ZM139.869276 29.5704682 147.14816 29.5704682C150.787602 29.5704682 153.406898 28.7019649 155.006047 26.9649584 156.605196 25.2279519 157.40477 22.8016571 157.40477 19.6860739 157.40477 18.3074973 157.197984 17.0529926 156.784411 15.9225598 156.370838 14.792127 155.743585 13.8202305 154.902654 13.0068703 154.061722 12.1935101 153.000218 11.5662577 151.718142 11.1251132 150.436065 10.6839687 148.912738 10.4633964 147.14816 10.4633964L139.869276 10.4633964 139.869276 29.5704682Z" transform="translate(247.894 35.143)"/></g></svg>