<?xml version="1.0" encoding="UTF-8" standalone="no"?><!DOCTYPE svg PUBLIC "-//W3C//DTD SVG 1.1//EN" "http://www.w3.org/Graphics/SVG/1.1/DTD/svg11.dtd"><svg width="100%" height="100%" viewBox="0 0 420 420" version="1.1" xmlns="http://www.w3.org/2000/svg" xmlns:xlink="http://www.w3.org/1999/xlink" xml:space="preserve" xmlns:serif="http://www.serif.com/" style="fill-rule:evenodd;clip-rule:evenodd;stroke-linejoin:round;stroke-miterlimit:2;"><rect id="panenkea" x="-0" y="0" width="419.528" height="419.528" style="fill:none;"/><g><path d="M169.328,362.912c3.115,-8.237 7.346,-16.262 11.042,-24.241c2.608,-5.629 10.002,-19.409 12.08,-25.266c0.277,-0.78 -0.131,-1.638 -0.912,-1.915c-0.78,-0.277 -1.638,0.132 -1.915,0.912c-2.058,5.798 -9.393,19.435 -11.975,25.008c-3.761,8.119 -8.065,16.287 -11.214,24.671c-0.115,0.307 -0.167,0.818 -0.059,1.415c0.099,0.544 0.373,1.264 0.387,1.582c0.176,3.999 -1.175,7.511 -3.485,10.79c-4.423,6.281 -14.913,10.086 -22.312,7.676c-1.936,-0.631 -3.581,-1.737 -4.125,-3.306c-0.331,-0.952 -0.19,-2.051 0.497,-3.263c1.548,-2.733 4.134,-4.456 6.666,-6.216c2.913,-2.024 5.766,-4.087 7.461,-7.231c8.524,-15.813 10.449,-38.184 15.409,-55.208c0.232,-0.795 -0.225,-1.628 -1.02,-1.86c-0.795,-0.231 -1.628,0.226 -1.86,1.021c-4.906,16.838 -6.739,38.984 -15.17,54.624c-1.468,2.723 -4.009,4.438 -6.532,6.191c-2.902,2.016 -5.79,4.069 -7.564,7.2c-1.201,2.119 -1.299,4.061 -0.721,5.726c0.818,2.358 3.12,4.226 6.029,5.174c8.517,2.775 20.603,-1.571 25.695,-8.801c2.704,-3.839 4.235,-7.966 4.029,-12.648c-0.016,-0.371 -0.347,-1.701 -0.431,-2.035Z"/><path d="M246.468,366.377c-0.084,0.334 -0.415,1.664 -0.431,2.035c-0.206,4.682 1.325,8.809 4.029,12.648c5.092,7.23 17.178,11.576 25.695,8.801c2.91,-0.948 5.211,-2.816 6.029,-5.174c0.578,-1.665 0.48,-3.606 -0.721,-5.726c-1.774,-3.131 -4.662,-5.184 -7.564,-7.2c-2.523,-1.753 -5.064,-3.468 -6.532,-6.191c-8.431,-15.64 -10.241,-37.963 -15.148,-54.802c-0.231,-0.795 -1.065,-1.252 -1.86,-1.02c-0.794,0.231 -1.252,1.065 -1.02,1.86c4.96,17.023 6.863,39.573 15.387,55.385c1.695,3.145 4.548,5.208 7.461,7.231c2.532,1.76 5.118,3.483 6.666,6.216c0.687,1.212 0.828,2.311 0.497,3.263c-0.544,1.569 -2.189,2.675 -4.124,3.306c-7.4,2.41 -17.889,-1.395 -22.313,-7.676c-2.31,-3.279 -3.661,-6.79 -3.485,-10.79c0.014,-0.318 0.288,-1.038 0.387,-1.581c0.108,-0.598 0.056,-1.109 -0.059,-1.416c-3.149,-8.384 -7.453,-16.552 -11.214,-24.671c-2.578,-5.565 -12.231,-25.133 -12.825,-27.042c-0.246,-0.79 -1.088,-1.232 -1.879,-0.986c-0.79,0.247 -1.232,1.088 -0.986,1.879c0.603,1.934 10.356,21.772 12.968,27.411c3.696,7.978 7.928,16.003 11.042,24.24Z"/><path d="M144.47,371.305l-0.12,-0.48c-0.03,-0.261 -0.129,-0.517 -0.301,-0.741c-0.353,-0.457 -0.757,-0.542 -0.998,-0.573c-0.404,-0.052 -0.77,0.045 -1.096,0.291c-0.12,0.09 -0.679,0.483 -0.589,1.363c0.017,0.167 0.291,1.227 0.382,1.407c0.362,0.717 0.868,1.392 1.425,1.966c1.771,1.828 4.505,3.206 7.033,1.872c1.81,-0.955 2.812,-2.778 3.071,-4.866c0.354,-2.853 -0.737,-6.15 -2.565,-7.833c-0.609,-0.561 -1.559,-0.521 -2.12,0.088c-0.56,0.609 -0.521,1.559 0.088,2.119c1.22,1.123 1.856,3.353 1.62,5.256c-0.135,1.083 -0.556,2.088 -1.494,2.583c-0.537,0.283 -1.09,0.225 -1.602,0.027c-0.71,-0.274 -1.355,-0.794 -1.877,-1.333c-0.328,-0.338 -0.632,-0.728 -0.857,-1.146Zm-1.373,1.177c-0.094,0.014 -0.189,0.02 -0.283,0.017c0.096,0.004 0.191,-0.002 0.283,-0.017Zm-0.301,0.017l0.015,0l-0.055,-0.003l0.04,0.003Zm0.35,-0.026l-0.035,0.006l0.028,-0.005l0.007,-0.001Zm-1.423,-0.496c0.267,0.317 0.557,0.425 0.763,0.475c-0.289,-0.074 -0.557,-0.234 -0.763,-0.475Zm1.99,0.257l-0.02,0.014l0.017,-0.011l0.003,-0.003Zm0.284,-0.254c-0.088,0.104 -0.183,0.186 -0.281,0.253l0.06,-0.045c0.082,-0.063 0.156,-0.133 0.221,-0.208Z"/><path d="M271.446,374.29l-0.12,0.48c-0.224,0.418 -0.529,0.808 -0.857,1.146c-0.522,0.539 -1.167,1.059 -1.877,1.333c-0.512,0.198 -1.065,0.257 -1.602,-0.027c-0.938,-0.495 -1.359,-1.5 -1.494,-2.582c-0.236,-1.904 0.4,-4.133 1.62,-5.256c0.609,-0.561 0.649,-1.511 0.088,-2.12c-0.561,-0.609 -1.511,-0.648 -2.12,-0.088c-1.828,1.683 -2.919,4.981 -2.565,7.833c0.259,2.088 1.261,3.911 3.071,4.866c2.528,1.334 5.262,-0.043 7.033,-1.871c0.557,-0.575 1.063,-1.25 1.425,-1.966c0.091,-0.181 0.365,-1.241 0.382,-1.408c0.09,-0.88 -0.469,-1.273 -0.589,-1.363c-0.326,-0.246 -0.692,-0.343 -1.096,-0.291c-0.241,0.032 -0.645,0.116 -0.998,0.574c-0.172,0.223 -0.271,0.479 -0.301,0.74Zm2.628,1.152c-0.207,0.241 -0.475,0.401 -0.764,0.475c0.206,-0.049 0.496,-0.157 0.764,-0.475Z"/><path d="M153.433,361.075c-0.079,-0.346 -0.281,-0.666 -0.593,-0.888c-0.675,-0.479 -1.612,-0.321 -2.091,0.354c-0.44,0.619 -0.546,1.535 0.296,2.455c0.976,1.066 4.279,2.609 4.836,2.737c4.211,0.966 9.27,0.372 12.947,-1.959c0.699,-0.443 0.907,-1.371 0.463,-2.07c-0.443,-0.699 -1.371,-0.907 -2.07,-0.464c-3.028,1.92 -7.201,2.365 -10.669,1.569c-0.322,-0.074 -2.485,-1.355 -3.119,-1.734Z"/><path d="M262.363,364.54c-0.634,0.379 -2.797,1.66 -3.119,1.734c-3.468,0.796 -7.641,0.352 -10.669,-1.568c-0.699,-0.444 -1.627,-0.236 -2.07,0.463c-0.443,0.699 -0.236,1.627 0.463,2.07c3.677,2.332 8.736,2.926 12.948,1.959c0.556,-0.128 3.859,-1.671 4.835,-2.737c0.842,-0.92 0.736,-1.836 0.296,-2.455c-0.479,-0.675 -1.416,-0.833 -2.091,-0.354c-0.312,0.222 -0.514,0.542 -0.593,0.888Z"/><path d="M232.427,97.981c-2.847,-0.598 -4.396,1.779 -4.689,3.429c-0.313,1.76 0.572,4.179 2.337,4.984c0.824,0.376 1.848,0.473 3.061,-0.021c0.767,-0.312 1.137,-1.188 0.825,-1.954c-0.312,-0.767 -1.188,-1.137 -1.955,-0.825c-1.112,0.453 -1.448,-0.907 -1.314,-1.659c0.076,-0.43 0.378,-1.174 1.119,-1.018c0.81,0.17 1.606,-0.35 1.776,-1.16c0.17,-0.81 -0.349,-1.606 -1.16,-1.776Z"/><path d="M188.546,97.981c-2.847,-0.598 -4.396,1.779 -4.689,3.429c-0.313,1.76 0.572,4.179 2.337,4.984c0.824,0.376 1.848,0.473 3.061,-0.021c0.767,-0.312 1.137,-1.188 0.825,-1.954c-0.312,-0.767 -1.188,-1.137 -1.955,-0.825c-1.112,0.453 -1.448,-0.907 -1.314,-1.659c0.076,-0.43 0.378,-1.174 1.119,-1.018c0.81,0.17 1.606,-0.35 1.776,-1.16c0.17,-0.81 -0.349,-1.606 -1.16,-1.776Z"/><path d="M214.492,105.282c-0.344,-0.463 -0.899,-0.829 -1.513,-1.055c-0.632,-0.232 -1.549,-0.35 -1.549,-0.35c-0,-0 0.059,0.011 0.068,0.013c-0.782,-0.169 -3.323,-0.368 -5.061,0.239c-0.993,0.346 -1.751,0.944 -2.142,1.743c-0.285,0.582 -0.404,1.289 -0.207,2.153c0.352,1.548 1.409,2.559 2.807,3.081c1.724,0.644 4.02,0.467 5.694,-0.282c1.38,-0.616 2.321,-1.628 2.58,-2.733c0.199,-0.847 0.069,-1.808 -0.677,-2.809Zm-2.365,1.847c0.07,0.095 0.122,0.179 0.123,0.268c0.001,0.113 -0.108,0.182 -0.202,0.267c-0.184,0.166 -0.421,0.304 -0.684,0.422c-0.854,0.381 -1.971,0.535 -2.931,0.346c-0.655,-0.129 -1.269,-0.407 -1.42,-1.071c-0.016,-0.069 -0.029,-0.13 -0.019,-0.183c0.019,-0.092 0.138,-0.092 0.228,-0.134c0.224,-0.106 0.485,-0.174 0.758,-0.225c1.123,-0.207 2.428,-0.095 2.882,0.003c0.042,0.009 0.416,0.037 0.839,0.146c0.128,0.033 0.365,0.134 0.426,0.161Z"/><path d="M196.527,114.835c-0.071,-0.116 -0.161,-0.224 -0.267,-0.32c-0.636,-0.575 -1.218,-0.385 -1.35,-0.355c-0.566,0.131 -0.96,0.473 -1.118,1.094c-0.035,0.137 -0.16,0.561 0.15,1.111c0.053,0.094 0.727,0.957 0.874,1.121c0.588,0.656 1.266,1.242 1.945,1.802c2.21,1.824 4.514,2.93 7.341,3.46c8.456,1.584 17.615,-0.429 21.761,-8.411c0.382,-0.735 0.095,-1.641 -0.639,-2.023c-0.735,-0.382 -1.641,-0.095 -2.023,0.64c-3.513,6.763 -11.381,8.188 -18.546,6.846c-2.305,-0.432 -4.183,-1.338 -5.984,-2.826c-0.564,-0.465 -1.133,-0.946 -1.622,-1.492c-0.072,-0.079 -0.407,-0.502 -0.522,-0.647Zm-2.21,1.964c0.368,0.303 0.701,0.332 0.884,0.327c-0.313,-0.01 -0.624,-0.119 -0.884,-0.327Zm2.281,-0.504c-0.192,0.442 -0.531,0.71 -1.02,0.797c0.295,-0.065 0.572,-0.218 0.789,-0.459c0.095,-0.104 0.172,-0.218 0.231,-0.338Z"/><path d="M264.689,66.524c-6.051,-20.062 -23.418,-37.841 -53.155,-37.719c-19.052,0.078 -39.721,8.785 -50.099,25.15c-30.369,47.89 16.003,102.523 65.805,86.663c31.28,-9.962 47.031,-42.324 37.449,-74.094l-0,0Zm-2.872,0.867c9.096,30.159 -5.793,60.912 -35.487,70.368c-47.222,15.039 -91.157,-36.789 -62.362,-82.197c9.846,-15.526 29.504,-23.683 47.578,-23.757c28.101,-0.115 44.553,16.628 50.271,35.586l-0,-0Z"/><path d="M234.537,36.165c-2.481,9.197 -11.652,19.676 -23.326,29.007c-17.668,14.121 -41.141,25.586 -56.703,25.586c-0.828,0 -1.5,0.672 -1.5,1.5c-0,0.828 0.672,1.5 1.5,1.5c16.057,0 40.347,-11.673 58.576,-26.243c12.257,-9.796 21.745,-20.912 24.349,-30.568c0.216,-0.8 -0.258,-1.624 -1.058,-1.839c-0.799,-0.216 -1.623,0.258 -1.838,1.057Z"/><path d="M218.342,61.402c5.296,13.294 19.239,24.031 32.272,29.57c4.312,1.833 9.61,2.119 13.736,4.183c0.741,0.37 1.643,0.069 2.013,-0.671c0.37,-0.741 0.069,-1.642 -0.671,-2.013c-4.179,-2.089 -9.537,-2.404 -13.905,-4.26c-12.346,-5.248 -25.641,-15.326 -30.658,-27.919c-0.307,-0.769 -1.18,-1.145 -1.949,-0.838c-0.769,0.306 -1.145,1.179 -0.838,1.948Z"/><path d="M265.269,86.09c0.436,0.301 1.018,0.362 1.524,0.109c0.741,-0.371 1.042,-1.272 0.671,-2.013c-0.173,-0.347 -0.528,-0.728 -1.133,-0.932c-0.62,-0.209 -1.912,-0.206 -2.217,-0.245c-2.207,-0.282 -4.173,-0.73 -6.272,-1.487c-7.298,-2.634 -13.956,-7.149 -19.911,-12.032c-3.267,-2.679 -6.146,-5.703 -8.631,-9.123c-0.841,-1.158 -1.666,-2.33 -2.393,-3.563c-0.254,-0.429 -0.501,-0.862 -0.748,-1.294c-0.052,-0.09 -0.168,-0.32 -0.241,-0.465c-0.032,-0.093 -0.074,-0.185 -0.127,-0.273c-0.766,-1.294 -2.03,-0.604 -2.095,-0.565c-0.144,0.087 -1.045,0.669 -0.634,1.805c0.035,0.095 0.355,0.747 0.493,0.989c0.254,0.444 0.508,0.887 0.768,1.327c0.775,1.315 1.653,2.568 2.55,3.802c2.636,3.628 5.69,6.838 9.156,9.679c6.215,5.097 13.178,9.786 20.795,12.535c2.312,0.834 4.478,1.33 6.91,1.641c0.187,0.024 1.205,0.086 1.535,0.105Zm-41.075,-29.086c-0.398,-0.083 -0.761,-0.326 -0.984,-0.703c0.298,0.503 0.642,0.693 0.984,0.703Z"/><path d="M227.969,49.821c0.948,2.941 3.54,5.844 5.352,8.255c5.6,7.45 12.357,13.892 20.813,17.988c3.361,1.628 7.427,2.088 10.64,3.873c0.723,0.402 1.637,0.141 2.039,-0.583c0.403,-0.724 0.141,-1.638 -0.582,-2.04c-3.261,-1.811 -7.379,-2.298 -10.789,-3.95c-8.022,-3.886 -14.411,-10.023 -19.723,-17.09c-1.63,-2.169 -4.042,-4.728 -4.894,-7.373c-0.254,-0.788 -1.1,-1.221 -1.888,-0.967c-0.788,0.254 -1.222,1.099 -0.968,1.887Z"/><path d="M231.987,45.154c0.046,0.206 0.107,0.436 0.17,0.553c0.325,0.609 0.692,1.201 1.078,1.773c1.612,2.393 3.473,4.644 5.465,6.728c6.057,6.338 14.575,11.831 23.342,13.656c0.811,0.169 1.606,-0.352 1.775,-1.163c0.168,-0.81 -0.353,-1.605 -1.163,-1.774c-8.19,-1.705 -16.127,-6.871 -21.785,-12.792c-1.876,-1.962 -3.628,-4.078 -5.146,-6.331c-0.301,-0.447 -0.59,-0.907 -0.849,-1.38c-0.054,-0.245 -0.168,-0.723 -0.271,-0.886c-0.344,-0.546 -0.841,-0.844 -1.587,-0.75c-0.822,0.103 -1.405,0.854 -1.301,1.675c0.032,0.259 0.129,0.494 0.272,0.691Zm1.186,0.622l0.048,-0l-0.052,-0l0.004,-0Zm0.065,-0c0.05,-0.002 0.1,-0.005 0.152,-0.012c-0.051,0.007 -0.101,0.01 -0.152,0.012Z"/><path d="M257.884,52.948c-0.151,-0.038 -0.383,-0.098 -0.475,-0.127c-0.482,-0.154 -0.966,-0.307 -1.442,-0.48c-1.486,-0.541 -2.934,-1.161 -4.355,-1.855c-4.477,-2.185 -8.468,-5.223 -12.097,-8.616c-0.204,-0.191 -2.572,-2.704 -2.917,-3.071c-0.171,-0.352 -0.479,-0.637 -0.879,-0.769c-0.786,-0.259 -1.635,0.169 -1.894,0.956c-0.066,0.2 -0.21,0.78 0.251,1.457c0.477,0.7 3.136,3.381 3.39,3.618c3.847,3.596 8.085,6.805 12.829,9.121c1.516,0.74 3.061,1.401 4.647,1.978c0.513,0.186 1.034,0.352 1.553,0.518c0.273,0.087 0.996,0.261 1.1,0.273c1.177,0.132 1.538,-0.832 1.599,-1.014c0.028,-0.084 0.425,-1.434 -0.986,-1.917c-0.107,-0.037 -0.216,-0.061 -0.324,-0.072Zm-1.494,2.179c0.104,0.25 0.334,0.556 0.847,0.731c-0.382,-0.13 -0.676,-0.399 -0.847,-0.731Z"/><path d="M228.972,35.007c-0.015,0.074 -0.078,0.367 -0.153,0.568c-0.304,0.826 -0.904,1.897 -1.67,3.102c-3.179,5.004 -9.171,12.111 -10.967,13.81c-6.66,6.302 -22.083,16.432 -36.845,23.018c-9.647,4.304 -18.99,7.141 -25.337,6.198c-0.818,-0.122 -1.582,0.444 -1.704,1.263c-0.122,0.819 0.445,1.583 1.263,1.704c6.753,1.004 16.735,-1.845 27,-6.425c15.106,-6.739 30.87,-17.13 37.685,-23.578c1.871,-1.771 8.125,-9.167 11.438,-14.382c1.073,-1.69 1.84,-3.178 2.129,-4.215c0.207,-0.74 0.196,-1.349 0.069,-1.79c-0.228,-0.796 -1.06,-1.256 -1.856,-1.027c-0.761,0.219 -1.216,0.991 -1.052,1.754Z"/><path d="M224.407,33.642c0.461,-0.325 0.719,-0.897 0.614,-1.489c-0.145,-0.815 -0.924,-1.359 -1.739,-1.215c-0.295,0.053 -0.925,0.354 -1.456,1.138c-0.797,1.177 -2.105,4.031 -2.356,4.412c-2.902,4.408 -6.184,8.528 -9.746,12.419c-10.564,11.539 -26.191,18.264 -40.747,23.284c-1.396,0.482 -7.284,2.454 -11.459,3.275c-0.992,0.195 -1.878,0.325 -2.563,0.338c-0.244,0.005 -0.444,0.021 -0.577,-0.034c-0.765,-0.317 -1.643,0.047 -1.959,0.812c-0.317,0.765 0.047,1.643 0.812,1.96c0.829,0.343 2.655,0.302 4.866,-0.133c4.319,-0.849 10.413,-2.884 11.858,-3.382c15.013,-5.177 31.086,-12.193 41.981,-24.094c3.67,-4.008 7.05,-8.254 10.039,-12.795c0.25,-0.38 2.169,-3.999 2.432,-4.496Z"/><path d="M157.252,67.201c-0.304,-0.078 -0.634,-0.061 -0.945,0.068c-0.765,0.317 -1.129,1.195 -0.812,1.96c0.111,0.268 0.32,0.577 0.736,0.785c0.12,0.059 0.303,0.128 0.534,0.161c0.258,0.037 0.7,0.022 0.788,0.012c4.279,-0.493 8.654,-2.093 12.731,-3.371c0.536,-0.168 0.46,-0.143 1.064,-0.343c0.343,-0.114 0.686,-0.225 1.029,-0.337c0.518,-0.169 0.421,-0.142 1.032,-0.347c11.509,-3.863 23.584,-10.291 32.063,-19.094c1.983,-2.06 5.893,-8.189 8.724,-12.107c1.038,-1.437 1.858,-2.566 2.36,-2.882c0.701,-0.44 0.913,-1.367 0.472,-2.068c-0.44,-0.701 -1.367,-0.912 -2.068,-0.472c-0.655,0.412 -1.841,1.789 -3.195,3.665c-2.751,3.808 -6.527,9.782 -8.454,11.783c-8.154,8.466 -19.788,14.615 -30.857,18.331c-0.598,0.201 -0.502,0.174 -1.01,0.34c-0.347,0.113 -0.694,0.225 -1.04,0.34c-0.577,0.192 -0.505,0.168 -1.017,0.328c-3.889,1.22 -8.054,2.772 -12.135,3.248Zm0.955,0.753l0.023,0.045l-0.008,-0.017l-0.015,-0.028Zm-0.368,-0.453c0.141,0.116 0.263,0.261 0.355,0.429c-0.079,-0.147 -0.191,-0.298 -0.355,-0.429Z"/><path d="M204.156,30.692c-0.325,0.314 -0.813,0.796 -0.99,1.018c-0.807,1.008 -1.667,1.972 -2.495,2.963c-2.389,2.859 -4.862,5.585 -7.617,8.101c-3.25,2.967 -11.472,7.95 -19.242,11.354c-5.025,2.201 -9.843,3.778 -12.934,3.559c-0.826,-0.059 -1.544,0.564 -1.602,1.39c-0.059,0.826 0.564,1.544 1.39,1.602c3.421,0.243 8.789,-1.367 14.35,-3.804c8.109,-3.552 16.668,-8.789 20.061,-11.886c2.855,-2.606 5.42,-5.429 7.896,-8.393c0.842,-1.006 1.715,-1.987 2.535,-3.011c0.235,-0.294 0.871,-0.839 1.149,-1.143c0.255,-0.278 0.386,-0.531 0.438,-0.668c0.156,-0.411 0.111,-0.753 0.033,-1.004c-0.117,-0.379 -0.35,-0.68 -0.723,-0.884c-0.187,-0.102 -0.64,-0.34 -1.374,-0.065c-0.42,0.157 -0.727,0.483 -0.875,0.871Zm1.62,2.018l-0.011,0.001l0.006,-0l0.005,-0.001Zm0.087,-0.015l-0.02,0.003l0.026,-0.004l0.035,-0.009l-0.041,0.01Zm0.128,-0.033l-0.039,0.011l0.021,-0.006l0.018,-0.005Z"/><path d="M191.952,32.836c-1.268,2.396 -3.568,4.466 -5.56,6.223c-5.984,5.276 -14.128,10.694 -22.034,12.721c-0.802,0.206 -1.286,1.024 -1.081,1.826c0.206,0.801 1.024,1.286 1.826,1.08c8.341,-2.139 16.96,-7.81 23.273,-13.377c2.261,-1.995 4.823,-4.39 6.251,-7.114c-0.023,0.046 -0.096,0.157 -0.096,0.157c0,0 0.369,-1.331 0.056,-1.795c-0.463,-0.687 -1.396,-0.868 -2.082,-0.405c-0.258,0.174 -0.445,0.415 -0.553,0.684Z"/><path d="M111.969,153.036c1.476,-1.304 3.918,-3.471 4.192,-3.766c3.769,-4.047 6.454,-8.904 7.163,-14.445c1.148,-8.978 -1.001,-17.815 -1.499,-26.37c-0.469,-8.064 0.605,-15.874 8.008,-23.277c2.881,-2.881 8.382,-5.392 13.662,-6.4c3.403,-0.649 6.721,-0.692 9.146,0.328c0.763,0.321 1.643,-0.037 1.964,-0.801c0.321,-0.763 -0.038,-1.643 -0.801,-1.964c-2.883,-1.213 -6.824,-1.282 -10.872,-0.509c-5.896,1.125 -12.003,4.008 -15.221,7.225c-8.14,8.141 -9.397,16.705 -8.881,25.572c0.488,8.376 2.642,17.025 1.518,25.815c-0.628,4.91 -3.042,9.196 -6.382,12.781c-0.414,0.445 -4.847,4.103 -5.521,5.005c-0.816,1.094 -0.154,1.964 0.164,2.231c2.158,1.817 6.049,2.472 8.677,2.948c15.299,2.773 30.416,-6.209 35.619,-20.78c3.781,-10.584 0.377,-19.858 -2.493,-30.075c-0.645,-2.297 -1.081,-6.139 -0.142,-9.137c0.525,-1.679 1.504,-3.09 3.316,-3.543c0.804,-0.201 1.293,-1.016 1.092,-1.82c-0.201,-0.803 -1.016,-1.292 -1.819,-1.091c-2.907,0.727 -4.61,2.865 -5.452,5.557c-1.114,3.559 -0.648,8.119 0.117,10.845c2.698,9.605 6.11,18.305 2.556,28.255c-4.714,13.2 -18.4,21.349 -32.259,18.837c-1.691,-0.306 -4.042,-0.603 -5.852,-1.421Z"/><path d="M307.559,154.777c-1.81,0.818 -4.161,1.115 -5.853,1.421c-13.858,2.512 -27.545,-5.638 -32.259,-18.837c-3.553,-9.95 -0.142,-18.65 2.556,-28.255c0.765,-2.724 1.342,-7.156 0.325,-10.61c-0.776,-2.636 -2.421,-4.735 -5.351,-5.468c-0.803,-0.201 -1.618,0.288 -1.819,1.092c-0.201,0.803 0.288,1.618 1.091,1.819c1.79,0.447 2.727,1.794 3.201,3.404c0.858,2.915 0.311,6.653 -0.335,8.951c-2.87,10.218 -6.273,19.492 -2.493,30.076c5.204,14.571 20.321,23.552 35.619,20.78c2.629,-0.476 6.52,-1.131 8.677,-2.948c0.318,-0.267 0.981,-1.137 0.164,-2.231c-0.673,-0.903 -5.106,-4.56 -5.521,-5.005c-3.339,-3.585 -5.754,-7.872 -6.382,-12.781c-1.124,-8.79 1.031,-17.439 1.518,-25.815c0.517,-8.868 -0.74,-17.431 -8.881,-25.572c-3.234,-3.234 -9.037,-6.394 -14.973,-7.239c-4.091,-0.583 -8.233,-0.07 -11.689,2.142c-0.698,0.446 -0.901,1.375 -0.455,2.072c0.446,0.697 1.375,0.901 2.072,0.455c2.85,-1.824 6.277,-2.179 9.649,-1.699c5.258,0.749 10.41,3.525 13.275,6.39c7.402,7.403 8.477,15.213 8.007,23.277c-0.498,8.554 -2.647,17.392 -1.498,26.369c0.708,5.541 3.393,10.399 7.162,14.446c0.275,0.295 2.717,2.462 4.193,3.766Z"/><path d="M110.761,151.93c-0.749,-0.252 -1.573,0.123 -1.87,0.865c-0.308,0.768 0.067,1.642 0.835,1.95c0.548,0.219 1.273,0.261 2.128,0.027c0.819,-0.224 1.833,-0.72 2.925,-1.404c3.833,-2.4 8.833,-7.172 9.662,-8.231c6.079,-7.765 9.094,-16.296 8.607,-26.203c-0.359,-7.31 -2.936,-14.955 -1.32,-22.245c1.308,-5.897 6.596,-10.805 12.413,-12.533c2.934,-0.871 6.911,-1.716 8.921,-1.5c0.823,0.089 1.563,-0.508 1.652,-1.331c0.089,-0.823 -0.508,-1.563 -1.331,-1.652c-2.272,-0.244 -6.781,0.623 -10.097,1.608c-6.819,2.025 -12.954,7.845 -14.487,14.759c-1.673,7.548 0.88,15.471 1.253,23.041c0.45,9.155 -2.356,17.031 -7.973,24.206c-0.762,0.973 -5.372,5.334 -8.892,7.538c-0.684,0.429 -1.32,0.773 -1.87,0.972c-0.192,0.069 -0.485,0.121 -0.556,0.133Z"/><path d="M153.104,84.095c-4.327,0.344 -7.799,2.189 -9.9,4.043c-5.327,4.701 -5.964,10.597 -6.134,15.912c-0.1,3.096 0.465,6.253 0.943,9.403c0.441,2.905 0.812,5.804 0.361,8.641c-1.433,9.018 -7.489,16.721 -13.837,22.95c-1.674,1.642 -4.632,4.383 -7.729,6.056c-1.792,0.968 -3.613,1.621 -5.21,1.222c-0.803,-0.201 -1.618,0.288 -1.819,1.091c-0.2,0.803 0.289,1.618 1.092,1.819c2.241,0.561 4.848,-0.133 7.363,-1.492c3.362,-1.817 6.587,-4.772 8.404,-6.555c6.792,-6.665 13.166,-14.971 14.699,-24.621c0.499,-3.138 0.13,-6.347 -0.358,-9.561c-0.451,-2.968 -1.004,-5.94 -0.911,-8.857c0.146,-4.576 0.536,-9.712 5.121,-13.758c1.728,-1.525 4.594,-3.02 8.153,-3.303c0.825,-0.065 1.442,-0.789 1.376,-1.614c-0.066,-0.825 -0.789,-1.442 -1.614,-1.376Z"/><path d="M153.268,87.765c-1.522,-0.046 -3.296,0.682 -4.895,1.901c-2.235,1.704 -4.114,4.328 -4.568,6.475c-0.981,4.637 -0.669,8.967 -0.075,13.132c0.561,3.937 1.381,7.716 1.46,11.472c0.162,7.768 -3.986,15.835 -10.109,21.868c-6.117,6.026 -14.234,10.049 -22.161,9.592c-0.826,-0.048 -1.536,0.585 -1.583,1.411c-0.048,0.827 0.584,1.536 1.411,1.584c8.725,0.503 17.705,-3.817 24.438,-10.45c6.726,-6.627 11.181,-15.535 11.003,-24.068c-0.081,-3.873 -0.911,-7.772 -1.489,-11.832c-0.546,-3.834 -0.863,-7.82 0.04,-12.088c0.335,-1.582 1.804,-3.455 3.452,-4.711c0.99,-0.754 2.042,-1.316 2.985,-1.287c0.827,0.025 1.52,-0.626 1.545,-1.454c0.025,-0.827 -0.626,-1.52 -1.454,-1.545Z"/><path d="M265.471,89.444c-0.084,0.03 -0.166,0.068 -0.245,0.114c-0.478,0.276 -0.569,0.566 -0.593,0.612c-0.344,0.658 -0.159,1.169 0.082,1.529c0.108,0.162 0.644,0.917 1.684,0.602c0.038,-0.012 0.219,-0.085 0.242,-0.094c0.553,-0.242 1.232,-0.169 1.82,-0.154c1.658,0.043 3.275,0.432 4.732,1.238c4.129,2.283 6.23,7.227 6.911,11.699c0.805,5.276 -0.661,10.038 -2.262,14.774c-1.733,5.123 -3.625,10.22 -3.531,15.793c0.094,5.531 2.629,10.061 6.441,13.55c5.509,5.041 13.727,7.87 20.733,8.385c2.51,0.184 5.927,0.423 8.294,-0.761c0.741,-0.37 1.041,-1.272 0.671,-2.012c-0.37,-0.74 -1.272,-1.041 -2.012,-0.671c-1.918,0.959 -4.7,0.601 -6.734,0.452c-5.339,-0.392 -11.456,-2.235 -16.262,-5.508c-4.619,-3.147 -8.032,-7.631 -8.131,-13.486c-0.089,-5.221 1.75,-9.981 3.373,-14.781c1.753,-5.185 3.267,-10.411 2.386,-16.188c-0.814,-5.341 -3.493,-11.144 -8.425,-13.871c-1.882,-1.041 -3.966,-1.557 -6.108,-1.612c-0.993,-0.025 -2.126,-0.01 -3.066,0.39Zm1.787,2.191c-0.126,0.209 -0.306,0.39 -0.532,0.521c0.346,-0.2 0.478,-0.41 0.532,-0.521Zm0.187,-1.08c0.041,0.199 0.04,0.401 0.001,0.595c0.05,-0.218 0.042,-0.417 -0.001,-0.595Z"/><path d="M266.204,88.856c2.945,0 5.267,-0.275 8.171,0.562c5.831,1.681 8.865,6.295 10.349,11.675c1.57,5.697 1.425,12.258 0.799,17.49c-0.729,6.103 -2.908,12.558 -1.136,18.678c1.192,4.12 3.951,7.357 7.428,10.011c4.898,3.738 11.239,6.305 16.155,8.763c0.74,0.371 1.642,0.07 2.012,-0.671c0.371,-0.74 0.07,-1.642 -0.67,-2.012c-3.993,-1.996 -8.958,-4.051 -13.264,-6.79c-4.032,-2.566 -7.502,-5.722 -8.779,-10.135c-1.66,-5.734 0.55,-11.77 1.233,-17.488c0.667,-5.577 0.788,-12.57 -0.886,-18.643c-1.762,-6.391 -5.484,-11.764 -12.41,-13.761c-3.201,-0.922 -5.756,-0.679 -9.002,-0.679c-0.828,0 -1.5,0.672 -1.5,1.5c0,0.828 0.672,1.5 1.5,1.5Z"/><path d="M266.505,85.348c1.119,-0.12 2.238,-0.258 3.364,-0.345c2.318,-0.179 4.734,-0.147 6.988,0.476c6.898,1.909 11.501,6.855 14.184,13.358c2.725,6.604 2.367,12.08 1.541,17.441c-0.885,5.737 -2.268,11.355 -1.457,17.933c1.019,8.262 7.884,15.724 13.861,21.103c0.615,0.554 1.564,0.504 2.118,-0.111c0.554,-0.615 0.504,-1.565 -0.111,-2.118c-5.483,-4.934 -11.956,-11.663 -12.89,-19.241c-0.774,-6.278 0.6,-11.634 1.444,-17.109c0.902,-5.854 1.243,-11.831 -1.733,-19.043c-3.046,-7.382 -8.326,-12.938 -16.158,-15.104c-2.587,-0.716 -5.359,-0.782 -8.019,-0.576c-1.197,0.093 -2.387,0.24 -3.576,0.366c0.02,-0.002 0.061,-0.005 0.061,-0.005c0,0 -1.339,0.898 -1.398,1.255c-0.041,0.248 -0.173,0.854 0.556,1.428c0.359,0.283 0.809,0.376 1.225,0.292Zm1.198,-1.345c0.042,-0.289 0.061,-0.809 -0.566,-1.303c0.41,0.323 0.606,0.819 0.566,1.303Z"/><path d="M231.237,95.696c0.521,-1.109 0.449,-2.787 0.342,-3.966c-0.075,-0.824 -0.805,-1.433 -1.63,-1.358c-0.824,0.075 -1.433,0.805 -1.358,1.63c0.066,0.716 0.248,1.744 -0.069,2.419c-0.352,0.749 -0.03,1.643 0.719,1.995c0.75,0.352 1.644,0.03 1.996,-0.72Z"/><path d="M190.792,94.421c-0.317,-0.675 -0.134,-1.703 -0.069,-2.419c0.075,-0.825 -0.534,-1.555 -1.358,-1.63c-0.825,-0.075 -1.555,0.534 -1.63,1.358c-0.107,1.179 -0.179,2.857 0.342,3.966c0.352,0.75 1.247,1.072 1.996,0.72c0.749,-0.352 1.072,-1.246 0.719,-1.995Z"/><path d="M235.331,95.842c0.575,-0.937 0.84,-1.877 0.932,-2.843c0.079,-0.824 -0.526,-1.557 -1.35,-1.636c-0.825,-0.078 -1.557,0.527 -1.636,1.351c-0.05,0.529 -0.189,1.047 -0.504,1.561c-0.432,0.705 -0.211,1.63 0.495,2.062c0.706,0.433 1.63,0.211 2.063,-0.495Z"/><path d="M186.541,94.275c-0.315,-0.514 -0.453,-1.032 -0.504,-1.561c-0.078,-0.824 -0.811,-1.429 -1.635,-1.351c-0.825,0.079 -1.43,0.812 -1.351,1.636c0.092,0.966 0.357,1.906 0.932,2.843c0.433,0.706 1.357,0.928 2.063,0.495c0.706,-0.432 0.928,-1.357 0.495,-2.062Z"/><path d="M194.832,146.567c-0.009,0.342 0.098,0.688 0.329,0.976c0.517,0.645 1.462,0.749 2.108,0.232c0.087,-0.07 0.58,-0.429 0.565,-1.239c-0.004,-0.222 -0.12,-1.263 -0.125,-1.396c-0.05,-1.363 -0.144,-2.774 -0.144,-4.129c0,-0.828 -0.672,-1.5 -1.5,-1.5c-0.828,-0 -1.5,0.672 -1.5,1.5c0,1.391 0.094,2.841 0.147,4.241c0.004,0.117 0.103,1.144 0.12,1.315Z"/><path d="M221.576,140.752c-0.004,0.081 -0.007,0.168 -0.006,0.199c0.012,0.509 0.036,1.02 0.061,1.53c0.064,1.367 0.212,2.743 0.212,4.112c0,0.828 0.672,1.5 1.5,1.5c0.828,0 1.5,-0.672 1.5,-1.5c0,-1.416 -0.149,-2.84 -0.216,-4.254c-0.023,-0.485 -0.047,-0.971 -0.058,-1.457c0,0.014 0,0.054 0,0.054c0,-0 -0.019,-0.76 -0.063,-0.899c-0.171,-0.54 -0.527,-0.79 -0.796,-0.917c-0.445,-0.212 -1.098,-0.367 -1.755,0.337c-0.337,0.361 -0.461,0.844 -0.379,1.295Zm2.515,0.81c-0.194,0.188 -0.428,0.313 -0.675,0.374c0.208,-0.046 0.444,-0.148 0.675,-0.374Z"/><path d="M196.993,146.122c-0.154,-0.354 -0.443,-0.65 -0.831,-0.801c-0.72,-0.28 -1.15,-0.029 -1.353,0.087c-0.399,0.229 -0.646,0.573 -0.733,1.029c-0.035,0.18 -0.043,0.397 0.015,0.642c0.051,0.216 0.357,0.706 0.446,0.807c0.621,0.705 1.411,1.336 2.212,1.868c1.745,1.159 3.71,1.897 5.836,2.289c5.513,1.015 11.758,0.685 17.102,-0.922c0.935,-0.282 2.783,-0.775 4.025,-1.519c0.791,-0.475 1.366,-1.072 1.642,-1.705c0.331,-0.759 -0.017,-1.644 -0.776,-1.974c-0.759,-0.331 -1.643,0.017 -1.974,0.775c-0.039,0.09 -0.147,0.139 -0.249,0.21c-0.172,0.121 -0.371,0.23 -0.583,0.333c-1.009,0.486 -2.268,0.802 -2.949,1.007c-4.905,1.475 -10.635,1.776 -15.695,0.844c-1.718,-0.316 -3.31,-0.901 -4.719,-1.837c-0.5,-0.332 -1,-0.709 -1.416,-1.133Zm-1.833,2.025c0.29,0.097 0.526,0.092 0.711,0.05c-0.231,0.04 -0.475,0.026 -0.711,-0.05Z"/><path d="M195.155,145.235c-4.296,1.167 -14.6,4.574 -14.778,4.659c-14.479,6.855 -24.802,21.296 -24.802,21.296c-0.236,0.33 -0.328,0.741 -0.255,1.14c0.072,0.399 0.303,0.751 0.64,0.977c-0,-0 13.887,9.263 16.07,11.923c0.526,0.64 1.472,0.733 2.111,0.208c0.64,-0.526 0.733,-1.472 0.208,-2.112c-1.857,-2.262 -11.795,-9.149 -15.406,-11.618c2.754,-3.518 11.4,-13.745 22.717,-19.103c0.173,-0.081 10.133,-3.348 14.282,-4.475c0.799,-0.218 1.271,-1.043 1.054,-1.841c-0.217,-0.799 -1.042,-1.272 -1.841,-1.054Z"/><path d="M224.969,148.844c0.224,-0.006 0.903,-0.018 1.426,0.043c2.746,0.317 6.952,1.489 7.736,1.784c10.135,3.817 19.818,12.102 26.52,20.481c0.517,0.646 1.462,0.751 2.109,0.234c0.646,-0.517 0.751,-1.462 0.234,-2.108c-7.02,-8.776 -17.191,-17.417 -27.806,-21.414c-0.989,-0.372 -6.909,-2.004 -9.719,-2.049c-1.303,-0.021 -2.168,0.419 -2.518,0.851c-0.521,0.644 -0.421,1.589 0.223,2.11c0.529,0.428 1.262,0.436 1.795,0.068Z"/><path d="M262.47,172.102c0.198,-0.066 0.385,-0.176 0.547,-0.328c0.868,-0.816 0.505,-1.649 0.464,-1.753c-0.133,-0.335 -0.359,-0.597 -0.692,-0.774c-0.208,-0.111 -0.553,-0.251 -1.048,-0.137c-0.079,0.018 -0.331,0.091 -0.669,0.313c-0.883,0.581 -4.498,3.315 -5.011,3.731c-3.642,2.952 -10.079,6.851 -13.292,10.064c-0.585,0.585 -0.585,1.535 0,2.121c0.586,0.585 1.536,0.585 2.122,-0c3.152,-3.153 9.486,-6.957 13.06,-9.855c0.448,-0.364 3.386,-2.59 4.519,-3.382Z"/><path d="M181.937,150.791c-0.184,3.678 -0.41,8.54 -0.678,12.211c-0.909,12.471 -2.173,25.013 -1.782,37.534c0.026,0.827 0.719,1.478 1.546,1.452c0.828,-0.026 1.478,-0.719 1.452,-1.546c-0.388,-12.417 0.875,-24.855 1.776,-37.221c0.27,-3.693 0.497,-8.582 0.682,-12.28c0.041,-0.827 -0.597,-1.532 -1.423,-1.573c-0.827,-0.041 -1.532,0.596 -1.573,1.423Z"/><path d="M189.593,205.837c-0.001,0.062 -0.014,0.552 -0.08,0.85c-0.224,1.012 -0.71,2.105 -0.922,2.672c-1.691,4.519 -5.575,8.608 -9.997,11.146c-1.256,0.72 -2.595,1.32 -3.997,1.768c-0.72,0.23 -1.67,0.316 -1.853,0.342c-1.268,0.182 -1.321,1.399 -1.322,1.48c-0.006,0.828 0.661,1.505 1.489,1.512c0.099,0.001 0.196,-0.008 0.29,-0.026c0.212,-0.025 1.478,-0.184 2.309,-0.45c1.606,-0.514 3.14,-1.199 4.577,-2.024c5.023,-2.883 9.394,-7.564 11.314,-12.697c0.291,-0.779 0.988,-2.412 1.159,-3.739c0.114,-0.882 -0.002,-1.67 -0.319,-2.241c-0.4,-0.725 -1.314,-0.987 -2.038,-0.587c-0.71,0.393 -0.976,1.278 -0.61,1.994Z"/><path d="M225.411,207.319c0.024,-0.15 0.024,-0.306 -0.001,-0.465c-0.131,-0.817 -0.901,-1.374 -1.719,-1.243c-0.455,0.073 -1.118,0.347 -1.275,1.293c-0.025,0.149 -0.037,0.408 0.002,0.73c0.073,0.603 0.328,1.681 0.367,1.835c0.569,2.241 1.446,4.437 2.821,6.41c3.621,5.196 11.356,10.012 18.705,10.012c0.828,-0 1.5,-0.672 1.5,-1.5c-0,-0.828 -0.672,-1.5 -1.5,-1.5c-6.387,-0 -13.097,-4.211 -16.244,-8.727c-1.163,-1.67 -1.893,-3.535 -2.374,-5.432c-0.027,-0.107 -0.217,-1.083 -0.282,-1.413Zm-0.535,0.935c-0.198,0.162 -0.44,0.276 -0.71,0.319c0.256,-0.041 0.498,-0.139 0.71,-0.319Z"/><path d="M174.255,227.854c-0.512,-0.014 -1.018,0.234 -1.311,0.698c-0.442,0.699 -0.233,1.627 0.467,2.069c0.108,0.069 0.411,0.254 0.919,0.236c0.341,-0.012 1.762,-0.252 1.915,-0.276c0.818,-0.128 1.378,-0.896 1.25,-1.714c-0.128,-0.818 -0.896,-1.378 -1.714,-1.25l-1.526,0.237Z"/><path d="M180.288,228.8c0.317,-0.156 0.973,-0.482 1.223,-0.644c0.694,-0.45 0.893,-1.38 0.443,-2.074c-0.45,-0.695 -1.38,-0.894 -2.075,-0.444c-0.286,0.186 -1.094,0.554 -1.203,0.613c-1.068,0.582 -0.761,1.657 -0.735,1.747c0.013,0.043 0.62,1.54 2.097,0.933c0.089,-0.036 0.172,-0.08 0.25,-0.131Z"/><path d="M184.82,225.997c0.165,-0.205 0.491,-0.61 0.61,-0.768c0.502,-0.658 0.374,-1.6 -0.285,-2.102c-0.659,-0.501 -1.601,-0.373 -2.102,0.286c-0.196,0.257 -0.719,0.898 -0.786,0.996c-0.536,0.78 -0.161,1.432 -0.115,1.526c0.034,0.067 1.301,1.605 2.501,0.297c0.068,-0.074 0.127,-0.152 0.177,-0.235Zm-1.423,-2.272c-0.279,0.006 -0.626,0.111 -0.963,0.478c0.261,-0.284 0.606,-0.444 0.963,-0.478Z"/><path d="M189.001,222.137c0.271,-0.234 0.646,-0.569 0.779,-0.73c0.528,-0.638 0.439,-1.584 -0.199,-2.112c-0.638,-0.528 -1.584,-0.439 -2.112,0.199c-0.181,0.218 -0.685,0.576 -0.904,0.794c-0.281,0.281 -0.415,0.555 -0.471,0.715c-0.257,0.738 -0.002,1.271 0.421,1.651c0.194,0.173 0.592,0.49 1.344,0.371c0.526,-0.084 0.945,-0.432 1.142,-0.888Zm-1.517,-2.087l-0.011,0.001l0.039,-0.003l-0.028,0.002Zm0.09,-0.006l-0.019,0.001l0.04,-0.001l-0.021,-0Zm0.075,-0l0.015,0l-0.005,-0l-0.01,-0Z"/><path d="M192.383,218.125c0.257,-0.289 0.614,-0.701 0.735,-0.894c0.442,-0.7 0.232,-1.627 -0.469,-2.069c-0.7,-0.441 -1.627,-0.231 -2.068,0.469c-0.173,0.274 -0.685,0.747 -0.896,1.029c-0.252,0.336 -0.35,0.647 -0.381,0.834c-0.114,0.683 0.155,1.154 0.573,1.479c0.222,0.173 0.647,0.448 1.38,0.279c0.578,-0.133 1.001,-0.585 1.126,-1.127Zm-1.707,-1.815l-0.008,0.002l0.031,-0.005l-0.023,0.003Zm0.088,-0.011l-0.01,0.001l0.022,-0.002l-0.012,0.001Z"/><path d="M195.167,213.896c0.327,-0.497 0.628,-0.981 0.883,-1.522c0.353,-0.749 0.031,-1.644 -0.718,-1.997c-0.749,-0.352 -1.643,-0.031 -1.996,0.718c-0.194,0.411 -0.427,0.775 -0.675,1.152c-0.455,0.692 -0.263,1.623 0.429,2.078c0.691,0.455 1.622,0.263 2.077,-0.429Z"/><path d="M194.81,207.861c-0.425,0.646 -0.288,1.522 0.332,2.005c0.4,0.312 0.884,0.442 1.467,0.216c0.153,-0.059 0.442,-0.187 0.696,-0.544c0.117,-0.165 0.533,-1.139 0.561,-1.224c0.255,-0.787 -0.177,-1.634 -0.965,-1.889c-0.787,-0.256 -1.634,0.176 -1.889,0.964c0.002,-0.007 0.013,-0.04 0.013,-0.04l-0.215,0.512Zm1.235,-0.677c0.329,-0.005 0.662,0.098 0.941,0.316c-0.276,-0.215 -0.589,-0.324 -0.941,-0.316Zm-0.046,0.001l-0.003,0l0.005,0l-0.002,0Z"/><path d="M218.219,209.599c0.015,0.212 0.041,0.449 0.087,0.574c0.288,0.776 1.151,1.173 1.928,0.886c0.703,-0.26 1.095,-0.993 0.949,-1.706c-0.012,-0.225 -0.047,-0.741 -0.122,-0.919c-0.256,-0.614 -0.71,-0.995 -1.495,-0.995c-0.828,-0 -1.5,0.672 -1.5,1.5c0,0.237 0.055,0.461 0.153,0.66Zm1.046,0.81c0.093,0.019 0.193,0.03 0.301,0.03c-0.103,-0 -0.203,-0.011 -0.301,-0.03Z"/><path d="M219.626,213.444c0.097,0.411 0.238,0.875 0.497,1.323c0.413,0.717 1.331,0.964 2.048,0.55c0.717,-0.413 0.964,-1.331 0.551,-2.049c-0.099,-0.171 -0.138,-0.354 -0.175,-0.512c-0.19,-0.805 -0.998,-1.306 -1.804,-1.116c-0.806,0.19 -1.306,0.998 -1.117,1.804Z"/><path d="M224.765,216.756c-0.066,-0.146 -0.158,-0.284 -0.275,-0.407c-0.998,-1.051 -2.002,-0.238 -2.108,-0.147c-0.209,0.178 -0.824,0.769 -0.401,1.747c0.053,0.122 0.576,0.889 0.812,1.158c0.547,0.622 1.495,0.683 2.117,0.137c0.622,-0.546 0.684,-1.495 0.138,-2.117c-0.062,-0.07 -0.19,-0.244 -0.283,-0.371Zm-2.404,1.706l-0.046,-0.047c0.016,0.017 0.031,0.032 0.046,0.047Z"/><path d="M225.364,222.541c0.176,0.195 0.469,0.514 0.598,0.627c0.624,0.544 1.572,0.479 2.116,-0.145c0.545,-0.624 0.48,-1.572 -0.144,-2.116c-0.195,-0.17 -0.626,-0.683 -0.699,-0.745c-0.862,-0.721 -1.645,-0.218 -1.837,-0.082c-0.093,0.065 -1.169,0.874 -0.36,2.106c0.091,0.139 0.202,0.257 0.326,0.355Zm2.332,-1.706l0.001,0.004l-0.001,-0.004Zm-0.013,-0.035c-0.031,-0.078 -0.075,-0.166 -0.138,-0.261c0.056,0.084 0.101,0.171 0.138,0.261Z"/><path d="M228.5,225.548c0.073,0.091 0.147,0.18 0.191,0.221c0.264,0.243 0.534,0.479 0.817,0.694c0.659,0.502 1.601,0.374 2.102,-0.285c0.502,-0.659 0.374,-1.601 -0.285,-2.102c-0.188,-0.143 -0.368,-0.301 -0.545,-0.462c-0.115,-0.14 -0.376,-0.453 -0.465,-0.52c-0.168,-0.126 -0.333,-0.198 -0.474,-0.241c-0.532,-0.163 -0.984,-0.048 -1.366,0.244c-0.215,0.163 -0.533,0.455 -0.596,1.079c-0.057,0.554 0.198,1.069 0.621,1.372Zm2.239,-0.606l-0.002,0.003l0.002,-0.003Zm0.015,-0.034c0.051,-0.117 0.092,-0.259 0.109,-0.43c-0.015,0.152 -0.053,0.296 -0.109,0.43Z"/><path d="M232.882,228.477c0.202,0.176 0.469,0.393 0.635,0.47c0.751,0.349 1.644,0.023 1.993,-0.727c0.326,-0.703 0.062,-1.53 -0.589,-1.919c-0.081,-0.082 -0.332,-0.33 -0.462,-0.432c-0.271,-0.211 -0.552,-0.332 -0.809,-0.383c-0.502,-0.101 -0.995,-0.016 -1.461,0.392c-0.623,0.546 -0.686,1.494 -0.14,2.117c0.226,0.258 0.521,0.42 0.833,0.482Zm1.228,-0.296c0.019,-0.014 0.037,-0.03 0.055,-0.046l-0.055,0.046Z"/><path d="M237.009,230.748c0.068,0.012 0.152,0.027 0.191,0.032c0.204,0.026 0.415,0.046 0.622,0.069c0.823,0.091 1.565,-0.504 1.655,-1.327c0.091,-0.823 -0.504,-1.564 -1.327,-1.655c-0.19,-0.021 -0.384,-0.04 -0.572,-0.063c-0.118,-0.015 -0.391,-0.057 -0.437,-0.058c-0.673,-0.005 -1.002,0.354 -1.129,0.495c-0.435,0.481 -0.603,1.069 -0.17,1.784c0.055,0.09 0.206,0.399 0.712,0.611c0.149,0.063 0.302,0.099 0.455,0.112Zm1.52,-2.047c0.215,0.484 0.15,0.906 -0.079,1.273c0.025,-0.046 0.048,-0.093 0.068,-0.141c0.158,-0.376 0.15,-0.78 0.011,-1.132Zm-0.743,-0.799c0.232,0.111 0.423,0.276 0.564,0.472c-0.079,-0.123 -0.236,-0.319 -0.564,-0.472Z"/><path d="M241.996,228.731c-0.414,-0.202 -0.916,-0.211 -1.356,0.02c-0.513,0.27 -0.688,0.661 -0.765,0.977c-0.084,0.343 -0.063,0.708 0.14,1.08c0.092,0.168 0.261,0.416 0.605,0.607c0.143,0.08 0.699,0.237 0.793,0.261c0.329,0.08 0.656,0.159 0.989,0.223c0.813,0.157 1.6,-0.376 1.756,-1.189c0.156,-0.813 -0.377,-1.6 -1.19,-1.757c-0.283,-0.054 -0.561,-0.123 -0.841,-0.191l-0.131,-0.031Zm0.72,1.939c-0.12,0.282 -0.327,0.528 -0.607,0.695c0.34,-0.198 0.512,-0.454 0.607,-0.695Z"/><path d="M193.446,148.582c-0.018,-0.613 -0.414,-1.178 -1.03,-1.381c-0.365,-0.121 -0.708,-0.097 -1.029,0.032c-0.278,0.112 -0.686,0.34 -0.875,0.95c-0.014,0.046 -0.101,0.335 -0.037,0.819c0.145,1.094 1.11,6.659 1.252,7.109c1.821,5.752 6.469,8.177 11.969,9.385c12.375,2.716 25.533,-4.179 25.533,-17.907c0,-0.828 -0.672,-1.5 -1.5,-1.5c-0.828,-0 -1.5,0.672 -1.5,1.5c0,11.675 -11.365,17.287 -21.89,14.976c-4.418,-0.969 -8.289,-2.739 -9.752,-7.36c-0.132,-0.417 -1.003,-5.583 -1.138,-6.598l-0.003,-0.025Zm-0.966,1.445c-0.311,0.119 -0.663,0.135 -1.004,0.023c0.356,0.117 0.69,0.097 1.004,-0.023Zm0.047,-0.019l-0.033,0.013l0.011,-0.004l0.022,-0.009Zm0.814,-0.832c-0.146,0.372 -0.429,0.656 -0.771,0.813c0.255,-0.112 0.587,-0.326 0.771,-0.813Z"/><path d="M233.547,149.628c-0.078,0.205 -0.167,0.468 -0.18,0.628c-0.382,4.412 0.008,8.987 0.191,13.398c0.524,12.624 2.578,25.441 2.578,38.057c0,0.828 0.673,1.5 1.5,1.5c0.828,0 1.5,-0.672 1.5,-1.5c0,-12.657 -2.055,-25.516 -2.581,-38.181c-0.176,-4.236 -0.561,-8.625 -0.212,-12.865c0.079,-0.196 0.231,-0.597 0.248,-0.796c0.039,-0.462 -0.079,-0.886 -0.403,-1.267c-0.537,-0.631 -1.485,-0.707 -2.115,-0.17c-0.363,0.309 -0.542,0.754 -0.526,1.196Z"/><path d="M181.564,202.39c0.625,-0.033 5.372,-0.283 5.67,-0.277c4.252,0.082 8.495,0.34 12.737,0.621c12.502,0.827 25.114,1.15 37.645,1.15c0.828,0 1.5,-0.672 1.5,-1.5c0,-0.828 -0.672,-1.5 -1.5,-1.5c-12.466,0 -25.011,-0.32 -37.447,-1.143c-4.288,-0.284 -8.578,-0.545 -12.877,-0.627c-0.348,-0.007 -5.324,0.171 -6.252,0.314c-1.094,0.168 -1.339,1.026 -1.375,1.184c-0.086,0.371 -0.045,0.744 0.174,1.111c0.36,0.604 1.08,0.863 1.725,0.667Zm1.032,-1.133c-0.034,0.166 -0.096,0.325 -0.184,0.471c0.097,-0.157 0.153,-0.316 0.184,-0.471Zm0.007,-0.042l-0.005,0.03l0.003,-0.014l0.002,-0.016Zm0.018,-0.387l0.002,0.022l-0.001,-0.014l-0.001,-0.008Zm-0.019,-0.147l0.011,0.067l-0.002,-0.02l-0.009,-0.047Zm-0.147,-0.423c0.07,0.133 0.118,0.272 0.145,0.413c-0.025,-0.138 -0.072,-0.276 -0.145,-0.413Zm-0.004,-0.007c-0.011,-0.022 -0.023,-0.043 -0.036,-0.065l0.036,0.065Z"/><path d="M179.372,200.132c-0.041,0.274 -0.125,0.808 -0.166,1.007c-0.182,0.89 -0.41,1.77 -0.655,2.644c-0.691,2.461 -1.538,4.885 -2.383,7.295c-2.575,7.344 -5.549,14.545 -8.356,21.802c-8.283,21.409 -15.272,43.885 -21.089,66.096c-0.21,0.801 0.27,1.621 1.071,1.831c0.801,0.21 1.621,-0.27 1.831,-1.071c5.789,-22.103 12.743,-44.469 20.985,-65.774c2.819,-7.287 5.803,-14.517 8.389,-21.891c0.866,-2.471 1.733,-4.956 2.44,-7.477c0.264,-0.943 0.51,-1.893 0.706,-2.852c0.081,-0.395 0.238,-1.432 0.247,-1.577c0.074,-1.234 -1.013,-1.532 -1.144,-1.564c-0.059,-0.014 -1.529,-0.272 -1.844,1.236c-0.021,0.099 -0.031,0.198 -0.032,0.295Zm2.641,0.986c0.134,-0.141 0.261,-0.352 0.327,-0.667c-0.053,0.255 -0.168,0.482 -0.327,0.667Z"/><path d="M235.975,203.311c2.439,7.257 5.665,16.775 8.049,24.051c8.106,24.746 13.9,51.343 21.306,76.847c0.231,0.795 1.064,1.253 1.859,1.022c0.795,-0.231 1.253,-1.063 1.022,-1.858c-7.415,-25.537 -13.219,-52.167 -21.336,-76.945c-2.386,-7.283 -5.615,-16.809 -8.056,-24.073c-0.264,-0.785 -1.115,-1.208 -1.9,-0.944c-0.785,0.264 -1.208,1.115 -0.944,1.9Z"/><path d="M149.68,299.4c-0.031,-0.431 -0.246,-0.845 -0.625,-1.116c-0.674,-0.48 -1.612,-0.324 -2.092,0.35c-0.473,0.662 -0.56,1.451 0.056,2.327c0.447,0.634 1.711,1.523 3.696,2.426c9.463,4.302 37.017,11.378 49.888,11.221c0.828,-0.011 1.492,-0.691 1.482,-1.519c-0.01,-0.827 -0.691,-1.491 -1.519,-1.481c-12.541,0.153 -39.388,-6.759 -48.609,-10.952c-0.749,-0.341 -1.374,-0.66 -1.852,-0.956c-0.148,-0.091 -0.305,-0.207 -0.425,-0.3Z"/><path d="M202.814,312.554c0.003,-0.151 0.031,-1.122 0.112,-2.007c0.497,-5.407 2.319,-17.711 2.502,-19.616c1.864,-19.364 3.971,-34.866 4.818,-56.429c0.033,-0.828 -0.612,-1.526 -1.44,-1.558c-0.827,-0.033 -1.525,0.613 -1.557,1.44c-0.845,21.498 -2.949,36.954 -4.807,56.26c-0.184,1.906 -2.006,14.218 -2.503,19.629c-0.094,1.024 -0.14,1.82 -0.129,2.286c0.01,0.442 0.089,0.744 0.152,0.902c0.308,0.768 1.181,1.143 1.95,0.836c0.7,-0.28 1.074,-1.031 0.902,-1.743Z"/><path d="M205.955,264.083c0.442,3.89 4.158,37.264 5.998,49.052c0.128,0.818 0.896,1.379 1.714,1.251c0.818,-0.128 1.378,-0.896 1.25,-1.714c-1.835,-11.758 -5.541,-45.047 -5.981,-48.927c-0.093,-0.823 -0.837,-1.415 -1.66,-1.321c-0.822,0.093 -1.414,0.837 -1.321,1.659Z"/><path d="M213.281,314.396c13.009,1.341 31.511,-0.569 43.387,-4.041c5.378,-1.573 9.429,-3.533 11.228,-5.572c0.547,-0.621 0.488,-1.569 -0.133,-2.117c-0.621,-0.548 -1.569,-0.488 -2.117,0.132c-1.561,1.769 -5.153,3.312 -9.82,4.677c-11.562,3.381 -29.573,5.242 -42.237,3.937c-0.823,-0.085 -1.561,0.514 -1.646,1.338c-0.085,0.823 0.515,1.561 1.338,1.646Z"/><path d="M122.52,220.781c-0.107,-0.073 -0.254,-0.177 -0.358,-0.261c-0.44,-0.356 -0.934,-0.789 -1.488,-1.164c-1.437,-0.973 -3.198,-1.582 -5.382,-0.482c-0.66,0.332 -1.067,0.777 -1.314,1.259c-0.353,0.688 -0.39,1.507 -0.103,2.378c0.294,0.895 1.015,1.885 1.727,2.712c-2.489,1.063 -5.995,3.426 -6.508,8.395c-0.396,3.845 1.623,6.39 4.703,7.762c4.117,1.835 10.286,1.381 14.203,-0.866c23.406,-13.429 39.511,-46.492 45.253,-56.193c0.422,-0.712 0.186,-1.633 -0.526,-2.055c-0.713,-0.422 -1.633,-0.186 -2.055,0.527c-5.622,9.497 -21.252,41.973 -44.165,55.119c-3.169,1.818 -8.158,2.212 -11.489,0.728c-1.885,-0.84 -3.182,-2.36 -2.94,-4.714c0.579,-5.608 6.527,-6.533 6.527,-6.533c0.577,-0.093 1.047,-0.513 1.205,-1.076c0.158,-0.563 -0.025,-1.166 -0.47,-1.545c0,-0 -1.141,-0.973 -1.979,-2.098c-0.151,-0.202 -0.291,-0.408 -0.41,-0.615c-0.09,-0.158 -0.178,-0.399 -0.227,-0.545c1.175,-0.542 2.055,0.132 2.77,0.698c0.585,0.464 1.102,0.925 1.553,1.198c0.359,0.217 0.705,0.347 1.025,0.4c0.751,0.126 1.76,-0.179 2.76,-0.931c1.458,-1.096 3.102,-3.156 3.733,-3.808c7.722,-7.975 25.404,-35.642 31.511,-44.813c0.459,-0.689 0.272,-1.621 -0.417,-2.08c-0.689,-0.459 -1.621,-0.272 -2.08,0.417c-6.046,9.081 -23.524,36.493 -31.169,44.389c-0.505,0.521 -1.689,2.019 -2.874,3.078c-0.313,0.279 -0.799,0.587 -1.016,0.719Z"/><path d="M301.494,221.517c-0.024,0.086 -0.059,0.197 -0.094,0.273c-0.137,0.295 -0.333,0.594 -0.55,0.884c-0.838,1.125 -1.979,2.098 -1.979,2.098c-0.444,0.379 -0.628,0.982 -0.47,1.545c0.158,0.563 0.628,0.983 1.205,1.076c0,0 5.949,0.925 6.527,6.533c0.242,2.354 -1.054,3.874 -2.94,4.714c-3.331,1.484 -8.32,1.09 -11.489,-0.728c-22.913,-13.146 -38.543,-45.622 -44.165,-55.119c-0.421,-0.713 -1.342,-0.949 -2.055,-0.527c-0.712,0.422 -0.948,1.343 -0.526,2.055c5.742,9.701 21.847,42.764 45.254,56.193c3.916,2.247 10.085,2.701 14.202,0.866c3.08,-1.372 5.099,-3.917 4.703,-7.762c-0.513,-4.97 -4.019,-7.332 -6.508,-8.395c0.712,-0.827 1.433,-1.817 1.727,-2.712c0.287,-0.871 0.25,-1.69 -0.103,-2.378c-0.247,-0.482 -0.654,-0.927 -1.314,-1.259c-2.184,-1.1 -3.945,-0.491 -5.382,0.482c-0.554,0.375 -1.048,0.808 -1.488,1.164c-0.104,0.084 -0.251,0.188 -0.358,0.261c-0.217,-0.132 -0.703,-0.44 -1.016,-0.719c-1.185,-1.059 -2.369,-2.557 -2.874,-3.078c-7.645,-7.896 -25.123,-35.308 -31.169,-44.389c-0.459,-0.689 -1.391,-0.876 -2.08,-0.417c-0.689,0.459 -0.876,1.391 -0.417,2.08c6.107,9.171 23.789,36.838 31.511,44.813c0.631,0.652 2.275,2.712 3.733,3.808c1,0.752 2.009,1.057 2.76,0.931c0.32,-0.053 0.666,-0.183 1.025,-0.4c0.451,-0.273 0.968,-0.734 1.553,-1.198c0.716,-0.567 1.599,-1.243 2.777,-0.695Z"/><path d="M173.614,167.679l-0.096,0.904c-0.086,0.881 -0.159,1.763 -0.226,2.645c-0.183,2.411 -0.294,4.825 -0.341,7.242c-0.082,4.229 0.013,10.107 1.565,15.084c1.111,3.563 2.971,6.666 5.91,8.556c0.697,0.448 1.625,0.246 2.073,-0.451c0.448,-0.696 0.246,-1.625 -0.45,-2.072c-2.361,-1.518 -3.776,-4.064 -4.669,-6.926c-1.454,-4.662 -1.506,-10.171 -1.429,-14.132c0.046,-2.361 0.154,-4.719 0.332,-7.074c0.066,-0.861 0.137,-1.722 0.221,-2.581c0.017,-0.172 0.103,-0.947 0.109,-1.08c0.037,-0.811 -0.457,-1.168 -0.517,-1.22c-0.37,-0.32 -0.776,-0.41 -1.194,-0.351c-0.267,0.038 -0.759,0.143 -1.1,0.758c-0.123,0.221 -0.184,0.461 -0.188,0.698Zm2.315,1.288c-0.568,0.378 -1.097,0.331 -1.581,0.031l0.038,0.022c0.501,0.278 1.093,0.238 1.543,-0.053Zm0.1,-0.07l-0.021,0.015l0.014,-0.01l0.007,-0.005Zm0.305,-0.318c-0.082,0.116 -0.178,0.217 -0.285,0.302c0.088,-0.069 0.19,-0.164 0.285,-0.302Zm0.043,-0.063l-0.025,0.039l0.016,-0.024l0.009,-0.015Z"/><path d="M241.252,169.225c0.136,0.762 0.247,1.529 0.344,2.297c0.33,2.587 0.589,5.191 0.685,7.798c0.292,7.997 -0.557,16.57 -5.845,22.916c-0.53,0.636 -0.444,1.583 0.192,2.113c0.636,0.53 1.582,0.444 2.112,-0.192c5.767,-6.92 6.857,-16.227 6.539,-24.947c-0.099,-2.697 -0.366,-5.39 -0.707,-8.067c-0.104,-0.817 -0.222,-1.634 -0.367,-2.446c-0.145,-0.815 -0.925,-1.358 -1.74,-1.212c-0.815,0.145 -1.358,0.925 -1.213,1.74Z"/><path d="M208.062,172.735c-0.403,-0.282 -0.836,-0.521 -1.279,-0.714c-2.5,-1.093 -6.257,-0.482 -7.383,2.383c-0.644,1.639 -0.27,3.468 0.737,4.843c-1.887,0.595 -3.402,2.131 -4.003,3.706c-0.423,1.112 -0.411,2.24 0.046,3.17c0.452,0.922 1.349,1.728 2.929,2.044c0.775,0.155 1.586,0.089 2.365,-0.092l0.001,0.038c0.09,2.449 1.527,4.998 4.177,5.443c2.487,0.418 4.829,-1.536 5.755,-3.64c0.036,-0.082 0.07,-0.164 0.102,-0.247c0.601,0.32 1.242,0.582 1.865,0.835c4.559,1.856 10.418,-3.477 6.199,-7.879c-0.191,-0.2 -0.373,-0.356 -0.552,-0.482c0.658,-0.437 1.337,-0.982 1.812,-1.591c0.805,-1.028 1.107,-2.214 0.584,-3.449c-0.489,-1.155 -1.441,-1.879 -2.605,-2.242c-0.926,-0.288 -1.995,-0.329 -2.953,-0.227c0.057,-0.326 0.083,-0.653 0.066,-0.97c-0.049,-0.883 -0.389,-1.699 -1.144,-2.324c-1.242,-1.027 -2.774,-1.106 -4.2,-0.536c-0.968,0.387 -1.859,1.094 -2.519,1.931Zm4.51,2.332c0.135,-0.262 0.263,-0.572 0.326,-0.888c0.037,-0.188 0.127,-0.398 -0.029,-0.527c-0.477,-0.394 -1.089,-0.163 -1.604,0.157c-0.587,0.365 -1.115,0.922 -1.29,1.504c0.099,0.775 -0.414,1.2 -0.594,1.336c-0.113,0.086 -1.258,0.863 -2.157,-0.35c-0.088,-0.119 -0.158,-0.25 -0.206,-0.388l-0.2,-0.321c-0.345,-0.353 -0.786,-0.623 -1.237,-0.82c-0.629,-0.276 -1.425,-0.365 -2.135,-0.205c-0.537,0.121 -1.039,0.39 -1.254,0.936c-0.313,0.799 0.032,1.684 0.62,2.272c0.23,0.231 0.511,0.405 0.805,0.543c0.398,0.187 0.613,0.465 0.742,0.738c0.158,0.334 0.211,0.717 0.067,1.146c-0.069,0.206 -0.268,0.599 -0.752,0.922c-0.503,0.336 -1.703,0.819 -2.193,0.885c-1.19,0.16 -2.185,1.074 -2.543,2.015c-0.105,0.274 -0.178,0.55 -0.065,0.78c0.117,0.239 0.414,0.342 0.825,0.424c0.623,0.124 1.28,-0.087 1.869,-0.306c0.201,-0.104 1.072,-0.551 1.304,-0.601c0.477,-0.102 0.827,0.02 1.038,0.125c0.243,0.122 0.855,0.486 0.834,1.402c-0.004,0.147 -0.155,0.842 -0.194,1.019c-0.061,0.378 -0.091,0.753 -0.076,1.137c0.04,1.102 0.482,2.395 1.676,2.595c0.495,0.084 0.956,-0.122 1.35,-0.416c0.513,-0.381 0.922,-0.928 1.162,-1.473c0.154,-0.349 0.225,-0.714 0.22,-1.095c-0.006,-0.522 0.192,-0.891 0.455,-1.166c0.232,-0.242 0.545,-0.425 0.944,-0.49c0.263,-0.043 0.61,-0.026 0.953,0.076c0.39,0.115 0.765,0.341 0.944,0.499c0.651,0.572 1.525,0.867 2.328,1.194c0.831,0.338 1.77,0.133 2.479,-0.325c0.555,-0.358 1.006,-0.877 1.012,-1.493c0.005,-0.398 -0.2,-0.801 -0.589,-1.207c-0.235,-0.246 -0.457,-0.264 -0.714,-0.327c-0.268,-0.066 -0.559,-0.139 -0.889,-0.253c-0.324,-0.113 -0.909,-0.424 -1.178,-0.657c-0.276,-0.239 -0.422,-0.497 -0.495,-0.686c-0.156,-0.404 -0.13,-0.776 -0.009,-1.101c0.131,-0.35 0.389,-0.769 1.05,-0.957c0.411,-0.117 0.802,-0.293 1.182,-0.487c0.51,-0.26 1.295,-0.695 1.869,-1.257c0.127,-0.123 0.243,-0.253 0.333,-0.39c0.065,-0.1 0.148,-0.198 0.099,-0.313c-0.183,-0.432 -0.652,-0.558 -1.114,-0.637c-0.735,-0.125 -1.544,-0.039 -2.147,0.118c-0.171,0.069 -1.661,0.673 -1.979,0.734c-0.73,0.14 -1.167,-0.193 -1.339,-0.344c-0.134,-0.118 -0.888,-0.856 -0.308,-1.896c0.095,-0.17 0.686,-1.014 0.804,-1.181Z"/><path d="M208.128,177.72c-0.574,0.089 -1.142,0.361 -1.573,0.75c-0.66,0.594 -1.15,1.303 -1.376,2.171c-0.592,2.265 1.1,4.26 3.328,4.498c1.096,0.117 1.951,-0.193 2.588,-0.699c0.916,-0.728 1.393,-1.936 1.333,-3.153c-0.059,-1.2 -0.637,-2.366 -1.641,-3.034c-0.678,-0.451 -1.561,-0.702 -2.659,-0.533Zm0.457,2.965c0.221,-0.034 0.405,-0.024 0.541,0.066c0.218,0.145 0.293,0.423 0.305,0.684c0.013,0.244 -0.019,0.51 -0.203,0.656c-0.096,0.077 -0.236,0.083 -0.403,0.065c-0.422,-0.045 -0.856,-0.327 -0.744,-0.756c0.075,-0.288 0.264,-0.505 0.482,-0.702c0.006,-0.005 0.014,-0.011 0.022,-0.013Z"/><path d="M112.549,232.393c-0.524,-0.188 -1.132,-0.077 -1.557,0.338c-0.593,0.578 -0.604,1.528 -0.026,2.121c0.328,0.336 1.031,0.67 2.046,0.513c1.554,-0.241 4.715,-1.678 5.433,-2.022c0.747,-0.358 1.062,-1.255 0.704,-2.002c-0.358,-0.746 -1.255,-1.061 -2.001,-0.703c-0.43,0.206 -1.842,0.863 -3.138,1.334c-0.519,0.189 -1.214,0.362 -1.461,0.421Z"/><path d="M114.882,237.171c-0.089,0.018 -0.534,0.11 -0.689,0.161c-0.368,0.121 -0.603,0.318 -0.731,0.457c-0.386,0.418 -0.468,0.88 -0.379,1.335c0.057,0.288 0.196,0.739 0.796,1.069c0.515,0.283 1.125,0.232 1.578,-0.082c0.184,-0.043 0.39,-0.096 0.485,-0.133c0.453,-0.179 0.899,-0.374 1.344,-0.575c1.44,-0.652 2.865,-1.339 4.234,-2.132c0.717,-0.415 0.962,-1.333 0.547,-2.05c-0.415,-0.716 -1.333,-0.961 -2.05,-0.547c-1.283,0.743 -2.619,1.385 -3.969,1.996c-0.385,0.175 -0.773,0.344 -1.166,0.501Zm0.574,0.474c0.09,0.063 0.171,0.133 0.243,0.211c-0.065,-0.073 -0.144,-0.144 -0.243,-0.211Zm-0.06,-0.039l0.059,0.038l-0.047,-0.031l-0.012,-0.007Z"/><path d="M306.761,233.145l-0.108,-0.04c-0.31,-0.111 -0.623,-0.214 -0.927,-0.34c-0.907,-0.375 -1.802,-0.823 -2.622,-1.363c-0.691,-0.455 -1.622,-0.264 -2.077,0.427c-0.456,0.692 -0.264,1.623 0.427,2.078c0.978,0.644 2.044,1.183 3.125,1.63c0.348,0.144 0.705,0.264 1.059,0.391c0.209,0.075 0.701,0.236 0.878,0.254c0.229,0.022 0.413,-0.007 0.546,-0.04c0.718,-0.184 1.023,-0.664 1.118,-1.204c0.044,-0.251 0.109,-0.738 -0.368,-1.284c-0.277,-0.317 -0.66,-0.489 -1.051,-0.509Zm-1.477,2.037c0.043,0.12 0.112,0.251 0.221,0.388c-0.095,-0.12 -0.168,-0.251 -0.221,-0.388Z"/><path d="M302.735,238.04l-0.151,-0.082c-0.307,-0.166 -0.597,-0.375 -0.885,-0.573c-0.891,-0.612 -1.751,-1.318 -2.383,-2.204c-0.48,-0.675 -1.418,-0.832 -2.092,-0.352c-0.674,0.481 -0.832,1.418 -0.351,2.092c0.834,1.171 1.95,2.127 3.127,2.936c0.375,0.258 0.759,0.524 1.159,0.741c0.222,0.119 0.743,0.384 0.939,0.431c0.228,0.056 0.419,0.053 0.559,0.036c0.709,-0.081 1.079,-0.493 1.258,-0.998c0.088,-0.248 0.228,-0.719 -0.152,-1.335c-0.236,-0.383 -0.617,-0.623 -1.028,-0.692Zm-1.735,1.679c0.016,0.151 0.063,0.324 0.167,0.513c-0.088,-0.163 -0.144,-0.337 -0.167,-0.513Z"/></g></svg>