<?xml version="1.0" encoding="UTF-8" standalone="no"?><!DOCTYPE svg PUBLIC "-//W3C//DTD SVG 1.1//EN" "http://www.w3.org/Graphics/SVG/1.1/DTD/svg11.dtd"><svg width="100%" height="100%" viewBox="0 0 420 420" version="1.1" xmlns="http://www.w3.org/2000/svg" xmlns:xlink="http://www.w3.org/1999/xlink" xml:space="preserve" xmlns:serif="http://www.serif.com/" style="fill-rule:evenodd;clip-rule:evenodd;stroke-linejoin:round;stroke-miterlimit:2;"><rect id="POSTEL" x="0" y="0" width="419.528" height="419.528" style="fill:none;"/><g><g><path d="M267.644,226.132c-0.081,0.146 -0.139,0.308 -0.168,0.483c-0.135,0.816 0.418,1.589 1.235,1.724c0.261,0.044 1.005,0.13 1.521,-0.686c0.043,-0.067 0.188,-0.425 0.33,-0.706c1.011,-1.997 2.444,-3.852 3.865,-5.567c1.431,-1.729 5.41,-5.705 9.425,-8.474c1.534,-1.058 3.069,-1.941 4.462,-2.418c0.757,-0.259 1.456,-0.402 2.069,-0.323c0.821,0.107 1.574,-0.474 1.681,-1.295c0.106,-0.821 -0.474,-1.574 -1.295,-1.68c-1.775,-0.23 -4.07,0.506 -6.451,1.871c-4.932,2.828 -10.419,8.252 -12.202,10.406c-1.56,1.884 -3.12,3.932 -4.231,6.125c-0.081,0.16 -0.194,0.428 -0.241,0.54Z"/><path d="M276.662,231.324l0.254,-0.455c0.472,-0.7 0.997,-1.362 1.528,-2.018c1.494,-1.844 3.086,-3.609 4.783,-5.268c2.607,-2.548 6.062,-6.077 9.817,-8.682c2.346,-1.627 4.801,-2.901 7.236,-3.237c0.82,-0.114 1.393,-0.871 1.28,-1.691c-0.113,-0.821 -0.871,-1.394 -1.691,-1.281c-2.863,0.396 -5.777,1.831 -8.535,3.744c-3.899,2.705 -7.498,6.357 -10.204,9.002c-1.78,1.74 -3.45,3.591 -5.017,5.525c-0.595,0.735 -1.18,1.477 -1.707,2.263c-0.031,0.045 -0.571,1.031 -0.622,1.226c-0.149,0.562 0.034,0.945 0.137,1.13c0.271,0.49 0.69,0.759 1.276,0.774c0.678,0.018 1.264,-0.418 1.465,-1.032Zm-1.303,-1.962c0.583,0.047 1.068,0.427 1.273,0.945c-0.219,-0.621 -0.669,-0.907 -1.273,-0.945Z"/><path d="M283.387,235.25c0.093,-0.208 0.214,-0.474 0.27,-0.586c0.361,-0.721 0.785,-1.417 1.222,-2.094c1.251,-1.934 2.619,-3.784 4.132,-5.521c2.332,-2.675 6.711,-6.499 11.296,-9.076c2.898,-1.629 5.868,-2.782 8.425,-2.685c0.827,0.032 1.524,-0.614 1.556,-1.441c0.031,-0.828 -0.614,-1.525 -1.442,-1.556c-3.027,-0.116 -6.577,1.138 -10.008,3.067c-4.909,2.758 -9.593,6.856 -12.089,9.72c-1.607,1.844 -3.061,3.809 -4.389,5.863c-0.497,0.769 -0.974,1.56 -1.385,2.378c-0.139,0.277 -0.435,0.907 -0.547,1.23c-0.109,0.315 -0.123,0.566 -0.118,0.692c0.024,0.7 0.41,1.058 0.731,1.252c0.243,0.147 1.082,0.618 1.948,-0.314c0.246,-0.265 0.378,-0.594 0.398,-0.929Zm-2.547,-1.162c-0.016,0.015 -0.032,0.032 -0.049,0.049l0.049,-0.049Zm0.039,-0.037l-0.013,0.012l0.017,-0.016l-0.004,0.004Z"/><path d="M290.762,239.02c0.294,-0.548 1.231,-2.285 1.316,-2.403c1.454,-2.029 3.089,-3.956 4.854,-5.719c2.282,-2.28 6.59,-6.095 11.021,-8.604c2.721,-1.542 5.468,-2.63 7.766,-2.332c0.821,0.106 1.574,-0.474 1.68,-1.295c0.107,-0.821 -0.473,-1.574 -1.294,-1.68c-2.835,-0.368 -6.274,0.795 -9.631,2.696c-4.685,2.654 -9.248,6.681 -11.662,9.092c-1.881,1.879 -3.624,3.933 -5.172,6.094c-0.114,0.159 -1.203,1.959 -1.638,2.929c-0.214,0.476 -0.29,0.868 -0.295,1.063c-0.016,0.659 0.299,1.048 0.592,1.278c0.296,0.233 0.685,0.394 1.211,0.306c0.715,-0.119 1.227,-0.727 1.252,-1.425Zm-0.478,-1.152c-0.287,-0.317 -0.694,-0.478 -1.269,-0.381c0.477,-0.08 0.94,0.075 1.269,0.381Z"/><path d="M293.223,243.412c-0.171,0.284 -0.249,0.626 -0.199,0.98c0.115,0.82 0.874,1.392 1.694,1.276c0.086,-0.012 0.763,-0.078 1.166,-0.868c0.168,-0.329 0.97,-2.16 1.022,-2.278c1.298,-2.158 2.898,-4.146 4.616,-5.981c2.573,-2.749 7.412,-6.259 12.372,-8.439c3.165,-1.39 6.374,-2.26 9.042,-1.914c0.821,0.107 1.574,-0.473 1.68,-1.295c0.106,-0.821 -0.474,-1.573 -1.295,-1.68c-3.132,-0.406 -6.919,0.511 -10.634,2.143c-5.359,2.355 -10.575,6.165 -13.355,9.135c-1.875,2.003 -3.615,4.178 -5.028,6.535c-0.07,0.118 -0.971,2.139 -1.081,2.386Z"/><path d="M120.828,242.324c-0.566,0.432 -0.76,1.221 -0.423,1.877c0.072,0.14 1.21,1.448 2.396,0.386c0.302,-0.269 1.904,-1.912 2.014,-2.025c1.353,-1.059 2.793,-2.011 4.246,-2.927c4.527,-2.851 9.219,-5.448 14.038,-7.772c12.761,-6.154 28.066,-12.241 41.944,-15.226c0.809,-0.174 1.325,-0.973 1.151,-1.782c-0.174,-0.81 -0.973,-1.325 -1.782,-1.151c-14.099,3.033 -29.651,9.205 -42.616,15.457c-4.92,2.373 -9.711,5.025 -14.334,7.936c-1.56,0.983 -3.104,2.008 -4.555,3.149c-0.083,0.065 -1.838,1.835 -2.079,2.078Zm1.068,-0.3c0.486,0.051 0.938,0.339 1.178,0.806c-0.226,-0.439 -0.591,-0.754 -1.178,-0.806Z"/><path d="M123.303,253.992l-0.013,0.014c-0.308,0.348 -0.399,0.73 -0.374,1.096c0.025,0.377 0.189,0.809 0.621,1.119c0.231,0.167 0.71,0.355 1.202,0.261c0.314,-0.051 0.513,-0.191 0.64,-0.313c0.08,-0.071 0.158,-0.154 0.232,-0.252l0.012,-0.016l0.016,-0.023l0.011,-0.015c0.62,-0.881 1.649,-1.498 2.502,-2.121c2.179,-1.593 4.424,-3.103 6.687,-4.574c6.207,-4.034 12.569,-7.781 19.117,-11.234c14.674,-7.739 41.853,-21.057 61.325,-21.264c0.827,-0.009 1.492,-0.688 1.484,-1.516c-0.009,-0.828 -0.689,-1.492 -1.516,-1.484c-19.894,0.212 -47.701,13.704 -62.693,21.61c-6.628,3.496 -13.069,7.289 -19.352,11.373c-2.309,1.5 -4.599,3.042 -6.823,4.667c-1.057,0.773 -2.271,1.6 -3.078,2.672Zm2.158,2.09c-0.305,0.294 -0.732,0.456 -1.186,0.411c0.178,0.018 0.331,0.012 0.464,-0.011c0.217,-0.04 0.437,-0.136 0.64,-0.313l0.027,-0.027c0.014,-0.014 0.027,-0.028 0.041,-0.043l0.014,-0.017Z"/><path d="M126.618,265.806c0.165,-0.165 0.466,-0.46 0.73,-0.691c1.236,-1.078 3.07,-2.473 3.285,-2.623c2.582,-1.803 5.254,-3.472 7.936,-5.12c7.54,-4.634 15.182,-9.097 23.034,-13.185c21.689,-11.292 55.039,-26.784 80.718,-23.905c0.823,0.092 1.566,-0.501 1.658,-1.324c0.092,-0.823 -0.501,-1.565 -1.324,-1.658c-26.209,-2.938 -60.3,12.7 -82.438,24.226c-7.914,4.121 -15.618,8.619 -23.219,13.29c-2.732,1.678 -5.453,3.38 -8.082,5.216c-0.232,0.162 -2.208,1.661 -3.54,2.822c-0.709,0.619 -1.243,1.187 -1.425,1.486c-0.645,1.066 -0.107,1.807 0.364,2.157c0.665,0.493 1.605,0.354 2.099,-0.311c0.088,-0.119 0.156,-0.247 0.204,-0.38Zm-0.453,-1.67c0.114,0.094 0.21,0.202 0.289,0.319c-0.078,-0.119 -0.174,-0.225 -0.289,-0.319Zm-0.002,-0.002c-0.02,-0.016 -0.04,-0.031 -0.06,-0.047l0.06,0.047Z"/><path d="M133.039,270.746c-0.072,0.052 -0.14,0.113 -0.203,0.18c-0.46,0.491 -0.408,0.945 -0.406,1.05c0,0.038 1.102,2.227 2.508,1.092c0.429,-0.346 2.861,-2.359 4.478,-3.601c2.66,-2.043 5.416,-3.964 8.178,-5.866c7.793,-5.368 15.883,-10.291 24.218,-14.773c22.772,-12.245 47.783,-21.001 73.715,-22.725c4.284,-0.285 9.14,-0.856 13.418,-0.096c0.815,0.145 1.595,-0.399 1.74,-1.214c0.144,-0.815 -0.4,-1.595 -1.215,-1.739c-4.509,-0.802 -9.628,-0.245 -14.142,0.055c-26.359,1.753 -51.79,10.63 -74.937,23.077c-8.431,4.534 -16.616,9.515 -24.499,14.944c-2.805,1.932 -5.602,3.883 -8.303,5.958c-1.637,1.257 -4.101,3.295 -4.535,3.646l-0.015,0.012Zm2.391,1.19c0.004,0.345 -0.111,0.692 -0.346,0.974c0.387,-0.454 0.349,-0.863 0.346,-0.974Zm-0.768,-1.294c0.444,0.232 0.724,0.61 0.762,1.181c-0.03,-0.356 -0.187,-0.703 -0.468,-0.966c-0.091,-0.085 -0.19,-0.157 -0.294,-0.215Zm-0.196,-0.091c-0.18,-0.078 -0.617,-0.237 -1.188,0.05c0.372,-0.179 0.804,-0.197 1.188,-0.05Z"/><path d="M145.528,280.283c0.046,-0.06 0.356,-0.454 0.642,-0.743c0.782,-0.794 2.007,-1.85 3.534,-3.074c6.109,-4.9 16.947,-12.392 24.221,-16.519c22.923,-13.006 48.135,-21.677 74.368,-25.667c3.673,-0.559 9.999,-1.567 15.805,-1.733c3.676,-0.105 7.136,0.103 9.479,1.066c0.766,0.315 1.643,-0.051 1.958,-0.817c0.315,-0.766 -0.052,-1.643 -0.817,-1.958c-2.649,-1.088 -6.551,-1.409 -10.706,-1.29c-5.94,0.17 -12.413,1.194 -16.17,1.766c-26.596,4.045 -52.157,12.837 -75.397,26.024c-8.461,4.8 -21.657,14.075 -26.994,18.771c-1.621,1.427 -2.553,2.589 -2.742,3.149c-0.263,0.784 0.16,1.636 0.944,1.899c0.762,0.256 1.585,-0.134 1.875,-0.874Z"/><path d="M153.429,287.676c0.603,-0.532 5.149,-4.537 6.074,-5.276c7.794,-6.225 16.072,-11.836 24.619,-16.971c23.335,-14.023 49.319,-23.869 76.682,-25.214c8.306,-0.408 17.978,-0.983 26.09,1.52c0.792,0.244 1.632,-0.2 1.876,-0.991c0.244,-0.791 -0.2,-1.632 -0.991,-1.876c-8.434,-2.602 -18.487,-2.074 -27.122,-1.649c-27.859,1.369 -54.323,11.362 -78.08,25.638c-8.661,5.204 -17.048,10.891 -24.946,17.199c-1.084,0.866 -5.869,4.808 -6.672,5.884c-0.602,0.807 -0.385,1.515 -0.249,1.793c0.365,0.743 1.265,1.05 2.008,0.685c0.33,-0.162 0.574,-0.429 0.711,-0.742Zm0.064,-1.036l0.008,0.025l-0.004,-0.013l-0.004,-0.012Zm-0.027,-0.082l0.012,0.034l-0.008,-0.024l-0.004,-0.01Zm-0.029,-0.075l0.012,0.032l-0.01,-0.027l-0.002,-0.005Z"/><path d="M167.354,291.744c5.065,-6.526 18.441,-15.24 25.04,-18.948c23.337,-13.114 48.7,-21.654 75.362,-24.334c8.119,-0.816 18.448,-2.39 26.566,-0.427c0.804,0.195 1.616,-0.301 1.81,-1.105c0.195,-0.805 -0.301,-1.616 -1.105,-1.811c-8.424,-2.037 -19.145,-0.489 -27.571,0.358c-27.075,2.722 -52.833,11.387 -76.532,24.704c-6.848,3.848 -20.683,12.951 -25.94,19.724c-0.507,0.654 -0.388,1.597 0.266,2.105c0.654,0.507 1.597,0.388 2.104,-0.266Z"/><path d="M185.142,291.379c0.703,-1.767 2.906,-3.858 5.748,-6.087c7.161,-5.615 18.439,-11.707 23.68,-14.204c19.7,-9.385 40.975,-15.2 62.826,-16.124c2.789,-0.118 7.782,-0.587 12.284,-0.551c2.795,0.022 5.392,0.215 7.036,0.891c0.766,0.315 1.643,-0.051 1.958,-0.817c0.314,-0.766 -0.052,-1.643 -0.818,-1.958c-1.907,-0.784 -4.909,-1.09 -8.152,-1.116c-4.557,-0.037 -9.612,0.435 -12.435,0.554c-22.255,0.941 -43.925,6.854 -63.989,16.413c-5.367,2.556 -16.909,8.802 -24.241,14.551c-3.37,2.643 -5.851,5.243 -6.684,7.339c-0.307,0.769 0.069,1.642 0.839,1.948c0.769,0.306 1.642,-0.07 1.948,-0.839Z"/><path d="M205.158,288.895c3.918,-4.884 16.353,-11.171 21.244,-13.505c15.94,-7.604 43.15,-13.193 63.174,-12.105c0.827,0.045 1.534,-0.59 1.579,-1.416c0.045,-0.827 -0.59,-1.535 -1.416,-1.58c-20.486,-1.112 -48.322,4.614 -64.629,12.394c-5.149,2.456 -18.167,9.192 -22.292,14.335c-0.518,0.646 -0.414,1.591 0.231,2.109c0.646,0.518 1.591,0.414 2.109,-0.232Z"/><path d="M229.021,284.94c0.4,-0.246 1.804,-1.107 1.917,-1.17c2.474,-1.387 5.11,-2.474 7.736,-3.511c0.322,-0.127 0.644,-0.253 0.967,-0.377c12.387,-4.754 27.4,-7.81 40.45,-7.093c0.827,0.045 1.535,-0.589 1.58,-1.416c0.046,-0.826 -0.589,-1.534 -1.415,-1.58c-13.449,-0.738 -28.925,2.389 -41.689,7.288c-0.333,0.127 -0.664,0.257 -0.995,0.388c-2.751,1.086 -5.51,2.231 -8.101,3.684c-0.173,0.097 -1.976,1.065 -2.619,1.673c-0.733,0.695 -0.723,1.472 -0.585,1.89c0.26,0.787 1.109,1.214 1.895,0.954c0.386,-0.127 0.685,-0.396 0.859,-0.73Zm0.142,-0.984l0.004,0.021l-0.001,-0.008l-0.003,-0.013Zm-0.022,-0.095l0.007,0.028l-0.004,-0.018l-0.003,-0.01Z"/><path d="M118.408,235.314c0.403,-0.247 5.166,-3.153 5.431,-3.283c4.13,-2.02 8.404,-3.703 12.734,-5.245c12.724,-4.535 26.151,-7.887 39.534,-9.712c38.946,-5.308 95.386,1.702 121.449,35.174c0.509,0.653 1.452,0.77 2.105,0.262c0.653,-0.509 0.771,-1.452 0.262,-2.105c-26.676,-34.26 -84.358,-41.737 -124.221,-36.303c-13.587,1.852 -27.219,5.254 -40.136,9.858c-4.436,1.58 -8.814,3.306 -13.046,5.376c-0.296,0.145 -4.995,2.932 -5.859,3.536c-0.679,0.475 -0.748,1.058 -0.76,1.152c-0.08,0.65 0.174,1.116 0.664,1.439c0.587,0.388 1.348,0.308 1.843,-0.149Zm-0.126,-2.309c0.409,0.301 0.623,0.776 0.608,1.254c0.03,-0.55 -0.195,-0.959 -0.608,-1.254Z"/><path d="M275.838,207.632c-4.252,1.33 -7.456,3.471 -10.229,7.275c-1.305,1.791 -2.341,3.72 -3.16,5.779c-0.393,0.989 -0.808,2.041 -0.906,3.111c-0.004,0.048 -0.002,0.462 0.01,0.532c0.167,0.99 0.942,1.18 1.209,1.229c0.358,0.065 0.751,0.026 1.145,-0.257c0.417,-0.298 0.635,-0.772 0.626,-1.249c0.075,-0.78 0.417,-1.536 0.704,-2.257c0.725,-1.824 1.64,-3.534 2.797,-5.121c2.61,-3.58 5.681,-5.415 9.89,-6.52c0.306,-0.08 0.732,-0.362 0.923,-0.649c0.286,-0.429 0.423,-1.128 0.157,-1.98c-0.051,-0.165 -0.119,-0.346 -0.194,-0.534c0.253,0.36 0.481,0.734 0.699,1.041c0.693,0.972 1.536,1.378 2.21,1.328c11.764,-0.867 26.116,3.756 35.215,11.114c1.109,0.897 3.981,2.968 5.996,5.279c0.602,0.691 1.127,1.4 1.473,2.105c0.258,0.525 0.426,1.034 0.365,1.523c-0.102,0.821 0.482,1.571 1.304,1.674c0.821,0.102 1.571,-0.482 1.674,-1.304c0.181,-1.455 -0.404,-3.074 -1.504,-4.638c-2.084,-2.966 -6.029,-5.845 -7.422,-6.972c-9.513,-7.692 -24.444,-12.559 -36.813,-11.806c-0.176,-0.25 -0.469,-0.67 -0.679,-0.975c-0.905,-1.322 -2.149,-2.36 -3.655,-2.149c-1.077,0.15 -1.644,0.644 -1.968,1.179c-0.319,0.524 -0.419,1.184 -0.284,1.915c0.078,0.423 0.243,0.885 0.417,1.327Zm-11.35,16.084l0.001,0.004l-0.001,-0.001l-0,-0.003Zm-0.548,-0.829c0.156,0.114 0.413,0.338 0.532,0.772c-0.046,-0.157 -0.119,-0.31 -0.22,-0.451c-0.089,-0.125 -0.195,-0.232 -0.312,-0.321Zm-0.133,-0.09c-0.51,-0.321 -1.061,-0.355 -1.648,0.066c0.502,-0.36 1.151,-0.365 1.648,-0.066Z"/><path d="M55.637,304.996c0.005,-16.148 -0.471,-32.291 -0.54,-48.44c-0.024,-5.61 -1.199,-23.911 -0.365,-36.778c0.337,-5.197 0.933,-9.471 2.197,-11.442c1.644,-2.562 4.237,-3.956 7.129,-4.618c4.658,-1.065 10.089,-0.264 14.096,1.005c16.153,5.115 32.111,20.723 39.232,35.875c2.81,5.981 4.345,17.236 5.154,30.502c1.919,31.451 -0.429,74.064 -1.101,85.894c-0.047,0.827 0.586,1.536 1.413,1.583c0.826,0.047 1.536,-0.586 1.582,-1.413c0.675,-11.879 3.027,-54.667 1.101,-86.247c-0.839,-13.748 -2.521,-25.397 -5.434,-31.595c-7.443,-15.837 -24.157,-32.112 -41.041,-37.459c-4.454,-1.411 -10.494,-2.254 -15.671,-1.069c-3.664,0.838 -6.902,2.676 -8.985,5.922c-1.426,2.223 -2.286,7.006 -2.666,12.868c-0.838,12.939 0.335,31.343 0.359,36.984c0.069,16.145 0.545,32.284 0.54,48.427c-0,0.828 0.671,1.501 1.499,1.501c0.828,0 1.501,-0.672 1.501,-1.5Z"/><path d="M61.397,309.798c-0.205,-0.162 -0.421,-0.34 -0.645,-0.525c-2.103,-1.75 -4.677,-4.318 -4.97,-4.701c-0.503,-0.658 -1.445,-0.784 -2.103,-0.281c-0.657,0.503 -0.783,1.445 -0.28,2.103c0.321,0.42 3.126,3.264 5.435,5.185c1.1,0.915 2.115,1.617 2.746,1.869c0.523,0.209 0.957,0.173 1.314,0.051c0.486,-0.166 0.929,-0.54 1.17,-1.211c0.121,-0.336 0.192,-0.825 0.234,-1.35c0.028,-0.346 -0.013,-0.732 0.104,-0.955c0.565,-1.077 2.19,-1.136 3.597,-0.346c18.616,10.444 28.056,19.596 30.384,29.916c0.469,2.078 0.488,5.069 0.724,7.58c0.187,2.003 0.551,3.734 1.184,4.735c0.508,0.801 1.954,2.168 3.77,3.649c3.887,3.169 9.478,7.052 9.478,7.052c0.425,0.295 0.972,0.35 1.447,0.146c0,-0 5.38,-2.315 8.354,-3.146c0.798,-0.223 1.264,-1.051 1.042,-1.849c-0.223,-0.797 -1.051,-1.263 -1.849,-1.041c-2.402,0.671 -6.308,2.265 -7.957,2.953c-1.581,-1.113 -5.618,-3.993 -8.619,-6.44c-1.484,-1.21 -2.717,-2.275 -3.131,-2.929c-0.453,-0.715 -0.598,-1.979 -0.732,-3.41c-0.248,-2.637 -0.292,-5.777 -0.784,-7.961c-2.461,-10.903 -12.173,-20.837 -31.843,-31.872c-3.069,-1.722 -6.489,-0.78 -7.721,1.568c-0.165,0.314 -0.281,0.74 -0.349,1.21Z"/><path d="M124.387,277.225c-0.054,0.019 -0.107,0.04 -0.16,0.065c-0.546,0.261 -0.657,0.587 -0.67,0.611c-0.33,0.568 -0.224,1.046 -0.059,1.394c0.153,0.325 0.483,0.837 1.317,0.859c0.049,0.001 0.257,0.02 0.566,-0.095c0.029,-0.011 0.198,-0.082 0.274,-0.114c2.668,-0.87 5.688,-1.131 8.451,-0.682c5.6,0.91 9.953,4.261 13.508,8.287c3.132,3.547 9.103,5.516 16.996,6.148c17.385,1.392 44.408,-3.387 68.938,-8.355c21.022,-4.258 40.524,-7.073 49.466,-11.116c10.648,-4.813 16.851,-12.347 22.236,-19.276c3.419,-4.398 6.485,-8.543 10.267,-11.455c11.965,-9.214 23.981,-8.427 37.292,-10.892c0.814,-0.151 1.353,-0.934 1.202,-1.748c-0.151,-0.814 -0.934,-1.353 -1.748,-1.202c-13.789,2.554 -26.182,1.921 -38.576,11.465c-3.969,3.055 -7.218,7.376 -10.805,11.991c-5.122,6.59 -10.978,13.806 -21.104,18.384c-8.824,3.989 -28.081,6.707 -48.825,10.908c-20.804,4.214 -43.417,8.318 -60.286,8.535c-6.591,0.084 -12.286,-0.419 -16.609,-1.782c-2.665,-0.841 -4.786,-1.995 -6.195,-3.591c-4.007,-4.538 -8.963,-8.236 -15.276,-9.262c-3.243,-0.527 -6.79,-0.22 -9.917,0.808l-0.283,0.115Zm1.414,2.598c-0.065,0.051 -0.135,0.098 -0.21,0.138c0.097,-0.052 0.165,-0.1 0.21,-0.138Zm0.555,-0.954c-0.028,0.187 -0.092,0.367 -0.187,0.53c0.114,-0.185 0.168,-0.366 0.187,-0.53Zm-0.778,-1.549c0.18,0.096 0.342,0.229 0.472,0.394c-0.111,-0.153 -0.263,-0.292 -0.472,-0.394Z"/><path d="M275.242,273.244c-0.271,0.08 -0.521,0.238 -0.717,0.47c-0.843,1 -0.186,1.799 -0.031,1.984c0.236,0.281 0.684,0.666 1.463,0.506c0.096,-0.02 0.291,-0.073 0.527,-0.205c0.151,-0.085 0.44,-0.289 0.583,-0.356c0.788,-0.371 1.575,-0.754 2.354,-1.144c2.105,-1.052 3.988,-2.458 5.727,-4.035c5.193,-4.713 9.71,-9.74 13.294,-15.698c8.408,-13.977 17.679,-20.682 33.638,-24.094c3.458,-0.74 10.517,-1.863 12.681,-2.148c0.83,0.609 1.961,1.123 3.193,1.581c1.816,0.674 3.895,1.217 5.022,2.169c0.632,0.535 1.579,0.456 2.114,-0.177c0.534,-0.632 0.455,-1.579 -0.177,-2.114c-1.14,-0.963 -3.043,-1.668 -4.927,-2.335c-1.462,-0.518 -2.924,-0.977 -3.687,-1.74c-0.044,-0.043 -0.541,-0.521 -1.516,-0.41c-1.61,0.184 -9.562,1.434 -13.33,2.24c-16.88,3.61 -26.689,10.698 -35.582,25.482c-3.432,5.705 -7.767,10.51 -12.739,15.022c-1.536,1.394 -3.193,2.644 -5.053,3.574c-0.759,0.379 -1.525,0.752 -2.292,1.114c-0.11,0.052 -0.36,0.201 -0.545,0.314Zm1.652,2.306l-0.013,0.018l0.007,-0.008l0.006,-0.01Z"/><path d="M234.187,216.736c3.108,-8.595 9.323,-12.688 16.416,-14.904c7.445,-2.325 15.836,-2.639 22.877,-3.672c0.819,-0.12 1.386,-0.883 1.266,-1.702c-0.12,-0.819 -0.883,-1.386 -1.702,-1.266c-7.183,1.054 -15.74,1.404 -23.335,3.777c-7.947,2.482 -14.862,7.119 -18.343,16.747c-0.281,0.778 0.122,1.639 0.901,1.92c0.778,0.282 1.639,-0.122 1.92,-0.9Z"/><path d="M239.495,217.684c3.203,-7.957 10.105,-11.215 18.012,-12.866c8.389,-1.753 17.909,-1.709 25.829,-2.982c0.817,-0.132 1.374,-0.902 1.242,-1.72c-0.131,-0.817 -0.901,-1.374 -1.719,-1.242c-7.962,1.28 -17.532,1.245 -25.965,3.007c-8.916,1.862 -16.57,5.712 -20.182,14.683c-0.309,0.768 0.063,1.642 0.831,1.951c0.768,0.309 1.643,-0.063 1.952,-0.831Z"/><path d="M125.169,275.33c1.134,-0.657 3.201,-1.092 4.442,-1.048c6.759,0.237 9.282,3.812 14.229,9.092c0.566,0.604 1.516,0.635 2.12,0.069c0.604,-0.566 0.635,-1.516 0.069,-2.12c-5.611,-5.99 -8.646,-9.77 -16.313,-10.039c-1.692,-0.06 -4.505,0.555 -6.051,1.45c-0.716,0.415 -0.961,1.334 -0.546,2.05c0.415,0.717 1.334,0.961 2.05,0.546Z"/><path d="M273.836,195.29c-0.493,-0.203 -1.078,-0.137 -1.52,0.222c-0.009,0.007 -1.005,2.11 0.69,2.659c1.228,0.398 7.498,2.384 9.566,2.798c0.812,0.162 1.603,-0.365 1.765,-1.177c0.162,-0.812 -0.365,-1.603 -1.177,-1.765c-1.995,-0.399 -8.044,-2.326 -9.229,-2.71c-0.033,-0.011 -0.065,-0.02 -0.095,-0.027Z"/><path d="M281.598,200.388c0.068,3.097 0.519,3.502 0.297,5.719c-0.082,0.824 0.52,1.56 1.344,1.642c0.823,0.082 1.559,-0.52 1.641,-1.343c0.236,-2.359 -0.211,-2.791 -0.283,-6.084c-0.018,-0.828 -0.705,-1.485 -1.532,-1.467c-0.828,0.018 -1.485,0.705 -1.467,1.533Z"/><path d="M352.446,231.187c0.077,1.474 0.982,60.16 0.043,63.915c-0.201,0.803 0.288,1.618 1.091,1.819c0.804,0.201 1.619,-0.288 1.819,-1.091c0.952,-3.808 0.121,-63.304 0.043,-64.799c-0.043,-0.826 -0.749,-1.463 -1.576,-1.42c-0.826,0.043 -1.463,0.749 -1.42,1.576Z"/><path d="M352.975,294.322c-0.112,0.038 -1.988,0.679 -3.875,1.07c-9.761,2.023 -32.242,4.578 -41.668,6.162c-43.22,7.259 -86.457,15.634 -129.279,24.942c-13.519,2.939 -26.932,6.433 -40.504,9.12c-0.705,0.14 -10.154,1.905 -12.192,2.096l-0.073,0.005c-0.433,-0.051 -0.885,0.087 -1.222,0.415c-0.593,0.578 -0.605,1.529 -0.027,2.122c0.093,0.095 0.618,0.537 1.601,0.445c2.09,-0.196 11.774,-1.997 12.496,-2.14c13.59,-2.691 27.021,-6.189 40.558,-9.131c42.775,-9.298 85.965,-17.664 129.139,-24.916c9.451,-1.587 31.993,-4.154 41.78,-6.182c1.823,-0.378 3.227,-0.746 4.071,-1.08c0.57,-0.226 0.959,-0.475 1.184,-0.685c0.607,-0.563 0.643,-1.513 0.08,-2.119c-0.548,-0.591 -1.462,-0.64 -2.069,-0.124Z"/><path d="M56.677,208.167c5.208,-1.027 10.583,-0.029 15.575,1.823c7.717,2.862 14.534,7.778 18.532,10.845c7.969,6.114 16.223,14.627 20.139,24.043c4.92,11.829 4.224,25.861 4.57,38.41c0.669,24.253 -0.608,53.773 -1.708,77.981c-0.038,0.827 0.603,1.528 1.43,1.566c0.827,0.038 1.529,-0.603 1.567,-1.43c1.103,-24.275 2.381,-53.878 1.71,-78.2c-0.356,-12.902 0.26,-27.317 -4.799,-39.479c-4.11,-9.881 -12.72,-18.855 -21.083,-25.272c-4.164,-3.194 -11.277,-8.295 -19.315,-11.277c-5.51,-2.044 -11.45,-3.087 -17.198,-1.953c-0.813,0.16 -1.342,0.95 -1.182,1.762c0.16,0.812 0.95,1.341 1.762,1.181Z"/><path d="M64.196,235.882c5.072,-4.522 11.521,-4.506 17.593,-2.062c9.462,3.809 18.107,13.446 19.766,22.152c0.154,0.814 0.94,1.348 1.754,1.193c0.813,-0.155 1.347,-0.941 1.193,-1.754c-1.819,-9.549 -11.214,-20.196 -21.593,-24.374c-7.155,-2.88 -14.733,-2.723 -20.709,2.606c-0.618,0.551 -0.672,1.5 -0.121,2.118c0.551,0.618 1.5,0.672 2.117,0.121Z"/><path d="M274.862,195.673c-0.24,-3.316 0.002,-9.943 0.139,-13.268c0.292,-7.101 5.054,-12.778 11.629,-15.207c7.405,-2.735 14.996,-2.004 22.571,-0.367c20.438,4.419 36.29,15.872 44.691,35.349c6.79,15.74 4.396,35.964 3.839,52.658c-0.66,19.804 0.804,39.536 0.804,59.309c-0,0.827 0.672,1.5 1.5,1.5c0.828,-0 1.5,-0.673 1.5,-1.5c-0,-19.74 -1.465,-39.439 -0.806,-59.209c0.571,-17.106 2.875,-37.818 -4.082,-53.946c-8.807,-20.415 -25.39,-32.461 -46.812,-37.093c-8.137,-1.759 -16.29,-2.453 -24.245,0.485c-7.717,2.851 -13.244,9.563 -13.586,17.898c-0.141,3.41 -0.38,10.206 -0.134,13.608c0.059,0.825 0.778,1.447 1.604,1.388c0.826,-0.06 1.448,-0.779 1.388,-1.605Z"/><path d="M284.133,168.36c3.75,-2.894 14.291,-6.031 20.833,-6.031c18.274,-0 36.038,10.645 47.059,24.345c7.384,9.178 11.511,19.844 12.249,31.121c1.411,21.57 0.573,88.019 0.573,95.271c-0,0.828 0.672,1.5 1.5,1.5c0.827,-0 1.5,-0.672 1.5,-1.5c-0,-7.267 0.834,-73.853 -0.58,-95.467c-0.777,-11.886 -5.122,-23.131 -12.905,-32.805c-11.56,-14.37 -30.229,-25.465 -49.396,-25.465c-7.125,-0 -18.581,3.504 -22.666,6.655c-0.655,0.506 -0.777,1.449 -0.271,2.104c0.506,0.656 1.448,0.777 2.104,0.272Z"/><path d="M360.229,316.652c3.386,-1.09 3.458,-0.625 6.993,-2.549c0.727,-0.395 0.997,-1.307 0.601,-2.034c-0.396,-0.727 -1.307,-0.996 -2.035,-0.601c-3.269,1.779 -3.346,1.321 -6.478,2.328c-0.788,0.254 -1.222,1.1 -0.969,1.888c0.254,0.788 1.1,1.222 1.888,0.968Z"/><path d="M360.063,313.898c-1.66,-1.023 -4.053,-1.697 -6.39,-2.467c-1.963,-0.647 -3.901,-1.338 -5.078,-2.6c-0.596,-0.639 -0.985,-1.578 -1.356,-2.597c-0.452,-1.24 -0.847,-2.598 -1.341,-3.844c-1.229,-3.103 -3.077,-5.498 -6.869,-5.227c-0.826,0.059 -1.449,0.777 -1.39,1.603c0.059,0.826 0.777,1.449 1.603,1.39c2.245,-0.161 3.139,1.502 3.867,3.338c0.588,1.486 1.034,3.129 1.607,4.539c0.456,1.122 0.999,2.109 1.686,2.845c1.483,1.59 3.859,2.587 6.332,3.402c2.099,0.692 4.264,1.253 5.755,2.172c0.705,0.434 1.63,0.215 2.064,-0.49c0.434,-0.705 0.215,-1.63 -0.49,-2.064Z"/><path d="M284.366,199.473c-0.046,-2.767 0.196,-8.371 1.68,-10.844c1.462,-2.436 3.838,-4.008 6.54,-5.025c4.337,-1.632 9.514,-1.841 13.557,-1.586c16.742,1.059 33.877,10.872 37.492,28.087c1.146,5.455 0.461,10.416 0.461,15.824c-0,0.828 0.672,1.5 1.5,1.5c0.828,0 1.5,-0.672 1.5,-1.5c-0,-5.62 0.665,-10.772 -0.525,-16.441c-3.895,-18.546 -22.201,-29.324 -40.239,-30.464c-4.416,-0.279 -10.065,-0.01 -14.803,1.772c-3.348,1.26 -6.244,3.27 -8.056,6.29c-1.705,2.842 -2.159,9.255 -2.107,12.437c0.014,0.827 0.697,1.488 1.525,1.475c0.828,-0.014 1.489,-0.697 1.475,-1.525Z"/></g><g><path d="M125.157,349.504c-0.111,-0.704 -0.713,-1.249 -1.449,-1.264c-0.828,-0.018 -1.514,0.64 -1.531,1.468c-0.012,0.543 0.186,1.171 0.737,1.799c0.652,0.744 2.007,1.637 3.9,2.55c9.53,4.599 33.771,10.982 36.856,11.572c42.696,8.171 94.406,5.803 132.586,-16.773c6.489,-3.837 14.457,-9.299 20.004,-15.973c5.782,-6.958 8.942,-15.214 5.562,-24.325c-1.078,-2.908 -3.034,-6.463 -6.253,-7.507c-0.788,-0.255 -1.634,0.177 -1.89,0.965c-0.255,0.787 0.177,1.634 0.965,1.889c1.088,0.353 1.916,1.179 2.587,2.132c0.785,1.114 1.352,2.415 1.779,3.565c2.973,8.015 0.03,15.241 -5.058,21.364c-5.324,6.407 -12.994,11.624 -19.223,15.308c-37.574,22.218 -88.477,24.45 -130.495,16.409c-3.023,-0.579 -26.778,-6.822 -36.116,-11.327c-1.03,-0.497 -1.872,-0.965 -2.465,-1.404c-0.188,-0.14 -0.405,-0.356 -0.496,-0.448Z"/><path d="M305.474,303.201c-0.143,0.223 -1.366,2.14 -1.648,2.871c-0.37,0.961 -0.062,1.676 0.292,2.046c0.326,0.342 0.975,0.712 1.877,0.987c1.379,0.42 3.533,0.762 5.297,1.178c0.491,0.117 1.062,0.313 1.469,0.463c-0.064,0.056 -0.133,0.109 -0.204,0.164c-0.532,0.413 -1.248,0.743 -1.987,1.064c-1.088,0.474 -2.225,0.918 -3.11,1.429c-0.805,0.465 -1.426,1.008 -1.795,1.605c-0.51,0.827 -0.447,1.599 0.017,2.335c0.322,0.51 1.002,1.043 1.836,1.514c0.457,0.259 1.149,0.686 1.59,0.961c-0.282,0.209 -0.608,0.35 -0.955,0.459c-0.741,0.233 -1.571,0.321 -2.408,0.402c-2.227,0.215 -4.456,0.477 -5.9,1.8c-0.504,0.462 -0.696,0.967 -0.73,1.468c-0.038,0.55 0.158,1.163 0.602,1.754c0.182,0.243 0.508,0.614 0.781,0.918c-0.529,0.157 -1.138,0.223 -1.772,0.278c-1.077,0.092 -2.221,0.122 -3.288,0.256c-1.804,0.227 -3.39,0.786 -4.406,1.993c-0.592,0.704 -0.782,1.548 -0.642,2.49c0.132,0.884 0.618,1.901 1.145,2.876c0.064,0.118 0.13,0.249 0.196,0.385c-1.089,-0.613 -2.331,-1.306 -3.459,-1.629c-1.138,-0.327 -2.197,-0.292 -3.055,0.164c-2.063,1.095 -2.91,3.466 -3.562,5.896c-0.246,0.919 -0.478,1.833 -0.838,2.605c-0.243,0.522 -0.533,0.981 -1.025,1.225c-0.24,0.119 -0.488,-0.028 -0.761,-0.144c-0.412,-0.175 -0.833,-0.427 -1.261,-0.686c-0.824,-0.499 -1.669,-1.016 -2.492,-1.308c-0.749,-0.267 -1.492,-0.362 -2.211,-0.233c-2.171,0.392 -3.144,2.321 -3.691,4.43c-0.151,0.583 -0.279,1.166 -0.44,1.672c-0.069,0.219 -0.217,0.519 -0.271,0.626c-1.087,0.257 -2.441,-0.215 -3.826,-0.676c-1.894,-0.63 -3.821,-1.344 -5.376,-1.4c-1.176,-0.041 -1.975,0.229 -2.55,0.609c-0.655,0.433 -1.064,1.034 -1.323,1.734c-0.201,0.542 -0.295,1.158 -0.423,1.732c-0.034,0.151 -0.07,0.299 -0.122,0.434c-0.019,0.047 -0.02,0.108 -0.078,0.125c-1.397,0.398 -2.889,-0.208 -4.397,-0.694c-2.119,-0.683 -4.25,-1.23 -6.215,-0.558c-2.098,0.718 -2.281,2.767 -1.695,4.886l0.182,0.668c-0.559,-0.308 -1.143,-0.734 -1.743,-1.154c-1.043,-0.731 -2.126,-1.44 -3.168,-1.783c-0.942,-0.31 -1.867,-0.351 -2.751,-0.039c-0.843,0.296 -1.717,0.94 -2.558,1.801c-1.021,1.047 -2.029,2.427 -2.965,3.615c-0.453,0.577 -0.885,1.103 -1.295,1.495c-0.065,0.063 -0.148,0.13 -0.227,0.191c-0.026,-0.039 -0.05,-0.077 -0.069,-0.112c-0.183,-0.326 -0.352,-0.705 -0.529,-1.087c-0.412,-0.889 -0.882,-1.772 -1.474,-2.352c-0.604,-0.593 -1.326,-0.938 -2.196,-0.939c-2.416,-0.005 -4.517,1.584 -6.495,3.316c-0.794,0.696 -1.573,1.4 -2.377,1.932c-0.61,0.405 -1.222,0.717 -1.888,0.738c-0.398,0.013 -0.771,-0.178 -1.152,-0.417c-0.585,-0.365 -1.157,-0.87 -1.734,-1.388c-1.499,-1.344 -3.057,-2.701 -4.661,-3.034c-2.829,-0.587 -4.564,1.044 -5.771,2.994c-0.368,0.595 -0.683,1.21 -0.978,1.739c-0.033,0.059 -0.07,0.121 -0.109,0.184c-0.695,-0.683 -1.951,-1.904 -2.902,-2.756c-1.247,-1.117 -2.585,-1.954 -3.715,-2.095c-2.286,-0.285 -4.689,0.968 -6.992,2.29c-0.931,0.534 -1.848,1.064 -2.741,1.404c-0.58,0.22 -1.14,0.369 -1.682,0.298c-0.027,-0.108 -0.061,-0.259 -0.073,-0.371c-0.056,-0.508 -0.047,-1.094 -0.054,-1.685c-0.01,-0.954 -0.065,-1.915 -0.305,-2.695c-0.359,-1.168 -1.073,-2.02 -2.325,-2.356c-2.424,-0.651 -5.002,0.578 -7.514,1.971c-1.001,0.555 -1.996,1.116 -2.977,1.464c-0.744,0.264 -1.472,0.414 -2.182,0.21c-0.49,-0.141 -0.827,-0.519 -1.135,-0.961c-0.469,-0.672 -0.84,-1.504 -1.225,-2.34c-1.025,-2.224 -2.226,-4.375 -4.35,-5.118c-2.577,-0.902 -4.735,0.511 -6.729,2.368c-0.736,0.687 -1.455,1.415 -2.204,1.959c-0.492,0.355 -0.98,0.648 -1.529,0.642c-0.028,-0.024 -0.079,-0.072 -0.108,-0.106c-0.084,-0.101 -0.161,-0.22 -0.235,-0.351c-0.363,-0.638 -0.644,-1.495 -0.933,-2.374c-0.421,-1.279 -0.852,-2.6 -1.414,-3.582c-0.529,-0.925 -1.195,-1.587 -1.967,-1.915c-0.831,-0.354 -1.771,-0.409 -2.778,-0.231c-1.14,0.201 -2.392,0.719 -3.625,1.216c-0.835,0.337 -1.659,0.665 -2.42,0.791c-0.426,0.07 -0.825,0.103 -1.145,-0.137c-0.329,-0.247 -0.43,-0.731 -0.553,-1.245c-0.203,-0.852 -0.298,-1.822 -0.426,-2.702c-0.129,-0.885 -0.298,-1.695 -0.56,-2.304c-0.283,-0.658 -0.684,-1.138 -1.165,-1.438c-0.703,-0.438 -1.629,-0.223 -2.067,0.479c-0.423,0.679 -0.237,1.566 0.409,2.02c0.032,0.07 0.153,0.35 0.204,0.545c0.154,0.596 0.238,1.322 0.337,2.061c0.146,1.082 0.324,2.184 0.664,3.07c0.312,0.812 0.763,1.468 1.355,1.912c1.405,1.057 3.294,0.906 5.31,0.184c1.094,-0.391 2.238,-0.927 3.322,-1.272c0.721,-0.229 1.396,-0.431 1.963,-0.189c0.143,0.061 0.243,0.199 0.351,0.349c0.222,0.31 0.407,0.698 0.582,1.12c0.436,1.058 0.785,2.311 1.183,3.401c0.401,1.102 0.875,2.055 1.439,2.667c0.594,0.644 1.296,0.995 2.105,1.028c1.01,0.042 1.965,-0.267 2.877,-0.821c1.052,-0.638 2.057,-1.635 3.074,-2.582c0.552,-0.515 1.108,-1.013 1.697,-1.379c0.61,-0.379 1.254,-0.612 1.995,-0.353c0.727,0.254 1.194,0.864 1.61,1.551c0.582,0.96 1.031,2.089 1.535,3.114c0.9,1.835 2.03,3.319 3.729,3.806c1.064,0.306 2.155,0.26 3.264,-0.033c1.366,-0.361 2.772,-1.122 4.177,-1.901c1.001,-0.555 2.003,-1.118 3,-1.471c0.771,-0.273 1.532,-0.427 2.28,-0.226c0.253,0.068 0.25,0.343 0.3,0.598c0.151,0.777 0.101,1.714 0.121,2.558c0.023,0.992 0.149,1.888 0.459,2.516c0.357,0.723 0.913,1.211 1.724,1.411c1.753,0.431 3.671,-0.227 5.62,-1.282c1.163,-0.63 2.352,-1.385 3.544,-1.943c0.946,-0.443 1.883,-0.779 2.812,-0.663c0.472,0.058 0.964,0.428 1.489,0.847c1.12,0.893 2.238,2.129 3.119,2.987c0.585,0.571 1.107,0.997 1.491,1.202c0.447,0.238 0.85,0.292 1.168,0.264c0.498,-0.045 0.994,-0.264 1.447,-0.713c0.331,-0.328 0.666,-0.832 1.004,-1.437c0.369,-0.663 0.766,-1.483 1.29,-2.187c0.513,-0.689 1.169,-1.288 2.228,-1.068c0.616,0.127 1.188,0.546 1.771,1.018c0.777,0.628 1.54,1.376 2.308,2.02c1.346,1.129 2.753,1.907 4.174,1.862c2.179,-0.07 4.171,-1.683 6.146,-3.412c1.409,-1.233 2.791,-2.577 4.512,-2.573c0.109,0 0.146,0.121 0.215,0.209c0.11,0.138 0.208,0.296 0.302,0.464c0.286,0.509 0.527,1.09 0.779,1.607c0.371,0.765 0.794,1.411 1.262,1.798c0.556,0.459 1.188,0.664 1.918,0.564c0.539,-0.073 1.146,-0.353 1.76,-0.87c0.593,-0.499 1.243,-1.255 1.918,-2.112c0.871,-1.108 1.802,-2.4 2.754,-3.375c0.475,-0.486 0.931,-0.9 1.407,-1.068c0.486,-0.171 0.983,0.086 1.508,0.363c0.882,0.467 1.769,1.155 2.621,1.731c0.873,0.591 1.727,1.07 2.505,1.274c0.769,0.201 1.495,0.171 2.167,-0.115c0.618,-0.263 1.002,-0.736 1.14,-1.432c0.08,-0.407 0.04,-0.985 -0.132,-1.65c-0.155,-0.598 -0.419,-1.325 -0.565,-2.02c-0.032,-0.155 -0.059,-0.307 -0.071,-0.455c-0.007,-0.079 -0.001,-0.199 0.004,-0.273c1.366,-0.453 2.825,0.109 4.297,0.584c2.094,0.675 4.2,1.276 6.14,0.723c1.259,-0.36 1.863,-1.219 2.186,-2.324c0.132,-0.448 0.206,-0.949 0.318,-1.428c0.054,-0.232 0.079,-0.476 0.246,-0.634c0.159,-0.15 0.424,-0.148 0.817,-0.134c1.619,0.057 3.682,1.02 5.629,1.593c1.685,0.496 3.303,0.717 4.619,0.338c0.663,-0.19 1.195,-0.611 1.602,-1.247c0.364,-0.57 0.624,-1.372 0.848,-2.255c0.198,-0.785 0.372,-1.654 0.719,-2.359c0.178,-0.362 0.396,-0.691 0.825,-0.768c0.405,-0.073 0.81,0.138 1.237,0.354c0.725,0.367 1.455,0.866 2.165,1.258c1.449,0.799 2.873,1.113 4.123,0.494c1.633,-0.809 2.503,-2.512 3.09,-4.513c0.33,-1.127 0.588,-2.346 1.015,-3.412c0.307,-0.768 0.685,-1.463 1.394,-1.839c0.128,-0.068 0.28,-0.04 0.441,-0.016c0.381,0.057 0.787,0.209 1.2,0.393c1.066,0.474 2.155,1.167 3.026,1.618c0.809,0.418 1.52,0.633 2.004,0.632c0.564,-0.001 1.008,-0.195 1.351,-0.514c0.571,-0.53 0.815,-1.205 0.756,-2.013c-0.047,-0.643 -0.352,-1.44 -0.787,-2.276c-0.378,-0.727 -0.857,-1.51 -1.127,-2.243c-0.054,-0.148 -0.099,-0.293 -0.124,-0.433c-0.009,-0.053 -0.012,-0.141 -0.012,-0.179c0.303,-0.346 0.73,-0.536 1.202,-0.675c0.685,-0.202 1.46,-0.282 2.252,-0.342c2.005,-0.15 4.089,-0.214 5.534,-0.918c1.01,-0.493 1.389,-1.129 1.53,-1.681c0.121,-0.477 0.08,-0.97 -0.134,-1.468c-0.178,-0.416 -0.515,-0.862 -0.913,-1.29c-0.099,-0.107 -0.224,-0.246 -0.344,-0.381c0.297,-0.137 0.626,-0.229 0.968,-0.304c0.814,-0.178 1.705,-0.242 2.588,-0.327c2.319,-0.225 4.535,-0.692 5.871,-2.426c0.461,-0.598 0.58,-1.178 0.529,-1.712c-0.081,-0.838 -0.785,-1.738 -1.919,-2.43c-0.498,-0.304 -1.074,-0.596 -1.586,-0.888c-0.057,-0.033 -0.118,-0.071 -0.18,-0.111c0.285,-0.177 0.638,-0.332 1.005,-0.503c0.982,-0.456 2.112,-0.879 3.091,-1.369c1.841,-0.92 3.114,-2.184 3.204,-3.798c0.03,-0.529 -0.134,-1.038 -0.54,-1.498c-0.394,-0.446 -1.194,-0.901 -2.275,-1.232c-1.514,-0.465 -3.696,-0.815 -5.381,-1.206c-0.229,-0.053 -0.477,-0.123 -0.708,-0.195c0.274,-0.451 0.592,-0.98 0.785,-1.316c0.343,-0.596 0.504,-1.129 0.517,-1.44c0.037,-0.827 -0.605,-1.528 -1.432,-1.564c-0.756,-0.033 -1.407,0.5 -1.541,1.224Z"/><path d="M277.892,309.821c-1.111,0.304 -2.238,0.626 -2.873,0.947c-1.196,0.606 -1.398,1.565 -1.235,2.208c0.152,0.602 0.576,1.158 1.343,1.539c0.432,0.214 1.041,0.376 1.725,0.509c-0.585,0.096 -1.175,0.195 -1.743,0.301c-1.316,0.244 -2.518,0.528 -3.328,0.861c-0.518,0.214 -0.915,0.466 -1.183,0.717c-0.461,0.433 -0.656,0.91 -0.702,1.388c-0.04,0.427 0.048,0.881 0.298,1.337c0.252,0.459 0.728,0.966 1.32,1.451c0.219,0.18 0.455,0.361 0.692,0.54c-0.705,-0.168 -1.463,-0.461 -2.229,-0.765c-1.352,-0.538 -2.721,-1.116 -3.905,-1.371c-1.087,-0.234 -2.061,-0.199 -2.846,0.135c-0.649,0.277 -1.006,0.755 -1.134,1.4c-0.105,0.531 0.08,1.412 0.526,2.39c0.223,0.489 0.496,1.032 0.707,1.567c0.104,0.263 0.197,0.689 0.235,0.876c-0.061,0.02 -0.136,0.042 -0.2,0.054c-0.349,0.062 -0.793,0.068 -1.352,0.025c-1.54,-0.119 -6.59,-1.695 -9.933,-2.262c-1.204,-0.204 -2.225,-0.276 -2.891,-0.186c-0.573,0.077 -0.996,0.276 -1.282,0.504c-0.523,0.418 -0.833,1.012 -0.909,1.771c-0.061,0.606 0.057,1.377 0.237,2.18c0.069,0.307 0.143,0.62 0.207,0.928c0.065,0.311 0.097,0.763 0.11,0.995c-0.495,0.06 -0.999,-0.173 -1.521,-0.433c-0.897,-0.446 -1.801,-1.073 -2.686,-1.574c-1.68,-0.953 -3.34,-1.395 -4.808,-0.715c-1.387,0.641 -2.138,2.054 -2.625,3.698c-0.247,0.835 -0.435,1.726 -0.764,2.461c-0.167,0.372 -0.344,0.721 -0.737,0.834c-0.539,0.155 -1.054,0.017 -1.564,-0.213c-0.753,-0.338 -1.485,-0.879 -2.221,-1.421c-1.094,-0.804 -2.193,-1.611 -3.304,-2.061c-0.946,-0.383 -1.907,-0.53 -2.888,-0.342c-1.676,0.321 -2.606,1.608 -3.215,3.263c-0.294,0.798 -0.516,1.684 -0.87,2.419c-0.174,0.361 -0.35,0.707 -0.741,0.806c-0.419,0.107 -0.802,-0.05 -1.186,-0.263c-0.65,-0.361 -1.276,-0.914 -1.915,-1.461c-0.799,-0.682 -1.612,-1.359 -2.457,-1.824c-1.083,-0.597 -2.223,-0.871 -3.445,-0.618c-1.764,0.365 -2.995,1.791 -4.122,3.304c-0.396,0.532 -0.784,1.066 -1.229,1.485c-0.283,0.265 -0.583,0.488 -0.965,0.548c-0.449,0.072 -0.74,-0.287 -1.07,-0.617c-0.448,-0.449 -0.873,-0.982 -1.323,-1.467c-1.086,-1.17 -2.331,-2.029 -3.904,-1.946c-1.627,0.085 -3.028,1.214 -4.339,2.436c-0.458,0.427 -0.907,0.854 -1.383,1.165c-0.258,0.17 -0.517,0.313 -0.808,0.328c-0.052,-0.061 -0.173,-0.207 -0.238,-0.312c-0.216,-0.354 -0.402,-0.778 -0.602,-1.205c-0.786,-1.676 -1.846,-3.217 -3.709,-3.43c-2.452,-0.279 -4.675,0.875 -6.843,2.202c-1.45,0.887 -2.859,1.882 -4.403,2.1c-0.07,-0.385 -0.175,-0.979 -0.234,-1.384c-0.1,-0.676 -0.246,-1.323 -0.48,-1.825c-0.259,-0.555 -0.626,-0.974 -1.083,-1.244c-1.446,-0.857 -3.102,-0.895 -4.828,-0.586c-1.03,0.185 -2.088,0.489 -3.121,0.703c-0.694,0.145 -1.373,0.257 -2.013,0.201c0.029,-0.135 0.06,-0.277 0.081,-0.366c0.108,-0.454 0.109,-0.842 0.053,-1.101c-0.123,-0.559 -0.44,-0.933 -0.913,-1.156c-0.748,-0.354 -1.643,-0.033 -1.997,0.715c-0.152,0.322 -0.179,0.671 -0.101,0.992c-0.057,0.228 -0.137,0.576 -0.17,0.819c-0.106,0.784 0.043,1.543 0.543,2.127c0.323,0.377 0.812,0.722 1.61,0.873c1.719,0.325 3.682,-0.209 5.607,-0.655c1.277,-0.295 2.536,-0.611 3.607,-0.048c0.041,0.124 0.151,0.471 0.192,0.703c0.138,0.796 0.208,1.679 0.393,2.324c0.372,1.293 1.168,1.957 2.268,1.953c2.308,-0.009 4.438,-1.291 6.554,-2.586c1.583,-0.969 3.148,-1.984 4.938,-1.78c0.457,0.052 0.666,0.459 0.89,0.847c0.295,0.512 0.534,1.086 0.787,1.603c0.729,1.489 1.712,2.488 3.081,2.516c1.352,0.028 2.57,-0.69 3.711,-1.698c0.603,-0.533 1.193,-1.142 1.821,-1.626c0.403,-0.309 0.808,-0.584 1.286,-0.609c0.426,-0.023 0.746,0.229 1.058,0.505c0.58,0.513 1.09,1.186 1.626,1.759c1.123,1.201 2.377,1.979 3.926,1.733c1.466,-0.232 2.583,-1.211 3.563,-2.456c0.526,-0.669 1.018,-1.413 1.585,-2.028c0.375,-0.407 0.771,-0.768 1.306,-0.878c0.633,-0.131 1.192,0.16 1.743,0.522c0.858,0.562 1.672,1.347 2.494,2.012c1.548,1.251 3.169,2.041 4.897,1.602c1.615,-0.41 2.511,-1.735 3.102,-3.372c0.287,-0.798 0.505,-1.669 0.859,-2.375c0.162,-0.323 0.326,-0.633 0.691,-0.703c0.542,-0.104 1.059,0.087 1.579,0.353c0.764,0.39 1.513,0.964 2.27,1.521c2.046,1.506 4.183,2.738 6.394,2.099c1.604,-0.462 2.477,-1.801 3.017,-3.482c0.273,-0.85 0.468,-1.789 0.782,-2.599c0.175,-0.451 0.347,-0.883 0.756,-1.072c0.305,-0.141 0.628,-0.048 0.965,0.072c0.642,0.228 1.301,0.637 1.972,1.049c1.02,0.626 2.061,1.263 3.071,1.598c0.889,0.296 1.767,0.376 2.616,0.168c0.638,-0.157 1.092,-0.454 1.425,-0.819c0.626,-0.688 0.835,-1.743 0.661,-2.959c-0.09,-0.636 -0.272,-1.33 -0.407,-1.977c-0.031,-0.15 -0.057,-0.342 -0.075,-0.514c0.415,0.018 1.028,0.059 1.553,0.148c3.433,0.582 8.624,2.173 10.205,2.295c2.521,0.195 3.733,-0.534 4.287,-1.31c0.625,-0.875 0.634,-2.132 0.157,-3.455c-0.179,-0.498 -0.463,-1.168 -0.707,-1.724c0.295,0.067 0.604,0.161 0.923,0.269c1.202,0.407 2.513,1.008 3.752,1.439c1.209,0.42 2.367,0.674 3.348,0.603c0.892,-0.065 1.67,-0.37 2.309,-0.961c0.753,-0.698 0.853,-1.492 0.424,-2.371c-0.236,-0.483 -0.814,-1.078 -1.551,-1.65c-0.412,-0.32 -0.875,-0.651 -1.278,-0.981c0.482,-0.148 1.056,-0.279 1.673,-0.402c2.252,-0.449 5.024,-0.792 6.482,-1.221c0.717,-0.212 1.217,-0.496 1.48,-0.744c0.387,-0.364 0.545,-0.775 0.575,-1.17c0.052,-0.681 -0.188,-1.264 -0.725,-1.741c-0.375,-0.333 -0.994,-0.628 -1.786,-0.818c-0.429,-0.103 -0.926,-0.184 -1.444,-0.257c0.241,-0.069 0.471,-0.138 0.681,-0.208c0.926,-0.308 1.578,-0.728 1.835,-1.048c0.443,-0.55 0.603,-1.651 -0.387,-2.621c-0.648,-0.634 -1.883,-1.321 -2.539,-1.464c-0.611,-0.133 -1.078,0.019 -1.361,0.19c-0.708,0.428 -0.935,1.351 -0.506,2.06c0.122,0.202 0.285,0.365 0.472,0.485Zm-116.144,23.091l0.007,0.004l-0.014,-0.008l0.007,0.004Z"/></g><g><path d="M118.769,50.914c-0.153,-0.014 -0.306,-0.002 -0.457,0.031c-0.279,0.061 -0.594,0.201 -0.862,0.541c-0.078,0.1 -0.178,0.249 -0.252,0.47c-0.038,0.112 -0.109,0.493 -0.125,1.114c-0.122,4.675 0.679,31.289 1.046,37.159c0.27,4.307 1.513,35.052 2.957,49.419c0.383,3.816 0.823,6.537 1.221,7.467c0.122,0.287 0.361,0.63 0.852,0.868c0.355,0.172 1.211,0.343 2.423,0.394c4.599,0.195 15.761,-0.579 17.758,-0.668c12.437,-0.553 44.178,-0.255 57.004,-0.937c2.747,-0.146 4.681,-0.36 5.48,-0.606c0.614,-0.189 0.947,-0.496 1.108,-0.708c0.329,-0.432 0.653,-1.169 0.892,-2.189c0.425,-1.813 0.686,-4.729 0.819,-8.21c0.428,-11.225 -0.406,-28.508 -0.466,-32.507c-0.152,-10.053 -0.373,-35.072 -1.193,-45.786c-0.15,-1.964 -0.325,-3.468 -0.517,-4.35c-0.134,-0.616 -0.316,-1.031 -0.463,-1.253c-0.147,-0.22 -0.539,-0.628 -1.359,-0.82c-1.055,-0.248 -3.778,-0.443 -7.662,-0.562c-18.598,-0.569 -64.8,0.257 -78.204,1.133Zm84.752,2.31c0.123,0.752 0.345,2.241 0.462,3.771c0.816,10.671 1.033,35.589 1.184,45.603c0.06,3.979 0.894,21.177 0.468,32.347c-0.107,2.796 -0.29,5.204 -0.593,6.906c-0.111,0.624 -0.206,1.133 -0.342,1.48c-0.654,0.091 -2.587,0.342 -4.525,0.445c-12.82,0.682 -44.547,0.383 -56.978,0.936c-2.116,0.095 -14.766,1.009 -18.331,0.615c-0.275,-1.129 -0.53,-3.237 -0.805,-5.979c-1.441,-14.335 -2.678,-45.009 -2.947,-49.307c-0.35,-5.585 -1.097,-30.084 -1.052,-36.201c14.612,-0.847 58.768,-1.613 76.819,-1.06c2.994,0.091 5.592,0.335 6.64,0.444Zm-85.748,0.418c-0.164,-0.112 -0.344,-0.287 -0.481,-0.577c0.111,0.235 0.278,0.432 0.481,0.577Z"/><path d="M126.938,58.06c-0.15,-0.012 -0.3,0.001 -0.448,0.035c-0.279,0.063 -0.599,0.206 -0.866,0.559c-0.056,0.073 -0.328,0.557 -0.351,1.458c-0.099,3.959 0.554,26.501 0.854,31.474c0.22,3.647 1.233,29.679 2.41,41.844c0.315,3.258 0.682,5.582 1.009,6.376c0.117,0.286 0.345,0.623 0.816,0.86c0.308,0.155 1.049,0.32 2.102,0.366c3.756,0.166 12.871,-0.489 14.502,-0.565c10.137,-0.469 36.009,-0.216 46.463,-0.794c2.279,-0.126 3.883,-0.315 4.546,-0.527c0.581,-0.186 0.891,-0.489 1.043,-0.697c0.28,-0.381 0.559,-1.031 0.762,-1.93c0.349,-1.543 0.563,-4.024 0.672,-6.985c0.349,-9.506 -0.33,-24.143 -0.38,-27.529c-0.123,-8.514 -0.304,-29.7 -0.972,-38.773c-0.123,-1.674 -0.267,-2.955 -0.425,-3.707c-0.116,-0.555 -0.278,-0.929 -0.406,-1.129c-0.138,-0.216 -0.5,-0.621 -1.276,-0.81c-0.869,-0.212 -3.112,-0.383 -6.311,-0.484c-15.152,-0.482 -52.773,0.216 -63.744,0.958Zm68.819,2.347c0.099,0.653 0.262,1.834 0.351,3.045c0.665,9.032 0.842,30.122 0.965,38.597c0.049,3.367 0.729,17.922 0.381,27.375c-0.086,2.357 -0.235,4.388 -0.48,5.823c-0.076,0.442 -0.137,0.813 -0.22,1.085c-0.613,0.084 -2.05,0.266 -3.49,0.346c-10.448,0.577 -36.305,0.324 -46.436,0.792c-1.682,0.078 -11.577,0.826 -14.691,0.543c-0.209,-0.974 -0.402,-2.682 -0.614,-4.872c-1.174,-12.134 -2.182,-38.098 -2.402,-41.736c-0.281,-4.665 -0.877,-24.919 -0.858,-30.422c12.153,-0.711 47.722,-1.347 62.324,-0.883c2.379,0.076 4.174,0.169 5.17,0.307Zm-70.256,-0.151c0.111,0.215 0.27,0.396 0.46,0.532c-0.155,-0.105 -0.326,-0.267 -0.46,-0.532Z"/><path d="M132.405,140.653c0.499,-0.296 0.802,-0.868 0.724,-1.479c-0.064,-0.507 -0.321,-0.839 -0.658,-1.063c-0.233,-0.156 -0.544,-0.283 -0.96,-0.248c-0.126,0.011 -0.431,0.042 -0.794,0.299c-0.347,0.245 -2.052,1.886 -2.314,2.14c-1.476,1.429 -2.994,3.048 -4.716,4.197c-0.689,0.459 -0.876,1.391 -0.416,2.08c0.459,0.689 1.391,0.875 2.08,0.416c1.871,-1.247 3.536,-2.986 5.139,-4.538c0.203,-0.196 1.642,-1.547 1.915,-1.804Zm-2.238,-1.017c0.094,0.559 0.402,0.904 0.855,1.092c-0.433,-0.197 -0.764,-0.596 -0.855,-1.092Z"/><path d="M198.134,136.492c-0.127,-0.024 -0.259,-0.03 -0.395,-0.019c-0.549,0.048 -0.781,0.299 -0.84,0.348c-0.047,0.04 0.943,2.649 0.943,2.649c-0,-0 -0.188,-0.028 -0.227,-0.038c0.769,0.192 1.455,0.872 2.08,1.324c1.754,1.27 3.229,2.555 4.731,4.057c0.585,0.585 1.536,0.585 2.121,-0c0.585,-0.586 0.585,-1.536 -0,-2.122c-1.616,-1.616 -3.205,-2.998 -5.093,-4.365c-0.911,-0.66 -1.991,-1.525 -3.113,-1.805c-0.028,-0.007 -0.12,-0.019 -0.207,-0.029Zm1.149,1.973c-0.19,0.539 -0.681,0.945 -1.286,0.997c0.829,-0.071 1.162,-0.545 1.286,-0.997Zm-0.366,-1.569c0.137,0.134 0.249,0.294 0.326,0.473c-0.065,-0.156 -0.166,-0.32 -0.326,-0.473Z"/><path d="M120.391,51.676c-0.421,-0.53 -1.164,-0.724 -1.805,-0.427c-0.751,0.348 -1.078,1.241 -0.73,1.992c0.068,0.147 0.45,0.632 1.177,1.191c1.584,1.217 5.444,3.851 6.437,5.34c0.46,0.689 1.392,0.875 2.081,0.416c0.688,-0.459 0.875,-1.391 0.416,-2.08c-1.233,-1.849 -6.378,-5.405 -7.552,-6.41l-0.024,-0.022Z"/><path d="M198.309,59.571c0.074,-0.091 0.605,-0.731 1.067,-1.159c1.916,-1.776 5.089,-4.072 6.093,-5.075c0.585,-0.586 0.585,-1.536 -0,-2.122c-0.586,-0.585 -1.536,-0.585 -2.122,0c-0.989,0.989 -4.122,3.246 -6.011,4.997c-1.128,1.046 -1.817,2.053 -1.938,2.643c-0.166,0.811 0.358,1.605 1.169,1.77c0.773,0.159 1.529,-0.309 1.742,-1.054Z"/><path d="M173.294,67.6c-2.88,-0.94 -15.628,-4.899 -28.165,8.201c-8.33,8.705 -11.272,21.939 -8.938,33.286c2.372,11.533 10.133,21.087 23.013,22.234c13.87,1.236 19.224,-6.191 19.224,-6.191c0.263,-0.353 0.358,-0.804 0.259,-1.233c-0.1,-0.429 -0.382,-0.793 -0.774,-0.995c0,-0 -3.557,-1.837 -6.873,-3.661c-4.111,-2.261 -8.331,-5.933 -10.439,-10.18c-1.498,-3.019 -2.538,-7.503 -1.78,-10.885c0.142,-0.633 0.66,-0.818 1.159,-0.935c0.631,-0.15 1.294,-0.181 1.826,-0.248c0.598,-0.076 1.093,-0.212 1.428,-0.397c0.552,-0.305 0.872,-0.744 0.998,-1.29c0.26,-1.124 -0.206,-2.388 -1.077,-3.646c-0.441,-0.636 -0.973,-1.29 -1.411,-1.95c-0.297,-0.448 -0.57,-0.882 -0.614,-1.331c-0.056,-0.563 0.175,-1.241 0.522,-2.009c0.675,-1.493 1.843,-3.211 3.182,-4.959c3.596,-4.694 8.378,-9.568 9.255,-11.146c0.411,-0.738 0.347,-1.33 0.241,-1.643c-0.164,-0.486 -0.491,-0.844 -1.036,-1.022Zm-2.823,2.319c-2.106,2.369 -7.033,8.024 -9.722,12.026c-1.747,2.6 -2.77,5.042 -2.605,6.727c0.132,1.35 1.122,2.766 2.104,4.087c0.324,0.435 0.638,0.86 0.856,1.276c-0.351,0.044 -0.767,0.099 -1.103,0.15c-1.81,0.276 -3.595,1.048 -4.108,3.335c-0.895,3.996 0.251,9.308 2.021,12.875c2.367,4.769 7.064,8.936 11.68,11.475c1.841,1.012 3.756,2.029 5.107,2.739c-2.118,1.712 -6.906,4.466 -15.231,3.724c-11.44,-1.019 -18.234,-9.607 -20.341,-19.851c-2.145,-10.429 0.511,-22.606 8.167,-30.606c9.368,-9.789 18.844,-8.971 23.175,-7.957Z"/><path d="M152.683,84.308l-0.039,-0.27c-0.013,-0.324 -0.131,-0.647 -0.359,-0.912c-0.215,-0.252 -0.447,-0.37 -0.635,-0.438c-0.218,-0.078 -2.054,-0.205 -2.005,1.47c0.004,0.153 0.154,1.032 0.223,1.196c0.267,0.634 0.669,1.269 1.211,1.708c1.428,1.154 3.482,0.936 4.931,0.044c0.705,-0.433 0.925,-1.358 0.491,-2.063c-0.434,-0.705 -1.359,-0.925 -2.064,-0.492c-0.435,0.268 -1.042,0.525 -1.471,0.178c-0.131,-0.106 -0.214,-0.264 -0.283,-0.421Zm-1.243,1.264c-0.514,0.103 -1.068,-0.068 -1.433,-0.495c0.488,0.57 1.03,0.581 1.433,0.495Z"/><path d="M174.786,92.35l0.959,5.812c0.098,0.594 0.542,1.072 1.127,1.214c0.585,0.142 1.198,-0.08 1.557,-0.564l3.54,-4.765c-0,-0 6.395,-0.767 6.395,-0.767c0.601,-0.072 1.1,-0.498 1.265,-1.081c0.165,-0.582 -0.036,-1.206 -0.51,-1.583l-4.016,-3.189c0,0 1.543,-4.216 1.543,-4.216c0.207,-0.566 0.055,-1.201 -0.385,-1.612c-0.44,-0.411 -1.084,-0.519 -1.634,-0.274l-5.039,2.246c0,-0 -4.138,-4.31 -4.138,-4.31l-1.082,2.539l-1.5,-1.476l0.083,5.224c0,-0 -3.832,2.418 -3.832,2.418c-0.494,0.312 -0.762,0.881 -0.687,1.46c0.074,0.579 0.478,1.062 1.034,1.239l5.32,1.685Zm1.142,-8.259l2.226,2.318c0.438,0.456 1.115,0.588 1.693,0.331l2.764,-1.232c0,0 -0.697,1.905 -0.697,1.905c-0.222,0.607 -0.03,1.288 0.476,1.69l2.048,1.626c-0,0 -3.467,0.416 -3.467,0.416c-0.409,0.049 -0.78,0.264 -1.026,0.595l-1.815,2.444c-0,0 -0.533,-3.231 -0.533,-3.231c-0.092,-0.557 -0.489,-1.015 -1.028,-1.186l-3.118,-0.987c0,-0 1.814,-1.145 1.814,-1.145c0.442,-0.279 0.707,-0.769 0.699,-1.292l-0.036,-2.252Z"/></g></g></svg>