<?xml version="1.0" standalone="no"?>
<!DOCTYPE svg PUBLIC "-//W3C//DTD SVG 20010904//EN"
 "http://www.w3.org/TR/2001/REC-SVG-20010904/DTD/svg10.dtd">
<svg version="1.0" xmlns="http://www.w3.org/2000/svg"
 width="1500.000000pt" height="1522.000000pt" viewBox="0 0 1500.000000 1522.000000"
 preserveAspectRatio="xMidYMid meet">

<g transform="translate(0.000000,1522.000000) scale(0.100000,-0.100000)"
fill="#000000" stroke="none">
<path d="M256 14884 c-9 -8 -17 -21 -18 -27 -1 -7 -2 -318 -3 -692 -1 -374 -5
-772 -10 -885 -4 -113 -7 -214 -7 -225 0 -11 1 -164 1 -340 -1 -176 0 -327 0
-335 0 -8 0 -103 0 -210 -1 -198 0 -764 2 -810 0 -14 0 -182 0 -374 -1 -216 3
-354 9 -361 6 -8 7 -23 1 -41 -5 -16 -12 -357 -15 -759 -6 -789 -14 -1400 -21
-1642 -2 -83 0 -165 5 -182 5 -18 5 -33 0 -36 -5 -3 -9 -130 -9 -283 1 -152 0
-304 0 -337 -1 -33 -1 -69 0 -80 0 -11 1 -36 1 -55 0 -19 0 -55 1 -80 0 -25 0
-76 -1 -115 -1 -38 -1 -79 -1 -90 0 -11 0 -63 -2 -115 -1 -52 1 -139 5 -192 4
-65 3 -99 -4 -103 -7 -4 -7 -11 -2 -18 8 -10 17 -144 13 -197 -2 -24 -11 -373
-11 -400 0 -14 2 -110 5 -215 3 -163 4 -267 5 -635 0 -30 3 -199 7 -375 3
-176 6 -453 5 -615 -7 -1602 -12 -2843 -13 -2925 -1 -55 0 -232 2 -393 l3
-293 24 -6 c15 -3 30 1 45 14 20 18 39 20 202 22 99 1 243 -3 320 -9 155 -13
237 -16 620 -25 143 -3 346 -8 450 -12 105 -3 231 -6 280 -6 50 0 117 0 150 0
920 -1 2776 11 2905 19 89 5 942 4 1235 -2 149 -3 412 -4 585 -4 471 3 1028 1
1468 -5 216 -3 396 -4 400 -1 8 5 230 10 797 21 306 6 900 6 1425 -1 195 -2
380 -4 410 -3 81 1 133 0 250 -5 129 -5 136 -6 158 -5 9 0 58 -3 107 -6 50 -3
225 -8 390 -11 165 -2 379 -6 475 -8 99 -2 183 1 194 6 12 7 16 7 12 0 -4 -7
46 -10 146 -9 84 0 208 -3 275 -8 92 -6 126 -5 137 4 10 9 20 9 33 3 10 -6 86
-8 183 -5 438 12 590 19 598 28 21 24 32 126 27 258 -2 76 -7 142 -10 146 -7
12 -8 400 -1 471 3 30 8 215 11 410 3 195 8 402 10 460 3 58 7 487 10 954 3
466 7 851 9 855 7 11 17 619 16 986 0 328 -3 441 -15 700 -14 292 -18 972 -9
1475 9 471 14 695 18 723 2 15 0 30 -5 32 -4 3 -4 18 0 33 8 28 6 2335 -3
2577 -15 441 -18 612 -16 905 1 179 0 341 -2 360 -6 69 7 995 19 1300 3 91 7
199 8 240 8 226 13 1165 7 1345 -7 202 -8 210 -27 207 -11 -2 -27 -2 -35 -2
-8 1 -62 0 -120 -1 -243 -7 -1086 0 -1780 16 -460 10 -715 7 -985 -13 -60 -4
-267 -7 -460 -5 -192 1 -417 2 -500 2 -294 -1 -420 -1 -1220 6 -996 9 -3576
10 -4160 1 -397 -5 -752 -6 -1700 -2 -198 0 -378 0 -400 -1 -22 -1 -362 0
-755 3 -393 2 -767 3 -830 3 -133 -1 -107 -2 -450 5 -819 17 -858 17 -874 0z
m554 -99 c190 -3 388 -8 440 -10 52 -3 324 -5 604 -5 l508 0 -6 -42 c-3 -24
-8 -113 -11 -198 -4 -85 -11 -236 -16 -335 -11 -215 -27 -523 -33 -655 -4 -92
-5 -95 -30 -101 -21 -6 -169 -12 -231 -10 -5 0 -78 3 -161 7 l-151 7 -6 74
c-3 41 -10 80 -15 86 -5 7 -15 28 -21 48 -12 39 -101 130 -161 166 -19 12 -64
33 -100 48 -63 27 -72 28 -237 27 l-173 0 -1 42 c0 22 -1 57 -3 76 -2 36 14
103 33 139 11 19 13 19 59 -13 26 -17 106 -58 177 -91 l130 -59 115 0 c179 1
327 39 393 102 26 24 67 98 67 119 0 5 9 16 20 26 28 24 25 40 -14 78 -50 50
-197 99 -294 99 -49 0 -122 -14 -157 -29 -11 -5 -49 -17 -85 -26 -36 -10 -103
-28 -150 -41 -91 -25 -172 -30 -216 -14 -14 6 -41 8 -59 4 -31 -5 -32 -8 -45
-77 -6 -40 -19 -82 -27 -95 -8 -13 -13 -31 -11 -40 1 -9 -1 -23 -6 -31 -5 -7
-9 -53 -8 -101 l0 -87 -47 -12 c-52 -13 -120 -55 -194 -121 -45 -40 -97 -116
-162 -238 l-30 -56 -55 -3 c-30 -1 -65 -5 -77 -8 -15 -3 -23 -1 -23 7 0 7 -2
263 -5 568 -2 305 -7 605 -11 667 l-6 112 68 3 c38 2 71 2 74 2 3 -1 160 -5
350 -9z m7414 -15 c15 -15 14 -573 -2 -680 -7 -47 -17 -127 -23 -179 -6 -52
-26 -156 -45 -230 -18 -75 -34 -153 -34 -173 0 -21 -4 -38 -8 -38 -13 0 -34
-119 -39 -225 -3 -55 -7 -102 -9 -104 -5 -6 -55 49 -69 75 -17 34 -158 187
-241 264 -115 106 -217 180 -394 285 -36 21 -77 46 -92 57 -15 10 -30 18 -34
18 -6 0 -149 86 -269 161 -33 20 -125 63 -205 94 -80 30 -154 60 -165 65 -11
4 -63 11 -115 14 -100 6 -116 9 -194 27 -58 14 -219 6 -321 -16 -39 -8 -91
-15 -117 -15 -27 0 -88 -14 -140 -32 -77 -26 -106 -31 -169 -29 -53 2 -107 -5
-180 -22 -57 -14 -120 -28 -139 -32 -19 -3 -44 -10 -55 -14 -24 -10 -110 -41
-180 -66 -165 -59 -355 -147 -456 -212 -37 -24 -70 -43 -73 -43 -9 0 -119 -74
-170 -114 -132 -104 -424 -414 -441 -467 -4 -12 -20 -33 -36 -47 -16 -13 -29
-29 -29 -35 0 -7 -16 -29 -35 -51 -19 -21 -35 -44 -35 -51 0 -7 -4 -15 -8 -17
-16 -6 -69 -95 -122 -203 -30 -60 -57 -112 -60 -115 -6 -5 -40 -74 -88 -180
-11 -25 -28 -65 -37 -90 -9 -25 -20 -54 -25 -65 -17 -43 -30 -82 -39 -120 -5
-22 -17 -69 -26 -105 -59 -238 -75 -540 -41 -760 38 -236 47 -311 57 -445 12
-172 5 -277 -28 -420 -24 -104 -40 -157 -111 -355 -49 -136 -92 -277 -93 -302
0 -13 -8 -48 -18 -78 l-18 -54 -69 -22 c-96 -30 -289 -128 -350 -178 -53 -43
-114 -119 -157 -196 -46 -84 -57 -140 -73 -390 -7 -111 -8 -494 0 -575 7 -80
23 -301 30 -420 3 -44 10 -147 15 -230 6 -82 12 -200 15 -262 l5 -112 -27 -14
c-145 -74 -268 -141 -272 -147 -3 -4 -18 -14 -35 -23 -55 -28 -209 -167 -267
-239 -32 -40 -74 -104 -93 -143 -46 -93 -95 -286 -95 -375 0 -65 21 -181 39
-218 45 -94 65 -122 123 -177 37 -35 85 -73 107 -84 78 -40 68 -46 -104 -61
-60 -5 -120 -12 -131 -16 -18 -5 -24 1 -37 38 -9 23 -30 77 -47 118 -155 368
-170 409 -206 570 -15 63 -30 120 -35 126 -6 7 -9 27 -9 45 1 19 1 87 0 151 0
65 3 125 8 135 5 10 12 34 16 55 15 80 123 242 236 353 86 84 125 147 140 228
13 63 12 69 -6 95 -33 44 -113 79 -202 87 -176 15 -366 62 -465 114 -181 96
-462 156 -698 150 -42 -1 -82 2 -89 6 -9 5 -10 59 -6 229 15 533 20 1268 18
2466 l-3 1285 148 2 c81 2 198 3 258 2 61 0 180 1 265 2 174 2 202 2 280 -1
48 -2 166 -2 433 -2 39 0 137 2 217 5 511 19 593 25 661 55 l45 20 13 108 c7
60 12 120 12 134 0 14 2 79 4 145 1 66 6 244 9 395 4 151 9 286 11 300 2 14 7
108 11 210 3 102 8 189 11 193 2 4 4 76 4 160 -1 84 6 245 15 357 8 113 18
310 21 438 l6 232 331 1 c182 1 369 1 416 1 1312 -1 2148 1 2565 7 740 10
2145 5 2159 -9z m936 5 c377 -3 1071 -6 1543 -7 554 -2 861 -6 865 -12 3 -6 7
-55 8 -111 1 -55 5 -190 10 -300 15 -326 11 -590 -13 -855 -3 -36 -7 -114 -8
-175 -1 -60 -8 -129 -14 -153 -7 -23 -12 -64 -11 -90 0 -26 -2 -81 -5 -122 -2
-41 -7 -145 -10 -230 -4 -85 -10 -171 -15 -190 -4 -19 -7 -66 -6 -105 1 -38
-1 -92 -6 -120 -16 -102 -36 -306 -42 -435 -3 -52 -12 -135 -20 -185 -24 -145
-27 -171 -51 -435 -3 -30 -8 -66 -11 -80 -3 -14 -6 -133 -6 -265 0 -207 3
-264 26 -416 14 -97 34 -209 44 -250 10 -41 27 -112 37 -159 10 -47 28 -128
41 -180 33 -135 63 -286 69 -350 3 -30 8 -62 10 -70 12 -43 34 -202 41 -295 3
-49 9 -94 11 -98 3 -5 7 -171 9 -370 4 -375 17 -559 55 -752 10 -55 19 -110
19 -122 0 -26 35 -151 78 -276 l30 -88 -36 -15 c-58 -25 -234 -42 -337 -33
-124 11 -252 10 -300 -1 -49 -11 -56 -5 -62 54 -8 64 -56 117 -146 160 -110
53 -219 66 -511 60 -132 -3 -242 -7 -246 -9 -4 -2 -47 -9 -96 -15 -213 -26
-362 -71 -466 -142 -62 -41 -73 -46 -65 -24 6 14 -71 86 -91 86 -5 0 -15 7
-22 15 -7 9 -43 32 -79 52 -95 52 -156 98 -239 178 -81 76 -101 112 -95 165 8
82 26 182 48 280 14 58 30 141 37 185 16 96 16 470 1 511 -6 16 -16 47 -22 69
-67 247 -86 315 -116 405 -18 58 -50 150 -70 205 -20 55 -40 118 -45 140 -4
22 -16 72 -25 110 -10 39 -21 115 -25 170 -4 55 -15 170 -23 255 -8 85 -13
180 -11 210 9 116 17 526 11 538 -3 4 -8 61 -11 127 -9 149 -14 190 -33 240
-8 22 -16 56 -19 75 -8 59 -88 317 -104 334 -5 5 -6 14 -4 20 2 7 -12 59 -31
116 -20 58 -41 121 -46 140 -6 19 -16 49 -24 65 -8 17 -26 62 -40 100 -78 209
-203 473 -281 591 -30 46 -52 89 -49 95 4 6 8 85 9 177 2 180 2 181 96 537 51
195 95 609 85 798 -10 167 -14 226 -21 251 -5 21 -2 25 23 28 15 2 48 3 73 2
25 -2 353 -5 730 -9z m3643 -75 c-1 -47 -5 -166 -8 -265 -3 -99 -7 -450 -10
-780 -3 -330 -6 -611 -8 -624 -5 -33 -23 -40 -123 -46 -49 -3 -129 -8 -179
-11 -277 -18 -372 -22 -480 -17 -66 3 -172 7 -235 8 -63 2 -118 4 -123 4 -7 1
-5 63 10 261 3 52 5 99 4 104 -1 5 5 66 13 135 31 263 39 671 16 876 -5 50
-12 144 -15 210 -3 66 -8 141 -11 168 l-6 47 34 1 c127 6 657 14 868 14 l255
0 -2 -85z m1647 -120 c9 -344 -9 -1505 -23 -1516 -1 -1 -56 -4 -122 -7 -66 -3
-145 -11 -175 -16 -30 -6 -154 -12 -276 -14 l-221 -3 52 64 c70 84 90 159 64
241 -26 81 -44 112 -74 131 -45 28 -126 27 -172 -1 -23 -14 -38 -18 -44 -12
-17 17 -28 251 -30 603 -2 598 0 684 14 705 13 17 37 18 398 18 211 0 425 3
474 7 50 4 99 6 110 6 19 -1 20 -10 25 -206z m-1103 186 c4 -3 7 -307 5 -551
-3 -339 5 -638 20 -762 8 -75 8 -96 -3 -109 -12 -14 -14 -14 -21 5 -4 12 -8
68 -9 124 -1 137 -13 205 -41 235 -28 30 -70 52 -98 52 -52 0 -163 -71 -191
-123 -19 -35 -39 -184 -39 -297 -1 -107 -11 -273 -28 -432 -6 -61 -11 -72 -67
-144 -33 -42 -73 -91 -89 -108 -15 -17 -46 -53 -67 -79 l-39 -49 -98 -4 c-53
-2 -279 -9 -502 -14 -223 -6 -422 -14 -442 -17 -38 -5 -38 -5 -38 28 1 84 19
346 25 360 5 13 15 14 53 8 26 -4 81 -5 122 -2 42 3 99 1 127 -6 54 -11 343
-15 423 -6 25 3 110 10 190 15 277 20 291 23 305 72 4 13 16 30 27 39 18 14
19 21 10 70 -6 30 -9 115 -7 189 2 74 3 205 3 290 -1 376 0 491 7 740 4 146 6
292 6 325 -1 33 1 83 4 112 l6 52 222 -6 c122 -3 223 -6 224 -7z m-10686 -126
c-1 -69 -8 -190 -17 -270 -8 -80 -16 -251 -18 -380 -2 -129 -9 -332 -15 -450
-17 -335 -22 -510 -26 -845 -4 -298 -10 -456 -21 -502 -4 -12 -17 -24 -32 -28
-15 -4 -34 -12 -42 -19 -12 -11 -153 -29 -280 -36 -8 -1 -307 -3 -665 -5 -800
-6 -1175 -11 -1195 -16 -12 -3 -15 13 -18 96 l-3 100 108 0 c59 0 268 3 463 7
403 8 977 11 988 5 4 -3 108 -7 232 -11 255 -7 265 -5 287 59 10 31 11 51 3
85 -5 25 -12 142 -15 260 -3 118 -7 251 -10 295 -12 230 -7 643 10 835 2 25 7
108 10 185 10 245 17 343 35 555 14 165 14 157 4 188 l-7 23 113 -3 112 -3 -1
-125z m-804 -335 c60 -25 64 -31 46 -73 -35 -87 -127 -145 -249 -156 -167 -17
-246 -12 -309 18 -87 41 -145 66 -153 66 -5 0 -15 7 -22 15 -11 13 -6 15 32
15 56 0 172 28 326 80 64 21 126 41 137 43 47 11 158 6 192 -8z m4628 -218
c111 -13 150 -22 250 -61 139 -54 176 -72 265 -128 36 -23 117 -72 180 -109
276 -163 455 -294 569 -417 18 -21 54 -59 80 -87 88 -95 178 -221 294 -410 77
-125 206 -388 250 -510 48 -129 130 -365 138 -395 6 -19 16 -51 23 -70 8 -19
22 -62 31 -95 10 -33 24 -77 31 -97 8 -21 25 -84 39 -140 46 -184 69 -654 45
-909 -7 -71 -7 -137 0 -200 5 -52 17 -173 26 -269 8 -97 26 -217 39 -270 35
-144 54 -213 64 -235 35 -81 102 -290 130 -402 5 -21 20 -76 34 -123 49 -169
52 -197 52 -410 -1 -202 -10 -290 -50 -496 -8 -39 -17 -95 -21 -125 -3 -30 -8
-58 -11 -62 -7 -11 -33 12 -33 29 0 8 -4 14 -9 14 -5 0 -27 28 -49 63 -22 34
-70 103 -106 152 l-66 90 7 100 c18 239 4 526 -28 587 -5 10 -9 29 -9 44 0 14
-9 58 -19 97 -57 210 -82 312 -101 401 -11 55 -23 103 -26 108 -7 11 -20 94
-39 248 -8 63 -16 131 -19 150 -14 92 -20 430 -11 590 5 77 5 323 1 375 -10
113 -29 245 -47 320 -10 45 -19 90 -19 101 0 11 -6 40 -14 65 -13 44 -32 109
-59 204 -27 93 -69 220 -82 250 -8 17 -33 80 -56 140 -23 61 -45 115 -49 120
-5 6 -24 39 -43 75 -56 107 -70 130 -109 181 -21 27 -38 53 -38 59 0 5 -8 18
-17 28 -10 9 -44 53 -75 97 -32 44 -66 89 -76 100 -11 11 -43 49 -72 85 -115
142 -285 309 -350 345 -19 11 -44 27 -55 36 -20 17 -57 39 -142 84 -23 13 -54
32 -70 42 -15 11 -41 27 -58 35 -16 9 -61 32 -100 52 -38 20 -76 36 -84 36 -8
0 -37 13 -65 29 -67 38 -165 76 -295 116 -58 18 -117 38 -131 43 -93 39 -395
112 -460 112 -19 0 -30 -5 -30 -14 0 -18 22 -26 71 -26 22 0 55 -6 73 -14 18
-7 57 -17 87 -21 30 -4 99 -23 154 -42 55 -18 149 -49 209 -68 61 -20 151 -54
200 -76 50 -23 123 -53 161 -68 60 -23 103 -45 210 -105 11 -6 38 -23 60 -37
22 -14 72 -42 110 -63 39 -21 77 -44 86 -52 8 -8 19 -14 23 -14 21 0 276 -238
276 -257 0 -3 17 -21 38 -42 20 -20 46 -48 56 -62 11 -13 39 -46 62 -74 46
-53 97 -124 193 -270 33 -49 66 -97 73 -105 7 -9 21 -31 30 -50 10 -19 29 -54
43 -78 14 -24 41 -87 61 -140 20 -53 48 -131 64 -172 16 -41 34 -93 41 -115 6
-22 15 -50 20 -63 5 -13 9 -30 9 -38 0 -9 6 -30 14 -47 22 -51 33 -87 50 -162
8 -38 22 -101 31 -140 9 -38 18 -81 20 -95 2 -14 9 -56 15 -95 7 -38 13 -81
15 -95 2 -14 3 -115 2 -225 -5 -590 0 -762 28 -930 14 -88 28 -180 31 -205 3
-25 10 -58 16 -75 6 -16 14 -52 18 -80 8 -54 25 -131 41 -180 6 -16 12 -37 14
-45 2 -8 11 -42 19 -75 21 -79 53 -225 78 -350 17 -86 19 -127 14 -295 -5
-186 -9 -230 -25 -230 -4 0 -23 21 -43 48 -20 26 -66 78 -102 116 -36 37 -66
71 -66 75 0 14 -453 476 -508 518 -65 49 -130 103 -171 140 -20 18 -41 33 -47
33 -16 0 -27 32 -14 40 37 23 -42 106 -118 125 -44 11 -45 13 -78 96 -18 46
-33 91 -34 100 0 9 -8 31 -17 50 -13 25 -18 70 -21 189 -3 133 0 176 22 305
23 136 64 308 80 333 3 5 9 43 12 83 3 41 11 77 17 81 13 8 25 175 16 236 -3
23 -2 47 3 54 13 20 8 303 -7 408 -37 264 -98 436 -204 580 -22 30 -51 71 -64
90 -130 190 -532 471 -873 611 -44 17 -122 52 -174 77 -52 24 -144 67 -204 93
-60 27 -130 65 -157 84 -51 38 -123 118 -151 169 -51 92 -81 162 -84 194 -5
63 -59 74 -70 15 -9 -49 -38 -107 -111 -218 -33 -49 -62 -98 -66 -107 -3 -10
-11 -18 -17 -18 -5 0 -10 -4 -10 -10 0 -21 -206 -234 -280 -288 -90 -67 -337
-307 -398 -387 -62 -81 -145 -249 -181 -365 -35 -116 -69 -254 -115 -465 -54
-251 -50 -501 13 -780 7 -34 72 -258 116 -405 62 -201 79 -262 87 -310 6 -30
19 -95 30 -145 27 -119 34 -299 18 -431 l-13 -106 -51 -37 c-28 -20 -63 -44
-78 -54 -29 -18 -35 -45 -18 -76 8 -15 1 -24 -37 -51 -26 -19 -80 -60 -120
-93 -41 -33 -76 -57 -79 -54 -8 8 13 110 37 180 11 33 22 80 26 105 3 26 9 54
13 62 23 45 33 356 18 510 -9 87 -64 301 -95 369 -14 31 -43 117 -65 191 -21
74 -46 155 -55 180 -9 25 -17 52 -18 60 -1 8 -7 41 -14 72 -7 32 -10 61 -7 66
2 4 -2 34 -9 67 -11 48 -12 87 -4 200 14 184 26 299 38 360 5 28 14 77 19 110
32 186 78 381 104 432 6 12 11 30 12 40 2 31 48 135 88 199 21 34 38 64 38 68
0 13 122 191 169 245 25 30 56 68 68 84 31 42 250 263 378 382 163 151 275
266 275 282 1 4 14 19 30 33 17 13 30 28 30 33 0 13 153 156 166 157 20 0 38
30 27 41 -15 15 -57 -9 -123 -70 -30 -28 -57 -51 -60 -51 -3 0 -23 -23 -45
-51 -84 -107 -228 -257 -357 -371 -93 -82 -301 -292 -351 -354 -60 -75 -59
-73 -81 -109 -11 -16 -38 -52 -61 -80 -24 -27 -62 -88 -86 -135 -23 -47 -52
-98 -64 -115 -12 -16 -27 -46 -35 -65 -7 -19 -19 -48 -25 -65 -31 -75 -67
-195 -74 -246 -5 -30 -13 -65 -19 -76 -6 -11 -18 -67 -27 -124 -8 -57 -20
-122 -25 -144 -12 -48 -16 -75 -35 -274 -17 -177 -19 -285 -6 -362 5 -30 15
-90 21 -133 7 -44 15 -86 20 -95 9 -18 31 -93 56 -191 16 -66 48 -169 63 -205
5 -11 16 -37 25 -58 9 -21 16 -50 16 -66 0 -16 7 -48 16 -72 35 -100 46 -183
46 -364 0 -159 -3 -194 -27 -300 -15 -66 -33 -133 -39 -150 -7 -16 -19 -61
-25 -100 -7 -38 -17 -80 -22 -93 -5 -13 -9 -35 -9 -51 0 -26 -29 -63 -169
-216 -20 -22 -75 -85 -122 -140 -104 -122 -369 -386 -380 -379 -4 2 -1 20 6
38 8 19 20 67 26 108 6 40 20 107 30 148 22 86 27 295 8 331 -6 12 -9 35 -6
53 2 17 0 60 -4 96 -16 111 6 240 76 445 25 73 45 141 45 150 0 10 9 34 19 54
24 45 57 157 83 281 23 107 31 296 17 380 -11 67 -36 277 -49 420 -5 58 -14
121 -19 140 -13 46 -30 297 -26 385 4 97 14 201 26 255 5 25 11 61 13 80 2 19
16 80 31 135 15 55 33 125 41 155 8 30 19 71 24 90 9 38 21 74 56 165 12 33
28 78 35 100 6 22 15 45 19 50 4 6 15 35 25 65 10 30 21 60 25 65 9 12 67 118
88 160 8 17 29 47 46 69 42 55 71 94 105 145 17 24 39 50 50 57 11 8 30 32 42
54 13 22 29 40 36 40 7 0 13 3 13 8 0 11 222 244 301 315 30 27 79 72 109 100
62 58 97 87 106 87 3 0 23 14 44 30 21 17 42 30 47 30 5 0 39 20 77 45 37 24
77 47 89 51 12 4 33 14 47 24 24 17 186 92 223 104 18 6 24 36 6 36 -24 0
-108 -33 -164 -65 -33 -18 -97 -52 -142 -74 -45 -23 -85 -46 -88 -51 -3 -5
-36 -28 -73 -50 -97 -58 -106 -64 -112 -71 -3 -3 -13 -10 -24 -16 -10 -6 -55
-46 -100 -89 -44 -44 -101 -97 -126 -120 -25 -22 -67 -65 -94 -95 -26 -30 -89
-97 -140 -149 -50 -52 -100 -108 -111 -124 -11 -16 -48 -64 -81 -105 -34 -42
-71 -92 -83 -111 -37 -62 -71 -129 -71 -139 0 -6 -11 -22 -25 -37 -14 -15 -32
-49 -39 -75 -14 -46 -37 -104 -57 -141 -25 -49 -124 -351 -139 -423 -6 -33
-20 -89 -31 -125 -20 -69 -27 -113 -55 -333 -16 -122 -16 -156 -5 -310 7 -94
16 -188 22 -208 5 -20 11 -65 13 -100 2 -35 7 -75 10 -89 3 -14 7 -61 10 -105
3 -44 10 -116 16 -161 31 -239 30 -311 -4 -469 -10 -44 -19 -87 -21 -96 -3
-15 -20 -72 -47 -154 -5 -16 -29 -85 -53 -152 -24 -68 -42 -123 -40 -123 2 0
-2 -15 -10 -34 -8 -19 -24 -76 -36 -128 -18 -80 -20 -113 -16 -233 3 -77 11
-175 18 -218 13 -88 3 -194 -31 -332 -11 -44 -20 -90 -20 -101 0 -12 -7 -41
-16 -65 -8 -24 -19 -68 -24 -97 -10 -58 10 -33 -295 -369 -80 -89 -153 -164
-161 -167 -10 -4 -14 4 -15 32 -1 20 -3 46 -4 57 -15 135 -14 300 3 407 10 64
24 123 30 131 11 12 21 47 63 207 6 25 15 54 19 65 16 42 30 123 36 200 3 44
7 96 9 115 2 19 0 62 -5 95 -5 33 -12 121 -15 197 -6 139 9 280 40 368 7 20
21 74 30 118 15 75 59 214 151 482 20 58 40 134 44 170 37 293 41 351 35 482
-3 76 -10 150 -16 166 -5 16 -9 33 -8 38 2 5 -2 26 -8 46 -6 21 -9 47 -6 58 3
11 1 39 -5 63 -34 136 -54 454 -37 582 3 22 7 54 9 70 14 114 41 238 72 326
19 57 42 129 50 159 8 30 30 78 49 106 19 29 35 61 35 71 0 10 7 32 16 48 9
17 45 86 80 153 35 68 75 139 89 157 14 19 25 36 25 39 0 6 86 126 175 242 84
111 297 319 418 410 56 42 109 79 117 82 8 3 35 20 60 38 90 63 360 189 490
229 25 8 83 27 130 44 47 17 97 31 111 31 14 0 67 13 118 30 97 31 151 37 238
25 41 -6 58 -4 77 9 14 9 34 16 45 16 11 0 23 5 26 10 3 6 36 10 73 10 37 0
83 4 102 10 113 31 290 34 525 7z m-5100 -275 c52 -16 108 -50 158 -94 69 -62
97 -143 97 -279 0 -85 -5 -115 -30 -190 -35 -105 -64 -152 -145 -237 -67 -71
-107 -97 -210 -138 -64 -25 -80 -27 -188 -25 -101 1 -131 6 -210 32 -117 39
-176 78 -217 145 -50 83 -63 136 -63 259 0 102 2 114 28 160 15 28 33 57 40
65 7 8 23 38 36 65 31 64 118 151 183 181 28 13 56 24 63 24 13 0 31 -27 36
-57 2 -10 9 -30 15 -44 24 -60 22 -64 -43 -69 -56 -5 -60 -7 -60 -30 0 -24 2
-25 70 -25 152 0 304 80 252 132 -16 16 -19 15 -44 -9 -16 -14 -38 -31 -50
-37 -27 -14 -33 -5 -58 83 -17 57 -17 60 1 73 10 7 38 13 63 14 25 1 57 5 71
9 30 11 163 5 205 -8z m11846 -157 c5 -15 10 -96 12 -178 4 -149 4 -151 31
-172 14 -11 26 -25 26 -31 0 -5 -24 -36 -54 -69 -29 -33 -75 -85 -101 -115
-26 -30 -58 -67 -71 -82 -13 -16 -28 -28 -33 -28 -10 0 -8 101 2 117 3 5 8 80
11 166 3 86 7 161 10 166 3 5 8 35 10 68 6 79 7 82 38 129 17 26 39 45 60 51
44 14 51 12 59 -22z m408 -277 c14 -33 16 -53 9 -96 -15 -98 -48 -145 -245
-352 -39 -42 -81 -87 -92 -101 -11 -15 -34 -29 -51 -32 -24 -5 -30 -12 -30
-32 0 -17 -25 -52 -87 -117 -146 -156 -296 -309 -334 -338 -77 -62 -122 -46
-95 35 9 25 16 51 16 57 0 18 61 109 105 158 23 25 50 59 60 75 10 17 35 48
56 70 49 52 139 175 139 189 0 5 11 22 25 36 41 42 119 133 150 175 16 22 91
102 166 177 158 159 177 168 208 96z m-11343 -21 c1 -2 6 -175 19 -657 3 -91
7 -197 10 -236 5 -56 3 -73 -9 -83 -11 -10 -67 -11 -248 -5 -327 11 -1361 3
-1625 -12 l-113 -6 -1 388 c-1 452 1 597 7 604 3 2 36 6 75 8 l69 4 0 -68 c0
-72 17 -152 43 -200 8 -16 23 -46 33 -68 21 -42 92 -120 139 -151 49 -32 176
-85 243 -100 95 -22 275 -20 346 5 55 18 129 62 171 101 139 127 216 231 229
309 3 19 14 65 26 102 18 59 24 67 48 71 26 4 535 -2 538 -6z m3340 -143 c33
-64 121 -158 212 -227 59 -44 109 -72 236 -127 27 -12 92 -42 145 -67 180 -85
221 -103 229 -103 14 0 218 -107 312 -163 213 -128 313 -215 440 -383 112
-149 146 -232 196 -489 26 -139 27 -142 20 -427 -3 -158 -11 -311 -16 -340 -6
-30 -14 -83 -19 -119 -15 -99 -57 -244 -72 -245 -8 0 -20 -2 -26 -2 -7 -1 -25
-21 -39 -44 -15 -24 -81 -97 -148 -164 -145 -143 -276 -234 -480 -334 -160
-78 -183 -86 -356 -130 -186 -46 -297 -42 -581 24 -198 47 -629 223 -629 258
0 4 -43 37 -95 73 -52 36 -105 78 -118 93 -14 15 -44 50 -69 77 -51 57 -108
144 -192 293 -32 56 -62 105 -67 108 -16 9 -39 107 -50 214 -15 133 -16 202
-6 315 13 154 14 164 24 177 6 7 18 58 28 113 18 109 25 140 50 230 40 145 60
204 86 257 16 31 29 61 29 67 0 14 53 92 119 176 65 82 223 241 304 305 81 63
265 248 302 302 48 71 86 131 109 173 15 28 32 54 37 60 5 5 9 15 9 21 0 12
38 84 44 84 2 0 16 -25 32 -56z m8781 -256 c9 -7 10 -65 6 -226 -3 -119 -7
-219 -9 -221 -2 -2 -13 4 -24 14 -18 17 -42 17 -372 12 -194 -4 -364 -8 -378
-11 -14 -2 -68 -4 -120 -5 l-95 -1 0 -457 c-1 -252 -2 -597 -3 -768 -3 -316 6
-877 14 -906 4 -13 -6 -17 -49 -22 -35 -3 -89 -22 -153 -53 -112 -53 -106 -50
-231 -99 -51 -19 -97 -35 -103 -35 -9 0 -15 56 -13 125 0 17 -3 113 -9 215 -5
102 -11 273 -14 380 -2 107 -7 229 -9 270 -20 309 -25 714 -12 915 l8 120 52
53 53 52 1 -217 c3 -263 7 -304 38 -337 22 -23 29 -25 82 -20 69 6 124 30 176
76 34 30 38 40 49 113 8 50 13 208 13 420 l0 341 75 83 c41 45 94 103 116 127
l42 45 62 -10 c43 -7 78 -7 113 1 28 6 72 8 99 5 27 -4 125 0 218 9 93 8 195
16 226 19 31 2 58 6 60 8 6 6 79 -5 91 -15z m-1183 -650 c-5 -302 -17 -392
-56 -435 -27 -29 -108 -67 -120 -55 -10 10 -14 512 -4 561 8 39 152 210 178
211 4 0 5 -127 2 -282z m988 128 c11 7 174 8 186 0 7 -4 8 -63 5 -179 -7 -192
-5 -1263 2 -1316 2 -19 7 -151 11 -294 l7 -259 -21 7 c-20 6 -63 2 -267 -22
-71 -8 -442 -10 -535 -3 -64 5 -64 5 -73 40 -5 19 -10 127 -11 240 -2 196 -9
431 -22 697 -3 70 -1 145 5 175 9 46 19 419 21 758 0 58 4 111 9 119 7 10 69
17 262 27 140 8 261 12 269 9 8 -3 29 -1 45 3 17 5 46 5 64 1 19 -4 38 -6 43
-3z m-1582 -4 c0 -4 -7 -31 -14 -60 -8 -30 -12 -61 -9 -70 10 -27 59 -83 89
-103 l28 -18 2 -383 c1 -211 5 -394 9 -408 3 -14 11 -167 16 -340 5 -173 12
-412 17 -530 4 -118 7 -253 6 -299 l-2 -84 -79 -29 c-43 -15 -103 -35 -133
-42 -70 -19 -236 -79 -286 -104 -22 -11 -56 -22 -77 -26 -46 -9 -50 -17 -38
-80 6 -30 5 -86 -2 -151 l-10 -102 -61 2 c-64 2 -173 -7 -316 -27 -47 -7 -89
-13 -94 -13 -5 0 -22 61 -37 135 -15 74 -33 153 -38 175 -59 230 -118 515
-119 579 -1 22 -6 74 -11 115 -13 99 -18 431 -8 546 14 158 37 377 47 460 6
44 13 107 15 140 3 33 10 103 16 155 6 52 13 129 15 170 2 41 6 98 9 125 2 28
7 93 11 145 l7 95 131 1 c178 2 710 22 731 29 22 6 185 4 185 -3z m-7935
-2151 c39 -40 64 -77 77 -113 45 -124 81 -249 94 -328 30 -184 34 -158 -36
-246 -34 -44 -66 -80 -71 -82 -5 -2 -9 9 -9 25 -3 169 -10 286 -20 323 -7 25
-18 81 -25 125 -8 44 -22 112 -33 150 -20 77 -42 160 -47 188 -6 29 11 19 70
-42z m2593 -108 c1 -173 13 -251 58 -392 18 -58 31 -107 29 -110 -8 -7 -64 49
-89 89 -30 47 -63 182 -77 312 -15 134 -8 168 39 213 20 19 37 35 38 35 0 0 1
-66 2 -147z m7142 -56 l0 -183 -747 2 c-436 1 -806 -3 -888 -9 -136 -10 -375
-2 -375 12 0 10 57 29 154 50 48 11 92 23 99 29 7 5 35 15 62 21 28 7 59 16
70 21 11 4 40 14 65 21 25 7 49 16 55 21 5 4 16 8 25 8 8 0 98 34 200 76 253
104 253 104 433 99 221 -7 540 -5 627 3 41 4 108 8 148 10 l72 3 0 -184z
m-7266 -14 c4 -49 16 -134 28 -190 12 -57 19 -105 16 -108 -3 -3 -21 1 -40 9
-30 13 -37 22 -51 73 -19 67 -31 162 -28 213 2 32 42 90 61 90 4 0 10 -39 14
-87z m-2215 -55 c6 -15 14 -28 19 -28 14 0 33 -48 58 -149 18 -74 21 -97 11
-103 -38 -26 -98 -60 -101 -57 -2 4 -20 95 -31 164 -19 114 -47 217 -66 239
-4 5 -5 14 -2 22 7 19 100 -53 112 -88z m2107 -88 c3 -36 10 -77 14 -92 9 -28
8 -28 -35 -28 -40 0 -44 2 -47 28 -5 45 8 135 27 177 l17 40 9 -30 c5 -16 11
-59 15 -95z m-158 -107 c-1 -76 2 -148 5 -159 18 -53 -146 -227 -305 -325 -58
-35 -153 -73 -213 -84 -11 -2 -47 -10 -80 -19 -145 -36 -195 -46 -269 -51 -44
-4 -83 -8 -87 -11 -11 -7 -263 14 -334 28 -93 18 -193 68 -250 126 -56 57 -63
81 -64 212 -1 41 -6 124 -12 183 -6 59 -9 110 -7 112 3 3 36 -6 74 -19 83 -30
369 -105 439 -117 88 -14 363 -9 445 7 41 9 96 16 121 17 25 1 53 8 61 15 8 7
44 21 79 33 35 11 80 27 99 36 19 9 73 31 120 49 47 18 83 35 80 39 -4 4 71
54 98 64 1 1 2 -61 0 -136z m-1768 100 c55 -31 56 -33 66 -115 l6 -58 -40 2
c-23 1 -46 4 -51 8 -9 5 -29 74 -46 158 -8 40 0 40 65 5z m7335 -110 c77 -4
192 -7 255 -6 63 0 363 3 665 5 303 3 662 2 799 -1 l250 -6 1 -365 c0 -201 -1
-388 -3 -416 l-4 -50 -72 3 c-102 5 -98 2 -92 85 3 40 8 154 12 254 7 191 2
224 -36 224 -30 0 -37 -27 -39 -135 -1 -55 -6 -176 -11 -270 -13 -215 -17
-208 136 -213 l105 -4 -6 -596 c-3 -329 -9 -606 -12 -617 -5 -16 -9 -13 -20
20 -15 43 -39 153 -54 250 -8 52 -26 349 -33 545 -4 114 -26 304 -37 315 -18
18 -41 -8 -66 -75 -14 -36 -32 -83 -40 -105 -9 -22 -18 -77 -21 -122 -2 -46
-8 -83 -13 -83 -5 0 -9 10 -9 23 0 36 -49 105 -79 110 -14 3 -28 3 -31 0 -16
-15 -3 -332 19 -468 5 -33 14 -91 20 -130 6 -38 20 -104 31 -145 12 -41 25
-111 30 -155 6 -44 14 -98 19 -120 5 -22 15 -62 21 -90 6 -27 13 -58 17 -69 3
-10 1 -16 -4 -13 -5 3 -17 32 -26 64 -54 188 -97 345 -107 394 -12 64 -36 81
-66 48 -14 -16 -16 -34 -10 -131 6 -103 5 -111 -9 -87 -16 30 -76 69 -105 69
-49 0 -51 5 -44 120 6 100 5 111 -17 155 -29 58 -89 105 -135 105 -36 0 -42
11 -65 125 -18 92 -78 139 -161 126 -4 0 -19 21 -33 48 -42 83 -86 102 -185
79 -9 -2 -19 12 -30 42 -8 25 -34 64 -59 89 l-43 44 -62 -5 c-35 -3 -74 -13
-88 -22 -24 -16 -28 -16 -63 5 -54 32 -139 32 -183 -1 -19 -14 -40 -37 -48
-52 -12 -24 -12 -32 0 -62 14 -33 13 -35 -9 -50 -13 -8 -35 -40 -49 -69 -38
-80 -21 -123 77 -201 39 -31 46 -56 26 -100 -25 -54 41 -164 118 -197 46 -19
52 -29 29 -48 -53 -44 3 -171 102 -233 27 -16 32 -26 31 -51 -4 -57 40 -123
118 -177 16 -11 21 -22 17 -41 -5 -25 -9 -26 -49 -21 -129 14 -195 -63 -161
-188 6 -22 2 -27 -34 -44 -22 -11 -40 -25 -40 -32 0 -6 -7 -14 -15 -18 -22 -8
-20 -97 4 -142 17 -32 56 -59 112 -77 12 -4 14 -14 10 -49 -14 -97 33 -180
108 -193 l40 -7 -5 -41 c-5 -36 -1 -49 28 -92 21 -31 55 -63 89 -83 49 -29 55
-37 65 -83 23 -103 59 -140 170 -175 58 -18 62 -21 61 -49 -1 -39 44 -110 86
-135 18 -11 48 -22 67 -25 86 -14 104 -23 125 -66 22 -47 62 -71 148 -89 66
-13 73 -26 20 -36 -21 -4 -50 -13 -64 -20 -14 -7 -45 -11 -68 -9 -23 2 -79 -3
-124 -12 -45 -8 -123 -14 -172 -13 -61 1 -105 -4 -135 -14 -26 -9 -80 -16
-125 -16 -52 0 -99 -7 -135 -20 -33 -12 -82 -19 -124 -20 -69 0 -181 -23 -203
-42 -9 -7 -23 -7 -44 1 -55 19 -129 13 -189 -15 -45 -21 -64 -24 -105 -20 -27
4 -64 2 -82 -3 -30 -9 -31 -8 -37 22 -3 18 -6 221 -6 452 0 231 -2 474 -5 540
-2 66 -8 219 -11 340 -4 121 -8 261 -10 310 -13 347 -21 813 -17 1110 5 447 3
693 -6 775 -3 36 -4 79 -1 95 4 17 4 80 1 140 -4 114 -5 218 -3 365 1 47 0 97
-3 112 -4 23 -1 27 22 31 16 2 35 2 43 1 8 -2 78 -7 155 -11z m-5307 -117 c51
-18 72 -33 179 -123 45 -37 108 -81 142 -98 58 -29 72 -48 52 -70 -19 -22 -84
-148 -181 -350 -39 -82 -104 -217 -145 -300 -100 -205 -165 -343 -165 -350 0
-4 -7 -21 -15 -38 -8 -18 -28 -76 -45 -129 -17 -54 -35 -100 -40 -103 -5 -3
-17 7 -27 22 -20 32 -93 122 -168 208 -29 33 -77 88 -106 122 -149 171 -262
294 -337 366 -45 44 -103 111 -129 149 -52 76 -50 88 15 88 31 0 157 27 247
53 22 6 50 19 63 28 13 10 47 25 75 35 51 17 107 47 148 82 53 43 209 197 209
205 0 6 16 29 35 53 35 42 35 45 29 107 l-6 63 63 -2 c35 -2 83 -10 107 -18z
m-1960 -13 c5 -10 12 -79 16 -153 8 -162 18 -206 49 -216 12 -4 43 -25 69 -48
48 -41 96 -69 222 -127 74 -34 191 -56 358 -67 l98 -7 -20 -30 c-11 -16 -25
-39 -32 -49 -7 -11 -22 -31 -34 -44 -23 -26 -33 -41 -135 -216 -38 -65 -69
-122 -69 -126 0 -5 -4 -10 -8 -12 -5 -1 -38 -50 -74 -108 -62 -99 -186 -285
-253 -378 -16 -23 -35 -42 -41 -42 -6 0 -23 22 -37 48 -14 26 -68 104 -119
172 -51 68 -104 140 -118 160 -73 107 -130 196 -130 202 0 15 -92 164 -120
193 -15 17 -57 73 -92 126 -36 52 -86 124 -112 159 -50 70 -55 87 -28 97 68
25 245 188 317 291 55 79 74 100 117 121 24 12 61 33 83 46 47 29 81 32 93 8z
m6953 -230 c1 -21 3 -54 6 -73 2 -19 3 -60 2 -90 -1 -30 -3 -96 -3 -145 l-1
-90 -100 0 c-115 1 -212 -10 -272 -29 -23 -8 -44 -12 -47 -8 -3 3 -6 23 -6 44
0 22 -4 69 -10 106 -5 37 -15 103 -21 147 -6 44 -14 95 -17 114 -4 33 -4 33
27 26 17 -3 45 -2 63 4 41 13 187 27 296 29 l82 2 1 -37z m-9150 -103 c2 -112
12 -223 30 -331 22 -127 -21 -389 -99 -609 -17 -47 -40 -133 -52 -192 -20
-101 -21 -119 -11 -316 8 -141 8 -226 1 -262 -5 -29 -10 -68 -10 -86 0 -28
-10 -43 -50 -83 -71 -69 -256 -190 -261 -170 0 2 -3 47 -5 99 -5 129 -11 226
-23 350 -5 58 -12 164 -16 235 -3 72 -9 173 -13 225 -9 128 -6 541 6 665 10
115 64 267 113 319 16 17 29 34 29 38 0 4 20 27 45 51 29 28 94 69 177 111 71
37 132 66 134 64 1 -2 4 -51 5 -108z m4698 -87 c32 -27 70 -57 86 -68 58 -41
145 -116 145 -125 0 -5 53 -64 118 -132 283 -298 386 -418 581 -674 192 -253
234 -303 358 -424 70 -69 142 -136 158 -150 51 -43 261 -169 345 -207 30 -14
56 -27 58 -28 2 -1 -6 -19 -18 -40 -57 -102 -66 -388 -20 -646 29 -157 53
-599 33 -599 -17 0 -143 32 -263 67 -141 40 -316 110 -405 162 -84 49 -414
284 -435 310 -27 34 -137 111 -212 149 l-93 47 -1 120 c-3 320 -3 321 -23 344
-11 13 -21 27 -23 31 -2 5 -22 12 -45 16 l-42 6 4 -583 c2 -321 6 -595 9 -609
12 -61 17 -132 17 -224 0 -63 5 -111 14 -132 l14 -34 -47 -1 c-141 -3 -261 -9
-292 -15 -46 -9 -57 -7 -94 20 -47 35 -212 112 -291 136 -38 12 -95 30 -125
41 -30 11 -95 28 -145 38 -49 11 -124 27 -165 36 -219 47 -688 68 -935 41 -67
-7 -127 -9 -137 -5 -18 10 -91 30 -211 60 -131 32 -267 21 -453 -36 -49 -15
-100 -30 -113 -34 -20 -6 -127 7 -198 24 -34 8 -28 22 12 28 43 7 98 48 124
93 26 43 25 106 -2 152 -24 40 -51 52 -120 52 -125 0 -227 38 -359 133 -41 29
-88 59 -104 65 -28 12 -31 18 -43 95 -7 45 -15 183 -18 307 -5 237 -10 260
-53 260 -23 0 -32 -46 -30 -158 2 -134 3 -129 -31 -141 -17 -6 -33 -19 -36
-28 -8 -26 -181 -172 -244 -206 -30 -16 -61 -35 -70 -43 -8 -8 -21 -14 -28
-14 -7 0 -50 -9 -95 -19 -107 -26 -175 -30 -190 -10 -25 32 -73 53 -229 99
-37 11 -88 22 -113 26 -25 3 -76 16 -112 29 -134 47 -415 94 -549 93 -54 0
-63 -3 -63 -18 0 -31 75 -56 215 -75 166 -22 296 -49 410 -85 50 -15 115 -33
145 -40 80 -17 189 -50 195 -59 2 -5 -16 -21 -40 -37 -38 -23 -45 -33 -45 -59
0 -20 -8 -39 -21 -51 -17 -15 -90 -147 -91 -164 -1 -9 -9 -34 -24 -70 -7 -19
-15 -57 -17 -85 -2 -27 -11 -64 -20 -81 -18 -34 -26 -212 -12 -269 13 -56 47
-160 56 -169 5 -6 9 -18 9 -27 0 -14 -15 -18 -97 -24 -54 -5 -177 -5 -274 -2
-158 6 -190 10 -315 42 -76 20 -148 40 -159 45 -45 19 -225 69 -290 80 -74 13
-141 47 -241 121 -45 33 -62 54 -85 104 -25 56 -48 172 -42 215 1 8 3 35 4 60
3 76 105 360 129 360 4 0 19 17 33 38 13 21 39 51 56 68 18 16 55 51 83 77 62
58 154 120 265 176 45 23 85 46 88 52 4 5 36 23 73 40 37 18 86 45 109 60 23
16 46 29 51 29 5 0 17 9 27 20 10 11 22 20 27 20 9 0 116 70 147 96 135 116
195 174 301 293 36 40 84 94 108 119 84 91 100 109 110 129 13 24 136 153 146
153 11 0 384 376 421 424 17 21 55 64 85 95 75 77 107 115 152 183 21 32 42
58 47 58 4 0 22 12 38 28 192 175 289 262 296 262 3 0 24 -28 46 -62 59 -91
105 -155 134 -188 14 -16 59 -85 99 -154 74 -128 111 -183 207 -310 93 -121
167 -228 201 -291 18 -33 38 -67 44 -75 7 -8 18 -28 26 -44 30 -58 91 -72 104
-22 3 12 19 40 35 60 17 21 33 47 37 59 6 21 110 167 118 167 3 0 72 -113 131
-215 17 -29 42 -67 56 -86 14 -19 40 -61 58 -94 17 -33 54 -96 81 -140 66
-106 61 -97 124 -202 31 -51 56 -95 56 -98 0 -3 -6 -5 -13 -5 -19 0 -117 -65
-161 -108 -45 -44 -54 -62 -76 -165 -35 -161 24 -275 166 -324 59 -20 217 -13
243 11 10 9 22 16 28 16 19 0 107 87 124 121 19 39 43 138 42 177 0 52 -35
167 -61 202 -36 48 -50 58 -99 71 -24 6 -43 16 -43 23 0 6 16 36 34 66 19 30
49 82 66 115 18 33 51 92 75 130 24 39 51 90 61 115 9 25 28 60 41 78 36 49
129 231 152 298 10 32 23 60 28 61 14 5 89 -92 131 -169 48 -84 60 -99 100
-121 42 -24 57 -17 66 25 3 18 21 69 40 113 18 44 41 105 51 135 9 30 33 86
51 124 19 38 34 75 34 81 0 7 7 18 16 26 8 7 31 44 51 83 63 126 108 211 126
239 9 14 17 32 17 40 0 7 8 31 19 53 10 21 31 66 46 99 85 190 148 305 167
305 5 0 36 -21 67 -47z m4466 -415 l0 -133 -95 -2 c-52 -2 -144 -10 -204 -19
-91 -13 -110 -14 -117 -2 -14 22 -11 234 4 245 6 6 46 13 87 17 41 4 95 9 120
12 25 3 75 6 112 7 36 1 70 5 74 9 16 16 19 -6 19 -134z m-5966 15 c63 -65
126 -131 138 -147 13 -16 65 -75 117 -130 187 -200 222 -259 183 -305 -8 -9
-19 -36 -26 -61 -15 -52 -82 -188 -152 -308 -27 -45 -49 -85 -49 -87 0 -3 -26
-49 -58 -102 -32 -54 -61 -106 -65 -116 -14 -37 -109 -177 -120 -177 -11 0
-236 370 -253 415 -5 11 -31 54 -59 97 -86 131 -109 167 -148 236 -21 36 -45
74 -53 83 -15 16 -13 23 17 76 18 32 46 76 61 97 15 21 28 43 28 47 0 5 17 34
38 66 91 137 132 203 132 212 0 14 138 219 149 220 2 1 56 -52 120 -116z
m6632 -256 c15 -12 28 -29 28 -38 1 -9 9 -23 19 -33 11 -9 27 -44 37 -79 10
-34 23 -68 28 -75 21 -27 -6 -24 -75 11 -84 42 -92 48 -134 102 -45 60 -46 62
-29 94 28 56 71 62 126 18z m1408 -47 c1 -25 5 -71 11 -103 5 -31 10 -101 10
-155 2 -127 17 -297 36 -397 26 -136 65 -288 87 -335 17 -37 22 -71 25 -182 3
-83 1 -138 -5 -138 -14 0 -59 139 -104 315 -20 83 -46 182 -57 220 -51 185
-73 297 -60 312 6 7 7 20 4 29 -11 28 -8 257 4 309 6 28 14 66 16 85 17 127
16 125 25 105 4 -11 8 -40 8 -65z m-2094 62 c7 -4 10 -89 10 -232 0 -274 14
-1103 20 -1220 3 -47 7 -195 10 -330 5 -298 14 -572 21 -700 l5 -96 -48 -11
c-53 -13 -174 -24 -298 -28 -44 -1 -121 -6 -171 -10 l-92 -7 12 49 c15 67 11
283 -9 440 -9 73 -14 137 -11 142 7 11 -16 130 -40 211 -20 67 -91 177 -151
234 -43 42 -177 106 -250 121 -31 6 -33 9 -34 48 0 23 -2 54 -3 70 l-2 27 76
2 c84 2 90 2 210 -8 163 -13 289 -8 375 16 142 40 161 73 115 204 -46 131 -70
213 -70 242 0 15 -9 65 -19 113 -24 111 -42 301 -47 522 l-4 176 152 15 c182
18 230 20 243 10z m909 -31 c14 -25 23 -61 57 -213 10 -46 4 -128 -10 -128
-10 0 -69 93 -96 153 -52 112 -53 186 -2 207 33 13 35 12 51 -19z m236 -161
c6 -11 14 -44 17 -73 3 -29 13 -63 22 -77 17 -27 18 -36 7 -145 -11 -115 -28
-215 -37 -215 -10 0 -39 58 -39 79 0 9 -13 50 -29 91 -36 96 -47 207 -27 274
24 78 63 108 86 66z m-547 -32 c34 -24 67 -48 73 -53 6 -6 31 -19 55 -29 24
-10 55 -23 69 -30 28 -13 75 -90 65 -106 -16 -26 -185 1 -207 33 -3 6 -34 24
-69 41 -42 21 -69 42 -82 63 -18 32 -18 33 2 78 11 25 23 45 26 45 4 0 35 -19
68 -42z m1362 -253 c3 -33 9 -73 14 -90 5 -16 12 -53 15 -81 4 -27 15 -76 26
-107 11 -31 20 -65 20 -75 0 -11 8 -46 19 -78 10 -33 21 -77 24 -99 3 -22 13
-60 21 -84 9 -24 16 -52 16 -62 0 -17 24 -100 51 -174 6 -16 20 -54 30 -82 10
-29 30 -68 44 -87 24 -31 26 -41 21 -98 -2 -35 -5 -81 -6 -103 l-1 -40 -15 35
c-24 55 -65 172 -74 210 -5 19 -15 53 -24 76 -25 69 -84 305 -96 389 -6 44
-25 134 -40 200 -16 66 -31 140 -34 165 -3 25 -10 70 -16 100 -15 73 -29 261
-21 280 5 14 12 -35 26 -195z m-634 153 c19 -35 40 -149 41 -218 1 -36 -6
-101 -15 -145 -9 -44 -18 -94 -21 -111 -5 -40 -28 -89 -41 -88 -5 0 -27 26
-48 56 -31 45 -37 60 -28 75 5 11 12 41 15 69 10 96 19 199 21 229 4 61 18
111 38 133 25 27 24 27 38 0z m-653 -157 c9 -5 55 -21 101 -36 166 -52 221
-94 229 -174 4 -45 2 -51 -14 -51 -42 0 -149 22 -173 35 -14 7 -57 28 -94 46
-38 18 -76 44 -85 58 -20 30 -22 92 -3 115 16 19 16 19 39 7z m862 -105 c21
-24 22 -32 21 -158 -1 -73 -4 -153 -6 -178 -4 -56 -29 -170 -42 -196 -6 -10
-14 -37 -18 -59 -4 -22 -13 -56 -22 -75 -12 -31 -15 -33 -24 -17 -28 49 -69
197 -69 249 0 31 -4 60 -10 63 -6 4 -6 13 -1 23 5 9 14 49 19 87 22 147 36
198 60 208 12 5 24 19 28 31 7 24 23 46 33 46 4 0 18 -11 31 -24z m-13135
-126 c216 -11 400 -48 495 -101 83 -46 179 -87 230 -100 54 -13 55 -13 22 -20
-18 -4 -35 -9 -38 -11 -12 -13 39 -39 84 -44 68 -7 102 -17 100 -29 -1 -12
-88 -49 -192 -81 -93 -28 -154 -62 -204 -113 -63 -63 -104 -88 -197 -120 -140
-47 -516 -102 -540 -80 -10 10 -9 704 1 720 2 4 19 3 37 -3 17 -5 109 -13 202
-18z m12416 -66 c18 -9 63 -16 113 -18 151 -6 249 -61 287 -161 18 -47 12 -62
-19 -50 -26 10 -173 35 -206 35 -16 0 -37 7 -46 15 -9 8 -47 21 -84 29 -54 11
-74 20 -92 43 -31 39 -38 82 -18 105 21 22 27 22 65 2z m898 -192 c23 -45 26
-66 18 -112 -4 -19 -9 -62 -12 -94 -3 -35 -18 -88 -36 -130 -52 -116 -57 -130
-65 -159 -8 -34 -30 -45 -49 -26 -7 8 -25 36 -40 63 -28 52 -28 61 -1 151 20
68 41 148 56 219 8 41 17 60 30 63 10 3 24 18 30 34 17 41 45 37 69 -9z
m-12179 -12 c12 -8 -9 -90 -24 -90 -6 0 -19 -12 -29 -27 -9 -16 -40 -53 -68
-83 -56 -60 -189 -242 -189 -259 0 -6 -4 -11 -8 -11 -5 0 -22 -33 -39 -72 -28
-67 -47 -150 -58 -253 -4 -48 12 -218 26 -261 9 -28 24 -107 34 -176 6 -35 42
-141 70 -203 43 -93 65 -148 65 -157 0 -5 13 -35 29 -67 15 -32 34 -75 41 -97
7 -21 16 -43 20 -49 17 -23 89 -266 100 -335 6 -41 15 -97 20 -125 6 -27 14
-90 20 -140 5 -49 15 -117 20 -150 17 -95 22 -384 10 -477 -31 -230 -125 -582
-196 -735 -18 -40 -29 -47 -54 -33 -21 11 -28 54 -11 65 5 3 15 22 21 43 14
44 58 168 70 197 5 11 16 47 25 80 10 33 26 88 36 122 32 103 65 404 56 503
-4 36 -8 99 -10 141 -11 183 -72 498 -116 592 -17 36 -31 74 -32 84 0 10 -9
32 -20 48 -25 39 -31 53 -69 160 -18 50 -43 113 -55 140 -13 28 -28 66 -33 85
-21 73 -48 137 -82 193 -19 33 -44 75 -55 96 -37 68 -71 110 -116 144 -51 39
-130 77 -158 77 -11 0 -31 4 -45 10 -14 5 -74 14 -133 20 -96 10 -126 9 -270
-11 -90 -13 -165 -21 -167 -18 -7 7 -13 507 -6 519 4 6 39 9 91 8 99 -3 226 8
324 28 268 55 326 78 414 165 62 63 151 119 186 119 9 0 49 16 89 35 40 19 80
35 88 35 37 0 59 79 33 120 -5 8 15 11 69 9 42 -2 81 -6 86 -9z m9153 -54 c45
-7 91 -22 119 -39 43 -25 47 -31 53 -75 3 -26 9 -73 14 -105 5 -36 3 -124 -6
-230 -19 -235 -18 -229 -10 -254 7 -19 2 -26 -32 -48 -23 -14 -41 -30 -41 -35
0 -6 -5 -10 -12 -10 -7 0 -41 -20 -77 -44 -37 -24 -87 -55 -113 -68 l-47 -25
-88 22 c-194 48 -529 2 -671 -93 -15 -9 -53 -31 -85 -47 -64 -32 -107 -75
-107 -107 0 -13 -5 -18 -14 -15 -8 3 -20 0 -26 -8 -11 -13 -12 -46 -8 -290 1
-124 -4 -209 -11 -190 -11 28 -21 180 -27 401 -5 214 -7 236 -35 394 -26 147
-36 411 -20 529 19 130 35 163 95 194 28 14 62 29 76 32 14 4 43 17 65 29 64
35 200 63 390 81 164 15 521 16 618 1z m2302 -1 c11 -2 23 -3 26 -2 3 1 13 -4
22 -11 10 -8 39 -12 79 -11 104 3 189 -54 204 -138 4 -21 11 -44 17 -51 15
-19 -11 -34 -48 -27 -16 3 -76 28 -132 55 -57 28 -127 57 -158 65 -30 7 -60
17 -66 21 -18 11 -38 69 -32 92 5 21 11 22 88 7z m855 -131 c0 -15 -6 -24 -15
-24 -17 0 -18 4 -9 37 8 29 24 20 24 -13z m103 -114 c19 -58 48 -134 64 -170
16 -36 33 -79 37 -95 12 -47 100 -246 172 -387 32 -64 34 -74 34 -168 0 -55
-3 -100 -8 -100 -17 0 -69 104 -162 327 -69 163 -70 169 -69 248 2 99 -6 131
-41 170 -16 17 -33 52 -40 80 -26 115 -30 132 -35 180 -8 68 5 45 48 -85z
m-748 -29 c70 -12 184 -99 198 -151 7 -26 -8 -26 -68 0 -26 11 -63 20 -82 20
-41 0 -145 49 -185 88 -26 24 -39 78 -22 95 3 3 32 -6 63 -20 31 -14 74 -29
96 -32z m-7110 9 c43 0 83 -48 105 -125 11 -38 20 -81 20 -95 0 -42 -54 -143
-98 -182 -62 -56 -77 -61 -157 -55 -90 8 -95 10 -122 50 -43 63 -39 177 10
287 31 70 147 146 195 129 13 -5 34 -9 47 -9z m7720 -92 c-7 -90 -9 -94 -46
-135 -22 -24 -39 -51 -39 -60 0 -10 -4 -24 -9 -32 -7 -11 -12 -7 -24 16 -17
31 -15 42 25 202 16 61 47 101 78 101 22 0 22 -2 15 -92z m-862 43 c15 -10 35
-27 42 -39 16 -21 45 -132 45 -170 0 -19 -4 -21 -27 -16 -59 15 -130 54 -175
96 -49 45 -58 71 -37 109 21 40 105 52 152 20z m-1869 -172 c87 -43 108 -59
148 -110 27 -34 55 -83 63 -112 36 -118 63 -213 63 -227 1 -38 13 -156 17
-168 9 -24 17 -322 11 -357 -7 -36 -29 -47 -40 -20 -9 25 -36 17 -81 -22 -88
-79 -121 -103 -137 -103 -9 0 -19 -4 -22 -9 -11 -18 -234 -81 -301 -86 -22 -1
-66 -6 -97 -10 -63 -8 -143 12 -172 44 -15 16 -14 19 12 45 24 22 56 33 183
61 85 19 168 35 186 35 17 0 34 4 37 9 3 5 18 12 33 16 31 7 187 99 217 127
11 10 23 18 28 18 19 0 88 76 88 97 0 33 -35 49 -63 28 -91 -66 -156 -107
-177 -111 -14 -3 -32 -9 -40 -13 -8 -4 -33 -17 -55 -28 -62 -32 -196 -80 -265
-94 -25 -6 -65 -14 -89 -20 -23 -5 -106 -12 -182 -16 -121 -5 -144 -4 -179 12
-46 21 -52 46 -17 70 90 64 102 68 172 71 39 1 95 6 125 10 30 4 58 7 61 6 9
-2 139 35 189 53 92 34 242 115 328 177 56 41 67 72 36 102 -25 26 -51 19
-137 -37 -45 -30 -100 -62 -122 -72 -22 -10 -46 -22 -53 -28 -22 -17 -183 -76
-227 -83 -22 -4 -45 -11 -52 -16 -7 -5 -16 -7 -21 -4 -5 3 -49 1 -98 -5 -88
-11 -198 -1 -233 20 -18 12 -7 54 22 82 36 34 86 53 304 108 58 15 263 142
322 200 9 9 32 27 51 41 52 38 80 67 80 84 0 8 -9 30 -20 49 -17 29 -20 47
-16 108 2 41 5 86 5 102 1 15 4 27 8 27 3 0 52 -23 107 -51z m2034 12 c-4 -38
8 -61 58 -108 31 -29 62 -53 69 -53 22 0 35 -26 42 -81 6 -53 20 -85 55 -123
13 -14 18 -36 18 -74 l0 -55 -20 26 c-11 14 -20 31 -20 39 0 7 -21 36 -45 63
-25 28 -48 60 -51 72 -3 12 -12 24 -20 27 -8 3 -14 13 -14 22 0 9 -20 44 -44
79 -41 59 -52 92 -61 188 -2 16 0 16 16 1 10 -9 18 -19 17 -23z m810 -70 c4
-49 -1 -73 -27 -141 -18 -45 -37 -91 -43 -103 -6 -12 -14 -28 -17 -35 -11 -25
-23 -17 -51 37 l-29 54 26 66 c14 36 34 92 46 124 14 41 25 57 38 57 10 0 21
5 25 11 13 21 28 -10 32 -70z m-583 48 c5 -5 25 -9 45 -9 22 0 56 -13 93 -35
32 -19 60 -35 63 -35 3 0 18 -10 35 -22 33 -24 62 -75 49 -83 -8 -5 -73 13
-165 46 -16 6 -46 15 -65 21 -58 17 -169 103 -170 131 0 11 102 -2 115 -14z
m-523 -29 c32 -25 157 -90 173 -90 18 0 151 -126 143 -135 -10 -11 -221 26
-236 42 -7 7 -23 15 -35 17 -147 30 -156 36 -164 96 -6 39 -3 46 23 67 36 28
63 29 96 3z m-8687 -187 c3 -32 10 -74 14 -95 13 -56 5 -60 -75 -42 -126 29
-120 22 -66 80 26 28 59 65 75 82 15 18 31 32 36 32 5 0 12 -26 16 -57z m9340
7 c6 -4 30 -11 55 -15 25 -4 50 -11 55 -15 6 -4 23 -10 39 -14 48 -12 135 -84
136 -113 1 -38 -140 -23 -271 29 -78 31 -83 35 -93 73 -10 35 -12 50 -7 70 1
8 73 -5 86 -15z m592 -225 c33 -104 104 -242 155 -300 22 -25 38 -48 35 -51
-6 -7 -159 145 -217 216 -25 30 -48 57 -52 58 -5 2 -8 8 -8 14 0 6 -14 28 -31
50 -27 33 -31 45 -27 81 3 23 18 63 34 89 l29 47 28 -62 c16 -34 40 -98 54
-142z m-6004 134 c61 -31 87 -50 218 -159 72 -59 100 -81 139 -108 13 -9 43
-35 66 -57 38 -36 42 -47 53 -115 32 -210 90 -367 161 -438 18 -19 29 -37 24
-41 -12 -11 -307 -32 -526 -38 l-176 -5 -13 23 c-13 25 -19 140 -18 324 0 61
1 117 0 125 -10 254 -7 520 5 520 3 0 33 -14 67 -31z m5020 -15 c99 -21 136
-35 143 -56 3 -10 9 -18 14 -18 4 0 17 -15 28 -33 l19 -34 -71 4 c-159 8 -201
12 -267 23 -38 7 -76 19 -84 27 -18 18 -20 84 -2 102 14 15 105 9 220 -15z
m435 -108 l31 -16 0 -88 c-1 -85 3 -123 17 -169 3 -13 4 -23 2 -23 -12 0 -107
131 -130 180 -29 60 -31 67 -29 122 l1 37 39 -14 c21 -7 53 -20 69 -29z
m-9483 7 c131 -42 188 -68 275 -124 146 -95 190 -117 262 -134 37 -8 71 -14
75 -13 18 4 113 -15 119 -24 3 -5 3 -24 0 -43 -5 -26 -18 -41 -59 -68 -81 -54
-90 -54 -144 -8 -27 22 -75 50 -108 62 -68 25 -92 40 -225 139 -160 119 -193
137 -316 175 -65 19 -120 37 -122 40 -2 2 6 6 19 9 13 3 33 7 44 10 31 7 125
-4 180 -21z m-311 -54 c39 -5 95 -17 126 -25 30 -8 69 -19 85 -23 62 -16 123
-50 223 -123 56 -42 96 -78 90 -81 -21 -7 -111 4 -138 18 -62 31 -341 82 -376
68 -8 -3 -35 0 -61 6 -27 6 -93 13 -148 16 -110 6 -168 17 -190 35 -20 16 -19
74 1 91 43 35 212 43 388 18z m10001 -19 c22 -43 47 -200 35 -215 -12 -14 -19
-63 -19 -138 l-1 -48 -31 23 c-33 25 -69 85 -69 116 0 11 -7 35 -15 54 -19 46
-31 213 -17 230 7 9 27 12 57 10 38 -3 48 -9 60 -32z m146 8 c86 -122 293
-337 356 -369 l33 -17 3 -131 c3 -72 1 -134 -3 -136 -4 -3 -14 3 -21 12 -8 9
-33 25 -56 35 -42 19 -43 20 -43 70 0 100 -44 181 -110 203 -24 8 -36 20 -43
41 -27 93 -69 148 -119 158 -32 6 -34 9 -37 49 -1 23 -9 52 -17 64 -22 35 -18
44 28 52 4 0 17 -14 29 -31z m-3466 12 c4 -6 -7 -13 -25 -16 -17 -4 -33 -11
-36 -15 -3 -5 -15 -9 -27 -9 -28 0 -92 -32 -124 -61 -40 -38 -58 -155 -30
-199 17 -29 -4 -40 -73 -40 -140 0 -262 21 -388 67 -97 36 -67 86 102 167 141
69 212 93 301 105 100 12 293 13 300 1z m2870 -51 c43 -20 157 -123 168 -150
7 -19 -33 -32 -55 -17 -7 4 -67 7 -133 6 -74 -1 -134 3 -157 11 -42 14 -98 72
-98 102 0 29 18 59 35 59 8 0 15 4 15 9 0 17 181 1 225 -20z m-12589 -24 c224
-43 323 -120 293 -228 -12 -44 -118 -153 -172 -177 -23 -11 -53 -26 -67 -34
-104 -64 -348 -137 -502 -151 l-78 -7 -1 28 c0 16 0 144 1 284 1 184 4 257 13
262 7 4 34 9 62 12 27 3 88 9 135 14 134 14 232 13 316 -3z m2651 -89 c54 -27
78 -32 217 -46 81 -8 106 -15 140 -38 95 -64 141 -74 386 -83 240 -9 298 -16
370 -47 42 -18 110 -81 110 -102 0 -16 -93 -64 -170 -88 -118 -35 -196 -50
-328 -62 -151 -14 -193 -9 -464 55 -31 7 -66 11 -77 8 -69 -18 42 -83 189
-111 132 -26 255 -43 272 -38 7 3 63 7 125 10 62 3 124 11 138 16 75 28 77 4
8 -83 -33 -41 -61 -62 -129 -96 -164 -82 -331 -99 -523 -51 -79 19 -121 19
-121 0 0 -16 86 -58 145 -70 33 -6 78 -17 100 -23 92 -27 250 -10 348 39 16 8
36 14 46 14 9 0 26 7 37 15 46 34 42 8 -8 -66 -40 -57 -90 -96 -197 -150 -69
-35 -95 -43 -155 -47 -54 -3 -80 0 -104 12 -34 18 -82 21 -82 6 0 -13 39 -48
75 -68 36 -20 165 -21 237 -1 138 36 -1 -83 -146 -126 -27 -8 -51 -15 -52 -15
-2 0 -15 11 -30 25 -15 14 -36 25 -46 25 -33 0 -121 29 -160 53 -47 28 -145
124 -182 178 -43 61 -101 175 -128 249 -20 57 -23 83 -23 205 1 102 5 154 17
193 10 29 15 59 12 67 -3 8 1 28 9 45 9 16 18 44 22 62 4 18 17 53 30 78 13
25 26 53 29 63 7 21 5 22 63 -7z m10557 -106 c27 -81 21 -151 -21 -248 -12
-28 -17 -31 -29 -21 -56 46 -75 283 -24 296 10 3 21 14 24 26 8 31 30 7 50
-53z m-476 -11 l102 -11 75 -71 c41 -38 75 -73 75 -77 0 -8 -222 -4 -330 5
-98 9 -138 26 -145 62 -4 15 -8 33 -9 38 -7 23 13 49 44 60 35 12 34 12 188
-6z m-4728 -9 c14 -11 28 -20 32 -20 4 0 29 -13 55 -28 26 -16 68 -36 93 -44
25 -9 97 -35 160 -58 115 -41 326 -100 360 -100 25 0 26 -4 35 -79 5 -43 4
-62 -3 -57 -6 3 -46 0 -89 -8 -43 -8 -118 -19 -168 -25 -49 -6 -142 -18 -205
-26 -146 -19 -159 -19 -167 3 -4 9 -21 38 -39 65 -44 63 -72 143 -85 236 -6
42 -14 93 -19 113 -11 53 -1 60 40 28z m1025 -64 c108 -41 212 -57 340 -54
l125 3 -7 -53 c-5 -48 -3 -57 27 -101 29 -42 41 -51 89 -65 31 -9 78 -17 106
-19 49 -2 49 -2 57 -41 5 -21 16 -50 26 -63 24 -34 137 -82 190 -83 28 0 45
-5 48 -15 8 -21 -14 -217 -26 -229 -6 -6 -10 -16 -10 -24 0 -18 -56 -69 -122
-112 -46 -31 -112 -47 -219 -55 -26 -2 -60 -6 -75 -9 -42 -8 -250 10 -314 27
-83 23 -178 63 -216 92 -18 14 -36 25 -41 25 -4 1 -20 11 -35 23 -30 24 -41
64 -53 197 -8 85 -14 608 -7 628 3 9 16 2 41 -22 20 -19 54 -41 76 -50z
m-8611 -68 c18 -40 39 -89 46 -108 22 -60 90 -224 100 -242 6 -10 10 -24 10
-31 0 -18 37 -94 50 -102 5 -3 10 -14 10 -23 0 -9 14 -44 30 -77 16 -33 30
-66 30 -73 0 -7 4 -20 9 -30 17 -32 51 -198 51 -248 0 -27 4 -54 9 -59 14 -16
33 -242 32 -385 -2 -241 -51 -510 -126 -685 -7 -16 -25 -64 -40 -105 -15 -41
-34 -90 -43 -107 -15 -31 -18 -32 -57 -25 -100 18 -245 0 -390 -47 -236 -77
-502 -174 -563 -205 -40 -20 -77 -34 -81 -31 -5 3 -7 114 -4 247 2 134 0 506
-6 828 -6 322 -12 713 -13 870 l-3 284 81 2 c116 3 316 54 428 110 27 14 51
22 54 20 3 -3 28 7 56 23 28 15 63 31 78 34 34 9 163 140 179 182 12 30 28 55
35 55 3 0 19 -33 38 -72z m12944 -32 c11 -37 10 -45 -12 -168 -10 -54 -22 -98
-27 -98 -12 0 -68 88 -76 118 -10 40 7 110 32 134 14 13 25 28 25 34 0 5 5 15
12 22 16 16 35 -1 46 -42z m-8504 -67 c64 -16 138 -43 164 -58 42 -24 48 -32
54 -72 13 -86 -23 -146 -115 -192 -101 -51 -221 -75 -372 -76 -86 -1 -112 4
-184 29 -94 33 -118 52 -197 157 -65 86 -100 109 -211 139 -47 12 -87 25 -91
28 -7 8 33 46 48 46 6 0 29 -9 51 -20 51 -24 107 -33 218 -33 72 0 100 5 176
33 161 58 290 64 459 19z m8163 -18 c53 -33 92 -89 78 -112 -5 -8 -26 -9 -64
-5 -31 4 -65 7 -76 7 -64 1 -193 24 -207 37 -31 26 -18 93 20 103 7 2 54 4
105 4 87 0 95 -2 144 -34z m-7192 -32 c289 -42 448 -76 600 -129 11 -4 52 -17
90 -30 105 -35 255 -114 302 -159 85 -82 137 -183 149 -289 16 -147 9 -270
-28 -442 -15 -70 -84 -282 -107 -329 -108 -218 -185 -338 -266 -412 -100 -92
-142 -129 -149 -129 -4 0 -22 -10 -39 -23 -38 -27 -70 -39 -202 -78 -102 -29
-140 -34 -170 -22 -15 5 -11 11 19 37 26 22 38 42 42 67 5 32 3 39 -25 58 -17
12 -46 25 -64 28 -35 5 -44 -2 -139 -108 -22 -25 -29 -26 -118 -28 -116 -2
-149 -10 -269 -69 -91 -44 -99 -46 -215 -53 -110 -6 -170 -6 -421 6 -91 4
-218 20 -320 40 -38 7 -88 16 -110 19 -99 13 -318 84 -433 141 -78 38 -223
165 -310 272 -72 87 -111 147 -183 282 -48 89 -91 260 -118 466 -5 39 -12 82
-16 97 -5 20 0 33 23 59 35 41 62 91 62 117 0 20 26 48 62 66 24 12 79 116
107 203 10 34 46 87 91 135 25 27 52 39 180 80 36 11 77 26 91 34 21 11 29 11
45 0 10 -7 31 -16 46 -20 17 -4 47 -31 81 -74 30 -37 78 -89 106 -115 65 -61
59 -78 -28 -70 -63 6 -77 0 -157 -64 -34 -28 -47 -32 -88 -29 -39 2 -55 -3
-84 -24 -66 -49 -76 -64 -68 -116 5 -43 3 -51 -27 -88 -34 -44 -50 -73 -65
-121 -6 -22 -16 -31 -40 -36 -36 -7 -89 -59 -109 -107 -7 -18 -18 -30 -23 -27
-12 7 -36 93 -45 156 -4 35 -12 49 -30 59 -14 7 -28 10 -32 6 -5 -4 -8 -38 -8
-74 1 -57 6 -78 37 -137 43 -84 145 -185 231 -230 32 -16 77 -40 100 -52 23
-12 50 -22 60 -22 9 -1 25 -5 35 -10 9 -5 64 -24 122 -42 58 -17 128 -40 155
-50 73 -25 269 -70 388 -89 38 -6 103 -17 145 -26 202 -39 364 -53 518 -44 71
5 137 5 148 1 28 -9 264 12 296 27 14 6 63 21 110 32 47 12 114 30 150 41 36
12 76 23 90 25 14 3 43 13 65 23 22 10 61 26 87 35 26 10 50 22 53 27 4 5 13
9 22 9 34 0 211 100 261 148 7 6 17 12 21 12 4 0 21 12 37 26 16 14 52 43 80
65 28 21 65 60 84 86 18 27 50 71 71 98 21 28 43 73 50 100 6 28 15 55 19 60
9 11 14 61 11 116 -1 41 -24 74 -58 84 -24 7 -32 -12 -53 -126 -12 -63 -28
-99 -46 -99 -22 0 -62 26 -88 58 -29 33 -68 57 -115 67 -21 4 -37 19 -55 50
-33 55 -80 84 -145 90 -57 4 -85 27 -96 78 -4 16 -14 31 -23 34 -10 4 -32 19
-50 35 -37 31 -72 35 -116 13 -38 -20 -51 -19 -87 7 -45 33 -153 38 -213 9
l-44 -22 -45 32 c-24 17 -55 31 -68 31 -36 1 -192 -19 -209 -26 -10 -4 -34 7
-62 30 -30 22 -62 38 -88 41 -22 3 -42 9 -45 12 -2 4 2 34 9 68 11 53 10 65
-6 103 -10 24 -16 46 -12 49 8 8 304 17 434 14 58 -2 168 -13 245 -24z m4854
-6 c-1 -21 -37 -141 -49 -165 -8 -18 -21 -28 -35 -28 -13 0 -29 -7 -36 -16
-56 -68 -235 -106 -376 -79 -48 9 -45 41 5 50 91 16 249 58 267 69 11 8 33 25
48 40 16 14 46 35 67 46 21 11 51 36 66 55 24 32 45 45 43 28z m2811 -96 c33
-25 89 -137 90 -176 0 -11 -12 -12 -55 -7 -72 8 -102 23 -111 55 -9 32 -7 45
16 99 19 43 34 50 60 29z m-2113 -176 c1 -96 3 -201 4 -235 l3 -61 -90 -5
c-49 -3 -98 -10 -109 -16 -80 -43 -117 -56 -138 -50 -35 8 -133 -20 -205 -59
-47 -26 -75 -35 -111 -35 -53 0 -147 -29 -189 -58 -15 -11 -56 -24 -91 -30
-69 -12 -125 -38 -182 -83 -21 -17 -54 -31 -80 -34 -74 -11 -168 -47 -207 -81
-27 -23 -52 -33 -89 -39 -58 -8 -97 -32 -181 -114 -29 -28 -59 -51 -66 -51
-19 0 -93 -76 -112 -115 -9 -19 -25 -36 -39 -39 -37 -9 -81 -52 -126 -122 -23
-35 -48 -64 -55 -64 -21 0 -44 -42 -44 -80 0 -23 -9 -49 -25 -70 -17 -23 -25
-47 -25 -76 0 -26 -6 -46 -17 -55 -30 -26 -53 -91 -53 -157 0 -36 -6 -72 -14
-85 -22 -36 -28 -107 -12 -166 9 -36 11 -64 5 -85 -5 -17 -6 -44 -3 -61 11
-62 12 -70 13 -82 1 -6 21 -42 46 -79 27 -39 45 -78 45 -95 0 -33 60 -152 99
-194 15 -16 35 -55 44 -85 9 -31 32 -82 52 -114 19 -32 35 -60 35 -62 0 -3 11
-21 23 -42 13 -20 27 -50 31 -66 4 -16 20 -57 36 -90 15 -34 38 -88 49 -121
21 -58 21 -59 2 -79 -11 -12 -30 -43 -42 -71 -29 -66 -32 -201 -5 -260 13 -27
18 -61 17 -108 -1 -76 3 -87 60 -153 22 -26 52 -72 65 -103 40 -90 129 -171
189 -171 18 0 43 -18 88 -65 53 -56 73 -69 132 -90 39 -14 84 -25 100 -25 24
0 39 -10 69 -46 51 -61 102 -84 189 -84 l68 0 45 -49 c55 -60 127 -87 210 -78
l54 6 37 -45 c58 -72 99 -88 227 -90 100 -2 110 -4 135 -27 14 -14 40 -32 57
-40 42 -22 147 -31 209 -18 48 9 51 8 81 -20 59 -57 194 -76 301 -42 l53 17
30 -31 c17 -17 45 -34 64 -37 43 -8 149 7 205 30 42 16 44 16 57 0 7 -10 32
-28 56 -41 50 -26 157 -33 231 -14 44 11 47 10 87 -22 37 -30 48 -33 113 -35
70 -2 157 12 167 27 3 4 17 10 33 14 20 5 28 3 33 -8 14 -39 148 -52 218 -22
33 14 46 15 83 4 34 -9 50 -9 70 0 21 9 30 9 49 -4 18 -12 29 -13 44 -5 27 14
25 46 -4 75 -21 21 -32 24 -88 21 -37 -1 -77 3 -97 12 -32 13 -38 12 -86 -13
-74 -37 -127 -36 -168 3 -44 41 -63 43 -131 9 -46 -23 -72 -30 -123 -30 -62
-1 -66 1 -96 36 -38 44 -70 53 -117 34 -84 -35 -230 -28 -230 9 0 22 -42 54
-71 54 -15 0 -57 -11 -93 -25 -73 -27 -160 -33 -173 -12 -28 46 -85 57 -167
32 -95 -29 -194 -15 -214 30 -6 13 -25 31 -42 40 -28 14 -37 14 -107 0 -98
-20 -170 -8 -206 35 -13 15 -39 36 -57 45 -28 15 -39 15 -73 5 -53 -16 -149
-4 -182 22 -14 11 -32 32 -40 48 -27 51 -69 68 -161 63 -80 -5 -82 -4 -117 27
-20 17 -39 39 -42 49 -9 30 -55 44 -144 45 l-83 1 -47 51 c-51 57 -77 74 -115
74 -96 0 -178 46 -217 121 -25 49 -59 72 -93 63 -44 -11 -74 3 -96 46 -11 21
-20 48 -20 59 0 24 -53 87 -81 96 -22 7 -31 35 -34 113 -1 31 -10 77 -20 102
-25 60 -24 196 0 234 21 32 31 26 45 -24 6 -22 15 -40 20 -40 12 0 50 -73 50
-97 0 -10 9 -29 20 -43 11 -14 20 -33 20 -44 0 -10 29 -48 64 -85 35 -36 82
-85 104 -108 22 -24 49 -43 61 -43 13 0 30 -14 46 -39 38 -61 76 -93 103 -86
27 7 48 -4 107 -55 26 -23 57 -40 70 -40 36 0 74 -19 143 -73 51 -40 68 -48
91 -44 23 5 43 -4 106 -49 43 -29 89 -54 101 -54 13 0 46 -14 74 -32 40 -25
65 -33 113 -36 61 -3 97 -14 127 -38 8 -7 42 -26 74 -44 51 -27 66 -31 107
-26 39 5 58 1 111 -24 70 -33 100 -37 141 -15 31 16 32 16 145 -37 77 -35 87
-37 122 -27 35 11 44 9 113 -25 74 -35 77 -36 117 -22 36 12 47 12 103 -6 78
-24 117 -25 156 -2 26 16 38 16 88 7 32 -6 79 -19 105 -29 41 -16 52 -17 97
-5 49 12 53 12 95 -13 56 -33 79 -33 110 1 37 39 107 31 179 -21 l27 -20 30
22 c37 27 39 27 102 -3 53 -26 112 -33 123 -15 10 16 50 12 105 -10 32 -13 74
-20 115 -20 35 0 66 -4 69 -8 3 -4 7 -64 11 -133 3 -68 10 -173 15 -234 5 -60
10 -124 10 -141 l0 -31 -122 0 c-68 0 -294 -1 -503 -2 -209 -1 -519 1 -690 3
-170 3 -467 8 -660 10 -192 3 -417 8 -500 11 -155 5 -351 9 -970 22 -198 5
-596 6 -885 5 -536 -4 -580 -5 -945 -19 -179 -6 -960 -7 -3395 -1 -250 0 -833
-3 -1295 -8 -462 -5 -857 -7 -878 -4 l-39 5 48 45 c26 25 66 63 89 85 23 22
64 61 91 86 27 25 60 61 74 79 14 18 33 40 43 49 10 9 34 42 53 73 20 32 39
58 43 58 4 0 13 17 20 38 7 20 26 62 42 93 16 31 38 88 50 125 12 38 28 81 35
97 16 29 49 205 41 213 -3 3 1 25 9 50 12 41 11 61 -7 177 -12 73 -23 148 -26
167 -6 41 -136 296 -199 391 -71 108 -294 335 -399 408 -73 50 -303 181 -319
181 -5 0 -45 15 -90 34 -165 70 -217 86 -354 115 -77 17 -150 35 -163 40 -65
26 -192 62 -254 71 -67 10 -250 28 -277 27 -7 0 -20 1 -29 1 -15 2 -101 99
-302 344 -51 62 -108 129 -125 148 -37 40 -38 45 -16 88 8 18 24 61 34 96 10
36 25 78 34 93 24 45 56 124 56 141 0 8 9 30 21 48 11 19 18 34 15 34 -4 0 0
13 9 30 8 16 15 41 15 56 0 14 7 52 15 83 7 31 16 90 19 131 3 41 10 95 17
120 14 55 5 273 -17 440 -29 223 -66 436 -85 499 -11 35 -18 65 -17 67 2 1 57
7 123 13 156 15 268 29 330 42 40 9 62 8 111 -5 34 -9 74 -16 88 -16 14 0 55
-11 92 -25 36 -14 75 -25 85 -25 11 0 45 -9 77 -21 73 -26 171 -33 458 -32
l230 1 27 -42 c56 -89 151 -194 212 -236 22 -15 78 -41 125 -57 47 -17 110
-41 141 -53 l57 -22 103 35 c57 20 104 35 105 34 1 -1 4 -45 8 -97 4 -52 9
-106 12 -120 6 -32 22 -102 36 -160 13 -56 98 -236 146 -310 36 -55 80 -113
137 -180 51 -60 219 -220 231 -220 6 0 18 -7 25 -16 31 -37 239 -126 389 -166
118 -32 137 -35 285 -58 257 -41 439 -56 628 -52 53 1 97 -2 97 -7 0 -5 -21
-37 -46 -71 -45 -62 -112 -192 -132 -260 -6 -19 -16 -69 -22 -110 -23 -155
-51 -267 -86 -347 -8 -17 -14 -36 -14 -42 0 -5 -13 -32 -28 -58 -16 -26 -31
-55 -35 -63 -11 -23 -37 -62 -104 -156 -87 -120 -144 -242 -168 -356 -3 -16
-9 -28 -13 -28 -4 0 -31 35 -60 79 -65 95 -143 268 -171 376 -47 184 -63 253
-71 300 -24 145 -30 206 -25 289 3 50 8 138 11 196 8 137 8 139 -11 160 -25
27 -132 60 -196 60 -51 0 -101 -69 -80 -109 6 -11 11 -55 11 -99 0 -110 -33
-206 -114 -336 -50 -80 -52 -84 -120 -221 -92 -187 -104 -214 -120 -276 -7
-30 -21 -75 -29 -100 -43 -126 -63 -469 -38 -646 22 -157 98 -340 195 -473 58
-79 212 -230 235 -230 11 0 26 -9 33 -19 8 -11 38 -36 68 -56 30 -20 62 -43
70 -50 38 -33 215 -126 224 -118 3 4 6 2 6 -4 0 -5 21 -19 48 -30 116 -50 174
-73 184 -73 5 0 24 -6 41 -14 37 -16 144 -51 202 -65 22 -6 90 -24 150 -41
251 -71 422 -101 437 -77 5 9 8 9 8 1 0 -22 290 -33 505 -20 147 9 396 49 515
82 47 13 101 26 120 29 74 12 210 62 223 82 4 7 18 13 31 13 13 0 53 20 88 44
35 24 80 48 99 54 94 25 150 90 162 187 8 62 -13 102 -74 140 -76 49 -129 66
-219 71 -342 19 -421 28 -648 75 -63 13 -127 36 -126 45 1 4 22 18 45 32 24
13 58 36 74 51 17 16 38 31 47 34 18 6 88 104 88 124 0 6 4 13 8 15 16 7 72
130 93 204 45 164 7 374 -113 634 -22 47 -41 92 -43 100 -2 8 -13 55 -24 103
-25 104 -26 183 -6 372 37 349 7 497 -126 623 -27 25 -49 51 -49 57 0 7 25 18
55 25 31 7 58 17 61 22 3 4 13 8 23 8 54 0 205 90 305 183 13 12 35 30 48 39
14 9 59 68 101 130 107 160 200 347 237 473 8 31 27 84 41 120 16 42 31 195
31 315 -1 204 -31 334 -97 433 l-35 52 23 8 c12 5 159 10 327 12 284 4 595 18
700 31 25 3 97 8 160 10 118 5 223 16 320 34 30 6 81 13 112 15 32 3 81 10
109 15 29 6 55 10 59 10 9 0 15 -40 30 -180 12 -109 18 -161 26 -207 8 -52
103 -142 199 -187 124 -59 211 -85 305 -91 47 -3 117 -11 155 -17 87 -14 234
-13 248 1 6 6 19 11 29 11 17 0 85 17 228 57 87 25 185 101 220 172 13 27 23
69 26 110 2 36 7 79 12 96 8 29 8 29 123 42 129 14 274 63 285 95 3 10 9 18
13 18 15 0 79 65 98 100 l20 35 99 2 c184 4 379 13 434 22 92 14 85 27 87
-168z m1784 124 c33 -9 68 -23 78 -33 10 -9 30 -27 44 -39 38 -32 34 -43 -18
-43 -25 0 -45 3 -45 8 0 18 -50 36 -124 43 -44 4 -85 14 -93 22 -23 23 -5 46
40 50 23 2 46 4 51 5 4 1 35 -5 67 -13z m-4309 -27 c-9 -9 -12 -7 -12 12 0 19
3 21 12 12 9 -9 9 -15 0 -24z m5 -80 c-3 -8 -6 -5 -6 6 -1 11 2 17 5 13 3 -3
4 -12 1 -19z m-3660 -19 c49 -24 99 -69 108 -99 9 -28 27 -25 50 9 24 37 44
43 84 23 30 -14 32 -14 56 12 13 14 33 26 44 26 32 0 91 -32 91 -49 0 -9 7
-25 15 -35 14 -19 17 -18 89 19 90 46 127 44 187 -9 44 -41 51 -42 73 -20 20
20 59 24 108 11 47 -12 48 -24 4 -42 -38 -16 -91 -78 -81 -95 11 -18 29 -11
50 20 27 41 56 47 100 20 38 -23 39 -27 26 -62 -4 -13 -5 -32 -1 -42 6 -19 7
-19 26 2 10 11 25 28 33 37 10 13 24 16 54 12 53 -7 78 -34 84 -91 7 -61 25
-76 65 -53 23 13 34 15 50 6 32 -17 88 -71 88 -84 0 -20 38 -48 56 -41 13 5
15 2 9 -21 -3 -16 -17 -41 -30 -58 -44 -59 -161 -168 -220 -208 -76 -50 -287
-161 -340 -177 -22 -7 -44 -16 -50 -20 -5 -4 -44 -17 -85 -30 -41 -12 -109
-32 -150 -45 -189 -57 -353 -77 -660 -79 -169 -1 -233 3 -300 16 -47 10 -110
20 -140 22 -30 3 -109 16 -175 30 -66 14 -147 30 -180 37 -33 6 -145 38 -250
71 -104 32 -208 64 -230 70 -22 7 -82 32 -133 56 -103 49 -112 60 -112 141 0
41 4 50 30 69 16 12 33 22 37 22 19 0 63 56 63 80 0 14 13 47 29 72 24 37 37
48 65 54 43 7 86 -16 86 -46 0 -26 26 -26 40 1 10 17 6 25 -24 54 -20 19 -48
35 -64 37 -37 4 -40 36 -8 86 30 48 50 56 116 47 45 -6 53 -4 87 22 21 17 45
33 53 36 8 4 23 12 32 19 15 11 27 10 64 -4 51 -18 45 -20 101 46 17 21 26 25
40 18 39 -21 167 -42 250 -42 99 0 260 23 307 44 17 8 48 20 69 27 20 7 37 16
37 20 0 4 13 12 29 19 16 6 39 22 52 36 28 29 41 30 96 3z m3667 -14 c3 -8 1
-15 -4 -15 -6 0 -10 7 -10 15 0 8 2 15 4 15 2 0 6 -7 10 -15z m1242 -16 c19
-37 15 -105 -9 -192 -22 -76 -38 -98 -111 -155 -56 -45 -151 -84 -197 -81 -8
0 1 5 20 11 76 21 219 141 246 205 8 19 15 62 15 96 1 66 10 147 16 147 2 0
11 -14 20 -31z m3444 -58 l35 -16 3 -80 3 -80 -41 -13 c-31 -9 -56 -10 -108
-1 -64 11 -70 10 -122 -15 -58 -28 -90 -32 -118 -15 -14 9 -29 7 -65 -5 -60
-20 -116 -20 -144 -1 -24 17 -59 9 -82 -19 -21 -25 -73 -35 -127 -25 -36 7
-60 5 -94 -5 -62 -20 -98 -22 -143 -7 -33 11 -45 11 -85 -4 -26 -10 -51 -22
-57 -26 -14 -14 -53 -11 -79 6 -26 17 -65 8 -99 -23 -20 -17 -87 -18 -119 -1
-14 8 -26 5 -47 -11 -39 -27 -85 -35 -121 -20 -27 11 -34 9 -76 -19 -50 -33
-107 -41 -145 -21 -15 9 -26 6 -52 -13 -73 -55 -135 -71 -177 -45 -15 10 -29
8 -74 -11 -65 -26 -161 -38 -203 -24 -36 13 -52 7 -63 -23 -14 -36 -72 -55
-159 -53 -57 2 -76 -1 -80 -12 -2 -8 -19 -29 -38 -46 -27 -26 -44 -33 -76 -35
-23 0 -55 -3 -72 -5 -16 -2 -45 -4 -63 -4 -26 -1 -35 -7 -43 -27 -23 -60 -75
-85 -202 -98 -62 -6 -69 -9 -83 -36 -21 -41 -69 -58 -191 -66 -112 -7 -116
-10 -127 -62 -6 -29 -55 -61 -126 -81 -55 -15 -70 -26 -64 -44 7 -17 -58 -118
-89 -138 -12 -8 -43 -17 -69 -21 -52 -8 -68 -29 -48 -66 16 -30 -14 -85 -66
-121 -34 -23 -44 -36 -44 -58 0 -31 -45 -148 -66 -172 -10 -11 -12 -29 -8 -60
5 -38 2 -50 -25 -89 -37 -54 -37 -54 -10 -91 17 -24 20 -39 15 -73 -6 -35 -3
-45 15 -62 11 -10 24 -18 28 -17 3 1 5 -23 3 -53 -3 -61 8 -90 38 -99 15 -5
20 -15 20 -45 0 -55 15 -88 44 -96 36 -9 47 -26 51 -79 4 -59 17 -75 59 -68
28 4 36 1 53 -23 11 -16 26 -46 34 -67 19 -54 31 -61 75 -47 l38 13 62 -67
c59 -63 85 -78 99 -56 15 24 45 9 66 -32 27 -54 46 -68 84 -65 26 2 33 -4 55
-46 37 -67 54 -77 116 -70 43 4 54 2 68 -13 9 -11 32 -38 52 -61 42 -50 55
-53 81 -17 36 49 105 31 159 -43 40 -57 73 -79 95 -65 36 23 67 13 124 -38 61
-56 82 -61 91 -26 6 27 42 38 71 23 10 -6 35 -25 56 -44 41 -36 58 -41 77 -18
8 9 30 15 60 15 41 0 55 -6 96 -40 52 -43 74 -49 94 -25 21 25 77 19 96 -11 9
-14 30 -32 46 -40 27 -14 32 -14 49 2 31 28 106 15 164 -29 55 -42 55 -42 101
-21 47 23 94 13 154 -31 51 -37 75 -40 100 -10 24 29 126 11 159 -28 17 -21
57 -22 64 -3 3 8 24 20 46 27 49 15 104 2 165 -38 l40 -26 15 22 c51 71 43 67
95 47 26 -10 60 -29 75 -42 29 -24 51 -31 51 -16 0 18 65 42 114 42 44 0 60
-5 91 -30 47 -38 60 -38 92 1 24 28 31 31 68 27 31 -4 52 -15 79 -41 36 -35
66 -40 66 -11 0 21 33 33 97 36 l58 3 1 -220 c0 -121 -1 -223 -3 -228 -3 -4
-12 -3 -22 3 -12 6 -48 6 -104 -2 -77 -10 -88 -10 -112 6 -23 15 -29 16 -36 5
-5 -9 -1 -21 11 -34 17 -16 33 -20 93 -19 39 0 93 3 120 6 l47 5 0 -47 0 -47
-77 -11 c-82 -12 -215 -10 -247 3 -31 13 -14 -18 20 -35 33 -17 125 -21 193
-9 25 5 61 11 79 14 l33 6 -3 -68 -3 -67 -35 -8 c-19 -4 -92 -9 -162 -10 -90
-2 -128 -7 -128 -15 0 -32 163 -36 303 -7 l27 6 0 -76 c0 -86 3 -83 -100 -81
-139 3 -150 5 -167 25 -22 26 -43 26 -43 0 0 -54 71 -76 219 -68 l86 5 -1 -28
c-1 -16 -2 -42 -3 -59 l-1 -29 -71 0 c-39 0 -99 9 -133 19 -99 29 -115 31
-156 19 -29 -9 -43 -9 -53 -1 -25 21 -100 32 -143 21 -33 -9 -48 -8 -72 5 -17
9 -55 19 -86 22 -44 5 -62 3 -94 -14 -36 -19 -42 -19 -68 -6 -16 9 -50 20 -77
26 -39 8 -52 7 -72 -6 -22 -14 -28 -14 -90 9 -77 29 -161 33 -212 9 -33 -16
-38 -16 -120 10 -81 25 -88 25 -111 10 -23 -15 -27 -14 -89 16 -57 28 -72 32
-122 27 -49 -4 -64 -1 -121 28 -83 42 -151 53 -184 31 -23 -15 -28 -14 -78 12
-41 21 -69 27 -120 28 -61 1 -74 6 -130 42 -80 52 -108 62 -168 62 -38 0 -61
7 -97 30 -26 17 -65 35 -87 41 -83 22 -112 67 -36 54 36 -6 80 6 80 23 0 4
-44 15 -98 26 -63 12 -105 25 -119 38 -24 22 -43 17 -43 -13 0 -28 -26 -24
-68 11 -20 16 -48 39 -62 50 l-25 19 43 1 c70 0 51 23 -40 47 -46 12 -91 24
-100 28 -14 5 -18 2 -18 -14 0 -20 -2 -19 -47 9 -26 17 -55 30 -64 30 -10 0
-31 17 -46 37 -34 45 -74 82 -89 83 -17 0 -62 39 -46 40 7 0 23 -7 36 -15 28
-19 116 -32 116 -18 0 6 -26 23 -57 38 -32 16 -77 43 -100 61 -45 37 -63 42
-63 19 0 -44 -55 40 -75 115 -9 30 -43 88 -67 112 -24 24 -70 117 -102 206
-32 89 -32 101 -3 75 29 -27 67 -39 67 -21 0 8 -5 19 -12 26 -9 9 -8 12 5 12
14 0 54 -30 115 -87 7 -7 42 -29 78 -49 48 -27 68 -34 76 -26 16 16 -8 41 -69
72 -26 14 -51 30 -55 36 -4 6 -35 29 -68 50 -41 27 -60 45 -60 60 0 12 -22 39
-56 68 -30 27 -54 50 -52 52 2 2 26 -8 53 -21 26 -14 65 -25 85 -25 31 0 40
-5 61 -37 26 -39 97 -86 147 -97 16 -4 62 -29 100 -56 72 -49 133 -74 212 -85
38 -5 49 -12 72 -45 38 -54 165 -106 229 -93 22 4 37 -2 68 -26 75 -60 252
-110 343 -98 35 5 47 2 65 -15 72 -67 197 -104 294 -86 43 8 55 6 84 -12 58
-36 163 -61 222 -54 43 5 57 3 80 -14 55 -39 179 -54 305 -37 55 7 60 6 92
-23 45 -39 138 -57 255 -48 68 5 94 3 117 -9 40 -20 191 -21 211 -1 11 11 39
6 88 -15 56 -25 146 -27 219 -5 30 9 56 12 65 7 9 -5 31 -4 51 3 29 9 44 8 85
-6 67 -23 197 -24 230 -2 31 20 33 69 4 103 -20 24 -21 24 -49 8 -35 -21 -158
-22 -215 -2 -32 11 -47 12 -72 3 -24 -9 -35 -9 -46 0 -11 10 -23 8 -53 -5 -26
-11 -67 -17 -126 -17 -83 0 -88 1 -113 28 -27 29 -27 29 -105 1 -60 -23 -147
-15 -189 16 -31 22 -31 22 -68 5 -26 -12 -60 -18 -107 -17 -94 1 -140 16 -180
56 -31 31 -36 33 -72 24 -49 -11 -207 -11 -255 0 -22 5 -50 22 -67 42 -27 29
-33 32 -50 22 -40 -24 -88 -25 -167 -4 -42 12 -91 32 -108 45 -23 17 -38 21
-52 16 -11 -5 -52 -9 -92 -9 -56 -1 -85 5 -132 25 -34 15 -61 30 -61 33 0 4
-9 17 -21 30 -17 18 -27 21 -63 16 -55 -9 -180 9 -249 35 -30 11 -71 36 -90
55 -35 34 -39 35 -111 35 -41 0 -87 5 -103 11 -34 12 -83 58 -83 76 0 18 -48
39 -94 42 -61 3 -181 57 -216 97 -22 25 -42 37 -75 43 -52 10 -125 54 -125 77
0 8 -11 26 -25 39 -19 20 -34 25 -73 25 -58 0 -93 23 -122 81 -14 27 -35 46
-68 63 -48 25 -132 105 -132 128 0 19 -52 68 -71 68 -19 0 -45 32 -78 98 -17
34 -21 53 -16 86 6 39 4 45 -25 69 -17 15 -35 27 -40 27 -27 0 -53 153 -29
177 8 8 6 24 -5 57 -20 60 -20 104 1 152 10 25 17 67 17 115 1 70 4 78 35 118
28 35 34 51 33 86 -2 34 4 50 25 76 21 24 27 43 28 77 0 42 2 47 30 55 22 6
35 20 49 50 48 109 99 161 164 169 18 2 28 13 37 42 17 50 72 106 103 106 16
0 44 20 83 57 83 80 106 93 165 93 45 0 56 5 96 40 53 46 133 80 190 80 32 0
52 8 92 38 83 63 114 76 179 74 52 -2 61 0 78 22 31 39 123 69 190 62 54 -6
59 -5 108 31 73 54 130 71 197 59 50 -9 55 -8 78 15 36 36 118 63 169 55 23
-4 54 -9 70 -11 18 -3 34 2 47 15 52 52 136 73 203 51 35 -12 41 -11 60 6 49
43 132 57 161 28 22 -22 62 -18 111 11 52 30 149 44 218 30 38 -7 51 -6 65 6
39 35 135 49 198 30 24 -8 40 -5 73 10 73 33 120 37 169 14 l43 -21 37 20 c43
24 162 32 230 17 38 -9 44 -8 55 9 19 31 108 52 183 44 45 -5 64 -3 64 5 0 6
19 19 41 29 47 21 103 19 159 -8z m-4656 -145 c8 -19 25 -40 39 -48 13 -7 48
-32 77 -56 28 -23 64 -45 78 -48 15 -4 45 -17 67 -30 80 -45 318 -75 451 -56
44 7 100 12 125 11 l44 -1 -65 -19 c-96 -30 -308 -31 -505 -3 -98 14 -259 85
-294 130 -11 14 -23 42 -26 63 -3 20 -8 48 -10 64 -6 37 2 34 19 -7z m4700
-166 c13 -145 15 -196 6 -210 -7 -12 -12 -12 -22 -2 -6 6 -29 12 -50 12 -34 0
-38 -3 -38 -26 0 -25 1 -25 58 -19 l59 6 2 -111 c1 -60 -2 -110 -7 -110 -5 0
-41 24 -80 54 -40 30 -108 73 -152 95 -72 36 -77 40 -55 48 18 6 22 12 15 23
-7 12 -36 15 -137 17 -70 1 -157 6 -193 12 -267 44 -770 -48 -1019 -186 -106
-59 -151 -93 -245 -187 -62 -62 -97 -89 -111 -88 -11 2 -45 -3 -75 -11 -43
-11 -56 -19 -58 -36 -4 -25 4 -26 53 -5 20 8 46 14 57 12 18 -3 17 -7 -15 -48
-19 -25 -48 -74 -66 -110 -18 -35 -34 -66 -35 -67 -2 -2 -50 19 -108 46 -57
27 -116 53 -131 56 -39 10 -33 21 21 40 83 30 94 35 90 46 -4 11 -6 12 -58 4
-41 -7 -120 -44 -120 -57 0 -6 -32 -7 -80 -2 -161 14 -260 11 -404 -11 -59 -9
-56 5 6 25 24 8 54 20 68 27 14 7 33 13 43 13 26 0 59 19 52 31 -18 28 -183
-15 -232 -61 -17 -16 -33 -34 -35 -39 -6 -17 -159 -52 -174 -40 -20 16 -85 -6
-131 -46 -51 -43 -105 -67 -136 -60 -25 7 -79 -28 -168 -108 -30 -27 -74 -65
-98 -85 -131 -111 -250 -256 -267 -328 -4 -16 -10 -33 -14 -39 -4 -5 -13 -35
-20 -65 -7 -30 -16 -68 -21 -84 -5 -16 -9 -41 -9 -57 0 -44 -10 -62 -26 -48
-16 13 -18 41 -5 55 16 15 20 172 5 178 -20 8 -24 -4 -24 -81 0 -40 -4 -73 -9
-73 -15 0 -34 29 -28 44 3 7 1 32 -5 54 -8 34 -6 51 11 101 11 33 18 67 15 74
-3 8 8 44 24 80 17 36 33 78 36 94 4 15 24 45 46 67 41 40 80 112 80 145 0 15
9 22 33 26 18 4 42 14 53 23 20 16 86 104 110 147 6 11 24 24 40 29 62 18 99
43 132 89 l34 47 63 0 c93 0 160 18 204 57 29 24 53 35 88 39 90 11 139 32
184 81 40 44 45 46 117 54 100 11 132 23 171 63 29 30 39 34 90 35 70 1 120
18 161 54 28 26 36 28 83 22 62 -8 145 9 168 34 14 15 26 17 73 10 62 -8 85
-3 162 33 43 20 64 24 127 21 70 -2 77 -1 112 27 41 33 53 35 104 20 25 -7 40
-6 61 5 21 11 40 13 75 6 51 -9 92 -2 132 24 20 14 30 14 60 4 41 -13 82 -8
139 16 39 18 72 20 129 11 17 -3 54 2 84 11 43 12 61 13 90 4 54 -18 112 -6
159 32 8 6 54 12 102 13 49 1 105 7 125 14 27 9 43 9 71 0 36 -12 124 -6 124
9 0 15 49 34 62 24 7 -5 31 -15 54 -22 35 -11 45 -11 71 2 16 9 35 23 43 32 7
8 14 14 16 13 1 -2 5 -32 8 -68z m-498 -315 c175 -29 360 -107 421 -179 96
-113 92 -102 93 -266 0 -80 -4 -275 -9 -435 -6 -159 -11 -309 -11 -332 0 -41
-1 -42 -37 -49 -147 -25 -391 -129 -500 -212 -29 -22 -50 -31 -62 -27 -11 3
-52 35 -92 71 -74 66 -170 120 -294 164 -262 94 -396 117 -552 94 -57 -9 -110
-13 -118 -10 -8 3 -15 16 -15 28 -1 33 -51 142 -97 207 -21 30 -78 97 -127
148 -87 90 -88 93 -81 129 14 78 70 166 172 270 54 55 113 106 131 113 17 8
32 17 32 21 0 4 17 16 38 27 20 10 55 30 77 44 107 67 338 149 419 149 12 0
27 5 34 12 7 7 12 9 12 6 0 -3 26 1 58 8 31 8 82 14 112 15 30 1 69 5 85 9 52
13 212 11 311 -5z m-1916 -590 c93 -22 262 -94 313 -134 118 -94 148 -126 212
-222 39 -57 76 -124 84 -149 7 -25 17 -53 22 -62 5 -10 9 -28 9 -42 0 -25 -8
-30 -115 -61 -87 -25 -251 -110 -317 -164 -31 -25 -71 -57 -89 -71 -60 -45
-154 -144 -205 -215 -112 -157 -163 -308 -164 -491 0 -56 -2 -62 -27 -74 -37
-16 -120 -28 -272 -39 l-123 -8 -32 29 c-42 40 -72 54 -128 62 -39 6 -51 13
-65 37 -21 35 -71 69 -102 69 -13 0 -25 9 -30 23 -14 37 -74 77 -117 77 -31 0
-46 8 -90 50 -41 39 -60 50 -86 50 -41 0 -46 4 -81 58 -15 23 -42 52 -61 64
-18 12 -43 41 -56 65 -13 25 -34 54 -47 66 -30 29 -31 52 -2 37 40 -22 50 -7
48 72 -3 86 7 171 21 198 5 10 10 28 10 39 0 12 9 38 20 58 11 21 20 45 20 53
0 46 170 240 247 283 29 16 172 112 205 137 14 11 32 20 39 20 7 0 31 9 53 20
81 38 284 118 332 129 191 45 460 62 574 36z m-5430 -500 c-6 -8 -22 -45 -35
-82 -26 -72 -26 -72 -92 -59 -17 3 -34 2 -37 -2 -8 -13 27 -60 65 -87 41 -31
81 -42 181 -51 65 -6 79 -4 84 9 10 28 -14 56 -56 63 -61 10 -67 25 -33 80 45
75 80 107 106 99 12 -3 40 -11 62 -16 98 -24 195 -123 217 -221 4 -21 12 -56
17 -77 6 -29 7 -206 1 -206 -1 0 -3 -18 -16 -155 -8 -86 -7 -293 2 -324 22
-81 58 -193 65 -201 10 -14 55 -125 86 -210 63 -176 72 -328 27 -463 -22 -67
-101 -223 -134 -264 -17 -20 -30 -41 -30 -47 0 -22 -176 -121 -215 -121 -7 0
-15 -5 -17 -11 -3 -8 -41 -1 -117 21 -63 17 -157 42 -210 55 -195 48 -381 120
-558 218 -52 29 -115 63 -140 77 -52 28 -220 174 -253 220 -16 23 -21 42 -19
78 8 123 82 291 164 367 18 17 46 50 62 75 35 52 113 199 113 212 0 5 9 29 20
54 12 24 18 49 15 54 -3 6 -2 10 4 10 5 0 9 8 9 18 -1 9 9 45 20 79 12 34 25
95 28 135 4 40 21 117 40 171 32 95 96 217 114 217 5 0 11 9 15 19 3 10 30 45
60 78 30 32 55 61 55 64 0 3 15 13 34 21 18 9 49 30 67 46 39 33 123 69 189
80 47 8 60 1 40 -23z m-5142 -194 c70 -48 133 -114 243 -251 109 -137 168
-207 305 -365 63 -71 140 -161 173 -200 l60 -70 -30 -3 c-17 -2 -90 4 -162 12
-73 9 -177 18 -232 21 -113 7 -308 28 -465 51 -107 16 -448 82 -460 89 -12 7
-284 48 -460 69 l-95 11 -3 170 c-1 94 0 180 3 191 8 33 64 62 228 118 26 9
68 23 95 32 168 58 308 99 375 109 16 3 65 14 110 24 99 24 125 28 200 30 52
1 64 -3 115 -38z m11822 0 c117 -31 248 -78 304 -109 100 -55 310 -282 368
-397 9 -16 37 -69 62 -118 65 -120 94 -256 103 -474 5 -132 2 -178 -12 -252
-9 -50 -15 -97 -12 -104 4 -10 -10 -17 -44 -26 -27 -7 -51 -17 -54 -22 -3 -4
-23 1 -43 11 -53 28 -97 31 -169 12 -58 -15 -66 -15 -110 1 -63 22 -104 22
-146 -3 l-35 -21 -51 21 c-59 23 -138 25 -193 6 -32 -12 -40 -11 -60 3 -32 22
-124 30 -174 15 -38 -11 -43 -10 -83 17 -55 36 -98 44 -160 29 -49 -11 -51
-11 -94 19 -49 36 -137 55 -173 39 -17 -8 -30 -4 -65 22 -42 30 -47 32 -108
26 -59 -6 -67 -5 -105 21 -35 24 -51 28 -118 29 -61 1 -82 6 -107 23 -16 12
-45 28 -64 36 -43 18 -55 58 -61 205 -6 164 32 328 93 406 12 15 21 33 21 40
0 8 21 33 46 56 25 23 56 60 69 82 22 37 128 147 195 201 50 41 239 126 390
176 236 78 381 85 590 30z m-8280 -32 l51 -11 -6 -46 c-3 -26 -13 -94 -22
-152 -20 -137 -12 -244 33 -435 19 -83 43 -186 54 -230 35 -154 149 -394 252
-530 62 -83 286 -316 348 -362 134 -101 413 -240 605 -303 55 -17 109 -36 120
-40 11 -4 48 -15 83 -24 34 -9 88 -23 120 -31 31 -8 78 -20 104 -25 26 -5 69
-19 96 -29 43 -17 278 -78 424 -111 74 -16 254 -40 352 -46 49 -3 108 -9 131
-13 l43 -6 -20 -52 c-22 -59 -33 -65 -168 -84 -92 -13 -471 -12 -589 1 -47 5
-120 12 -161 15 -41 4 -88 10 -105 15 -16 5 -55 14 -85 19 -30 6 -86 18 -125
26 -38 9 -108 25 -155 35 -203 45 -266 61 -324 79 -34 11 -104 33 -156 50
-381 121 -623 247 -768 399 -91 96 -231 306 -270 407 -25 62 -42 174 -42 275
0 115 25 318 45 365 37 87 79 201 87 238 17 84 35 222 30 231 -5 10 -15 85
-31 241 -6 50 -13 102 -17 118 -7 31 -6 31 66 16z m9432 -240 c-2 -107 -6
-197 -8 -201 -3 -4 -16 -3 -30 2 -28 11 -97 13 -107 4 -3 -4 -2 -15 4 -26 8
-15 17 -18 36 -14 32 9 91 -27 99 -59 7 -29 -1 -903 -8 -911 -3 -2 -41 -7 -84
-9 -44 -2 -93 -6 -110 -10 -37 -8 -48 4 -35 37 5 13 17 66 26 118 28 159 8
423 -43 587 -18 55 -153 320 -171 333 -3 3 -21 28 -39 55 l-32 50 27 23 c48
41 105 74 223 133 132 65 208 91 245 84 6 -1 9 -72 7 -196z m-9542 -264 c0 -3
-4 -13 -10 -23 -8 -14 -44 -134 -107 -362 -30 -107 -39 -205 -32 -342 9 -179
39 -266 145 -430 24 -37 44 -70 44 -73 0 -22 156 -206 222 -263 100 -84 282
-192 412 -244 27 -10 68 -27 90 -37 23 -10 64 -25 91 -34 79 -25 135 -44 200
-66 33 -11 101 -32 150 -46 50 -14 118 -35 153 -45 34 -11 75 -20 90 -20 15 0
52 -7 82 -16 112 -31 196 -53 230 -59 19 -3 58 -12 85 -20 28 -8 68 -14 90
-13 22 1 87 -4 145 -10 58 -6 135 -10 172 -8 38 1 69 -2 71 -8 6 -19 340 -12
504 10 35 5 44 3 50 -11 10 -26 -24 -49 -118 -79 -45 -15 -87 -30 -93 -33 -6
-4 -15 -8 -21 -10 -5 -1 -83 -20 -172 -42 -284 -71 -518 -100 -793 -96 -325 4
-452 20 -675 84 -489 142 -655 210 -884 364 -159 107 -336 287 -377 384 -8 17
-18 34 -22 37 -5 3 -17 31 -26 63 -10 32 -21 67 -26 78 -26 61 -32 107 -37
268 -4 116 -2 209 6 265 16 114 66 302 101 377 15 33 31 71 35 85 4 14 13 32
19 40 19 24 57 92 70 125 26 70 136 239 136 210z m-2545 -116 c39 -5 120 -26
180 -46 61 -19 175 -51 255 -69 133 -32 415 -134 505 -184 17 -9 62 -34 100
-55 39 -21 90 -52 115 -69 67 -45 284 -260 344 -341 75 -100 186 -306 186
-345 0 -12 7 -34 15 -50 46 -89 55 -442 14 -520 -11 -19 -19 -40 -19 -46 0
-18 -77 -209 -116 -289 -78 -160 -265 -364 -502 -550 l-69 -54 -214 -1 c-118
-1 -245 -1 -284 -1 l-70 1 91 89 c78 76 125 139 173 231 5 10 31 17 77 22 83
8 119 22 202 74 189 117 270 213 335 394 47 130 31 309 -39 435 -55 99 -194
209 -327 260 -62 23 -192 44 -227 37 -8 -2 -39 -3 -68 -2 -28 1 -58 -2 -65 -7
-6 -4 -41 -9 -76 -9 -35 -1 -68 -7 -74 -13 -6 -6 -21 -11 -33 -11 -11 0 -67
-20 -122 -44 -104 -46 -188 -106 -213 -153 -8 -15 -29 -43 -46 -62 -18 -20
-38 -48 -44 -63 -8 -20 -19 -28 -38 -29 -14 -1 -66 -3 -114 -5 -49 -2 -103 -8
-120 -13 -18 -6 -57 -17 -88 -25 -31 -8 -82 -29 -115 -45 -32 -17 -61 -31 -65
-31 -3 0 -9 72 -12 160 -4 88 -8 166 -10 173 -2 13 179 14 351 1 79 -6 92 -5
92 8 0 8 8 26 18 39 24 32 39 85 53 195 15 112 7 138 -57 183 -24 18 -44 39
-44 48 0 19 41 76 85 118 44 42 63 97 71 211 3 54 11 104 16 111 11 14 2 65
-19 106 -7 15 -39 58 -71 95 -71 83 -122 148 -122 156 0 6 105 -1 205 -15z
m-1775 -104 c48 -10 85 -15 140 -20 70 -6 254 -39 395 -70 145 -32 208 -44
280 -50 33 -4 74 -10 90 -15 17 -5 66 -12 110 -16 44 -4 89 -9 100 -10 11 -1
97 -7 190 -12 159 -10 329 -27 384 -38 23 -5 24 -7 17 -76 -11 -124 -23 -153
-86 -216 -100 -99 -104 -187 -12 -277 l46 -44 -12 -82 c-6 -45 -20 -98 -29
-118 -17 -34 -21 -36 -63 -35 -25 0 -85 6 -135 13 -49 7 -119 15 -154 17 -36
3 -68 7 -72 10 -4 2 -11 26 -15 52 -12 84 -33 125 -87 176 -143 134 -462 205
-866 193 -154 -4 -206 -9 -300 -31 -63 -15 -123 -32 -134 -37 -10 -6 -21 -9
-23 -6 -7 6 -7 704 0 715 4 7 168 -8 236 -23z m9927 -142 c22 -47 15 -58 -11
-18 -12 18 -23 24 -35 20 -13 -4 -26 7 -49 45 -18 28 -32 53 -32 55 0 2 24
-10 53 -28 40 -23 59 -42 74 -74z m91 -172 c13 -7 19 -17 16 -26 -8 -21 -28
-19 -49 5 -10 11 -26 20 -36 20 -12 0 -24 13 -34 36 -26 64 -18 69 33 22 27
-25 58 -50 70 -57z m-9373 -407 c55 -8 129 -21 165 -30 61 -15 168 -62 197
-86 27 -22 79 -171 86 -248 3 -25 10 -70 16 -100 6 -30 12 -117 13 -193 1
-115 4 -139 17 -147 14 -9 14 -12 -4 -25 -11 -8 -29 -23 -40 -34 -16 -15 -41
-19 -135 -23 -80 -4 -145 -14 -215 -33 -131 -35 -322 -129 -409 -201 -68 -56
-69 -56 -105 -44 -28 9 -47 9 -77 1 -21 -6 -66 -11 -99 -11 -75 0 -243 25
-279 41 l-27 13 5 245 c3 135 5 265 5 289 1 49 15 54 58 18 72 -61 263 -83
518 -61 327 28 499 79 588 173 26 28 47 55 47 60 0 37 -84 44 -127 9 -30 -25
-148 -83 -198 -99 -112 -34 -327 -60 -505 -61 -160 -1 -167 0 -235 28 -38 16
-87 39 -107 53 -36 23 -37 24 -40 100 -2 43 -1 129 2 192 4 93 8 115 20 115
20 0 93 25 105 36 5 5 24 9 41 9 18 0 45 5 61 11 71 29 469 31 658 3z m2090
-379 c74 -27 80 -31 164 -97 85 -67 125 -171 126 -323 0 -123 -76 -296 -172
-386 -89 -85 -310 -216 -330 -196 -2 2 1 28 7 57 41 216 -36 395 -224 517 -76
50 -278 122 -404 144 -45 8 -76 18 -79 27 -4 9 33 53 99 118 88 87 111 104
137 104 16 0 50 7 75 15 43 15 106 30 196 46 25 4 110 6 190 4 125 -4 155 -8
215 -30z m-816 -354 c41 -6 79 -15 85 -21 5 -5 17 -10 26 -10 8 0 27 -6 41
-14 14 -7 52 -21 85 -31 32 -10 84 -36 115 -56 161 -108 223 -276 166 -449
-14 -41 -47 -116 -74 -167 -43 -82 -58 -100 -153 -182 -58 -51 -127 -102 -155
-115 -47 -22 -60 -23 -228 -21 -98 2 -181 6 -184 9 -4 3 7 21 23 39 123 132
178 312 144 465 -18 80 -33 112 -77 156 -122 124 -271 196 -497 240 l-58 12
39 27 c21 14 60 33 87 41 26 8 55 21 64 29 15 12 36 19 122 43 77 22 298 24
429 5z m-657 -235 c15 -2 33 -8 40 -13 7 -6 36 -14 63 -18 28 -4 61 -13 75
-20 14 -7 40 -19 59 -26 42 -16 180 -123 188 -147 3 -9 14 -26 23 -37 35 -41
31 -196 -7 -285 -40 -96 -64 -131 -136 -204 l-79 -78 -116 6 c-64 3 -330 9
-590 12 l-474 6 -53 53 c-41 42 -55 64 -65 105 -31 130 29 279 170 417 19 19
44 39 55 44 19 9 102 62 156 101 13 9 60 29 104 43 137 46 186 52 390 48 94
-1 182 -5 197 -7z m6134 -21 c10 -39 1 -58 -30 -66 -43 -12 -43 -15 -11 88 6
19 34 4 41 -22z m-7591 -229 c53 -24 232 -47 317 -41 61 4 68 3 68 -14 0 -10
-6 -24 -14 -30 -28 -23 -58 -114 -63 -193 -5 -64 -2 -88 17 -140 12 -35 36
-78 53 -95 17 -18 27 -33 21 -34 -5 -1 -109 -2 -231 -4 l-223 -2 0 289 c0 159
3 288 8 286 4 -2 25 -12 47 -22z"/>
<path d="M9407 14410 c-13 -35 -37 -183 -47 -285 -6 -60 -12 -121 -15 -135
-16 -88 -23 -438 -9 -520 6 -39 23 -179 29 -240 4 -30 10 -80 15 -110 5 -30
12 -89 15 -130 6 -71 23 -168 45 -255 12 -47 5 -466 -9 -577 -6 -40 -13 -140
-16 -223 -4 -82 -8 -196 -11 -252 -2 -62 0 -104 6 -108 6 -3 11 6 12 22 2 37
4 64 22 293 8 107 20 242 27 300 16 146 18 523 2 576 -13 40 -30 137 -37 204
-17 158 -28 245 -31 250 -2 3 -11 91 -21 196 -17 195 -22 431 -10 519 3 27 18
139 32 248 19 143 23 205 16 220 -8 17 -11 19 -15 7z"/>
<path d="M10739 14388 c-12 -60 -17 -412 -7 -588 8 -168 55 -571 74 -644 9
-32 18 -79 21 -105 2 -25 10 -75 18 -111 7 -36 13 -72 13 -80 24 -959 20
-1141 -28 -1545 -10 -88 -22 -205 -25 -260 -8 -113 -10 -138 -24 -250 -25
-203 -31 -273 -37 -450 -3 -104 -1 -280 4 -390 10 -191 18 -262 62 -525 10
-63 22 -142 25 -175 4 -33 10 -76 15 -95 22 -88 40 -312 43 -537 1 -106 5
-193 8 -193 26 0 33 439 9 595 -21 135 -40 266 -46 312 -3 26 -7 50 -9 53 -2
3 -6 28 -10 56 -3 27 -10 65 -14 84 -5 19 -13 67 -17 105 -4 39 -8 79 -10 90
-1 11 -6 70 -9 130 -4 61 -8 124 -10 140 -7 51 -7 315 -1 430 8 142 24 314 42
442 8 56 13 106 12 110 -1 4 2 40 6 78 10 100 34 349 47 495 6 69 13 145 15
170 7 70 7 384 0 730 -7 352 -13 451 -26 495 -5 17 -14 65 -20 109 -5 43 -13
82 -16 88 -3 5 -10 44 -14 86 -5 42 -15 138 -24 212 -33 274 -40 391 -40 659
-1 210 -4 275 -13 278 -7 3 -13 3 -14 1z"/>
<path d="M9976 13751 c-3 -4 -8 -66 -11 -137 -3 -71 -8 -138 -10 -150 -10 -47
-6 -583 4 -639 6 -33 18 -110 26 -170 22 -173 44 -328 49 -355 2 -14 7 -54 11
-89 3 -36 8 -68 11 -72 2 -4 11 -108 20 -231 16 -230 13 -549 -7 -666 -5 -32
-12 -93 -15 -137 -3 -44 -8 -87 -10 -95 -6 -16 -21 -138 -30 -230 -2 -30 -9
-77 -14 -105 -5 -27 -12 -77 -15 -110 -3 -33 -12 -121 -20 -195 -8 -80 -14
-224 -13 -355 1 -188 4 -237 24 -335 27 -135 46 -192 64 -198 9 -3 11 3 6 24
-7 34 -32 154 -47 234 -13 73 -13 467 1 589 6 53 15 134 21 181 5 47 12 103
14 125 2 22 11 96 20 165 9 69 18 141 21 160 2 19 14 109 26 200 23 179 31
576 15 755 -5 50 -10 115 -12 145 -1 30 -8 91 -14 135 -7 44 -20 141 -31 215
-11 74 -28 191 -39 260 -45 293 -48 349 -35 735 4 116 7 243 8 283 1 66 -5 85
-18 63z"/>
<path d="M8734 13628 c-13 -39 -14 -49 -14 -191 0 -154 5 -220 25 -287 7 -25
13 -54 13 -65 3 -171 1 -270 -4 -304 -4 -22 -3 -48 1 -58 13 -31 34 103 35
227 0 63 -5 140 -11 170 -16 80 -34 309 -34 428 0 56 0 102 -2 102 -1 0 -5
-10 -9 -22z"/>
<path d="M9235 10478 c-21 -54 -24 -211 -8 -448 3 -58 6 -108 5 -112 -5 -23
53 -244 69 -262 15 -16 21 21 8 46 -7 13 -13 30 -14 38 -1 8 -7 56 -14 105 -7
50 -16 113 -20 140 -3 28 -6 152 -6 277 0 203 -5 256 -20 216z"/>
<path d="M10060 8928 c0 -13 10 -52 21 -88 30 -95 46 -248 48 -480 1 -112 4
-206 7 -209 33 -33 38 313 9 579 -10 88 -55 220 -75 220 -6 0 -10 -10 -10 -22z"/>
<path d="M5460 13931 c-8 -5 -33 -12 -55 -15 -107 -19 -411 -174 -387 -198 8
-8 103 22 152 47 68 35 250 88 325 94 72 5 80 8 83 28 2 13 -4 25 -15 31 -29
15 -87 22 -103 13z"/>
<path d="M5470 13701 c-30 -10 -75 -29 -98 -41 -49 -24 -242 -167 -242 -178 0
-4 -14 -16 -31 -26 -32 -19 -34 -35 -2 -17 10 5 56 28 103 51 47 22 120 60
164 85 43 25 86 45 95 45 30 1 106 45 109 64 4 18 -13 36 -33 35 -5 0 -35 -8
-65 -18z"/>
<path d="M5690 13643 c0 -19 192 -202 238 -228 20 -11 45 -28 55 -39 10 -10
40 -27 66 -38 25 -12 57 -28 71 -38 14 -9 43 -23 65 -30 22 -7 69 -28 105 -45
87 -43 128 -61 170 -74 110 -34 132 -43 176 -70 26 -17 57 -31 69 -31 12 0 26
-5 32 -11 13 -13 153 -76 213 -96 74 -25 163 -65 192 -87 15 -12 41 -31 57
-43 16 -13 52 -34 80 -48 28 -14 56 -34 63 -44 7 -10 25 -26 41 -35 15 -10 27
-25 27 -32 0 -8 3 -14 8 -14 11 0 74 -61 102 -100 14 -18 52 -68 86 -109 33
-42 69 -91 79 -108 11 -18 23 -33 27 -33 4 0 8 -4 8 -10 0 -5 13 -38 29 -72
55 -121 68 -154 104 -253 46 -130 64 -223 106 -530 23 -170 30 -448 16 -615
-4 -47 -7 -94 -7 -105 -1 -11 -12 -87 -25 -170 -31 -194 -32 -397 -3 -530 11
-49 27 -126 35 -169 9 -43 27 -107 40 -141 14 -34 25 -68 25 -77 0 -8 3 -18 7
-22 4 -3 15 -35 24 -69 10 -34 27 -93 39 -132 33 -112 60 -262 60 -332 0 -47
3 -64 13 -61 6 3 13 13 13 24 1 10 3 24 5 29 15 49 -62 419 -94 452 -4 3 -7
16 -7 27 -1 12 -12 53 -26 91 -37 104 -83 276 -108 406 -21 111 -6 474 24 574
10 35 21 225 25 451 3 152 -1 203 -46 579 -5 44 -12 87 -14 95 -2 8 -7 33 -10
55 -8 50 -82 272 -101 302 -8 12 -14 29 -14 38 0 31 -67 161 -125 240 -32 44
-61 82 -64 85 -4 3 -26 30 -48 60 -66 91 -223 243 -294 287 -26 15 -78 50
-117 76 -64 43 -176 97 -202 97 -11 0 -134 55 -202 91 -20 10 -58 26 -85 35
-26 9 -55 21 -63 28 -23 18 -57 33 -144 61 -43 14 -129 50 -190 79 -61 29
-122 57 -135 61 -33 10 -150 73 -161 86 -3 3 -23 18 -45 32 -22 14 -83 66
-135 116 -82 78 -130 109 -130 84z"/>
<path d="M13140 13581 c-21 -6 -25 -13 -25 -46 0 -35 3 -40 25 -43 19 -2 30 4
43 27 35 59 21 80 -43 62z"/>
<path d="M6600 12349 c-64 -13 -141 -37 -156 -49 -21 -18 -17 -28 15 -44 32
-17 92 -14 179 9 50 13 61 12 106 -2 28 -9 63 -27 77 -40 51 -47 123 -48 114
-1 -5 23 -63 80 -105 102 -61 32 -147 41 -230 25z"/>
<path d="M5070 12244 c-78 -21 -135 -59 -198 -132 -51 -61 -53 -65 -36 -83 26
-29 62 -24 92 13 84 101 151 139 251 142 70 2 91 9 91 30 0 45 -92 59 -200 30z"/>
<path d="M6551 12019 c-43 -9 -101 -69 -142 -148 -29 -54 -34 -75 -34 -130 0
-96 28 -177 79 -226 52 -51 102 -75 153 -75 55 0 152 35 185 67 65 62 114 207
97 284 -37 162 -182 260 -338 228z m188 -105 c11 -14 30 -51 42 -82 20 -54 20
-60 7 -113 -19 -70 -71 -151 -112 -173 -40 -21 -126 -29 -146 -13 -30 23 -52
92 -57 173 -5 74 -3 86 21 135 37 72 75 103 140 109 59 6 77 0 105 -36z"/>
<path d="M6603 11832 c-16 -2 -23 -10 -23 -26 0 -12 -4 -26 -10 -32 -12 -12
-16 -76 -6 -92 4 -7 21 -19 39 -28 30 -16 31 -16 59 15 34 38 43 72 32 114
-10 33 -51 56 -91 49z"/>
<path d="M5095 11943 c-44 -11 -121 -91 -149 -153 -36 -80 -47 -200 -22 -251
28 -59 77 -111 130 -135 65 -30 100 -30 168 0 62 27 101 70 143 152 25 50 27
60 21 126 -14 137 -55 206 -151 249 -38 18 -97 22 -140 12z m87 -62 c29 -12
72 -50 86 -77 39 -74 50 -160 23 -187 -6 -6 -11 -19 -11 -29 0 -25 -93 -114
-127 -121 -62 -12 -83 1 -114 69 -52 115 -38 224 40 305 49 50 63 56 103 40z"/>
<path d="M5120 11760 c-20 -5 -27 -16 -38 -64 -17 -68 -7 -102 33 -112 35 -9
51 0 75 38 24 38 22 98 -4 127 -17 19 -27 21 -66 11z"/>
<path d="M5677 11508 c-21 -8 -37 -30 -72 -101 -77 -159 -72 -205 30 -308 53
-54 74 -69 124 -84 104 -31 211 -7 281 65 16 17 32 30 34 30 3 0 20 14 37 31
29 28 30 33 19 55 -11 19 -21 24 -51 24 -31 0 -48 -9 -96 -51 -84 -74 -134
-90 -220 -73 -39 8 -86 50 -108 96 -17 37 -17 39 8 108 22 61 49 113 90 173
10 15 9 21 -7 33 -23 16 -30 16 -69 2z"/>
<path d="M6442 10746 c-91 -94 -259 -181 -417 -217 -158 -34 -397 4 -492 79
-47 37 -77 46 -91 30 -8 -10 3 -27 43 -70 84 -89 202 -124 472 -142 67 -4 242
26 312 54 127 50 234 127 262 189 30 69 24 92 -31 105 -20 5 -32 -1 -58 -28z"/>
<path d="M13113 12003 c-8 -2 -13 -22 -13 -44 0 -32 3 -39 20 -39 25 0 60 34
60 59 0 23 -37 37 -67 24z"/>
<path d="M13391 9636 c-14 -16 -19 -116 -7 -134 11 -17 37 -15 52 6 17 21 18
114 2 130 -16 16 -33 15 -47 -2z"/>
<path d="M13526 9625 c-32 -33 -35 -119 -4 -139 29 -18 46 11 50 84 2 53 0 65
-13 68 -9 2 -24 -4 -33 -13z"/>
<path d="M13917 9567 c-50 -15 -84 -50 -113 -112 -46 -98 -21 -159 85 -207 93
-41 121 -70 121 -126 0 -35 -6 -49 -29 -73 -32 -31 -55 -36 -95 -18 -25 12
-56 63 -56 92 0 22 -37 46 -61 40 -44 -12 -14 -111 48 -161 33 -26 52 -33 110
-38 59 -6 75 -3 111 15 56 29 75 68 70 145 -5 76 -30 113 -125 183 -35 26 -71
60 -80 76 -14 27 -13 31 12 68 14 22 33 43 41 46 25 9 73 -18 95 -53 11 -19
26 -34 33 -34 18 0 36 22 36 44 0 25 -47 86 -66 86 -7 0 -14 4 -14 10 0 9 -11
12 -70 25 -8 2 -32 -2 -53 -8z"/>
<path d="M12585 9550 c-4 -6 -11 -106 -16 -223 -5 -117 -14 -234 -19 -261 -11
-53 -2 -76 31 -76 17 0 44 32 35 41 -3 2 2 54 10 114 7 61 13 136 14 167 0 31
4 60 10 63 8 5 13 -6 26 -55 0 -3 15 -35 32 -71 17 -36 34 -79 38 -95 13 -54
64 -154 78 -154 18 0 32 18 40 53 4 15 18 52 31 82 14 29 25 60 25 67 0 16 77
155 90 163 6 4 11 -11 12 -37 8 -238 14 -334 22 -346 9 -15 44 -3 48 16 5 21
3 137 -7 357 -8 181 -15 205 -59 205 -17 0 -34 -27 -88 -141 -38 -77 -68 -146
-68 -153 0 -8 -7 -19 -15 -26 -8 -7 -15 -19 -15 -26 0 -8 -7 -14 -15 -14 -8 0
-15 4 -15 10 0 5 -13 37 -29 70 -16 33 -32 73 -36 88 -3 15 -19 48 -35 72 -17
25 -30 50 -30 55 0 14 -59 65 -75 65 -8 0 -17 -5 -20 -10z"/>
<path d="M13257 9528 c-54 -85 -54 -374 -1 -465 39 -67 114 -112 179 -108 11
1 39 2 62 3 34 2 49 9 77 37 37 36 96 147 96 178 0 10 5 27 11 38 5 11 12 34
14 52 2 18 10 71 16 120 15 100 7 140 -29 145 -12 2 -22 2 -23 0 0 -2 -9 -59
-18 -128 -29 -198 -87 -361 -134 -374 -71 -19 -155 14 -183 72 -16 32 -19 61
-18 200 1 116 5 171 15 188 26 49 -35 89 -64 42z"/>
<path d="M10867 7508 c-2 -7 1 -24 7 -37 9 -21 6 -28 -33 -62 -58 -52 -133
-85 -270 -122 -109 -28 -128 -30 -316 -32 -110 -1 -213 3 -230 8 -29 9 -103
25 -155 33 -141 23 -165 34 -155 72 3 15 9 37 12 50 6 27 -16 30 -52 6 -19
-12 -25 -25 -25 -51 0 -45 57 -104 115 -120 22 -6 65 -18 95 -27 30 -8 75 -18
100 -22 25 -4 50 -11 57 -16 6 -5 67 -12 135 -15 147 -7 360 16 470 51 40 13
91 28 114 34 50 14 159 84 173 111 6 11 14 41 18 66 4 36 2 50 -12 65 -21 23
-41 26 -48 8z"/>
<path d="M5769 5964 c-15 -19 -122 -75 -164 -87 -46 -13 -91 -17 -186 -17 -88
0 -117 7 -223 55 -64 28 -99 28 -75 -2 28 -34 161 -85 254 -98 146 -21 238 -7
328 48 64 39 83 56 91 84 9 27 -7 38 -25 17z"/>
<path d="M6215 6001 c-17 -7 -16 -9 15 -19 19 -6 82 -14 140 -17 58 -4 125 -8
150 -9 165 -10 730 -138 730 -166 0 -4 8 -10 18 -13 60 -19 122 -47 141 -66
24 -24 59 -28 67 -6 9 23 -11 40 -104 90 -134 72 -214 95 -522 155 -188 37
-592 69 -635 51z"/>
<path d="M4651 5859 c-94 -49 -120 -72 -102 -93 11 -13 22 -8 77 29 35 24 88
52 119 61 62 20 74 44 21 44 -21 0 -67 -17 -115 -41z"/>
<path d="M9090 4680 c-25 -4 -71 -20 -102 -34 -31 -14 -61 -26 -66 -26 -5 0
-33 -16 -62 -36 -29 -20 -67 -42 -84 -49 -18 -8 -59 -34 -92 -58 -69 -52 -128
-87 -203 -123 -41 -19 -63 -24 -91 -19 -52 9 -109 -4 -121 -26 -8 -15 0 -33
41 -93 27 -40 50 -78 50 -83 0 -6 -32 -11 -72 -11 -159 -2 -279 -31 -417 -102
-83 -43 -116 -67 -191 -141 -49 -50 -90 -94 -90 -99 0 -4 -18 -30 -39 -58 -21
-27 -49 -68 -61 -92 -60 -118 -109 -345 -97 -450 11 -93 48 -206 82 -256 19
-27 48 -69 64 -94 46 -69 177 -181 264 -227 43 -22 218 -73 229 -67 5 3 14 1
21 -5 7 -5 71 -15 143 -21 148 -13 344 -2 406 24 21 9 48 16 62 16 53 0 193
79 305 171 75 62 230 217 231 231 0 4 23 46 50 92 40 68 54 104 71 183 32 159
37 205 26 292 -12 90 -25 127 -77 204 -98 147 -197 220 -425 317 -33 13 -236
58 -297 66 l-56 6 -12 47 c-6 25 -13 54 -16 63 -4 13 4 22 29 34 34 16 36 16
118 -19 46 -19 116 -42 154 -51 39 -8 99 -22 135 -30 127 -28 333 1 442 62 20
11 46 26 59 34 95 53 200 185 202 252 3 119 -279 216 -513 176z m348 -105 c77
-34 79 -49 17 -127 -53 -68 -149 -140 -221 -167 -77 -29 -201 -53 -279 -53
-81 0 -269 39 -304 64 -29 21 -23 31 42 63 29 15 61 35 72 45 39 35 211 136
290 170 61 26 99 36 160 40 103 7 146 0 223 -35z m-1044 -605 c4 -40 6 -74 4
-76 -3 -2 -36 3 -74 11 -93 20 -114 19 -114 -3 0 -31 43 -58 106 -66 33 -4
100 -34 126 -55 48 -40 153 -52 225 -25 32 13 49 14 72 6 36 -13 53 2 41 34
-15 39 -113 54 -209 32 -41 -9 -56 -9 -76 2 -19 10 -22 16 -14 27 7 7 14 45
17 83 l5 70 51 0 c45 0 147 -19 266 -49 105 -26 264 -129 318 -205 77 -108
118 -246 109 -371 -6 -83 -35 -213 -57 -255 -76 -145 -306 -366 -462 -446
-134 -68 -204 -83 -418 -91 -313 -11 -532 66 -668 237 -24 30 -49 62 -56 71
-51 64 -78 144 -83 251 -7 129 11 244 53 343 61 142 259 376 351 416 25 11 65
32 88 48 23 16 78 39 121 51 99 28 80 25 183 28 l88 3 7 -71z"/>
<path d="M8875 3213 c-32 -67 -78 -121 -165 -191 -19 -16 -22 -23 -13 -32 9
-10 14 -7 25 9 7 11 19 21 26 21 36 0 172 170 172 216 0 28 -28 13 -45 -23z"/>
<path d="M8959 3193 c-28 -75 -55 -116 -122 -179 -91 -86 -136 -124 -148 -124
-6 0 -22 -12 -37 -26 l-27 -27 38 22 c21 11 44 21 51 21 21 0 127 81 192 147
44 44 64 74 78 115 18 53 16 78 -5 78 -5 0 -14 -12 -20 -27z"/>
<path d="M6052 5650 c-12 -5 -28 -14 -35 -19 -72 -59 -70 -56 -62 -89 7 -36
25 -43 25 -11 0 66 157 116 201 63 6 -8 15 -14 19 -14 12 0 20 28 14 44 -12
31 -111 46 -162 26z"/>
<path d="M6558 5585 c-56 -18 -109 -79 -112 -127 -2 -45 18 -45 36 0 20 51 72
90 125 93 42 3 89 -19 100 -47 8 -21 31 -17 38 7 5 16 -1 29 -23 51 -36 37
-95 45 -164 23z"/>
<path d="M4993 5559 c-24 -11 -43 -26 -43 -32 0 -6 -7 -19 -16 -28 -23 -26
-24 -93 -1 -97 12 -3 17 3 17 21 0 14 8 39 17 56 32 54 158 68 165 18 2 -12
11 -23 21 -25 16 -3 18 2 15 35 -2 30 -9 41 -32 52 -50 24 -97 24 -143 0z"/>
<path d="M5500 5558 c-44 -12 -69 -34 -86 -75 -12 -27 -12 -37 -2 -53 18 -28
28 -25 28 8 0 15 6 34 13 43 13 17 76 41 99 38 48 -6 67 20 29 41 -23 12 -34
12 -81 -2z"/>
<path d="M6064 5446 c-34 -34 -45 -78 -24 -91 6 -3 10 -2 10 2 0 5 16 25 36
46 44 45 71 47 129 7 52 -35 55 -36 55 -10 0 33 -75 80 -128 80 -37 0 -50 -6
-78 -34z"/>
<path d="M5671 5436 c-43 -32 -59 -53 -71 -99 -9 -31 -8 -40 5 -53 13 -14 15
-13 15 11 0 52 47 108 101 120 43 10 96 -11 103 -40 9 -34 46 -35 46 -2 0 27
-19 47 -67 71 -46 23 -93 20 -132 -8z"/>
<path d="M5159 5373 c-37 -40 -59 -79 -59 -103 0 -33 28 -23 49 18 31 60 89
74 146 36 27 -19 31 -18 30 10 0 30 -6 37 -53 53 -57 20 -85 16 -113 -14z"/>
<path d="M6946 5310 c-34 -34 -32 -36 17 -15 46 19 63 12 77 -31 10 -29 9 -39
-4 -57 -45 -62 -49 -68 -40 -77 20 -20 55 3 78 49 20 40 21 51 11 85 -22 77
-88 98 -139 46z"/>
<path d="M7258 5323 c-10 -2 -21 -16 -24 -29 -7 -27 3 -45 14 -28 22 33 72 11
72 -30 0 -21 -31 -76 -42 -76 -4 0 -8 -4 -8 -10 0 -24 32 -7 60 32 32 43 36
67 20 99 -9 16 -62 52 -72 48 -2 -1 -11 -3 -20 -6z"/>
<path d="M5475 5255 c-78 -36 -128 -125 -70 -125 18 0 25 5 25 19 0 43 105 87
135 57 35 -34 56 -9 23 27 -29 31 -74 40 -113 22z"/>
<path d="M6245 5256 c-21 -9 -34 -24 -41 -47 -14 -48 -12 -121 4 -126 8 -3 12
7 12 31 0 20 7 52 15 72 14 35 15 35 72 32 48 -2 58 -6 57 -20 -2 -22 19 -23
36 -3 41 50 -75 96 -155 61z"/>
<path d="M6474 5171 c-40 -18 -60 -44 -48 -62 3 -5 17 -1 32 10 42 29 86 35
126 16 38 -18 56 -14 56 15 0 35 -105 49 -166 21z"/>
<path d="M4950 5153 c-31 -11 -70 -57 -70 -82 0 -30 40 -81 64 -81 20 0 21 23
1 40 -39 33 7 91 74 92 43 0 49 6 29 26 -12 12 -70 15 -98 5z"/>
<path d="M5902 5069 c-56 -28 -77 -59 -65 -96 11 -32 27 -33 29 -3 1 24 24 44
71 65 38 17 60 12 89 -23 25 -28 44 -22 44 13 0 53 -99 79 -168 44z"/>
<path d="M5179 5017 c-42 -28 -80 -93 -77 -131 4 -44 25 -43 39 3 6 22 25 54
41 71 25 27 34 31 60 26 18 -3 39 -13 48 -21 29 -26 57 -14 44 20 -7 16 -83
55 -108 55 -7 0 -28 -10 -47 -23z"/>
<path d="M6740 4963 c-33 -5 -70 -24 -70 -35 0 -5 17 -9 38 -8 61 3 62 3 56
-30 -8 -35 7 -39 36 -10 26 26 26 66 1 80 -11 5 -23 9 -28 9 -4 -1 -19 -4 -33
-6z"/>
<path d="M5574 4861 c-43 -26 -48 -37 -34 -72 13 -30 49 -47 71 -34 8 6 5 13
-11 25 -19 14 -21 20 -11 38 14 26 44 36 70 23 14 -8 22 -7 31 4 9 11 7 16 -9
24 -30 16 -72 13 -107 -8z"/>
<path d="M6281 4845 c-39 -34 -48 -61 -26 -85 20 -22 35 -18 35 9 0 37 33 63
78 63 43 -1 51 5 30 26 -21 21 -84 14 -117 -13z"/>
<path d="M10635 2520 c-4 -6 -1 -19 6 -28 26 -35 73 -82 82 -82 4 0 23 -10 40
-23 46 -33 113 -61 132 -53 25 9 12 21 -73 66 -42 23 -93 56 -112 74 -56 51
-67 58 -75 46z"/>
<path d="M10930 2491 c0 -30 35 -84 69 -107 40 -26 275 -95 299 -87 26 10 10
33 -30 43 -214 57 -254 74 -289 124 -22 33 -49 48 -49 27z"/>
<path d="M10730 2312 c0 -29 51 -68 146 -113 86 -41 104 -46 104 -29 0 13 -49
60 -62 60 -18 0 -121 51 -154 77 -32 24 -34 24 -34 5z"/>
<path d="M11360 2280 c0 -26 45 -67 100 -92 59 -25 255 -39 248 -17 -5 15 -90
36 -153 38 -46 1 -131 39 -159 70 -24 26 -36 27 -36 1z"/>
<path d="M10994 2259 c-9 -16 35 -57 75 -70 20 -6 41 -15 46 -19 24 -18 154
-51 190 -48 58 4 49 21 -20 39 -33 8 -67 18 -75 21 -8 3 -34 11 -57 17 -23 6
-67 25 -97 41 -34 17 -58 25 -62 19z"/>
<path d="M11800 2148 c1 -62 85 -100 220 -102 89 -1 95 0 98 20 3 19 -2 20
-95 20 -108 1 -162 18 -190 60 -19 30 -33 31 -33 2z"/>
<path d="M11385 2140 c-7 -12 7 -40 32 -62 45 -40 290 -86 308 -58 11 18 -7
26 -103 40 -105 15 -188 44 -202 71 -12 21 -25 25 -35 9z"/>
<path d="M11070 2033 c0 -26 63 -65 118 -74 65 -11 170 -11 176 0 12 18 -23
30 -105 37 -72 6 -115 18 -181 52 -5 2 -8 -5 -8 -15z"/>
<path d="M11797 2014 c-14 -15 21 -58 63 -77 63 -29 296 -38 306 -13 4 9 4 20
0 23 -3 3 -54 5 -113 4 -116 -2 -206 20 -225 53 -9 17 -20 20 -31 10z"/>
<path d="M12250 2007 c0 -16 49 -42 116 -60 68 -20 261 -17 275 4 5 7 9 17 9
22 0 7 -26 11 -45 7 -5 -1 -50 -4 -100 -7 -79 -5 -99 -2 -166 21 -87 30 -89
30 -89 13z"/>
<path d="M12710 1947 c0 -20 40 -54 91 -76 83 -37 309 -37 309 -1 0 12 11 11
-130 13 -101 2 -122 6 -172 29 -31 15 -59 32 -63 37 -9 16 -35 14 -35 -2z"/>
<path d="M11400 1938 c0 -39 119 -89 215 -91 50 -2 115 18 115 34 0 5 -31 9
-68 9 -88 0 -180 18 -214 42 -30 21 -48 23 -48 6z"/>
<path d="M13170 1904 c0 -8 41 -42 72 -59 28 -15 256 -35 332 -29 37 4 60 19
51 35 -3 4 -67 7 -144 7 -142 1 -211 11 -262 37 -29 16 -49 19 -49 9z"/>
<path d="M12234 1877 c-10 -27 22 -65 65 -77 22 -6 99 -12 172 -15 134 -4 159
1 159 31 0 11 -21 13 -110 9 -143 -5 -215 6 -251 41 -25 24 -29 25 -35 11z"/>
<path d="M13660 1855 c0 -8 19 -24 43 -35 36 -18 61 -21 179 -21 94 0 143 4
157 13 28 17 21 33 -15 31 -181 -10 -281 -7 -313 10 -42 21 -51 21 -51 2z"/>
<path d="M11790 1806 c0 -18 11 -29 48 -47 42 -21 61 -24 172 -24 106 0 130 3
154 18 40 26 21 39 -39 28 -80 -15 -235 -8 -272 12 -18 10 -33 22 -33 27 0 6
-7 10 -15 10 -9 0 -15 -9 -15 -24z"/>
<path d="M12712 1798 c6 -45 119 -78 270 -78 83 0 128 12 128 33 0 12 -22 14
-112 11 -125 -4 -234 13 -253 40 -18 23 -37 20 -33 -6z"/>
<path d="M13175 1771 c-9 -15 3 -31 23 -31 10 0 26 -6 37 -14 11 -7 34 -16 50
-19 17 -2 55 -12 85 -20 31 -9 86 -20 123 -25 65 -8 77 -6 116 24 2 2 -2 10
-9 19 -10 12 -16 13 -38 1 -21 -11 -37 -11 -96 0 -81 15 -237 55 -273 70 -6 3
-14 0 -18 -5z"/>
<path d="M12210 1712 c0 -23 35 -55 79 -72 39 -16 247 -17 296 -3 31 10 45 52
15 45 -47 -11 -185 -18 -243 -12 -54 6 -74 13 -96 34 -32 30 -51 33 -51 8z"/>
<path d="M13680 1676 c0 -8 13 -24 28 -35 54 -38 303 -28 264 11 -6 6 -54 10
-114 9 -75 -1 -111 3 -132 14 -35 19 -46 19 -46 1z"/>
<path d="M12714 1649 c-7 -12 34 -35 83 -48 84 -22 283 -14 311 13 22 21 -7
37 -49 26 -72 -19 -184 -20 -263 -1 -42 10 -79 15 -82 10z"/>
<path d="M11807 1634 c-14 -14 17 -47 61 -66 75 -34 282 -25 282 11 0 6 -35
10 -82 9 -155 -2 -173 1 -212 27 -41 28 -40 27 -49 19z"/>
<path d="M13149 1613 c11 -22 57 -45 131 -69 56 -18 260 -27 275 -12 18 18
-12 28 -83 28 -111 0 -194 15 -256 44 -65 31 -80 33 -67 9z"/>
<path d="M13616 1533 c-12 -13 -5 -33 17 -47 43 -28 243 -38 304 -15 30 11 25
35 -8 32 -13 -1 -75 -3 -137 -4 -101 -2 -116 0 -141 19 -16 12 -31 18 -35 15z"/>
<path d="M12210 1516 c0 -8 21 -24 47 -36 42 -19 63 -22 163 -21 125 1 185 11
208 34 24 25 5 37 -30 20 -46 -23 -287 -23 -322 1 -31 20 -66 21 -66 2z"/>
<path d="M12715 1460 c-4 -7 2 -22 14 -34 20 -19 32 -21 159 -21 147 0 192 7
192 29 0 11 -28 13 -155 10 -129 -4 -159 -2 -179 11 -18 12 -26 13 -31 5z"/>
<path d="M13142 1433 c2 -10 23 -24 52 -35 63 -22 326 -32 352 -13 29 21 2 26
-158 29 -115 2 -162 7 -190 19 -47 21 -60 21 -56 0z"/>
<path d="M13635 1341 c-19 -32 47 -51 183 -51 101 0 162 15 162 40 0 9 -47 8
-193 -4 -30 -3 -103 8 -128 18 -10 4 -20 3 -24 -3z"/>
<path d="M14313 5360 c-14 -6 -23 -18 -23 -30 0 -17 4 -20 22 -14 12 4 43 8
68 9 25 1 47 3 49 4 2 0 -4 10 -14 21 -19 21 -63 25 -102 10z"/>
<path d="M13925 5329 c-16 -4 -49 -7 -73 -8 -48 -1 -65 -22 -39 -48 13 -14 22
-13 88 1 68 16 185 23 195 13 11 -10 99 20 99 34 0 11 -23 14 -120 15 -66 0
-133 -3 -150 -7z"/>
<path d="M13568 5285 c-3 -3 -64 -12 -137 -19 -122 -13 -161 -24 -161 -48 0
-5 12 -7 28 -4 15 3 65 8 112 11 72 5 104 8 175 20 6 1 29 3 53 3 35 2 42 5
42 22 0 18 -7 20 -53 20 -30 0 -56 -2 -59 -5z"/>
<path d="M12985 5205 c-33 -8 -92 -21 -132 -30 -62 -14 -116 -45 -102 -59 2
-2 38 4 79 14 200 50 268 61 310 49 10 -3 15 3 15 16 0 17 -7 20 -55 22 -30 1
-82 -5 -115 -12z"/>
<path d="M12620 5140 c-65 -9 -251 -55 -318 -79 -29 -10 -48 -24 -50 -35 -3
-16 1 -17 30 -11 18 4 38 11 43 15 6 4 28 11 50 14 22 4 54 11 70 16 87 26
171 43 218 44 45 1 52 4 52 21 0 23 -16 26 -95 15z"/>
<path d="M11994 5011 c-93 -34 -174 -84 -174 -108 0 -18 1 -18 72 21 68 37
183 76 227 76 25 1 25 1 7 15 -26 19 -69 18 -132 -4z"/>
<path d="M12560 4960 c-61 -6 -181 -36 -242 -59 -17 -6 -28 -18 -28 -30 0 -18
4 -18 81 9 44 16 104 31 132 34 29 3 79 8 112 12 67 6 75 9 75 30 0 15 -20 16
-130 4z"/>
<path d="M11579 4837 c-80 -28 -193 -96 -197 -120 -5 -23 19 -22 50 2 65 51
225 116 259 106 17 -6 20 -3 17 12 -5 27 -52 27 -129 0z"/>
<path d="M11984 4796 c-99 -46 -163 -96 -122 -96 6 0 43 16 81 36 43 22 89 38
123 41 34 4 54 11 54 18 0 32 -68 33 -136 1z"/>
<path d="M11235 4703 c-51 -12 -145 -66 -197 -113 -32 -28 -58 -56 -58 -61 0
-15 26 -10 41 7 13 16 85 64 153 103 21 12 54 22 73 23 37 1 56 24 32 39 -8 5
-16 8 -19 8 -3 -1 -14 -3 -25 -6z"/>
<path d="M10843 4514 c-90 -72 -163 -147 -163 -166 0 -26 8 -23 43 18 18 20
53 51 79 69 25 19 55 41 65 49 10 8 29 23 42 34 22 17 23 42 1 42 -5 0 -35
-21 -67 -46z"/>
<path d="M10605 4282 c-7 -9 -34 -42 -60 -72 -63 -75 -97 -139 -90 -167 7 -31
30 -29 33 3 2 29 73 139 127 197 40 44 40 43 20 51 -9 3 -22 -2 -30 -12z"/>
<path d="M13316 4871 c-4 -6 5 -15 21 -21 91 -33 175 -112 226 -212 20 -40 37
-78 37 -84 0 -6 7 -24 15 -41 16 -32 36 -125 29 -132 -2 -3 -20 3 -39 12 -37
18 -147 46 -205 53 -19 2 -55 7 -80 10 -156 23 -301 26 -351 9 -62 -22 -94
-44 -81 -57 7 -7 31 -3 74 12 61 21 132 27 210 15 18 -2 85 -11 148 -20 179
-24 211 -31 278 -64 41 -21 77 -31 107 -31 89 0 293 -120 333 -195 17 -34 42
-32 42 2 0 20 -14 41 -54 78 -55 51 -171 126 -216 140 -28 8 -50 24 -50 35 0
9 126 104 185 140 61 38 125 66 184 81 53 13 75 34 51 49 -12 8 -76 -5 -95
-19 -5 -4 -26 -14 -45 -21 -82 -33 -202 -109 -298 -188 -34 -29 -53 -39 -56
-30 -2 7 -11 47 -21 88 -16 67 -49 141 -104 237 -19 33 -95 105 -142 135 -35
22 -95 33 -103 19z"/>
<path d="M11890 4224 c-125 -33 -216 -100 -316 -231 -76 -100 -88 -110 -101
-75 -20 50 -149 146 -283 209 -45 22 -194 30 -215 13 -29 -24 -14 -30 68 -30
79 0 86 -2 185 -51 117 -58 205 -131 222 -185 8 -24 9 -39 2 -46 -5 -5 -50
-12 -99 -14 -108 -6 -143 -14 -257 -62 -92 -38 -218 -131 -224 -165 -6 -29 21
-19 78 31 119 101 333 172 482 159 32 -3 60 -1 66 5 7 7 32 8 67 3 52 -6 62
-12 109 -58 28 -29 60 -64 71 -79 17 -24 22 -26 37 -15 15 12 14 17 -13 58
-52 78 -115 127 -181 140 -32 6 -58 16 -58 21 0 33 47 95 150 199 90 91 117
106 235 134 66 15 91 26 93 38 4 21 -38 22 -118 1z"/>
<path d="M6917 2230 c-10 -28 -31 -69 -47 -93 -26 -40 -144 -155 -207 -204
-23 -18 -25 -22 -10 -23 20 0 77 36 90 57 4 7 14 13 21 13 40 0 184 194 193
260 8 59 -18 52 -40 -10z"/>
<path d="M7017 2164 c-4 -4 -7 -15 -7 -25 0 -54 -57 -167 -115 -227 -55 -58
-58 -62 -38 -62 23 0 122 107 150 162 12 23 27 62 34 86 11 36 10 45 -2 58 -9
8 -18 11 -22 8z"/>
<path d="M12455 3430 c-10 -16 3 -28 38 -35 96 -20 189 -63 273 -126 28 -22
55 -39 60 -39 18 0 131 -125 158 -174 33 -61 33 -74 -1 -87 -61 -24 -109 -48
-131 -66 -124 -97 -172 -147 -156 -163 5 -5 31 12 60 39 94 89 215 157 259
148 11 -3 28 -2 39 2 29 11 146 -7 201 -31 51 -23 123 -67 160 -99 11 -9 42
-36 68 -60 39 -35 50 -40 58 -28 13 20 7 40 -15 53 -11 6 -29 19 -40 29 -112
99 -294 187 -386 187 -28 0 -26 24 9 113 46 120 122 221 194 258 41 21 56 44
40 60 -12 12 -108 -41 -135 -75 -10 -11 -22 -26 -28 -33 -28 -34 -91 -140
-111 -188 -12 -30 -28 -55 -34 -55 -6 0 -16 15 -23 34 -35 95 -299 282 -458
325 -93 24 -91 24 -99 11z"/>
<path d="M2385 2480 c-10 -17 13 -37 71 -64 110 -51 218 -141 239 -201 13 -35
40 -54 56 -38 8 8 3 25 -16 63 -44 87 -119 153 -242 214 -76 38 -98 43 -108
26z"/>
<path d="M584 2870 c-33 -21 -59 -73 -67 -131 -13 -94 106 -168 208 -129 31
12 75 99 75 150 0 100 -129 166 -216 110z m137 -50 c25 -14 26 -83 2 -109 -36
-38 -153 -34 -153 5 0 26 23 64 44 70 12 4 32 15 45 25 27 22 35 23 62 9z"/>
<path d="M1605 2750 c-32 -36 4 -73 51 -52 26 12 32 40 12 60 -18 18 -43 15
-63 -8z"/>
<path d="M1943 2658 c-30 -32 -21 -73 19 -87 38 -13 65 0 74 35 5 18 1 31 -12
44 -32 30 -58 33 -81 8z"/>
<path d="M1313 2663 c-32 -6 -73 -59 -73 -94 0 -62 130 -109 179 -65 16 15 21
31 21 70 -1 84 -34 107 -127 89z m81 -42 c38 -41 -19 -94 -76 -70 -39 16 -36
43 10 67 47 26 45 26 66 3z"/>
<path d="M843 2524 c-9 -24 10 -49 42 -52 35 -4 45 6 38 41 -5 23 -10 27 -39
27 -23 0 -37 -6 -41 -16z"/>
<path d="M1880 2350 c0 -5 -13 -10 -30 -10 -34 0 -90 -49 -90 -78 0 -27 38
-72 72 -87 41 -17 117 -4 140 25 29 36 23 73 -22 119 -38 39 -70 53 -70 31z
m60 -89 c0 -27 -85 -43 -119 -22 -19 12 -5 48 27 65 24 13 29 12 59 -11 18
-14 33 -28 33 -32z"/>
<path d="M500 688 c-14 -5 -49 -7 -77 -3 -62 8 -72 -9 -23 -38 23 -14 42 -17
78 -12 26 3 66 9 89 12 41 5 63 26 41 39 -18 11 -82 13 -108 2z"/>
</g>
</svg>
