<?xml version="1.0" standalone="no"?>
<!DOCTYPE svg PUBLIC "-//W3C//DTD SVG 20010904//EN"
 "http://www.w3.org/TR/2001/REC-SVG-20010904/DTD/svg10.dtd">
<svg version="1.0" xmlns="http://www.w3.org/2000/svg"
 width="1540.000000pt" height="1544.000000pt" viewBox="0 0 1540.000000 1544.000000"
 preserveAspectRatio="xMidYMid meet">

<g transform="translate(0.000000,1544.000000) scale(0.100000,-0.100000)"
fill="#000000" stroke="none">
<path d="M3470 15043 c-25 -1 -110 -7 -190 -13 -196 -13 -412 -20 -789 -25
-174 -3 -390 -7 -481 -10 -339 -11 -602 -15 -850 -13 -140 1 -298 1 -350 0
-86 -2 -401 -2 -459 -1 -26 1 -44 -22 -48 -61 -11 -106 -16 -888 -8 -1325 9
-463 7 -581 -12 -1085 -3 -85 -7 -549 -9 -1030 -1 -481 -5 -1084 -9 -1340 -3
-256 -9 -685 -12 -955 -10 -736 -11 -2210 -3 -2380 5 -82 11 -262 14 -400 3
-137 8 -302 11 -365 15 -339 19 -620 19 -1235 -1 -634 -3 -819 -20 -1325 -17
-545 -19 -725 -18 -1590 2 -1357 0 -1223 21 -1242 18 -16 254 -17 1188 -7 83
1 265 -1 405 -5 324 -8 751 -11 1235 -8 739 5 3948 3 4260 -3 132 -3 427 -4
655 -3 739 2 1819 -1 2050 -7 124 -2 317 -7 430 -10 206 -5 969 -19 1025 -18
17 0 190 -4 385 -8 195 -5 506 -11 690 -14 184 -2 450 -8 590 -12 290 -9 295
-9 870 1 234 4 447 7 473 6 37 0 49 4 53 17 3 10 9 25 14 34 4 8 7 80 5 160
-2 79 1 176 5 214 7 59 19 209 21 265 0 8 -2 305 -6 660 -7 758 -15 1191 -22
1203 -6 10 -4 1391 2 1421 2 12 7 136 10 276 4 140 8 287 10 325 2 39 7 261
10 495 4 234 8 502 10 595 16 706 19 1737 8 2370 -10 557 -10 2745 1 3300 10
549 16 2399 7 2485 -3 36 -3 103 1 150 3 47 8 151 9 232 4 168 1 175 -79 200
-36 11 -78 13 -177 8 -71 -3 -168 -2 -215 2 -159 13 -507 22 -1035 28 -165 2
-336 6 -380 11 -156 14 -394 21 -705 21 -173 -1 -380 -1 -460 0 -341 1 -987
-8 -1190 -17 -465 -20 -1713 -26 -2570 -11 -228 4 -530 8 -670 11 -675 10
-985 17 -1095 21 -121 5 -2542 12 -2625 7z m2057 -97 c13 -13 2 -90 -17 -124
l-22 -39 22 -45 c12 -26 27 -49 35 -51 27 -11 1 -63 -56 -113 -44 -38 -74 -54
-135 -73 -44 -14 -83 -26 -87 -29 -27 -14 -486 -22 -602 -11 -44 5 -120 11
-170 14 -49 3 -146 13 -215 22 -139 17 -643 22 -740 7 -85 -14 -286 -9 -377 8
-90 18 -156 49 -185 88 -16 23 -17 31 -7 85 12 59 38 108 69 132 8 6 23 18 33
25 10 8 22 30 26 48 5 28 12 35 31 36 129 5 383 17 455 22 102 8 1935 5 1942
-2z m928 -12 c176 -3 365 -7 420 -9 772 -26 3193 -26 3645 0 41 2 285 7 543
11 l467 6 2 -21 c3 -35 5 -70 12 -197 l7 -121 -38 -11 c-21 -6 -56 -13 -78
-17 -22 -3 -71 -20 -109 -38 l-69 -32 -21 30 c-62 87 -163 167 -288 224 -150
70 -388 101 -504 66 -27 -8 -60 -15 -74 -15 -14 0 -38 -7 -54 -15 -16 -9 -46
-20 -65 -25 -75 -18 -121 -41 -186 -90 -38 -27 -75 -50 -83 -50 -8 0 -30 11
-48 25 -18 14 -37 25 -42 25 -5 0 -15 7 -23 16 -23 27 -87 54 -131 54 -85 0
-243 -57 -287 -104 -21 -23 -25 -23 -166 -18 -254 8 -363 -35 -451 -179 -32
-53 -37 -57 -96 -73 -225 -61 -336 -122 -451 -246 -55 -59 -70 -84 -89 -141
l-22 -69 19 -58 c11 -31 36 -80 55 -109 37 -54 133 -133 162 -133 9 0 19 -4
22 -9 9 -14 157 -58 272 -81 55 -11 111 -23 125 -26 48 -11 333 -51 524 -73
50 -6 119 -15 155 -21 36 -5 155 -10 265 -11 110 0 207 -1 215 -2 53 -1 317
16 330 22 8 5 56 9 105 10 50 1 104 5 120 8 17 3 185 6 375 7 375 2 529 11
574 32 16 8 31 13 32 11 2 -1 -5 -113 -16 -247 -17 -224 -19 -501 -5 -635 2
-22 6 -74 10 -115 6 -85 30 -236 51 -326 7 -34 16 -78 19 -99 2 -20 8 -42 14
-49 7 -9 13 -32 26 -106 0 -3 13 -50 27 -105 15 -55 32 -126 38 -158 7 -32 17
-60 23 -63 7 -2 13 -22 14 -43 1 -22 8 -50 16 -63 9 -13 25 -59 37 -103 12
-44 27 -93 35 -110 7 -16 17 -48 21 -70 7 -39 17 -66 51 -142 9 -21 18 -45 19
-53 6 -37 55 -217 63 -231 12 -20 57 -225 66 -298 l7 -54 -73 7 c-41 4 -96 10
-124 12 -213 20 -363 37 -440 49 -209 34 -358 55 -483 70 -74 8 -140 18 -147
22 -13 8 -6 27 79 193 21 41 43 83 47 92 10 20 33 123 50 225 15 92 6 327 -16
408 -9 33 -29 85 -43 115 -38 79 -129 218 -166 252 -38 36 -140 88 -223 114
-60 18 -63 20 -63 51 0 69 -117 133 -216 118 -42 -6 -44 -5 -49 22 -35 167
-77 291 -122 365 -13 21 -23 39 -23 41 0 10 -109 167 -150 217 -100 121 -238
231 -364 291 -225 105 -378 140 -620 141 -94 1 -181 -4 -209 -11 -41 -9 -60
-9 -114 5 -43 11 -80 14 -110 9 -26 -4 -67 -9 -92 -11 -42 -4 -65 -10 -126
-34 -79 -31 -113 -46 -134 -62 -13 -10 -31 -18 -39 -18 -16 0 -150 -81 -191
-115 -141 -118 -281 -286 -281 -336 0 -9 -7 -19 -15 -23 -8 -3 -15 -16 -15
-30 0 -14 -6 -31 -12 -38 -7 -7 -19 -26 -27 -43 -63 -141 -77 -202 -75 -343 1
-81 0 -83 -25 -88 -70 -14 -98 -49 -108 -134 -5 -45 -12 -55 -36 -51 -12 2
-62 -26 -76 -43 -8 -9 -22 -16 -32 -16 -17 0 -199 -166 -199 -182 0 -9 -18
-31 -68 -84 -34 -35 -92 -146 -92 -174 0 -9 -6 -25 -14 -36 -15 -20 -29 -90
-41 -197 l-7 -59 -36 6 c-173 26 -421 14 -531 -27 -56 -20 -61 -20 -267 1 -94
10 -99 13 -108 49 -3 16 -14 37 -23 49 -38 43 -176 123 -295 169 -201 78 -194
73 -108 68 99 -7 242 12 307 42 85 38 153 87 153 110 0 21 0 21 -154 79 -128
49 -179 79 -250 145 -39 37 -93 84 -121 106 -64 51 -115 104 -115 120 0 16 94
24 446 39 118 5 127 30 27 77 -38 17 -86 40 -109 50 -22 11 -63 35 -90 54 -54
38 -264 244 -264 258 0 10 325 -1 369 -12 32 -9 83 9 79 28 -2 7 -32 29 -67
47 -77 40 -185 122 -273 206 -62 60 -118 127 -118 141 0 4 20 7 45 7 41 0 65
7 121 32 12 6 37 13 55 17 23 5 34 12 34 25 0 18 -10 25 -105 71 -166 82 -272
204 -378 435 -36 79 -45 109 -49 175 -6 89 -12 101 -50 108 -39 7 -70 -18
-102 -82 -15 -31 -42 -85 -59 -121 -18 -36 -40 -81 -50 -100 -9 -19 -21 -35
-26 -35 -9 0 -25 45 -71 195 -8 25 -16 62 -18 83 -6 51 -32 77 -75 77 -42 0
-82 -39 -122 -120 -59 -119 -112 -210 -121 -205 -4 3 -12 20 -18 38 -5 18 -30
86 -56 152 -26 66 -51 137 -55 158 -10 50 -36 77 -75 77 -41 0 -59 -15 -89
-72 -14 -27 -43 -75 -65 -108 l-39 -61 -47 113 c-25 62 -50 122 -55 133 -4 11
-15 41 -25 67 -40 113 -133 118 -219 14 -21 -26 -41 -44 -45 -41 -5 2 -31 51
-60 109 -40 81 -57 105 -76 110 -49 12 -105 -38 -105 -94 0 -10 -19 -47 -42
-83 -24 -36 -51 -79 -61 -97 -21 -39 -26 -35 -57 45 -13 33 -44 93 -68 134
-117 200 -146 230 -215 217 -38 -7 -59 -27 -110 -106 -40 -61 -107 -140 -118
-140 -4 0 -27 27 -50 60 -53 76 -80 94 -128 85 -25 -5 -48 -20 -77 -52 -23
-26 -46 -43 -52 -39 -6 4 -20 26 -30 49 -29 64 -69 107 -101 107 -36 0 -91
-19 -91 -31 0 -5 -15 -25 -32 -43 -18 -18 -51 -54 -73 -80 l-39 -48 -21 26
c-63 80 -60 75 -149 266 -16 35 -75 49 -111 26 -14 -9 -23 -21 -20 -26 7 -12
-47 -120 -61 -120 -6 0 -22 -20 -35 -44 -22 -43 -24 -44 -49 -31 -14 7 -37 24
-50 38 -57 55 -90 59 -148 17 -45 -33 -41 -35 -82 45 -19 38 -31 51 -51 53
-49 6 -75 -14 -115 -87 -21 -39 -43 -70 -49 -68 -5 2 -27 38 -47 80 -34 68
-41 77 -72 82 -51 10 -72 -1 -117 -61 -47 -64 -56 -62 -94 21 -51 108 -117
137 -180 79 -14 -13 -29 -24 -32 -24 -4 0 2 520 7 568 0 2 307 2 683 1 375 -1
781 1 902 5 370 13 421 14 690 15 143 1 268 1 278 1 14 0 10 -10 -22 -50 -89
-113 -60 -276 67 -372 131 -100 316 -137 577 -114 309 27 694 25 790 -5 17 -5
82 -13 145 -19 126 -11 178 -17 243 -26 65 -10 391 -11 497 -3 93 8 130 15
220 47 55 19 150 91 150 114 0 9 11 29 24 45 33 40 30 116 -8 174 l-28 41 16
62 c9 36 12 79 9 104 l-6 43 259 -5 c142 -3 403 -8 579 -12z m5689 -6 c12 -51
36 -426 36 -550 0 -188 -18 -589 -36 -815 -17 -200 -23 -637 -11 -733 13 -101
26 -168 36 -187 5 -10 22 -63 37 -118 14 -55 33 -113 41 -129 8 -16 13 -48 12
-75 -2 -25 0 -64 4 -86 4 -22 9 -65 12 -95 17 -181 39 -346 46 -354 5 -5 17 1
28 15 19 23 20 37 19 279 -2 250 5 400 22 470 5 19 14 67 21 105 6 39 15 75
20 80 4 6 10 28 12 50 5 37 13 75 38 180 18 77 79 502 99 700 6 55 15 123 20
150 5 28 9 59 9 70 -1 34 12 259 17 285 2 14 11 126 19 250 9 124 18 245 21
270 3 25 6 87 8 137 1 51 4 95 7 97 3 3 113 1 244 -4 132 -5 439 -11 682 -14
242 -3 447 -8 455 -10 14 -5 107 -11 351 -22 l157 -7 1 -106 c1 -58 1 -110 0
-115 -1 -5 -4 -482 -6 -1060 -2 -578 -8 -1240 -11 -1471 -4 -231 -9 -816 -10
-1300 -1 -484 -3 -1058 -4 -1275 -1 -366 3 -603 15 -1050 10 -356 3 -2383 -10
-2600 -1 -25 -3 -91 -4 -147 l-1 -101 -28 -10 c-16 -5 -39 -23 -51 -38 -36
-47 -151 -227 -151 -237 0 -13 -93 -96 -101 -91 -4 2 -12 26 -19 54 -7 28 -18
50 -25 50 -7 0 -18 7 -25 15 -18 21 -51 10 -134 -46 l-71 -49 -13 93 c-7 54
-10 132 -7 189 6 96 6 97 -20 114 -53 34 -83 24 -154 -53 -37 -38 -86 -97
-111 -131 -33 -45 -46 -58 -52 -48 -16 28 -20 193 -9 321 11 129 11 130 -11
147 -38 29 -63 22 -112 -33 -67 -75 -279 -363 -297 -405 -12 -27 -92 -144 -99
-144 -4 0 -18 24 -30 53 -30 70 -91 159 -140 203 -22 20 -40 44 -40 54 0 21
-48 43 -81 38 -31 -4 -51 -47 -51 -106 1 -26 -9 -69 -20 -97 -64 -153 -88
-187 -88 -124 0 16 -4 49 -9 72 -5 23 -17 78 -26 122 -9 44 -34 135 -56 201
-21 67 -39 131 -39 142 0 31 -27 52 -66 52 -32 0 -36 -4 -65 -62 -16 -35 -39
-87 -49 -116 -10 -29 -36 -83 -57 -120 -21 -37 -41 -74 -46 -82 -4 -8 -16 -28
-27 -45 -11 -16 -29 -48 -41 -70 -12 -22 -33 -51 -47 -64 -25 -22 -26 -23 -39
-5 -7 10 -19 37 -25 59 -14 52 -35 72 -78 80 -29 5 -46 -1 -97 -31 -34 -21
-89 -59 -122 -86 -33 -26 -62 -48 -65 -48 -3 0 -8 15 -12 34 -23 127 0 277
113 731 19 77 39 144 44 149 5 6 9 18 9 27 0 10 13 58 30 109 16 50 50 162 75
248 51 176 79 269 106 356 11 32 19 66 19 75 0 8 9 38 19 66 30 78 40 134 62
329 11 100 23 206 27 236 7 54 7 203 2 1025 -1 233 2 494 8 585 30 441 35 702
16 914 -8 92 -16 171 -19 176 -2 4 -14 60 -25 126 -12 65 -25 133 -31 149 -5
17 -25 87 -44 157 -19 70 -56 180 -81 245 -26 65 -59 163 -75 218 -16 55 -45
150 -64 210 -47 153 -106 362 -115 410 -4 22 -22 103 -38 180 -58 268 -71 375
-78 635 -4 159 -3 294 5 385 16 196 19 232 26 385 4 74 8 164 10 200 16 277
19 363 19 495 0 83 -3 209 -7 280 -3 72 -8 193 -10 270 -2 77 -7 148 -12 157
-8 19 4 20 342 26 l172 3 5 -23z m414 7 c21 -5 23 -10 18 -48 -3 -23 -8 -97
-11 -164 -3 -67 -8 -130 -9 -140 -2 -10 -7 -88 -11 -173 -4 -85 -8 -157 -10
-160 -2 -3 -6 -39 -9 -80 -15 -190 -27 -292 -85 -715 -29 -214 -50 -337 -82
-481 -16 -73 -29 -144 -29 -159 0 -20 -4 -26 -17 -23 -24 4 -29 48 -38 314 -8
215 -7 451 1 549 11 140 14 909 4 1001 -6 54 -15 137 -21 184 -5 47 -7 90 -5
96 4 11 257 10 304 -1z m-1768 -231 c200 -42 343 -132 397 -251 25 -54 81
-123 101 -123 5 0 19 17 29 37 25 47 118 101 183 105 l44 3 9 -50 c11 -68 -1
-786 -14 -801 -5 -7 -29 -14 -52 -17 -23 -2 -80 -12 -127 -22 -68 -13 -155
-17 -425 -20 -187 -2 -358 -7 -380 -10 -22 -3 -74 -8 -115 -10 -41 -3 -122 -9
-180 -14 -58 -5 -271 -8 -475 -6 -316 3 -390 7 -505 25 -74 11 -211 32 -305
46 -163 23 -378 68 -476 98 -113 35 -229 114 -229 156 0 11 9 43 20 72 45 121
238 250 453 303 38 9 80 17 95 18 22 2 30 11 45 52 19 52 83 126 128 150 15 8
63 24 109 35 76 20 89 21 186 9 58 -6 107 -16 110 -20 8 -14 44 -10 44 4 0 18
68 81 110 102 44 23 134 44 185 45 44 0 130 -36 183 -77 28 -21 41 -25 79 -20
28 3 54 14 71 30 79 73 266 154 387 167 85 10 227 3 315 -16z m-9070 -591
c103 -159 124 -183 165 -183 24 0 35 7 50 33 26 45 146 177 156 172 4 -3 23
-34 43 -69 61 -108 137 -150 165 -90 6 14 28 45 48 70 34 40 38 42 54 28 10
-9 35 -42 56 -74 39 -60 76 -90 112 -90 14 0 49 39 122 136 l103 137 29 -34
c35 -42 111 -198 178 -364 38 -94 51 -112 91 -120 39 -9 50 3 77 90 25 80 112
257 126 259 9 1 30 -35 90 -154 26 -51 58 -73 100 -68 22 2 33 14 57 58 16 30
39 65 51 78 l23 22 54 -122 c30 -68 68 -157 85 -198 38 -95 65 -130 102 -133
26 -2 32 5 75 88 25 50 53 105 62 123 8 17 18 32 21 32 8 0 51 -98 87 -200 30
-85 75 -180 101 -212 21 -26 66 -41 83 -27 8 6 14 17 14 24 0 8 4 15 9 17 4 2
36 60 70 129 71 146 84 162 99 122 5 -16 23 -64 40 -108 16 -44 35 -96 41
-117 15 -45 57 -88 87 -88 14 0 34 13 51 34 36 45 60 92 118 231 l16 40 16
-35 c125 -271 227 -403 386 -499 20 -12 37 -26 37 -31 0 -15 -40 -22 -113 -20
-100 4 -107 2 -107 -18 0 -10 34 -66 75 -125 58 -83 97 -124 175 -189 119 -99
117 -104 -39 -93 -189 13 -186 14 -183 -15 9 -86 276 -365 395 -414 54 -22
-150 -37 -362 -27 -29 2 -57 -1 -62 -6 -21 -21 31 -105 114 -186 220 -218 275
-261 387 -307 30 -12 68 -27 85 -34 l29 -13 -45 -26 c-105 -62 -260 -60 -453
4 -110 37 -127 40 -187 35 -42 -5 -77 -3 -95 5 -16 6 -38 15 -49 20 -11 4 -51
20 -90 34 -38 15 -86 32 -105 40 -147 57 -227 88 -305 118 -49 20 -144 52
-210 71 -174 51 -291 89 -413 134 -215 79 -511 171 -697 216 -104 26 -219 55
-255 65 -36 11 -119 31 -185 45 -66 15 -158 37 -205 51 -47 13 -130 33 -184
45 -55 11 -102 23 -106 25 -28 17 -319 59 -599 85 -53 5 -154 16 -226 24 -71
9 -139 15 -150 14 -11 0 -47 2 -80 6 -33 3 -190 7 -350 7 l-290 1 2 707 1 706
31 59 c17 32 31 65 31 72 0 8 5 14 10 14 6 0 10 10 10 23 0 13 6 32 14 42 14
19 15 19 34 -5 12 -14 34 -53 51 -86 17 -34 42 -72 58 -83 45 -36 64 -25 107
62 25 50 45 77 54 75 8 -2 26 -24 39 -50 34 -66 94 -118 136 -118 29 0 34 5
62 62 44 89 55 93 107 35 32 -36 52 -49 80 -54 36 -5 37 -4 58 41 14 29 29 46
40 46 9 0 40 -25 68 -55 55 -59 92 -79 124 -69 12 3 35 37 57 82 50 102 71
142 75 142 2 0 41 -57 86 -127z m6837 -974 c17 -17 156 -25 268 -16 63 6 134
5 190 -2 50 -6 119 -13 155 -16 115 -11 185 -35 375 -126 133 -63 313 -265
429 -480 47 -88 98 -230 110 -309 4 -25 9 -52 12 -61 5 -17 -81 -83 -96 -74
-5 3 -13 28 -19 55 -6 28 -19 67 -30 88 -10 20 -24 55 -31 77 -44 138 -252
397 -366 458 -47 24 -46 1 1 -44 53 -51 166 -186 213 -255 56 -81 112 -205
151 -331 30 -98 31 -104 15 -128 -15 -24 -44 -35 -44 -17 0 5 -24 14 -54 21
-80 18 -222 124 -311 232 -81 98 -110 129 -122 129 -7 0 -13 -6 -13 -13 0 -16
50 -95 93 -150 74 -92 104 -120 195 -185 105 -75 152 -102 177 -102 8 0 15 -4
15 -10 0 -27 -182 -43 -252 -21 -18 5 -60 14 -93 19 -131 21 -283 122 -402
266 -74 89 -153 229 -153 271 0 21 -32 55 -50 55 -37 0 52 -261 116 -340 11
-12 31 -38 47 -55 15 -18 34 -53 41 -77 52 -161 82 -219 158 -306 86 -99 168
-140 296 -149 74 -6 87 -21 78 -92 -3 -25 -7 -58 -8 -74 -3 -31 -43 -69 -112
-107 l-45 -24 -29 27 c-26 25 -82 38 -82 19 0 -27 35 -104 52 -113 15 -8 18
-17 13 -42 -4 -18 -14 -39 -23 -47 -57 -51 -108 -208 -117 -358 -6 -105 12
-277 34 -327 5 -11 14 -47 20 -79 6 -34 22 -73 36 -92 31 -41 31 -49 -2 -89
-16 -18 -50 -65 -78 -105 -95 -137 -235 -242 -390 -290 -38 -12 -89 -28 -111
-36 -195 -63 -402 -47 -494 37 l-43 39 5 82 c4 70 10 93 38 143 36 66 57 88
78 80 28 -11 48 13 52 62 7 78 6 193 -3 264 l-8 66 118 6 c110 4 196 24 213
49 3 4 24 14 45 22 61 22 214 105 294 160 72 50 151 119 151 133 -1 14 -38 53
-50 53 -9 0 -100 -70 -130 -100 -18 -18 -129 -85 -205 -123 -199 -102 -366
-129 -526 -87 -93 24 -213 74 -256 106 -17 13 -34 24 -37 24 -15 0 -143 99
-199 153 -74 72 -103 128 -123 241 -27 145 -11 448 31 606 8 30 15 78 14 105
0 49 -4 75 -30 185 -24 102 -19 127 53 278 23 46 41 53 58 21 14 -25 75 -52
100 -44 25 8 15 32 -22 51 -64 33 -74 145 -26 303 21 71 28 81 110 164 49 48
88 94 88 103 0 40 -84 17 -136 -37 -15 -16 -33 -29 -39 -29 -21 0 -76 -79 -96
-138 -11 -31 -23 -95 -26 -142 -6 -74 -9 -87 -32 -106 -26 -22 -91 -140 -91
-166 0 -8 -4 -18 -9 -23 -25 -27 -40 -192 -20 -212 22 -22 38 -153 27 -210 -6
-29 -14 -50 -18 -48 -5 3 -16 31 -26 63 -28 94 -56 155 -83 185 -24 27 -26 34
-25 120 3 133 28 218 119 397 69 136 172 268 257 326 21 15 40 34 43 44 3 10
19 22 35 25 17 4 30 11 30 16 0 5 6 9 13 9 6 0 26 11 42 25 17 13 35 28 40 32
13 10 72 33 110 42 17 4 53 18 80 31 52 24 60 26 135 40 67 12 105 11 117 -1z
m-7667 -643 c113 -3 243 -10 290 -15 47 -5 164 -17 262 -25 176 -16 489 -57
583 -75 28 -6 82 -20 120 -31 39 -12 99 -28 135 -36 36 -8 85 -22 110 -30 25
-8 110 -31 190 -51 80 -19 168 -42 195 -49 103 -27 381 -97 415 -104 19 -4
105 -30 190 -57 85 -28 177 -56 205 -62 27 -7 79 -23 115 -37 36 -14 81 -31
100 -39 63 -24 254 -87 325 -106 115 -33 165 -49 275 -91 122 -47 246 -95 275
-107 11 -5 40 -16 65 -26 25 -10 54 -21 65 -26 11 -5 51 -20 90 -34 38 -14 89
-36 112 -50 23 -13 59 -28 80 -35 31 -9 128 -48 228 -91 11 -5 58 -22 105 -39
119 -43 253 -100 268 -115 19 -17 -51 -87 -103 -101 -75 -22 -294 -100 -307
-111 -7 -6 -24 -13 -38 -16 -14 -3 -59 -16 -100 -30 -41 -14 -128 -42 -192
-62 -65 -20 -118 -40 -118 -45 0 -4 -15 -10 -32 -13 -18 -2 -96 -21 -173 -41
-77 -20 -176 -46 -219 -57 -188 -48 -462 -147 -593 -213 -50 -25 -94 -46 -98
-46 -13 0 -321 -124 -344 -139 -13 -8 -30 -16 -37 -17 -7 -1 -54 -21 -106 -44
-51 -23 -136 -59 -188 -80 -52 -20 -124 -49 -160 -63 -130 -52 -608 -209 -679
-223 l-34 -7 6 189 c4 104 10 314 13 466 l7 278 78 30 c43 16 86 30 95 30 21
0 135 40 148 52 6 4 19 8 29 8 10 0 30 9 44 20 14 11 31 20 38 20 21 0 38 57
32 105 -2 25 0 48 5 51 6 4 7 38 3 88 -6 74 -9 83 -36 107 -29 26 -30 28 -16
55 9 16 54 70 101 119 47 50 86 95 86 102 0 24 -14 44 -41 59 -16 8 -29 18
-29 23 0 4 20 22 45 40 25 18 45 38 45 44 0 7 -49 62 -108 123 -135 140 -155
150 -317 158 -66 3 -122 5 -124 6 -2 0 0 29 4 65 9 88 1 120 -35 135 -34 14
-85 5 -112 -20 -15 -14 -19 -33 -20 -92 l0 -74 -62 3 c-33 2 -106 8 -161 13
-102 10 -150 13 -172 11 -13 -1 -20 -34 -28 -131 -3 -36 -8 -90 -13 -120 -4
-30 -7 -61 -6 -67 1 -7 2 -23 3 -35 2 -37 16 -50 62 -58 24 -5 55 -11 69 -14
14 -3 63 -10 109 -16 46 -5 86 -11 88 -14 8 -8 -32 -24 -100 -40 -36 -9 -98
-28 -137 -43 l-70 -27 4 -151 c3 -82 9 -165 15 -183 11 -37 13 -35 -61 -57
-29 -8 -44 -19 -48 -33 -3 -12 -12 -30 -20 -40 -8 -9 -33 -40 -55 -67 -21 -28
-43 -53 -49 -56 -19 -14 6 -59 83 -151 102 -122 122 -135 175 -119 52 15 99
27 156 40 25 5 59 17 75 25 17 9 43 16 58 16 l29 0 -6 -222 c-4 -123 -9 -277
-12 -343 -2 -66 -6 -169 -8 -229 -3 -59 -8 -112 -13 -116 -11 -11 -335 -87
-448 -105 -22 -4 -107 -20 -190 -36 -82 -17 -190 -34 -240 -39 -118 -13 -244
-28 -275 -34 -88 -15 -442 -56 -490 -56 l-20 0 5 438 c4 240 8 896 10 1457 1
561 6 1029 9 1040 8 22 38 23 516 11z m9435 -436 c11 -18 -27 -80 -99 -160
-39 -43 -86 -108 -105 -144 -19 -36 -40 -66 -47 -66 -28 0 -66 25 -80 52 -8
15 -21 28 -29 28 -33 0 -4 96 50 167 39 52 98 85 200 114 70 20 101 23 110 9z
m-2813 -82 c8 -13 27 -60 43 -104 22 -65 26 -87 18 -110 -8 -25 -14 -29 -44
-26 -48 4 -70 18 -97 60 -41 63 -36 116 17 175 30 33 44 34 63 5z m-5517 -8
c61 -5 155 -12 210 -16 113 -7 137 -9 250 -19 l80 -7 77 -81 c42 -44 75 -84
72 -89 -3 -4 -24 -18 -47 -29 -22 -12 -65 -37 -94 -56 -36 -25 -59 -34 -75
-30 -73 18 -125 27 -233 38 -66 7 -124 12 -129 10 -5 -1 -59 3 -120 10 -61 7
-136 15 -166 18 l-55 6 1 50 c0 28 4 85 9 128 l8 77 51 0 c28 0 101 -4 161
-10z m7290 -75 c59 -39 142 -75 225 -98 108 -29 250 -50 305 -44 47 5 57 3 65
-13 16 -29 13 -35 -27 -57 -117 -64 -356 -70 -446 -10 -65 44 -135 127 -169
201 -31 67 -27 69 47 21z m1170 22 c11 -8 40 -21 65 -31 84 -32 153 -85 196
-150 109 -160 136 -276 123 -527 -7 -135 -32 -246 -74 -329 -14 -27 -25 -56
-25 -64 0 -9 -26 -64 -57 -123 l-57 -108 0 -100 c0 -106 11 -149 59 -225 14
-22 25 -42 25 -44 0 -11 -88 -29 -141 -29 -113 0 -208 78 -287 237 -63 127
-75 192 -68 366 3 80 10 161 15 180 25 89 38 150 33 154 -3 3 3 26 13 51 9 26
15 49 12 52 -3 3 3 28 15 57 16 41 19 67 16 131 -5 91 -33 157 -92 220 l-35
37 19 39 c24 46 189 217 210 218 9 1 24 -5 35 -12z m-3083 -147 c16 -22 46
-52 68 -68 31 -21 43 -38 55 -77 18 -57 21 -186 6 -260 -14 -70 -67 -217 -108
-299 -62 -123 -76 -246 -47 -411 24 -135 17 -185 -39 -275 -45 -75 -112 -137
-170 -159 -31 -12 -32 -8 -13 51 28 87 28 110 -3 195 -36 100 -40 108 -91 169
-52 62 -114 191 -129 269 -27 135 -31 245 -11 325 10 41 25 89 34 105 9 17 16
37 16 46 0 9 7 22 15 29 8 7 15 18 15 26 0 7 22 39 48 71 27 32 61 78 76 102
52 82 94 119 211 188 31 18 38 15 67 -27z m260 -120 c19 0 20 -4 16 -71 -8
-105 -25 -113 -43 -21 -4 18 -13 45 -20 59 -16 30 -10 47 12 39 8 -3 24 -6 35
-6z m2370 -7 l38 -18 -5 -85 c-7 -105 -30 -190 -67 -255 -90 -156 -221 -265
-360 -301 -34 -8 -80 -21 -101 -27 -53 -15 -67 2 -31 39 28 31 57 90 68 141 5
19 15 35 27 38 11 4 56 43 99 87 74 75 79 84 85 133 4 29 4 76 0 104 -5 41 -4
51 7 51 13 0 64 24 164 78 13 7 24 17 24 23 0 13 8 12 52 -8z m-7617 -64 c81
-14 183 -11 209 7 29 20 96 16 96 -5 0 -4 -42 -50 -93 -103 l-92 -96 -210 -52
c-116 -29 -225 -59 -244 -66 -18 -8 -43 -14 -55 -14 -11 0 -58 -12 -104 -27
-71 -24 -84 -25 -93 -13 -5 8 -8 73 -7 145 3 121 4 130 23 133 11 2 29 7 40
11 45 18 205 55 277 63 42 5 90 15 105 23 28 15 38 15 148 -6z m7778 3 c36
-39 49 -93 42 -167 -10 -105 -34 -242 -56 -315 -23 -79 -49 -245 -49 -319 0
-40 -3 -52 -13 -48 -12 4 -101 18 -427 67 -41 6 -114 16 -162 22 -87 11 -98
17 -78 48 7 11 30 15 87 16 85 1 204 26 269 56 48 22 118 88 177 166 22 29 47
57 56 62 9 4 24 26 35 47 10 21 22 46 27 55 21 41 50 206 47 266 -2 51 0 62
13 62 9 0 23 -8 32 -18z m-2536 -154 c-3 -8 -6 -5 -6 6 -1 11 2 17 5 13 3 -3
4 -12 1 -19z m7 -150 c4 -40 9 -97 13 -127 l6 -54 -42 6 c-54 7 -58 11 -42 50
21 54 43 140 43 170 0 15 3 27 7 27 5 0 11 -33 15 -72z m-5082 -85 c11 -180
11 -180 -110 -222 -53 -18 -144 -48 -202 -66 -58 -18 -143 -47 -190 -65 -121
-44 -290 -99 -325 -106 -27 -5 -36 2 -97 70 -38 41 -68 77 -68 81 0 5 52 78
78 111 5 5 15 21 22 33 9 19 18 22 43 18 18 -2 75 6 127 19 52 12 142 33 200
44 240 50 339 71 415 89 105 25 105 25 107 -6z m3293 -168 c44 -8 101 -18 128
-21 26 -4 47 -10 47 -14 0 -3 -37 -21 -82 -40 -46 -18 -97 -41 -114 -50 -17
-10 -71 -32 -120 -50 -87 -32 -209 -79 -269 -105 -16 -7 -41 -16 -55 -20 -14
-3 -44 -15 -67 -26 -24 -10 -49 -19 -57 -19 -8 0 -18 -4 -21 -10 -3 -5 -16
-10 -28 -10 -12 0 -31 -7 -42 -16 -11 -8 -38 -19 -60 -25 -22 -5 -49 -14 -60
-18 -27 -12 -130 -38 -182 -46 -24 -4 -45 -10 -48 -15 -3 -4 -26 -11 -52 -15
-27 -3 -57 -13 -69 -20 -11 -7 -68 -25 -126 -40 -59 -14 -130 -35 -160 -46
-29 -11 -78 -29 -108 -40 -30 -11 -74 -28 -97 -39 -24 -11 -47 -20 -53 -20 -6
0 -27 -9 -47 -20 -21 -11 -45 -20 -53 -20 -9 0 -20 -4 -26 -9 -14 -14 -132
-60 -138 -54 -6 7 -446 -208 -446 -218 0 -4 -15 -10 -34 -13 -19 -4 -40 -13
-47 -22 -16 -19 -74 -44 -103 -44 -12 0 -30 -6 -41 -13 -11 -7 -37 -19 -59
-26 -21 -7 -54 -24 -74 -37 -19 -14 -47 -27 -61 -30 -35 -7 -110 -35 -266 -99
-144 -59 -190 -76 -278 -107 -32 -11 -71 -27 -86 -34 -38 -20 -47 -18 -91 26
-43 43 -55 48 -67 26 -11 -19 -63 -9 -64 13 0 9 -2 34 -4 56 -5 66 1 74 56 81
27 4 52 11 55 15 3 5 15 9 28 9 12 0 26 4 31 8 6 5 71 28 145 51 74 24 144 47
155 52 11 4 45 15 75 24 60 18 125 42 153 56 15 8 94 40 267 108 43 17 84 36
225 100 33 16 78 35 100 44 22 8 96 38 164 66 68 28 129 51 135 51 7 0 43 16
82 35 38 19 73 35 78 35 5 0 32 11 60 24 28 13 67 27 86 31 19 4 49 13 65 20
32 14 197 63 255 75 19 4 62 15 95 24 33 9 76 19 95 22 19 2 58 10 85 18 28 8
79 19 113 26 35 6 98 27 140 47 43 19 111 46 152 60 41 14 96 36 122 49 26 13
52 24 58 24 5 0 65 27 132 59 68 33 155 71 193 84 39 14 86 32 105 41 36 17
44 16 175 -9z m750 11 c162 -7 177 -12 188 -62 34 -156 73 -240 176 -379 43
-58 76 -152 75 -211 0 -23 -10 -61 -21 -85 -12 -24 -24 -54 -27 -65 -4 -12
-19 -35 -34 -50 -69 -73 -57 -100 42 -97 108 3 337 88 390 146 40 44 63 104
72 189 5 40 7 77 5 82 -1 6 -4 28 -6 50 -2 23 -8 70 -13 106 -11 73 -2 153 23
220 9 25 21 63 27 85 6 22 14 43 18 48 3 4 44 4 90 0 l84 -8 23 -47 c34 -68
164 -195 273 -268 107 -70 150 -93 267 -141 80 -33 82 -35 93 -79 11 -42 12
-68 6 -225 l-3 -60 -39 -13 c-29 -10 -48 -11 -74 -3 -105 32 -214 14 -318 -53
-118 -76 -436 -333 -587 -476 -88 -84 -236 -200 -253 -200 -5 0 -15 -6 -21
-14 -12 -14 -149 -84 -316 -161 -105 -48 -138 -66 -147 -79 -14 -21 -8 -63 12
-81 11 -10 20 -22 20 -26 0 -4 -37 -26 -82 -49 l-83 -42 -135 7 c-159 7 -320
32 -560 85 -168 37 -197 42 -338 56 -64 7 -64 7 -82 49 -50 117 -78 165 -126
215 -58 62 -60 67 -74 171 -5 45 -18 92 -31 113 -24 42 -93 86 -132 86 -31 0
-32 7 -13 70 7 25 14 74 15 108 2 62 2 64 -37 102 -51 47 -117 65 -214 57 -94
-8 -99 -16 -95 -137 2 -52 7 -109 10 -126 25 -134 31 -401 9 -396 -37 7 -165
-56 -184 -92 -22 -41 -26 -96 -10 -137 15 -38 14 -40 -8 -64 -21 -22 -25 -23
-49 -11 -15 8 -55 40 -90 71 -34 31 -70 55 -79 53 -16 -3 -25 -34 -46 -153 -8
-50 -28 -105 -36 -105 -20 0 -85 53 -147 120 -36 39 -79 78 -96 87 -29 14 -31
14 -44 -3 -8 -11 -16 -30 -19 -44 -3 -14 -21 -57 -40 -97 l-34 -71 -33 11
c-33 12 -76 37 -165 101 -65 45 -87 42 -79 -10 7 -42 0 -65 -18 -58 -23 9
-228 255 -290 349 -47 70 -66 91 -86 93 -32 4 -49 -30 -49 -99 0 -28 -5 -71
-12 -96 l-11 -46 -19 24 c-19 25 -175 261 -194 294 -15 26 -45 43 -51 28 -2
-6 -17 -26 -32 -44 -16 -18 -40 -69 -56 -120 -16 -49 -34 -89 -40 -89 -6 0
-24 14 -40 30 -16 17 -33 30 -37 30 -5 0 -14 5 -21 11 -7 6 -30 20 -52 33 -22
12 -40 27 -40 34 0 13 79 49 170 78 47 14 83 28 195 77 25 10 54 22 65 27 86
34 263 109 320 135 39 18 82 36 95 40 14 4 30 11 35 15 6 3 33 15 60 25 28 10
136 62 240 115 177 91 487 230 512 230 6 0 37 13 69 29 33 16 115 48 184 71
69 23 129 46 134 51 6 5 19 9 29 9 11 0 45 9 76 19 72 25 173 54 286 85 135
36 198 54 220 65 11 5 83 33 160 62 77 28 145 55 150 59 6 4 24 10 40 14 17 4
44 14 60 21 17 8 94 39 171 69 78 30 166 65 195 79 30 13 65 28 79 32 14 4 30
11 36 16 6 5 37 23 70 40 32 17 73 42 91 55 22 17 46 24 80 25 26 1 77 6 113
13 36 6 72 10 80 9 8 -1 69 -4 135 -7z m2867 -310 c53 -19 210 -44 348 -57 58
-5 118 -14 134 -19 16 -6 39 -10 52 -10 13 0 45 -5 72 -11 46 -9 50 -12 61
-52 7 -23 16 -51 21 -62 5 -11 11 -31 14 -45 11 -49 101 -186 163 -247 39 -39
87 -74 130 -95 61 -30 76 -33 153 -32 66 1 94 6 128 23 23 12 42 25 42 30 0 5
11 12 25 15 27 7 88 83 79 97 -3 5 -27 7 -53 3 -46 -6 -49 -5 -75 28 -38 51
-47 198 -11 198 7 0 33 -9 59 -20 26 -12 96 -27 162 -35 63 -8 143 -19 177
-24 34 -6 112 -17 172 -26 61 -8 135 -20 165 -25 30 -5 105 -14 165 -20 61 -5
151 -14 200 -20 50 -5 118 -10 151 -10 l62 0 7 -117 c7 -125 1 -394 -15 -628
-5 -77 -9 -147 -8 -155 0 -8 -3 -76 -8 -150 -5 -74 -7 -299 -5 -500 9 -990 3
-1166 -48 -1464 -6 -32 -13 -61 -16 -64 -3 -3 -40 33 -82 79 -42 46 -106 112
-141 147 -60 57 -68 62 -109 62 -43 0 -44 -1 -64 -47 l-20 -47 -72 72 c-73 72
-168 132 -210 132 -41 0 -47 -17 -47 -139 0 -64 -4 -122 -9 -130 -7 -11 -21
-6 -73 26 -34 22 -101 55 -148 73 -47 18 -86 34 -87 35 -1 1 18 41 42 89 25
48 45 96 45 106 0 11 4 29 9 42 20 51 51 177 57 233 29 278 25 538 -10 710 -8
39 -18 94 -22 124 l-6 54 55 -6 c49 -5 57 -3 76 19 32 37 26 57 -26 94 -51 35
-113 98 -113 113 0 5 -11 30 -24 56 -12 26 -29 64 -36 85 -7 22 -28 70 -46
107 -19 38 -34 72 -34 76 0 3 -22 38 -48 77 -27 39 -64 97 -83 129 -41 71 -47
81 -82 134 -15 24 -27 45 -27 47 0 7 -34 56 -101 146 -84 113 -230 239 -327
282 -26 11 -54 24 -62 28 -25 11 -183 59 -209 62 -16 2 -25 10 -26 23 -5 52
-18 113 -37 173 -28 93 -72 133 -168 157 -105 26 -170 22 -238 -12 -31 -15
-60 -29 -64 -31 -10 -4 -11 112 -1 121 9 10 17 9 65 -7z m216 -137 c17 -6 41
-26 52 -44 25 -41 53 -132 46 -151 -3 -7 1 -33 8 -58 13 -43 13 -44 -11 -55
-33 -15 -53 -14 -53 4 0 7 -13 38 -29 67 -57 104 -145 145 -230 107 -24 -10
-45 -19 -46 -19 -2 0 -6 12 -9 26 -9 34 18 64 83 95 85 40 133 48 189 28z
m-105 -221 c26 -36 47 -100 47 -142 0 -25 -2 -26 -62 -26 -60 0 -64 2 -86 34
-24 35 -46 100 -40 118 4 11 82 46 105 47 7 1 23 -14 36 -31z m473 -178 c206
-69 351 -199 494 -440 24 -41 61 -101 82 -132 21 -31 38 -59 38 -62 0 -3 17
-34 38 -68 21 -35 51 -92 66 -128 16 -36 33 -70 38 -76 32 -41 75 -195 83
-295 2 -30 9 -76 15 -104 6 -27 13 -72 16 -99 3 -27 12 -74 20 -105 23 -88 29
-380 11 -531 -9 -68 -13 -128 -10 -132 7 -12 -17 -145 -33 -183 -7 -18 -11
-35 -8 -37 3 -3 -2 -21 -9 -39 -8 -19 -20 -52 -27 -74 -15 -49 -123 -211 -162
-243 -24 -20 -27 -21 -21 -5 3 10 9 23 13 28 17 23 74 164 86 215 31 123 25
404 -11 560 -4 18 1 32 17 50 13 14 32 36 41 50 10 14 34 34 55 46 39 22 44
46 18 89 -24 39 -63 163 -105 335 -42 171 -52 205 -61 222 -6 10 -10 24 -10
31 0 8 -14 59 -31 113 -111 356 -158 441 -337 618 -98 97 -168 150 -254 196
-36 19 -63 41 -73 60 -17 33 -114 109 -151 119 -22 6 -33 20 -16 22 4 1 16 8
27 15 29 21 60 17 161 -16z m-231 -91 c91 -16 89 -15 61 -52 -14 -19 -26 -39
-26 -45 0 -6 -14 -22 -31 -34 -112 -83 -192 -427 -205 -888 -8 -239 4 -385 37
-488 12 -35 18 -66 14 -70 -4 -4 -29 17 -56 46 -43 47 -68 91 -150 267 -49
105 -64 191 -63 380 0 117 6 213 16 275 9 52 22 133 28 180 15 111 79 379 97
407 8 12 22 24 31 26 35 9 189 6 247 -4z m-1715 -19 c0 -6 -18 -36 -39 -68
-44 -64 -125 -209 -134 -238 -3 -10 -17 -50 -32 -89 -14 -38 -30 -86 -35 -105
-5 -19 -20 -79 -33 -132 -14 -53 -28 -101 -31 -107 -13 -20 -37 -125 -47 -201
-5 -41 -11 -82 -13 -90 -9 -47 -17 -89 -20 -120 -5 -52 -27 -130 -36 -130 -8
0 -36 75 -45 121 -10 48 -17 198 -18 359 -2 166 13 273 48 355 7 17 18 47 23
68 14 50 81 148 151 220 52 55 125 106 210 148 42 21 51 23 51 9z m-3248 -46
c20 -4 39 -12 42 -19 2 -6 -3 -48 -12 -91 -19 -95 -19 -241 0 -292 14 -39 15
-62 1 -152 l-8 -55 -45 -3 c-75 -4 -74 -6 -85 172 -4 61 -13 148 -21 195 -7
48 -14 123 -14 169 l0 82 53 0 c28 0 69 -3 89 -6z m3327 -81 c-2 -68 12 -158
28 -183 43 -65 127 -125 229 -161 48 -18 80 -22 169 -21 119 1 161 9 303 53
51 16 98 29 104 29 6 0 52 21 102 46 82 42 173 109 234 173 12 13 25 22 28 19
3 -3 -12 -107 -32 -229 -34 -203 -38 -241 -38 -414 0 -166 2 -201 22 -280 13
-49 34 -112 47 -140 12 -27 33 -75 46 -105 54 -130 175 -274 240 -287 15 -3
35 -13 43 -22 20 -22 43 -162 39 -236 -5 -89 12 -132 56 -146 66 -19 185 -39
244 -39 l57 0 2 -67 c3 -109 -4 -232 -14 -248 -3 -5 -9 -27 -12 -48 -3 -20
-10 -45 -16 -55 -5 -9 -28 -64 -50 -122 -41 -105 -134 -288 -168 -330 -20 -25
-59 -34 -232 -55 -247 -29 -527 -36 -675 -15 -44 6 -109 13 -145 16 -36 3 -89
9 -119 15 -30 5 -82 9 -115 9 -34 1 -81 5 -106 11 -25 5 -94 14 -155 19 -60 6
-148 17 -195 25 -47 8 -124 21 -172 29 -75 12 -92 18 -133 51 l-46 39 5 70 c3
39 10 118 16 176 6 62 8 224 4 395 -11 512 -11 558 -3 670 11 149 15 177 34
275 9 47 24 137 34 200 11 63 35 168 55 234 20 65 36 126 36 135 0 31 79 258
114 328 20 39 36 76 36 81 0 6 4 12 8 14 4 2 25 31 46 66 20 34 40 62 42 62 3
0 4 -17 3 -37z m1890 -35 c77 -43 133 -88 223 -179 159 -162 180 -209 354
-777 24 -79 44 -149 44 -156 0 -10 72 -232 106 -327 5 -14 -71 -96 -136 -147
-43 -33 -124 -79 -166 -92 -21 -7 -82 -32 -134 -56 -156 -70 -340 -100 -475
-76 l-40 7 -2 65 c-4 115 -30 217 -89 350 -23 50 -50 232 -48 315 3 132 16
388 20 409 2 11 9 55 14 96 5 41 14 98 20 125 6 28 12 59 14 70 16 86 51 186
87 252 34 61 116 151 138 152 7 1 39 -13 70 -31z m-2469 -185 c0 -5 -9 -32
-20 -61 -11 -29 -20 -63 -20 -76 0 -13 -7 -40 -15 -60 -13 -30 -16 -81 -16
-254 1 -236 11 -350 37 -409 10 -21 23 -52 29 -69 6 -17 26 -52 43 -78 18 -26
32 -50 32 -54 0 -11 -179 -74 -250 -88 -19 -3 -39 -9 -45 -13 -12 -8 -93 -40
-184 -72 l-63 -23 -61 68 c-63 70 -113 147 -147 224 -11 24 -35 65 -53 90 -18
26 -47 73 -63 104 -16 32 -32 58 -36 58 -5 0 -8 6 -8 14 0 7 -18 30 -40 50
-22 20 -40 40 -40 46 0 5 26 16 58 25 31 8 98 35 147 60 50 25 95 45 101 45 6
0 51 27 102 60 50 33 94 60 97 60 14 0 176 145 322 288 69 67 93 84 93 65z
m-5581 -133 c-2 -71 -7 -130 -11 -130 -5 0 -32 12 -60 26 -30 15 -76 28 -109
31 l-57 6 -12 -56 c-18 -89 -53 -103 -145 -59 -99 48 -232 85 -310 86 -69 1
-69 1 -79 -29 -5 -16 -15 -43 -21 -60 -7 -16 -18 -47 -25 -67 -6 -21 -15 -38
-18 -38 -4 0 -61 14 -127 30 -66 17 -144 33 -172 36 -53 7 -53 7 -67 -27 -7
-19 -17 -53 -21 -77 l-7 -43 -131 3 c-124 4 -137 6 -212 38 -44 19 -84 40 -88
45 -7 9 -3 144 5 149 2 1 89 10 193 20 105 10 271 30 370 46 99 16 214 31 255
35 82 7 260 34 271 41 4 2 72 15 150 29 159 27 288 55 364 78 28 8 54 16 58
16 5 1 7 -57 6 -129z m2989 77 c6 -7 17 -54 26 -106 15 -98 18 -102 98 -186
26 -28 61 -81 79 -120 35 -75 35 -76 42 -148 5 -48 30 -87 69 -108 23 -13 48
-1 48 23 0 17 4 19 28 13 15 -5 35 -8 44 -9 9 0 15 -3 12 -7 -2 -4 18 -9 44
-12 136 -16 228 -30 237 -37 6 -4 38 -10 73 -14 35 -3 71 -10 82 -16 10 -6 45
-14 77 -19 32 -5 88 -14 124 -21 40 -7 146 -10 265 -8 l199 3 73 38 c39 20 76
37 80 37 5 0 19 -21 32 -47 13 -27 33 -61 46 -78 12 -16 41 -66 65 -110 23
-44 62 -111 86 -149 24 -37 43 -70 41 -71 -9 -9 -203 -68 -261 -81 -80 -17
-128 -18 -194 -4 -62 12 -256 45 -358 60 -44 7 -129 23 -190 36 -60 13 -148
30 -195 38 -96 17 -134 27 -235 61 -162 54 -227 68 -285 62 -42 -4 -62 -1 -72
9 -13 13 -22 11 -69 -11 -30 -13 -64 -25 -76 -25 -32 0 -40 41 -18 90 15 34
16 45 5 84 -12 45 -12 45 20 72 53 45 59 53 65 88 9 48 -10 111 -41 131 l-25
16 25 26 c31 31 33 65 7 125 -20 46 -34 61 -83 87 l-31 17 -2 110 c-1 60 -5
124 -9 142 -8 30 -7 32 17 32 13 0 29 -6 35 -13z m-2669 -236 c43 -38 114 -93
157 -122 44 -29 97 -67 119 -84 22 -17 47 -30 56 -28 17 4 39 63 39 104 0 29
26 105 44 130 12 18 14 18 28 2 8 -10 42 -58 74 -108 32 -49 75 -111 94 -137
19 -26 48 -67 63 -92 16 -25 35 -46 42 -46 17 0 35 52 35 101 0 52 22 179 31
179 4 0 28 -30 53 -67 74 -110 265 -314 321 -345 l50 -27 13 37 c7 20 10 47 7
60 -7 28 16 30 55 2 42 -30 152 -80 176 -80 16 0 30 19 65 90 24 49 49 90 55
90 6 0 31 -21 55 -47 42 -46 188 -143 215 -143 14 0 20 16 29 80 8 66 20 111
36 143 l15 28 40 -32 c21 -17 58 -42 82 -56 25 -15 42 -32 42 -43 0 -10 12
-32 26 -50 25 -29 25 -32 10 -49 -10 -11 -20 -44 -23 -74 -6 -55 -6 -56 44
-109 27 -29 55 -66 63 -83 16 -34 106 -122 132 -131 22 -7 21 12 24 -399 1
-187 3 -423 5 -525 1 -102 -1 -248 -6 -325 -4 -77 -8 -247 -8 -377 0 -264 -1
-267 -61 -205 -66 68 -128 145 -172 212 -115 177 -284 475 -284 501 0 7 -62
130 -104 207 -42 76 -106 173 -171 257 -71 92 -334 335 -445 410 -19 13 -37
27 -40 31 -12 15 -293 191 -366 228 -97 49 -253 121 -263 121 -5 0 -21 7 -37
15 -17 8 -88 31 -159 50 -72 20 -150 43 -175 51 -216 71 -469 123 -790 164
-130 16 -528 40 -673 40 l-130 0 -73 66 c-41 36 -74 71 -74 76 0 11 157 5 210
-7 15 -4 33 0 45 8 16 13 17 17 6 31 -13 15 -12 109 1 122 7 6 120 -21 218
-53 109 -35 159 -47 166 -40 4 3 8 26 10 49 7 106 16 174 23 181 7 7 72 -7
161 -34 42 -13 107 -45 218 -111 45 -26 93 -48 107 -48 22 0 23 3 23 65 -1 63
24 145 44 145 18 0 86 -40 127 -74 24 -20 46 -36 50 -36 4 0 32 -24 62 -54 55
-55 77 -65 115 -53 20 7 21 13 17 85 -2 42 -11 102 -18 133 -17 63 -17 69 -9
69 3 0 40 -31 83 -69z m-129 -92 c0 -23 -8 -24 -32 -2 -25 22 -23 31 7 25 16
-3 25 -11 25 -23z m2610 -5 c106 -9 160 -25 174 -53 7 -14 11 -32 9 -39 -8
-21 -60 -42 -106 -42 -25 0 -82 -7 -127 -16 -81 -15 -121 -14 -202 7 -33 8
-38 14 -38 38 0 36 25 87 53 106 22 16 41 16 237 -1z m-4406 -174 c8 0 21 -6
28 -13 7 -7 42 -28 78 -46 138 -70 448 -381 552 -552 14 -24 50 -78 79 -119
99 -143 194 -346 218 -470 18 -89 15 -322 -5 -460 -23 -162 -99 -348 -224
-550 -25 -41 -49 -83 -53 -93 -22 -58 -192 -249 -432 -484 -147 -145 -271
-263 -276 -263 -5 0 -10 21 -10 48 -1 26 -3 63 -4 82 -1 19 -5 143 -10 275 -4
132 -11 344 -15 470 -9 246 -3 2182 6 2197 3 5 17 2 30 -6 13 -9 30 -16 38
-16z m4243 -59 c39 -5 96 -4 125 0 112 18 135 18 154 4 10 -8 26 -15 35 -15 8
0 23 -6 33 -13 16 -12 17 -18 7 -50 -7 -20 -26 -46 -43 -59 -26 -18 -36 -20
-67 -12 -22 6 -95 7 -181 3 -133 -7 -148 -6 -177 12 -34 21 -49 63 -38 101 12
38 27 50 54 43 14 -3 58 -9 98 -14z m-3366 -226 c145 -9 278 -20 294 -24 29
-9 73 -16 165 -26 101 -11 148 -18 210 -31 36 -8 97 -21 135 -29 39 -7 95 -21
125 -29 30 -9 99 -27 153 -42 54 -14 108 -29 120 -34 12 -5 63 -20 112 -35
103 -30 205 -65 220 -75 6 -4 32 -15 58 -24 72 -27 252 -122 344 -182 46 -30
86 -54 90 -54 3 0 20 -15 37 -33 17 -19 49 -47 71 -63 129 -92 367 -313 444
-411 66 -84 134 -193 178 -283 18 -36 59 -121 92 -190 33 -69 72 -143 85 -165
14 -22 31 -51 39 -65 8 -14 29 -50 47 -80 149 -244 171 -273 306 -407 l83 -82
5 -288 c14 -749 19 -933 32 -1088 9 -113 15 -300 19 -630 5 -314 13 -452 35
-575 5 -30 10 -152 10 -270 1 -193 11 -461 25 -640 3 -36 2 -70 -3 -76 -4 -6
-41 -14 -82 -18 -41 -3 -94 -9 -117 -12 -24 -2 -62 1 -85 7 -59 17 -287 14
-384 -5 -144 -27 -162 -43 -96 -85 42 -28 67 -28 222 -5 124 18 211 18 310 -2
64 -13 89 -14 124 -5 73 18 134 14 195 -15 105 -49 116 -52 231 -68 63 -9 146
-22 184 -28 57 -10 98 -9 230 6 89 10 204 25 256 33 81 14 116 15 244 5 82 -7
154 -16 161 -22 28 -23 376 -16 424 9 20 10 214 -12 280 -33 74 -23 229 -54
325 -66 62 -8 106 -20 147 -41 70 -35 109 -38 109 -9 0 69 -171 138 -384 155
-44 4 -93 13 -110 20 -41 18 -173 53 -211 57 l-30 3 -11 119 c-7 65 -10 164
-8 220 4 120 -15 243 -59 366 -51 147 -66 232 -57 339 5 52 6 109 3 126 -3 18
2 63 10 101 33 149 50 386 43 619 -7 223 -15 296 -45 394 -14 45 -24 58 -54
74 -24 12 -37 26 -37 39 0 20 0 20 33 -2 17 -11 55 -32 82 -45 49 -24 80 -36
245 -100 47 -18 117 -47 155 -64 101 -47 188 -79 202 -74 6 2 38 -8 70 -23 32
-14 87 -37 123 -51 36 -13 69 -29 74 -34 6 -5 18 -9 27 -9 9 0 43 -12 75 -26
68 -31 197 -79 269 -101 28 -8 66 -22 85 -30 19 -8 64 -23 100 -33 36 -10 126
-39 200 -63 74 -25 180 -59 235 -75 218 -66 284 -86 383 -119 57 -18 112 -33
123 -33 12 0 23 -10 29 -27 6 -16 15 -37 22 -48 8 -13 13 -72 14 -165 1 -82 9
-185 18 -238 9 -51 14 -97 11 -102 -3 -5 1 -24 10 -42 8 -18 24 -94 34 -168
11 -74 34 -202 51 -285 18 -82 34 -159 36 -170 2 -11 6 -31 9 -45 6 -33 13
-89 20 -170 4 -36 10 -83 15 -105 15 -64 12 -156 -5 -169 -9 -7 -23 -57 -36
-126 -44 -238 -94 -380 -179 -505 -38 -56 -80 -143 -80 -166 0 -10 -4 -19 -10
-19 -5 0 -10 6 -10 14 0 27 -178 33 -195 6 -18 -29 91 -58 161 -42 l40 9 0
-96 c0 -115 14 -151 83 -209 88 -74 218 -115 454 -143 125 -15 284 -1 346 30
24 13 72 21 146 25 206 14 375 42 383 64 10 30 -130 43 -304 27 -41 -4 -74 -5
-74 -2 0 4 8 22 17 41 14 30 15 41 4 74 -11 32 -10 44 4 78 12 28 14 51 9 84
-4 25 -7 48 -6 51 2 9 -39 133 -78 239 -30 84 -31 87 -28 260 1 96 5 190 9
208 5 25 2 40 -16 66 -29 43 -31 58 -17 126 6 30 14 75 17 100 3 25 11 63 17
85 6 22 12 54 15 70 2 17 13 77 23 135 11 58 22 139 26 180 4 41 11 80 16 86
14 19 21 340 9 424 -17 122 -39 228 -51 250 -14 26 9 37 48 22 15 -6 45 -14
67 -18 22 -4 45 -10 50 -15 13 -9 132 -31 190 -34 49 -3 154 -24 175 -35 9 -5
43 -11 77 -14 97 -9 229 -31 358 -60 39 -9 115 -25 170 -36 93 -18 166 -33
355 -75 41 -9 107 -22 145 -30 39 -7 81 -16 95 -19 36 -8 97 -21 260 -55 80
-17 221 -46 314 -66 93 -19 185 -39 205 -45 20 -5 77 -18 126 -30 50 -11 106
-25 125 -30 33 -9 198 -48 355 -84 39 -9 99 -23 135 -32 36 -8 83 -19 105 -24
22 -5 49 -11 60 -14 11 -2 40 -9 65 -16 25 -6 164 -40 310 -76 421 -103 697
-181 722 -203 11 -11 19 -339 23 -948 l3 -593 -54 0 c-70 0 -145 -29 -230 -89
-38 -27 -94 -64 -124 -82 -30 -18 -104 -66 -165 -106 -60 -41 -111 -69 -113
-63 -2 5 10 33 28 61 34 56 33 73 -5 91 -22 10 -38 7 -103 -15 -224 -77 -328
-123 -432 -192 -37 -25 -72 -45 -78 -45 -6 0 -10 18 -9 42 2 37 -1 42 -26 49
-32 9 -116 -17 -183 -56 -23 -14 -47 -25 -53 -25 -13 0 -15 42 -2 55 5 6 14
27 21 49 15 45 5 56 -49 56 -50 0 -225 -89 -293 -150 -31 -28 -59 -46 -62 -41
-12 18 32 306 58 379 14 40 46 111 71 158 45 82 46 86 29 105 -9 10 -27 19
-40 19 -58 0 -185 -72 -315 -180 -70 -57 -199 -187 -223 -225 -11 -16 -23 -34
-28 -40 -40 -50 -81 -113 -117 -178 -47 -85 -41 -83 -99 -30 -13 12 -34 25
-46 28 -11 4 -52 18 -89 32 -57 21 -73 23 -94 14 -29 -13 -29 -31 5 -196 18
-91 21 -199 6 -244 -3 -11 -53 -12 -282 -7 -152 3 -470 9 -707 12 -236 3 -433
8 -437 10 -4 3 -483 7 -1065 9 -872 4 -1058 7 -1063 18 -3 7 -21 33 -41 58
-52 63 -58 76 -109 217 -23 66 -22 85 6 264 5 31 3 38 -16 48 -14 8 -40 10
-69 6 -45 -6 -220 -64 -257 -85 -11 -6 -41 -21 -69 -34 -27 -13 -86 -43 -129
-67 l-79 -43 -19 27 c-28 38 -68 34 -144 -14 -70 -44 -90 -50 -79 -22 9 20 35
129 39 157 1 11 19 51 39 89 38 73 39 87 2 104 -40 18 -48 14 -234 -110 -31
-21 -59 -38 -63 -38 -10 0 34 114 86 222 25 53 46 101 46 105 0 5 20 29 45 53
49 48 56 73 26 90 -33 17 -69 11 -134 -21 -134 -68 -298 -207 -372 -314 -48
-69 -55 -64 -80 67 -10 51 -21 100 -26 108 -4 8 -18 42 -31 75 -13 33 -26 61
-30 63 -5 2 -8 8 -8 13 0 18 -93 174 -124 208 -50 54 -83 71 -117 59 -34 -12
-34 -8 -12 -123 20 -113 27 -223 15 -254 -8 -21 -12 -14 -36 61 -15 47 -33 94
-41 104 -8 11 -15 28 -15 39 -1 26 -98 206 -130 242 -14 15 -45 55 -70 88 -53
73 -72 93 -129 133 -79 57 -112 38 -104 -60 4 -52 -2 -132 -21 -273 -5 -31
-29 -109 -37 -118 -4 -5 -33 26 -65 70 -72 98 -76 102 -204 199 -140 106 -160
118 -195 116 -42 -4 -46 -12 -30 -58 27 -79 41 -266 26 -360 -22 -147 -103
-334 -177 -413 -45 -48 -59 -48 -69 0 -7 29 -25 76 -61 157 -24 53 -44 125
-44 160 0 53 -15 72 -58 72 -20 0 -50 -8 -67 -19 -35 -22 -121 -103 -154 -146
-13 -16 -25 -25 -28 -20 -10 29 -25 38 -67 42 -45 5 -48 4 -91 -41 -25 -25
-47 -46 -49 -46 -18 0 -1 279 19 332 5 11 -2 22 -20 34 -36 24 -74 9 -175 -67
-79 -59 -247 -220 -276 -265 -9 -13 -20 -24 -25 -24 -5 0 -8 111 -6 248 l2
247 -51 136 c-28 75 -70 171 -92 215 -23 43 -46 91 -51 107 -14 35 -48 51 -82
38 -22 -8 -29 -21 -42 -78 -10 -37 -17 -80 -17 -94 0 -49 -95 -271 -138 -322
-30 -35 -35 -19 -30 107 6 125 4 142 -37 286 -8 30 -15 69 -15 86 0 42 -23 64
-65 64 -27 0 -39 -8 -64 -39 -17 -21 -31 -47 -31 -56 0 -18 -58 -103 -100
-146 -14 -14 -43 -49 -65 -77 -50 -63 -63 -69 -76 -35 -13 35 -32 283 -26 336
14 115 35 193 73 273 21 45 11 65 -38 78 -28 7 -46 5 -82 -10 -25 -10 -46 -22
-46 -26 0 -5 -5 -8 -11 -8 -9 0 -116 -77 -145 -105 -6 -6 -35 -31 -64 -56 -77
-66 -94 -82 -146 -140 -26 -30 -51 -54 -56 -54 -4 0 -28 43 -54 95 -114 235
-181 330 -232 330 -22 0 -45 -23 -34 -34 4 -4 0 -6 -8 -4 -12 2 -15 -12 -18
-72 -3 -78 -35 -185 -92 -304 l-28 -58 -46 71 c-25 40 -46 74 -46 77 0 14
-133 185 -204 261 -95 103 -235 223 -259 223 -23 0 -23 -1 -22 -122 1 -68 -2
-130 -6 -138 -7 -16 -12 -47 -24 -150 -8 -67 -23 -110 -40 -110 -7 0 -20 21
-30 47 -10 27 -29 65 -42 85 -12 21 -23 40 -23 44 0 8 -84 128 -127 179 -18
22 -56 69 -84 105 -46 59 -78 90 -169 160 -18 14 -42 33 -52 44 -19 17 -82 25
-96 11 -4 -3 3 -24 16 -45 12 -21 22 -50 22 -63 0 -13 3 -27 7 -30 13 -13 32
-268 26 -337 -4 -46 -28 -148 -36 -157 -6 -6 -88 33 -157 74 -30 18 -62 33
-70 33 -8 0 -23 7 -32 14 -16 12 -17 37 -8 377 5 200 13 452 17 559 8 208 11
1873 4 2100 l-5 135 110 105 c60 57 132 127 159 155 28 28 72 68 98 89 27 21
54 49 59 62 6 13 17 24 23 24 28 0 285 267 285 295 0 4 13 24 28 44 57 73 242
399 242 427 0 4 6 15 14 23 22 26 64 235 77 381 30 349 -51 633 -267 947 -38
54 -88 127 -112 163 -59 86 -126 173 -146 189 -9 7 -16 20 -16 27 0 18 30 18
361 -1z m3528 4 c78 2 100 -7 116 -46 19 -45 7 -62 -43 -61 -59 1 -203 -12
-245 -21 -28 -7 -46 -5 -65 4 -15 8 -35 16 -44 19 -13 4 -18 15 -18 38 0 57
10 62 117 69 54 3 107 3 117 1 11 -3 40 -4 65 -3z m101 -219 c0 -42 -22 -50
-148 -49 -95 1 -113 3 -127 20 -19 20 -13 54 8 46 6 -2 55 -1 107 3 171 13
160 14 160 -20z m366 -45 c20 -14 43 -25 51 -25 15 0 205 -58 308 -94 39 -13
97 -29 130 -36 33 -6 70 -13 82 -15 12 -3 24 -14 28 -24 9 -28 36 -35 51 -12
14 20 36 18 147 -11 47 -13 56 -21 87 -87 16 -35 36 -34 88 3 60 42 69 43 119
16 21 -11 43 -20 50 -20 35 0 236 -188 323 -301 38 -50 68 -79 85 -83 34 -9
57 9 49 39 -4 18 41 131 62 154 2 2 19 -7 39 -20 22 -15 48 -49 71 -92 49 -93
104 -150 140 -145 22 2 30 9 34 33 8 39 23 65 76 137 l43 59 17 -32 c9 -18 21
-46 28 -63 17 -46 48 -92 69 -105 24 -15 57 -5 57 18 0 10 10 27 23 38 33 30
129 93 136 89 8 -5 5 -388 -3 -481 -3 -38 -10 -97 -16 -130 -12 -75 -13 -142
-1 -150 10 -5 -17 -118 -43 -180 -8 -17 -19 -63 -26 -102 l-13 -70 -67 -7
c-37 -3 -105 -17 -151 -31 -141 -42 -267 -75 -429 -111 -85 -19 -177 -40 -205
-48 -27 -8 -65 -17 -84 -21 -18 -4 -49 -16 -69 -28 -19 -11 -55 -22 -81 -23
-25 -1 -59 -9 -76 -18 -16 -9 -34 -16 -40 -16 -18 0 -156 -57 -167 -68 -7 -7
-17 -12 -23 -12 -7 0 -20 -9 -30 -20 -10 -11 -27 -20 -38 -20 -40 0 -141 -66
-218 -143 -43 -43 -79 -83 -79 -88 0 -4 -13 -18 -30 -31 -16 -12 -30 -25 -30
-29 0 -5 -13 -30 -28 -56 -31 -53 -92 -227 -92 -262 0 -50 -50 -31 -225 86
-173 115 -218 154 -300 263 -27 36 -67 84 -88 107 -35 38 -39 48 -39 95 -1 66
10 291 19 378 9 93 5 511 -6 605 -10 88 -12 784 -2 800 3 6 6 86 6 178 l0 168
81 3 c81 2 127 18 147 53 10 17 10 17 53 -12z m2389 -268 l1 -199 -25 -13
c-15 -7 -57 -34 -95 -60 l-69 -46 -24 40 c-38 64 -170 134 -204 107 -8 -6 -33
-37 -57 -68 -23 -32 -44 -58 -45 -58 -2 0 -26 22 -54 49 -61 58 -147 111 -183
111 -31 0 -70 -26 -70 -46 0 -18 -42 -94 -52 -94 -4 0 -17 15 -30 33 -27 38
-69 78 -155 149 -35 28 -63 55 -63 59 0 4 43 5 95 2 78 -5 99 -3 120 11 14 9
29 14 34 12 8 -5 53 6 96 24 40 17 119 40 136 40 10 0 22 8 28 18 9 16 12 15
38 -9 48 -45 70 -53 106 -36 60 28 258 107 268 107 5 0 26 8 47 17 62 28 126
51 141 49 12 -1 15 -36 16 -199z m-2770 165 c8 -19 7 -175 -1 -272 -16 -177
-16 -683 -1 -805 14 -113 14 -444 -1 -755 -5 -113 -7 -344 -5 -515 2 -170 5
-438 7 -595 2 -267 10 -435 22 -470 8 -23 16 -143 18 -265 3 -148 15 -386 26
-520 5 -60 12 -141 16 -180 3 -38 5 -135 5 -215 0 -80 4 -174 10 -210 6 -36
14 -118 18 -182 5 -88 11 -122 24 -136 16 -17 15 -19 -21 -40 -44 -26 -85 -61
-100 -88 -12 -21 -12 -22 -18 211 -5 261 -15 462 -25 505 -5 25 -14 221 -19
435 -11 478 -16 604 -34 860 -8 110 -17 306 -21 435 -3 129 -11 278 -17 330
-16 147 -16 1243 1 1405 15 152 15 124 5 385 -9 235 -9 307 -4 440 2 52 1 130
-4 172 l-8 77 29 3 c73 9 91 7 98 -10z m5790 -397 c12 -136 12 -174 3 -292 -9
-123 -28 -185 -98 -318 -23 -44 -67 -127 -97 -185 -30 -58 -59 -109 -63 -115
-4 -5 -29 -50 -55 -100 -58 -109 -94 -163 -155 -235 -26 -30 -49 -60 -51 -66
-6 -18 -127 -144 -138 -144 -12 0 -145 103 -197 152 l-42 40 34 56 c18 32 48
81 66 111 55 89 96 162 139 246 22 44 44 85 49 90 7 9 31 69 75 186 14 37 35
170 40 251 1 26 -4 82 -11 125 -8 43 -12 83 -10 89 2 6 41 19 86 28 45 10 118
35 163 56 103 47 240 107 249 109 3 1 9 -37 13 -84z m706 -662 c28 -26 62 -68
77 -93 39 -68 66 -92 99 -88 23 3 30 10 43 53 22 68 31 85 42 85 16 0 160
-153 197 -210 19 -30 46 -67 59 -81 19 -22 22 -31 13 -47 -6 -11 -13 -36 -15
-56 -2 -20 -12 -43 -20 -52 -9 -8 -16 -24 -16 -35 0 -18 -17 -78 -65 -229 -13
-41 -35 -113 -49 -160 -14 -47 -45 -150 -70 -230 -24 -80 -50 -167 -56 -195
-6 -27 -15 -66 -19 -85 -42 -174 -72 -313 -77 -350 -11 -88 -3 -78 -124 -162
-164 -113 -221 -150 -227 -144 -3 3 -12 67 -19 143 -8 76 -22 185 -32 243 -17
99 -20 105 -48 116 -36 15 -49 9 -129 -59 -63 -54 -94 -85 -160 -159 -101
-115 -109 -136 -62 -152 27 -10 32 -7 84 49 120 129 207 215 219 215 13 0 21
-37 29 -145 21 -276 40 -354 97 -385 26 -14 28 -13 81 35 101 92 157 137 213
171 31 19 60 34 64 34 9 0 17 -39 26 -125 7 -71 50 -155 79 -155 9 0 37 21 63
48 85 86 198 172 225 172 3 0 26 -39 53 -86 48 -86 83 -124 113 -124 10 0 32
28 56 74 22 40 68 119 103 176 35 56 86 150 113 208 36 74 53 101 59 91 12
-20 57 -212 70 -294 6 -38 11 -118 11 -177 -1 -65 3 -108 9 -108 6 0 10 -5 10
-12 0 -6 10 -22 22 -35 23 -25 68 -31 68 -10 0 7 18 31 41 52 72 71 136 196
153 301 11 61 21 73 43 49 32 -35 103 -194 128 -288 26 -98 60 -147 102 -147
19 0 23 5 23 29 0 38 67 203 90 221 3 3 31 43 62 90 31 47 79 117 107 155 28
39 61 87 73 107 13 21 26 38 29 38 3 0 9 -57 12 -127 14 -286 72 -473 131
-424 9 8 16 22 16 33 0 51 106 244 163 296 l25 24 11 -54 c6 -29 12 -113 15
-187 3 -111 7 -137 23 -159 31 -41 53 -50 67 -28 24 40 70 87 128 131 70 53
72 52 118 -38 40 -79 65 -109 87 -105 11 2 36 38 63 90 25 47 73 126 106 174
34 49 69 104 78 122 9 17 21 32 27 32 9 0 5 -471 -6 -600 -12 -140 -19 -568
-20 -1137 0 -409 -3 -623 -10 -623 -5 0 -30 7 -55 16 -24 8 -67 22 -95 29 -27
8 -81 23 -120 34 -76 22 -204 54 -525 132 -113 27 -223 54 -245 60 -22 5 -67
17 -100 26 -33 8 -87 21 -120 28 -242 53 -307 68 -440 100 -82 20 -226 54
-320 76 -93 22 -184 44 -201 49 -17 6 -42 10 -56 10 -14 0 -38 4 -54 10 -16 5
-85 21 -154 34 -69 13 -217 44 -330 69 -113 24 -317 68 -455 97 -137 28 -286
61 -330 72 -44 11 -125 29 -180 39 -315 58 -498 91 -560 99 -61 9 -141 24
-184 36 -11 4 -12 20 -7 82 4 42 9 110 11 150 4 75 39 323 55 397 5 22 12 82
15 134 3 52 7 97 10 101 2 3 23 13 47 20 68 22 114 55 128 92 7 20 11 77 10
143 -1 61 3 130 9 155 19 88 26 270 25 727 l0 463 -23 31 c-25 33 -26 31 36
99 42 46 73 87 73 94 0 3 14 25 30 48 17 22 30 45 30 49 0 4 34 67 75 140 41
72 75 135 75 140 0 8 11 12 61 23 15 3 69 46 120 96 52 49 98 90 102 90 29 0
175 -69 242 -114 160 -109 162 -110 190 -92 14 9 25 24 26 34 0 9 2 26 5 37
11 57 23 178 18 186 -15 25 23 3 67 -38z m-3531 -346 c30 -14 84 -30 120 -36
36 -6 97 -16 135 -22 39 -6 100 -14 137 -18 36 -3 70 -10 75 -14 4 -5 8 -131
9 -280 1 -298 3 -319 44 -487 48 -195 103 -339 148 -392 28 -33 56 -104 44
-112 -4 -2 -32 -7 -62 -11 -55 -6 -176 13 -332 52 -37 10 -70 14 -73 11 -4 -3
0 -19 9 -35 18 -35 138 -98 206 -108 25 -3 58 -11 74 -17 l28 -11 -43 -23
c-83 -42 -376 -116 -608 -155 -67 -10 -165 -19 -231 -19 -130 0 -300 16 -313
29 -7 7 5 109 29 241 12 63 20 218 13 255 -4 22 -5 43 -2 48 6 10 -43 247 -68
327 -35 110 -88 199 -162 272 -38 38 -73 68 -78 68 -5 0 -9 4 -9 9 0 4 26 11
58 14 61 7 320 70 350 86 29 15 142 41 179 41 78 0 114 -20 209 -117 82 -84
117 -107 136 -88 18 19 -15 68 -110 161 l-105 103 26 109 c15 59 33 125 42
145 l16 38 27 -19 c15 -11 52 -31 82 -45z m763 -113 c59 -4 107 -10 107 -15 0
-4 -18 -59 -41 -121 -22 -62 -44 -131 -48 -153 -5 -22 -34 -139 -64 -260 -31
-121 -57 -244 -59 -272 -2 -29 -6 -53 -9 -53 -3 0 -19 53 -34 118 -27 113 -28
128 -31 427 -1 171 -6 319 -10 329 -7 17 -3 18 37 13 24 -4 92 -9 152 -13z
m1122 -4 c4 -6 1 -17 -5 -26 -14 -16 -40 -2 -40 22 0 16 36 19 45 4z m-112
-62 c46 -71 135 -167 188 -203 24 -16 64 -46 89 -66 42 -35 147 -92 216 -118
l31 -12 7 -115 c11 -176 4 -716 -10 -829 -7 -56 -14 -161 -16 -234 l-3 -134
-35 -28 c-64 -52 -315 -114 -526 -129 -193 -14 -389 -12 -464 5 -36 8 -112 24
-170 35 -166 32 -241 52 -247 67 -3 7 1 28 8 45 17 41 18 49 20 198 2 102 -2
140 -19 200 -62 220 -74 274 -85 367 -13 119 -6 172 47 378 19 72 42 162 51
200 24 98 93 322 116 373 l19 43 78 -8 c144 -14 535 -9 592 8 61 18 78 12 113
-43z m-2767 -299 c131 -49 216 -187 266 -429 25 -123 34 -362 16 -445 l-13
-60 -65 -31 c-62 -30 -140 -53 -205 -60 -16 -2 -55 -6 -85 -9 -89 -10 -173
-27 -195 -41 -11 -7 -39 -17 -62 -24 -59 -15 -76 -50 -76 -155 0 -44 4 -110 8
-147 l7 -66 -30 -16 c-55 -28 -294 -84 -393 -91 -75 -6 -108 -4 -151 9 -90 26
-93 31 -135 211 -35 152 -36 168 -36 335 1 208 15 274 105 468 37 81 187 236
268 278 30 16 79 43 108 60 29 18 83 44 120 59 37 15 76 31 87 36 11 4 47 15
80 24 116 32 191 54 265 79 91 29 83 28 116 15z m-1784 -480 c22 -36 189 -199
204 -199 7 0 14 -3 16 -8 5 -11 78 -64 118 -86 19 -10 43 -26 52 -34 10 -8 46
-29 80 -46 l63 -31 1 -95 c2 -106 13 -200 31 -270 10 -40 10 -40 30 -145 11
-57 18 -123 15 -153 -4 -51 13 -145 44 -240 8 -24 16 -60 19 -80 3 -21 11 -59
19 -87 42 -151 84 -405 101 -611 l6 -72 -33 -6 c-54 -10 -66 -42 -66 -168 1
-172 -22 -213 -173 -316 -57 -39 -97 -48 -269 -67 -182 -19 -207 -19 -214 3
-3 9 -10 73 -16 142 -5 69 -12 139 -14 155 -3 17 -7 107 -10 200 -4 94 -11
229 -16 300 -5 72 -12 176 -14 232 -3 55 -7 112 -10 125 -3 12 -8 88 -10 168
-3 80 -10 192 -16 250 -5 58 -12 128 -15 155 -15 158 -32 1066 -20 1085 7 12
64 -48 97 -101z m3544 -671 c2 -51 -4 -140 -13 -198 -20 -130 -19 -178 4 -196
17 -13 72 -24 123 -26 14 0 50 -10 81 -20 l56 -20 22 -111 c32 -159 60 -290
81 -377 10 -41 16 -78 14 -81 -2 -4 -32 2 -66 11 -79 23 -283 84 -363 109 -33
11 -121 38 -195 61 -74 23 -171 55 -215 71 -44 15 -143 49 -220 75 -185 61
-469 171 -634 246 -24 11 -77 31 -119 44 -41 14 -98 35 -126 48 -59 27 -104
45 -271 111 -66 26 -153 63 -192 82 -72 33 -73 34 -73 71 0 48 22 79 63 87 17
4 51 13 75 21 23 8 66 16 95 19 29 2 77 8 107 12 85 13 99 8 120 -43 24 -55
71 -87 118 -78 22 4 38 2 50 -8 26 -23 48 -29 157 -44 118 -16 426 -18 487 -4
24 6 95 21 158 35 237 49 308 67 415 101 112 37 218 85 230 105 16 26 29 -16
31 -103z m-2076 -405 c0 -5 5 -35 10 -68 25 -152 9 -666 -26 -872 -20 -116
-28 -121 -248 -178 -119 -31 -197 -40 -251 -28 -38 8 -40 11 -47 53 -7 46 -36
278 -44 360 -17 159 -34 243 -108 525 -14 54 -26 107 -26 117 0 22 21 23 62 2
39 -20 226 -30 323 -16 39 5 109 21 158 36 48 14 94 26 102 26 8 0 15 3 15 8
0 10 51 41 68 42 6 0 12 -3 12 -7z m2570 -96 c116 -24 159 -29 240 -27 204 6
398 19 430 30 14 5 53 11 88 15 l62 6 0 -44 c0 -24 -9 -79 -20 -122 -11 -43
-20 -100 -20 -126 0 -26 -4 -59 -10 -74 -5 -14 -12 -45 -14 -68 -3 -23 -10
-91 -16 -152 -19 -171 -16 -237 21 -417 10 -53 19 -103 19 -112 0 -29 -41 -63
-119 -100 -69 -32 -91 -37 -180 -43 -90 -5 -109 -3 -173 18 -115 39 -228 157
-228 238 0 44 10 81 20 81 4 0 36 -21 69 -46 72 -54 106 -61 210 -45 116 18
154 47 114 86 -12 13 -27 15 -57 11 -85 -12 -196 -18 -220 -12 -28 7 -136 102
-136 120 0 7 -17 48 -38 92 -22 43 -48 113 -60 154 -18 66 -30 116 -72 320 -6
25 -19 83 -30 129 -11 47 -20 91 -20 99 0 16 15 15 140 -11z m-3169 -1097 c75
-62 233 -68 431 -16 71 18 130 31 133 28 2 -3 -1 -14 -7 -25 -18 -34 -1 -162
36 -272 52 -153 80 -282 77 -350 -1 -33 -6 -64 -11 -70 -4 -5 -16 -37 -26 -69
-16 -50 -26 -65 -62 -90 -24 -17 -58 -36 -75 -43 -40 -15 -178 -16 -237 -2
-25 6 -83 17 -130 24 -95 14 -193 4 -345 -35 -232 -60 -405 -63 -654 -14 -144
29 -171 61 -139 167 15 51 126 164 189 194 45 21 136 36 284 48 107 8 168 17
188 27 27 14 64 -14 90 -70 23 -48 41 -58 83 -48 18 5 24 13 24 34 0 31 -54
96 -89 107 -12 4 -21 10 -19 15 3 7 82 74 123 104 9 7 28 -3 61 -33 73 -64
154 -92 154 -53 0 22 -27 62 -43 62 -7 0 -36 22 -66 48 l-55 48 14 50 c18 67
16 66 55 43 19 -12 60 -27 91 -36 51 -13 59 -13 72 1 14 14 14 17 -3 36 -10
11 -45 30 -77 42 -70 25 -138 93 -138 138 0 49 20 52 71 10z m3353 -145 c98
-65 172 -85 320 -85 94 0 137 5 191 21 107 31 110 31 110 -16 -1 -189 -26
-459 -56 -605 -11 -52 -24 -122 -29 -155 -8 -55 -28 -150 -50 -235 -9 -32 -18
-40 -91 -74 -79 -38 -83 -39 -163 -33 -134 11 -131 8 -139 112 -21 234 -40
398 -51 440 -8 28 -20 84 -26 125 -7 41 -16 95 -22 120 -5 25 -16 92 -24 150
-8 58 -20 144 -27 193 -8 48 -13 87 -12 87 1 0 32 -20 69 -45z m-8498 -677
c142 -147 242 -302 300 -463 19 -55 40 -113 46 -130 16 -42 49 -75 76 -75 19
0 22 5 22 38 0 20 12 62 27 92 45 93 53 121 62 230 11 117 32 240 42 240 3 0
53 -51 109 -112 105 -115 217 -272 259 -363 42 -91 45 -97 74 -121 32 -27 45
-29 81 -13 28 13 84 118 110 207 9 28 23 74 31 101 8 28 15 60 15 73 0 24 16
56 23 48 2 -3 23 -40 46 -83 55 -103 96 -209 111 -285 10 -50 19 -68 46 -92
20 -17 40 -27 49 -23 9 3 32 38 51 77 19 39 48 91 64 116 30 47 198 209 271
263 l42 31 -9 -75 c-13 -109 -7 -361 11 -454 8 -44 15 -97 15 -117 0 -27 8
-47 31 -73 17 -19 36 -35 41 -35 6 0 57 48 114 107 69 71 119 135 151 190 26
45 51 83 54 83 4 0 10 -8 14 -17 12 -29 33 -135 30 -147 -2 -6 -6 -61 -9 -122
-3 -61 -12 -137 -21 -169 -19 -75 -20 -67 15 -104 28 -29 70 -42 70 -21 0 5
51 60 113 122 106 106 115 118 146 197 18 47 38 111 44 143 6 32 14 58 17 58
4 0 18 -28 33 -62 102 -251 101 -247 98 -518 -2 -210 -4 -257 -15 -267 -3 -3
-6 -26 -6 -49 0 -24 -4 -46 -10 -49 -5 -3 -10 -21 -10 -39 0 -18 -5 -48 -12
-66 -10 -31 -9 -35 21 -62 44 -39 59 -36 83 20 12 26 32 61 44 78 13 17 24 33
24 36 0 10 90 140 132 190 43 51 195 188 208 188 4 0 7 -53 7 -117 -2 -165 20
-251 74 -294 22 -17 45 -29 52 -26 7 3 19 22 25 43 14 47 69 144 81 144 5 0
15 -15 22 -32 14 -34 80 -108 97 -108 15 0 27 21 40 66 28 98 94 204 127 204
24 0 149 -360 142 -407 -5 -29 -1 -36 29 -59 31 -24 37 -26 59 -14 14 7 25 21
25 31 0 10 27 47 61 81 96 99 137 159 180 263 70 173 83 324 42 498 -8 37 -13
71 -9 74 9 10 196 -147 239 -202 47 -60 64 -95 88 -194 14 -57 25 -81 49 -103
17 -15 35 -28 40 -28 18 0 39 32 46 68 4 20 19 71 35 112 33 92 41 134 54 313
4 53 11 97 16 97 4 0 17 -12 28 -27 12 -16 24 -32 29 -38 55 -70 102 -135 102
-140 0 -8 16 -45 60 -140 29 -62 50 -124 70 -210 14 -61 40 -274 40 -333 0
-52 20 -94 52 -109 31 -14 58 0 58 30 0 12 15 63 34 113 39 106 45 144 49 321
1 73 5 133 9 133 18 0 92 -186 112 -280 8 -41 22 -104 30 -140 7 -36 17 -99
21 -140 8 -90 32 -130 76 -130 20 0 29 5 29 16 0 23 79 188 122 255 19 29 53
72 75 95 46 47 127 114 137 114 10 0 -5 -52 -29 -95 -20 -38 -41 -96 -79 -225
-9 -30 -18 -64 -20 -75 -2 -11 -10 -47 -17 -81 -7 -33 -9 -68 -6 -78 9 -23 56
-44 65 -28 93 164 103 177 169 220 36 24 68 41 70 38 3 -3 0 -27 -6 -53 -30
-134 -19 -250 27 -290 35 -32 46 -29 65 15 22 49 95 111 108 91 5 -8 9 -22 9
-32 0 -22 55 -77 76 -77 8 0 20 15 28 34 20 48 69 89 166 139 47 24 94 49 105
55 55 30 163 73 190 75 l30 2 -2 -66 c-2 -72 24 -171 71 -270 40 -81 50 -97
104 -156 l23 -25 -303 6 c-167 4 -1383 6 -2703 4 -1320 -2 -2614 -1 -2875 2
-570 6 -890 6 -1435 1 l-410 -4 -8 44 c-8 46 -10 1949 -2 1957 2 2 18 -7 35
-22 17 -14 36 -26 41 -26 6 0 17 -7 25 -15 9 -8 24 -15 33 -15 10 0 24 -7 31
-15 7 -8 31 -24 55 -36 23 -11 59 -36 79 -55 20 -19 42 -34 49 -34 24 0 40 18
35 38 -3 11 -2 40 2 64 11 55 23 198 24 263 0 55 -13 202 -20 223 -4 15 3 32
14 32 4 0 30 -24 58 -52z m5853 -159 c2 -53 -75 -95 -191 -106 -82 -8 -84 -8
-188 6 -41 6 -94 12 -117 15 -24 2 -47 7 -52 11 -14 8 -316 10 -328 2 -6 -4
-41 -9 -79 -12 -38 -4 -92 -11 -121 -16 -122 -24 -329 -11 -520 32 -23 5 -54
9 -70 9 -58 0 -123 64 -94 93 8 8 14 6 23 -6 35 -46 337 -102 540 -100 124 1
347 32 389 54 25 13 148 31 207 30 29 0 107 -10 174 -22 163 -29 272 -24 351
15 35 16 57 34 58 44 1 27 17 -17 18 -49z m2740 -399 c38 -26 102 -39 202 -41
85 -1 117 7 171 45 54 36 58 26 57 -181 0 -183 1 -190 29 -273 70 -200 87
-301 63 -373 -11 -33 -15 -36 -33 -26 -16 9 -24 7 -41 -9 -54 -49 -85 -57
-222 -57 -144 0 -263 15 -370 47 -89 27 -126 51 -147 97 -16 33 -16 41 -3 83
8 26 27 69 42 95 124 210 148 274 189 503 22 125 19 122 63 90z m-119 -947
c47 -13 117 -27 155 -32 39 -5 92 -14 118 -21 58 -15 184 -8 271 15 33 9 63
14 69 12 18 -6 -59 -69 -122 -99 -62 -30 -66 -30 -175 -24 -261 14 -442 59
-498 123 -17 20 -30 86 -22 108 4 10 20 5 62 -23 33 -20 93 -46 142 -59z
m3270 -41 c0 -4 -5 -23 -11 -42 -23 -77 -50 -320 -42 -395 3 -33 6 -80 7 -105
5 -109 4 -108 38 -124 17 -9 34 -16 38 -16 4 0 23 33 43 73 23 46 55 91 84
119 53 49 140 104 150 94 3 -3 1 -30 -6 -58 -20 -82 -13 -119 26 -135 31 -12
34 -12 63 21 30 32 135 96 159 96 14 0 14 -33 0 -47 -5 -5 -9 -30 -7 -54 3
-37 8 -46 37 -63 l35 -20 30 39 c66 84 138 142 244 198 99 51 251 117 271 117
9 0 -1 -61 -17 -101 -5 -14 -13 -51 -17 -82 -7 -56 -7 -57 30 -92 43 -40 53
-42 62 -17 27 69 134 181 216 227 156 86 203 113 250 142 176 107 213 126 247
127 l35 1 0 -85 c0 -115 -14 -673 -18 -675 -1 -1 -225 -6 -497 -10 -272 -3
-517 -7 -545 -8 -27 0 -198 2 -380 6 -181 4 -485 9 -675 12 -190 2 -398 7
-462 11 l-117 7 0 86 c0 48 -9 126 -20 176 -10 50 -17 92 -15 94 13 13 71 -31
119 -92 31 -40 69 -77 83 -84 35 -16 72 -16 74 0 1 14 2 19 12 77 24 138 197
373 394 535 63 53 82 64 82 47z"/>
<path d="M11782 14650 c-5 -19 -9 -71 -7 -115 6 -131 6 -616 1 -779 -3 -83 -2
-140 1 -126 2 14 9 30 14 37 17 20 28 953 12 993 -10 24 -10 24 -21 -10z"/>
<path d="M13059 14443 c0 -93 -2 -186 -4 -208 -2 -22 -7 -83 -10 -135 -3 -52
-10 -129 -16 -170 -15 -100 -20 -258 -10 -265 12 -7 27 14 34 45 3 14 12 57
21 95 42 182 55 286 56 460 2 233 -16 345 -56 345 -11 0 -14 -32 -15 -167z"/>
<path d="M13855 14468 c-4 -57 -7 -110 -7 -118 0 -8 -6 -55 -14 -105 -22 -136
-30 -390 -14 -453 12 -51 25 -71 38 -57 3 3 8 70 9 148 1 78 10 201 19 272 18
138 24 342 11 388 -4 15 -13 27 -21 27 -10 0 -15 -27 -21 -102z"/>
<path d="M14237 14214 c-3 -4 -7 -81 -8 -173 -1 -178 -2 -198 -13 -308 -11
-103 9 -151 34 -80 40 115 55 423 24 518 -16 47 -23 56 -37 43z"/>
<path d="M11935 13790 c-13 -21 -1 -639 14 -745 13 -86 31 -155 41 -155 6 0 6
259 -2 685 -1 89 -7 143 -18 172 -19 50 -26 58 -35 43z"/>
<path d="M13461 13438 c-32 -187 -38 -316 -16 -370 5 -13 2 -18 -8 -18 -93 0
-394 -12 -436 -18 -48 -6 -54 -10 -58 -32 -2 -14 -10 -61 -18 -105 -21 -117
-22 -127 -35 -280 -7 -77 -16 -174 -22 -215 -5 -41 -9 -135 -9 -209 0 -185
-19 -173 252 -171 118 1 228 3 244 6 17 2 131 6 255 9 124 3 315 8 425 11 110
3 220 5 244 5 l43 -2 -8 38 c-11 53 -8 139 10 268 8 61 18 137 21 170 3 33 12
115 20 182 18 147 19 262 2 284 -40 51 -139 61 -611 62 l-288 1 6 71 c14 164
19 375 9 375 -6 0 -16 -28 -22 -62z m534 -484 c66 -2 152 -6 192 -7 40 -1 77
-7 82 -12 10 -10 -4 -198 -16 -218 -6 -9 -687 -3 -933 9 -63 3 -164 1 -224 -5
-60 -6 -111 -9 -114 -7 -7 8 30 185 43 202 14 20 120 31 320 33 224 3 345 7
351 14 3 3 45 3 92 1 48 -3 141 -7 207 -10z m5 -330 c124 -3 231 -7 237 -9 12
-4 11 -85 -2 -150 -4 -20 -12 -20 -532 -22 -290 -2 -579 -6 -641 -9 l-115 -7
7 79 c10 109 15 126 35 120 9 -3 39 -2 66 2 51 8 541 6 945 -4z m221 -369 c-2
-55 -4 -101 -5 -102 -10 -11 -266 -23 -586 -28 -212 -3 -456 -9 -543 -13
l-157 -7 0 81 c0 45 3 102 6 128 6 38 9 44 20 35 10 -8 52 -10 142 -5 70 4
298 7 507 7 209 0 412 3 450 7 39 4 93 5 120 2 l50 -5 -4 -100z"/>
<path d="M11666 13072 c-10 -17 -9 -43 10 -257 28 -303 51 -438 78 -448 11 -5
13 9 11 71 -8 193 -32 404 -59 528 -21 94 -31 121 -40 106z"/>
<path d="M11934 12315 c4 -16 41 -99 82 -184 91 -185 94 -192 108 -261 9 -40
17 -56 30 -58 17 -4 18 2 14 64 -6 75 -35 143 -112 264 -23 36 -55 90 -70 120
-16 30 -35 62 -44 70 -13 13 -14 12 -8 -15z"/>
<path d="M11838 12078 c-4 -21 20 -97 85 -268 14 -36 54 -130 90 -210 67 -151
85 -211 94 -320 5 -59 24 -103 38 -88 13 12 17 155 7 209 -11 58 -21 83 -98
246 -24 51 -44 95 -44 98 0 3 -14 35 -31 72 -53 114 -76 166 -103 226 -13 31
-27 57 -30 57 -2 0 -6 -10 -8 -22z"/>
<path d="M12678 11765 c-3 -4 -1 -25 4 -48 9 -39 5 -307 -6 -367 -2 -14 -9
-56 -15 -95 -7 -38 -18 -101 -25 -140 -8 -38 -14 -77 -14 -85 0 -8 -7 -53 -15
-100 -8 -47 -16 -123 -16 -170 -2 -95 15 -269 30 -308 19 -48 32 -7 35 104 2
58 5 129 8 158 3 28 6 76 7 106 1 30 6 66 11 79 5 13 13 51 18 85 5 33 21 117
36 186 22 105 26 153 28 300 1 190 -10 259 -48 285 -22 16 -30 18 -38 10z"/>
<path d="M11880 11580 c0 -20 45 -135 99 -251 16 -35 39 -88 51 -118 11 -30
46 -107 76 -172 29 -65 54 -124 54 -132 0 -8 7 -20 15 -27 13 -11 15 -6 15 38
0 28 -6 66 -14 84 -7 18 -18 47 -24 63 -17 50 -67 165 -116 270 -26 55 -57
123 -69 150 -23 54 -64 115 -78 115 -5 0 -9 -9 -9 -20z"/>
<path d="M13600 11581 c0 -11 7 -46 15 -78 17 -66 19 -223 5 -359 -5 -49 -12
-121 -15 -160 -7 -102 -16 -194 -21 -234 -2 -19 -7 -108 -11 -198 -5 -137 -3
-173 12 -227 9 -36 21 -65 26 -65 5 0 9 3 9 8 0 38 27 370 34 422 2 14 9 84
15 155 6 72 16 168 22 215 13 116 17 281 8 366 -9 84 -31 135 -70 158 -28 17
-29 16 -29 -3z"/>
<path d="M12100 10794 c0 -3 15 -29 34 -57 24 -37 46 -98 77 -207 l43 -155 0
-213 c-1 -181 1 -211 13 -199 16 16 53 157 53 203 0 16 5 35 10 40 15 15 -6
200 -35 315 -38 149 -76 219 -139 258 -33 21 -56 27 -56 15z"/>
<path d="M14206 10581 c-7 -10 -12 -85 -20 -286 -8 -192 16 -377 63 -485 22
-51 26 -14 6 57 -14 46 -18 123 -22 383 -4 298 -9 360 -27 331z"/>
<path d="M13146 10253 c-13 -85 -26 -234 -31 -333 -7 -170 -14 -299 -21 -395
-4 -49 -8 -108 -9 -130 -4 -60 -33 -243 -56 -342 -11 -48 -26 -117 -34 -153
-7 -36 -19 -85 -25 -109 -6 -24 -9 -50 -6 -57 3 -7 -1 -35 -9 -61 -7 -26 -16
-79 -20 -118 -4 -38 -10 -103 -15 -144 -15 -135 2 -521 29 -676 38 -214 45
-245 54 -229 9 16 10 170 2 279 -14 181 3 658 26 745 5 19 9 52 9 72 0 21 4
57 10 80 5 24 17 84 25 133 21 115 31 171 50 270 14 79 29 185 43 321 15 139
22 810 9 857 -10 38 -24 34 -31 -10z"/>
<path d="M13930 9198 c-6 -24 -16 -59 -22 -78 -15 -52 -22 -560 -9 -760 9
-150 30 -316 45 -357 5 -11 26 -154 31 -203 1 -14 10 -97 20 -185 22 -202 15
-450 -15 -600 -12 -55 -22 -109 -23 -120 -1 -11 -7 -29 -14 -40 -6 -11 -16
-63 -22 -115 -6 -52 -14 -106 -18 -120 -6 -23 -5 -24 11 -11 78 64 181 463
178 691 -1 115 -10 302 -17 350 -2 14 -9 77 -15 140 -6 63 -17 147 -25 185
-62 307 -79 520 -78 963 1 168 -2 302 -7 302 -5 0 -14 -19 -20 -42z"/>
<path d="M12406 8253 c-4 -17 -9 -52 -36 -273 -5 -47 -12 -94 -14 -105 -14
-73 -20 -176 -30 -480 -15 -484 -27 -613 -68 -750 -48 -161 -77 -280 -89 -365
-31 -231 -31 -232 -18 -272 7 -21 16 -35 20 -31 7 8 27 93 54 228 23 120 55
248 69 285 27 67 72 329 80 470 5 79 19 601 18 650 0 8 8 85 18 170 17 141 27
338 22 448 -2 42 -17 57 -26 25z"/>
<path d="M13445 7299 c4 -45 11 -96 16 -113 17 -60 7 -168 -34 -346 -29 -127
-34 -158 -36 -277 -3 -131 14 -229 51 -295 33 -58 42 -48 33 35 -17 152 -7
286 41 537 20 107 15 327 -11 410 -32 104 -40 123 -54 128 -11 4 -12 -11 -6
-79z"/>
<path d="M14273 6619 c-6 -8 -14 -61 -17 -119 -3 -58 -13 -141 -21 -185 -64
-350 -67 -373 -69 -510 -1 -120 2 -150 21 -211 13 -40 32 -82 43 -95 23 -29
25 -16 5 41 -25 71 -29 220 -10 355 16 119 20 141 51 265 9 39 18 131 21 230
5 174 -3 254 -24 229z"/>
<path d="M11954 6589 c-23 -42 -43 -96 -48 -129 -3 -14 -26 -106 -51 -205 -49
-189 -69 -291 -85 -415 -11 -91 -15 -116 -24 -157 -6 -28 -5 -32 8 -27 31 12
49 67 96 289 65 315 120 531 141 560 19 27 19 72 1 95 l-19 24 -19 -35z"/>
<path d="M14362 6067 c-15 -18 -32 -106 -32 -164 0 -24 -5 -53 -10 -63 -15
-28 -15 -199 0 -235 11 -27 13 -28 20 -10 4 11 10 52 14 90 4 39 14 108 22
154 15 92 18 209 5 229 -6 10 -10 10 -19 -1z"/>
<path d="M11997 5918 c-8 -13 -20 -59 -26 -103 -7 -44 -17 -99 -22 -122 -14
-63 -12 -123 5 -123 20 0 54 103 66 200 18 154 11 203 -23 148z"/>
<path d="M8124 12793 c-19 -20 -37 -46 -40 -57 -4 -12 -12 -28 -18 -36 -26
-32 -41 -107 -41 -205 1 -90 4 -106 31 -165 31 -64 53 -91 86 -103 19 -7 36
11 22 22 -26 18 -54 75 -64 129 -22 123 10 266 81 358 29 38 39 59 34 74 -10
33 -52 26 -91 -17z"/>
<path d="M8393 12763 c-100 -86 -133 -317 -67 -464 29 -63 64 -103 88 -97 12
2 10 15 -16 73 -30 68 -31 71 -25 192 4 97 9 130 25 160 40 74 51 99 54 128 4
40 -19 43 -59 8z"/>
<path d="M8662 12783 c-7 -3 -24 -28 -38 -55 -72 -143 -20 -448 76 -448 25 0
25 14 0 50 -44 62 -47 288 -5 371 28 54 10 100 -33 82z"/>
<path d="M8703 12205 c-45 -20 -42 -41 6 -48 43 -5 147 -51 153 -66 5 -15 51
-22 68 -12 11 8 12 16 5 38 -7 21 -27 37 -75 60 -81 41 -116 47 -157 28z"/>
<path d="M7989 12201 c-40 -8 -159 -83 -178 -112 -13 -22 -7 -39 14 -39 7 0
37 15 65 34 29 19 82 42 118 52 37 9 71 20 75 24 8 7 -39 51 -52 49 -3 -1 -22
-4 -42 -8z"/>
<path d="M7955 11981 c-72 -33 -145 -154 -145 -241 0 -70 69 -140 138 -140 48
0 103 32 157 92 97 108 106 146 51 233 -19 29 -44 59 -55 64 -30 17 -101 13
-146 -8z m130 -61 c25 -27 27 -34 22 -81 -4 -28 -13 -59 -22 -69 -8 -9 -15
-23 -15 -31 0 -45 -87 -104 -130 -87 -47 18 -60 38 -60 95 0 71 17 109 73 161
57 52 91 55 132 12z"/>
<path d="M7981 11849 c-39 -35 -43 -89 -9 -113 32 -23 51 -20 80 12 75 79 9
174 -71 101z"/>
<path d="M8632 11970 c-43 -23 -86 -66 -77 -80 3 -4 -4 -28 -15 -53 -13 -29
-20 -67 -20 -108 0 -96 1 -98 39 -128 89 -69 192 -67 265 6 33 33 59 80 51 93
-6 10 14 51 32 63 14 9 7 76 -12 114 -8 15 -15 33 -15 38 0 6 -18 23 -40 38
-56 40 -148 47 -208 17z m139 -50 c25 -14 49 -62 49 -99 0 -43 -35 -131 -67
-169 -39 -46 -89 -53 -128 -19 -26 22 -29 31 -30 88 -2 71 29 161 66 192 23
19 80 23 110 7z"/>
<path d="M8648 11819 c-21 -36 -23 -68 -6 -104 26 -57 108 -9 108 64 0 73 -68
100 -102 40z"/>
<path d="M8129 11619 c-57 -25 -75 -61 -75 -146 1 -58 3 -65 39 -101 42 -43
130 -79 167 -67 39 12 16 60 -34 69 -19 4 -46 16 -61 28 -26 20 -27 25 -21 76
8 70 19 89 61 107 33 13 49 45 23 45 -7 0 -22 2 -33 5 -11 3 -41 -4 -66 -16z"/>
<path d="M8680 11153 c-8 -3 -26 -16 -40 -28 -46 -41 -119 -74 -202 -91 -130
-26 -249 -2 -341 69 -28 21 -44 27 -62 23 -34 -9 -32 -18 13 -60 68 -66 242
-137 294 -120 10 3 36 8 56 10 141 17 247 58 331 130 36 31 39 37 28 55 -11
18 -45 24 -77 12z"/>
<path d="M10490 11625 c0 -9 9 -34 20 -55 16 -31 20 -59 20 -127 0 -114 -2
-123 -40 -229 -17 -49 -38 -115 -46 -148 -8 -32 -18 -64 -22 -70 -4 -6 -7 -22
-8 -36 0 -14 -3 -30 -6 -35 -17 -29 -26 -162 -15 -215 2 -8 7 -33 12 -55 9
-48 52 -147 68 -157 30 -18 36 40 13 120 -8 29 -16 76 -17 105 -2 71 25 210
57 288 40 96 84 247 91 309 7 69 -11 190 -37 240 -19 36 -63 80 -81 80 -5 0
-9 -7 -9 -15z"/>
<path d="M7312 11558 c-20 -106 -29 -129 -97 -243 -36 -60 -70 -126 -75 -146
-29 -108 -15 -265 37 -409 47 -130 58 -149 73 -133 16 15 8 91 -19 178 -14 47
-22 101 -24 166 l-2 95 48 82 c26 45 47 88 47 96 0 8 11 28 25 44 37 44 56
107 60 197 3 87 -12 135 -43 135 -13 0 -20 -14 -30 -62z"/>
<path d="M7043 11376 c-23 -27 -55 -110 -68 -182 -13 -68 -11 -134 4 -134 9 0
41 59 41 76 0 8 18 52 40 96 45 91 49 117 22 141 -22 20 -24 20 -39 3z"/>
<path d="M3860 7293 c0 -28 20 -49 61 -66 38 -16 52 -12 61 14 11 30 -26 60
-82 66 -34 4 -40 2 -40 -14z"/>
<path d="M3498 7283 c-65 -10 -25 -73 47 -73 58 0 75 8 75 34 0 42 -32 53
-122 39z"/>
<path d="M2305 6983 c-36 -5 -172 -42 -194 -53 -9 -4 -28 -13 -43 -20 -37 -18
-44 -41 -18 -62 31 -25 71 -23 180 11 52 17 107 33 122 36 38 7 63 47 48 74
-11 21 -26 23 -95 14z"/>
<path d="M3267 6843 c-36 -4 -38 -6 -32 -31 13 -55 75 -80 108 -44 30 33 15
84 -22 80 -9 -1 -33 -3 -54 -5z"/>
<path d="M4114 6724 c-121 -12 -134 -16 -134 -43 0 -31 48 -43 144 -36 137 8
166 19 166 60 0 30 -31 33 -176 19z"/>
<path d="M4163 6401 c-40 -7 -83 -34 -83 -52 0 -5 18 -13 40 -19 31 -8 61 -7
127 4 97 17 124 33 98 60 -17 17 -99 20 -182 7z"/>
<path d="M3735 6070 c-27 -4 -68 -16 -89 -25 -36 -15 -38 -18 -22 -33 14 -14
41 -17 179 -18 89 0 201 -4 248 -8 67 -6 88 -5 96 6 18 21 3 34 -67 58 -72 25
-252 36 -345 20z"/>
<path d="M1119 6058 c-87 -6 -181 -29 -205 -49 -32 -27 0 -86 40 -75 66 19
193 36 273 36 123 0 170 23 139 66 -16 22 -125 32 -247 22z"/>
<path d="M2160 5802 c-52 -8 -63 -29 -31 -61 42 -42 291 -21 291 23 -1 33 -20
40 -117 42 -54 1 -118 -1 -143 -4z"/>
<path d="M1030 5353 c-144 -92 -160 -111 -160 -186 0 -37 6 -50 38 -84 52 -57
106 -67 271 -52 158 14 271 42 271 67 0 4 11 20 25 36 14 16 25 31 25 33 0 2
-9 21 -20 42 -22 43 -72 95 -114 117 -85 43 -285 60 -336 27z m315 -85 c57
-30 77 -68 55 -108 -9 -17 -41 -24 -225 -45 -97 -12 -182 -8 -208 10 -42 27
-36 41 51 103 66 47 135 63 237 55 38 -2 79 -9 90 -15z"/>
<path d="M4020 5328 c-25 -5 -65 -12 -89 -16 -28 -5 -49 -15 -58 -29 -13 -20
-12 -23 10 -37 45 -30 324 8 349 47 4 7 8 20 8 30 0 15 -10 17 -87 16 -49 -1
-108 -5 -133 -11z"/>
<path d="M2993 5003 c-33 -6 -40 -43 -13 -65 20 -16 38 -18 123 -16 84 3 102
6 111 21 9 15 6 23 -17 43 -25 21 -37 24 -105 23 -42 -1 -87 -4 -99 -6z"/>
<path d="M7672 4620 c-43 -5 -70 -14 -84 -28 l-20 -20 23 -13 c35 -20 249 -15
295 7 49 24 43 40 -18 48 -105 13 -134 14 -196 6z"/>
<path d="M730 4569 c-102 -14 -200 -56 -200 -85 0 -52 44 -68 102 -38 71 37
243 48 429 29 65 -6 77 -5 82 9 17 42 -18 61 -143 75 -135 16 -211 19 -270 10z"/>
<path d="M2145 4523 c-55 -12 -152 -45 -168 -58 -11 -8 -17 -23 -15 -37 3 -21
7 -23 52 -20 26 1 74 10 105 19 37 11 94 17 171 17 121 1 140 6 140 35 0 36
-191 65 -285 44z"/>
<path d="M8260 4487 c-19 -4 -42 -15 -50 -23 -13 -14 -12 -18 11 -38 24 -21
30 -22 96 -12 84 11 194 -8 279 -49 55 -27 79 -31 89 -15 18 28 -107 100 -225
129 -87 22 -138 24 -200 8z"/>
<path d="M3240 4139 c-95 -8 -142 -26 -138 -52 4 -26 40 -36 88 -25 80 18 327
0 384 -28 41 -20 46 -18 46 16 0 38 -25 55 -110 74 -78 17 -181 23 -270 15z"/>
<path d="M4335 4092 c-74 -16 -80 -19 -83 -43 -5 -43 15 -51 104 -39 44 6 92
16 107 22 36 14 53 44 36 64 -15 18 -63 17 -164 -4z"/>
<path d="M7780 4020 c-54 -7 -120 -33 -120 -48 0 -15 -56 -40 -106 -47 -39 -5
-63 -16 -97 -45 -42 -34 -45 -39 -30 -51 11 -10 46 -14 107 -14 55 0 103 -6
121 -14 48 -22 148 -29 287 -21 100 6 135 12 162 28 18 11 48 23 65 27 21 4
31 13 31 25 0 20 -73 91 -116 113 -82 41 -202 60 -304 47z m263 -104 c21 -10
36 -24 34 -30 -8 -23 -94 -38 -229 -39 -75 -1 -140 1 -144 6 -13 12 30 60 67
74 51 19 224 12 272 -11z"/>
<path d="M2325 3930 c-83 -8 -177 -34 -223 -62 -26 -16 -39 -18 -55 -11 -12 6
-40 18 -62 28 -75 34 -276 31 -418 -6 -31 -8 -38 -14 -35 -32 6 -43 47 -51
175 -32 151 22 232 14 337 -31 44 -19 85 -34 92 -34 7 0 19 12 26 27 9 20 31
36 73 53 56 23 70 25 205 22 80 -1 163 -3 185 -5 37 -2 40 0 40 23 0 21 -8 27
-50 41 -60 20 -194 28 -290 19z"/>
<path d="M3575 3630 c-110 -26 -140 -37 -143 -54 -9 -47 34 -52 215 -24 40 6
93 8 118 6 33 -4 51 -1 66 11 22 18 18 45 -8 55 -28 11 -208 15 -248 6z"/>
<path d="M7711 3479 c-47 -9 -91 -33 -91 -50 0 -6 10 -19 23 -30 27 -22 98
-25 154 -5 37 13 114 24 171 26 36 0 25 27 -21 49 -47 23 -150 27 -236 10z"/>
<path d="M11315 3161 c-125 -24 -166 -54 -113 -82 20 -11 120 -7 178 7 14 3
92 8 175 10 82 3 151 7 154 9 8 9 -24 38 -56 51 -54 23 -236 26 -338 5z"/>
<path d="M12247 3099 c-21 -5 -48 -15 -59 -23 -20 -14 -20 -15 5 -40 25 -25
30 -26 117 -21 50 2 95 7 99 9 5 3 23 1 42 -5 43 -12 109 -2 109 17 0 51 -195
91 -313 63z"/>
<path d="M6090 2653 c-74 -9 -192 -37 -207 -49 -15 -10 -16 -15 -5 -26 10 -10
48 -12 158 -10 149 4 225 -9 280 -45 13 -8 24 -12 24 -8 0 4 11 0 24 -9 27
-17 56 -12 56 10 0 25 -65 74 -137 104 -69 29 -137 40 -193 33z"/>
<path d="M4705 2634 c-66 -11 -135 -35 -135 -48 0 -14 93 -41 108 -32 4 2 63
7 132 10 154 8 190 14 190 32 0 8 -12 19 -26 25 -30 11 -222 20 -269 13z"/>
<path d="M13435 2632 c-60 -6 -209 -44 -244 -62 -20 -10 -56 -37 -81 -59 -24
-23 -45 -41 -46 -41 -1 0 -22 8 -46 18 -24 10 -56 18 -73 17 -16 -1 -64 -2
-106 -3 -84 -2 -115 -17 -105 -49 16 -51 133 -99 417 -173 36 -9 94 -27 130
-38 104 -34 174 -43 358 -48 180 -4 275 5 320 33 15 10 39 13 68 10 49 -5 105
11 100 28 -5 15 -49 35 -80 35 -24 0 -27 3 -21 25 16 63 -36 130 -161 205
-154 93 -187 104 -300 105 -55 0 -113 -1 -130 -3z m265 -99 c72 -25 212 -115
231 -148 29 -51 24 -68 -30 -92 -26 -12 -71 -25 -99 -29 -52 -7 -253 8 -392
28 -64 9 -250 64 -280 83 -16 10 31 81 74 109 47 30 121 55 185 62 24 2 46 6
48 7 10 10 224 -6 263 -20z"/>
<path d="M8010 2589 c-41 -10 -78 -23 -83 -28 -23 -23 62 -30 155 -13 29 6 74
13 100 17 50 7 70 21 47 36 -24 15 -141 9 -219 -12z"/>
<path d="M6908 2312 c-32 -6 -19 -23 35 -47 57 -26 239 -54 272 -41 17 6 17 7
0 26 -10 11 -41 27 -69 35 -54 15 -209 33 -238 27z"/>
<path d="M8620 2306 c0 -24 73 -52 160 -60 123 -12 143 -9 124 22 -20 31 -64
44 -174 49 -98 5 -110 3 -110 -11z"/>
<path d="M10760 2303 c-8 -2 -22 -7 -30 -9 -10 -4 -6 -11 16 -25 53 -33 294
-58 294 -30 0 21 -32 43 -80 56 -53 14 -168 19 -200 8z"/>
<path d="M7928 2243 c-48 -8 -53 -28 -13 -52 28 -16 53 -21 113 -21 42 -1 95
-8 117 -16 105 -39 128 -45 136 -37 14 14 -38 57 -111 94 -53 27 -77 33 -140
35 -41 1 -87 0 -102 -3z"/>
<path d="M11688 2175 c-45 -11 -60 -30 -31 -39 10 -3 82 -8 160 -11 98 -4 177
-13 252 -30 111 -25 215 -33 225 -16 10 15 -16 27 -99 46 -44 9 -91 21 -105
26 -116 39 -298 50 -402 24z"/>
<path d="M12388 2133 c-10 -3 -18 -9 -18 -14 0 -11 70 -43 115 -52 135 -29
168 -38 204 -56 47 -24 61 -26 61 -8 0 17 -47 60 -87 81 -58 29 -229 59 -275
49z"/>
<path d="M10325 1904 c-11 -2 -46 -6 -78 -9 -39 -5 -66 -14 -85 -30 l-27 -23
37 -18 c33 -15 46 -16 125 -5 81 11 133 30 133 49 -1 25 -54 44 -105 36z"/>
<path d="M13208 1844 c-100 -31 -39 -59 132 -60 69 0 146 -4 173 -9 38 -6 47
-5 47 7 0 63 -223 102 -352 62z"/>
<path d="M14008 1774 c-14 -14 -8 -22 35 -44 23 -12 52 -31 64 -42 26 -24 57
-20 61 9 4 30 -53 71 -109 79 -24 3 -47 2 -51 -2z"/>
<path d="M8370 1619 c-19 -6 -41 -16 -49 -24 -28 -27 -1 -35 116 -35 144 0
218 -18 269 -67 20 -19 41 -32 48 -30 49 16 -37 113 -126 141 -66 20 -209 29
-258 15z"/>
<path d="M11596 1452 c-4 -6 4 -17 16 -25 13 -8 36 -22 52 -31 38 -24 90 -25
116 -1 25 22 26 41 3 50 -33 13 -180 18 -187 7z"/>
<path d="M11033 1399 c-35 -10 -44 -33 -17 -43 8 -3 61 -6 117 -5 56 0 125 -3
153 -6 52 -7 69 0 55 23 -19 31 -233 52 -308 31z"/>
<path d="M13495 4981 c-68 -23 -178 -122 -210 -188 -9 -18 -18 -63 -21 -100
-8 -96 -10 -100 -37 -75 -40 38 -132 61 -240 62 -125 0 -170 -14 -228 -70 -40
-39 -48 -52 -54 -97 -13 -97 12 -174 75 -226 18 -16 57 -30 114 -42 47 -10 86
-21 86 -25 0 -4 -11 -17 -25 -30 -14 -13 -25 -28 -25 -33 0 -6 -7 -18 -16 -28
-9 -10 -17 -32 -19 -49 -1 -17 -5 -33 -9 -37 -11 -11 -6 -83 8 -118 8 -18 34
-52 57 -74 49 -46 96 -58 182 -47 70 10 108 29 198 102 l77 62 51 -48 c113
-106 306 -104 424 6 29 27 55 72 60 103 2 11 6 24 10 27 12 13 7 64 -9 97 -9
18 -40 53 -68 79 -28 25 -49 48 -46 50 3 3 43 17 90 33 94 31 153 68 199 125
34 43 56 116 48 160 -9 43 -50 103 -96 139 -38 30 -45 32 -123 33 -46 0 -96
-5 -111 -11 -49 -19 -57 -15 -57 29 0 78 -60 157 -139 185 -45 15 -110 18
-146 6z m168 -99 c18 -18 27 -39 27 -60 0 -52 -49 -158 -97 -212 -39 -44 -47
-48 -66 -39 -20 11 -146 7 -180 -6 -24 -10 -29 26 -13 103 21 100 63 157 151
204 89 48 139 50 178 10z m359 -192 c44 -13 58 -34 58 -88 0 -72 -102 -176
-197 -203 -24 -6 -43 -15 -43 -19 0 -4 -34 -8 -76 -9 -63 -2 -76 0 -71 12 3 8
-6 36 -20 62 l-25 47 31 43 c17 24 31 48 31 53 0 19 102 77 164 93 76 20 101
22 148 9z m-869 -121 c82 -42 96 -56 87 -87 -5 -15 -13 -49 -17 -77 -8 -49 -8
-49 -63 -67 -64 -19 -177 -22 -235 -5 -54 17 -105 83 -105 137 0 93 41 116
208 119 66 1 91 -3 125 -20z m410 -96 c44 -34 61 -76 47 -122 -5 -18 -15 -39
-21 -47 -13 -16 -86 -52 -133 -65 -35 -10 -102 5 -128 28 -41 37 -29 151 19
193 24 21 83 36 149 39 20 1 44 -9 67 -26z m182 -227 c107 -41 132 -118 67
-211 -53 -76 -183 -129 -254 -102 -41 15 -78 58 -78 91 0 66 13 136 25 136 7
0 31 14 53 30 23 17 46 30 52 30 6 0 20 11 32 25 26 30 27 30 103 1z m-463
-26 c12 -16 27 -30 32 -30 6 -1 24 -11 39 -24 l29 -23 -17 -34 c-26 -51 -148
-164 -208 -194 -76 -36 -115 -40 -155 -15 -18 11 -36 28 -39 37 -19 49 50 200
110 242 19 14 160 69 179 70 4 1 17 -12 30 -29z"/>
<path d="M5070 5759 c-10 -18 -9 -25 8 -42 17 -16 33 -20 87 -19 77 1 118 21
113 55 -3 21 -9 22 -100 25 -91 3 -98 1 -108 -19z"/>
<path d="M5328 4569 c-22 -12 -23 -23 -2 -43 16 -16 124 -23 158 -10 19 7 21
35 4 52 -15 15 -136 16 -160 1z"/>
<path d="M1845 2096 c-83 -24 -102 -33 -123 -63 -44 -63 -86 -169 -107 -270
-4 -18 -11 -35 -16 -39 -5 -3 -28 11 -51 30 -23 20 -57 38 -77 42 -20 3 -60
13 -89 21 -40 12 -77 15 -156 10 -109 -6 -174 -27 -273 -90 -108 -68 -123
-238 -30 -342 42 -48 121 -92 183 -102 19 -3 37 -9 40 -14 2 -5 -6 -25 -20
-46 -14 -21 -30 -65 -35 -98 -19 -102 20 -193 104 -245 46 -29 123 -29 168 -1
19 12 42 21 50 21 9 0 24 11 32 24 9 13 27 27 40 30 14 4 32 17 41 31 23 35
32 32 53 -18 36 -83 114 -141 192 -140 112 1 180 87 187 233 2 41 7 78 11 83
4 4 25 1 47 -6 26 -8 91 -12 195 -12 129 1 161 4 182 18 15 9 34 17 44 17 45
0 153 131 153 186 0 11 5 25 11 31 7 7 7 32 1 76 -11 84 -60 169 -117 202 -57
33 -157 65 -205 65 -41 0 -52 14 -29 37 19 19 22 124 5 164 -19 46 -96 115
-162 145 -65 31 -179 40 -249 20z m199 -80 c123 -45 151 -77 121 -140 -33 -70
-141 -173 -231 -219 -30 -15 -32 -15 -59 11 -39 36 -70 51 -135 66 -52 12 -55
14 -52 42 2 16 7 33 12 39 4 5 16 36 25 68 41 141 160 190 319 133z m-621
-296 c66 -9 95 -18 115 -35 l27 -23 -20 -24 c-47 -53 -53 -89 -28 -187 6 -22
4 -23 -38 -19 -42 5 -81 -5 -157 -39 -19 -8 -75 -17 -125 -19 -77 -4 -102 -1
-156 18 -78 28 -106 61 -105 121 1 63 27 102 96 146 59 39 146 66 238 74 40 3
36 3 153 -13z m402 -102 c15 -18 35 -47 43 -66 15 -30 15 -35 -1 -65 -10 -18
-41 -49 -70 -71 -49 -36 -55 -38 -105 -33 -30 3 -64 13 -77 21 -33 22 -50 88
-36 138 12 38 52 78 80 78 9 1 27 7 41 15 14 8 41 14 62 15 29 0 42 -7 63 -32z
m557 8 c32 -7 69 -21 83 -30 55 -36 70 -129 35 -208 -25 -57 -56 -91 -111
-119 -40 -21 -58 -23 -199 -23 -178 -1 -251 12 -300 53 l-33 27 56 58 c52 52
57 61 57 101 0 56 8 75 30 75 11 0 35 10 56 22 42 24 158 54 224 56 25 1 71
-4 102 -12z m-771 -302 c10 -13 9 -21 -6 -47 -10 -18 -22 -34 -26 -37 -4 -3
-22 -30 -40 -60 -82 -136 -302 -263 -357 -208 -15 15 -16 80 -2 130 13 45 86
128 143 162 24 13 79 34 122 45 43 12 80 23 83 26 12 11 70 4 83 -11z m211
-88 c38 -42 47 -61 51 -99 5 -50 -11 -120 -38 -160 -37 -57 -130 -71 -170 -26
-27 29 -24 111 8 174 21 42 29 70 42 140 1 6 3 13 3 18 1 4 14 7 30 6 20 0 39
-14 74 -53z"/>
<path d="M9590 2419 c-68 -22 -93 -23 -129 -5 -25 13 -31 13 -49 0 -21 -14
-20 -15 24 -56 40 -37 52 -42 104 -46 89 -7 123 3 138 38 17 37 13 59 -13 75
-16 10 -30 9 -75 -6z"/>
<path d="M9450 2230 c-83 -30 -124 -86 -81 -110 30 -15 48 -12 76 14 35 33
116 43 206 26 38 -7 72 -10 75 -7 4 3 4 17 0 30 -14 56 -176 83 -276 47z"/>
<path d="M9436 2042 c-58 -19 -106 -73 -89 -100 16 -26 35 -25 64 2 17 16 44
27 75 31 27 4 59 8 71 10 12 2 52 -4 88 -13 58 -14 68 -14 76 -1 12 19 -38 64
-88 78 -53 15 -139 12 -197 -7z"/>
</g>
</svg>
