<?xml version="1.0" encoding="utf-8"?>
<!-- Generator: Adobe Illustrator 27.2.0, SVG Export Plug-In . SVG Version: 6.00 Build 0)  -->
<svg version="1.1" id="Vrstva_1" xmlns="http://www.w3.org/2000/svg" xmlns:xlink="http://www.w3.org/1999/xlink" x="0px" y="0px"
	 viewBox="0 0 331.6 235.8" style="enable-background:new 0 0 331.6 235.8;" xml:space="preserve">
<style type="text/css">
	.st0{fill:#C00D0D;}
	.st1{fill:#929292;}
</style>
<path class="st0" d="M117.8,88.9V110c0,16.7-9.3,26.4-24.2,27.3v-10.6c3.7-0.5,6.3-1.8,8.1-3.6c1.7-1.9,2.7-4.7,3-7.6
	c0-0.1,0-1.5,0-1.5H92.5V88.9H117.8z"/>
<rect x="92.5" y="57" class="st1" width="25.3" height="25.1"/>
<rect x="60.2" y="57" class="st1" width="25.5" height="25.1"/>
<rect x="60.2" y="88.9" class="st1" width="25.5" height="25.1"/>
<polygon class="st1" points="131.8,122.9 136.7,122.9 136.7,136.2 142.9,129.8 148.8,129.8 142,136.4 149.7,147.8 143.6,147.8 
	138.7,139.8 136.7,141.6 136.7,147.8 131.8,147.8 "/>
<path class="st1" d="M151.3,129.8h4.8v2.6l0,0c1.2-2.2,3.5-3.1,5.6-3.1c5.2,0,6.6,3,6.6,7.4v11.2h-5v-10.2c0-3-0.9-4.5-3.1-4.5
	c-2.9,0-4,1.6-4,5.3v9.4h-5V129.8z"/>
<path class="st1" d="M177.8,127.2h-5.1v-4.3h5.1V127.2L177.8,127.2L177.8,127.2z M172.7,129.8h5.1v18.1h-5.1V129.8z"/>
<path class="st1" d="M182.3,122.9h5v9.4h0.1c1.2-2.2,3.4-3.1,5.2-3.1c5.3,0,6.6,3,6.6,7.4v11.2h-4.9v-10.2c0-3-0.9-4.5-3.2-4.5
	c-2.7,0-3.8,1.6-3.8,5.3v9.4h-5V122.9z"/>
<polygon class="st1" points="233.3,147.8 227.6,147.8 221.5,129.8 226.8,129.8 230.6,142.2 230.6,142.2 234.4,129.8 239.2,129.8 "/>
<path class="st1" d="M241.4,129.8h4.6v2.6h0.1c1.3-2.2,3.5-3.1,5.5-3.1c5.4,0,6.6,3,6.6,7.4v11.2h-4.9v-10.2c0-3-0.9-4.5-3.1-4.5
	c-2.8,0-4,1.6-4,5.3v9.4h-4.9V129.8z"/>
<polygon class="st1" points="143.5,181.9 138,181.9 131.8,163.8 137,163.8 140.8,176.1 140.8,176.1 144.6,163.8 149.5,163.8 "/>
<path class="st1" d="M180.6,163.8h4.8v3.3l0,0c1-2.2,3.4-3.7,5.8-3.7c0.4,0,0.8,0,1.1,0.1v4.6c-0.4-0.1-1.1-0.1-1.8-0.1
	c-3.5,0-4.8,2.5-4.8,5.8v8.2h-5V163.8z"/>
<polygon class="st1" points="212.9,178.1 222,167.5 213.4,167.5 213.4,163.8 228.4,163.8 228.4,167.5 219.1,178.1 229,178.1 
	229,181.9 212.9,181.9 "/>
<polygon class="st1" points="131.8,88.9 139.4,88.9 145.3,106 145.3,106 150.9,88.9 158.7,88.9 158.7,113.9 153.5,113.9 153.5,96.1 
	153.5,96.1 147.3,113.9 143,113.9 137,96.3 136.9,96.3 136.9,113.9 131.8,113.9 "/>
<path class="st1" d="M187.4,108c0,2.2,1.8,3.1,3.8,3.1c1.4,0,3.2-0.5,3.2-2.4c0-1.4-2.2-1.9-5.7-2.8c-2.8-0.6-5.8-1.5-5.8-4.8
	c0-4.7,4.1-5.8,7.9-5.8c3.9,0,7.6,1.3,8,5.8h-4.8c-0.1-2-1.6-2.6-3.4-2.6c-1.2,0-2.7,0.3-2.7,1.7c0,1.8,2.8,2.1,5.6,2.7
	c2.8,0.7,5.6,1.8,5.6,5.2c0,4.7-4.1,6.2-8.1,6.2c-4.2,0-8.4-1.5-8.6-6.3H187.4z"/>
<path class="st1" d="M208.6,95.7h3.7v3.4h-3.7v9c0,1.6,0.4,2,2.1,2c0.4,0,1,0,1.6-0.1v4c-0.9,0.1-2,0.1-3,0.1
	c-3.1,0-5.8-0.6-5.8-4.2V99.1h-3v-3.4h3v-5.3h5V95.7z"/>
<path class="st1" d="M218.5,108c0,2.2,1.8,3.1,3.8,3.1c1.4,0,3.2-0.5,3.2-2.4c0-1.4-2.2-1.9-5.7-2.8c-2.8-0.6-5.8-1.5-5.8-4.8
	c0-4.7,4.1-5.8,7.9-5.8c3.9,0,7.6,1.3,8,5.8h-4.8c-0.1-2-1.6-2.6-3.4-2.6c-1.2,0-2.7,0.3-2.7,1.7c0,1.8,2.7,2.1,5.6,2.7
	c2.8,0.7,5.6,1.8,5.6,5.2c0,4.7-4.1,6.2-8.1,6.2c-4.2,0-8.4-1.5-8.6-6.3H218.5z"/>
<polygon class="st1" points="233.8,88.9 238.7,88.9 238.7,102.3 245,95.7 250.9,95.7 244.1,102.5 251.6,113.9 245.6,113.9 
	240.7,105.7 238.7,107.7 238.7,113.9 233.8,113.9 "/>
<polygon class="st1" points="173.3,88.9 171.2,91.7 169,88.9 165,88.9 168.8,93.6 173.4,93.6 177.2,88.9 "/>
<polygon class="st1" points="266.4,88.9 261.2,88.9 258.1,93.6 261.8,93.6 "/>
<path class="st1" d="M171.1,114.3L171.1,114.3l-0.1-3.8c0.1,0,0.4,0,0.5,0c0.7,0,1.4-0.2,2.1-0.6c0.6-0.4,1-0.9,1.1-1.4h5.1
	c-0.4,1.9-1.4,3.2-3,4.3C175.3,113.7,173.4,114.3,171.1,114.3L171.1,114.3z M171,95.2L171,95.2c2.9,0,5.1,0.8,6.6,2.4
	c1.6,1.7,2.3,4.1,2.3,7.1c0.1,0.4,0,0.7-0.1,1.1H171v-3h3.8c-0.1-1.1-0.4-1.9-0.9-2.5c-0.6-0.8-1.7-1.2-3-1.2V95.2z M171,114.3
	c-2.8-0.1-5-0.9-6.5-2.6c-1.6-1.7-2.4-4.1-2.4-7.3c0-2.9,0.8-5.1,2.4-6.8c1.6-1.7,3.7-2.4,6.5-2.4v3.9l0,0c-1.3,0-2.2,0.5-3,1.4
	c-0.4,0.6-0.7,1.4-0.9,2.3h3.8v3h-3.9c0.1,1.4,0.4,2.5,1,3.2c0.6,0.8,1.6,1.2,2.9,1.4V114.3z"/>
<path class="st1" d="M260.3,102.9l0.5-0.1c0.9-0.1,1.6-0.3,2.2-0.6c0.2-0.1,0.4-0.3,0.6-0.6c0.1-0.3,0.2-0.6,0.1-0.9
	c-0.1-0.5-0.4-0.9-0.8-1.2c-0.6-0.3-1.4-0.5-2.5-0.5h-0.1v-3.7c0.2,0,0.4,0,0.6,0c2.4,0,4.3,0.4,5.7,1.4s2.1,2.2,2.1,3.9v10.1
	c0,0.8,0.1,1.4,0.2,1.7c0.1,0.4,0.4,0.6,0.8,0.8l0,0v0.7H267h-2.7v-0.1c-0.2-0.7-0.4-1.4-0.4-2.1l0,0c-1,1.1-2.2,1.9-3.5,2.2v-3.1
	c1.1-0.2,2-0.7,2.8-1.5c0.1-0.2,0.3-0.6,0.4-0.9c0.1-0.4,0.2-0.8,0.2-1.2v-2.1c-0.6,0.4-1.4,0.6-2.3,0.8l-1.2,0.2V102.9z
	 M257.7,114.4c-1.8,0-3.2-0.5-4.3-1.4c-1.1-1-1.6-2.2-1.6-3.8c0-1.7,0.4-3,1.4-4c0.9-1,2.4-1.6,4.2-1.9l2.8-0.4v3.2l-0.7,0.1
	c-0.9,0.2-1.6,0.4-2,0.9c-0.5,0.4-0.7,0.9-0.7,1.6c0,0.7,0.2,1.3,0.6,1.7c0.4,0.4,0.9,0.6,1.7,0.6c0.4,0,0.7,0,1.1-0.1v3.1
	C259.5,114.2,258.7,114.4,257.7,114.4L257.7,114.4z M260.3,99.1c-0.9,0-1.7,0.3-2.2,0.7c-0.6,0.4-0.9,1.1-0.9,1.9h-4.8
	c0.1-2.2,0.9-3.7,2.3-4.8c1.3-1,3.1-1.5,5.5-1.6V99.1z"/>
<path class="st1" d="M238.7,182.4L238.7,182.4v-3.8c0.1,0,0.3,0,0.4,0c0.7,0,1.4-0.1,2-0.6c0.6-0.4,1-0.9,1.2-1.4h5.1
	c-0.4,1.8-1.4,3.2-3,4.2C243,181.9,241,182.4,238.7,182.4L238.7,182.4z M238.7,163.3L238.7,163.3c2.8,0,5,0.9,6.6,2.5
	c1.5,1.7,2.3,4,2.3,7.1c0,0.4,0,0.7-0.1,1.1h-8.9V171h3.7c-0.1-1.1-0.4-1.9-0.9-2.5c-0.6-0.8-1.6-1.2-2.8-1.2V163.3z M238.7,182.4
	c-2.9,0-5-0.9-6.6-2.5c-1.6-1.7-2.4-4.1-2.4-7.3c0-2.9,0.8-5.2,2.4-6.8c1.6-1.6,3.7-2.4,6.6-2.4v4h-0.1c-1.2,0-2.2,0.4-2.9,1.4
	c-0.4,0.6-0.7,1.4-0.9,2.3h3.8v3.1h-3.9c0.1,1.4,0.4,2.5,0.9,3.2c0.6,0.8,1.6,1.2,3,1.3V182.4z"/>
<path class="st1" d="M211.9,129c2.9,0,5.2,0.9,6.9,2.7c1.7,1.7,2.5,4,2.5,7c0,2.9-0.9,5.2-2.5,6.9c-1.7,1.7-4,2.5-6.9,2.5v-4
	c1.4,0,2.5-0.5,3.3-1.4c0.7-0.9,1.1-2.3,1.1-4c0-1.9-0.4-3.2-1.1-4.2c-0.8-0.9-1.9-1.4-3.3-1.4V129z M205,145.5
	c-1.7-1.7-2.6-4-2.6-6.9c0-3,0.9-5.3,2.6-7c1.7-1.8,4-2.7,6.8-2.7h0.1v4h-0.1c-1.4,0-2.5,0.4-3.3,1.4c-0.7,1-1.1,2.4-1.1,4.2
	c0,1.7,0.4,3.1,1.1,4c0.8,0.9,1.9,1.4,3.3,1.4h0.1v4h-0.1C208.9,148.1,206.6,147.2,205,145.5z"/>
<path class="st1" d="M168.8,156.9h0.9c3,0,5.2,0.6,6.7,2c1.6,1.3,2.3,3.2,2.3,5.8c0,2.7-0.7,4.8-2.3,6.1c-1.5,1.4-3.7,2.2-6.7,2.2
	h-0.9v-4.3c1.5,0,2.6-0.4,3.4-1c0.7-0.6,1.2-1.6,1.2-3c0-1.2-0.4-2.1-1.2-2.7c-0.8-0.6-1.9-0.9-3.4-0.9V156.9z M158.9,156.9h2.7h7.2
	v4.2l0,0h-4.5v7.6h4.5l0,0v4.3c-1.7-0.1-3.2,0-4.5,0v8.9h-2.7h-2.7V156.9z"/>
<path class="st1" d="M269.8,136.9l0.5-0.1c0.9-0.1,1.6-0.3,2.2-0.6c0.2-0.1,0.4-0.3,0.6-0.6c0.1-0.3,0.1-0.6,0.1-0.9
	c-0.1-0.5-0.4-0.9-0.9-1.2c-0.6-0.3-1.4-0.5-2.4-0.5h-0.1v-3.7c0.2,0,0.4,0,0.6,0c2.4,0,4.2,0.4,5.7,1.4c1.4,0.9,2,2.2,2,3.9v10.1
	c0,0.8,0.1,1.4,0.2,1.7c0.1,0.4,0.4,0.6,0.9,0.8l0,0v0.7h-2.7h-2.7v-0.1c-0.2-0.7-0.4-1.4-0.4-2.1l0,0c-1,1.1-2.2,1.9-3.5,2.2v-3.1
	c1.1-0.2,2-0.7,2.7-1.5c0.2-0.2,0.4-0.6,0.5-0.9c0.1-0.4,0.2-0.9,0.2-1.2v-2.1c-0.6,0.4-1.4,0.6-2.4,0.8l-1.1,0.1V136.9z
	 M267.2,148.3c-1.7,0-3.2-0.4-4.2-1.4c-1.1-0.9-1.7-2.2-1.7-3.7c0-1.7,0.5-3,1.5-4c0.9-1,2.4-1.7,4.2-1.9l2.8-0.4v3.1l-0.8,0.1
	c-0.9,0.1-1.5,0.4-2,0.9c-0.4,0.4-0.6,0.9-0.6,1.6c0,0.7,0.2,1.3,0.6,1.7c0.4,0.4,1,0.6,1.7,0.6c0.4,0,0.8,0,1.2-0.1v3.1
	C269,148.2,268.1,148.3,267.2,148.3L267.2,148.3z M269.8,133.1c-0.9,0-1.7,0.3-2.2,0.6c-0.6,0.5-0.9,1.1-0.9,1.9H262
	c0.1-2.2,0.9-3.7,2.2-4.8s3.2-1.5,5.6-1.6V133.1z"/>
<path class="st1" d="M201.3,171l0.5-0.1c0.9-0.1,1.6-0.3,2.2-0.6c0.2-0.1,0.4-0.3,0.6-0.6c0.1-0.3,0.2-0.6,0.1-0.9
	c-0.1-0.5-0.4-0.9-0.8-1.2c-0.6-0.4-1.4-0.5-2.5-0.5h-0.1v-3.7c0.2-0.1,0.4-0.1,0.6-0.1c2.4,0,4.3,0.5,5.7,1.4
	c1.4,0.9,2.1,2.2,2.1,3.9v10.1c0,0.8,0.1,1.4,0.1,1.7c0.1,0.4,0.4,0.6,0.9,0.8l0,0v0.6H208h-2.7l0,0c-0.2-0.7-0.4-1.4-0.4-2.1v-0.1
	c-1,1.2-2.2,1.9-3.5,2.3v-3.2c1.1-0.1,2-0.6,2.8-1.5c0.1-0.2,0.3-0.5,0.4-0.9c0.1-0.4,0.2-0.8,0.2-1.2v-2.1
	c-0.6,0.3-1.4,0.6-2.3,0.8l-1.2,0.1V171z M198.6,182.3c-1.7,0-3.2-0.4-4.2-1.4c-1.1-0.9-1.6-2.2-1.6-3.7c0-1.7,0.4-3,1.4-4
	c0.9-1,2.4-1.7,4.2-1.9l2.8-0.4v3.1l-0.7,0.1c-0.9,0.1-1.6,0.4-2,0.9c-0.5,0.4-0.7,0.9-0.7,1.6c0,0.7,0.2,1.3,0.6,1.7
	c0.4,0.4,0.9,0.6,1.7,0.6c0.4,0,0.7-0.1,1.1-0.1v3.2C200.5,182.3,199.6,182.3,198.6,182.3L198.6,182.3z M201.3,167.1
	c-0.9,0-1.7,0.2-2.2,0.6c-0.6,0.4-0.9,1.1-0.9,1.9h-4.8c0.1-2.2,0.9-3.7,2.3-4.8c1.3-0.9,3.1-1.4,5.5-1.5V167.1z"/>
</svg>
